# Dongfeng sandbox; metres; X right, Y far, Z up
v 0.347000 4.300000 0.002000
v 0.347358 4.277994 0.002000
v 0.348451 4.256973 0.002000
v 0.350303 4.236934 0.002000
v 0.352940 4.217870 0.002000
v 0.356388 4.199780 0.002000
v 0.360672 4.182656 0.002000
v 0.365818 4.166497 0.002000
v 0.371852 4.151296 0.002000
v 0.378799 4.137051 0.002000
v 0.386685 4.123756 0.002000
v 0.395535 4.111407 0.002000
v 0.405375 4.100000 0.002000
v 0.416231 4.089530 0.002000
v 0.428128 4.079994 0.002000
v 0.441092 4.071387 0.002000
v 0.455148 4.063704 0.002000
v 0.470323 4.056941 0.002000
v 0.486641 4.051094 0.002000
v 0.504128 4.046158 0.002000
v 0.522810 4.042130 0.002000
v 0.542713 4.039004 0.002000
v 0.563862 4.036777 0.002000
v 0.586282 4.035443 0.002000
v 0.610000 4.035000 0.002000
v 0.637549 4.036389 0.002000
v 0.665155 4.040416 0.002000
v 0.692757 4.046872 0.002000
v 0.720291 4.055548 0.002000
v 0.747696 4.066233 0.002000
v 0.774911 4.078719 0.002000
v 0.801872 4.092796 0.002000
v 0.828519 4.108254 0.002000
v 0.854788 4.124885 0.002000
v 0.880618 4.142478 0.002000
v 0.905948 4.160825 0.002000
v 0.930714 4.179716 0.002000
v 0.954856 4.198941 0.002000
v 0.978310 4.218291 0.002000
v 1.001016 4.237557 0.002000
v 1.022910 4.256528 0.002000
v 1.043931 4.274997 0.002000
v 1.064018 4.292752 0.002000
v 1.083107 4.309586 0.002000
v 1.101138 4.325287 0.002000
v 1.118047 4.339648 0.002000
v 1.133773 4.352458 0.002000
v 1.148254 4.363507 0.002000
v 1.161429 4.372588 0.002000
v 1.212857 4.405891 0.002000
v 1.264286 4.439162 0.002000
v 1.315714 4.471436 0.002000
v 1.367143 4.501685 0.002000
v 1.418571 4.528872 0.002000
v 1.470000 4.552009 0.002000
v 1.521429 4.570217 0.002000
v 1.572857 4.582780 0.002000
v 1.624286 4.589192 0.002000
v 1.675714 4.589192 0.002000
v 1.727143 4.582780 0.002000
v 1.778571 4.570217 0.002000
v 1.830000 4.552009 0.002000
v 1.881429 4.528872 0.002000
v 1.932857 4.501685 0.002000
v 1.984286 4.471436 0.002000
v 2.035714 4.439162 0.002000
v 2.087143 4.405891 0.002000
v 2.138572 4.372588 0.002000
v 2.148299 4.365971 0.002000
v 2.158715 4.358216 0.002000
v 2.169797 4.349412 0.002000
v 2.181523 4.339648 0.002000
v 2.193871 4.329011 0.002000
v 2.206819 4.317591 0.002000
v 2.220342 4.305475 0.002000
v 2.234420 4.292752 0.002000
v 2.249029 4.279510 0.002000
v 2.264147 4.265839 0.002000
v 2.279752 4.251824 0.002000
v 2.295820 4.237557 0.002000
v 2.312330 4.223124 0.002000
v 2.329260 4.208613 0.002000
v 2.346586 4.194115 0.002000
v 2.364286 4.179716 0.002000
v 2.382337 4.165505 0.002000
v 2.400718 4.151571 0.002000
v 2.419405 4.138001 0.002000
v 2.438376 4.124885 0.002000
v 2.457609 4.112310 0.002000
v 2.477081 4.100366 0.002000
v 2.496769 4.089139 0.002000
v 2.516652 4.078719 0.002000
v 2.536706 4.069194 0.002000
v 2.556909 4.060652 0.002000
v 2.577239 4.053182 0.002000
v 2.597673 4.046872 0.002000
v 2.618189 4.041811 0.002000
v 2.638763 4.038086 0.002000
v 2.659374 4.035786 0.002000
v 2.680000 4.035000 0.002000
v 2.694860 4.035221 0.002000
v 2.709433 4.035889 0.002000
v 2.723706 4.037011 0.002000
v 2.737668 4.038594 0.002000
v 2.751306 4.040646 0.002000
v 2.764608 4.043174 0.002000
v 2.777562 4.046185 0.002000
v 2.790156 4.049687 0.002000
v 2.802378 4.053688 0.002000
v 2.814216 4.058193 0.002000
v 2.825658 4.063211 0.002000
v 2.836691 4.068750 0.002000
v 2.847304 4.074816 0.002000
v 2.857485 4.081416 0.002000
v 2.867221 4.088558 0.002000
v 2.876500 4.096250 0.002000
v 2.885310 4.104498 0.002000
v 2.893640 4.113310 0.002000
v 2.901477 4.122694 0.002000
v 2.908809 4.132656 0.002000
v 2.915623 4.143204 0.002000
v 2.921909 4.154346 0.002000
v 2.927653 4.166088 0.002000
v 2.932844 4.178438 0.002000
v 2.937469 4.191402 0.002000
v 2.941517 4.204990 0.002000
v 2.944975 4.219208 0.002000
v 2.947832 4.234063 0.002000
v 2.950075 4.249562 0.002000
v 2.951692 4.265713 0.002000
v 2.952671 4.282523 0.002000
v 2.953000 4.300000 0.002000
v 2.960000 4.560000 0.002000
v 2.958292 4.601290 0.002000
v 2.953181 4.642297 0.002000
v 2.944700 4.682743 0.002000
v 2.932909 4.722350 0.002000
v 2.917887 4.760848 0.002000
v 2.899737 4.797974 0.002000
v 2.878583 4.833474 0.002000
v 2.854570 4.867106 0.002000
v 2.827862 4.898641 0.002000
v 2.798641 4.927862 0.002000
v 2.767106 4.954570 0.002000
v 2.733474 4.978583 0.002000
v 2.697974 4.999737 0.002000
v 2.660848 5.017887 0.002000
v 2.622350 5.032908 0.002000
v 2.582743 5.044700 0.002000
v 2.542297 5.053181 0.002000
v 2.501290 5.058292 0.002000
v 2.460000 5.060000 0.002000
v 0.840000 5.060000 0.002000
v 0.798710 5.058292 0.002000
v 0.757703 5.053181 0.002000
v 0.717257 5.044700 0.002000
v 0.677650 5.032908 0.002000
v 0.639152 5.017887 0.002000
v 0.602026 4.999737 0.002000
v 0.566526 4.978583 0.002000
v 0.532894 4.954570 0.002000
v 0.501359 4.927862 0.002000
v 0.472138 4.898641 0.002000
v 0.445430 4.867106 0.002000
v 0.421417 4.833474 0.002000
v 0.400263 4.797974 0.002000
v 0.382113 4.760848 0.002000
v 0.367091 4.722350 0.002000
v 0.355300 4.682743 0.002000
v 0.346819 4.642297 0.002000
v 0.341708 4.601290 0.002000
v 0.340000 4.560000 0.002000
v 0.347000 4.300000 -0.014000
v 0.347358 4.277994 -0.014000
v 0.348451 4.256973 -0.014000
v 0.350303 4.236934 -0.014000
v 0.352940 4.217870 -0.014000
v 0.356388 4.199780 -0.014000
v 0.360672 4.182656 -0.014000
v 0.365818 4.166497 -0.014000
v 0.371852 4.151296 -0.014000
v 0.378799 4.137051 -0.014000
v 0.386685 4.123756 -0.014000
v 0.395535 4.111407 -0.014000
v 0.405375 4.100000 -0.014000
v 0.416231 4.089530 -0.014000
v 0.428128 4.079994 -0.014000
v 0.441092 4.071387 -0.014000
v 0.455148 4.063704 -0.014000
v 0.470323 4.056941 -0.014000
v 0.486641 4.051094 -0.014000
v 0.504128 4.046158 -0.014000
v 0.522810 4.042130 -0.014000
v 0.542713 4.039004 -0.014000
v 0.563862 4.036777 -0.014000
v 0.586282 4.035443 -0.014000
v 0.610000 4.035000 -0.014000
v 0.637549 4.036389 -0.014000
v 0.665155 4.040416 -0.014000
v 0.692757 4.046872 -0.014000
v 0.720291 4.055548 -0.014000
v 0.747696 4.066233 -0.014000
v 0.774911 4.078719 -0.014000
v 0.801872 4.092796 -0.014000
v 0.828519 4.108254 -0.014000
v 0.854788 4.124885 -0.014000
v 0.880618 4.142478 -0.014000
v 0.905948 4.160825 -0.014000
v 0.930714 4.179716 -0.014000
v 0.954856 4.198941 -0.014000
v 0.978310 4.218291 -0.014000
v 1.001016 4.237557 -0.014000
v 1.022910 4.256528 -0.014000
v 1.043931 4.274997 -0.014000
v 1.064018 4.292752 -0.014000
v 1.083107 4.309586 -0.014000
v 1.101138 4.325287 -0.014000
v 1.118047 4.339648 -0.014000
v 1.133773 4.352458 -0.014000
v 1.148254 4.363507 -0.014000
v 1.161429 4.372588 -0.014000
v 1.212857 4.405891 -0.014000
v 1.264286 4.439162 -0.014000
v 1.315714 4.471436 -0.014000
v 1.367143 4.501685 -0.014000
v 1.418571 4.528872 -0.014000
v 1.470000 4.552009 -0.014000
v 1.521429 4.570217 -0.014000
v 1.572857 4.582780 -0.014000
v 1.624286 4.589192 -0.014000
v 1.675714 4.589192 -0.014000
v 1.727143 4.582780 -0.014000
v 1.778571 4.570217 -0.014000
v 1.830000 4.552009 -0.014000
v 1.881429 4.528872 -0.014000
v 1.932857 4.501685 -0.014000
v 1.984286 4.471436 -0.014000
v 2.035714 4.439162 -0.014000
v 2.087143 4.405891 -0.014000
v 2.138572 4.372588 -0.014000
v 2.148299 4.365971 -0.014000
v 2.158715 4.358216 -0.014000
v 2.169797 4.349412 -0.014000
v 2.181523 4.339648 -0.014000
v 2.193871 4.329011 -0.014000
v 2.206819 4.317591 -0.014000
v 2.220342 4.305475 -0.014000
v 2.234420 4.292752 -0.014000
v 2.249029 4.279510 -0.014000
v 2.264147 4.265839 -0.014000
v 2.279752 4.251824 -0.014000
v 2.295820 4.237557 -0.014000
v 2.312330 4.223124 -0.014000
v 2.329260 4.208613 -0.014000
v 2.346586 4.194115 -0.014000
v 2.364286 4.179716 -0.014000
v 2.382337 4.165505 -0.014000
v 2.400718 4.151571 -0.014000
v 2.419405 4.138001 -0.014000
v 2.438376 4.124885 -0.014000
v 2.457609 4.112310 -0.014000
v 2.477081 4.100366 -0.014000
v 2.496769 4.089139 -0.014000
v 2.516652 4.078719 -0.014000
v 2.536706 4.069194 -0.014000
v 2.556909 4.060652 -0.014000
v 2.577239 4.053182 -0.014000
v 2.597673 4.046872 -0.014000
v 2.618189 4.041811 -0.014000
v 2.638763 4.038086 -0.014000
v 2.659374 4.035786 -0.014000
v 2.680000 4.035000 -0.014000
v 2.694860 4.035221 -0.014000
v 2.709433 4.035889 -0.014000
v 2.723706 4.037011 -0.014000
v 2.737668 4.038594 -0.014000
v 2.751306 4.040646 -0.014000
v 2.764608 4.043174 -0.014000
v 2.777562 4.046185 -0.014000
v 2.790156 4.049687 -0.014000
v 2.802378 4.053688 -0.014000
v 2.814216 4.058193 -0.014000
v 2.825658 4.063211 -0.014000
v 2.836691 4.068750 -0.014000
v 2.847304 4.074816 -0.014000
v 2.857485 4.081416 -0.014000
v 2.867221 4.088558 -0.014000
v 2.876500 4.096250 -0.014000
v 2.885310 4.104498 -0.014000
v 2.893640 4.113310 -0.014000
v 2.901477 4.122694 -0.014000
v 2.908809 4.132656 -0.014000
v 2.915623 4.143204 -0.014000
v 2.921909 4.154346 -0.014000
v 2.927653 4.166088 -0.014000
v 2.932844 4.178438 -0.014000
v 2.937469 4.191402 -0.014000
v 2.941517 4.204990 -0.014000
v 2.944975 4.219208 -0.014000
v 2.947832 4.234063 -0.014000
v 2.950075 4.249562 -0.014000
v 2.951692 4.265713 -0.014000
v 2.952671 4.282523 -0.014000
v 2.953000 4.300000 -0.014000
v 2.960000 4.560000 -0.014000
v 2.958292 4.601290 -0.014000
v 2.953181 4.642297 -0.014000
v 2.944700 4.682743 -0.014000
v 2.932909 4.722350 -0.014000
v 2.917887 4.760848 -0.014000
v 2.899737 4.797974 -0.014000
v 2.878583 4.833474 -0.014000
v 2.854570 4.867106 -0.014000
v 2.827862 4.898641 -0.014000
v 2.798641 4.927862 -0.014000
v 2.767106 4.954570 -0.014000
v 2.733474 4.978583 -0.014000
v 2.697974 4.999737 -0.014000
v 2.660848 5.017887 -0.014000
v 2.622350 5.032908 -0.014000
v 2.582743 5.044700 -0.014000
v 2.542297 5.053181 -0.014000
v 2.501290 5.058292 -0.014000
v 2.460000 5.060000 -0.014000
v 0.840000 5.060000 -0.014000
v 0.798710 5.058292 -0.014000
v 0.757703 5.053181 -0.014000
v 0.717257 5.044700 -0.014000
v 0.677650 5.032908 -0.014000
v 0.639152 5.017887 -0.014000
v 0.602026 4.999737 -0.014000
v 0.566526 4.978583 -0.014000
v 0.532894 4.954570 -0.014000
v 0.501359 4.927862 -0.014000
v 0.472138 4.898641 -0.014000
v 0.445430 4.867106 -0.014000
v 0.421417 4.833474 -0.014000
v 0.400263 4.797974 -0.014000
v 0.382113 4.760848 -0.014000
v 0.367091 4.722350 -0.014000
v 0.355300 4.682743 -0.014000
v 0.346819 4.642297 -0.014000
v 0.341708 4.601290 -0.014000
v 0.340000 4.560000 -0.014000
v 0.347000 4.300000 -0.014000
v 0.347358 4.277994 -0.014000
v 0.347358 4.277994 0.002000
v 0.347000 4.300000 0.002000
v 0.347358 4.277994 -0.014000
v 0.348451 4.256973 -0.014000
v 0.348451 4.256973 0.002000
v 0.347358 4.277994 0.002000
v 0.348451 4.256973 -0.014000
v 0.350303 4.236934 -0.014000
v 0.350303 4.236934 0.002000
v 0.348451 4.256973 0.002000
v 0.350303 4.236934 -0.014000
v 0.352940 4.217870 -0.014000
v 0.352940 4.217870 0.002000
v 0.350303 4.236934 0.002000
v 0.352940 4.217870 -0.014000
v 0.356388 4.199780 -0.014000
v 0.356388 4.199780 0.002000
v 0.352940 4.217870 0.002000
v 0.356388 4.199780 -0.014000
v 0.360672 4.182656 -0.014000
v 0.360672 4.182656 0.002000
v 0.356388 4.199780 0.002000
v 0.360672 4.182656 -0.014000
v 0.365818 4.166497 -0.014000
v 0.365818 4.166497 0.002000
v 0.360672 4.182656 0.002000
v 0.365818 4.166497 -0.014000
v 0.371852 4.151296 -0.014000
v 0.371852 4.151296 0.002000
v 0.365818 4.166497 0.002000
v 0.371852 4.151296 -0.014000
v 0.378799 4.137051 -0.014000
v 0.378799 4.137051 0.002000
v 0.371852 4.151296 0.002000
v 0.378799 4.137051 -0.014000
v 0.386685 4.123756 -0.014000
v 0.386685 4.123756 0.002000
v 0.378799 4.137051 0.002000
v 0.386685 4.123756 -0.014000
v 0.395535 4.111407 -0.014000
v 0.395535 4.111407 0.002000
v 0.386685 4.123756 0.002000
v 0.395535 4.111407 -0.014000
v 0.405375 4.100000 -0.014000
v 0.405375 4.100000 0.002000
v 0.395535 4.111407 0.002000
v 0.405375 4.100000 -0.014000
v 0.416231 4.089530 -0.014000
v 0.416231 4.089530 0.002000
v 0.405375 4.100000 0.002000
v 0.416231 4.089530 -0.014000
v 0.428128 4.079994 -0.014000
v 0.428128 4.079994 0.002000
v 0.416231 4.089530 0.002000
v 0.428128 4.079994 -0.014000
v 0.441092 4.071387 -0.014000
v 0.441092 4.071387 0.002000
v 0.428128 4.079994 0.002000
v 0.441092 4.071387 -0.014000
v 0.455148 4.063704 -0.014000
v 0.455148 4.063704 0.002000
v 0.441092 4.071387 0.002000
v 0.455148 4.063704 -0.014000
v 0.470323 4.056941 -0.014000
v 0.470323 4.056941 0.002000
v 0.455148 4.063704 0.002000
v 0.470323 4.056941 -0.014000
v 0.486641 4.051094 -0.014000
v 0.486641 4.051094 0.002000
v 0.470323 4.056941 0.002000
v 0.486641 4.051094 -0.014000
v 0.504128 4.046158 -0.014000
v 0.504128 4.046158 0.002000
v 0.486641 4.051094 0.002000
v 0.504128 4.046158 -0.014000
v 0.522810 4.042130 -0.014000
v 0.522810 4.042130 0.002000
v 0.504128 4.046158 0.002000
v 0.522810 4.042130 -0.014000
v 0.542713 4.039004 -0.014000
v 0.542713 4.039004 0.002000
v 0.522810 4.042130 0.002000
v 0.542713 4.039004 -0.014000
v 0.563862 4.036777 -0.014000
v 0.563862 4.036777 0.002000
v 0.542713 4.039004 0.002000
v 0.563862 4.036777 -0.014000
v 0.586282 4.035443 -0.014000
v 0.586282 4.035443 0.002000
v 0.563862 4.036777 0.002000
v 0.586282 4.035443 -0.014000
v 0.610000 4.035000 -0.014000
v 0.610000 4.035000 0.002000
v 0.586282 4.035443 0.002000
v 0.610000 4.035000 -0.014000
v 0.637549 4.036389 -0.014000
v 0.637549 4.036389 0.002000
v 0.610000 4.035000 0.002000
v 0.637549 4.036389 -0.014000
v 0.665155 4.040416 -0.014000
v 0.665155 4.040416 0.002000
v 0.637549 4.036389 0.002000
v 0.665155 4.040416 -0.014000
v 0.692757 4.046872 -0.014000
v 0.692757 4.046872 0.002000
v 0.665155 4.040416 0.002000
v 0.692757 4.046872 -0.014000
v 0.720291 4.055548 -0.014000
v 0.720291 4.055548 0.002000
v 0.692757 4.046872 0.002000
v 0.720291 4.055548 -0.014000
v 0.747696 4.066233 -0.014000
v 0.747696 4.066233 0.002000
v 0.720291 4.055548 0.002000
v 0.747696 4.066233 -0.014000
v 0.774911 4.078719 -0.014000
v 0.774911 4.078719 0.002000
v 0.747696 4.066233 0.002000
v 0.774911 4.078719 -0.014000
v 0.801872 4.092796 -0.014000
v 0.801872 4.092796 0.002000
v 0.774911 4.078719 0.002000
v 0.801872 4.092796 -0.014000
v 0.828519 4.108254 -0.014000
v 0.828519 4.108254 0.002000
v 0.801872 4.092796 0.002000
v 0.828519 4.108254 -0.014000
v 0.854788 4.124885 -0.014000
v 0.854788 4.124885 0.002000
v 0.828519 4.108254 0.002000
v 0.854788 4.124885 -0.014000
v 0.880618 4.142478 -0.014000
v 0.880618 4.142478 0.002000
v 0.854788 4.124885 0.002000
v 0.880618 4.142478 -0.014000
v 0.905948 4.160825 -0.014000
v 0.905948 4.160825 0.002000
v 0.880618 4.142478 0.002000
v 0.905948 4.160825 -0.014000
v 0.930714 4.179716 -0.014000
v 0.930714 4.179716 0.002000
v 0.905948 4.160825 0.002000
v 0.930714 4.179716 -0.014000
v 0.954856 4.198941 -0.014000
v 0.954856 4.198941 0.002000
v 0.930714 4.179716 0.002000
v 0.954856 4.198941 -0.014000
v 0.978310 4.218291 -0.014000
v 0.978310 4.218291 0.002000
v 0.954856 4.198941 0.002000
v 0.978310 4.218291 -0.014000
v 1.001016 4.237557 -0.014000
v 1.001016 4.237557 0.002000
v 0.978310 4.218291 0.002000
v 1.001016 4.237557 -0.014000
v 1.022910 4.256528 -0.014000
v 1.022910 4.256528 0.002000
v 1.001016 4.237557 0.002000
v 1.022910 4.256528 -0.014000
v 1.043931 4.274997 -0.014000
v 1.043931 4.274997 0.002000
v 1.022910 4.256528 0.002000
v 1.043931 4.274997 -0.014000
v 1.064018 4.292752 -0.014000
v 1.064018 4.292752 0.002000
v 1.043931 4.274997 0.002000
v 1.064018 4.292752 -0.014000
v 1.083107 4.309586 -0.014000
v 1.083107 4.309586 0.002000
v 1.064018 4.292752 0.002000
v 1.083107 4.309586 -0.014000
v 1.101138 4.325287 -0.014000
v 1.101138 4.325287 0.002000
v 1.083107 4.309586 0.002000
v 1.101138 4.325287 -0.014000
v 1.118047 4.339648 -0.014000
v 1.118047 4.339648 0.002000
v 1.101138 4.325287 0.002000
v 1.118047 4.339648 -0.014000
v 1.133773 4.352458 -0.014000
v 1.133773 4.352458 0.002000
v 1.118047 4.339648 0.002000
v 1.133773 4.352458 -0.014000
v 1.148254 4.363507 -0.014000
v 1.148254 4.363507 0.002000
v 1.133773 4.352458 0.002000
v 1.148254 4.363507 -0.014000
v 1.161429 4.372588 -0.014000
v 1.161429 4.372588 0.002000
v 1.148254 4.363507 0.002000
v 1.161429 4.372588 -0.014000
v 1.212857 4.405891 -0.014000
v 1.212857 4.405891 0.002000
v 1.161429 4.372588 0.002000
v 1.212857 4.405891 -0.014000
v 1.264286 4.439162 -0.014000
v 1.264286 4.439162 0.002000
v 1.212857 4.405891 0.002000
v 1.264286 4.439162 -0.014000
v 1.315714 4.471436 -0.014000
v 1.315714 4.471436 0.002000
v 1.264286 4.439162 0.002000
v 1.315714 4.471436 -0.014000
v 1.367143 4.501685 -0.014000
v 1.367143 4.501685 0.002000
v 1.315714 4.471436 0.002000
v 1.367143 4.501685 -0.014000
v 1.418571 4.528872 -0.014000
v 1.418571 4.528872 0.002000
v 1.367143 4.501685 0.002000
v 1.418571 4.528872 -0.014000
v 1.470000 4.552009 -0.014000
v 1.470000 4.552009 0.002000
v 1.418571 4.528872 0.002000
v 1.470000 4.552009 -0.014000
v 1.521429 4.570217 -0.014000
v 1.521429 4.570217 0.002000
v 1.470000 4.552009 0.002000
v 1.521429 4.570217 -0.014000
v 1.572857 4.582780 -0.014000
v 1.572857 4.582780 0.002000
v 1.521429 4.570217 0.002000
v 1.572857 4.582780 -0.014000
v 1.624286 4.589192 -0.014000
v 1.624286 4.589192 0.002000
v 1.572857 4.582780 0.002000
v 1.624286 4.589192 -0.014000
v 1.675714 4.589192 -0.014000
v 1.675714 4.589192 0.002000
v 1.624286 4.589192 0.002000
v 1.675714 4.589192 -0.014000
v 1.727143 4.582780 -0.014000
v 1.727143 4.582780 0.002000
v 1.675714 4.589192 0.002000
v 1.727143 4.582780 -0.014000
v 1.778571 4.570217 -0.014000
v 1.778571 4.570217 0.002000
v 1.727143 4.582780 0.002000
v 1.778571 4.570217 -0.014000
v 1.830000 4.552009 -0.014000
v 1.830000 4.552009 0.002000
v 1.778571 4.570217 0.002000
v 1.830000 4.552009 -0.014000
v 1.881429 4.528872 -0.014000
v 1.881429 4.528872 0.002000
v 1.830000 4.552009 0.002000
v 1.881429 4.528872 -0.014000
v 1.932857 4.501685 -0.014000
v 1.932857 4.501685 0.002000
v 1.881429 4.528872 0.002000
v 1.932857 4.501685 -0.014000
v 1.984286 4.471436 -0.014000
v 1.984286 4.471436 0.002000
v 1.932857 4.501685 0.002000
v 1.984286 4.471436 -0.014000
v 2.035714 4.439162 -0.014000
v 2.035714 4.439162 0.002000
v 1.984286 4.471436 0.002000
v 2.035714 4.439162 -0.014000
v 2.087143 4.405891 -0.014000
v 2.087143 4.405891 0.002000
v 2.035714 4.439162 0.002000
v 2.087143 4.405891 -0.014000
v 2.138572 4.372588 -0.014000
v 2.138572 4.372588 0.002000
v 2.087143 4.405891 0.002000
v 2.138572 4.372588 -0.014000
v 2.148299 4.365971 -0.014000
v 2.148299 4.365971 0.002000
v 2.138572 4.372588 0.002000
v 2.148299 4.365971 -0.014000
v 2.158715 4.358216 -0.014000
v 2.158715 4.358216 0.002000
v 2.148299 4.365971 0.002000
v 2.158715 4.358216 -0.014000
v 2.169797 4.349412 -0.014000
v 2.169797 4.349412 0.002000
v 2.158715 4.358216 0.002000
v 2.169797 4.349412 -0.014000
v 2.181523 4.339648 -0.014000
v 2.181523 4.339648 0.002000
v 2.169797 4.349412 0.002000
v 2.181523 4.339648 -0.014000
v 2.193871 4.329011 -0.014000
v 2.193871 4.329011 0.002000
v 2.181523 4.339648 0.002000
v 2.193871 4.329011 -0.014000
v 2.206819 4.317591 -0.014000
v 2.206819 4.317591 0.002000
v 2.193871 4.329011 0.002000
v 2.206819 4.317591 -0.014000
v 2.220342 4.305475 -0.014000
v 2.220342 4.305475 0.002000
v 2.206819 4.317591 0.002000
v 2.220342 4.305475 -0.014000
v 2.234420 4.292752 -0.014000
v 2.234420 4.292752 0.002000
v 2.220342 4.305475 0.002000
v 2.234420 4.292752 -0.014000
v 2.249029 4.279510 -0.014000
v 2.249029 4.279510 0.002000
v 2.234420 4.292752 0.002000
v 2.249029 4.279510 -0.014000
v 2.264147 4.265839 -0.014000
v 2.264147 4.265839 0.002000
v 2.249029 4.279510 0.002000
v 2.264147 4.265839 -0.014000
v 2.279752 4.251824 -0.014000
v 2.279752 4.251824 0.002000
v 2.264147 4.265839 0.002000
v 2.279752 4.251824 -0.014000
v 2.295820 4.237557 -0.014000
v 2.295820 4.237557 0.002000
v 2.279752 4.251824 0.002000
v 2.295820 4.237557 -0.014000
v 2.312330 4.223124 -0.014000
v 2.312330 4.223124 0.002000
v 2.295820 4.237557 0.002000
v 2.312330 4.223124 -0.014000
v 2.329260 4.208613 -0.014000
v 2.329260 4.208613 0.002000
v 2.312330 4.223124 0.002000
v 2.329260 4.208613 -0.014000
v 2.346586 4.194115 -0.014000
v 2.346586 4.194115 0.002000
v 2.329260 4.208613 0.002000
v 2.346586 4.194115 -0.014000
v 2.364286 4.179716 -0.014000
v 2.364286 4.179716 0.002000
v 2.346586 4.194115 0.002000
v 2.364286 4.179716 -0.014000
v 2.382337 4.165505 -0.014000
v 2.382337 4.165505 0.002000
v 2.364286 4.179716 0.002000
v 2.382337 4.165505 -0.014000
v 2.400718 4.151571 -0.014000
v 2.400718 4.151571 0.002000
v 2.382337 4.165505 0.002000
v 2.400718 4.151571 -0.014000
v 2.419405 4.138001 -0.014000
v 2.419405 4.138001 0.002000
v 2.400718 4.151571 0.002000
v 2.419405 4.138001 -0.014000
v 2.438376 4.124885 -0.014000
v 2.438376 4.124885 0.002000
v 2.419405 4.138001 0.002000
v 2.438376 4.124885 -0.014000
v 2.457609 4.112310 -0.014000
v 2.457609 4.112310 0.002000
v 2.438376 4.124885 0.002000
v 2.457609 4.112310 -0.014000
v 2.477081 4.100366 -0.014000
v 2.477081 4.100366 0.002000
v 2.457609 4.112310 0.002000
v 2.477081 4.100366 -0.014000
v 2.496769 4.089139 -0.014000
v 2.496769 4.089139 0.002000
v 2.477081 4.100366 0.002000
v 2.496769 4.089139 -0.014000
v 2.516652 4.078719 -0.014000
v 2.516652 4.078719 0.002000
v 2.496769 4.089139 0.002000
v 2.516652 4.078719 -0.014000
v 2.536706 4.069194 -0.014000
v 2.536706 4.069194 0.002000
v 2.516652 4.078719 0.002000
v 2.536706 4.069194 -0.014000
v 2.556909 4.060652 -0.014000
v 2.556909 4.060652 0.002000
v 2.536706 4.069194 0.002000
v 2.556909 4.060652 -0.014000
v 2.577239 4.053182 -0.014000
v 2.577239 4.053182 0.002000
v 2.556909 4.060652 0.002000
v 2.577239 4.053182 -0.014000
v 2.597673 4.046872 -0.014000
v 2.597673 4.046872 0.002000
v 2.577239 4.053182 0.002000
v 2.597673 4.046872 -0.014000
v 2.618189 4.041811 -0.014000
v 2.618189 4.041811 0.002000
v 2.597673 4.046872 0.002000
v 2.618189 4.041811 -0.014000
v 2.638763 4.038086 -0.014000
v 2.638763 4.038086 0.002000
v 2.618189 4.041811 0.002000
v 2.638763 4.038086 -0.014000
v 2.659374 4.035786 -0.014000
v 2.659374 4.035786 0.002000
v 2.638763 4.038086 0.002000
v 2.659374 4.035786 -0.014000
v 2.680000 4.035000 -0.014000
v 2.680000 4.035000 0.002000
v 2.659374 4.035786 0.002000
v 2.680000 4.035000 -0.014000
v 2.694860 4.035221 -0.014000
v 2.694860 4.035221 0.002000
v 2.680000 4.035000 0.002000
v 2.694860 4.035221 -0.014000
v 2.709433 4.035889 -0.014000
v 2.709433 4.035889 0.002000
v 2.694860 4.035221 0.002000
v 2.709433 4.035889 -0.014000
v 2.723706 4.037011 -0.014000
v 2.723706 4.037011 0.002000
v 2.709433 4.035889 0.002000
v 2.723706 4.037011 -0.014000
v 2.737668 4.038594 -0.014000
v 2.737668 4.038594 0.002000
v 2.723706 4.037011 0.002000
v 2.737668 4.038594 -0.014000
v 2.751306 4.040646 -0.014000
v 2.751306 4.040646 0.002000
v 2.737668 4.038594 0.002000
v 2.751306 4.040646 -0.014000
v 2.764608 4.043174 -0.014000
v 2.764608 4.043174 0.002000
v 2.751306 4.040646 0.002000
v 2.764608 4.043174 -0.014000
v 2.777562 4.046185 -0.014000
v 2.777562 4.046185 0.002000
v 2.764608 4.043174 0.002000
v 2.777562 4.046185 -0.014000
v 2.790156 4.049687 -0.014000
v 2.790156 4.049687 0.002000
v 2.777562 4.046185 0.002000
v 2.790156 4.049687 -0.014000
v 2.802378 4.053688 -0.014000
v 2.802378 4.053688 0.002000
v 2.790156 4.049687 0.002000
v 2.802378 4.053688 -0.014000
v 2.814216 4.058193 -0.014000
v 2.814216 4.058193 0.002000
v 2.802378 4.053688 0.002000
v 2.814216 4.058193 -0.014000
v 2.825658 4.063211 -0.014000
v 2.825658 4.063211 0.002000
v 2.814216 4.058193 0.002000
v 2.825658 4.063211 -0.014000
v 2.836691 4.068750 -0.014000
v 2.836691 4.068750 0.002000
v 2.825658 4.063211 0.002000
v 2.836691 4.068750 -0.014000
v 2.847304 4.074816 -0.014000
v 2.847304 4.074816 0.002000
v 2.836691 4.068750 0.002000
v 2.847304 4.074816 -0.014000
v 2.857485 4.081416 -0.014000
v 2.857485 4.081416 0.002000
v 2.847304 4.074816 0.002000
v 2.857485 4.081416 -0.014000
v 2.867221 4.088558 -0.014000
v 2.867221 4.088558 0.002000
v 2.857485 4.081416 0.002000
v 2.867221 4.088558 -0.014000
v 2.876500 4.096250 -0.014000
v 2.876500 4.096250 0.002000
v 2.867221 4.088558 0.002000
v 2.876500 4.096250 -0.014000
v 2.885310 4.104498 -0.014000
v 2.885310 4.104498 0.002000
v 2.876500 4.096250 0.002000
v 2.885310 4.104498 -0.014000
v 2.893640 4.113310 -0.014000
v 2.893640 4.113310 0.002000
v 2.885310 4.104498 0.002000
v 2.893640 4.113310 -0.014000
v 2.901477 4.122694 -0.014000
v 2.901477 4.122694 0.002000
v 2.893640 4.113310 0.002000
v 2.901477 4.122694 -0.014000
v 2.908809 4.132656 -0.014000
v 2.908809 4.132656 0.002000
v 2.901477 4.122694 0.002000
v 2.908809 4.132656 -0.014000
v 2.915623 4.143204 -0.014000
v 2.915623 4.143204 0.002000
v 2.908809 4.132656 0.002000
v 2.915623 4.143204 -0.014000
v 2.921909 4.154346 -0.014000
v 2.921909 4.154346 0.002000
v 2.915623 4.143204 0.002000
v 2.921909 4.154346 -0.014000
v 2.927653 4.166088 -0.014000
v 2.927653 4.166088 0.002000
v 2.921909 4.154346 0.002000
v 2.927653 4.166088 -0.014000
v 2.932844 4.178438 -0.014000
v 2.932844 4.178438 0.002000
v 2.927653 4.166088 0.002000
v 2.932844 4.178438 -0.014000
v 2.937469 4.191402 -0.014000
v 2.937469 4.191402 0.002000
v 2.932844 4.178438 0.002000
v 2.937469 4.191402 -0.014000
v 2.941517 4.204990 -0.014000
v 2.941517 4.204990 0.002000
v 2.937469 4.191402 0.002000
v 2.941517 4.204990 -0.014000
v 2.944975 4.219208 -0.014000
v 2.944975 4.219208 0.002000
v 2.941517 4.204990 0.002000
v 2.944975 4.219208 -0.014000
v 2.947832 4.234063 -0.014000
v 2.947832 4.234063 0.002000
v 2.944975 4.219208 0.002000
v 2.947832 4.234063 -0.014000
v 2.950075 4.249562 -0.014000
v 2.950075 4.249562 0.002000
v 2.947832 4.234063 0.002000
v 2.950075 4.249562 -0.014000
v 2.951692 4.265713 -0.014000
v 2.951692 4.265713 0.002000
v 2.950075 4.249562 0.002000
v 2.951692 4.265713 -0.014000
v 2.952671 4.282523 -0.014000
v 2.952671 4.282523 0.002000
v 2.951692 4.265713 0.002000
v 2.952671 4.282523 -0.014000
v 2.953000 4.300000 -0.014000
v 2.953000 4.300000 0.002000
v 2.952671 4.282523 0.002000
v 2.953000 4.300000 -0.014000
v 2.960000 4.560000 -0.014000
v 2.960000 4.560000 0.002000
v 2.953000 4.300000 0.002000
v 2.960000 4.560000 -0.014000
v 2.958292 4.601290 -0.014000
v 2.958292 4.601290 0.002000
v 2.960000 4.560000 0.002000
v 2.958292 4.601290 -0.014000
v 2.953181 4.642297 -0.014000
v 2.953181 4.642297 0.002000
v 2.958292 4.601290 0.002000
v 2.953181 4.642297 -0.014000
v 2.944700 4.682743 -0.014000
v 2.944700 4.682743 0.002000
v 2.953181 4.642297 0.002000
v 2.944700 4.682743 -0.014000
v 2.932909 4.722350 -0.014000
v 2.932909 4.722350 0.002000
v 2.944700 4.682743 0.002000
v 2.932909 4.722350 -0.014000
v 2.917887 4.760848 -0.014000
v 2.917887 4.760848 0.002000
v 2.932909 4.722350 0.002000
v 2.917887 4.760848 -0.014000
v 2.899737 4.797974 -0.014000
v 2.899737 4.797974 0.002000
v 2.917887 4.760848 0.002000
v 2.899737 4.797974 -0.014000
v 2.878583 4.833474 -0.014000
v 2.878583 4.833474 0.002000
v 2.899737 4.797974 0.002000
v 2.878583 4.833474 -0.014000
v 2.854570 4.867106 -0.014000
v 2.854570 4.867106 0.002000
v 2.878583 4.833474 0.002000
v 2.854570 4.867106 -0.014000
v 2.827862 4.898641 -0.014000
v 2.827862 4.898641 0.002000
v 2.854570 4.867106 0.002000
v 2.827862 4.898641 -0.014000
v 2.798641 4.927862 -0.014000
v 2.798641 4.927862 0.002000
v 2.827862 4.898641 0.002000
v 2.798641 4.927862 -0.014000
v 2.767106 4.954570 -0.014000
v 2.767106 4.954570 0.002000
v 2.798641 4.927862 0.002000
v 2.767106 4.954570 -0.014000
v 2.733474 4.978583 -0.014000
v 2.733474 4.978583 0.002000
v 2.767106 4.954570 0.002000
v 2.733474 4.978583 -0.014000
v 2.697974 4.999737 -0.014000
v 2.697974 4.999737 0.002000
v 2.733474 4.978583 0.002000
v 2.697974 4.999737 -0.014000
v 2.660848 5.017887 -0.014000
v 2.660848 5.017887 0.002000
v 2.697974 4.999737 0.002000
v 2.660848 5.017887 -0.014000
v 2.622350 5.032908 -0.014000
v 2.622350 5.032908 0.002000
v 2.660848 5.017887 0.002000
v 2.622350 5.032908 -0.014000
v 2.582743 5.044700 -0.014000
v 2.582743 5.044700 0.002000
v 2.622350 5.032908 0.002000
v 2.582743 5.044700 -0.014000
v 2.542297 5.053181 -0.014000
v 2.542297 5.053181 0.002000
v 2.582743 5.044700 0.002000
v 2.542297 5.053181 -0.014000
v 2.501290 5.058292 -0.014000
v 2.501290 5.058292 0.002000
v 2.542297 5.053181 0.002000
v 2.501290 5.058292 -0.014000
v 2.460000 5.060000 -0.014000
v 2.460000 5.060000 0.002000
v 2.501290 5.058292 0.002000
v 2.460000 5.060000 -0.014000
v 0.840000 5.060000 -0.014000
v 0.840000 5.060000 0.002000
v 2.460000 5.060000 0.002000
v 0.840000 5.060000 -0.014000
v 0.798710 5.058292 -0.014000
v 0.798710 5.058292 0.002000
v 0.840000 5.060000 0.002000
v 0.798710 5.058292 -0.014000
v 0.757703 5.053181 -0.014000
v 0.757703 5.053181 0.002000
v 0.798710 5.058292 0.002000
v 0.757703 5.053181 -0.014000
v 0.717257 5.044700 -0.014000
v 0.717257 5.044700 0.002000
v 0.757703 5.053181 0.002000
v 0.717257 5.044700 -0.014000
v 0.677650 5.032908 -0.014000
v 0.677650 5.032908 0.002000
v 0.717257 5.044700 0.002000
v 0.677650 5.032908 -0.014000
v 0.639152 5.017887 -0.014000
v 0.639152 5.017887 0.002000
v 0.677650 5.032908 0.002000
v 0.639152 5.017887 -0.014000
v 0.602026 4.999737 -0.014000
v 0.602026 4.999737 0.002000
v 0.639152 5.017887 0.002000
v 0.602026 4.999737 -0.014000
v 0.566526 4.978583 -0.014000
v 0.566526 4.978583 0.002000
v 0.602026 4.999737 0.002000
v 0.566526 4.978583 -0.014000
v 0.532894 4.954570 -0.014000
v 0.532894 4.954570 0.002000
v 0.566526 4.978583 0.002000
v 0.532894 4.954570 -0.014000
v 0.501359 4.927862 -0.014000
v 0.501359 4.927862 0.002000
v 0.532894 4.954570 0.002000
v 0.501359 4.927862 -0.014000
v 0.472138 4.898641 -0.014000
v 0.472138 4.898641 0.002000
v 0.501359 4.927862 0.002000
v 0.472138 4.898641 -0.014000
v 0.445430 4.867106 -0.014000
v 0.445430 4.867106 0.002000
v 0.472138 4.898641 0.002000
v 0.445430 4.867106 -0.014000
v 0.421417 4.833474 -0.014000
v 0.421417 4.833474 0.002000
v 0.445430 4.867106 0.002000
v 0.421417 4.833474 -0.014000
v 0.400263 4.797974 -0.014000
v 0.400263 4.797974 0.002000
v 0.421417 4.833474 0.002000
v 0.400263 4.797974 -0.014000
v 0.382113 4.760848 -0.014000
v 0.382113 4.760848 0.002000
v 0.400263 4.797974 0.002000
v 0.382113 4.760848 -0.014000
v 0.367091 4.722350 -0.014000
v 0.367091 4.722350 0.002000
v 0.382113 4.760848 0.002000
v 0.367091 4.722350 -0.014000
v 0.355300 4.682743 -0.014000
v 0.355300 4.682743 0.002000
v 0.367091 4.722350 0.002000
v 0.355300 4.682743 -0.014000
v 0.346819 4.642297 -0.014000
v 0.346819 4.642297 0.002000
v 0.355300 4.682743 0.002000
v 0.346819 4.642297 -0.014000
v 0.341708 4.601290 -0.014000
v 0.341708 4.601290 0.002000
v 0.346819 4.642297 0.002000
v 0.341708 4.601290 -0.014000
v 0.340000 4.560000 -0.014000
v 0.340000 4.560000 0.002000
v 0.341708 4.601290 0.002000
v 0.340000 4.560000 -0.014000
v 0.347000 4.300000 -0.014000
v 0.347000 4.300000 0.002000
v 0.340000 4.560000 0.002000
vn 0.000000 0.000000 1.000000
vn 0.000000 0.000000 1.000000
vn 0.000000 0.000000 1.000000
vn 0.000000 0.000000 1.000000
vn 0.000000 0.000000 1.000000
vn 0.000000 0.000000 1.000000
vn 0.000000 0.000000 1.000000
vn 0.000000 0.000000 1.000000
vn 0.000000 0.000000 1.000000
vn 0.000000 0.000000 1.000000
vn 0.000000 0.000000 1.000000
vn 0.000000 0.000000 1.000000
vn 0.000000 0.000000 1.000000
vn 0.000000 0.000000 1.000000
vn 0.000000 0.000000 1.000000
vn 0.000000 0.000000 1.000000
vn 0.000000 0.000000 1.000000
vn 0.000000 0.000000 1.000000
vn 0.000000 0.000000 1.000000
vn 0.000000 0.000000 1.000000
vn 0.000000 0.000000 1.000000
vn 0.000000 0.000000 1.000000
vn 0.000000 0.000000 1.000000
vn 0.000000 0.000000 1.000000
vn 0.000000 0.000000 1.000000
vn 0.000000 0.000000 1.000000
vn 0.000000 0.000000 1.000000
vn 0.000000 0.000000 1.000000
vn 0.000000 0.000000 1.000000
vn 0.000000 0.000000 1.000000
vn 0.000000 0.000000 1.000000
vn 0.000000 0.000000 1.000000
vn 0.000000 0.000000 1.000000
vn 0.000000 0.000000 1.000000
vn 0.000000 0.000000 1.000000
vn 0.000000 0.000000 1.000000
vn 0.000000 0.000000 1.000000
vn 0.000000 0.000000 1.000000
vn 0.000000 0.000000 1.000000
vn 0.000000 0.000000 1.000000
vn 0.000000 0.000000 1.000000
vn 0.000000 0.000000 1.000000
vn 0.000000 0.000000 1.000000
vn 0.000000 0.000000 1.000000
vn 0.000000 0.000000 1.000000
vn 0.000000 0.000000 1.000000
vn 0.000000 0.000000 1.000000
vn 0.000000 0.000000 1.000000
vn 0.000000 0.000000 1.000000
vn 0.000000 0.000000 1.000000
vn 0.000000 0.000000 1.000000
vn 0.000000 0.000000 1.000000
vn 0.000000 0.000000 1.000000
vn 0.000000 0.000000 1.000000
vn 0.000000 0.000000 1.000000
vn 0.000000 0.000000 1.000000
vn 0.000000 0.000000 1.000000
vn 0.000000 0.000000 1.000000
vn 0.000000 0.000000 1.000000
vn 0.000000 0.000000 1.000000
vn 0.000000 0.000000 1.000000
vn 0.000000 0.000000 1.000000
vn 0.000000 0.000000 1.000000
vn 0.000000 0.000000 1.000000
vn 0.000000 0.000000 1.000000
vn 0.000000 0.000000 1.000000
vn 0.000000 0.000000 1.000000
vn 0.000000 0.000000 1.000000
vn 0.000000 0.000000 1.000000
vn 0.000000 0.000000 1.000000
vn 0.000000 0.000000 1.000000
vn 0.000000 0.000000 1.000000
vn 0.000000 0.000000 1.000000
vn 0.000000 0.000000 1.000000
vn 0.000000 0.000000 1.000000
vn 0.000000 0.000000 1.000000
vn 0.000000 0.000000 1.000000
vn 0.000000 0.000000 1.000000
vn 0.000000 0.000000 1.000000
vn 0.000000 0.000000 1.000000
vn 0.000000 0.000000 1.000000
vn 0.000000 0.000000 1.000000
vn 0.000000 0.000000 1.000000
vn 0.000000 0.000000 1.000000
vn 0.000000 0.000000 1.000000
vn 0.000000 0.000000 1.000000
vn 0.000000 0.000000 1.000000
vn 0.000000 0.000000 1.000000
vn 0.000000 0.000000 1.000000
vn 0.000000 0.000000 1.000000
vn 0.000000 0.000000 1.000000
vn 0.000000 0.000000 1.000000
vn 0.000000 0.000000 1.000000
vn 0.000000 0.000000 1.000000
vn 0.000000 0.000000 1.000000
vn 0.000000 0.000000 1.000000
vn 0.000000 0.000000 1.000000
vn 0.000000 0.000000 1.000000
vn 0.000000 0.000000 1.000000
vn 0.000000 0.000000 1.000000
vn 0.000000 0.000000 1.000000
vn 0.000000 0.000000 1.000000
vn 0.000000 0.000000 1.000000
vn 0.000000 0.000000 1.000000
vn 0.000000 0.000000 1.000000
vn 0.000000 0.000000 1.000000
vn 0.000000 0.000000 1.000000
vn 0.000000 0.000000 1.000000
vn 0.000000 0.000000 1.000000
vn 0.000000 0.000000 1.000000
vn 0.000000 0.000000 1.000000
vn 0.000000 0.000000 1.000000
vn 0.000000 0.000000 1.000000
vn 0.000000 0.000000 1.000000
vn 0.000000 0.000000 1.000000
vn 0.000000 0.000000 1.000000
vn 0.000000 0.000000 1.000000
vn 0.000000 0.000000 1.000000
vn 0.000000 0.000000 1.000000
vn 0.000000 0.000000 1.000000
vn 0.000000 0.000000 1.000000
vn 0.000000 0.000000 1.000000
vn 0.000000 0.000000 1.000000
vn 0.000000 0.000000 1.000000
vn 0.000000 0.000000 1.000000
vn 0.000000 0.000000 1.000000
vn 0.000000 0.000000 1.000000
vn 0.000000 0.000000 1.000000
vn 0.000000 0.000000 1.000000
vn 0.000000 0.000000 1.000000
vn 0.000000 0.000000 1.000000
vn 0.000000 0.000000 1.000000
vn 0.000000 0.000000 1.000000
vn 0.000000 0.000000 1.000000
vn 0.000000 0.000000 1.000000
vn 0.000000 0.000000 1.000000
vn 0.000000 0.000000 1.000000
vn 0.000000 0.000000 1.000000
vn 0.000000 0.000000 1.000000
vn 0.000000 0.000000 1.000000
vn 0.000000 0.000000 1.000000
vn 0.000000 0.000000 1.000000
vn 0.000000 0.000000 1.000000
vn 0.000000 0.000000 1.000000
vn 0.000000 0.000000 1.000000
vn 0.000000 0.000000 1.000000
vn 0.000000 0.000000 1.000000
vn 0.000000 0.000000 1.000000
vn 0.000000 0.000000 1.000000
vn 0.000000 0.000000 1.000000
vn 0.000000 0.000000 1.000000
vn 0.000000 0.000000 1.000000
vn 0.000000 0.000000 1.000000
vn 0.000000 0.000000 1.000000
vn 0.000000 0.000000 1.000000
vn 0.000000 0.000000 1.000000
vn 0.000000 0.000000 1.000000
vn 0.000000 0.000000 1.000000
vn 0.000000 0.000000 1.000000
vn 0.000000 0.000000 1.000000
vn 0.000000 0.000000 1.000000
vn 0.000000 0.000000 1.000000
vn 0.000000 0.000000 1.000000
vn 0.000000 0.000000 1.000000
vn 0.000000 0.000000 1.000000
vn 0.000000 0.000000 1.000000
vn 0.000000 0.000000 1.000000
vn 0.000000 0.000000 1.000000
vn 0.000000 0.000000 1.000000
vn 0.000000 0.000000 1.000000
vn 0.000000 0.000000 1.000000
vn 0.000000 0.000000 1.000000
vn 0.000000 0.000000 -1.000000
vn 0.000000 0.000000 -1.000000
vn 0.000000 0.000000 -1.000000
vn 0.000000 0.000000 -1.000000
vn 0.000000 0.000000 -1.000000
vn 0.000000 0.000000 -1.000000
vn 0.000000 0.000000 -1.000000
vn 0.000000 0.000000 -1.000000
vn 0.000000 0.000000 -1.000000
vn 0.000000 0.000000 -1.000000
vn 0.000000 0.000000 -1.000000
vn 0.000000 0.000000 -1.000000
vn 0.000000 0.000000 -1.000000
vn 0.000000 0.000000 -1.000000
vn 0.000000 0.000000 -1.000000
vn 0.000000 0.000000 -1.000000
vn 0.000000 0.000000 -1.000000
vn 0.000000 0.000000 -1.000000
vn 0.000000 0.000000 -1.000000
vn 0.000000 0.000000 -1.000000
vn 0.000000 0.000000 -1.000000
vn 0.000000 0.000000 -1.000000
vn 0.000000 0.000000 -1.000000
vn 0.000000 0.000000 -1.000000
vn 0.000000 0.000000 -1.000000
vn 0.000000 0.000000 -1.000000
vn 0.000000 0.000000 -1.000000
vn 0.000000 0.000000 -1.000000
vn 0.000000 0.000000 -1.000000
vn 0.000000 0.000000 -1.000000
vn 0.000000 0.000000 -1.000000
vn 0.000000 0.000000 -1.000000
vn 0.000000 0.000000 -1.000000
vn 0.000000 0.000000 -1.000000
vn 0.000000 0.000000 -1.000000
vn 0.000000 0.000000 -1.000000
vn 0.000000 0.000000 -1.000000
vn 0.000000 0.000000 -1.000000
vn 0.000000 0.000000 -1.000000
vn 0.000000 0.000000 -1.000000
vn 0.000000 0.000000 -1.000000
vn 0.000000 0.000000 -1.000000
vn 0.000000 0.000000 -1.000000
vn 0.000000 0.000000 -1.000000
vn 0.000000 0.000000 -1.000000
vn 0.000000 0.000000 -1.000000
vn 0.000000 0.000000 -1.000000
vn 0.000000 0.000000 -1.000000
vn 0.000000 0.000000 -1.000000
vn 0.000000 0.000000 -1.000000
vn 0.000000 0.000000 -1.000000
vn 0.000000 0.000000 -1.000000
vn 0.000000 0.000000 -1.000000
vn 0.000000 0.000000 -1.000000
vn 0.000000 0.000000 -1.000000
vn 0.000000 0.000000 -1.000000
vn 0.000000 0.000000 -1.000000
vn 0.000000 0.000000 -1.000000
vn 0.000000 0.000000 -1.000000
vn 0.000000 0.000000 -1.000000
vn 0.000000 0.000000 -1.000000
vn 0.000000 0.000000 -1.000000
vn 0.000000 0.000000 -1.000000
vn 0.000000 0.000000 -1.000000
vn 0.000000 0.000000 -1.000000
vn 0.000000 0.000000 -1.000000
vn 0.000000 0.000000 -1.000000
vn 0.000000 0.000000 -1.000000
vn 0.000000 0.000000 -1.000000
vn 0.000000 0.000000 -1.000000
vn 0.000000 0.000000 -1.000000
vn 0.000000 0.000000 -1.000000
vn 0.000000 0.000000 -1.000000
vn 0.000000 0.000000 -1.000000
vn 0.000000 0.000000 -1.000000
vn 0.000000 0.000000 -1.000000
vn 0.000000 0.000000 -1.000000
vn 0.000000 0.000000 -1.000000
vn 0.000000 0.000000 -1.000000
vn 0.000000 0.000000 -1.000000
vn 0.000000 0.000000 -1.000000
vn 0.000000 0.000000 -1.000000
vn 0.000000 0.000000 -1.000000
vn 0.000000 0.000000 -1.000000
vn 0.000000 0.000000 -1.000000
vn 0.000000 0.000000 -1.000000
vn 0.000000 0.000000 -1.000000
vn 0.000000 0.000000 -1.000000
vn 0.000000 0.000000 -1.000000
vn 0.000000 0.000000 -1.000000
vn 0.000000 0.000000 -1.000000
vn 0.000000 0.000000 -1.000000
vn 0.000000 0.000000 -1.000000
vn 0.000000 0.000000 -1.000000
vn 0.000000 0.000000 -1.000000
vn 0.000000 0.000000 -1.000000
vn 0.000000 0.000000 -1.000000
vn 0.000000 0.000000 -1.000000
vn 0.000000 0.000000 -1.000000
vn 0.000000 0.000000 -1.000000
vn 0.000000 0.000000 -1.000000
vn 0.000000 0.000000 -1.000000
vn 0.000000 0.000000 -1.000000
vn 0.000000 0.000000 -1.000000
vn 0.000000 0.000000 -1.000000
vn 0.000000 0.000000 -1.000000
vn 0.000000 0.000000 -1.000000
vn 0.000000 0.000000 -1.000000
vn 0.000000 0.000000 -1.000000
vn 0.000000 0.000000 -1.000000
vn 0.000000 0.000000 -1.000000
vn 0.000000 0.000000 -1.000000
vn 0.000000 0.000000 -1.000000
vn 0.000000 0.000000 -1.000000
vn 0.000000 0.000000 -1.000000
vn 0.000000 0.000000 -1.000000
vn 0.000000 0.000000 -1.000000
vn 0.000000 0.000000 -1.000000
vn 0.000000 0.000000 -1.000000
vn 0.000000 0.000000 -1.000000
vn 0.000000 0.000000 -1.000000
vn 0.000000 0.000000 -1.000000
vn 0.000000 0.000000 -1.000000
vn 0.000000 0.000000 -1.000000
vn 0.000000 0.000000 -1.000000
vn 0.000000 0.000000 -1.000000
vn 0.000000 0.000000 -1.000000
vn 0.000000 0.000000 -1.000000
vn 0.000000 0.000000 -1.000000
vn 0.000000 0.000000 -1.000000
vn 0.000000 0.000000 -1.000000
vn 0.000000 0.000000 -1.000000
vn 0.000000 0.000000 -1.000000
vn 0.000000 0.000000 -1.000000
vn 0.000000 0.000000 -1.000000
vn 0.000000 0.000000 -1.000000
vn 0.000000 0.000000 -1.000000
vn 0.000000 0.000000 -1.000000
vn 0.000000 0.000000 -1.000000
vn 0.000000 0.000000 -1.000000
vn 0.000000 0.000000 -1.000000
vn 0.000000 0.000000 -1.000000
vn 0.000000 0.000000 -1.000000
vn 0.000000 0.000000 -1.000000
vn 0.000000 0.000000 -1.000000
vn 0.000000 0.000000 -1.000000
vn 0.000000 0.000000 -1.000000
vn 0.000000 0.000000 -1.000000
vn 0.000000 0.000000 -1.000000
vn 0.000000 0.000000 -1.000000
vn 0.000000 0.000000 -1.000000
vn 0.000000 0.000000 -1.000000
vn 0.000000 0.000000 -1.000000
vn 0.000000 0.000000 -1.000000
vn 0.000000 0.000000 -1.000000
vn 0.000000 0.000000 -1.000000
vn 0.000000 0.000000 -1.000000
vn 0.000000 0.000000 -1.000000
vn 0.000000 0.000000 -1.000000
vn 0.000000 0.000000 -1.000000
vn 0.000000 0.000000 -1.000000
vn 0.000000 0.000000 -1.000000
vn 0.000000 0.000000 -1.000000
vn 0.000000 0.000000 -1.000000
vn 0.000000 0.000000 -1.000000
vn 0.000000 0.000000 -1.000000
vn 0.000000 0.000000 -1.000000
vn 0.000000 0.000000 -1.000000
vn 0.000000 0.000000 -1.000000
vn 0.000000 0.000000 -1.000000
vn 0.000000 0.000000 -1.000000
vn 0.000000 0.000000 -1.000000
vn -0.999867 -0.016286 0.000000
vn -0.999867 -0.016286 0.000000
vn -0.999867 -0.016286 0.000000
vn -0.999867 -0.016286 0.000000
vn -0.998652 -0.051896 0.000000
vn -0.998652 -0.051896 0.000000
vn -0.998652 -0.051896 0.000000
vn -0.998652 -0.051896 0.000000
vn -0.995757 -0.092021 0.000000
vn -0.995757 -0.092021 0.000000
vn -0.995757 -0.092021 0.000000
vn -0.995757 -0.092021 0.000000
vn -0.990567 -0.137027 0.000000
vn -0.990567 -0.137027 0.000000
vn -0.990567 -0.137027 0.000000
vn -0.990567 -0.137027 0.000000
vn -0.982319 -0.187216 0.000000
vn -0.982319 -0.187216 0.000000
vn -0.982319 -0.187216 0.000000
vn -0.982319 -0.187216 0.000000
vn -0.970097 -0.242718 0.000000
vn -0.970097 -0.242718 0.000000
vn -0.970097 -0.242718 0.000000
vn -0.970097 -0.242718 0.000000
vn -0.952848 -0.303447 0.000000
vn -0.952848 -0.303447 0.000000
vn -0.952848 -0.303447 0.000000
vn -0.952848 -0.303447 0.000000
vn -0.929453 -0.368940 0.000000
vn -0.929453 -0.368940 0.000000
vn -0.929453 -0.368940 0.000000
vn -0.929453 -0.368940 0.000000
vn -0.898819 -0.438319 0.000000
vn -0.898819 -0.438319 0.000000
vn -0.898819 -0.438319 0.000000
vn -0.898819 -0.438319 0.000000
vn -0.860081 -0.510157 0.000000
vn -0.860081 -0.510157 0.000000
vn -0.860081 -0.510157 0.000000
vn -0.860081 -0.510157 0.000000
vn -0.812818 -0.582518 0.000000
vn -0.812818 -0.582518 0.000000
vn -0.812818 -0.582518 0.000000
vn -0.812818 -0.582518 0.000000
vn -0.757190 -0.653194 0.000000
vn -0.757190 -0.653194 0.000000
vn -0.757190 -0.653194 0.000000
vn -0.757190 -0.653194 0.000000
vn -0.694181 -0.719801 0.000000
vn -0.694181 -0.719801 0.000000
vn -0.694181 -0.719801 0.000000
vn -0.694181 -0.719801 0.000000
vn -0.625439 -0.780273 0.000000
vn -0.625439 -0.780273 0.000000
vn -0.625439 -0.780273 0.000000
vn -0.625439 -0.780273 0.000000
vn -0.553132 -0.833094 0.000000
vn -0.553132 -0.833094 0.000000
vn -0.553132 -0.833094 0.000000
vn -0.553132 -0.833094 0.000000
vn -0.479630 -0.877471 0.000000
vn -0.479630 -0.877471 0.000000
vn -0.479630 -0.877471 0.000000
vn -0.479630 -0.877471 0.000000
vn -0.407060 -0.913402 0.000000
vn -0.407060 -0.913402 0.000000
vn -0.407060 -0.913402 0.000000
vn -0.407060 -0.913402 0.000000
vn -0.337337 -0.941384 0.000000
vn -0.337337 -0.941384 0.000000
vn -0.337337 -0.941384 0.000000
vn -0.337337 -0.941384 0.000000
vn -0.271610 -0.962407 0.000000
vn -0.271610 -0.962407 0.000000
vn -0.271610 -0.962407 0.000000
vn -0.271610 -0.962407 0.000000
vn -0.210803 -0.977529 0.000000
vn -0.210803 -0.977529 0.000000
vn -0.210803 -0.977529 0.000000
vn -0.210803 -0.977529 0.000000
vn -0.155146 -0.987892 0.000000
vn -0.155146 -0.987892 0.000000
vn -0.155146 -0.987892 0.000000
vn -0.155146 -0.987892 0.000000
vn -0.104737 -0.994500 0.000000
vn -0.104737 -0.994500 0.000000
vn -0.104737 -0.994500 0.000000
vn -0.104737 -0.994500 0.000000
vn -0.059360 -0.998237 0.000000
vn -0.059360 -0.998237 0.000000
vn -0.059360 -0.998237 0.000000
vn -0.059360 -0.998237 0.000000
vn -0.018694 -0.999825 0.000000
vn -0.018694 -0.999825 0.000000
vn -0.018694 -0.999825 0.000000
vn -0.018694 -0.999825 0.000000
vn 0.050356 -0.998731 0.000000
vn 0.050356 -0.998731 0.000000
vn 0.050356 -0.998731 0.000000
vn 0.050356 -0.998731 0.000000
vn 0.144358 -0.989525 0.000000
vn 0.144358 -0.989525 0.000000
vn 0.144358 -0.989525 0.000000
vn 0.144358 -0.989525 0.000000
vn 0.227751 -0.973719 0.000000
vn 0.227751 -0.973719 0.000000
vn 0.227751 -0.973719 0.000000
vn 0.227751 -0.973719 0.000000
vn 0.300518 -0.953776 0.000000
vn 0.300518 -0.953776 0.000000
vn 0.300518 -0.953776 0.000000
vn 0.300518 -0.953776 0.000000
vn 0.363268 -0.931685 0.000000
vn 0.363268 -0.931685 0.000000
vn 0.363268 -0.931685 0.000000
vn 0.363268 -0.931685 0.000000
vn 0.417006 -0.908904 0.000000
vn 0.417006 -0.908904 0.000000
vn 0.417006 -0.908904 0.000000
vn 0.417006 -0.908904 0.000000
vn 0.462821 -0.886452 0.000000
vn 0.462821 -0.886452 0.000000
vn 0.462821 -0.886452 0.000000
vn 0.462821 -0.886452 0.000000
vn 0.501808 -0.864979 0.000000
vn 0.501808 -0.864979 0.000000
vn 0.501808 -0.864979 0.000000
vn 0.501808 -0.864979 0.000000
vn 0.534899 -0.844916 0.000000
vn 0.534899 -0.844916 0.000000
vn 0.534899 -0.844916 0.000000
vn 0.534899 -0.844916 0.000000
vn 0.562937 -0.826500 0.000000
vn 0.562937 -0.826500 0.000000
vn 0.562937 -0.826500 0.000000
vn 0.562937 -0.826500 0.000000
vn 0.586610 -0.809869 0.000000
vn 0.586610 -0.809869 0.000000
vn 0.586610 -0.809869 0.000000
vn 0.586610 -0.809869 0.000000
vn 0.606472 -0.795104 0.000000
vn 0.606472 -0.795104 0.000000
vn 0.606472 -0.795104 0.000000
vn 0.606472 -0.795104 0.000000
vn 0.622954 -0.782258 0.000000
vn 0.622954 -0.782258 0.000000
vn 0.622954 -0.782258 0.000000
vn 0.622954 -0.782258 0.000000
vn 0.636386 -0.771371 0.000000
vn 0.636386 -0.771371 0.000000
vn 0.636386 -0.771371 0.000000
vn 0.636386 -0.771371 0.000000
vn 0.646985 -0.762503 0.000000
vn 0.646985 -0.762503 0.000000
vn 0.646985 -0.762503 0.000000
vn 0.646985 -0.762503 0.000000
vn 0.654859 -0.755751 0.000000
vn 0.654859 -0.755751 0.000000
vn 0.654859 -0.755751 0.000000
vn 0.654859 -0.755751 0.000000
vn 0.660013 -0.751254 0.000000
vn 0.660013 -0.751254 0.000000
vn 0.660013 -0.751254 0.000000
vn 0.660013 -0.751254 0.000000
vn 0.662297 -0.749242 0.000000
vn 0.662297 -0.749242 0.000000
vn 0.662297 -0.749242 0.000000
vn 0.662297 -0.749242 0.000000
vn 0.661396 -0.750037 0.000000
vn 0.661396 -0.750037 0.000000
vn 0.661396 -0.750037 0.000000
vn 0.661396 -0.750037 0.000000
vn 0.656733 -0.754124 0.000000
vn 0.656733 -0.754124 0.000000
vn 0.656733 -0.754124 0.000000
vn 0.656733 -0.754124 0.000000
vn 0.647321 -0.762218 0.000000
vn 0.647321 -0.762218 0.000000
vn 0.647321 -0.762218 0.000000
vn 0.647321 -0.762218 0.000000
vn 0.631546 -0.775339 0.000000
vn 0.631546 -0.775339 0.000000
vn 0.631546 -0.775339 0.000000
vn 0.631546 -0.775339 0.000000
vn 0.606615 -0.794996 0.000000
vn 0.606615 -0.794996 0.000000
vn 0.606615 -0.794996 0.000000
vn 0.606615 -0.794996 0.000000
vn 0.567532 -0.823352 0.000000
vn 0.567532 -0.823352 0.000000
vn 0.567532 -0.823352 0.000000
vn 0.567532 -0.823352 0.000000
vn 0.543544 -0.839380 0.000000
vn 0.543544 -0.839380 0.000000
vn 0.543544 -0.839380 0.000000
vn 0.543544 -0.839380 0.000000
vn 0.543182 -0.839615 0.000000
vn 0.543182 -0.839615 0.000000
vn 0.543182 -0.839615 0.000000
vn 0.543182 -0.839615 0.000000
vn 0.531549 -0.847028 0.000000
vn 0.531549 -0.847028 0.000000
vn 0.531549 -0.847028 0.000000
vn 0.531549 -0.847028 0.000000
vn 0.506976 -0.861960 0.000000
vn 0.506976 -0.861960 0.000000
vn 0.506976 -0.861960 0.000000
vn 0.506976 -0.861960 0.000000
vn 0.467350 -0.884072 0.000000
vn 0.467350 -0.884072 0.000000
vn 0.467350 -0.884072 0.000000
vn 0.467350 -0.884072 0.000000
vn 0.410280 -0.911960 0.000000
vn 0.410280 -0.911960 0.000000
vn 0.410280 -0.911960 0.000000
vn 0.410280 -0.911960 0.000000
vn 0.333745 -0.942663 0.000000
vn 0.333745 -0.942663 0.000000
vn 0.333745 -0.942663 0.000000
vn 0.333745 -0.942663 0.000000
vn 0.237307 -0.971435 0.000000
vn 0.237307 -0.971435 0.000000
vn 0.237307 -0.971435 0.000000
vn 0.237307 -0.971435 0.000000
vn 0.123730 -0.992316 0.000000
vn 0.123730 -0.992316 0.000000
vn 0.123730 -0.992316 0.000000
vn 0.123730 -0.992316 0.000000
vn 0.000000 -1.000000 0.000000
vn 0.000000 -1.000000 0.000000
vn 0.000000 -1.000000 0.000000
vn 0.000000 -1.000000 0.000000
vn -0.123730 -0.992316 0.000000
vn -0.123730 -0.992316 0.000000
vn -0.123730 -0.992316 0.000000
vn -0.123730 -0.992316 0.000000
vn -0.237307 -0.971435 0.000000
vn -0.237307 -0.971435 0.000000
vn -0.237307 -0.971435 0.000000
vn -0.237307 -0.971435 0.000000
vn -0.333745 -0.942663 0.000000
vn -0.333745 -0.942663 0.000000
vn -0.333745 -0.942663 0.000000
vn -0.333745 -0.942663 0.000000
vn -0.410280 -0.911960 0.000000
vn -0.410280 -0.911960 0.000000
vn -0.410280 -0.911960 0.000000
vn -0.410280 -0.911960 0.000000
vn -0.467350 -0.884072 0.000000
vn -0.467350 -0.884072 0.000000
vn -0.467350 -0.884072 0.000000
vn -0.467350 -0.884072 0.000000
vn -0.506977 -0.861959 0.000000
vn -0.506977 -0.861959 0.000000
vn -0.506977 -0.861959 0.000000
vn -0.506977 -0.861959 0.000000
vn -0.531548 -0.847028 0.000000
vn -0.531548 -0.847028 0.000000
vn -0.531548 -0.847028 0.000000
vn -0.531548 -0.847028 0.000000
vn -0.543182 -0.839615 0.000000
vn -0.543182 -0.839615 0.000000
vn -0.543182 -0.839615 0.000000
vn -0.543182 -0.839615 0.000000
vn -0.543544 -0.839380 0.000000
vn -0.543544 -0.839380 0.000000
vn -0.543544 -0.839380 0.000000
vn -0.543544 -0.839380 0.000000
vn -0.562495 -0.826801 0.000000
vn -0.562495 -0.826801 0.000000
vn -0.562495 -0.826801 0.000000
vn -0.562495 -0.826801 0.000000
vn -0.597176 -0.802110 0.000000
vn -0.597176 -0.802110 0.000000
vn -0.597176 -0.802110 0.000000
vn -0.597176 -0.802110 0.000000
vn -0.622017 -0.783004 0.000000
vn -0.622017 -0.783004 0.000000
vn -0.622017 -0.783004 0.000000
vn -0.622017 -0.783004 0.000000
vn -0.639883 -0.768472 0.000000
vn -0.639883 -0.768472 0.000000
vn -0.639883 -0.768472 0.000000
vn -0.639883 -0.768472 0.000000
vn -0.652652 -0.757658 0.000000
vn -0.652652 -0.757658 0.000000
vn -0.652652 -0.757658 0.000000
vn -0.652652 -0.757658 0.000000
vn -0.661503 -0.749943 0.000000
vn -0.661503 -0.749943 0.000000
vn -0.661503 -0.749943 0.000000
vn -0.661503 -0.749943 0.000000
vn -0.667267 -0.744819 0.000000
vn -0.667267 -0.744819 0.000000
vn -0.667267 -0.744819 0.000000
vn -0.667267 -0.744819 0.000000
vn -0.670515 -0.741896 0.000000
vn -0.670515 -0.741896 0.000000
vn -0.670515 -0.741896 0.000000
vn -0.670515 -0.741896 0.000000
vn -0.671583 -0.740930 0.000000
vn -0.671583 -0.740930 0.000000
vn -0.671583 -0.740930 0.000000
vn -0.671583 -0.740930 0.000000
vn -0.670740 -0.741693 0.000000
vn -0.670740 -0.741693 0.000000
vn -0.670740 -0.741693 0.000000
vn -0.670740 -0.741693 0.000000
vn -0.668174 -0.744005 0.000000
vn -0.668174 -0.744005 0.000000
vn -0.668174 -0.744005 0.000000
vn -0.668174 -0.744005 0.000000
vn -0.663952 -0.747775 0.000000
vn -0.663952 -0.747775 0.000000
vn -0.663952 -0.747775 0.000000
vn -0.663952 -0.747775 0.000000
vn -0.658167 -0.752872 0.000000
vn -0.658167 -0.752872 0.000000
vn -0.658167 -0.752872 0.000000
vn -0.658167 -0.752872 0.000000
vn -0.650772 -0.759273 0.000000
vn -0.650772 -0.759273 0.000000
vn -0.650772 -0.759273 0.000000
vn -0.650772 -0.759273 0.000000
vn -0.641751 -0.766914 0.000000
vn -0.641751 -0.766914 0.000000
vn -0.641751 -0.766914 0.000000
vn -0.641751 -0.766914 0.000000
vn -0.631063 -0.775731 0.000000
vn -0.631063 -0.775731 0.000000
vn -0.631063 -0.775731 0.000000
vn -0.631063 -0.775731 0.000000
vn -0.618561 -0.785737 0.000000
vn -0.618561 -0.785737 0.000000
vn -0.618561 -0.785737 0.000000
vn -0.618561 -0.785737 0.000000
vn -0.604130 -0.796886 0.000000
vn -0.604130 -0.796886 0.000000
vn -0.604130 -0.796886 0.000000
vn -0.604130 -0.796886 0.000000
vn -0.587566 -0.809176 0.000000
vn -0.587566 -0.809176 0.000000
vn -0.587566 -0.809176 0.000000
vn -0.587566 -0.809176 0.000000
vn -0.568695 -0.822548 0.000000
vn -0.568695 -0.822548 0.000000
vn -0.568695 -0.822548 0.000000
vn -0.568695 -0.822548 0.000000
vn -0.547231 -0.836981 0.000000
vn -0.547231 -0.836981 0.000000
vn -0.547231 -0.836981 0.000000
vn -0.547231 -0.836981 0.000000
vn -0.522893 -0.852399 0.000000
vn -0.522893 -0.852399 0.000000
vn -0.522893 -0.852399 0.000000
vn -0.522893 -0.852399 0.000000
vn -0.495346 -0.868696 0.000000
vn -0.495346 -0.868696 0.000000
vn -0.495346 -0.868696 0.000000
vn -0.495346 -0.868696 0.000000
vn -0.464186 -0.885738 0.000000
vn -0.464186 -0.885738 0.000000
vn -0.464186 -0.885738 0.000000
vn -0.464186 -0.885738 0.000000
vn -0.429042 -0.903284 0.000000
vn -0.429042 -0.903284 0.000000
vn -0.429042 -0.903284 0.000000
vn -0.429042 -0.903284 0.000000
vn -0.389412 -0.921064 0.000000
vn -0.389412 -0.921064 0.000000
vn -0.389412 -0.921064 0.000000
vn -0.389412 -0.921064 0.000000
vn -0.344898 -0.938640 0.000000
vn -0.344898 -0.938640 0.000000
vn -0.344898 -0.938640 0.000000
vn -0.344898 -0.938640 0.000000
vn -0.295052 -0.955481 0.000000
vn -0.295052 -0.955481 0.000000
vn -0.295052 -0.955481 0.000000
vn -0.295052 -0.955481 0.000000
vn -0.239537 -0.970887 0.000000
vn -0.239537 -0.970887 0.000000
vn -0.239537 -0.970887 0.000000
vn -0.239537 -0.970887 0.000000
vn -0.178133 -0.984006 0.000000
vn -0.178133 -0.984006 0.000000
vn -0.178133 -0.984006 0.000000
vn -0.178133 -0.984006 0.000000
vn -0.110891 -0.993833 0.000000
vn -0.110891 -0.993833 0.000000
vn -0.110891 -0.993833 0.000000
vn -0.110891 -0.993833 0.000000
vn -0.038095 -0.999274 0.000000
vn -0.038095 -0.999274 0.000000
vn -0.038095 -0.999274 0.000000
vn -0.038095 -0.999274 0.000000
vn 0.014887 -0.999889 0.000000
vn 0.014887 -0.999889 0.000000
vn 0.014887 -0.999889 0.000000
vn 0.014887 -0.999889 0.000000
vn 0.045761 -0.998952 0.000000
vn 0.045761 -0.998952 0.000000
vn 0.045761 -0.998952 0.000000
vn 0.045761 -0.998952 0.000000
vn 0.078367 -0.996925 0.000000
vn 0.078367 -0.996925 0.000000
vn 0.078367 -0.996925 0.000000
vn 0.078367 -0.996925 0.000000
vn 0.112666 -0.993633 0.000000
vn 0.112666 -0.993633 0.000000
vn 0.112666 -0.993633 0.000000
vn 0.112666 -0.993633 0.000000
vn 0.148777 -0.988871 0.000000
vn 0.148777 -0.988871 0.000000
vn 0.148777 -0.988871 0.000000
vn 0.148777 -0.988871 0.000000
vn 0.186717 -0.982414 0.000000
vn 0.186717 -0.982414 0.000000
vn 0.186717 -0.982414 0.000000
vn 0.186717 -0.982414 0.000000
vn 0.226449 -0.974023 0.000000
vn 0.226449 -0.974023 0.000000
vn 0.226449 -0.974023 0.000000
vn 0.226449 -0.974023 0.000000
vn 0.267892 -0.963449 0.000000
vn 0.267892 -0.963449 0.000000
vn 0.267892 -0.963449 0.000000
vn 0.267892 -0.963449 0.000000
vn 0.311056 -0.950392 0.000000
vn 0.311056 -0.950392 0.000000
vn 0.311056 -0.950392 0.000000
vn 0.311056 -0.950392 0.000000
vn 0.355715 -0.934594 0.000000
vn 0.355715 -0.934594 0.000000
vn 0.355715 -0.934594 0.000000
vn 0.355715 -0.934594 0.000000
vn 0.401658 -0.915790 0.000000
vn 0.401658 -0.915790 0.000000
vn 0.401658 -0.915790 0.000000
vn 0.401658 -0.915790 0.000000
vn 0.448627 -0.893719 0.000000
vn 0.448627 -0.893719 0.000000
vn 0.448627 -0.893719 0.000000
vn 0.448627 -0.893719 0.000000
vn 0.496219 -0.868198 0.000000
vn 0.496219 -0.868198 0.000000
vn 0.496219 -0.868198 0.000000
vn 0.496219 -0.868198 0.000000
vn 0.544007 -0.839081 0.000000
vn 0.544007 -0.839081 0.000000
vn 0.544007 -0.839081 0.000000
vn 0.544007 -0.839081 0.000000
vn 0.591487 -0.806315 0.000000
vn 0.591487 -0.806315 0.000000
vn 0.591487 -0.806315 0.000000
vn 0.591487 -0.806315 0.000000
vn 0.638192 -0.769877 0.000000
vn 0.638192 -0.769877 0.000000
vn 0.638192 -0.769877 0.000000
vn 0.638192 -0.769877 0.000000
vn 0.683432 -0.730014 0.000000
vn 0.683432 -0.730014 0.000000
vn 0.683432 -0.730014 0.000000
vn 0.683432 -0.730014 0.000000
vn 0.726715 -0.686939 0.000000
vn 0.726715 -0.686939 0.000000
vn 0.726715 -0.686939 0.000000
vn 0.726715 -0.686939 0.000000
vn 0.767533 -0.641009 0.000000
vn 0.767533 -0.641009 0.000000
vn 0.767533 -0.641009 0.000000
vn 0.767533 -0.641009 0.000000
vn 0.805389 -0.592747 0.000000
vn 0.805389 -0.592747 0.000000
vn 0.805389 -0.592747 0.000000
vn 0.805389 -0.592747 0.000000
vn 0.839961 -0.542647 0.000000
vn 0.839961 -0.542647 0.000000
vn 0.839961 -0.542647 0.000000
vn 0.839961 -0.542647 0.000000
vn 0.870959 -0.491356 0.000000
vn 0.870959 -0.491356 0.000000
vn 0.870959 -0.491356 0.000000
vn 0.870959 -0.491356 0.000000
vn 0.898275 -0.439434 0.000000
vn 0.898275 -0.439434 0.000000
vn 0.898275 -0.439434 0.000000
vn 0.898275 -0.439434 0.000000
vn 0.921880 -0.387475 0.000000
vn 0.921880 -0.387475 0.000000
vn 0.921880 -0.387475 0.000000
vn 0.921880 -0.387475 0.000000
vn 0.941850 -0.336034 0.000000
vn 0.941850 -0.336034 0.000000
vn 0.941850 -0.336034 0.000000
vn 0.941850 -0.336034 0.000000
vn 0.958378 -0.285502 0.000000
vn 0.958378 -0.285502 0.000000
vn 0.958378 -0.285502 0.000000
vn 0.958378 -0.285502 0.000000
vn 0.971668 -0.236350 0.000000
vn 0.971668 -0.236350 0.000000
vn 0.971668 -0.236350 0.000000
vn 0.971668 -0.236350 0.000000
vn 0.982006 -0.188849 0.000000
vn 0.982006 -0.188849 0.000000
vn 0.982006 -0.188849 0.000000
vn 0.982006 -0.188849 0.000000
vn 0.989692 -0.143214 0.000000
vn 0.989692 -0.143214 0.000000
vn 0.989692 -0.143214 0.000000
vn 0.989692 -0.143214 0.000000
vn 0.995026 -0.099617 0.000000
vn 0.995026 -0.099617 0.000000
vn 0.995026 -0.099617 0.000000
vn 0.995026 -0.099617 0.000000
vn 0.998308 -0.058150 0.000000
vn 0.998308 -0.058150 0.000000
vn 0.998308 -0.058150 0.000000
vn 0.998308 -0.058150 0.000000
vn 0.999823 -0.018822 0.000000
vn 0.999823 -0.018822 0.000000
vn 0.999823 -0.018822 0.000000
vn 0.999823 -0.018822 0.000000
vn 0.999638 -0.026913 0.000000
vn 0.999638 -0.026913 0.000000
vn 0.999638 -0.026913 0.000000
vn 0.999638 -0.026913 0.000000
vn 0.999146 0.041326 0.000000
vn 0.999146 0.041326 0.000000
vn 0.999146 0.041326 0.000000
vn 0.999146 0.041326 0.000000
vn 0.992320 0.123695 0.000000
vn 0.992320 0.123695 0.000000
vn 0.992320 0.123695 0.000000
vn 0.992320 0.123695 0.000000
vn 0.978718 0.205211 0.000000
vn 0.978718 0.205211 0.000000
vn 0.978718 0.205211 0.000000
vn 0.978718 0.205211 0.000000
vn 0.958426 0.285340 0.000000
vn 0.958426 0.285340 0.000000
vn 0.958426 0.285340 0.000000
vn 0.958426 0.285340 0.000000
vn 0.931592 0.363505 0.000000
vn 0.931592 0.363505 0.000000
vn 0.931592 0.363505 0.000000
vn 0.931592 0.363505 0.000000
vn 0.898391 0.439197 0.000000
vn 0.898391 0.439197 0.000000
vn 0.898391 0.439197 0.000000
vn 0.898391 0.439197 0.000000
vn 0.859054 0.511884 0.000000
vn 0.859054 0.511884 0.000000
vn 0.859054 0.511884 0.000000
vn 0.859054 0.511884 0.000000
vn 0.813848 0.581078 0.000000
vn 0.813848 0.581078 0.000000
vn 0.813848 0.581078 0.000000
vn 0.813848 0.581078 0.000000
vn 0.763084 0.646300 0.000000
vn 0.763084 0.646300 0.000000
vn 0.763084 0.646300 0.000000
vn 0.763084 0.646300 0.000000
vn 0.707110 0.707104 0.000000
vn 0.707110 0.707104 0.000000
vn 0.707110 0.707104 0.000000
vn 0.707110 0.707104 0.000000
vn 0.646297 0.763086 0.000000
vn 0.646297 0.763086 0.000000
vn 0.646297 0.763086 0.000000
vn 0.646297 0.763086 0.000000
vn 0.581078 0.813848 0.000000
vn 0.581078 0.813848 0.000000
vn 0.581078 0.813848 0.000000
vn 0.581078 0.813848 0.000000
vn 0.511883 0.859055 0.000000
vn 0.511883 0.859055 0.000000
vn 0.511883 0.859055 0.000000
vn 0.511883 0.859055 0.000000
vn 0.439197 0.898391 0.000000
vn 0.439197 0.898391 0.000000
vn 0.439197 0.898391 0.000000
vn 0.439197 0.898391 0.000000
vn 0.363505 0.931592 0.000000
vn 0.363505 0.931592 0.000000
vn 0.363505 0.931592 0.000000
vn 0.363505 0.931592 0.000000
vn 0.285340 0.958426 0.000000
vn 0.285340 0.958426 0.000000
vn 0.285340 0.958426 0.000000
vn 0.285340 0.958426 0.000000
vn 0.205217 0.978717 0.000000
vn 0.205217 0.978717 0.000000
vn 0.205217 0.978717 0.000000
vn 0.205217 0.978717 0.000000
vn 0.123695 0.992320 0.000000
vn 0.123695 0.992320 0.000000
vn 0.123695 0.992320 0.000000
vn 0.123695 0.992320 0.000000
vn 0.041320 0.999146 0.000000
vn 0.041320 0.999146 0.000000
vn 0.041320 0.999146 0.000000
vn 0.041320 0.999146 0.000000
vn 0.000000 1.000000 0.000000
vn 0.000000 1.000000 0.000000
vn 0.000000 1.000000 0.000000
vn 0.000000 1.000000 0.000000
vn -0.041320 0.999146 0.000000
vn -0.041320 0.999146 0.000000
vn -0.041320 0.999146 0.000000
vn -0.041320 0.999146 0.000000
vn -0.123695 0.992320 0.000000
vn -0.123695 0.992320 0.000000
vn -0.123695 0.992320 0.000000
vn -0.123695 0.992320 0.000000
vn -0.205216 0.978717 0.000000
vn -0.205216 0.978717 0.000000
vn -0.205216 0.978717 0.000000
vn -0.205216 0.978717 0.000000
vn -0.285341 0.958426 0.000000
vn -0.285341 0.958426 0.000000
vn -0.285341 0.958426 0.000000
vn -0.285341 0.958426 0.000000
vn -0.363505 0.931592 0.000000
vn -0.363505 0.931592 0.000000
vn -0.363505 0.931592 0.000000
vn -0.363505 0.931592 0.000000
vn -0.439198 0.898390 0.000000
vn -0.439198 0.898390 0.000000
vn -0.439198 0.898390 0.000000
vn -0.439198 0.898390 0.000000
vn -0.511882 0.859056 0.000000
vn -0.511882 0.859056 0.000000
vn -0.511882 0.859056 0.000000
vn -0.511882 0.859056 0.000000
vn -0.581078 0.813848 0.000000
vn -0.581078 0.813848 0.000000
vn -0.581078 0.813848 0.000000
vn -0.581078 0.813848 0.000000
vn -0.646297 0.763086 0.000000
vn -0.646297 0.763086 0.000000
vn -0.646297 0.763086 0.000000
vn -0.646297 0.763086 0.000000
vn -0.707111 0.707102 0.000000
vn -0.707111 0.707102 0.000000
vn -0.707111 0.707102 0.000000
vn -0.707111 0.707102 0.000000
vn -0.763082 0.646302 0.000000
vn -0.763082 0.646302 0.000000
vn -0.763082 0.646302 0.000000
vn -0.763082 0.646302 0.000000
vn -0.813849 0.581077 0.000000
vn -0.813849 0.581077 0.000000
vn -0.813849 0.581077 0.000000
vn -0.813849 0.581077 0.000000
vn -0.859055 0.511883 0.000000
vn -0.859055 0.511883 0.000000
vn -0.859055 0.511883 0.000000
vn -0.859055 0.511883 0.000000
vn -0.898391 0.439196 0.000000
vn -0.898391 0.439196 0.000000
vn -0.898391 0.439196 0.000000
vn -0.898391 0.439196 0.000000
vn -0.931591 0.363508 0.000000
vn -0.931591 0.363508 0.000000
vn -0.931591 0.363508 0.000000
vn -0.931591 0.363508 0.000000
vn -0.958427 0.285336 0.000000
vn -0.958427 0.285336 0.000000
vn -0.958427 0.285336 0.000000
vn -0.958427 0.285336 0.000000
vn -0.978717 0.205216 0.000000
vn -0.978717 0.205216 0.000000
vn -0.978717 0.205216 0.000000
vn -0.978717 0.205216 0.000000
vn -0.992321 0.123692 0.000000
vn -0.992321 0.123692 0.000000
vn -0.992321 0.123692 0.000000
vn -0.992321 0.123692 0.000000
vn -0.999146 0.041325 0.000000
vn -0.999146 0.041325 0.000000
vn -0.999146 0.041325 0.000000
vn -0.999146 0.041325 0.000000
vn -0.999638 -0.026913 0.000000
vn -0.999638 -0.026913 0.000000
vn -0.999638 -0.026913 0.000000
vn -0.999638 -0.026913 0.000000
f 1//1 2//2 3//3
f 172//172 1//1 3//3
f 172//172 3//3 4//4
f 172//172 4//4 5//5
f 172//172 5//5 6//6
f 172//172 6//6 7//7
f 172//172 7//7 8//8
f 172//172 8//8 9//9
f 172//172 9//9 10//10
f 172//172 10//10 11//11
f 172//172 11//11 12//12
f 172//172 12//12 13//13
f 172//172 13//13 14//14
f 172//172 14//14 15//15
f 172//172 15//15 16//16
f 172//172 16//16 17//17
f 172//172 17//17 18//18
f 172//172 18//18 19//19
f 172//172 19//19 20//20
f 172//172 20//20 21//21
f 172//172 21//21 22//22
f 172//172 22//22 23//23
f 172//172 23//23 24//24
f 172//172 24//24 25//25
f 172//172 25//25 26//26
f 172//172 26//26 27//27
f 172//172 27//27 28//28
f 172//172 28//28 29//29
f 172//172 29//29 30//30
f 172//172 30//30 31//31
f 172//172 31//31 32//32
f 172//172 32//32 33//33
f 172//172 33//33 34//34
f 172//172 34//34 35//35
f 172//172 35//35 36//36
f 172//172 36//36 37//37
f 172//172 37//37 38//38
f 172//172 38//38 39//39
f 172//172 39//39 40//40
f 172//172 40//40 41//41
f 172//172 41//41 42//42
f 172//172 42//42 43//43
f 172//172 43//43 44//44
f 172//172 44//44 45//45
f 172//172 45//45 46//46
f 172//172 46//46 47//47
f 172//172 47//47 48//48
f 172//172 48//48 49//49
f 172//172 49//49 50//50
f 172//172 50//50 51//51
f 172//172 51//51 52//52
f 172//172 52//52 53//53
f 172//172 53//53 54//54
f 172//172 54//54 55//55
f 172//172 55//55 56//56
f 172//172 56//56 57//57
f 172//172 57//57 58//58
f 76//76 77//77 78//78
f 76//76 78//78 79//79
f 75//75 76//76 79//79
f 75//75 79//79 80//80
f 75//75 80//80 81//81
f 74//74 75//75 81//81
f 74//74 81//81 82//82
f 74//74 82//82 83//83
f 74//74 83//83 84//84
f 73//73 74//74 84//84
f 73//73 84//84 85//85
f 73//73 85//85 86//86
f 72//72 73//73 86//86
f 72//72 86//86 87//87
f 72//72 87//87 88//88
f 72//72 88//88 89//89
f 71//71 72//72 89//89
f 71//71 89//89 90//90
f 71//71 90//90 91//91
f 71//71 91//91 92//92
f 70//70 71//71 92//92
f 70//70 92//92 93//93
f 70//70 93//93 94//94
f 70//70 94//94 95//95
f 69//69 70//70 95//95
f 69//69 95//95 96//96
f 69//69 96//96 97//97
f 69//69 97//97 98//98
f 68//68 69//69 98//98
f 68//68 98//98 99//99
f 67//67 68//68 99//99
f 66//66 67//67 99//99
f 66//66 99//99 100//100
f 65//65 66//66 100//100
f 65//65 100//100 101//101
f 65//65 101//101 102//102
f 65//65 102//102 103//103
f 64//64 65//65 103//103
f 64//64 103//103 104//104
f 64//64 104//104 105//105
f 64//64 105//105 106//106
f 64//64 106//106 107//107
f 64//64 107//107 108//108
f 63//63 64//64 108//108
f 63//63 108//108 109//109
f 63//63 109//109 110//110
f 63//63 110//110 111//111
f 63//63 111//111 112//112
f 63//63 112//112 113//113
f 63//63 113//113 114//114
f 63//63 114//114 115//115
f 62//62 63//63 115//115
f 62//62 115//115 116//116
f 62//62 116//116 117//117
f 62//62 117//117 118//118
f 62//62 118//118 119//119
f 62//62 119//119 120//120
f 62//62 120//120 121//121
f 62//62 121//121 122//122
f 62//62 122//122 123//123
f 61//61 62//62 123//123
f 61//61 123//123 124//124
f 61//61 124//124 125//125
f 61//61 125//125 126//126
f 61//61 126//126 127//127
f 61//61 127//127 128//128
f 61//61 128//128 129//129
f 61//61 129//129 130//130
f 61//61 130//130 131//131
f 61//61 131//131 132//132
f 60//60 61//61 132//132
f 60//60 132//132 133//133
f 59//59 60//60 133//133
f 59//59 133//133 134//134
f 58//58 59//59 134//134
f 58//58 134//134 135//135
f 172//172 58//58 135//135
f 172//172 135//135 136//136
f 172//172 136//136 137//137
f 172//172 137//137 138//138
f 172//172 138//138 139//139
f 172//172 139//139 140//140
f 172//172 140//140 141//141
f 172//172 141//141 142//142
f 172//172 142//142 143//143
f 172//172 143//143 144//144
f 172//172 144//144 145//145
f 172//172 145//145 146//146
f 172//172 146//146 147//147
f 172//172 147//147 148//148
f 172//172 148//148 149//149
f 172//172 149//149 150//150
f 172//172 150//150 151//151
f 172//172 151//151 152//152
f 172//172 152//152 153//153
f 172//172 153//153 154//154
f 172//172 154//154 155//155
f 172//172 155//155 156//156
f 172//172 156//156 157//157
f 172//172 157//157 158//158
f 172//172 158//158 159//159
f 172//172 159//159 160//160
f 172//172 160//160 161//161
f 172//172 161//161 162//162
f 172//172 162//162 163//163
f 172//172 163//163 164//164
f 172//172 164//164 165//165
f 172//172 165//165 166//166
f 172//172 166//166 167//167
f 172//172 167//167 168//168
f 172//172 168//168 169//169
f 172//172 169//169 170//170
f 170//170 171//171 172//172
f 175//175 174//174 173//173
f 175//175 173//173 344//344
f 176//176 175//175 344//344
f 177//177 176//176 344//344
f 178//178 177//177 344//344
f 179//179 178//178 344//344
f 180//180 179//179 344//344
f 181//181 180//180 344//344
f 182//182 181//181 344//344
f 183//183 182//182 344//344
f 184//184 183//183 344//344
f 185//185 184//184 344//344
f 186//186 185//185 344//344
f 187//187 186//186 344//344
f 188//188 187//187 344//344
f 189//189 188//188 344//344
f 190//190 189//189 344//344
f 191//191 190//190 344//344
f 192//192 191//191 344//344
f 193//193 192//192 344//344
f 194//194 193//193 344//344
f 195//195 194//194 344//344
f 196//196 195//195 344//344
f 197//197 196//196 344//344
f 198//198 197//197 344//344
f 199//199 198//198 344//344
f 200//200 199//199 344//344
f 201//201 200//200 344//344
f 202//202 201//201 344//344
f 203//203 202//202 344//344
f 204//204 203//203 344//344
f 205//205 204//204 344//344
f 206//206 205//205 344//344
f 207//207 206//206 344//344
f 208//208 207//207 344//344
f 209//209 208//208 344//344
f 210//210 209//209 344//344
f 211//211 210//210 344//344
f 212//212 211//211 344//344
f 213//213 212//212 344//344
f 214//214 213//213 344//344
f 215//215 214//214 344//344
f 216//216 215//215 344//344
f 217//217 216//216 344//344
f 218//218 217//217 344//344
f 219//219 218//218 344//344
f 220//220 219//219 344//344
f 221//221 220//220 344//344
f 222//222 221//221 344//344
f 223//223 222//222 344//344
f 224//224 223//223 344//344
f 225//225 224//224 344//344
f 226//226 225//225 344//344
f 227//227 226//226 344//344
f 228//228 227//227 344//344
f 229//229 228//228 344//344
f 230//230 229//229 344//344
f 250//250 249//249 248//248
f 251//251 250//250 248//248
f 251//251 248//248 247//247
f 252//252 251//251 247//247
f 253//253 252//252 247//247
f 253//253 247//247 246//246
f 254//254 253//253 246//246
f 255//255 254//254 246//246
f 256//256 255//255 246//246
f 256//256 246//246 245//245
f 257//257 256//256 245//245
f 258//258 257//257 245//245
f 258//258 245//245 244//244
f 259//259 258//258 244//244
f 260//260 259//259 244//244
f 261//261 260//260 244//244
f 261//261 244//244 243//243
f 262//262 261//261 243//243
f 263//263 262//262 243//243
f 264//264 263//263 243//243
f 264//264 243//243 242//242
f 265//265 264//264 242//242
f 266//266 265//265 242//242
f 267//267 266//266 242//242
f 267//267 242//242 241//241
f 268//268 267//267 241//241
f 269//269 268//268 241//241
f 270//270 269//269 241//241
f 270//270 241//241 240//240
f 271//271 270//270 240//240
f 271//271 240//240 239//239
f 271//271 239//239 238//238
f 272//272 271//271 238//238
f 272//272 238//238 237//237
f 273//273 272//272 237//237
f 274//274 273//273 237//237
f 275//275 274//274 237//237
f 275//275 237//237 236//236
f 276//276 275//275 236//236
f 277//277 276//276 236//236
f 278//278 277//277 236//236
f 279//279 278//278 236//236
f 280//280 279//279 236//236
f 280//280 236//236 235//235
f 281//281 280//280 235//235
f 282//282 281//281 235//235
f 283//283 282//282 235//235
f 284//284 283//283 235//235
f 285//285 284//284 235//235
f 286//286 285//285 235//235
f 287//287 286//286 235//235
f 287//287 235//235 234//234
f 288//288 287//287 234//234
f 289//289 288//288 234//234
f 290//290 289//289 234//234
f 291//291 290//290 234//234
f 292//292 291//291 234//234
f 293//293 292//292 234//234
f 294//294 293//293 234//234
f 295//295 294//294 234//234
f 295//295 234//234 233//233
f 296//296 295//295 233//233
f 297//297 296//296 233//233
f 298//298 297//297 233//233
f 299//299 298//298 233//233
f 300//300 299//299 233//233
f 301//301 300//300 233//233
f 302//302 301//301 233//233
f 303//303 302//302 233//233
f 304//304 303//303 233//233
f 304//304 233//233 232//232
f 305//305 304//304 232//232
f 305//305 232//232 231//231
f 306//306 305//305 231//231
f 306//306 231//231 230//230
f 307//307 306//306 230//230
f 307//307 230//230 344//344
f 308//308 307//307 344//344
f 309//309 308//308 344//344
f 310//310 309//309 344//344
f 311//311 310//310 344//344
f 312//312 311//311 344//344
f 313//313 312//312 344//344
f 314//314 313//313 344//344
f 315//315 314//314 344//344
f 316//316 315//315 344//344
f 317//317 316//316 344//344
f 318//318 317//317 344//344
f 319//319 318//318 344//344
f 320//320 319//319 344//344
f 321//321 320//320 344//344
f 322//322 321//321 344//344
f 323//323 322//322 344//344
f 324//324 323//323 344//344
f 325//325 324//324 344//344
f 326//326 325//325 344//344
f 327//327 326//326 344//344
f 328//328 327//327 344//344
f 329//329 328//328 344//344
f 330//330 329//329 344//344
f 331//331 330//330 344//344
f 332//332 331//331 344//344
f 333//333 332//332 344//344
f 334//334 333//333 344//344
f 335//335 334//334 344//344
f 336//336 335//335 344//344
f 337//337 336//336 344//344
f 338//338 337//337 344//344
f 339//339 338//338 344//344
f 340//340 339//339 344//344
f 341//341 340//340 344//344
f 342//342 341//341 344//344
f 344//344 343//343 342//342
f 345//345 346//346 347//347
f 345//345 347//347 348//348
f 349//349 350//350 351//351
f 349//349 351//351 352//352
f 353//353 354//354 355//355
f 353//353 355//355 356//356
f 357//357 358//358 359//359
f 357//357 359//359 360//360
f 361//361 362//362 363//363
f 361//361 363//363 364//364
f 365//365 366//366 367//367
f 365//365 367//367 368//368
f 369//369 370//370 371//371
f 369//369 371//371 372//372
f 373//373 374//374 375//375
f 373//373 375//375 376//376
f 377//377 378//378 379//379
f 377//377 379//379 380//380
f 381//381 382//382 383//383
f 381//381 383//383 384//384
f 385//385 386//386 387//387
f 385//385 387//387 388//388
f 389//389 390//390 391//391
f 389//389 391//391 392//392
f 393//393 394//394 395//395
f 393//393 395//395 396//396
f 397//397 398//398 399//399
f 397//397 399//399 400//400
f 401//401 402//402 403//403
f 401//401 403//403 404//404
f 405//405 406//406 407//407
f 405//405 407//407 408//408
f 409//409 410//410 411//411
f 409//409 411//411 412//412
f 413//413 414//414 415//415
f 413//413 415//415 416//416
f 417//417 418//418 419//419
f 417//417 419//419 420//420
f 421//421 422//422 423//423
f 421//421 423//423 424//424
f 425//425 426//426 427//427
f 425//425 427//427 428//428
f 429//429 430//430 431//431
f 429//429 431//431 432//432
f 433//433 434//434 435//435
f 433//433 435//435 436//436
f 437//437 438//438 439//439
f 437//437 439//439 440//440
f 441//441 442//442 443//443
f 441//441 443//443 444//444
f 445//445 446//446 447//447
f 445//445 447//447 448//448
f 449//449 450//450 451//451
f 449//449 451//451 452//452
f 453//453 454//454 455//455
f 453//453 455//455 456//456
f 457//457 458//458 459//459
f 457//457 459//459 460//460
f 461//461 462//462 463//463
f 461//461 463//463 464//464
f 465//465 466//466 467//467
f 465//465 467//467 468//468
f 469//469 470//470 471//471
f 469//469 471//471 472//472
f 473//473 474//474 475//475
f 473//473 475//475 476//476
f 477//477 478//478 479//479
f 477//477 479//479 480//480
f 481//481 482//482 483//483
f 481//481 483//483 484//484
f 485//485 486//486 487//487
f 485//485 487//487 488//488
f 489//489 490//490 491//491
f 489//489 491//491 492//492
f 493//493 494//494 495//495
f 493//493 495//495 496//496
f 497//497 498//498 499//499
f 497//497 499//499 500//500
f 501//501 502//502 503//503
f 501//501 503//503 504//504
f 505//505 506//506 507//507
f 505//505 507//507 508//508
f 509//509 510//510 511//511
f 509//509 511//511 512//512
f 513//513 514//514 515//515
f 513//513 515//515 516//516
f 517//517 518//518 519//519
f 517//517 519//519 520//520
f 521//521 522//522 523//523
f 521//521 523//523 524//524
f 525//525 526//526 527//527
f 525//525 527//527 528//528
f 529//529 530//530 531//531
f 529//529 531//531 532//532
f 533//533 534//534 535//535
f 533//533 535//535 536//536
f 537//537 538//538 539//539
f 537//537 539//539 540//540
f 541//541 542//542 543//543
f 541//541 543//543 544//544
f 545//545 546//546 547//547
f 545//545 547//547 548//548
f 549//549 550//550 551//551
f 549//549 551//551 552//552
f 553//553 554//554 555//555
f 553//553 555//555 556//556
f 557//557 558//558 559//559
f 557//557 559//559 560//560
f 561//561 562//562 563//563
f 561//561 563//563 564//564
f 565//565 566//566 567//567
f 565//565 567//567 568//568
f 569//569 570//570 571//571
f 569//569 571//571 572//572
f 573//573 574//574 575//575
f 573//573 575//575 576//576
f 577//577 578//578 579//579
f 577//577 579//579 580//580
f 581//581 582//582 583//583
f 581//581 583//583 584//584
f 585//585 586//586 587//587
f 585//585 587//587 588//588
f 589//589 590//590 591//591
f 589//589 591//591 592//592
f 593//593 594//594 595//595
f 593//593 595//595 596//596
f 597//597 598//598 599//599
f 597//597 599//599 600//600
f 601//601 602//602 603//603
f 601//601 603//603 604//604
f 605//605 606//606 607//607
f 605//605 607//607 608//608
f 609//609 610//610 611//611
f 609//609 611//611 612//612
f 613//613 614//614 615//615
f 613//613 615//615 616//616
f 617//617 618//618 619//619
f 617//617 619//619 620//620
f 621//621 622//622 623//623
f 621//621 623//623 624//624
f 625//625 626//626 627//627
f 625//625 627//627 628//628
f 629//629 630//630 631//631
f 629//629 631//631 632//632
f 633//633 634//634 635//635
f 633//633 635//635 636//636
f 637//637 638//638 639//639
f 637//637 639//639 640//640
f 641//641 642//642 643//643
f 641//641 643//643 644//644
f 645//645 646//646 647//647
f 645//645 647//647 648//648
f 649//649 650//650 651//651
f 649//649 651//651 652//652
f 653//653 654//654 655//655
f 653//653 655//655 656//656
f 657//657 658//658 659//659
f 657//657 659//659 660//660
f 661//661 662//662 663//663
f 661//661 663//663 664//664
f 665//665 666//666 667//667
f 665//665 667//667 668//668
f 669//669 670//670 671//671
f 669//669 671//671 672//672
f 673//673 674//674 675//675
f 673//673 675//675 676//676
f 677//677 678//678 679//679
f 677//677 679//679 680//680
f 681//681 682//682 683//683
f 681//681 683//683 684//684
f 685//685 686//686 687//687
f 685//685 687//687 688//688
f 689//689 690//690 691//691
f 689//689 691//691 692//692
f 693//693 694//694 695//695
f 693//693 695//695 696//696
f 697//697 698//698 699//699
f 697//697 699//699 700//700
f 701//701 702//702 703//703
f 701//701 703//703 704//704
f 705//705 706//706 707//707
f 705//705 707//707 708//708
f 709//709 710//710 711//711
f 709//709 711//711 712//712
f 713//713 714//714 715//715
f 713//713 715//715 716//716
f 717//717 718//718 719//719
f 717//717 719//719 720//720
f 721//721 722//722 723//723
f 721//721 723//723 724//724
f 725//725 726//726 727//727
f 725//725 727//727 728//728
f 729//729 730//730 731//731
f 729//729 731//731 732//732
f 733//733 734//734 735//735
f 733//733 735//735 736//736
f 737//737 738//738 739//739
f 737//737 739//739 740//740
f 741//741 742//742 743//743
f 741//741 743//743 744//744
f 745//745 746//746 747//747
f 745//745 747//747 748//748
f 749//749 750//750 751//751
f 749//749 751//751 752//752
f 753//753 754//754 755//755
f 753//753 755//755 756//756
f 757//757 758//758 759//759
f 757//757 759//759 760//760
f 761//761 762//762 763//763
f 761//761 763//763 764//764
f 765//765 766//766 767//767
f 765//765 767//767 768//768
f 769//769 770//770 771//771
f 769//769 771//771 772//772
f 773//773 774//774 775//775
f 773//773 775//775 776//776
f 777//777 778//778 779//779
f 777//777 779//779 780//780
f 781//781 782//782 783//783
f 781//781 783//783 784//784
f 785//785 786//786 787//787
f 785//785 787//787 788//788
f 789//789 790//790 791//791
f 789//789 791//791 792//792
f 793//793 794//794 795//795
f 793//793 795//795 796//796
f 797//797 798//798 799//799
f 797//797 799//799 800//800
f 801//801 802//802 803//803
f 801//801 803//803 804//804
f 805//805 806//806 807//807
f 805//805 807//807 808//808
f 809//809 810//810 811//811
f 809//809 811//811 812//812
f 813//813 814//814 815//815
f 813//813 815//815 816//816
f 817//817 818//818 819//819
f 817//817 819//819 820//820
f 821//821 822//822 823//823
f 821//821 823//823 824//824
f 825//825 826//826 827//827
f 825//825 827//827 828//828
f 829//829 830//830 831//831
f 829//829 831//831 832//832
f 833//833 834//834 835//835
f 833//833 835//835 836//836
f 837//837 838//838 839//839
f 837//837 839//839 840//840
f 841//841 842//842 843//843
f 841//841 843//843 844//844
f 845//845 846//846 847//847
f 845//845 847//847 848//848
f 849//849 850//850 851//851
f 849//849 851//851 852//852
f 853//853 854//854 855//855
f 853//853 855//855 856//856
f 857//857 858//858 859//859
f 857//857 859//859 860//860
f 861//861 862//862 863//863
f 861//861 863//863 864//864
f 865//865 866//866 867//867
f 865//865 867//867 868//868
f 869//869 870//870 871//871
f 869//869 871//871 872//872
f 873//873 874//874 875//875
f 873//873 875//875 876//876
f 877//877 878//878 879//879
f 877//877 879//879 880//880
f 881//881 882//882 883//883
f 881//881 883//883 884//884
f 885//885 886//886 887//887
f 885//885 887//887 888//888
f 889//889 890//890 891//891
f 889//889 891//891 892//892
f 893//893 894//894 895//895
f 893//893 895//895 896//896
f 897//897 898//898 899//899
f 897//897 899//899 900//900
f 901//901 902//902 903//903
f 901//901 903//903 904//904
f 905//905 906//906 907//907
f 905//905 907//907 908//908
f 909//909 910//910 911//911
f 909//909 911//911 912//912
f 913//913 914//914 915//915
f 913//913 915//915 916//916
f 917//917 918//918 919//919
f 917//917 919//919 920//920
f 921//921 922//922 923//923
f 921//921 923//923 924//924
f 925//925 926//926 927//927
f 925//925 927//927 928//928
f 929//929 930//930 931//931
f 929//929 931//931 932//932
f 933//933 934//934 935//935
f 933//933 935//935 936//936
f 937//937 938//938 939//939
f 937//937 939//939 940//940
f 941//941 942//942 943//943
f 941//941 943//943 944//944
f 945//945 946//946 947//947
f 945//945 947//947 948//948
f 949//949 950//950 951//951
f 949//949 951//951 952//952
f 953//953 954//954 955//955
f 953//953 955//955 956//956
f 957//957 958//958 959//959
f 957//957 959//959 960//960
f 961//961 962//962 963//963
f 961//961 963//963 964//964
f 965//965 966//966 967//967
f 965//965 967//967 968//968
f 969//969 970//970 971//971
f 969//969 971//971 972//972
f 973//973 974//974 975//975
f 973//973 975//975 976//976
f 977//977 978//978 979//979
f 977//977 979//979 980//980
f 981//981 982//982 983//983
f 981//981 983//983 984//984
f 985//985 986//986 987//987
f 985//985 987//987 988//988
f 989//989 990//990 991//991
f 989//989 991//991 992//992
f 993//993 994//994 995//995
f 993//993 995//995 996//996
f 997//997 998//998 999//999
f 997//997 999//999 1000//1000
f 1001//1001 1002//1002 1003//1003
f 1001//1001 1003//1003 1004//1004
f 1005//1005 1006//1006 1007//1007
f 1005//1005 1007//1007 1008//1008
f 1009//1009 1010//1010 1011//1011
f 1009//1009 1011//1011 1012//1012
f 1013//1013 1014//1014 1015//1015
f 1013//1013 1015//1015 1016//1016
f 1017//1017 1018//1018 1019//1019
f 1017//1017 1019//1019 1020//1020
f 1021//1021 1022//1022 1023//1023
f 1021//1021 1023//1023 1024//1024
f 1025//1025 1026//1026 1027//1027
f 1025//1025 1027//1027 1028//1028
f 1029//1029 1030//1030 1031//1031
f 1029//1029 1031//1031 1032//1032
