# Dongfeng sandbox; metres; X right, Y far, Z up
v 0.332500 0.882500 0.012000
v 0.332500 0.917500 0.012000
v 0.367500 0.917500 0.012000
v 0.367500 0.882500 0.012000
v 0.332500 0.882500 0.024000
v 0.367500 0.882500 0.024000
v 0.367500 0.917500 0.024000
v 0.332500 0.917500 0.024000
v 0.332500 0.882500 0.012000
v 0.367500 0.882500 0.012000
v 0.367500 0.882500 0.024000
v 0.332500 0.882500 0.024000
v 0.367500 0.882500 0.012000
v 0.367500 0.917500 0.012000
v 0.367500 0.917500 0.024000
v 0.367500 0.882500 0.024000
v 0.367500 0.917500 0.012000
v 0.332500 0.917500 0.012000
v 0.332500 0.917500 0.024000
v 0.367500 0.917500 0.024000
v 0.332500 0.917500 0.012000
v 0.332500 0.882500 0.012000
v 0.332500 0.882500 0.024000
v 0.332500 0.917500 0.024000
v 0.350000 0.904000 0.012000
v 0.346536 0.902000 0.012000
v 0.346536 0.898000 0.012000
v 0.350000 0.896000 0.012000
v 0.353464 0.898000 0.012000
v 0.353464 0.902000 0.012000
v 0.350000 0.904000 0.334500
v 0.346536 0.902000 0.334500
v 0.346536 0.898000 0.334500
v 0.350000 0.896000 0.334500
v 0.353464 0.898000 0.334500
v 0.353464 0.902000 0.334500
v 0.332500 1.982500 0.012000
v 0.332500 2.017500 0.012000
v 0.367500 2.017500 0.012000
v 0.367500 1.982500 0.012000
v 0.332500 1.982500 0.024000
v 0.367500 1.982500 0.024000
v 0.367500 2.017500 0.024000
v 0.332500 2.017500 0.024000
v 0.332500 1.982500 0.012000
v 0.367500 1.982500 0.012000
v 0.367500 1.982500 0.024000
v 0.332500 1.982500 0.024000
v 0.367500 1.982500 0.012000
v 0.367500 2.017500 0.012000
v 0.367500 2.017500 0.024000
v 0.367500 1.982500 0.024000
v 0.367500 2.017500 0.012000
v 0.332500 2.017500 0.012000
v 0.332500 2.017500 0.024000
v 0.367500 2.017500 0.024000
v 0.332500 2.017500 0.012000
v 0.332500 1.982500 0.012000
v 0.332500 1.982500 0.024000
v 0.332500 2.017500 0.024000
v 0.350000 2.004000 0.012000
v 0.346536 2.002000 0.012000
v 0.346536 1.998000 0.012000
v 0.350000 1.996000 0.012000
v 0.353464 1.998000 0.012000
v 0.353464 2.002000 0.012000
v 0.350000 2.004000 0.334500
v 0.346536 2.002000 0.334500
v 0.346536 1.998000 0.334500
v 0.350000 1.996000 0.334500
v 0.353464 1.998000 0.334500
v 0.353464 2.002000 0.334500
v 0.332500 3.132500 0.012000
v 0.332500 3.167500 0.012000
v 0.367500 3.167500 0.012000
v 0.367500 3.132500 0.012000
v 0.332500 3.132500 0.024000
v 0.367500 3.132500 0.024000
v 0.367500 3.167500 0.024000
v 0.332500 3.167500 0.024000
v 0.332500 3.132500 0.012000
v 0.367500 3.132500 0.012000
v 0.367500 3.132500 0.024000
v 0.332500 3.132500 0.024000
v 0.367500 3.132500 0.012000
v 0.367500 3.167500 0.012000
v 0.367500 3.167500 0.024000
v 0.367500 3.132500 0.024000
v 0.367500 3.167500 0.012000
v 0.332500 3.167500 0.012000
v 0.332500 3.167500 0.024000
v 0.367500 3.167500 0.024000
v 0.332500 3.167500 0.012000
v 0.332500 3.132500 0.012000
v 0.332500 3.132500 0.024000
v 0.332500 3.167500 0.024000
v 0.350000 3.154000 0.012000
v 0.346536 3.152000 0.012000
v 0.346536 3.148000 0.012000
v 0.350000 3.146000 0.012000
v 0.353464 3.148000 0.012000
v 0.353464 3.152000 0.012000
v 0.350000 3.154000 0.334500
v 0.346536 3.152000 0.334500
v 0.346536 3.148000 0.334500
v 0.350000 3.146000 0.334500
v 0.353464 3.148000 0.334500
v 0.353464 3.152000 0.334500
v 1.262500 0.762500 0.012000
v 1.262500 0.797500 0.012000
v 1.297500 0.797500 0.012000
v 1.297500 0.762500 0.012000
v 1.262500 0.762500 0.024000
v 1.297500 0.762500 0.024000
v 1.297500 0.797500 0.024000
v 1.262500 0.797500 0.024000
v 1.262500 0.762500 0.012000
v 1.297500 0.762500 0.012000
v 1.297500 0.762500 0.024000
v 1.262500 0.762500 0.024000
v 1.297500 0.762500 0.012000
v 1.297500 0.797500 0.012000
v 1.297500 0.797500 0.024000
v 1.297500 0.762500 0.024000
v 1.297500 0.797500 0.012000
v 1.262500 0.797500 0.012000
v 1.262500 0.797500 0.024000
v 1.297500 0.797500 0.024000
v 1.262500 0.797500 0.012000
v 1.262500 0.762500 0.012000
v 1.262500 0.762500 0.024000
v 1.262500 0.797500 0.024000
v 1.280000 0.784000 0.012000
v 1.276536 0.782000 0.012000
v 1.276536 0.778000 0.012000
v 1.280000 0.776000 0.012000
v 1.283464 0.778000 0.012000
v 1.283464 0.782000 0.012000
v 1.280000 0.784000 0.334500
v 1.276536 0.782000 0.334500
v 1.276536 0.778000 0.334500
v 1.280000 0.776000 0.334500
v 1.283464 0.778000 0.334500
v 1.283464 0.782000 0.334500
v 1.262500 1.882500 0.012000
v 1.262500 1.917500 0.012000
v 1.297500 1.917500 0.012000
v 1.297500 1.882500 0.012000
v 1.262500 1.882500 0.024000
v 1.297500 1.882500 0.024000
v 1.297500 1.917500 0.024000
v 1.262500 1.917500 0.024000
v 1.262500 1.882500 0.012000
v 1.297500 1.882500 0.012000
v 1.297500 1.882500 0.024000
v 1.262500 1.882500 0.024000
v 1.297500 1.882500 0.012000
v 1.297500 1.917500 0.012000
v 1.297500 1.917500 0.024000
v 1.297500 1.882500 0.024000
v 1.297500 1.917500 0.012000
v 1.262500 1.917500 0.012000
v 1.262500 1.917500 0.024000
v 1.297500 1.917500 0.024000
v 1.262500 1.917500 0.012000
v 1.262500 1.882500 0.012000
v 1.262500 1.882500 0.024000
v 1.262500 1.917500 0.024000
v 1.280000 1.904000 0.012000
v 1.276536 1.902000 0.012000
v 1.276536 1.898000 0.012000
v 1.280000 1.896000 0.012000
v 1.283464 1.898000 0.012000
v 1.283464 1.902000 0.012000
v 1.280000 1.904000 0.334500
v 1.276536 1.902000 0.334500
v 1.276536 1.898000 0.334500
v 1.280000 1.896000 0.334500
v 1.283464 1.898000 0.334500
v 1.283464 1.902000 0.334500
v 1.272500 3.362500 0.012000
v 1.272500 3.397500 0.012000
v 1.307500 3.397500 0.012000
v 1.307500 3.362500 0.012000
v 1.272500 3.362500 0.024000
v 1.307500 3.362500 0.024000
v 1.307500 3.397500 0.024000
v 1.272500 3.397500 0.024000
v 1.272500 3.362500 0.012000
v 1.307500 3.362500 0.012000
v 1.307500 3.362500 0.024000
v 1.272500 3.362500 0.024000
v 1.307500 3.362500 0.012000
v 1.307500 3.397500 0.012000
v 1.307500 3.397500 0.024000
v 1.307500 3.362500 0.024000
v 1.307500 3.397500 0.012000
v 1.272500 3.397500 0.012000
v 1.272500 3.397500 0.024000
v 1.307500 3.397500 0.024000
v 1.272500 3.397500 0.012000
v 1.272500 3.362500 0.012000
v 1.272500 3.362500 0.024000
v 1.272500 3.397500 0.024000
v 1.290000 3.384000 0.012000
v 1.286536 3.382000 0.012000
v 1.286536 3.378000 0.012000
v 1.290000 3.376000 0.012000
v 1.293464 3.378000 0.012000
v 1.293464 3.382000 0.012000
v 1.290000 3.384000 0.334500
v 1.286536 3.382000 0.334500
v 1.286536 3.378000 0.334500
v 1.290000 3.376000 0.334500
v 1.293464 3.378000 0.334500
v 1.293464 3.382000 0.334500
v 2.932500 0.882500 0.012000
v 2.932500 0.917500 0.012000
v 2.967500 0.917500 0.012000
v 2.967500 0.882500 0.012000
v 2.932500 0.882500 0.024000
v 2.967500 0.882500 0.024000
v 2.967500 0.917500 0.024000
v 2.932500 0.917500 0.024000
v 2.932500 0.882500 0.012000
v 2.967500 0.882500 0.012000
v 2.967500 0.882500 0.024000
v 2.932500 0.882500 0.024000
v 2.967500 0.882500 0.012000
v 2.967500 0.917500 0.012000
v 2.967500 0.917500 0.024000
v 2.967500 0.882500 0.024000
v 2.967500 0.917500 0.012000
v 2.932500 0.917500 0.012000
v 2.932500 0.917500 0.024000
v 2.967500 0.917500 0.024000
v 2.932500 0.917500 0.012000
v 2.932500 0.882500 0.012000
v 2.932500 0.882500 0.024000
v 2.932500 0.917500 0.024000
v 2.950000 0.904000 0.012000
v 2.946536 0.902000 0.012000
v 2.946536 0.898000 0.012000
v 2.950000 0.896000 0.012000
v 2.953464 0.898000 0.012000
v 2.953464 0.902000 0.012000
v 2.950000 0.904000 0.334500
v 2.946536 0.902000 0.334500
v 2.946536 0.898000 0.334500
v 2.950000 0.896000 0.334500
v 2.953464 0.898000 0.334500
v 2.953464 0.902000 0.334500
v 2.932500 1.982500 0.012000
v 2.932500 2.017500 0.012000
v 2.967500 2.017500 0.012000
v 2.967500 1.982500 0.012000
v 2.932500 1.982500 0.024000
v 2.967500 1.982500 0.024000
v 2.967500 2.017500 0.024000
v 2.932500 2.017500 0.024000
v 2.932500 1.982500 0.012000
v 2.967500 1.982500 0.012000
v 2.967500 1.982500 0.024000
v 2.932500 1.982500 0.024000
v 2.967500 1.982500 0.012000
v 2.967500 2.017500 0.012000
v 2.967500 2.017500 0.024000
v 2.967500 1.982500 0.024000
v 2.967500 2.017500 0.012000
v 2.932500 2.017500 0.012000
v 2.932500 2.017500 0.024000
v 2.967500 2.017500 0.024000
v 2.932500 2.017500 0.012000
v 2.932500 1.982500 0.012000
v 2.932500 1.982500 0.024000
v 2.932500 2.017500 0.024000
v 2.950000 2.004000 0.012000
v 2.946536 2.002000 0.012000
v 2.946536 1.998000 0.012000
v 2.950000 1.996000 0.012000
v 2.953464 1.998000 0.012000
v 2.953464 2.002000 0.012000
v 2.950000 2.004000 0.334500
v 2.946536 2.002000 0.334500
v 2.946536 1.998000 0.334500
v 2.950000 1.996000 0.334500
v 2.953464 1.998000 0.334500
v 2.953464 2.002000 0.334500
v 2.932500 3.132500 0.012000
v 2.932500 3.167500 0.012000
v 2.967500 3.167500 0.012000
v 2.967500 3.132500 0.012000
v 2.932500 3.132500 0.024000
v 2.967500 3.132500 0.024000
v 2.967500 3.167500 0.024000
v 2.932500 3.167500 0.024000
v 2.932500 3.132500 0.012000
v 2.967500 3.132500 0.012000
v 2.967500 3.132500 0.024000
v 2.932500 3.132500 0.024000
v 2.967500 3.132500 0.012000
v 2.967500 3.167500 0.012000
v 2.967500 3.167500 0.024000
v 2.967500 3.132500 0.024000
v 2.967500 3.167500 0.012000
v 2.932500 3.167500 0.012000
v 2.932500 3.167500 0.024000
v 2.967500 3.167500 0.024000
v 2.932500 3.167500 0.012000
v 2.932500 3.132500 0.012000
v 2.932500 3.132500 0.024000
v 2.932500 3.167500 0.024000
v 2.950000 3.154000 0.012000
v 2.946536 3.152000 0.012000
v 2.946536 3.148000 0.012000
v 2.950000 3.146000 0.012000
v 2.953464 3.148000 0.012000
v 2.953464 3.152000 0.012000
v 2.950000 3.154000 0.334500
v 2.946536 3.152000 0.334500
v 2.946536 3.148000 0.334500
v 2.950000 3.146000 0.334500
v 2.953464 3.148000 0.334500
v 2.953464 3.152000 0.334500
v 2.002500 0.782500 0.012000
v 2.002500 0.817500 0.012000
v 2.037500 0.817500 0.012000
v 2.037500 0.782500 0.012000
v 2.002500 0.782500 0.024000
v 2.037500 0.782500 0.024000
v 2.037500 0.817500 0.024000
v 2.002500 0.817500 0.024000
v 2.002500 0.782500 0.012000
v 2.037500 0.782500 0.012000
v 2.037500 0.782500 0.024000
v 2.002500 0.782500 0.024000
v 2.037500 0.782500 0.012000
v 2.037500 0.817500 0.012000
v 2.037500 0.817500 0.024000
v 2.037500 0.782500 0.024000
v 2.037500 0.817500 0.012000
v 2.002500 0.817500 0.012000
v 2.002500 0.817500 0.024000
v 2.037500 0.817500 0.024000
v 2.002500 0.817500 0.012000
v 2.002500 0.782500 0.012000
v 2.002500 0.782500 0.024000
v 2.002500 0.817500 0.024000
v 2.020000 0.804000 0.012000
v 2.016536 0.802000 0.012000
v 2.016536 0.798000 0.012000
v 2.020000 0.796000 0.012000
v 2.023464 0.798000 0.012000
v 2.023464 0.802000 0.012000
v 2.020000 0.804000 0.334500
v 2.016536 0.802000 0.334500
v 2.016536 0.798000 0.334500
v 2.020000 0.796000 0.334500
v 2.023464 0.798000 0.334500
v 2.023464 0.802000 0.334500
v 2.002500 1.922500 0.012000
v 2.002500 1.957500 0.012000
v 2.037500 1.957500 0.012000
v 2.037500 1.922500 0.012000
v 2.002500 1.922500 0.024000
v 2.037500 1.922500 0.024000
v 2.037500 1.957500 0.024000
v 2.002500 1.957500 0.024000
v 2.002500 1.922500 0.012000
v 2.037500 1.922500 0.012000
v 2.037500 1.922500 0.024000
v 2.002500 1.922500 0.024000
v 2.037500 1.922500 0.012000
v 2.037500 1.957500 0.012000
v 2.037500 1.957500 0.024000
v 2.037500 1.922500 0.024000
v 2.037500 1.957500 0.012000
v 2.002500 1.957500 0.012000
v 2.002500 1.957500 0.024000
v 2.037500 1.957500 0.024000
v 2.002500 1.957500 0.012000
v 2.002500 1.922500 0.012000
v 2.002500 1.922500 0.024000
v 2.002500 1.957500 0.024000
v 2.020000 1.944000 0.012000
v 2.016536 1.942000 0.012000
v 2.016536 1.938000 0.012000
v 2.020000 1.936000 0.012000
v 2.023464 1.938000 0.012000
v 2.023464 1.942000 0.012000
v 2.020000 1.944000 0.334500
v 2.016536 1.942000 0.334500
v 2.016536 1.938000 0.334500
v 2.020000 1.936000 0.334500
v 2.023464 1.938000 0.334500
v 2.023464 1.942000 0.334500
v 1.992500 3.362500 0.012000
v 1.992500 3.397500 0.012000
v 2.027500 3.397500 0.012000
v 2.027500 3.362500 0.012000
v 1.992500 3.362500 0.024000
v 2.027500 3.362500 0.024000
v 2.027500 3.397500 0.024000
v 1.992500 3.397500 0.024000
v 1.992500 3.362500 0.012000
v 2.027500 3.362500 0.012000
v 2.027500 3.362500 0.024000
v 1.992500 3.362500 0.024000
v 2.027500 3.362500 0.012000
v 2.027500 3.397500 0.012000
v 2.027500 3.397500 0.024000
v 2.027500 3.362500 0.024000
v 2.027500 3.397500 0.012000
v 1.992500 3.397500 0.012000
v 1.992500 3.397500 0.024000
v 2.027500 3.397500 0.024000
v 1.992500 3.397500 0.012000
v 1.992500 3.362500 0.012000
v 1.992500 3.362500 0.024000
v 1.992500 3.397500 0.024000
v 2.010000 3.384000 0.012000
v 2.006536 3.382000 0.012000
v 2.006536 3.378000 0.012000
v 2.010000 3.376000 0.012000
v 2.013464 3.378000 0.012000
v 2.013464 3.382000 0.012000
v 2.010000 3.384000 0.334500
v 2.006536 3.382000 0.334500
v 2.006536 3.378000 0.334500
v 2.010000 3.376000 0.334500
v 2.013464 3.378000 0.334500
v 2.013464 3.382000 0.334500
v 0.882500 4.211289 0.012000
v 0.882500 4.246289 0.012000
v 0.917500 4.246289 0.012000
v 0.917500 4.211289 0.012000
v 0.882500 4.211289 0.024000
v 0.917500 4.211289 0.024000
v 0.917500 4.246289 0.024000
v 0.882500 4.246289 0.024000
v 0.882500 4.211289 0.012000
v 0.917500 4.211289 0.012000
v 0.917500 4.211289 0.024000
v 0.882500 4.211289 0.024000
v 0.917500 4.211289 0.012000
v 0.917500 4.246289 0.012000
v 0.917500 4.246289 0.024000
v 0.917500 4.211289 0.024000
v 0.917500 4.246289 0.012000
v 0.882500 4.246289 0.012000
v 0.882500 4.246289 0.024000
v 0.917500 4.246289 0.024000
v 0.882500 4.246289 0.012000
v 0.882500 4.211289 0.012000
v 0.882500 4.211289 0.024000
v 0.882500 4.246289 0.024000
v 0.900000 4.232790 0.012000
v 0.896536 4.230789 0.012000
v 0.896536 4.226789 0.012000
v 0.900000 4.224789 0.012000
v 0.903464 4.226789 0.012000
v 0.903464 4.230789 0.012000
v 0.900000 4.232790 0.334500
v 0.896536 4.230789 0.334500
v 0.896536 4.226789 0.334500
v 0.900000 4.224789 0.334500
v 0.903464 4.226789 0.334500
v 0.903464 4.230789 0.334500
v 2.382500 4.211289 0.012000
v 2.382500 4.246289 0.012000
v 2.417500 4.246289 0.012000
v 2.417500 4.211289 0.012000
v 2.382500 4.211289 0.024000
v 2.417500 4.211289 0.024000
v 2.417500 4.246289 0.024000
v 2.382500 4.246289 0.024000
v 2.382500 4.211289 0.012000
v 2.417500 4.211289 0.012000
v 2.417500 4.211289 0.024000
v 2.382500 4.211289 0.024000
v 2.417500 4.211289 0.012000
v 2.417500 4.246289 0.012000
v 2.417500 4.246289 0.024000
v 2.417500 4.211289 0.024000
v 2.417500 4.246289 0.012000
v 2.382500 4.246289 0.012000
v 2.382500 4.246289 0.024000
v 2.417500 4.246289 0.024000
v 2.382500 4.246289 0.012000
v 2.382500 4.211289 0.012000
v 2.382500 4.211289 0.024000
v 2.382500 4.246289 0.024000
v 2.400000 4.232790 0.012000
v 2.396536 4.230789 0.012000
v 2.396536 4.226789 0.012000
v 2.400000 4.224789 0.012000
v 2.403464 4.226789 0.012000
v 2.403464 4.230789 0.012000
v 2.400000 4.232790 0.334500
v 2.396536 4.230789 0.334500
v 2.396536 4.226789 0.334500
v 2.400000 4.224789 0.334500
v 2.403464 4.226789 0.334500
v 2.403464 4.230789 0.334500
v 1.632500 4.482500 0.012000
v 1.632500 4.517500 0.012000
v 1.667500 4.517500 0.012000
v 1.667500 4.482500 0.012000
v 1.632500 4.482500 0.024000
v 1.667500 4.482500 0.024000
v 1.667500 4.517500 0.024000
v 1.632500 4.517500 0.024000
v 1.632500 4.482500 0.012000
v 1.667500 4.482500 0.012000
v 1.667500 4.482500 0.024000
v 1.632500 4.482500 0.024000
v 1.667500 4.482500 0.012000
v 1.667500 4.517500 0.012000
v 1.667500 4.517500 0.024000
v 1.667500 4.482500 0.024000
v 1.667500 4.517500 0.012000
v 1.632500 4.517500 0.012000
v 1.632500 4.517500 0.024000
v 1.667500 4.517500 0.024000
v 1.632500 4.517500 0.012000
v 1.632500 4.482500 0.012000
v 1.632500 4.482500 0.024000
v 1.632500 4.517500 0.024000
v 1.650000 4.504000 0.012000
v 1.646536 4.502000 0.012000
v 1.646536 4.498000 0.012000
v 1.650000 4.496000 0.012000
v 1.653464 4.498000 0.012000
v 1.653464 4.502000 0.012000
v 1.650000 4.504000 0.334500
v 1.646536 4.502000 0.334500
v 1.646536 4.498000 0.334500
v 1.650000 4.496000 0.334500
v 1.653464 4.498000 0.334500
v 1.653464 4.502000 0.334500
v 0.410000 2.056000 0.010000
v 0.405757 2.054243 0.010000
v 0.404000 2.050000 0.010000
v 0.405757 2.045757 0.010000
v 0.410000 2.044000 0.010000
v 0.414243 2.045757 0.010000
v 0.416000 2.050000 0.010000
v 0.414243 2.054243 0.010000
v 0.410000 2.056000 0.260000
v 0.405757 2.054243 0.260000
v 0.404000 2.050000 0.260000
v 0.405757 2.045757 0.260000
v 0.410000 2.044000 0.260000
v 0.414243 2.045757 0.260000
v 0.416000 2.050000 0.260000
v 0.414243 2.054243 0.260000
v 1.260000 2.066000 0.010000
v 1.255757 2.064243 0.010000
v 1.254000 2.060000 0.010000
v 1.255757 2.055757 0.010000
v 1.260000 2.054000 0.010000
v 1.264243 2.055757 0.010000
v 1.266000 2.060000 0.010000
v 1.264243 2.064243 0.010000
v 1.260000 2.066000 0.260000
v 1.255757 2.064243 0.260000
v 1.254000 2.060000 0.260000
v 1.255757 2.055757 0.260000
v 1.260000 2.054000 0.260000
v 1.264243 2.055757 0.260000
v 1.266000 2.060000 0.260000
v 1.264243 2.064243 0.260000
v 2.040000 2.776000 0.010000
v 2.035757 2.774243 0.010000
v 2.034000 2.770000 0.010000
v 2.035757 2.765757 0.010000
v 2.040000 2.764000 0.010000
v 2.044243 2.765757 0.010000
v 2.046000 2.770000 0.010000
v 2.044243 2.774243 0.010000
v 2.040000 2.776000 0.260000
v 2.035757 2.774243 0.260000
v 2.034000 2.770000 0.260000
v 2.035757 2.765757 0.260000
v 2.040000 2.764000 0.260000
v 2.044243 2.765757 0.260000
v 2.046000 2.770000 0.260000
v 2.044243 2.774243 0.260000
v 2.890000 2.776000 0.010000
v 2.885757 2.774243 0.010000
v 2.884000 2.770000 0.010000
v 2.885757 2.765757 0.010000
v 2.890000 2.764000 0.010000
v 2.894243 2.765757 0.010000
v 2.896000 2.770000 0.010000
v 2.894243 2.774243 0.010000
v 2.890000 2.776000 0.260000
v 2.885757 2.774243 0.260000
v 2.884000 2.770000 0.260000
v 2.885757 2.765757 0.260000
v 2.890000 2.764000 0.260000
v 2.894243 2.765757 0.260000
v 2.896000 2.770000 0.260000
v 2.894243 2.774243 0.260000
v 0.420000 2.776000 0.010000
v 0.415757 2.774243 0.010000
v 0.414000 2.770000 0.010000
v 0.415757 2.765757 0.010000
v 0.420000 2.764000 0.010000
v 0.424243 2.765757 0.010000
v 0.426000 2.770000 0.010000
v 0.424243 2.774243 0.010000
v 0.420000 2.776000 0.260000
v 0.415757 2.774243 0.260000
v 0.414000 2.770000 0.260000
v 0.415757 2.765757 0.260000
v 0.420000 2.764000 0.260000
v 0.424243 2.765757 0.260000
v 0.426000 2.770000 0.260000
v 0.424243 2.774243 0.260000
v 2.880000 2.056000 0.010000
v 2.875757 2.054243 0.010000
v 2.874000 2.050000 0.010000
v 2.875757 2.045757 0.010000
v 2.880000 2.044000 0.010000
v 2.884243 2.045757 0.010000
v 2.886000 2.050000 0.010000
v 2.884243 2.054243 0.010000
v 2.880000 2.056000 0.260000
v 2.875757 2.054243 0.260000
v 2.874000 2.050000 0.260000
v 2.875757 2.045757 0.260000
v 2.880000 2.044000 0.260000
v 2.884243 2.045757 0.260000
v 2.886000 2.050000 0.260000
v 2.884243 2.054243 0.260000
v 0.370000 3.556000 0.010000
v 0.365757 3.554243 0.010000
v 0.364000 3.550000 0.010000
v 0.365757 3.545757 0.010000
v 0.370000 3.544000 0.010000
v 0.374243 3.545757 0.010000
v 0.376000 3.550000 0.010000
v 0.374243 3.554243 0.010000
v 0.370000 3.556000 0.260000
v 0.365757 3.554243 0.260000
v 0.364000 3.550000 0.260000
v 0.365757 3.545757 0.260000
v 0.370000 3.544000 0.260000
v 0.374243 3.545757 0.260000
v 0.376000 3.550000 0.260000
v 0.374243 3.554243 0.260000
v 2.930000 3.556000 0.010000
v 2.925757 3.554243 0.010000
v 2.924000 3.550000 0.010000
v 2.925757 3.545757 0.010000
v 2.930000 3.544000 0.010000
v 2.934243 3.545757 0.010000
v 2.936000 3.550000 0.010000
v 2.934243 3.554243 0.010000
v 2.930000 3.556000 0.260000
v 2.925757 3.554243 0.260000
v 2.924000 3.550000 0.260000
v 2.925757 3.545757 0.260000
v 2.930000 3.544000 0.260000
v 2.934243 3.545757 0.260000
v 2.936000 3.550000 0.260000
v 2.934243 3.554243 0.260000
v 0.977500 5.002500 0.130000
v 0.977500 5.047500 0.130000
v 1.022500 5.047500 0.130000
v 1.022500 5.002500 0.130000
v 0.977500 5.002500 0.570000
v 1.022500 5.002500 0.570000
v 1.022500 5.047500 0.570000
v 0.977500 5.047500 0.570000
v 0.977500 5.002500 0.130000
v 1.022500 5.002500 0.130000
v 1.022500 5.002500 0.570000
v 0.977500 5.002500 0.570000
v 1.022500 5.002500 0.130000
v 1.022500 5.047500 0.130000
v 1.022500 5.047500 0.570000
v 1.022500 5.002500 0.570000
v 1.022500 5.047500 0.130000
v 0.977500 5.047500 0.130000
v 0.977500 5.047500 0.570000
v 1.022500 5.047500 0.570000
v 0.977500 5.047500 0.130000
v 0.977500 5.002500 0.130000
v 0.977500 5.002500 0.570000
v 0.977500 5.047500 0.570000
v 0.977500 5.367500 0.130000
v 0.977500 5.412500 0.130000
v 1.022500 5.412500 0.130000
v 1.022500 5.367500 0.130000
v 0.977500 5.367500 0.570000
v 1.022500 5.367500 0.570000
v 1.022500 5.412500 0.570000
v 0.977500 5.412500 0.570000
v 0.977500 5.367500 0.130000
v 1.022500 5.367500 0.130000
v 1.022500 5.367500 0.570000
v 0.977500 5.367500 0.570000
v 1.022500 5.367500 0.130000
v 1.022500 5.412500 0.130000
v 1.022500 5.412500 0.570000
v 1.022500 5.367500 0.570000
v 1.022500 5.412500 0.130000
v 0.977500 5.412500 0.130000
v 0.977500 5.412500 0.570000
v 1.022500 5.412500 0.570000
v 0.977500 5.412500 0.130000
v 0.977500 5.367500 0.130000
v 0.977500 5.367500 0.570000
v 0.977500 5.412500 0.570000
v 1.042500 5.027500 0.130000
v 1.042500 5.072500 0.130000
v 1.077500 5.072500 0.130000
v 1.077500 5.027500 0.130000
v 1.042500 5.027500 0.230000
v 1.077500 5.027500 0.230000
v 1.077500 5.072500 0.230000
v 1.042500 5.072500 0.230000
v 1.042500 5.027500 0.130000
v 1.077500 5.027500 0.130000
v 1.077500 5.027500 0.230000
v 1.042500 5.027500 0.230000
v 1.077500 5.027500 0.130000
v 1.077500 5.072500 0.130000
v 1.077500 5.072500 0.230000
v 1.077500 5.027500 0.230000
v 1.077500 5.072500 0.130000
v 1.042500 5.072500 0.130000
v 1.042500 5.072500 0.230000
v 1.077500 5.072500 0.230000
v 1.042500 5.072500 0.130000
v 1.042500 5.027500 0.130000
v 1.042500 5.027500 0.230000
v 1.042500 5.072500 0.230000
v 2.277500 5.002500 0.130000
v 2.277500 5.047500 0.130000
v 2.322500 5.047500 0.130000
v 2.322500 5.002500 0.130000
v 2.277500 5.002500 0.570000
v 2.322500 5.002500 0.570000
v 2.322500 5.047500 0.570000
v 2.277500 5.047500 0.570000
v 2.277500 5.002500 0.130000
v 2.322500 5.002500 0.130000
v 2.322500 5.002500 0.570000
v 2.277500 5.002500 0.570000
v 2.322500 5.002500 0.130000
v 2.322500 5.047500 0.130000
v 2.322500 5.047500 0.570000
v 2.322500 5.002500 0.570000
v 2.322500 5.047500 0.130000
v 2.277500 5.047500 0.130000
v 2.277500 5.047500 0.570000
v 2.322500 5.047500 0.570000
v 2.277500 5.047500 0.130000
v 2.277500 5.002500 0.130000
v 2.277500 5.002500 0.570000
v 2.277500 5.047500 0.570000
v 2.277500 5.367500 0.130000
v 2.277500 5.412500 0.130000
v 2.322500 5.412500 0.130000
v 2.322500 5.367500 0.130000
v 2.277500 5.367500 0.570000
v 2.322500 5.367500 0.570000
v 2.322500 5.412500 0.570000
v 2.277500 5.412500 0.570000
v 2.277500 5.367500 0.130000
v 2.322500 5.367500 0.130000
v 2.322500 5.367500 0.570000
v 2.277500 5.367500 0.570000
v 2.322500 5.367500 0.130000
v 2.322500 5.412500 0.130000
v 2.322500 5.412500 0.570000
v 2.322500 5.367500 0.570000
v 2.322500 5.412500 0.130000
v 2.277500 5.412500 0.130000
v 2.277500 5.412500 0.570000
v 2.322500 5.412500 0.570000
v 2.277500 5.412500 0.130000
v 2.277500 5.367500 0.130000
v 2.277500 5.367500 0.570000
v 2.277500 5.412500 0.570000
v 2.342500 5.027500 0.130000
v 2.342500 5.072500 0.130000
v 2.377500 5.072500 0.130000
v 2.377500 5.027500 0.130000
v 2.342500 5.027500 0.230000
v 2.377500 5.027500 0.230000
v 2.377500 5.072500 0.230000
v 2.342500 5.072500 0.230000
v 2.342500 5.027500 0.130000
v 2.377500 5.027500 0.130000
v 2.377500 5.027500 0.230000
v 2.342500 5.027500 0.230000
v 2.377500 5.027500 0.130000
v 2.377500 5.072500 0.130000
v 2.377500 5.072500 0.230000
v 2.377500 5.027500 0.230000
v 2.377500 5.072500 0.130000
v 2.342500 5.072500 0.130000
v 2.342500 5.072500 0.230000
v 2.377500 5.072500 0.230000
v 2.342500 5.072500 0.130000
v 2.342500 5.027500 0.130000
v 2.342500 5.027500 0.230000
v 2.342500 5.072500 0.230000
v 0.371000 4.100059 0.002000
v 0.371000 4.155058 0.002000
v 0.409000 4.155058 0.002000
v 0.409000 4.100059 0.002000
v 0.371000 4.100059 0.102000
v 0.409000 4.100059 0.102000
v 0.409000 4.155058 0.102000
v 0.371000 4.155058 0.102000
v 0.371000 4.100059 0.002000
v 0.409000 4.100059 0.002000
v 0.409000 4.100059 0.102000
v 0.371000 4.100059 0.102000
v 0.409000 4.100059 0.002000
v 0.409000 4.155058 0.002000
v 0.409000 4.155058 0.102000
v 0.409000 4.100059 0.102000
v 0.409000 4.155058 0.002000
v 0.371000 4.155058 0.002000
v 0.371000 4.155058 0.102000
v 0.409000 4.155058 0.102000
v 0.371000 4.155058 0.002000
v 0.371000 4.100059 0.002000
v 0.371000 4.100059 0.102000
v 0.371000 4.155058 0.102000
v 0.422500 4.117558 0.002000
v 0.422500 4.197558 0.002000
v 0.487500 4.197558 0.002000
v 0.487500 4.117558 0.002000
v 0.422500 4.117558 0.052000
v 0.487500 4.117558 0.052000
v 0.487500 4.197558 0.052000
v 0.422500 4.197558 0.052000
v 0.422500 4.117558 0.002000
v 0.487500 4.117558 0.002000
v 0.487500 4.117558 0.052000
v 0.422500 4.117558 0.052000
v 0.487500 4.117558 0.002000
v 0.487500 4.197558 0.002000
v 0.487500 4.197558 0.052000
v 0.487500 4.117558 0.052000
v 0.487500 4.197558 0.002000
v 0.422500 4.197558 0.002000
v 0.422500 4.197558 0.052000
v 0.487500 4.197558 0.052000
v 0.422500 4.197558 0.002000
v 0.422500 4.117558 0.002000
v 0.422500 4.117558 0.052000
v 0.422500 4.197558 0.052000
v 2.891000 4.100059 0.002000
v 2.891000 4.155058 0.002000
v 2.929000 4.155058 0.002000
v 2.929000 4.100059 0.002000
v 2.891000 4.100059 0.102000
v 2.929000 4.100059 0.102000
v 2.929000 4.155058 0.102000
v 2.891000 4.155058 0.102000
v 2.891000 4.100059 0.002000
v 2.929000 4.100059 0.002000
v 2.929000 4.100059 0.102000
v 2.891000 4.100059 0.102000
v 2.929000 4.100059 0.002000
v 2.929000 4.155058 0.002000
v 2.929000 4.155058 0.102000
v 2.929000 4.100059 0.102000
v 2.929000 4.155058 0.002000
v 2.891000 4.155058 0.002000
v 2.891000 4.155058 0.102000
v 2.929000 4.155058 0.102000
v 2.891000 4.155058 0.002000
v 2.891000 4.100059 0.002000
v 2.891000 4.100059 0.102000
v 2.891000 4.155058 0.102000
v 2.812500 4.117558 0.002000
v 2.812500 4.197558 0.002000
v 2.877500 4.197558 0.002000
v 2.877500 4.117558 0.002000
v 2.812500 4.117558 0.052000
v 2.877500 4.117558 0.052000
v 2.877500 4.197558 0.052000
v 2.812500 4.197558 0.052000
v 2.812500 4.117558 0.002000
v 2.877500 4.117558 0.002000
v 2.877500 4.117558 0.052000
v 2.812500 4.117558 0.052000
v 2.877500 4.117558 0.002000
v 2.877500 4.197558 0.002000
v 2.877500 4.197558 0.052000
v 2.877500 4.117558 0.052000
v 2.877500 4.197558 0.002000
v 2.812500 4.197558 0.002000
v 2.812500 4.197558 0.052000
v 2.877500 4.197558 0.052000
v 2.812500 4.197558 0.002000
v 2.812500 4.117558 0.002000
v 2.812500 4.117558 0.052000
v 2.812500 4.197558 0.052000
vn 0.000000 0.000000 -1.000000
vn 0.000000 0.000000 -1.000000
vn 0.000000 0.000000 -1.000000
vn 0.000000 0.000000 -1.000000
vn 0.000000 0.000000 1.000000
vn 0.000000 0.000000 1.000000
vn 0.000000 0.000000 1.000000
vn 0.000000 0.000000 1.000000
vn 0.000000 -1.000000 0.000000
vn 0.000000 -1.000000 0.000000
vn 0.000000 -1.000000 0.000000
vn 0.000000 -1.000000 0.000000
vn 1.000000 0.000000 0.000000
vn 1.000000 0.000000 0.000000
vn 1.000000 0.000000 0.000000
vn 1.000000 0.000000 0.000000
vn 0.000000 1.000000 0.000000
vn 0.000000 1.000000 0.000000
vn 0.000000 1.000000 0.000000
vn 0.000000 1.000000 0.000000
vn -1.000000 0.000000 0.000000
vn -1.000000 0.000000 0.000000
vn -1.000000 0.000000 0.000000
vn -1.000000 0.000000 0.000000
vn -0.188924 0.981690 -0.024352
vn -0.944903 0.327325 -0.004060
vn -0.755871 -0.654607 -0.012179
vn 0.188955 -0.981851 -0.016237
vn 0.944841 -0.327303 -0.012179
vn 0.755921 0.654650 -0.004060
vn 0.188924 0.981690 0.024352
vn -0.755921 0.654650 0.004060
vn -0.944841 -0.327303 0.012179
vn -0.188955 -0.981851 0.016237
vn 0.755871 -0.654607 0.012179
vn 0.944903 0.327325 0.004060
vn 0.000000 0.000000 -1.000000
vn 0.000000 0.000000 -1.000000
vn 0.000000 0.000000 -1.000000
vn 0.000000 0.000000 -1.000000
vn 0.000000 0.000000 1.000000
vn 0.000000 0.000000 1.000000
vn 0.000000 0.000000 1.000000
vn 0.000000 0.000000 1.000000
vn 0.000000 -1.000000 0.000000
vn 0.000000 -1.000000 0.000000
vn 0.000000 -1.000000 0.000000
vn 0.000000 -1.000000 0.000000
vn 1.000000 0.000000 0.000000
vn 1.000000 0.000000 0.000000
vn 1.000000 0.000000 0.000000
vn 1.000000 0.000000 0.000000
vn 0.000000 1.000000 0.000000
vn 0.000000 1.000000 0.000000
vn 0.000000 1.000000 0.000000
vn 0.000000 1.000000 0.000000
vn -1.000000 0.000000 0.000000
vn -1.000000 0.000000 0.000000
vn -1.000000 0.000000 0.000000
vn -1.000000 0.000000 0.000000
vn -0.188913 0.981692 -0.024352
vn -0.944903 0.327325 -0.004060
vn -0.755873 -0.654604 -0.012179
vn 0.188955 -0.981851 -0.016237
vn 0.944842 -0.327299 -0.012179
vn 0.755914 0.654659 -0.004060
vn 0.188913 0.981692 0.024352
vn -0.755914 0.654659 0.004060
vn -0.944842 -0.327299 0.012179
vn -0.188955 -0.981851 0.016237
vn 0.755873 -0.654604 0.012179
vn 0.944903 0.327325 0.004060
vn 0.000000 0.000000 -1.000000
vn 0.000000 0.000000 -1.000000
vn 0.000000 0.000000 -1.000000
vn 0.000000 0.000000 -1.000000
vn 0.000000 0.000000 1.000000
vn 0.000000 0.000000 1.000000
vn 0.000000 0.000000 1.000000
vn 0.000000 0.000000 1.000000
vn 0.000000 -1.000000 0.000000
vn 0.000000 -1.000000 0.000000
vn 0.000000 -1.000000 0.000000
vn 0.000000 -1.000000 0.000000
vn 1.000000 0.000000 0.000000
vn 1.000000 0.000000 0.000000
vn 1.000000 0.000000 0.000000
vn 1.000000 0.000000 0.000000
vn 0.000000 1.000000 0.000000
vn 0.000000 1.000000 0.000000
vn 0.000000 1.000000 0.000000
vn 0.000000 1.000000 0.000000
vn -1.000000 0.000000 0.000000
vn -1.000000 0.000000 0.000000
vn -1.000000 0.000000 0.000000
vn -1.000000 0.000000 0.000000
vn -0.188935 0.981688 -0.024352
vn -0.944903 0.327325 -0.004060
vn -0.755878 -0.654599 -0.012179
vn 0.188966 -0.981849 -0.016238
vn 0.944841 -0.327303 -0.012179
vn 0.755928 0.654642 -0.004060
vn 0.188935 0.981688 0.024352
vn -0.755928 0.654642 0.004060
vn -0.944841 -0.327303 0.012179
vn -0.188966 -0.981849 0.016238
vn 0.755878 -0.654599 0.012179
vn 0.944903 0.327325 0.004060
vn 0.000000 0.000000 -1.000000
vn 0.000000 0.000000 -1.000000
vn 0.000000 0.000000 -1.000000
vn 0.000000 0.000000 -1.000000
vn 0.000000 0.000000 1.000000
vn 0.000000 0.000000 1.000000
vn 0.000000 0.000000 1.000000
vn 0.000000 0.000000 1.000000
vn 0.000000 -1.000000 0.000000
vn 0.000000 -1.000000 0.000000
vn 0.000000 -1.000000 0.000000
vn 0.000000 -1.000000 0.000000
vn 1.000000 0.000000 0.000000
vn 1.000000 0.000000 0.000000
vn 1.000000 0.000000 0.000000
vn 1.000000 0.000000 0.000000
vn 0.000000 1.000000 0.000000
vn 0.000000 1.000000 0.000000
vn 0.000000 1.000000 0.000000
vn 0.000000 1.000000 0.000000
vn -1.000000 0.000000 0.000000
vn -1.000000 0.000000 0.000000
vn -1.000000 0.000000 0.000000
vn -1.000000 0.000000 0.000000
vn -0.188924 0.981690 -0.024352
vn -0.944903 0.327325 -0.004060
vn -0.755871 -0.654607 -0.012179
vn 0.188955 -0.981851 -0.016237
vn 0.944841 -0.327303 -0.012179
vn 0.755921 0.654650 -0.004060
vn 0.188924 0.981690 0.024352
vn -0.755921 0.654650 0.004060
vn -0.944841 -0.327303 0.012179
vn -0.188955 -0.981851 0.016237
vn 0.755871 -0.654607 0.012179
vn 0.944903 0.327325 0.004060
vn 0.000000 0.000000 -1.000000
vn 0.000000 0.000000 -1.000000
vn 0.000000 0.000000 -1.000000
vn 0.000000 0.000000 -1.000000
vn 0.000000 0.000000 1.000000
vn 0.000000 0.000000 1.000000
vn 0.000000 0.000000 1.000000
vn 0.000000 0.000000 1.000000
vn 0.000000 -1.000000 0.000000
vn 0.000000 -1.000000 0.000000
vn 0.000000 -1.000000 0.000000
vn 0.000000 -1.000000 0.000000
vn 1.000000 0.000000 0.000000
vn 1.000000 0.000000 0.000000
vn 1.000000 0.000000 0.000000
vn 1.000000 0.000000 0.000000
vn 0.000000 1.000000 0.000000
vn 0.000000 1.000000 0.000000
vn 0.000000 1.000000 0.000000
vn 0.000000 1.000000 0.000000
vn -1.000000 0.000000 0.000000
vn -1.000000 0.000000 0.000000
vn -1.000000 0.000000 0.000000
vn -1.000000 0.000000 0.000000
vn -0.188935 0.981688 -0.024352
vn -0.944903 0.327325 -0.004060
vn -0.755869 -0.654610 -0.012179
vn 0.188955 -0.981851 -0.016237
vn 0.944840 -0.327306 -0.012179
vn 0.755928 0.654642 -0.004060
vn 0.188935 0.981688 0.024352
vn -0.755928 0.654642 0.004060
vn -0.944840 -0.327306 0.012179
vn -0.188955 -0.981851 0.016237
vn 0.755869 -0.654610 0.012179
vn 0.944903 0.327325 0.004060
vn 0.000000 0.000000 -1.000000
vn 0.000000 0.000000 -1.000000
vn 0.000000 0.000000 -1.000000
vn 0.000000 0.000000 -1.000000
vn 0.000000 0.000000 1.000000
vn 0.000000 0.000000 1.000000
vn 0.000000 0.000000 1.000000
vn 0.000000 0.000000 1.000000
vn 0.000000 -1.000000 0.000000
vn 0.000000 -1.000000 0.000000
vn 0.000000 -1.000000 0.000000
vn 0.000000 -1.000000 0.000000
vn 1.000000 0.000000 0.000000
vn 1.000000 0.000000 0.000000
vn 1.000000 0.000000 0.000000
vn 1.000000 0.000000 0.000000
vn 0.000000 1.000000 0.000000
vn 0.000000 1.000000 0.000000
vn 0.000000 1.000000 0.000000
vn 0.000000 1.000000 0.000000
vn -1.000000 0.000000 0.000000
vn -1.000000 0.000000 0.000000
vn -1.000000 0.000000 0.000000
vn -1.000000 0.000000 0.000000
vn -0.188935 0.981688 -0.024352
vn -0.944903 0.327325 -0.004060
vn -0.755878 -0.654599 -0.012179
vn 0.188966 -0.981849 -0.016238
vn 0.944841 -0.327303 -0.012179
vn 0.755928 0.654642 -0.004060
vn 0.188935 0.981688 0.024352
vn -0.755928 0.654642 0.004060
vn -0.944841 -0.327303 0.012179
vn -0.188966 -0.981849 0.016238
vn 0.755878 -0.654599 0.012179
vn 0.944903 0.327325 0.004060
vn 0.000000 0.000000 -1.000000
vn 0.000000 0.000000 -1.000000
vn 0.000000 0.000000 -1.000000
vn 0.000000 0.000000 -1.000000
vn 0.000000 0.000000 1.000000
vn 0.000000 0.000000 1.000000
vn 0.000000 0.000000 1.000000
vn 0.000000 0.000000 1.000000
vn 0.000000 -1.000000 0.000000
vn 0.000000 -1.000000 0.000000
vn 0.000000 -1.000000 0.000000
vn 0.000000 -1.000000 0.000000
vn 1.000000 0.000000 0.000000
vn 1.000000 0.000000 0.000000
vn 1.000000 0.000000 0.000000
vn 1.000000 0.000000 0.000000
vn 0.000000 1.000000 0.000000
vn 0.000000 1.000000 0.000000
vn 0.000000 1.000000 0.000000
vn 0.000000 1.000000 0.000000
vn -1.000000 0.000000 0.000000
vn -1.000000 0.000000 0.000000
vn -1.000000 0.000000 0.000000
vn -1.000000 0.000000 0.000000
vn -0.188922 0.981690 -0.024352
vn -0.944900 0.327335 -0.004060
vn -0.755860 -0.654620 -0.012179
vn 0.188957 -0.981851 -0.016237
vn 0.944844 -0.327293 -0.012178
vn 0.755932 0.654638 -0.004060
vn 0.188926 0.981689 0.024352
vn -0.755910 0.654663 0.004060
vn -0.944838 -0.327313 0.012179
vn -0.188953 -0.981852 0.016237
vn 0.755882 -0.654594 0.012178
vn 0.944907 0.327314 0.004060
vn 0.000000 0.000000 -1.000000
vn 0.000000 0.000000 -1.000000
vn 0.000000 0.000000 -1.000000
vn 0.000000 0.000000 -1.000000
vn 0.000000 0.000000 1.000000
vn 0.000000 0.000000 1.000000
vn 0.000000 0.000000 1.000000
vn 0.000000 0.000000 1.000000
vn 0.000000 -1.000000 0.000000
vn 0.000000 -1.000000 0.000000
vn 0.000000 -1.000000 0.000000
vn 0.000000 -1.000000 0.000000
vn 1.000000 0.000000 0.000000
vn 1.000000 0.000000 0.000000
vn 1.000000 0.000000 0.000000
vn 1.000000 0.000000 0.000000
vn 0.000000 1.000000 0.000000
vn 0.000000 1.000000 0.000000
vn 0.000000 1.000000 0.000000
vn 0.000000 1.000000 0.000000
vn -1.000000 0.000000 0.000000
vn -1.000000 0.000000 0.000000
vn -1.000000 0.000000 0.000000
vn -1.000000 0.000000 0.000000
vn -0.188911 0.981692 -0.024352
vn -0.944900 0.327335 -0.004060
vn -0.755862 -0.654617 -0.012179
vn 0.188957 -0.981851 -0.016237
vn 0.944846 -0.327289 -0.012178
vn 0.755925 0.654646 -0.004060
vn 0.188915 0.981691 0.024352
vn -0.755902 0.654672 0.004060
vn -0.944839 -0.327310 0.012179
vn -0.188953 -0.981852 0.016237
vn 0.755885 -0.654592 0.012178
vn 0.944907 0.327314 0.004060
vn 0.000000 0.000000 -1.000000
vn 0.000000 0.000000 -1.000000
vn 0.000000 0.000000 -1.000000
vn 0.000000 0.000000 -1.000000
vn 0.000000 0.000000 1.000000
vn 0.000000 0.000000 1.000000
vn 0.000000 0.000000 1.000000
vn 0.000000 0.000000 1.000000
vn 0.000000 -1.000000 0.000000
vn 0.000000 -1.000000 0.000000
vn 0.000000 -1.000000 0.000000
vn 0.000000 -1.000000 0.000000
vn 1.000000 0.000000 0.000000
vn 1.000000 0.000000 0.000000
vn 1.000000 0.000000 0.000000
vn 1.000000 0.000000 0.000000
vn 0.000000 1.000000 0.000000
vn 0.000000 1.000000 0.000000
vn 0.000000 1.000000 0.000000
vn 0.000000 1.000000 0.000000
vn -1.000000 0.000000 0.000000
vn -1.000000 0.000000 0.000000
vn -1.000000 0.000000 0.000000
vn -1.000000 0.000000 0.000000
vn -0.188933 0.981688 -0.024352
vn -0.944900 0.327335 -0.004060
vn -0.755867 -0.654612 -0.012179
vn 0.188968 -0.981849 -0.016238
vn 0.944844 -0.327293 -0.012178
vn 0.755939 0.654629 -0.004060
vn 0.188937 0.981687 0.024352
vn -0.755917 0.654655 0.004060
vn -0.944838 -0.327313 0.012179
vn -0.188964 -0.981850 0.016237
vn 0.755889 -0.654586 0.012178
vn 0.944907 0.327314 0.004060
vn 0.000000 0.000000 -1.000000
vn 0.000000 0.000000 -1.000000
vn 0.000000 0.000000 -1.000000
vn 0.000000 0.000000 -1.000000
vn 0.000000 0.000000 1.000000
vn 0.000000 0.000000 1.000000
vn 0.000000 0.000000 1.000000
vn 0.000000 0.000000 1.000000
vn 0.000000 -1.000000 0.000000
vn 0.000000 -1.000000 0.000000
vn 0.000000 -1.000000 0.000000
vn 0.000000 -1.000000 0.000000
vn 1.000000 0.000000 0.000000
vn 1.000000 0.000000 0.000000
vn 1.000000 0.000000 0.000000
vn 1.000000 0.000000 0.000000
vn 0.000000 1.000000 0.000000
vn 0.000000 1.000000 0.000000
vn 0.000000 1.000000 0.000000
vn 0.000000 1.000000 0.000000
vn -1.000000 0.000000 0.000000
vn -1.000000 0.000000 0.000000
vn -1.000000 0.000000 0.000000
vn -1.000000 0.000000 0.000000
vn -0.188931 0.981688 -0.024352
vn -0.944907 0.327313 -0.004060
vn -0.755882 -0.654594 -0.012179
vn 0.188953 -0.981852 -0.016237
vn 0.944838 -0.327313 -0.012179
vn 0.755915 0.654658 -0.004060
vn 0.188927 0.981689 0.024352
vn -0.755937 0.654632 0.004060
vn -0.944844 -0.327293 0.012178
vn -0.188957 -0.981851 0.016238
vn 0.755860 -0.654620 0.012179
vn 0.944900 0.327333 0.004060
vn 0.000000 0.000000 -1.000000
vn 0.000000 0.000000 -1.000000
vn 0.000000 0.000000 -1.000000
vn 0.000000 0.000000 -1.000000
vn 0.000000 0.000000 1.000000
vn 0.000000 0.000000 1.000000
vn 0.000000 0.000000 1.000000
vn 0.000000 0.000000 1.000000
vn 0.000000 -1.000000 0.000000
vn 0.000000 -1.000000 0.000000
vn 0.000000 -1.000000 0.000000
vn 0.000000 -1.000000 0.000000
vn 1.000000 0.000000 0.000000
vn 1.000000 0.000000 0.000000
vn 1.000000 0.000000 0.000000
vn 1.000000 0.000000 0.000000
vn 0.000000 1.000000 0.000000
vn 0.000000 1.000000 0.000000
vn 0.000000 1.000000 0.000000
vn 0.000000 1.000000 0.000000
vn -1.000000 0.000000 0.000000
vn -1.000000 0.000000 0.000000
vn -1.000000 0.000000 0.000000
vn -1.000000 0.000000 0.000000
vn -0.188926 0.981689 -0.024352
vn -0.944908 0.327311 -0.004060
vn -0.755885 -0.654592 -0.012179
vn 0.188953 -0.981852 -0.016237
vn 0.944839 -0.327310 -0.012179
vn 0.755912 0.654661 -0.004060
vn 0.188922 0.981690 0.024352
vn -0.755934 0.654635 0.004060
vn -0.944846 -0.327289 0.012178
vn -0.188957 -0.981851 0.016238
vn 0.755862 -0.654617 0.012179
vn 0.944901 0.327331 0.004060
vn 0.000000 0.000000 -1.000000
vn 0.000000 0.000000 -1.000000
vn 0.000000 0.000000 -1.000000
vn 0.000000 0.000000 -1.000000
vn 0.000000 0.000000 1.000000
vn 0.000000 0.000000 1.000000
vn 0.000000 0.000000 1.000000
vn 0.000000 0.000000 1.000000
vn 0.000000 -1.000000 0.000000
vn 0.000000 -1.000000 0.000000
vn 0.000000 -1.000000 0.000000
vn 0.000000 -1.000000 0.000000
vn 1.000000 0.000000 0.000000
vn 1.000000 0.000000 0.000000
vn 1.000000 0.000000 0.000000
vn 1.000000 0.000000 0.000000
vn 0.000000 1.000000 0.000000
vn 0.000000 1.000000 0.000000
vn 0.000000 1.000000 0.000000
vn 0.000000 1.000000 0.000000
vn -1.000000 0.000000 0.000000
vn -1.000000 0.000000 0.000000
vn -1.000000 0.000000 0.000000
vn -1.000000 0.000000 0.000000
vn -0.188937 0.981687 -0.024352
vn -0.944907 0.327314 -0.004060
vn -0.755889 -0.654586 -0.012178
vn 0.188964 -0.981850 -0.016237
vn 0.944838 -0.327313 -0.012179
vn 0.755917 0.654655 -0.004060
vn 0.188933 0.981688 0.024352
vn -0.755939 0.654629 0.004060
vn -0.944844 -0.327293 0.012178
vn -0.188968 -0.981849 0.016238
vn 0.755867 -0.654612 0.012179
vn 0.944900 0.327335 0.004060
vn 0.000000 0.000000 -1.000000
vn 0.000000 0.000000 -1.000000
vn 0.000000 0.000000 -1.000000
vn 0.000000 0.000000 -1.000000
vn 0.000000 0.000000 1.000000
vn 0.000000 0.000000 1.000000
vn 0.000000 0.000000 1.000000
vn 0.000000 0.000000 1.000000
vn 0.000000 -1.000000 0.000000
vn 0.000000 -1.000000 0.000000
vn 0.000000 -1.000000 0.000000
vn 0.000000 -1.000000 0.000000
vn 1.000000 0.000000 0.000000
vn 1.000000 0.000000 0.000000
vn 1.000000 0.000000 0.000000
vn 1.000000 0.000000 0.000000
vn 0.000000 1.000000 0.000000
vn 0.000000 1.000000 0.000000
vn 0.000000 1.000000 0.000000
vn 0.000000 1.000000 0.000000
vn -1.000000 0.000000 0.000000
vn -1.000000 0.000000 0.000000
vn -1.000000 0.000000 0.000000
vn -1.000000 0.000000 0.000000
vn -0.188956 0.981683 -0.024352
vn -0.944901 0.327331 -0.004060
vn -0.755888 -0.654588 -0.012178
vn 0.188987 -0.981845 -0.016238
vn 0.944839 -0.327310 -0.012179
vn 0.755938 0.654631 -0.004059
vn 0.188956 0.981683 0.024352
vn -0.755938 0.654631 0.004059
vn -0.944839 -0.327310 0.012179
vn -0.188987 -0.981845 0.016238
vn 0.755888 -0.654588 0.012178
vn 0.944901 0.327331 0.004060
vn 0.000000 0.000000 -1.000000
vn 0.000000 0.000000 -1.000000
vn 0.000000 0.000000 -1.000000
vn 0.000000 0.000000 -1.000000
vn 0.000000 0.000000 1.000000
vn 0.000000 0.000000 1.000000
vn 0.000000 0.000000 1.000000
vn 0.000000 0.000000 1.000000
vn 0.000000 -1.000000 0.000000
vn 0.000000 -1.000000 0.000000
vn 0.000000 -1.000000 0.000000
vn 0.000000 -1.000000 0.000000
vn 1.000000 0.000000 0.000000
vn 1.000000 0.000000 0.000000
vn 1.000000 0.000000 0.000000
vn 1.000000 0.000000 0.000000
vn 0.000000 1.000000 0.000000
vn 0.000000 1.000000 0.000000
vn 0.000000 1.000000 0.000000
vn 0.000000 1.000000 0.000000
vn -1.000000 0.000000 0.000000
vn -1.000000 0.000000 0.000000
vn -1.000000 0.000000 0.000000
vn -1.000000 0.000000 0.000000
vn -0.188954 0.981684 -0.024352
vn -0.944897 0.327342 -0.004060
vn -0.755877 -0.654601 -0.012179
vn 0.188990 -0.981845 -0.016238
vn 0.944842 -0.327300 -0.012179
vn 0.755949 0.654618 -0.004059
vn 0.188958 0.981683 0.024352
vn -0.755927 0.654644 0.004060
vn -0.944835 -0.327320 0.012179
vn -0.188985 -0.981846 0.016238
vn 0.755899 -0.654575 0.012178
vn 0.944904 0.327321 0.004060
vn 0.000000 0.000000 -1.000000
vn 0.000000 0.000000 -1.000000
vn 0.000000 0.000000 -1.000000
vn 0.000000 0.000000 -1.000000
vn 0.000000 0.000000 1.000000
vn 0.000000 0.000000 1.000000
vn 0.000000 0.000000 1.000000
vn 0.000000 0.000000 1.000000
vn 0.000000 -1.000000 0.000000
vn 0.000000 -1.000000 0.000000
vn 0.000000 -1.000000 0.000000
vn 0.000000 -1.000000 0.000000
vn 1.000000 0.000000 0.000000
vn 1.000000 0.000000 0.000000
vn 1.000000 0.000000 0.000000
vn 1.000000 0.000000 0.000000
vn 0.000000 1.000000 0.000000
vn 0.000000 1.000000 0.000000
vn 0.000000 1.000000 0.000000
vn 0.000000 1.000000 0.000000
vn -1.000000 0.000000 0.000000
vn -1.000000 0.000000 0.000000
vn -1.000000 0.000000 0.000000
vn -1.000000 0.000000 0.000000
vn -0.188956 0.981683 -0.024352
vn -0.944901 0.327331 -0.004060
vn -0.755888 -0.654588 -0.012178
vn 0.188987 -0.981845 -0.016238
vn 0.944839 -0.327310 -0.012179
vn 0.755938 0.654631 -0.004059
vn 0.188956 0.981683 0.024352
vn -0.755938 0.654631 0.004059
vn -0.944839 -0.327310 0.012179
vn -0.188987 -0.981845 0.016238
vn 0.755888 -0.654588 0.012178
vn 0.944901 0.327331 0.004060
vn -0.136501 0.988617 -0.063272
vn -0.797169 0.603738 -0.004642
vn -0.990478 -0.136755 -0.015848
vn -0.603532 -0.796880 -0.027047
vn 0.136707 -0.990105 -0.031684
vn 0.796885 -0.603525 -0.027047
vn 0.990478 0.136755 -0.015848
vn 0.603744 0.797165 -0.004642
vn 0.136501 0.988617 0.063272
vn -0.603746 0.797163 0.004642
vn -0.990478 0.136755 0.015848
vn -0.796886 -0.603524 0.027047
vn -0.136707 -0.990105 0.031684
vn 0.603529 -0.796882 0.027047
vn 0.990478 -0.136755 0.015848
vn 0.797168 0.603740 0.004642
vn -0.136501 0.988617 -0.063272
vn -0.797166 0.603743 -0.004642
vn -0.990478 -0.136758 -0.015848
vn -0.603528 -0.796883 -0.027047
vn 0.136706 -0.990105 -0.031684
vn 0.796883 -0.603528 -0.027047
vn 0.990478 0.136758 -0.015848
vn 0.603743 0.797166 -0.004642
vn 0.136501 0.988617 0.063272
vn -0.603743 0.797166 0.004642
vn -0.990478 0.136758 0.015848
vn -0.796883 -0.603528 0.027047
vn -0.136706 -0.990105 0.031684
vn 0.603528 -0.796883 0.027047
vn 0.990478 -0.136758 0.015848
vn 0.797166 0.603743 0.004642
vn -0.136501 0.988617 -0.063272
vn -0.797166 0.603743 -0.004642
vn -0.990478 -0.136758 -0.015848
vn -0.603528 -0.796883 -0.027047
vn 0.136706 -0.990105 -0.031684
vn 0.796883 -0.603528 -0.027047
vn 0.990478 0.136758 -0.015848
vn 0.603743 0.797166 -0.004642
vn 0.136501 0.988617 0.063272
vn -0.603743 0.797166 0.004642
vn -0.990478 0.136758 0.015848
vn -0.796883 -0.603528 0.027047
vn -0.136706 -0.990105 0.031684
vn 0.603528 -0.796883 0.027047
vn 0.990478 -0.136758 0.015848
vn 0.797166 0.603743 0.004642
vn -0.136503 0.988617 -0.063272
vn -0.797166 0.603743 -0.004642
vn -0.990478 -0.136758 -0.015848
vn -0.603528 -0.796883 -0.027047
vn 0.136711 -0.990104 -0.031684
vn 0.796892 -0.603516 -0.027046
vn 0.990478 0.136758 -0.015847
vn 0.603760 0.797152 -0.004642
vn 0.136506 0.988617 0.063273
vn -0.603743 0.797166 0.004642
vn -0.990478 0.136758 0.015848
vn -0.796883 -0.603528 0.027047
vn -0.136709 -0.990104 0.031683
vn 0.603546 -0.796869 0.027047
vn 0.990478 -0.136758 0.015847
vn 0.797175 0.603731 0.004642
vn -0.136501 0.988617 -0.063272
vn -0.797169 0.603738 -0.004642
vn -0.990478 -0.136755 -0.015848
vn -0.603532 -0.796880 -0.027047
vn 0.136707 -0.990105 -0.031684
vn 0.796885 -0.603525 -0.027047
vn 0.990478 0.136755 -0.015848
vn 0.603744 0.797165 -0.004642
vn 0.136501 0.988617 0.063272
vn -0.603746 0.797163 0.004642
vn -0.990478 0.136755 0.015848
vn -0.796886 -0.603524 0.027047
vn -0.136707 -0.990105 0.031684
vn 0.603529 -0.796882 0.027047
vn 0.990478 -0.136755 0.015848
vn 0.797168 0.603740 0.004642
vn -0.136503 0.988617 -0.063272
vn -0.797166 0.603743 -0.004642
vn -0.990478 -0.136758 -0.015848
vn -0.603528 -0.796883 -0.027047
vn 0.136711 -0.990104 -0.031684
vn 0.796892 -0.603516 -0.027046
vn 0.990478 0.136758 -0.015847
vn 0.603760 0.797152 -0.004642
vn 0.136506 0.988617 0.063273
vn -0.603743 0.797166 0.004642
vn -0.990478 0.136758 0.015848
vn -0.796883 -0.603528 0.027047
vn -0.136709 -0.990104 0.031683
vn 0.603546 -0.796869 0.027047
vn 0.990478 -0.136758 0.015847
vn 0.797175 0.603731 0.004642
vn -0.136501 0.988617 -0.063272
vn -0.797168 0.603740 -0.004642
vn -0.990478 -0.136755 -0.015848
vn -0.603529 -0.796882 -0.027047
vn 0.136707 -0.990105 -0.031684
vn 0.796886 -0.603524 -0.027047
vn 0.990478 0.136755 -0.015848
vn 0.603746 0.797163 -0.004642
vn 0.136501 0.988617 0.063272
vn -0.603744 0.797165 0.004642
vn -0.990478 0.136755 0.015848
vn -0.796885 -0.603525 0.027047
vn -0.136707 -0.990105 0.031684
vn 0.603532 -0.796880 0.027047
vn 0.990478 -0.136755 0.015848
vn 0.797169 0.603738 0.004642
vn -0.136501 0.988617 -0.063272
vn -0.797166 0.603743 -0.004642
vn -0.990478 -0.136758 -0.015848
vn -0.603528 -0.796883 -0.027047
vn 0.136706 -0.990105 -0.031684
vn 0.796883 -0.603528 -0.027047
vn 0.990478 0.136758 -0.015848
vn 0.603743 0.797166 -0.004642
vn 0.136501 0.988617 0.063272
vn -0.603743 0.797166 0.004642
vn -0.990478 0.136758 0.015848
vn -0.796883 -0.603528 0.027047
vn -0.136706 -0.990105 0.031684
vn 0.603528 -0.796883 0.027047
vn 0.990478 -0.136758 0.015848
vn 0.797166 0.603743 0.004642
vn 0.000000 0.000000 -1.000000
vn 0.000000 0.000000 -1.000000
vn 0.000000 0.000000 -1.000000
vn 0.000000 0.000000 -1.000000
vn 0.000000 0.000000 1.000000
vn 0.000000 0.000000 1.000000
vn 0.000000 0.000000 1.000000
vn 0.000000 0.000000 1.000000
vn 0.000000 -1.000000 0.000000
vn 0.000000 -1.000000 0.000000
vn 0.000000 -1.000000 0.000000
vn 0.000000 -1.000000 0.000000
vn 1.000000 0.000000 0.000000
vn 1.000000 0.000000 0.000000
vn 1.000000 0.000000 0.000000
vn 1.000000 0.000000 0.000000
vn 0.000000 1.000000 0.000000
vn 0.000000 1.000000 0.000000
vn 0.000000 1.000000 0.000000
vn 0.000000 1.000000 0.000000
vn -1.000000 0.000000 0.000000
vn -1.000000 0.000000 0.000000
vn -1.000000 0.000000 0.000000
vn -1.000000 0.000000 0.000000
vn 0.000000 0.000000 -1.000000
vn 0.000000 0.000000 -1.000000
vn 0.000000 0.000000 -1.000000
vn 0.000000 0.000000 -1.000000
vn 0.000000 0.000000 1.000000
vn 0.000000 0.000000 1.000000
vn 0.000000 0.000000 1.000000
vn 0.000000 0.000000 1.000000
vn 0.000000 -1.000000 0.000000
vn 0.000000 -1.000000 0.000000
vn 0.000000 -1.000000 0.000000
vn 0.000000 -1.000000 0.000000
vn 1.000000 0.000000 0.000000
vn 1.000000 0.000000 0.000000
vn 1.000000 0.000000 0.000000
vn 1.000000 0.000000 0.000000
vn 0.000000 1.000000 0.000000
vn 0.000000 1.000000 0.000000
vn 0.000000 1.000000 0.000000
vn 0.000000 1.000000 0.000000
vn -1.000000 0.000000 0.000000
vn -1.000000 0.000000 0.000000
vn -1.000000 0.000000 0.000000
vn -1.000000 0.000000 0.000000
vn 0.000000 0.000000 -1.000000
vn 0.000000 0.000000 -1.000000
vn 0.000000 0.000000 -1.000000
vn 0.000000 0.000000 -1.000000
vn 0.000000 0.000000 1.000000
vn 0.000000 0.000000 1.000000
vn 0.000000 0.000000 1.000000
vn 0.000000 0.000000 1.000000
vn 0.000000 -1.000000 0.000000
vn 0.000000 -1.000000 0.000000
vn 0.000000 -1.000000 0.000000
vn 0.000000 -1.000000 0.000000
vn 1.000000 0.000000 0.000000
vn 1.000000 0.000000 0.000000
vn 1.000000 0.000000 0.000000
vn 1.000000 0.000000 0.000000
vn 0.000000 1.000000 0.000000
vn 0.000000 1.000000 0.000000
vn 0.000000 1.000000 0.000000
vn 0.000000 1.000000 0.000000
vn -1.000000 0.000000 0.000000
vn -1.000000 0.000000 0.000000
vn -1.000000 0.000000 0.000000
vn -1.000000 0.000000 0.000000
vn 0.000000 0.000000 -1.000000
vn 0.000000 0.000000 -1.000000
vn 0.000000 0.000000 -1.000000
vn 0.000000 0.000000 -1.000000
vn 0.000000 0.000000 1.000000
vn 0.000000 0.000000 1.000000
vn 0.000000 0.000000 1.000000
vn 0.000000 0.000000 1.000000
vn 0.000000 -1.000000 0.000000
vn 0.000000 -1.000000 0.000000
vn 0.000000 -1.000000 0.000000
vn 0.000000 -1.000000 0.000000
vn 1.000000 0.000000 0.000000
vn 1.000000 0.000000 0.000000
vn 1.000000 0.000000 0.000000
vn 1.000000 0.000000 0.000000
vn 0.000000 1.000000 0.000000
vn 0.000000 1.000000 0.000000
vn 0.000000 1.000000 0.000000
vn 0.000000 1.000000 0.000000
vn -1.000000 0.000000 0.000000
vn -1.000000 0.000000 0.000000
vn -1.000000 0.000000 0.000000
vn -1.000000 0.000000 0.000000
vn 0.000000 0.000000 -1.000000
vn 0.000000 0.000000 -1.000000
vn 0.000000 0.000000 -1.000000
vn 0.000000 0.000000 -1.000000
vn 0.000000 0.000000 1.000000
vn 0.000000 0.000000 1.000000
vn 0.000000 0.000000 1.000000
vn 0.000000 0.000000 1.000000
vn 0.000000 -1.000000 0.000000
vn 0.000000 -1.000000 0.000000
vn 0.000000 -1.000000 0.000000
vn 0.000000 -1.000000 0.000000
vn 1.000000 0.000000 0.000000
vn 1.000000 0.000000 0.000000
vn 1.000000 0.000000 0.000000
vn 1.000000 0.000000 0.000000
vn 0.000000 1.000000 0.000000
vn 0.000000 1.000000 0.000000
vn 0.000000 1.000000 0.000000
vn 0.000000 1.000000 0.000000
vn -1.000000 0.000000 0.000000
vn -1.000000 0.000000 0.000000
vn -1.000000 0.000000 0.000000
vn -1.000000 0.000000 0.000000
vn 0.000000 0.000000 -1.000000
vn 0.000000 0.000000 -1.000000
vn 0.000000 0.000000 -1.000000
vn 0.000000 0.000000 -1.000000
vn 0.000000 0.000000 1.000000
vn 0.000000 0.000000 1.000000
vn 0.000000 0.000000 1.000000
vn 0.000000 0.000000 1.000000
vn 0.000000 -1.000000 0.000000
vn 0.000000 -1.000000 0.000000
vn 0.000000 -1.000000 0.000000
vn 0.000000 -1.000000 0.000000
vn 1.000000 0.000000 0.000000
vn 1.000000 0.000000 0.000000
vn 1.000000 0.000000 0.000000
vn 1.000000 0.000000 0.000000
vn 0.000000 1.000000 0.000000
vn 0.000000 1.000000 0.000000
vn 0.000000 1.000000 0.000000
vn 0.000000 1.000000 0.000000
vn -1.000000 0.000000 0.000000
vn -1.000000 0.000000 0.000000
vn -1.000000 0.000000 0.000000
vn -1.000000 0.000000 0.000000
vn 0.000000 0.000000 -1.000000
vn 0.000000 0.000000 -1.000000
vn 0.000000 0.000000 -1.000000
vn 0.000000 0.000000 -1.000000
vn 0.000000 0.000000 1.000000
vn 0.000000 0.000000 1.000000
vn 0.000000 0.000000 1.000000
vn 0.000000 0.000000 1.000000
vn 0.000000 -1.000000 0.000000
vn 0.000000 -1.000000 0.000000
vn 0.000000 -1.000000 0.000000
vn 0.000000 -1.000000 0.000000
vn 1.000000 0.000000 0.000000
vn 1.000000 0.000000 0.000000
vn 1.000000 0.000000 0.000000
vn 1.000000 0.000000 0.000000
vn 0.000000 1.000000 0.000000
vn 0.000000 1.000000 0.000000
vn 0.000000 1.000000 0.000000
vn 0.000000 1.000000 0.000000
vn -1.000000 0.000000 0.000000
vn -1.000000 0.000000 0.000000
vn -1.000000 0.000000 0.000000
vn -1.000000 0.000000 0.000000
vn 0.000000 0.000000 -1.000000
vn 0.000000 0.000000 -1.000000
vn 0.000000 0.000000 -1.000000
vn 0.000000 0.000000 -1.000000
vn 0.000000 0.000000 1.000000
vn 0.000000 0.000000 1.000000
vn 0.000000 0.000000 1.000000
vn 0.000000 0.000000 1.000000
vn 0.000000 -1.000000 0.000000
vn 0.000000 -1.000000 0.000000
vn 0.000000 -1.000000 0.000000
vn 0.000000 -1.000000 0.000000
vn 1.000000 0.000000 0.000000
vn 1.000000 0.000000 0.000000
vn 1.000000 0.000000 0.000000
vn 1.000000 0.000000 0.000000
vn 0.000000 1.000000 0.000000
vn 0.000000 1.000000 0.000000
vn 0.000000 1.000000 0.000000
vn 0.000000 1.000000 0.000000
vn -1.000000 0.000000 0.000000
vn -1.000000 0.000000 0.000000
vn -1.000000 0.000000 0.000000
vn -1.000000 0.000000 0.000000
vn 0.000000 0.000000 -1.000000
vn 0.000000 0.000000 -1.000000
vn 0.000000 0.000000 -1.000000
vn 0.000000 0.000000 -1.000000
vn 0.000000 0.000000 1.000000
vn 0.000000 0.000000 1.000000
vn 0.000000 0.000000 1.000000
vn 0.000000 0.000000 1.000000
vn 0.000000 -1.000000 0.000000
vn 0.000000 -1.000000 0.000000
vn 0.000000 -1.000000 0.000000
vn 0.000000 -1.000000 0.000000
vn 1.000000 0.000000 0.000000
vn 1.000000 0.000000 0.000000
vn 1.000000 0.000000 0.000000
vn 1.000000 0.000000 0.000000
vn 0.000000 1.000000 0.000000
vn 0.000000 1.000000 0.000000
vn 0.000000 1.000000 0.000000
vn 0.000000 1.000000 0.000000
vn -1.000000 0.000000 0.000000
vn -1.000000 0.000000 0.000000
vn -1.000000 0.000000 0.000000
vn -1.000000 0.000000 0.000000
vn 0.000000 0.000000 -1.000000
vn 0.000000 0.000000 -1.000000
vn 0.000000 0.000000 -1.000000
vn 0.000000 0.000000 -1.000000
vn 0.000000 0.000000 1.000000
vn 0.000000 0.000000 1.000000
vn 0.000000 0.000000 1.000000
vn 0.000000 0.000000 1.000000
vn 0.000000 -1.000000 0.000000
vn 0.000000 -1.000000 0.000000
vn 0.000000 -1.000000 0.000000
vn 0.000000 -1.000000 0.000000
vn 1.000000 0.000000 0.000000
vn 1.000000 0.000000 0.000000
vn 1.000000 0.000000 0.000000
vn 1.000000 0.000000 0.000000
vn 0.000000 1.000000 0.000000
vn 0.000000 1.000000 0.000000
vn 0.000000 1.000000 0.000000
vn 0.000000 1.000000 0.000000
vn -1.000000 0.000000 0.000000
vn -1.000000 0.000000 0.000000
vn -1.000000 0.000000 0.000000
vn -1.000000 0.000000 0.000000
f 1//1 2//2 3//3
f 1//1 3//3 4//4
f 5//5 6//6 7//7
f 5//5 7//7 8//8
f 9//9 10//10 11//11
f 9//9 11//11 12//12
f 13//13 14//14 15//15
f 13//13 15//15 16//16
f 17//17 18//18 19//19
f 17//17 19//19 20//20
f 21//21 22//22 23//23
f 21//21 23//23 24//24
f 25//25 26//26 32//32
f 25//25 32//32 31//31
f 26//26 27//27 33//33
f 26//26 33//33 32//32
f 27//27 28//28 34//34
f 27//27 34//34 33//33
f 28//28 29//29 35//35
f 28//28 35//35 34//34
f 29//29 30//30 36//36
f 29//29 36//36 35//35
f 30//30 25//25 31//31
f 30//30 31//31 36//36
f 25//25 27//27 26//26
f 25//25 28//28 27//27
f 25//25 29//29 28//28
f 25//25 30//30 29//29
f 31//31 32//32 33//33
f 31//31 33//33 34//34
f 31//31 34//34 35//35
f 31//31 35//35 36//36
f 37//37 38//38 39//39
f 37//37 39//39 40//40
f 41//41 42//42 43//43
f 41//41 43//43 44//44
f 45//45 46//46 47//47
f 45//45 47//47 48//48
f 49//49 50//50 51//51
f 49//49 51//51 52//52
f 53//53 54//54 55//55
f 53//53 55//55 56//56
f 57//57 58//58 59//59
f 57//57 59//59 60//60
f 61//61 62//62 68//68
f 61//61 68//68 67//67
f 62//62 63//63 69//69
f 62//62 69//69 68//68
f 63//63 64//64 70//70
f 63//63 70//70 69//69
f 64//64 65//65 71//71
f 64//64 71//71 70//70
f 65//65 66//66 72//72
f 65//65 72//72 71//71
f 66//66 61//61 67//67
f 66//66 67//67 72//72
f 61//61 63//63 62//62
f 61//61 64//64 63//63
f 61//61 65//65 64//64
f 61//61 66//66 65//65
f 67//67 68//68 69//69
f 67//67 69//69 70//70
f 67//67 70//70 71//71
f 67//67 71//71 72//72
f 73//73 74//74 75//75
f 73//73 75//75 76//76
f 77//77 78//78 79//79
f 77//77 79//79 80//80
f 81//81 82//82 83//83
f 81//81 83//83 84//84
f 85//85 86//86 87//87
f 85//85 87//87 88//88
f 89//89 90//90 91//91
f 89//89 91//91 92//92
f 93//93 94//94 95//95
f 93//93 95//95 96//96
f 97//97 98//98 104//104
f 97//97 104//104 103//103
f 98//98 99//99 105//105
f 98//98 105//105 104//104
f 99//99 100//100 106//106
f 99//99 106//106 105//105
f 100//100 101//101 107//107
f 100//100 107//107 106//106
f 101//101 102//102 108//108
f 101//101 108//108 107//107
f 102//102 97//97 103//103
f 102//102 103//103 108//108
f 97//97 99//99 98//98
f 97//97 100//100 99//99
f 97//97 101//101 100//100
f 97//97 102//102 101//101
f 103//103 104//104 105//105
f 103//103 105//105 106//106
f 103//103 106//106 107//107
f 103//103 107//107 108//108
f 109//109 110//110 111//111
f 109//109 111//111 112//112
f 113//113 114//114 115//115
f 113//113 115//115 116//116
f 117//117 118//118 119//119
f 117//117 119//119 120//120
f 121//121 122//122 123//123
f 121//121 123//123 124//124
f 125//125 126//126 127//127
f 125//125 127//127 128//128
f 129//129 130//130 131//131
f 129//129 131//131 132//132
f 133//133 134//134 140//140
f 133//133 140//140 139//139
f 134//134 135//135 141//141
f 134//134 141//141 140//140
f 135//135 136//136 142//142
f 135//135 142//142 141//141
f 136//136 137//137 143//143
f 136//136 143//143 142//142
f 137//137 138//138 144//144
f 137//137 144//144 143//143
f 138//138 133//133 139//139
f 138//138 139//139 144//144
f 133//133 135//135 134//134
f 133//133 136//136 135//135
f 133//133 137//137 136//136
f 133//133 138//138 137//137
f 139//139 140//140 141//141
f 139//139 141//141 142//142
f 139//139 142//142 143//143
f 139//139 143//143 144//144
f 145//145 146//146 147//147
f 145//145 147//147 148//148
f 149//149 150//150 151//151
f 149//149 151//151 152//152
f 153//153 154//154 155//155
f 153//153 155//155 156//156
f 157//157 158//158 159//159
f 157//157 159//159 160//160
f 161//161 162//162 163//163
f 161//161 163//163 164//164
f 165//165 166//166 167//167
f 165//165 167//167 168//168
f 169//169 170//170 176//176
f 169//169 176//176 175//175
f 170//170 171//171 177//177
f 170//170 177//177 176//176
f 171//171 172//172 178//178
f 171//171 178//178 177//177
f 172//172 173//173 179//179
f 172//172 179//179 178//178
f 173//173 174//174 180//180
f 173//173 180//180 179//179
f 174//174 169//169 175//175
f 174//174 175//175 180//180
f 169//169 171//171 170//170
f 169//169 172//172 171//171
f 169//169 173//173 172//172
f 169//169 174//174 173//173
f 175//175 176//176 177//177
f 175//175 177//177 178//178
f 175//175 178//178 179//179
f 175//175 179//179 180//180
f 181//181 182//182 183//183
f 181//181 183//183 184//184
f 185//185 186//186 187//187
f 185//185 187//187 188//188
f 189//189 190//190 191//191
f 189//189 191//191 192//192
f 193//193 194//194 195//195
f 193//193 195//195 196//196
f 197//197 198//198 199//199
f 197//197 199//199 200//200
f 201//201 202//202 203//203
f 201//201 203//203 204//204
f 205//205 206//206 212//212
f 205//205 212//212 211//211
f 206//206 207//207 213//213
f 206//206 213//213 212//212
f 207//207 208//208 214//214
f 207//207 214//214 213//213
f 208//208 209//209 215//215
f 208//208 215//215 214//214
f 209//209 210//210 216//216
f 209//209 216//216 215//215
f 210//210 205//205 211//211
f 210//210 211//211 216//216
f 205//205 207//207 206//206
f 205//205 208//208 207//207
f 205//205 209//209 208//208
f 205//205 210//210 209//209
f 211//211 212//212 213//213
f 211//211 213//213 214//214
f 211//211 214//214 215//215
f 211//211 215//215 216//216
f 217//217 218//218 219//219
f 217//217 219//219 220//220
f 221//221 222//222 223//223
f 221//221 223//223 224//224
f 225//225 226//226 227//227
f 225//225 227//227 228//228
f 229//229 230//230 231//231
f 229//229 231//231 232//232
f 233//233 234//234 235//235
f 233//233 235//235 236//236
f 237//237 238//238 239//239
f 237//237 239//239 240//240
f 241//241 242//242 248//248
f 241//241 248//248 247//247
f 242//242 243//243 249//249
f 242//242 249//249 248//248
f 243//243 244//244 250//250
f 243//243 250//250 249//249
f 244//244 245//245 251//251
f 244//244 251//251 250//250
f 245//245 246//246 252//252
f 245//245 252//252 251//251
f 246//246 241//241 247//247
f 246//246 247//247 252//252
f 241//241 243//243 242//242
f 241//241 244//244 243//243
f 241//241 245//245 244//244
f 241//241 246//246 245//245
f 247//247 248//248 249//249
f 247//247 249//249 250//250
f 247//247 250//250 251//251
f 247//247 251//251 252//252
f 253//253 254//254 255//255
f 253//253 255//255 256//256
f 257//257 258//258 259//259
f 257//257 259//259 260//260
f 261//261 262//262 263//263
f 261//261 263//263 264//264
f 265//265 266//266 267//267
f 265//265 267//267 268//268
f 269//269 270//270 271//271
f 269//269 271//271 272//272
f 273//273 274//274 275//275
f 273//273 275//275 276//276
f 277//277 278//278 284//284
f 277//277 284//284 283//283
f 278//278 279//279 285//285
f 278//278 285//285 284//284
f 279//279 280//280 286//286
f 279//279 286//286 285//285
f 280//280 281//281 287//287
f 280//280 287//287 286//286
f 281//281 282//282 288//288
f 281//281 288//288 287//287
f 282//282 277//277 283//283
f 282//282 283//283 288//288
f 277//277 279//279 278//278
f 277//277 280//280 279//279
f 277//277 281//281 280//280
f 277//277 282//282 281//281
f 283//283 284//284 285//285
f 283//283 285//285 286//286
f 283//283 286//286 287//287
f 283//283 287//287 288//288
f 289//289 290//290 291//291
f 289//289 291//291 292//292
f 293//293 294//294 295//295
f 293//293 295//295 296//296
f 297//297 298//298 299//299
f 297//297 299//299 300//300
f 301//301 302//302 303//303
f 301//301 303//303 304//304
f 305//305 306//306 307//307
f 305//305 307//307 308//308
f 309//309 310//310 311//311
f 309//309 311//311 312//312
f 313//313 314//314 320//320
f 313//313 320//320 319//319
f 314//314 315//315 321//321
f 314//314 321//321 320//320
f 315//315 316//316 322//322
f 315//315 322//322 321//321
f 316//316 317//317 323//323
f 316//316 323//323 322//322
f 317//317 318//318 324//324
f 317//317 324//324 323//323
f 318//318 313//313 319//319
f 318//318 319//319 324//324
f 313//313 315//315 314//314
f 313//313 316//316 315//315
f 313//313 317//317 316//316
f 313//313 318//318 317//317
f 319//319 320//320 321//321
f 319//319 321//321 322//322
f 319//319 322//322 323//323
f 319//319 323//323 324//324
f 325//325 326//326 327//327
f 325//325 327//327 328//328
f 329//329 330//330 331//331
f 329//329 331//331 332//332
f 333//333 334//334 335//335
f 333//333 335//335 336//336
f 337//337 338//338 339//339
f 337//337 339//339 340//340
f 341//341 342//342 343//343
f 341//341 343//343 344//344
f 345//345 346//346 347//347
f 345//345 347//347 348//348
f 349//349 350//350 356//356
f 349//349 356//356 355//355
f 350//350 351//351 357//357
f 350//350 357//357 356//356
f 351//351 352//352 358//358
f 351//351 358//358 357//357
f 352//352 353//353 359//359
f 352//352 359//359 358//358
f 353//353 354//354 360//360
f 353//353 360//360 359//359
f 354//354 349//349 355//355
f 354//354 355//355 360//360
f 349//349 351//351 350//350
f 349//349 352//352 351//351
f 349//349 353//353 352//352
f 349//349 354//354 353//353
f 355//355 356//356 357//357
f 355//355 357//357 358//358
f 355//355 358//358 359//359
f 355//355 359//359 360//360
f 361//361 362//362 363//363
f 361//361 363//363 364//364
f 365//365 366//366 367//367
f 365//365 367//367 368//368
f 369//369 370//370 371//371
f 369//369 371//371 372//372
f 373//373 374//374 375//375
f 373//373 375//375 376//376
f 377//377 378//378 379//379
f 377//377 379//379 380//380
f 381//381 382//382 383//383
f 381//381 383//383 384//384
f 385//385 386//386 392//392
f 385//385 392//392 391//391
f 386//386 387//387 393//393
f 386//386 393//393 392//392
f 387//387 388//388 394//394
f 387//387 394//394 393//393
f 388//388 389//389 395//395
f 388//388 395//395 394//394
f 389//389 390//390 396//396
f 389//389 396//396 395//395
f 390//390 385//385 391//391
f 390//390 391//391 396//396
f 385//385 387//387 386//386
f 385//385 388//388 387//387
f 385//385 389//389 388//388
f 385//385 390//390 389//389
f 391//391 392//392 393//393
f 391//391 393//393 394//394
f 391//391 394//394 395//395
f 391//391 395//395 396//396
f 397//397 398//398 399//399
f 397//397 399//399 400//400
f 401//401 402//402 403//403
f 401//401 403//403 404//404
f 405//405 406//406 407//407
f 405//405 407//407 408//408
f 409//409 410//410 411//411
f 409//409 411//411 412//412
f 413//413 414//414 415//415
f 413//413 415//415 416//416
f 417//417 418//418 419//419
f 417//417 419//419 420//420
f 421//421 422//422 428//428
f 421//421 428//428 427//427
f 422//422 423//423 429//429
f 422//422 429//429 428//428
f 423//423 424//424 430//430
f 423//423 430//430 429//429
f 424//424 425//425 431//431
f 424//424 431//431 430//430
f 425//425 426//426 432//432
f 425//425 432//432 431//431
f 426//426 421//421 427//427
f 426//426 427//427 432//432
f 421//421 423//423 422//422
f 421//421 424//424 423//423
f 421//421 425//425 424//424
f 421//421 426//426 425//425
f 427//427 428//428 429//429
f 427//427 429//429 430//430
f 427//427 430//430 431//431
f 427//427 431//431 432//432
f 433//433 434//434 435//435
f 433//433 435//435 436//436
f 437//437 438//438 439//439
f 437//437 439//439 440//440
f 441//441 442//442 443//443
f 441//441 443//443 444//444
f 445//445 446//446 447//447
f 445//445 447//447 448//448
f 449//449 450//450 451//451
f 449//449 451//451 452//452
f 453//453 454//454 455//455
f 453//453 455//455 456//456
f 457//457 458//458 464//464
f 457//457 464//464 463//463
f 458//458 459//459 465//465
f 458//458 465//465 464//464
f 459//459 460//460 466//466
f 459//459 466//466 465//465
f 460//460 461//461 467//467
f 460//460 467//467 466//466
f 461//461 462//462 468//468
f 461//461 468//468 467//467
f 462//462 457//457 463//463
f 462//462 463//463 468//468
f 457//457 459//459 458//458
f 457//457 460//460 459//459
f 457//457 461//461 460//460
f 457//457 462//462 461//461
f 463//463 464//464 465//465
f 463//463 465//465 466//466
f 463//463 466//466 467//467
f 463//463 467//467 468//468
f 469//469 470//470 471//471
f 469//469 471//471 472//472
f 473//473 474//474 475//475
f 473//473 475//475 476//476
f 477//477 478//478 479//479
f 477//477 479//479 480//480
f 481//481 482//482 483//483
f 481//481 483//483 484//484
f 485//485 486//486 487//487
f 485//485 487//487 488//488
f 489//489 490//490 491//491
f 489//489 491//491 492//492
f 493//493 494//494 500//500
f 493//493 500//500 499//499
f 494//494 495//495 501//501
f 494//494 501//501 500//500
f 495//495 496//496 502//502
f 495//495 502//502 501//501
f 496//496 497//497 503//503
f 496//496 503//503 502//502
f 497//497 498//498 504//504
f 497//497 504//504 503//503
f 498//498 493//493 499//499
f 498//498 499//499 504//504
f 493//493 495//495 494//494
f 493//493 496//496 495//495
f 493//493 497//497 496//496
f 493//493 498//498 497//497
f 499//499 500//500 501//501
f 499//499 501//501 502//502
f 499//499 502//502 503//503
f 499//499 503//503 504//504
f 505//505 506//506 507//507
f 505//505 507//507 508//508
f 509//509 510//510 511//511
f 509//509 511//511 512//512
f 513//513 514//514 515//515
f 513//513 515//515 516//516
f 517//517 518//518 519//519
f 517//517 519//519 520//520
f 521//521 522//522 523//523
f 521//521 523//523 524//524
f 525//525 526//526 527//527
f 525//525 527//527 528//528
f 529//529 530//530 536//536
f 529//529 536//536 535//535
f 530//530 531//531 537//537
f 530//530 537//537 536//536
f 531//531 532//532 538//538
f 531//531 538//538 537//537
f 532//532 533//533 539//539
f 532//532 539//539 538//538
f 533//533 534//534 540//540
f 533//533 540//540 539//539
f 534//534 529//529 535//535
f 534//534 535//535 540//540
f 529//529 531//531 530//530
f 529//529 532//532 531//531
f 529//529 533//533 532//532
f 529//529 534//534 533//533
f 535//535 536//536 537//537
f 535//535 537//537 538//538
f 535//535 538//538 539//539
f 535//535 539//539 540//540
f 541//541 542//542 550//550
f 541//541 550//550 549//549
f 542//542 543//543 551//551
f 542//542 551//551 550//550
f 543//543 544//544 552//552
f 543//543 552//552 551//551
f 544//544 545//545 553//553
f 544//544 553//553 552//552
f 545//545 546//546 554//554
f 545//545 554//554 553//553
f 546//546 547//547 555//555
f 546//546 555//555 554//554
f 547//547 548//548 556//556
f 547//547 556//556 555//555
f 548//548 541//541 549//549
f 548//548 549//549 556//556
f 541//541 543//543 542//542
f 541//541 544//544 543//543
f 541//541 545//545 544//544
f 541//541 546//546 545//545
f 541//541 547//547 546//546
f 541//541 548//548 547//547
f 549//549 550//550 551//551
f 549//549 551//551 552//552
f 549//549 552//552 553//553
f 549//549 553//553 554//554
f 549//549 554//554 555//555
f 549//549 555//555 556//556
f 557//557 558//558 566//566
f 557//557 566//566 565//565
f 558//558 559//559 567//567
f 558//558 567//567 566//566
f 559//559 560//560 568//568
f 559//559 568//568 567//567
f 560//560 561//561 569//569
f 560//560 569//569 568//568
f 561//561 562//562 570//570
f 561//561 570//570 569//569
f 562//562 563//563 571//571
f 562//562 571//571 570//570
f 563//563 564//564 572//572
f 563//563 572//572 571//571
f 564//564 557//557 565//565
f 564//564 565//565 572//572
f 557//557 559//559 558//558
f 557//557 560//560 559//559
f 557//557 561//561 560//560
f 557//557 562//562 561//561
f 557//557 563//563 562//562
f 557//557 564//564 563//563
f 565//565 566//566 567//567
f 565//565 567//567 568//568
f 565//565 568//568 569//569
f 565//565 569//569 570//570
f 565//565 570//570 571//571
f 565//565 571//571 572//572
f 573//573 574//574 582//582
f 573//573 582//582 581//581
f 574//574 575//575 583//583
f 574//574 583//583 582//582
f 575//575 576//576 584//584
f 575//575 584//584 583//583
f 576//576 577//577 585//585
f 576//576 585//585 584//584
f 577//577 578//578 586//586
f 577//577 586//586 585//585
f 578//578 579//579 587//587
f 578//578 587//587 586//586
f 579//579 580//580 588//588
f 579//579 588//588 587//587
f 580//580 573//573 581//581
f 580//580 581//581 588//588
f 573//573 575//575 574//574
f 573//573 576//576 575//575
f 573//573 577//577 576//576
f 573//573 578//578 577//577
f 573//573 579//579 578//578
f 573//573 580//580 579//579
f 581//581 582//582 583//583
f 581//581 583//583 584//584
f 581//581 584//584 585//585
f 581//581 585//585 586//586
f 581//581 586//586 587//587
f 581//581 587//587 588//588
f 589//589 590//590 598//598
f 589//589 598//598 597//597
f 590//590 591//591 599//599
f 590//590 599//599 598//598
f 591//591 592//592 600//600
f 591//591 600//600 599//599
f 592//592 593//593 601//601
f 592//592 601//601 600//600
f 593//593 594//594 602//602
f 593//593 602//602 601//601
f 594//594 595//595 603//603
f 594//594 603//603 602//602
f 595//595 596//596 604//604
f 595//595 604//604 603//603
f 596//596 589//589 597//597
f 596//596 597//597 604//604
f 589//589 591//591 590//590
f 589//589 592//592 591//591
f 589//589 593//593 592//592
f 589//589 594//594 593//593
f 589//589 595//595 594//594
f 589//589 596//596 595//595
f 597//597 598//598 599//599
f 597//597 599//599 600//600
f 597//597 600//600 601//601
f 597//597 601//601 602//602
f 597//597 602//602 603//603
f 597//597 603//603 604//604
f 605//605 606//606 614//614
f 605//605 614//614 613//613
f 606//606 607//607 615//615
f 606//606 615//615 614//614
f 607//607 608//608 616//616
f 607//607 616//616 615//615
f 608//608 609//609 617//617
f 608//608 617//617 616//616
f 609//609 610//610 618//618
f 609//609 618//618 617//617
f 610//610 611//611 619//619
f 610//610 619//619 618//618
f 611//611 612//612 620//620
f 611//611 620//620 619//619
f 612//612 605//605 613//613
f 612//612 613//613 620//620
f 605//605 607//607 606//606
f 605//605 608//608 607//607
f 605//605 609//609 608//608
f 605//605 610//610 609//609
f 605//605 611//611 610//610
f 605//605 612//612 611//611
f 613//613 614//614 615//615
f 613//613 615//615 616//616
f 613//613 616//616 617//617
f 613//613 617//617 618//618
f 613//613 618//618 619//619
f 613//613 619//619 620//620
f 621//621 622//622 630//630
f 621//621 630//630 629//629
f 622//622 623//623 631//631
f 622//622 631//631 630//630
f 623//623 624//624 632//632
f 623//623 632//632 631//631
f 624//624 625//625 633//633
f 624//624 633//633 632//632
f 625//625 626//626 634//634
f 625//625 634//634 633//633
f 626//626 627//627 635//635
f 626//626 635//635 634//634
f 627//627 628//628 636//636
f 627//627 636//636 635//635
f 628//628 621//621 629//629
f 628//628 629//629 636//636
f 621//621 623//623 622//622
f 621//621 624//624 623//623
f 621//621 625//625 624//624
f 621//621 626//626 625//625
f 621//621 627//627 626//626
f 621//621 628//628 627//627
f 629//629 630//630 631//631
f 629//629 631//631 632//632
f 629//629 632//632 633//633
f 629//629 633//633 634//634
f 629//629 634//634 635//635
f 629//629 635//635 636//636
f 637//637 638//638 646//646
f 637//637 646//646 645//645
f 638//638 639//639 647//647
f 638//638 647//647 646//646
f 639//639 640//640 648//648
f 639//639 648//648 647//647
f 640//640 641//641 649//649
f 640//640 649//649 648//648
f 641//641 642//642 650//650
f 641//641 650//650 649//649
f 642//642 643//643 651//651
f 642//642 651//651 650//650
f 643//643 644//644 652//652
f 643//643 652//652 651//651
f 644//644 637//637 645//645
f 644//644 645//645 652//652
f 637//637 639//639 638//638
f 637//637 640//640 639//639
f 637//637 641//641 640//640
f 637//637 642//642 641//641
f 637//637 643//643 642//642
f 637//637 644//644 643//643
f 645//645 646//646 647//647
f 645//645 647//647 648//648
f 645//645 648//648 649//649
f 645//645 649//649 650//650
f 645//645 650//650 651//651
f 645//645 651//651 652//652
f 653//653 654//654 662//662
f 653//653 662//662 661//661
f 654//654 655//655 663//663
f 654//654 663//663 662//662
f 655//655 656//656 664//664
f 655//655 664//664 663//663
f 656//656 657//657 665//665
f 656//656 665//665 664//664
f 657//657 658//658 666//666
f 657//657 666//666 665//665
f 658//658 659//659 667//667
f 658//658 667//667 666//666
f 659//659 660//660 668//668
f 659//659 668//668 667//667
f 660//660 653//653 661//661
f 660//660 661//661 668//668
f 653//653 655//655 654//654
f 653//653 656//656 655//655
f 653//653 657//657 656//656
f 653//653 658//658 657//657
f 653//653 659//659 658//658
f 653//653 660//660 659//659
f 661//661 662//662 663//663
f 661//661 663//663 664//664
f 661//661 664//664 665//665
f 661//661 665//665 666//666
f 661//661 666//666 667//667
f 661//661 667//667 668//668
f 669//669 670//670 671//671
f 669//669 671//671 672//672
f 673//673 674//674 675//675
f 673//673 675//675 676//676
f 677//677 678//678 679//679
f 677//677 679//679 680//680
f 681//681 682//682 683//683
f 681//681 683//683 684//684
f 685//685 686//686 687//687
f 685//685 687//687 688//688
f 689//689 690//690 691//691
f 689//689 691//691 692//692
f 693//693 694//694 695//695
f 693//693 695//695 696//696
f 697//697 698//698 699//699
f 697//697 699//699 700//700
f 701//701 702//702 703//703
f 701//701 703//703 704//704
f 705//705 706//706 707//707
f 705//705 707//707 708//708
f 709//709 710//710 711//711
f 709//709 711//711 712//712
f 713//713 714//714 715//715
f 713//713 715//715 716//716
f 717//717 718//718 719//719
f 717//717 719//719 720//720
f 721//721 722//722 723//723
f 721//721 723//723 724//724
f 725//725 726//726 727//727
f 725//725 727//727 728//728
f 729//729 730//730 731//731
f 729//729 731//731 732//732
f 733//733 734//734 735//735
f 733//733 735//735 736//736
f 737//737 738//738 739//739
f 737//737 739//739 740//740
f 741//741 742//742 743//743
f 741//741 743//743 744//744
f 745//745 746//746 747//747
f 745//745 747//747 748//748
f 749//749 750//750 751//751
f 749//749 751//751 752//752
f 753//753 754//754 755//755
f 753//753 755//755 756//756
f 757//757 758//758 759//759
f 757//757 759//759 760//760
f 761//761 762//762 763//763
f 761//761 763//763 764//764
f 765//765 766//766 767//767
f 765//765 767//767 768//768
f 769//769 770//770 771//771
f 769//769 771//771 772//772
f 773//773 774//774 775//775
f 773//773 775//775 776//776
f 777//777 778//778 779//779
f 777//777 779//779 780//780
f 781//781 782//782 783//783
f 781//781 783//783 784//784
f 785//785 786//786 787//787
f 785//785 787//787 788//788
f 789//789 790//790 791//791
f 789//789 791//791 792//792
f 793//793 794//794 795//795
f 793//793 795//795 796//796
f 797//797 798//798 799//799
f 797//797 799//799 800//800
f 801//801 802//802 803//803
f 801//801 803//803 804//804
f 805//805 806//806 807//807
f 805//805 807//807 808//808
f 809//809 810//810 811//811
f 809//809 811//811 812//812
f 813//813 814//814 815//815
f 813//813 815//815 816//816
f 817//817 818//818 819//819
f 817//817 819//819 820//820
f 821//821 822//822 823//823
f 821//821 823//823 824//824
f 825//825 826//826 827//827
f 825//825 827//827 828//828
f 829//829 830//830 831//831
f 829//829 831//831 832//832
f 833//833 834//834 835//835
f 833//833 835//835 836//836
f 837//837 838//838 839//839
f 837//837 839//839 840//840
f 841//841 842//842 843//843
f 841//841 843//843 844//844
f 845//845 846//846 847//847
f 845//845 847//847 848//848
f 849//849 850//850 851//851
f 849//849 851//851 852//852
f 853//853 854//854 855//855
f 853//853 855//855 856//856
f 857//857 858//858 859//859
f 857//857 859//859 860//860
f 861//861 862//862 863//863
f 861//861 863//863 864//864
f 865//865 866//866 867//867
f 865//865 867//867 868//868
f 869//869 870//870 871//871
f 869//869 871//871 872//872
f 873//873 874//874 875//875
f 873//873 875//875 876//876
f 877//877 878//878 879//879
f 877//877 879//879 880//880
f 881//881 882//882 883//883
f 881//881 883//883 884//884
f 885//885 886//886 887//887
f 885//885 887//887 888//888
f 889//889 890//890 891//891
f 889//889 891//891 892//892
f 893//893 894//894 895//895
f 893//893 895//895 896//896
f 897//897 898//898 899//899
f 897//897 899//899 900//900
f 901//901 902//902 903//903
f 901//901 903//903 904//904
f 905//905 906//906 907//907
f 905//905 907//907 908//908
