# Dongfeng sandbox; metres; X right, Y far, Z up
v 2.130000 0.580000 0.110000
v 2.380000 0.580000 0.110000
v 2.380000 1.000000 0.110000
v 2.295000 1.000000 0.110000
v 2.295000 0.670000 0.110000
v 2.130000 0.670000 0.110000
v 2.130000 0.580000 0.015000
v 2.380000 0.580000 0.015000
v 2.380000 1.000000 0.015000
v 2.295000 1.000000 0.015000
v 2.295000 0.670000 0.015000
v 2.130000 0.670000 0.015000
v 2.130000 0.580000 0.015000
v 2.380000 0.580000 0.015000
v 2.380000 0.580000 0.110000
v 2.130000 0.580000 0.110000
v 2.380000 0.580000 0.015000
v 2.380000 1.000000 0.015000
v 2.380000 1.000000 0.110000
v 2.380000 0.580000 0.110000
v 2.380000 1.000000 0.015000
v 2.295000 1.000000 0.015000
v 2.295000 1.000000 0.110000
v 2.380000 1.000000 0.110000
v 2.295000 1.000000 0.015000
v 2.295000 0.670000 0.015000
v 2.295000 0.670000 0.110000
v 2.295000 1.000000 0.110000
v 2.295000 0.670000 0.015000
v 2.130000 0.670000 0.015000
v 2.130000 0.670000 0.110000
v 2.295000 0.670000 0.110000
v 2.130000 0.670000 0.015000
v 2.130000 0.580000 0.015000
v 2.130000 0.580000 0.110000
v 2.130000 0.670000 0.110000
v 2.420000 0.580000 0.110000
v 2.700000 0.580000 0.110000
v 2.700000 0.665000 0.110000
v 2.505000 0.665000 0.110000
v 2.505000 1.000000 0.110000
v 2.420000 1.000000 0.110000
v 2.420000 0.580000 0.015000
v 2.700000 0.580000 0.015000
v 2.700000 0.665000 0.015000
v 2.505000 0.665000 0.015000
v 2.505000 1.000000 0.015000
v 2.420000 1.000000 0.015000
v 2.420000 0.580000 0.015000
v 2.700000 0.580000 0.015000
v 2.700000 0.580000 0.110000
v 2.420000 0.580000 0.110000
v 2.700000 0.580000 0.015000
v 2.700000 0.665000 0.015000
v 2.700000 0.665000 0.110000
v 2.700000 0.580000 0.110000
v 2.700000 0.665000 0.015000
v 2.505000 0.665000 0.015000
v 2.505000 0.665000 0.110000
v 2.700000 0.665000 0.110000
v 2.505000 0.665000 0.015000
v 2.505000 1.000000 0.015000
v 2.505000 1.000000 0.110000
v 2.505000 0.665000 0.110000
v 2.505000 1.000000 0.015000
v 2.420000 1.000000 0.015000
v 2.420000 1.000000 0.110000
v 2.505000 1.000000 0.110000
v 2.420000 1.000000 0.015000
v 2.420000 0.580000 0.015000
v 2.420000 0.580000 0.110000
v 2.420000 1.000000 0.110000
v 2.090000 1.765000 0.100000
v 2.335000 1.765000 0.100000
v 2.335000 1.835000 0.100000
v 2.170000 1.835000 0.100000
v 2.170000 1.965000 0.100000
v 2.335000 1.965000 0.100000
v 2.335000 2.035000 0.100000
v 2.090000 2.035000 0.100000
v 2.090000 1.765000 0.015000
v 2.335000 1.765000 0.015000
v 2.335000 1.835000 0.015000
v 2.170000 1.835000 0.015000
v 2.170000 1.965000 0.015000
v 2.335000 1.965000 0.015000
v 2.335000 2.035000 0.015000
v 2.090000 2.035000 0.015000
v 2.090000 1.765000 0.015000
v 2.335000 1.765000 0.015000
v 2.335000 1.765000 0.100000
v 2.090000 1.765000 0.100000
v 2.335000 1.765000 0.015000
v 2.335000 1.835000 0.015000
v 2.335000 1.835000 0.100000
v 2.335000 1.765000 0.100000
v 2.335000 1.835000 0.015000
v 2.170000 1.835000 0.015000
v 2.170000 1.835000 0.100000
v 2.335000 1.835000 0.100000
v 2.170000 1.835000 0.015000
v 2.170000 1.965000 0.015000
v 2.170000 1.965000 0.100000
v 2.170000 1.835000 0.100000
v 2.170000 1.965000 0.015000
v 2.335000 1.965000 0.015000
v 2.335000 1.965000 0.100000
v 2.170000 1.965000 0.100000
v 2.335000 1.965000 0.015000
v 2.335000 2.035000 0.015000
v 2.335000 2.035000 0.100000
v 2.335000 1.965000 0.100000
v 2.335000 2.035000 0.015000
v 2.090000 2.035000 0.015000
v 2.090000 2.035000 0.100000
v 2.335000 2.035000 0.100000
v 2.090000 2.035000 0.015000
v 2.090000 1.765000 0.015000
v 2.090000 1.765000 0.100000
v 2.090000 2.035000 0.100000
v 2.380000 1.765000 0.100000
v 2.625000 1.765000 0.100000
v 2.625000 2.035000 0.100000
v 2.380000 2.035000 0.100000
v 2.380000 1.965000 0.100000
v 2.545000 1.965000 0.100000
v 2.545000 1.835000 0.100000
v 2.380000 1.835000 0.100000
v 2.380000 1.765000 0.015000
v 2.625000 1.765000 0.015000
v 2.625000 2.035000 0.015000
v 2.380000 2.035000 0.015000
v 2.380000 1.965000 0.015000
v 2.545000 1.965000 0.015000
v 2.545000 1.835000 0.015000
v 2.380000 1.835000 0.015000
v 2.380000 1.765000 0.015000
v 2.625000 1.765000 0.015000
v 2.625000 1.765000 0.100000
v 2.380000 1.765000 0.100000
v 2.625000 1.765000 0.015000
v 2.625000 2.035000 0.015000
v 2.625000 2.035000 0.100000
v 2.625000 1.765000 0.100000
v 2.625000 2.035000 0.015000
v 2.380000 2.035000 0.015000
v 2.380000 2.035000 0.100000
v 2.625000 2.035000 0.100000
v 2.380000 2.035000 0.015000
v 2.380000 1.965000 0.015000
v 2.380000 1.965000 0.100000
v 2.380000 2.035000 0.100000
v 2.380000 1.965000 0.015000
v 2.545000 1.965000 0.015000
v 2.545000 1.965000 0.100000
v 2.380000 1.965000 0.100000
v 2.545000 1.965000 0.015000
v 2.545000 1.835000 0.015000
v 2.545000 1.835000 0.100000
v 2.545000 1.965000 0.100000
v 2.545000 1.835000 0.015000
v 2.380000 1.835000 0.015000
v 2.380000 1.835000 0.100000
v 2.545000 1.835000 0.100000
v 2.380000 1.835000 0.015000
v 2.380000 1.765000 0.015000
v 2.380000 1.765000 0.100000
v 2.380000 1.835000 0.100000
v 2.130000 1.210000 0.120000
v 2.300000 1.210000 0.120000
v 2.300000 1.725000 0.120000
v 2.130000 1.725000 0.120000
v 2.130000 1.210000 0.015000
v 2.300000 1.210000 0.015000
v 2.300000 1.725000 0.015000
v 2.130000 1.725000 0.015000
v 2.130000 1.210000 0.015000
v 2.300000 1.210000 0.015000
v 2.300000 1.210000 0.120000
v 2.130000 1.210000 0.120000
v 2.300000 1.210000 0.015000
v 2.300000 1.725000 0.015000
v 2.300000 1.725000 0.120000
v 2.300000 1.210000 0.120000
v 2.300000 1.725000 0.015000
v 2.130000 1.725000 0.015000
v 2.130000 1.725000 0.120000
v 2.300000 1.725000 0.120000
v 2.130000 1.725000 0.015000
v 2.130000 1.210000 0.015000
v 2.130000 1.210000 0.120000
v 2.130000 1.725000 0.120000
v 2.130000 1.465000 0.550000
v 2.300000 1.465000 0.550000
v 2.300000 1.725000 0.550000
v 2.130000 1.725000 0.550000
v 2.130000 1.465000 0.120000
v 2.300000 1.465000 0.120000
v 2.300000 1.725000 0.120000
v 2.130000 1.725000 0.120000
v 2.130000 1.465000 0.120000
v 2.300000 1.465000 0.120000
v 2.300000 1.465000 0.550000
v 2.130000 1.465000 0.550000
v 2.300000 1.465000 0.120000
v 2.300000 1.725000 0.120000
v 2.300000 1.725000 0.550000
v 2.300000 1.465000 0.550000
v 2.300000 1.725000 0.120000
v 2.130000 1.725000 0.120000
v 2.130000 1.725000 0.550000
v 2.300000 1.725000 0.550000
v 2.130000 1.725000 0.120000
v 2.130000 1.465000 0.120000
v 2.130000 1.465000 0.550000
v 2.130000 1.725000 0.550000
v 2.660000 1.330000 0.110000
v 2.880000 1.330000 0.110000
v 2.880000 1.960000 0.110000
v 2.660000 1.960000 0.110000
v 2.660000 1.330000 0.015000
v 2.880000 1.330000 0.015000
v 2.880000 1.960000 0.015000
v 2.660000 1.960000 0.015000
v 2.660000 1.330000 0.015000
v 2.880000 1.330000 0.015000
v 2.880000 1.330000 0.110000
v 2.660000 1.330000 0.110000
v 2.880000 1.330000 0.015000
v 2.880000 1.960000 0.015000
v 2.880000 1.960000 0.110000
v 2.880000 1.330000 0.110000
v 2.880000 1.960000 0.015000
v 2.660000 1.960000 0.015000
v 2.660000 1.960000 0.110000
v 2.880000 1.960000 0.110000
v 2.660000 1.960000 0.015000
v 2.660000 1.330000 0.015000
v 2.660000 1.330000 0.110000
v 2.660000 1.960000 0.110000
v 2.660000 1.330000 0.455000
v 2.880000 1.330000 0.455000
v 2.880000 1.490000 0.455000
v 2.660000 1.490000 0.455000
v 2.660000 1.330000 0.110000
v 2.880000 1.330000 0.110000
v 2.880000 1.490000 0.110000
v 2.660000 1.490000 0.110000
v 2.660000 1.330000 0.110000
v 2.880000 1.330000 0.110000
v 2.880000 1.330000 0.455000
v 2.660000 1.330000 0.455000
v 2.880000 1.330000 0.110000
v 2.880000 1.490000 0.110000
v 2.880000 1.490000 0.455000
v 2.880000 1.330000 0.455000
v 2.880000 1.490000 0.110000
v 2.660000 1.490000 0.110000
v 2.660000 1.490000 0.455000
v 2.880000 1.490000 0.455000
v 2.660000 1.490000 0.110000
v 2.660000 1.330000 0.110000
v 2.660000 1.330000 0.455000
v 2.660000 1.490000 0.455000
v 2.660000 1.730000 0.645000
v 2.880000 1.730000 0.645000
v 2.880000 1.960000 0.645000
v 2.660000 1.960000 0.645000
v 2.660000 1.730000 0.110000
v 2.880000 1.730000 0.110000
v 2.880000 1.960000 0.110000
v 2.660000 1.960000 0.110000
v 2.660000 1.730000 0.110000
v 2.880000 1.730000 0.110000
v 2.880000 1.730000 0.645000
v 2.660000 1.730000 0.645000
v 2.880000 1.730000 0.110000
v 2.880000 1.960000 0.110000
v 2.880000 1.960000 0.645000
v 2.880000 1.730000 0.645000
v 2.880000 1.960000 0.110000
v 2.660000 1.960000 0.110000
v 2.660000 1.960000 0.645000
v 2.880000 1.960000 0.645000
v 2.660000 1.960000 0.110000
v 2.660000 1.730000 0.110000
v 2.660000 1.730000 0.645000
v 2.660000 1.960000 0.645000
v 2.660000 1.490000 0.455000
v 2.880000 1.490000 0.455000
v 2.880000 1.730000 0.455000
v 2.660000 1.730000 0.455000
v 2.660000 1.490000 0.400000
v 2.880000 1.490000 0.400000
v 2.880000 1.730000 0.400000
v 2.660000 1.730000 0.400000
v 2.660000 1.490000 0.400000
v 2.880000 1.490000 0.400000
v 2.880000 1.490000 0.455000
v 2.660000 1.490000 0.455000
v 2.880000 1.490000 0.400000
v 2.880000 1.730000 0.400000
v 2.880000 1.730000 0.455000
v 2.880000 1.490000 0.455000
v 2.880000 1.730000 0.400000
v 2.660000 1.730000 0.400000
v 2.660000 1.730000 0.455000
v 2.880000 1.730000 0.455000
v 2.660000 1.730000 0.400000
v 2.660000 1.490000 0.400000
v 2.660000 1.490000 0.455000
v 2.660000 1.730000 0.455000
v 2.848000 1.490000 0.400000
v 2.880000 1.490000 0.400000
v 2.880000 1.730000 0.400000
v 2.848000 1.730000 0.400000
v 2.848000 1.490000 0.110000
v 2.880000 1.490000 0.110000
v 2.880000 1.730000 0.110000
v 2.848000 1.730000 0.110000
v 2.848000 1.490000 0.110000
v 2.880000 1.490000 0.110000
v 2.880000 1.490000 0.400000
v 2.848000 1.490000 0.400000
v 2.880000 1.490000 0.110000
v 2.880000 1.730000 0.110000
v 2.880000 1.730000 0.400000
v 2.880000 1.490000 0.400000
v 2.880000 1.730000 0.110000
v 2.848000 1.730000 0.110000
v 2.848000 1.730000 0.400000
v 2.880000 1.730000 0.400000
v 2.848000 1.730000 0.110000
v 2.848000 1.490000 0.110000
v 2.848000 1.490000 0.400000
v 2.848000 1.730000 0.400000
v 0.640000 2.909000 0.015000
v 0.640000 3.041000 0.015000
v 0.870000 3.041000 0.015000
v 0.870000 2.909000 0.015000
v 0.640000 2.909000 0.189000
v 0.870000 2.909000 0.189000
v 0.870000 3.041000 0.189000
v 0.640000 3.041000 0.189000
v 0.640000 2.909000 0.015000
v 0.870000 2.909000 0.015000
v 0.870000 2.909000 0.189000
v 0.640000 2.909000 0.189000
v 0.870000 2.909000 0.015000
v 0.870000 3.041000 0.015000
v 0.870000 3.041000 0.189000
v 0.870000 2.909000 0.189000
v 0.870000 3.041000 0.015000
v 0.640000 3.041000 0.015000
v 0.640000 3.041000 0.189000
v 0.870000 3.041000 0.189000
v 0.640000 3.041000 0.015000
v 0.640000 2.909000 0.015000
v 0.640000 2.909000 0.189000
v 0.640000 3.041000 0.189000
v 0.640000 3.094000 0.015000
v 0.640000 3.226000 0.015000
v 0.870000 3.226000 0.015000
v 0.870000 3.094000 0.015000
v 0.640000 3.094000 0.189000
v 0.870000 3.094000 0.189000
v 0.870000 3.226000 0.189000
v 0.640000 3.226000 0.189000
v 0.640000 3.094000 0.015000
v 0.870000 3.094000 0.015000
v 0.870000 3.094000 0.189000
v 0.640000 3.094000 0.189000
v 0.870000 3.094000 0.015000
v 0.870000 3.226000 0.015000
v 0.870000 3.226000 0.189000
v 0.870000 3.094000 0.189000
v 0.870000 3.226000 0.015000
v 0.640000 3.226000 0.015000
v 0.640000 3.226000 0.189000
v 0.870000 3.226000 0.189000
v 0.640000 3.226000 0.015000
v 0.640000 3.094000 0.015000
v 0.640000 3.094000 0.189000
v 0.640000 3.226000 0.189000
v 0.640000 3.279000 0.015000
v 0.640000 3.411000 0.015000
v 0.870000 3.411000 0.015000
v 0.870000 3.279000 0.015000
v 0.640000 3.279000 0.189000
v 0.870000 3.279000 0.189000
v 0.870000 3.411000 0.189000
v 0.640000 3.411000 0.189000
v 0.640000 3.279000 0.015000
v 0.870000 3.279000 0.015000
v 0.870000 3.279000 0.189000
v 0.640000 3.279000 0.189000
v 0.870000 3.279000 0.015000
v 0.870000 3.411000 0.015000
v 0.870000 3.411000 0.189000
v 0.870000 3.279000 0.189000
v 0.870000 3.411000 0.015000
v 0.640000 3.411000 0.015000
v 0.640000 3.411000 0.189000
v 0.870000 3.411000 0.189000
v 0.640000 3.411000 0.015000
v 0.640000 3.279000 0.015000
v 0.640000 3.279000 0.189000
v 0.640000 3.411000 0.189000
v 0.865000 2.892000 0.170000
v 0.865000 3.428000 0.170000
v 0.990000 3.428000 0.170000
v 0.990000 2.892000 0.170000
v 0.865000 2.892000 0.213000
v 0.990000 2.892000 0.213000
v 0.990000 3.428000 0.213000
v 0.865000 3.428000 0.213000
v 0.865000 2.892000 0.170000
v 0.990000 2.892000 0.170000
v 0.990000 2.892000 0.213000
v 0.865000 2.892000 0.213000
v 0.990000 2.892000 0.170000
v 0.990000 3.428000 0.170000
v 0.990000 3.428000 0.213000
v 0.990000 2.892000 0.213000
v 0.990000 3.428000 0.170000
v 0.865000 3.428000 0.170000
v 0.865000 3.428000 0.213000
v 0.990000 3.428000 0.213000
v 0.865000 3.428000 0.170000
v 0.865000 2.892000 0.170000
v 0.865000 2.892000 0.213000
v 0.865000 3.428000 0.213000
v 0.972500 2.906500 0.015000
v 0.972500 2.917500 0.015000
v 0.981500 2.917500 0.015000
v 0.981500 2.906500 0.015000
v 0.972500 2.906500 0.170000
v 0.981500 2.906500 0.170000
v 0.981500 2.917500 0.170000
v 0.972500 2.917500 0.170000
v 0.972500 2.906500 0.015000
v 0.981500 2.906500 0.015000
v 0.981500 2.906500 0.170000
v 0.972500 2.906500 0.170000
v 0.981500 2.906500 0.015000
v 0.981500 2.917500 0.015000
v 0.981500 2.917500 0.170000
v 0.981500 2.906500 0.170000
v 0.981500 2.917500 0.015000
v 0.972500 2.917500 0.015000
v 0.972500 2.917500 0.170000
v 0.981500 2.917500 0.170000
v 0.972500 2.917500 0.015000
v 0.972500 2.906500 0.015000
v 0.972500 2.906500 0.170000
v 0.972500 2.917500 0.170000
v 0.972500 2.968500 0.015000
v 0.972500 2.979500 0.015000
v 0.981500 2.979500 0.015000
v 0.981500 2.968500 0.015000
v 0.972500 2.968500 0.170000
v 0.981500 2.968500 0.170000
v 0.981500 2.979500 0.170000
v 0.972500 2.979500 0.170000
v 0.972500 2.968500 0.015000
v 0.981500 2.968500 0.015000
v 0.981500 2.968500 0.170000
v 0.972500 2.968500 0.170000
v 0.981500 2.968500 0.015000
v 0.981500 2.979500 0.015000
v 0.981500 2.979500 0.170000
v 0.981500 2.968500 0.170000
v 0.981500 2.979500 0.015000
v 0.972500 2.979500 0.015000
v 0.972500 2.979500 0.170000
v 0.981500 2.979500 0.170000
v 0.972500 2.979500 0.015000
v 0.972500 2.968500 0.015000
v 0.972500 2.968500 0.170000
v 0.972500 2.979500 0.170000
v 0.972500 3.030500 0.015000
v 0.972500 3.041500 0.015000
v 0.981500 3.041500 0.015000
v 0.981500 3.030500 0.015000
v 0.972500 3.030500 0.170000
v 0.981500 3.030500 0.170000
v 0.981500 3.041500 0.170000
v 0.972500 3.041500 0.170000
v 0.972500 3.030500 0.015000
v 0.981500 3.030500 0.015000
v 0.981500 3.030500 0.170000
v 0.972500 3.030500 0.170000
v 0.981500 3.030500 0.015000
v 0.981500 3.041500 0.015000
v 0.981500 3.041500 0.170000
v 0.981500 3.030500 0.170000
v 0.981500 3.041500 0.015000
v 0.972500 3.041500 0.015000
v 0.972500 3.041500 0.170000
v 0.981500 3.041500 0.170000
v 0.972500 3.041500 0.015000
v 0.972500 3.030500 0.015000
v 0.972500 3.030500 0.170000
v 0.972500 3.041500 0.170000
v 0.972500 3.092500 0.015000
v 0.972500 3.103500 0.015000
v 0.981500 3.103500 0.015000
v 0.981500 3.092500 0.015000
v 0.972500 3.092500 0.170000
v 0.981500 3.092500 0.170000
v 0.981500 3.103500 0.170000
v 0.972500 3.103500 0.170000
v 0.972500 3.092500 0.015000
v 0.981500 3.092500 0.015000
v 0.981500 3.092500 0.170000
v 0.972500 3.092500 0.170000
v 0.981500 3.092500 0.015000
v 0.981500 3.103500 0.015000
v 0.981500 3.103500 0.170000
v 0.981500 3.092500 0.170000
v 0.981500 3.103500 0.015000
v 0.972500 3.103500 0.015000
v 0.972500 3.103500 0.170000
v 0.981500 3.103500 0.170000
v 0.972500 3.103500 0.015000
v 0.972500 3.092500 0.015000
v 0.972500 3.092500 0.170000
v 0.972500 3.103500 0.170000
v 0.972500 3.154500 0.015000
v 0.972500 3.165500 0.015000
v 0.981500 3.165500 0.015000
v 0.981500 3.154500 0.015000
v 0.972500 3.154500 0.170000
v 0.981500 3.154500 0.170000
v 0.981500 3.165500 0.170000
v 0.972500 3.165500 0.170000
v 0.972500 3.154500 0.015000
v 0.981500 3.154500 0.015000
v 0.981500 3.154500 0.170000
v 0.972500 3.154500 0.170000
v 0.981500 3.154500 0.015000
v 0.981500 3.165500 0.015000
v 0.981500 3.165500 0.170000
v 0.981500 3.154500 0.170000
v 0.981500 3.165500 0.015000
v 0.972500 3.165500 0.015000
v 0.972500 3.165500 0.170000
v 0.981500 3.165500 0.170000
v 0.972500 3.165500 0.015000
v 0.972500 3.154500 0.015000
v 0.972500 3.154500 0.170000
v 0.972500 3.165500 0.170000
v 0.972500 3.216500 0.015000
v 0.972500 3.227500 0.015000
v 0.981500 3.227500 0.015000
v 0.981500 3.216500 0.015000
v 0.972500 3.216500 0.170000
v 0.981500 3.216500 0.170000
v 0.981500 3.227500 0.170000
v 0.972500 3.227500 0.170000
v 0.972500 3.216500 0.015000
v 0.981500 3.216500 0.015000
v 0.981500 3.216500 0.170000
v 0.972500 3.216500 0.170000
v 0.981500 3.216500 0.015000
v 0.981500 3.227500 0.015000
v 0.981500 3.227500 0.170000
v 0.981500 3.216500 0.170000
v 0.981500 3.227500 0.015000
v 0.972500 3.227500 0.015000
v 0.972500 3.227500 0.170000
v 0.981500 3.227500 0.170000
v 0.972500 3.227500 0.015000
v 0.972500 3.216500 0.015000
v 0.972500 3.216500 0.170000
v 0.972500 3.227500 0.170000
v 0.972500 3.278500 0.015000
v 0.972500 3.289500 0.015000
v 0.981500 3.289500 0.015000
v 0.981500 3.278500 0.015000
v 0.972500 3.278500 0.170000
v 0.981500 3.278500 0.170000
v 0.981500 3.289500 0.170000
v 0.972500 3.289500 0.170000
v 0.972500 3.278500 0.015000
v 0.981500 3.278500 0.015000
v 0.981500 3.278500 0.170000
v 0.972500 3.278500 0.170000
v 0.981500 3.278500 0.015000
v 0.981500 3.289500 0.015000
v 0.981500 3.289500 0.170000
v 0.981500 3.278500 0.170000
v 0.981500 3.289500 0.015000
v 0.972500 3.289500 0.015000
v 0.972500 3.289500 0.170000
v 0.981500 3.289500 0.170000
v 0.972500 3.289500 0.015000
v 0.972500 3.278500 0.015000
v 0.972500 3.278500 0.170000
v 0.972500 3.289500 0.170000
v 0.972500 3.340500 0.015000
v 0.972500 3.351500 0.015000
v 0.981500 3.351500 0.015000
v 0.981500 3.340500 0.015000
v 0.972500 3.340500 0.170000
v 0.981500 3.340500 0.170000
v 0.981500 3.351500 0.170000
v 0.972500 3.351500 0.170000
v 0.972500 3.340500 0.015000
v 0.981500 3.340500 0.015000
v 0.981500 3.340500 0.170000
v 0.972500 3.340500 0.170000
v 0.981500 3.340500 0.015000
v 0.981500 3.351500 0.015000
v 0.981500 3.351500 0.170000
v 0.981500 3.340500 0.170000
v 0.981500 3.351500 0.015000
v 0.972500 3.351500 0.015000
v 0.972500 3.351500 0.170000
v 0.981500 3.351500 0.170000
v 0.972500 3.351500 0.015000
v 0.972500 3.340500 0.015000
v 0.972500 3.340500 0.170000
v 0.972500 3.351500 0.170000
v 0.972500 3.402500 0.015000
v 0.972500 3.413500 0.015000
v 0.981500 3.413500 0.015000
v 0.981500 3.402500 0.015000
v 0.972500 3.402500 0.170000
v 0.981500 3.402500 0.170000
v 0.981500 3.413500 0.170000
v 0.972500 3.413500 0.170000
v 0.972500 3.402500 0.015000
v 0.981500 3.402500 0.015000
v 0.981500 3.402500 0.170000
v 0.972500 3.402500 0.170000
v 0.981500 3.402500 0.015000
v 0.981500 3.413500 0.015000
v 0.981500 3.413500 0.170000
v 0.981500 3.402500 0.170000
v 0.981500 3.413500 0.015000
v 0.972500 3.413500 0.015000
v 0.972500 3.413500 0.170000
v 0.981500 3.413500 0.170000
v 0.972500 3.413500 0.015000
v 0.972500 3.402500 0.015000
v 0.972500 3.402500 0.170000
v 0.972500 3.413500 0.170000
v 1.115000 3.080000 0.015000
v 1.115000 3.160000 0.015000
v 1.185000 3.160000 0.015000
v 1.185000 3.080000 0.015000
v 1.115000 3.080000 0.125000
v 1.185000 3.080000 0.125000
v 1.185000 3.160000 0.125000
v 1.115000 3.160000 0.125000
v 1.115000 3.080000 0.015000
v 1.185000 3.080000 0.015000
v 1.185000 3.080000 0.125000
v 1.115000 3.080000 0.125000
v 1.185000 3.080000 0.015000
v 1.185000 3.160000 0.015000
v 1.185000 3.160000 0.125000
v 1.185000 3.080000 0.125000
v 1.185000 3.160000 0.015000
v 1.115000 3.160000 0.015000
v 1.115000 3.160000 0.125000
v 1.185000 3.160000 0.125000
v 1.115000 3.160000 0.015000
v 1.115000 3.080000 0.015000
v 1.115000 3.080000 0.125000
v 1.115000 3.160000 0.125000
v 2.065000 2.965000 0.143000
v 2.175000 2.965000 0.143000
v 2.175000 3.105000 0.143000
v 2.285000 3.105000 0.143000
v 2.285000 2.965000 0.143000
v 2.395000 2.965000 0.143000
v 2.395000 3.295000 0.143000
v 2.065000 3.295000 0.143000
v 2.065000 2.965000 0.015000
v 2.175000 2.965000 0.015000
v 2.175000 3.105000 0.015000
v 2.285000 3.105000 0.015000
v 2.285000 2.965000 0.015000
v 2.395000 2.965000 0.015000
v 2.395000 3.295000 0.015000
v 2.065000 3.295000 0.015000
v 2.065000 2.965000 0.015000
v 2.175000 2.965000 0.015000
v 2.175000 2.965000 0.143000
v 2.065000 2.965000 0.143000
v 2.175000 2.965000 0.015000
v 2.175000 3.105000 0.015000
v 2.175000 3.105000 0.143000
v 2.175000 2.965000 0.143000
v 2.175000 3.105000 0.015000
v 2.285000 3.105000 0.015000
v 2.285000 3.105000 0.143000
v 2.175000 3.105000 0.143000
v 2.285000 3.105000 0.015000
v 2.285000 2.965000 0.015000
v 2.285000 2.965000 0.143000
v 2.285000 3.105000 0.143000
v 2.285000 2.965000 0.015000
v 2.395000 2.965000 0.015000
v 2.395000 2.965000 0.143000
v 2.285000 2.965000 0.143000
v 2.395000 2.965000 0.015000
v 2.395000 3.295000 0.015000
v 2.395000 3.295000 0.143000
v 2.395000 2.965000 0.143000
v 2.395000 3.295000 0.015000
v 2.065000 3.295000 0.015000
v 2.065000 3.295000 0.143000
v 2.395000 3.295000 0.143000
v 2.065000 3.295000 0.015000
v 2.065000 2.965000 0.015000
v 2.065000 2.965000 0.143000
v 2.065000 3.295000 0.143000
v 2.051000 2.952800 0.015000
v 2.049200 2.951000 0.015000
v 2.051000 2.949200 0.015000
v 2.052800 2.951000 0.015000
v 2.051000 2.952800 0.198000
v 2.049200 2.951000 0.198000
v 2.051000 2.949200 0.198000
v 2.052800 2.951000 0.198000
v 2.409000 2.952800 0.015000
v 2.407200 2.951000 0.015000
v 2.409000 2.949200 0.015000
v 2.410800 2.951000 0.015000
v 2.409000 2.952800 0.198000
v 2.407200 2.951000 0.198000
v 2.409000 2.949200 0.198000
v 2.410800 2.951000 0.198000
v 2.051000 3.310800 0.015000
v 2.049200 3.309000 0.015000
v 2.051000 3.307200 0.015000
v 2.052800 3.309000 0.015000
v 2.051000 3.310800 0.198000
v 2.049200 3.309000 0.198000
v 2.051000 3.307200 0.198000
v 2.052800 3.309000 0.198000
v 2.409000 3.310800 0.015000
v 2.407200 3.309000 0.015000
v 2.409000 3.307200 0.015000
v 2.410800 3.309000 0.015000
v 2.409000 3.310800 0.198000
v 2.407200 3.309000 0.198000
v 2.409000 3.307200 0.198000
v 2.410800 3.309000 0.198000
v 2.490000 2.955000 0.015000
v 2.490000 3.470000 0.015000
v 2.625000 3.470000 0.015000
v 2.625000 2.955000 0.015000
v 2.490000 2.955000 0.077000
v 2.625000 2.955000 0.077000
v 2.625000 3.470000 0.315000
v 2.490000 3.470000 0.315000
v 2.490000 2.955000 0.015000
v 2.625000 2.955000 0.015000
v 2.625000 2.955000 0.077000
v 2.490000 2.955000 0.077000
v 2.625000 2.955000 0.015000
v 2.625000 3.470000 0.015000
v 2.625000 3.470000 0.315000
v 2.625000 2.955000 0.077000
v 2.625000 3.470000 0.015000
v 2.490000 3.470000 0.015000
v 2.490000 3.470000 0.315000
v 2.625000 3.470000 0.315000
v 2.490000 3.470000 0.015000
v 2.490000 2.955000 0.015000
v 2.490000 2.955000 0.077000
v 2.490000 3.470000 0.315000
v 2.707500 3.350000 0.015000
v 2.842500 3.350000 0.015000
v 2.842500 3.350000 0.060000
v 2.841923 3.350000 0.066265
v 2.840200 3.350000 0.072423
v 2.837362 3.350000 0.078369
v 2.833457 3.350000 0.084000
v 2.828551 3.350000 0.089221
v 2.822730 3.350000 0.093941
v 2.816091 3.350000 0.098081
v 2.808750 3.350000 0.101569
v 2.800831 3.350000 0.104346
v 2.792470 3.350000 0.106364
v 2.783811 3.350000 0.107589
v 2.775000 3.350000 0.108000
v 2.766190 3.350000 0.107589
v 2.757530 3.350000 0.106364
v 2.749169 3.350000 0.104346
v 2.741250 3.350000 0.101569
v 2.733909 3.350000 0.098081
v 2.727270 3.350000 0.093941
v 2.721449 3.350000 0.089221
v 2.716543 3.350000 0.084000
v 2.712638 3.350000 0.078369
v 2.709800 3.350000 0.072423
v 2.708077 3.350000 0.066265
v 2.707500 3.350000 0.060000
v 2.707500 3.510000 0.015000
v 2.842500 3.510000 0.015000
v 2.842500 3.510000 0.060000
v 2.841923 3.510000 0.066265
v 2.840200 3.510000 0.072423
v 2.837362 3.510000 0.078369
v 2.833457 3.510000 0.084000
v 2.828551 3.510000 0.089221
v 2.822730 3.510000 0.093941
v 2.816091 3.510000 0.098081
v 2.808750 3.510000 0.101569
v 2.800831 3.510000 0.104346
v 2.792470 3.510000 0.106364
v 2.783811 3.510000 0.107589
v 2.775000 3.510000 0.108000
v 2.766190 3.510000 0.107589
v 2.757530 3.510000 0.106364
v 2.749169 3.510000 0.104346
v 2.741250 3.510000 0.101569
v 2.733909 3.510000 0.098081
v 2.727270 3.510000 0.093941
v 2.721449 3.510000 0.089221
v 2.716543 3.510000 0.084000
v 2.712638 3.510000 0.078369
v 2.709800 3.510000 0.072423
v 2.708077 3.510000 0.066265
v 2.707500 3.510000 0.060000
v 2.707500 3.350000 0.015000
v 2.707500 3.510000 0.015000
v 2.842500 3.510000 0.015000
v 2.842500 3.350000 0.015000
v 2.842500 3.350000 0.015000
v 2.842500 3.510000 0.015000
v 2.842500 3.510000 0.060000
v 2.842500 3.350000 0.060000
v 2.842500 3.350000 0.060000
v 2.842500 3.510000 0.060000
v 2.841923 3.510000 0.066265
v 2.841923 3.350000 0.066265
v 2.841923 3.350000 0.066265
v 2.841923 3.510000 0.066265
v 2.840200 3.510000 0.072423
v 2.840200 3.350000 0.072423
v 2.840200 3.350000 0.072423
v 2.840200 3.510000 0.072423
v 2.837362 3.510000 0.078369
v 2.837362 3.350000 0.078369
v 2.837362 3.350000 0.078369
v 2.837362 3.510000 0.078369
v 2.833457 3.510000 0.084000
v 2.833457 3.350000 0.084000
v 2.833457 3.350000 0.084000
v 2.833457 3.510000 0.084000
v 2.828551 3.510000 0.089221
v 2.828551 3.350000 0.089221
v 2.828551 3.350000 0.089221
v 2.828551 3.510000 0.089221
v 2.822730 3.510000 0.093941
v 2.822730 3.350000 0.093941
v 2.822730 3.350000 0.093941
v 2.822730 3.510000 0.093941
v 2.816091 3.510000 0.098081
v 2.816091 3.350000 0.098081
v 2.816091 3.350000 0.098081
v 2.816091 3.510000 0.098081
v 2.808750 3.510000 0.101569
v 2.808750 3.350000 0.101569
v 2.808750 3.350000 0.101569
v 2.808750 3.510000 0.101569
v 2.800831 3.510000 0.104346
v 2.800831 3.350000 0.104346
v 2.800831 3.350000 0.104346
v 2.800831 3.510000 0.104346
v 2.792470 3.510000 0.106364
v 2.792470 3.350000 0.106364
v 2.792470 3.350000 0.106364
v 2.792470 3.510000 0.106364
v 2.783811 3.510000 0.107589
v 2.783811 3.350000 0.107589
v 2.783811 3.350000 0.107589
v 2.783811 3.510000 0.107589
v 2.775000 3.510000 0.108000
v 2.775000 3.350000 0.108000
v 2.775000 3.350000 0.108000
v 2.775000 3.510000 0.108000
v 2.766190 3.510000 0.107589
v 2.766190 3.350000 0.107589
v 2.766190 3.350000 0.107589
v 2.766190 3.510000 0.107589
v 2.757530 3.510000 0.106364
v 2.757530 3.350000 0.106364
v 2.757530 3.350000 0.106364
v 2.757530 3.510000 0.106364
v 2.749169 3.510000 0.104346
v 2.749169 3.350000 0.104346
v 2.749169 3.350000 0.104346
v 2.749169 3.510000 0.104346
v 2.741250 3.510000 0.101569
v 2.741250 3.350000 0.101569
v 2.741250 3.350000 0.101569
v 2.741250 3.510000 0.101569
v 2.733909 3.510000 0.098081
v 2.733909 3.350000 0.098081
v 2.733909 3.350000 0.098081
v 2.733909 3.510000 0.098081
v 2.727270 3.510000 0.093941
v 2.727270 3.350000 0.093941
v 2.727270 3.350000 0.093941
v 2.727270 3.510000 0.093941
v 2.721449 3.510000 0.089221
v 2.721449 3.350000 0.089221
v 2.721449 3.350000 0.089221
v 2.721449 3.510000 0.089221
v 2.716543 3.510000 0.084000
v 2.716543 3.350000 0.084000
v 2.716543 3.350000 0.084000
v 2.716543 3.510000 0.084000
v 2.712638 3.510000 0.078369
v 2.712638 3.350000 0.078369
v 2.712638 3.350000 0.078369
v 2.712638 3.510000 0.078369
v 2.709800 3.510000 0.072423
v 2.709800 3.350000 0.072423
v 2.709800 3.350000 0.072423
v 2.709800 3.510000 0.072423
v 2.708077 3.510000 0.066265
v 2.708077 3.350000 0.066265
v 2.708077 3.350000 0.066265
v 2.708077 3.510000 0.066265
v 2.707500 3.510000 0.060000
v 2.707500 3.350000 0.060000
v 2.707500 3.350000 0.060000
v 2.707500 3.510000 0.060000
v 2.707500 3.510000 0.015000
v 2.707500 3.350000 0.015000
v 2.499000 2.827500 0.015000
v 2.499000 2.912500 0.015000
v 2.581000 2.912500 0.015000
v 2.581000 2.827500 0.015000
v 2.499000 2.827500 0.083000
v 2.581000 2.827500 0.083000
v 2.581000 2.912500 0.083000
v 2.499000 2.912500 0.083000
v 2.499000 2.827500 0.015000
v 2.581000 2.827500 0.015000
v 2.581000 2.827500 0.083000
v 2.499000 2.827500 0.083000
v 2.581000 2.827500 0.015000
v 2.581000 2.912500 0.015000
v 2.581000 2.912500 0.083000
v 2.581000 2.827500 0.083000
v 2.581000 2.912500 0.015000
v 2.499000 2.912500 0.015000
v 2.499000 2.912500 0.083000
v 2.581000 2.912500 0.083000
v 2.499000 2.912500 0.015000
v 2.499000 2.827500 0.015000
v 2.499000 2.827500 0.083000
v 2.499000 2.912500 0.083000
vn 0.000000 0.000000 1.000000
vn 0.000000 0.000000 1.000000
vn 0.000000 0.000000 1.000000
vn 0.000000 0.000000 1.000000
vn 0.000000 0.000000 1.000000
vn 0.000000 0.000000 1.000000
vn 0.000000 0.000000 -1.000000
vn 0.000000 0.000000 -1.000000
vn 0.000000 0.000000 -1.000000
vn 0.000000 0.000000 -1.000000
vn 0.000000 0.000000 -1.000000
vn 0.000000 0.000000 -1.000000
vn 0.000000 -1.000000 0.000000
vn 0.000000 -1.000000 0.000000
vn 0.000000 -1.000000 0.000000
vn 0.000000 -1.000000 0.000000
vn 1.000000 0.000000 0.000000
vn 1.000000 0.000000 0.000000
vn 1.000000 0.000000 0.000000
vn 1.000000 0.000000 0.000000
vn 0.000000 1.000000 0.000000
vn 0.000000 1.000000 0.000000
vn 0.000000 1.000000 0.000000
vn 0.000000 1.000000 0.000000
vn -1.000000 0.000000 0.000000
vn -1.000000 0.000000 0.000000
vn -1.000000 0.000000 0.000000
vn -1.000000 0.000000 0.000000
vn 0.000000 1.000000 0.000000
vn 0.000000 1.000000 0.000000
vn 0.000000 1.000000 0.000000
vn 0.000000 1.000000 0.000000
vn -1.000000 0.000000 0.000000
vn -1.000000 0.000000 0.000000
vn -1.000000 0.000000 0.000000
vn -1.000000 0.000000 0.000000
vn 0.000000 0.000000 1.000000
vn 0.000000 0.000000 1.000000
vn 0.000000 0.000000 1.000000
vn 0.000000 0.000000 1.000000
vn 0.000000 0.000000 1.000000
vn 0.000000 0.000000 1.000000
vn 0.000000 0.000000 -1.000000
vn 0.000000 0.000000 -1.000000
vn 0.000000 0.000000 -1.000000
vn 0.000000 0.000000 -1.000000
vn 0.000000 0.000000 -1.000000
vn 0.000000 0.000000 -1.000000
vn 0.000000 -1.000000 0.000000
vn 0.000000 -1.000000 0.000000
vn 0.000000 -1.000000 0.000000
vn 0.000000 -1.000000 0.000000
vn 1.000000 0.000000 0.000000
vn 1.000000 0.000000 0.000000
vn 1.000000 0.000000 0.000000
vn 1.000000 0.000000 0.000000
vn 0.000000 1.000000 0.000000
vn 0.000000 1.000000 0.000000
vn 0.000000 1.000000 0.000000
vn 0.000000 1.000000 0.000000
vn 1.000000 0.000000 0.000000
vn 1.000000 0.000000 0.000000
vn 1.000000 0.000000 0.000000
vn 1.000000 0.000000 0.000000
vn 0.000000 1.000000 0.000000
vn 0.000000 1.000000 0.000000
vn 0.000000 1.000000 0.000000
vn 0.000000 1.000000 0.000000
vn -1.000000 0.000000 0.000000
vn -1.000000 0.000000 0.000000
vn -1.000000 0.000000 0.000000
vn -1.000000 0.000000 0.000000
vn 0.000000 0.000000 1.000000
vn 0.000000 0.000000 1.000000
vn 0.000000 0.000000 1.000000
vn 0.000000 0.000000 1.000000
vn 0.000000 0.000000 1.000000
vn 0.000000 0.000000 1.000000
vn 0.000000 0.000000 1.000000
vn 0.000000 0.000000 1.000000
vn 0.000000 0.000000 -1.000000
vn 0.000000 0.000000 -1.000000
vn 0.000000 0.000000 -1.000000
vn 0.000000 0.000000 -1.000000
vn 0.000000 0.000000 -1.000000
vn 0.000000 0.000000 -1.000000
vn 0.000000 0.000000 -1.000000
vn 0.000000 0.000000 -1.000000
vn 0.000000 -1.000000 0.000000
vn 0.000000 -1.000000 0.000000
vn 0.000000 -1.000000 0.000000
vn 0.000000 -1.000000 0.000000
vn 1.000000 0.000000 0.000000
vn 1.000000 0.000000 0.000000
vn 1.000000 0.000000 0.000000
vn 1.000000 0.000000 0.000000
vn 0.000000 1.000000 0.000000
vn 0.000000 1.000000 0.000000
vn 0.000000 1.000000 0.000000
vn 0.000000 1.000000 0.000000
vn 1.000000 0.000000 0.000000
vn 1.000000 0.000000 0.000000
vn 1.000000 0.000000 0.000000
vn 1.000000 0.000000 0.000000
vn 0.000000 -1.000000 0.000000
vn 0.000000 -1.000000 0.000000
vn 0.000000 -1.000000 0.000000
vn 0.000000 -1.000000 0.000000
vn 1.000000 0.000000 0.000000
vn 1.000000 0.000000 0.000000
vn 1.000000 0.000000 0.000000
vn 1.000000 0.000000 0.000000
vn 0.000000 1.000000 0.000000
vn 0.000000 1.000000 0.000000
vn 0.000000 1.000000 0.000000
vn 0.000000 1.000000 0.000000
vn -1.000000 0.000000 0.000000
vn -1.000000 0.000000 0.000000
vn -1.000000 0.000000 0.000000
vn -1.000000 0.000000 0.000000
vn 0.000000 0.000000 1.000000
vn 0.000000 0.000000 1.000000
vn 0.000000 0.000000 1.000000
vn 0.000000 0.000000 1.000000
vn 0.000000 0.000000 1.000000
vn 0.000000 0.000000 1.000000
vn 0.000000 0.000000 1.000000
vn 0.000000 0.000000 1.000000
vn 0.000000 0.000000 -1.000000
vn 0.000000 0.000000 -1.000000
vn 0.000000 0.000000 -1.000000
vn 0.000000 0.000000 -1.000000
vn 0.000000 0.000000 -1.000000
vn 0.000000 0.000000 -1.000000
vn 0.000000 0.000000 -1.000000
vn 0.000000 0.000000 -1.000000
vn 0.000000 -1.000000 0.000000
vn 0.000000 -1.000000 0.000000
vn 0.000000 -1.000000 0.000000
vn 0.000000 -1.000000 0.000000
vn 1.000000 0.000000 0.000000
vn 1.000000 0.000000 0.000000
vn 1.000000 0.000000 0.000000
vn 1.000000 0.000000 0.000000
vn 0.000000 1.000000 0.000000
vn 0.000000 1.000000 0.000000
vn 0.000000 1.000000 0.000000
vn 0.000000 1.000000 0.000000
vn -1.000000 0.000000 0.000000
vn -1.000000 0.000000 0.000000
vn -1.000000 0.000000 0.000000
vn -1.000000 0.000000 0.000000
vn 0.000000 -1.000000 0.000000
vn 0.000000 -1.000000 0.000000
vn 0.000000 -1.000000 0.000000
vn 0.000000 -1.000000 0.000000
vn -1.000000 0.000000 0.000000
vn -1.000000 0.000000 0.000000
vn -1.000000 0.000000 0.000000
vn -1.000000 0.000000 0.000000
vn 0.000000 1.000000 0.000000
vn 0.000000 1.000000 0.000000
vn 0.000000 1.000000 0.000000
vn 0.000000 1.000000 0.000000
vn -1.000000 0.000000 0.000000
vn -1.000000 0.000000 0.000000
vn -1.000000 0.000000 0.000000
vn -1.000000 0.000000 0.000000
vn 0.000000 0.000000 1.000000
vn 0.000000 0.000000 1.000000
vn 0.000000 0.000000 1.000000
vn 0.000000 0.000000 1.000000
vn 0.000000 0.000000 -1.000000
vn 0.000000 0.000000 -1.000000
vn 0.000000 0.000000 -1.000000
vn 0.000000 0.000000 -1.000000
vn 0.000000 -1.000000 0.000000
vn 0.000000 -1.000000 0.000000
vn 0.000000 -1.000000 0.000000
vn 0.000000 -1.000000 0.000000
vn 1.000000 0.000000 0.000000
vn 1.000000 0.000000 0.000000
vn 1.000000 0.000000 0.000000
vn 1.000000 0.000000 0.000000
vn 0.000000 1.000000 0.000000
vn 0.000000 1.000000 0.000000
vn 0.000000 1.000000 0.000000
vn 0.000000 1.000000 0.000000
vn -1.000000 0.000000 0.000000
vn -1.000000 0.000000 0.000000
vn -1.000000 0.000000 0.000000
vn -1.000000 0.000000 0.000000
vn 0.000000 0.000000 1.000000
vn 0.000000 0.000000 1.000000
vn 0.000000 0.000000 1.000000
vn 0.000000 0.000000 1.000000
vn 0.000000 0.000000 -1.000000
vn 0.000000 0.000000 -1.000000
vn 0.000000 0.000000 -1.000000
vn 0.000000 0.000000 -1.000000
vn 0.000000 -1.000000 0.000000
vn 0.000000 -1.000000 0.000000
vn 0.000000 -1.000000 0.000000
vn 0.000000 -1.000000 0.000000
vn 1.000000 0.000000 0.000000
vn 1.000000 0.000000 0.000000
vn 1.000000 0.000000 0.000000
vn 1.000000 0.000000 0.000000
vn 0.000000 1.000000 0.000000
vn 0.000000 1.000000 0.000000
vn 0.000000 1.000000 0.000000
vn 0.000000 1.000000 0.000000
vn -1.000000 0.000000 0.000000
vn -1.000000 0.000000 0.000000
vn -1.000000 0.000000 0.000000
vn -1.000000 0.000000 0.000000
vn 0.000000 0.000000 1.000000
vn 0.000000 0.000000 1.000000
vn 0.000000 0.000000 1.000000
vn 0.000000 0.000000 1.000000
vn 0.000000 0.000000 -1.000000
vn 0.000000 0.000000 -1.000000
vn 0.000000 0.000000 -1.000000
vn 0.000000 0.000000 -1.000000
vn 0.000000 -1.000000 0.000000
vn 0.000000 -1.000000 0.000000
vn 0.000000 -1.000000 0.000000
vn 0.000000 -1.000000 0.000000
vn 1.000000 0.000000 0.000000
vn 1.000000 0.000000 0.000000
vn 1.000000 0.000000 0.000000
vn 1.000000 0.000000 0.000000
vn 0.000000 1.000000 0.000000
vn 0.000000 1.000000 0.000000
vn 0.000000 1.000000 0.000000
vn 0.000000 1.000000 0.000000
vn -1.000000 0.000000 0.000000
vn -1.000000 0.000000 0.000000
vn -1.000000 0.000000 0.000000
vn -1.000000 0.000000 0.000000
vn 0.000000 0.000000 1.000000
vn 0.000000 0.000000 1.000000
vn 0.000000 0.000000 1.000000
vn 0.000000 0.000000 1.000000
vn 0.000000 0.000000 -1.000000
vn 0.000000 0.000000 -1.000000
vn 0.000000 0.000000 -1.000000
vn 0.000000 0.000000 -1.000000
vn 0.000000 -1.000000 0.000000
vn 0.000000 -1.000000 0.000000
vn 0.000000 -1.000000 0.000000
vn 0.000000 -1.000000 0.000000
vn 1.000000 0.000000 0.000000
vn 1.000000 0.000000 0.000000
vn 1.000000 0.000000 0.000000
vn 1.000000 0.000000 0.000000
vn 0.000000 1.000000 0.000000
vn 0.000000 1.000000 0.000000
vn 0.000000 1.000000 0.000000
vn 0.000000 1.000000 0.000000
vn -1.000000 0.000000 0.000000
vn -1.000000 0.000000 0.000000
vn -1.000000 0.000000 0.000000
vn -1.000000 0.000000 0.000000
vn 0.000000 0.000000 1.000000
vn 0.000000 0.000000 1.000000
vn 0.000000 0.000000 1.000000
vn 0.000000 0.000000 1.000000
vn 0.000000 0.000000 -1.000000
vn 0.000000 0.000000 -1.000000
vn 0.000000 0.000000 -1.000000
vn 0.000000 0.000000 -1.000000
vn 0.000000 -1.000000 0.000000
vn 0.000000 -1.000000 0.000000
vn 0.000000 -1.000000 0.000000
vn 0.000000 -1.000000 0.000000
vn 1.000000 0.000000 0.000000
vn 1.000000 0.000000 0.000000
vn 1.000000 0.000000 0.000000
vn 1.000000 0.000000 0.000000
vn 0.000000 1.000000 0.000000
vn 0.000000 1.000000 0.000000
vn 0.000000 1.000000 0.000000
vn 0.000000 1.000000 0.000000
vn -1.000000 0.000000 0.000000
vn -1.000000 0.000000 0.000000
vn -1.000000 0.000000 0.000000
vn -1.000000 0.000000 0.000000
vn 0.000000 0.000000 1.000000
vn 0.000000 0.000000 1.000000
vn 0.000000 0.000000 1.000000
vn 0.000000 0.000000 1.000000
vn 0.000000 0.000000 -1.000000
vn 0.000000 0.000000 -1.000000
vn 0.000000 0.000000 -1.000000
vn 0.000000 0.000000 -1.000000
vn 0.000000 -1.000000 0.000000
vn 0.000000 -1.000000 0.000000
vn 0.000000 -1.000000 0.000000
vn 0.000000 -1.000000 0.000000
vn 1.000000 0.000000 0.000000
vn 1.000000 0.000000 0.000000
vn 1.000000 0.000000 0.000000
vn 1.000000 0.000000 0.000000
vn 0.000000 1.000000 0.000000
vn 0.000000 1.000000 0.000000
vn 0.000000 1.000000 0.000000
vn 0.000000 1.000000 0.000000
vn -1.000000 0.000000 0.000000
vn -1.000000 0.000000 0.000000
vn -1.000000 0.000000 0.000000
vn -1.000000 0.000000 0.000000
vn 0.000000 0.000000 1.000000
vn 0.000000 0.000000 1.000000
vn 0.000000 0.000000 1.000000
vn 0.000000 0.000000 1.000000
vn 0.000000 0.000000 -1.000000
vn 0.000000 0.000000 -1.000000
vn 0.000000 0.000000 -1.000000
vn 0.000000 0.000000 -1.000000
vn 0.000000 -1.000000 0.000000
vn 0.000000 -1.000000 0.000000
vn 0.000000 -1.000000 0.000000
vn 0.000000 -1.000000 0.000000
vn 1.000000 0.000000 0.000000
vn 1.000000 0.000000 0.000000
vn 1.000000 0.000000 0.000000
vn 1.000000 0.000000 0.000000
vn 0.000000 1.000000 0.000000
vn 0.000000 1.000000 0.000000
vn 0.000000 1.000000 0.000000
vn 0.000000 1.000000 0.000000
vn -1.000000 0.000000 0.000000
vn -1.000000 0.000000 0.000000
vn -1.000000 0.000000 0.000000
vn -1.000000 0.000000 0.000000
vn 0.000000 0.000000 -1.000000
vn 0.000000 0.000000 -1.000000
vn 0.000000 0.000000 -1.000000
vn 0.000000 0.000000 -1.000000
vn 0.000000 0.000000 1.000000
vn 0.000000 0.000000 1.000000
vn 0.000000 0.000000 1.000000
vn 0.000000 0.000000 1.000000
vn 0.000000 -1.000000 0.000000
vn 0.000000 -1.000000 0.000000
vn 0.000000 -1.000000 0.000000
vn 0.000000 -1.000000 0.000000
vn 1.000000 0.000000 0.000000
vn 1.000000 0.000000 0.000000
vn 1.000000 0.000000 0.000000
vn 1.000000 0.000000 0.000000
vn 0.000000 1.000000 0.000000
vn 0.000000 1.000000 0.000000
vn 0.000000 1.000000 0.000000
vn 0.000000 1.000000 0.000000
vn -1.000000 0.000000 0.000000
vn -1.000000 0.000000 0.000000
vn -1.000000 0.000000 0.000000
vn -1.000000 0.000000 0.000000
vn 0.000000 0.000000 -1.000000
vn 0.000000 0.000000 -1.000000
vn 0.000000 0.000000 -1.000000
vn 0.000000 0.000000 -1.000000
vn 0.000000 0.000000 1.000000
vn 0.000000 0.000000 1.000000
vn 0.000000 0.000000 1.000000
vn 0.000000 0.000000 1.000000
vn 0.000000 -1.000000 0.000000
vn 0.000000 -1.000000 0.000000
vn 0.000000 -1.000000 0.000000
vn 0.000000 -1.000000 0.000000
vn 1.000000 0.000000 0.000000
vn 1.000000 0.000000 0.000000
vn 1.000000 0.000000 0.000000
vn 1.000000 0.000000 0.000000
vn 0.000000 1.000000 0.000000
vn 0.000000 1.000000 0.000000
vn 0.000000 1.000000 0.000000
vn 0.000000 1.000000 0.000000
vn -1.000000 0.000000 0.000000
vn -1.000000 0.000000 0.000000
vn -1.000000 0.000000 0.000000
vn -1.000000 0.000000 0.000000
vn 0.000000 0.000000 -1.000000
vn 0.000000 0.000000 -1.000000
vn 0.000000 0.000000 -1.000000
vn 0.000000 0.000000 -1.000000
vn 0.000000 0.000000 1.000000
vn 0.000000 0.000000 1.000000
vn 0.000000 0.000000 1.000000
vn 0.000000 0.000000 1.000000
vn 0.000000 -1.000000 0.000000
vn 0.000000 -1.000000 0.000000
vn 0.000000 -1.000000 0.000000
vn 0.000000 -1.000000 0.000000
vn 1.000000 0.000000 0.000000
vn 1.000000 0.000000 0.000000
vn 1.000000 0.000000 0.000000
vn 1.000000 0.000000 0.000000
vn 0.000000 1.000000 0.000000
vn 0.000000 1.000000 0.000000
vn 0.000000 1.000000 0.000000
vn 0.000000 1.000000 0.000000
vn -1.000000 0.000000 0.000000
vn -1.000000 0.000000 0.000000
vn -1.000000 0.000000 0.000000
vn -1.000000 0.000000 0.000000
vn 0.000000 0.000000 -1.000000
vn 0.000000 0.000000 -1.000000
vn 0.000000 0.000000 -1.000000
vn 0.000000 0.000000 -1.000000
vn 0.000000 0.000000 1.000000
vn 0.000000 0.000000 1.000000
vn 0.000000 0.000000 1.000000
vn 0.000000 0.000000 1.000000
vn 0.000000 -1.000000 0.000000
vn 0.000000 -1.000000 0.000000
vn 0.000000 -1.000000 0.000000
vn 0.000000 -1.000000 0.000000
vn 1.000000 0.000000 0.000000
vn 1.000000 0.000000 0.000000
vn 1.000000 0.000000 0.000000
vn 1.000000 0.000000 0.000000
vn 0.000000 1.000000 0.000000
vn 0.000000 1.000000 0.000000
vn 0.000000 1.000000 0.000000
vn 0.000000 1.000000 0.000000
vn -1.000000 0.000000 0.000000
vn -1.000000 0.000000 0.000000
vn -1.000000 0.000000 0.000000
vn -1.000000 0.000000 0.000000
vn 0.000000 0.000000 -1.000000
vn 0.000000 0.000000 -1.000000
vn 0.000000 0.000000 -1.000000
vn 0.000000 0.000000 -1.000000
vn 0.000000 0.000000 1.000000
vn 0.000000 0.000000 1.000000
vn 0.000000 0.000000 1.000000
vn 0.000000 0.000000 1.000000
vn 0.000000 -1.000000 0.000000
vn 0.000000 -1.000000 0.000000
vn 0.000000 -1.000000 0.000000
vn 0.000000 -1.000000 0.000000
vn 1.000000 0.000000 0.000000
vn 1.000000 0.000000 0.000000
vn 1.000000 0.000000 0.000000
vn 1.000000 0.000000 0.000000
vn 0.000000 1.000000 0.000000
vn 0.000000 1.000000 0.000000
vn 0.000000 1.000000 0.000000
vn 0.000000 1.000000 0.000000
vn -1.000000 0.000000 0.000000
vn -1.000000 0.000000 0.000000
vn -1.000000 0.000000 0.000000
vn -1.000000 0.000000 0.000000
vn 0.000000 0.000000 -1.000000
vn 0.000000 0.000000 -1.000000
vn 0.000000 0.000000 -1.000000
vn 0.000000 0.000000 -1.000000
vn 0.000000 0.000000 1.000000
vn 0.000000 0.000000 1.000000
vn 0.000000 0.000000 1.000000
vn 0.000000 0.000000 1.000000
vn 0.000000 -1.000000 0.000000
vn 0.000000 -1.000000 0.000000
vn 0.000000 -1.000000 0.000000
vn 0.000000 -1.000000 0.000000
vn 1.000000 0.000000 0.000000
vn 1.000000 0.000000 0.000000
vn 1.000000 0.000000 0.000000
vn 1.000000 0.000000 0.000000
vn 0.000000 1.000000 0.000000
vn 0.000000 1.000000 0.000000
vn 0.000000 1.000000 0.000000
vn 0.000000 1.000000 0.000000
vn -1.000000 0.000000 0.000000
vn -1.000000 0.000000 0.000000
vn -1.000000 0.000000 0.000000
vn -1.000000 0.000000 0.000000
vn 0.000000 0.000000 -1.000000
vn 0.000000 0.000000 -1.000000
vn 0.000000 0.000000 -1.000000
vn 0.000000 0.000000 -1.000000
vn 0.000000 0.000000 1.000000
vn 0.000000 0.000000 1.000000
vn 0.000000 0.000000 1.000000
vn 0.000000 0.000000 1.000000
vn 0.000000 -1.000000 0.000000
vn 0.000000 -1.000000 0.000000
vn 0.000000 -1.000000 0.000000
vn 0.000000 -1.000000 0.000000
vn 1.000000 0.000000 0.000000
vn 1.000000 0.000000 0.000000
vn 1.000000 0.000000 0.000000
vn 1.000000 0.000000 0.000000
vn 0.000000 1.000000 0.000000
vn 0.000000 1.000000 0.000000
vn 0.000000 1.000000 0.000000
vn 0.000000 1.000000 0.000000
vn -1.000000 0.000000 0.000000
vn -1.000000 0.000000 0.000000
vn -1.000000 0.000000 0.000000
vn -1.000000 0.000000 0.000000
vn 0.000000 0.000000 -1.000000
vn 0.000000 0.000000 -1.000000
vn 0.000000 0.000000 -1.000000
vn 0.000000 0.000000 -1.000000
vn 0.000000 0.000000 1.000000
vn 0.000000 0.000000 1.000000
vn 0.000000 0.000000 1.000000
vn 0.000000 0.000000 1.000000
vn 0.000000 -1.000000 0.000000
vn 0.000000 -1.000000 0.000000
vn 0.000000 -1.000000 0.000000
vn 0.000000 -1.000000 0.000000
vn 1.000000 0.000000 0.000000
vn 1.000000 0.000000 0.000000
vn 1.000000 0.000000 0.000000
vn 1.000000 0.000000 0.000000
vn 0.000000 1.000000 0.000000
vn 0.000000 1.000000 0.000000
vn 0.000000 1.000000 0.000000
vn 0.000000 1.000000 0.000000
vn -1.000000 0.000000 0.000000
vn -1.000000 0.000000 0.000000
vn -1.000000 0.000000 0.000000
vn -1.000000 0.000000 0.000000
vn 0.000000 0.000000 -1.000000
vn 0.000000 0.000000 -1.000000
vn 0.000000 0.000000 -1.000000
vn 0.000000 0.000000 -1.000000
vn 0.000000 0.000000 1.000000
vn 0.000000 0.000000 1.000000
vn 0.000000 0.000000 1.000000
vn 0.000000 0.000000 1.000000
vn 0.000000 -1.000000 0.000000
vn 0.000000 -1.000000 0.000000
vn 0.000000 -1.000000 0.000000
vn 0.000000 -1.000000 0.000000
vn 1.000000 0.000000 0.000000
vn 1.000000 0.000000 0.000000
vn 1.000000 0.000000 0.000000
vn 1.000000 0.000000 0.000000
vn 0.000000 1.000000 0.000000
vn 0.000000 1.000000 0.000000
vn 0.000000 1.000000 0.000000
vn 0.000000 1.000000 0.000000
vn -1.000000 0.000000 0.000000
vn -1.000000 0.000000 0.000000
vn -1.000000 0.000000 0.000000
vn -1.000000 0.000000 0.000000
vn 0.000000 0.000000 -1.000000
vn 0.000000 0.000000 -1.000000
vn 0.000000 0.000000 -1.000000
vn 0.000000 0.000000 -1.000000
vn 0.000000 0.000000 1.000000
vn 0.000000 0.000000 1.000000
vn 0.000000 0.000000 1.000000
vn 0.000000 0.000000 1.000000
vn 0.000000 -1.000000 0.000000
vn 0.000000 -1.000000 0.000000
vn 0.000000 -1.000000 0.000000
vn 0.000000 -1.000000 0.000000
vn 1.000000 0.000000 0.000000
vn 1.000000 0.000000 0.000000
vn 1.000000 0.000000 0.000000
vn 1.000000 0.000000 0.000000
vn 0.000000 1.000000 0.000000
vn 0.000000 1.000000 0.000000
vn 0.000000 1.000000 0.000000
vn 0.000000 1.000000 0.000000
vn -1.000000 0.000000 0.000000
vn -1.000000 0.000000 0.000000
vn -1.000000 0.000000 0.000000
vn -1.000000 0.000000 0.000000
vn 0.000000 0.000000 -1.000000
vn 0.000000 0.000000 -1.000000
vn 0.000000 0.000000 -1.000000
vn 0.000000 0.000000 -1.000000
vn 0.000000 0.000000 1.000000
vn 0.000000 0.000000 1.000000
vn 0.000000 0.000000 1.000000
vn 0.000000 0.000000 1.000000
vn 0.000000 -1.000000 0.000000
vn 0.000000 -1.000000 0.000000
vn 0.000000 -1.000000 0.000000
vn 0.000000 -1.000000 0.000000
vn 1.000000 0.000000 0.000000
vn 1.000000 0.000000 0.000000
vn 1.000000 0.000000 0.000000
vn 1.000000 0.000000 0.000000
vn 0.000000 1.000000 0.000000
vn 0.000000 1.000000 0.000000
vn 0.000000 1.000000 0.000000
vn 0.000000 1.000000 0.000000
vn -1.000000 0.000000 0.000000
vn -1.000000 0.000000 0.000000
vn -1.000000 0.000000 0.000000
vn -1.000000 0.000000 0.000000
vn 0.000000 0.000000 -1.000000
vn 0.000000 0.000000 -1.000000
vn 0.000000 0.000000 -1.000000
vn 0.000000 0.000000 -1.000000
vn 0.000000 0.000000 1.000000
vn 0.000000 0.000000 1.000000
vn 0.000000 0.000000 1.000000
vn 0.000000 0.000000 1.000000
vn 0.000000 -1.000000 0.000000
vn 0.000000 -1.000000 0.000000
vn 0.000000 -1.000000 0.000000
vn 0.000000 -1.000000 0.000000
vn 1.000000 0.000000 0.000000
vn 1.000000 0.000000 0.000000
vn 1.000000 0.000000 0.000000
vn 1.000000 0.000000 0.000000
vn 0.000000 1.000000 0.000000
vn 0.000000 1.000000 0.000000
vn 0.000000 1.000000 0.000000
vn 0.000000 1.000000 0.000000
vn -1.000000 0.000000 0.000000
vn -1.000000 0.000000 0.000000
vn -1.000000 0.000000 0.000000
vn -1.000000 0.000000 0.000000
vn 0.000000 0.000000 -1.000000
vn 0.000000 0.000000 -1.000000
vn 0.000000 0.000000 -1.000000
vn 0.000000 0.000000 -1.000000
vn 0.000000 0.000000 1.000000
vn 0.000000 0.000000 1.000000
vn 0.000000 0.000000 1.000000
vn 0.000000 0.000000 1.000000
vn 0.000000 -1.000000 0.000000
vn 0.000000 -1.000000 0.000000
vn 0.000000 -1.000000 0.000000
vn 0.000000 -1.000000 0.000000
vn 1.000000 0.000000 0.000000
vn 1.000000 0.000000 0.000000
vn 1.000000 0.000000 0.000000
vn 1.000000 0.000000 0.000000
vn 0.000000 1.000000 0.000000
vn 0.000000 1.000000 0.000000
vn 0.000000 1.000000 0.000000
vn 0.000000 1.000000 0.000000
vn -1.000000 0.000000 0.000000
vn -1.000000 0.000000 0.000000
vn -1.000000 0.000000 0.000000
vn -1.000000 0.000000 0.000000
vn 0.000000 0.000000 -1.000000
vn 0.000000 0.000000 -1.000000
vn 0.000000 0.000000 -1.000000
vn 0.000000 0.000000 -1.000000
vn 0.000000 0.000000 1.000000
vn 0.000000 0.000000 1.000000
vn 0.000000 0.000000 1.000000
vn 0.000000 0.000000 1.000000
vn 0.000000 -1.000000 0.000000
vn 0.000000 -1.000000 0.000000
vn 0.000000 -1.000000 0.000000
vn 0.000000 -1.000000 0.000000
vn 1.000000 0.000000 0.000000
vn 1.000000 0.000000 0.000000
vn 1.000000 0.000000 0.000000
vn 1.000000 0.000000 0.000000
vn 0.000000 1.000000 0.000000
vn 0.000000 1.000000 0.000000
vn 0.000000 1.000000 0.000000
vn 0.000000 1.000000 0.000000
vn -1.000000 0.000000 0.000000
vn -1.000000 0.000000 0.000000
vn -1.000000 0.000000 0.000000
vn -1.000000 0.000000 0.000000
vn 0.000000 0.000000 1.000000
vn 0.000000 0.000000 1.000000
vn 0.000000 0.000000 1.000000
vn 0.000000 0.000000 1.000000
vn 0.000000 0.000000 1.000000
vn 0.000000 0.000000 1.000000
vn 0.000000 0.000000 1.000000
vn 0.000000 0.000000 1.000000
vn 0.000000 0.000000 -1.000000
vn 0.000000 0.000000 -1.000000
vn 0.000000 0.000000 -1.000000
vn 0.000000 0.000000 -1.000000
vn 0.000000 0.000000 -1.000000
vn 0.000000 0.000000 -1.000000
vn 0.000000 0.000000 -1.000000
vn 0.000000 0.000000 -1.000000
vn 0.000000 -1.000000 0.000000
vn 0.000000 -1.000000 0.000000
vn 0.000000 -1.000000 0.000000
vn 0.000000 -1.000000 0.000000
vn 1.000000 0.000000 0.000000
vn 1.000000 0.000000 0.000000
vn 1.000000 0.000000 0.000000
vn 1.000000 0.000000 0.000000
vn 0.000000 -1.000000 0.000000
vn 0.000000 -1.000000 0.000000
vn 0.000000 -1.000000 0.000000
vn 0.000000 -1.000000 0.000000
vn -1.000000 0.000000 0.000000
vn -1.000000 0.000000 0.000000
vn -1.000000 0.000000 0.000000
vn -1.000000 0.000000 0.000000
vn 0.000000 -1.000000 0.000000
vn 0.000000 -1.000000 0.000000
vn 0.000000 -1.000000 0.000000
vn 0.000000 -1.000000 0.000000
vn 1.000000 0.000000 0.000000
vn 1.000000 0.000000 0.000000
vn 1.000000 0.000000 0.000000
vn 1.000000 0.000000 0.000000
vn 0.000000 1.000000 0.000000
vn 0.000000 1.000000 0.000000
vn 0.000000 1.000000 0.000000
vn 0.000000 1.000000 0.000000
vn -1.000000 0.000000 0.000000
vn -1.000000 0.000000 0.000000
vn -1.000000 0.000000 0.000000
vn -1.000000 0.000000 0.000000
vn -0.316216 0.948606 -0.012441
vn -0.948665 -0.316222 -0.006221
vn 0.316228 -0.948601 -0.012441
vn 0.948677 0.316184 -0.006220
vn 0.316228 0.948601 0.012441
vn -0.948665 0.316222 0.006221
vn -0.316216 -0.948606 0.012441
vn 0.948677 -0.316184 0.006220
vn -0.316228 0.948601 -0.012441
vn -0.948677 -0.316184 -0.006220
vn 0.316216 -0.948606 -0.012441
vn 0.948665 0.316222 -0.006221
vn 0.316216 0.948606 0.012441
vn -0.948677 0.316184 0.006220
vn -0.316228 -0.948601 0.012441
vn 0.948665 -0.316222 0.006221
vn -0.316216 0.948606 -0.012441
vn -0.948665 -0.316222 -0.006221
vn 0.316228 -0.948601 -0.012441
vn 0.948677 0.316184 -0.006220
vn 0.316228 0.948601 0.012441
vn -0.948665 0.316222 0.006221
vn -0.316216 -0.948606 0.012441
vn 0.948677 -0.316184 0.006220
vn -0.316228 0.948601 -0.012441
vn -0.948677 -0.316184 -0.006220
vn 0.316216 -0.948606 -0.012441
vn 0.948665 0.316222 -0.006221
vn 0.316216 0.948606 0.012441
vn -0.948677 0.316184 0.006220
vn -0.316228 -0.948601 0.012441
vn 0.948665 -0.316222 0.006221
vn 0.000000 0.000000 -1.000000
vn 0.000000 0.000000 -1.000000
vn 0.000000 0.000000 -1.000000
vn 0.000000 0.000000 -1.000000
vn 0.000000 -0.419505 0.907753
vn 0.000000 -0.419505 0.907753
vn 0.000000 -0.419505 0.907753
vn 0.000000 -0.419505 0.907753
vn 0.000000 -1.000000 0.000000
vn 0.000000 -1.000000 0.000000
vn 0.000000 -1.000000 0.000000
vn 0.000000 -1.000000 0.000000
vn 1.000000 0.000000 0.000000
vn 1.000000 0.000000 0.000000
vn 1.000000 0.000000 0.000000
vn 1.000000 0.000000 0.000000
vn 0.000000 1.000000 0.000000
vn 0.000000 1.000000 0.000000
vn 0.000000 1.000000 0.000000
vn 0.000000 1.000000 0.000000
vn -1.000000 0.000000 0.000000
vn -1.000000 0.000000 0.000000
vn -1.000000 0.000000 0.000000
vn -1.000000 0.000000 0.000000
vn 0.000000 -1.000000 0.000000
vn 0.000000 -1.000000 0.000000
vn 0.000000 -1.000000 0.000000
vn 0.000000 -1.000000 0.000000
vn 0.000000 -1.000000 0.000000
vn 0.000000 -1.000000 0.000000
vn 0.000000 -1.000000 0.000000
vn 0.000000 -1.000000 0.000000
vn 0.000000 -1.000000 0.000000
vn 0.000000 -1.000000 0.000000
vn 0.000000 -1.000000 0.000000
vn 0.000000 -1.000000 0.000000
vn 0.000000 -1.000000 0.000000
vn 0.000000 -1.000000 0.000000
vn 0.000000 -1.000000 0.000000
vn 0.000000 -1.000000 0.000000
vn 0.000000 -1.000000 0.000000
vn 0.000000 -1.000000 0.000000
vn 0.000000 -1.000000 0.000000
vn 0.000000 -1.000000 0.000000
vn 0.000000 -1.000000 0.000000
vn 0.000000 -1.000000 0.000000
vn 0.000000 -1.000000 0.000000
vn 0.000000 -1.000000 0.000000
vn 0.000000 -1.000000 0.000000
vn 0.000000 -1.000000 0.000000
vn 0.000000 -1.000000 0.000000
vn 0.000000 1.000000 0.000000
vn 0.000000 1.000000 0.000000
vn 0.000000 1.000000 0.000000
vn 0.000000 1.000000 0.000000
vn 0.000000 1.000000 0.000000
vn 0.000000 1.000000 0.000000
vn 0.000000 1.000000 0.000000
vn 0.000000 1.000000 0.000000
vn 0.000000 1.000000 0.000000
vn 0.000000 1.000000 0.000000
vn 0.000000 1.000000 0.000000
vn 0.000000 1.000000 0.000000
vn 0.000000 1.000000 0.000000
vn 0.000000 1.000000 0.000000
vn 0.000000 1.000000 0.000000
vn 0.000000 1.000000 0.000000
vn 0.000000 1.000000 0.000000
vn 0.000000 1.000000 0.000000
vn 0.000000 1.000000 0.000000
vn 0.000000 1.000000 0.000000
vn 0.000000 1.000000 0.000000
vn 0.000000 1.000000 0.000000
vn 0.000000 1.000000 0.000000
vn 0.000000 1.000000 0.000000
vn 0.000000 1.000000 0.000000
vn 0.000000 1.000000 0.000000
vn 0.000000 1.000000 0.000000
vn 0.000000 0.000000 -1.000000
vn 0.000000 0.000000 -1.000000
vn 0.000000 0.000000 -1.000000
vn 0.000000 0.000000 -1.000000
vn 1.000000 0.000000 0.000000
vn 1.000000 0.000000 0.000000
vn 1.000000 0.000000 0.000000
vn 1.000000 0.000000 0.000000
vn 0.995780 0.000000 0.091778
vn 0.995780 0.000000 0.091778
vn 0.995780 0.000000 0.091778
vn 0.995780 0.000000 0.091778
vn 0.963032 0.000000 0.269386
vn 0.963032 0.000000 0.269386
vn 0.963032 0.000000 0.269386
vn 0.963032 0.000000 0.269386
vn 0.902451 0.000000 0.430793
vn 0.902451 0.000000 0.430793
vn 0.902451 0.000000 0.430793
vn 0.902451 0.000000 0.430793
vn 0.821745 0.000000 0.569855
vn 0.821745 0.000000 0.569855
vn 0.821745 0.000000 0.569855
vn 0.821745 0.000000 0.569855
vn 0.728757 0.000000 0.684773
vn 0.728757 0.000000 0.684773
vn 0.728757 0.000000 0.684773
vn 0.728757 0.000000 0.684773
vn 0.629840 0.000000 0.776725
vn 0.629840 0.000000 0.776725
vn 0.629840 0.000000 0.776725
vn 0.629840 0.000000 0.776725
vn 0.529149 0.000000 0.848529
vn 0.529149 0.000000 0.848529
vn 0.529149 0.000000 0.848529
vn 0.529149 0.000000 0.848529
vn 0.429167 0.000000 0.903225
vn 0.429167 0.000000 0.903225
vn 0.429167 0.000000 0.903225
vn 0.429167 0.000000 0.903225
vn 0.330924 0.000000 0.943657
vn 0.330924 0.000000 0.943657
vn 0.330924 0.000000 0.943657
vn 0.330924 0.000000 0.943657
vn 0.234650 0.000000 0.972080
vn 0.234650 0.000000 0.972080
vn 0.234650 0.000000 0.972080
vn 0.234650 0.000000 0.972080
vn 0.140058 0.000000 0.990143
vn 0.140058 0.000000 0.990143
vn 0.140058 0.000000 0.990143
vn 0.140058 0.000000 0.990143
vn 0.046558 0.000000 0.998916
vn 0.046558 0.000000 0.998916
vn 0.046558 0.000000 0.998916
vn 0.046558 0.000000 0.998916
vn -0.046558 0.000000 0.998916
vn -0.046558 0.000000 0.998916
vn -0.046558 0.000000 0.998916
vn -0.046558 0.000000 0.998916
vn -0.140054 0.000000 0.990144
vn -0.140054 0.000000 0.990144
vn -0.140054 0.000000 0.990144
vn -0.140054 0.000000 0.990144
vn -0.234650 0.000000 0.972080
vn -0.234650 0.000000 0.972080
vn -0.234650 0.000000 0.972080
vn -0.234650 0.000000 0.972080
vn -0.330924 0.000000 0.943657
vn -0.330924 0.000000 0.943657
vn -0.330924 0.000000 0.943657
vn -0.330924 0.000000 0.943657
vn -0.429167 0.000000 0.903225
vn -0.429167 0.000000 0.903225
vn -0.429167 0.000000 0.903225
vn -0.429167 0.000000 0.903225
vn -0.529163 0.000000 0.848520
vn -0.529163 0.000000 0.848520
vn -0.529163 0.000000 0.848520
vn -0.529163 0.000000 0.848520
vn -0.629824 0.000000 0.776738
vn -0.629824 0.000000 0.776738
vn -0.629824 0.000000 0.776738
vn -0.629824 0.000000 0.776738
vn -0.728757 0.000000 0.684773
vn -0.728757 0.000000 0.684773
vn -0.728757 0.000000 0.684773
vn -0.728757 0.000000 0.684773
vn -0.821745 0.000000 0.569855
vn -0.821745 0.000000 0.569855
vn -0.821745 0.000000 0.569855
vn -0.821745 0.000000 0.569855
vn -0.902451 0.000000 0.430793
vn -0.902451 0.000000 0.430793
vn -0.902451 0.000000 0.430793
vn -0.902451 0.000000 0.430793
vn -0.963032 0.000000 0.269386
vn -0.963032 0.000000 0.269386
vn -0.963032 0.000000 0.269386
vn -0.963032 0.000000 0.269386
vn -0.995780 0.000000 0.091778
vn -0.995780 0.000000 0.091778
vn -0.995780 0.000000 0.091778
vn -0.995780 0.000000 0.091778
vn -1.000000 0.000000 0.000000
vn -1.000000 0.000000 0.000000
vn -1.000000 0.000000 0.000000
vn -1.000000 0.000000 0.000000
vn 0.000000 0.000000 -1.000000
vn 0.000000 0.000000 -1.000000
vn 0.000000 0.000000 -1.000000
vn 0.000000 0.000000 -1.000000
vn 0.000000 0.000000 1.000000
vn 0.000000 0.000000 1.000000
vn 0.000000 0.000000 1.000000
vn 0.000000 0.000000 1.000000
vn 0.000000 -1.000000 0.000000
vn 0.000000 -1.000000 0.000000
vn 0.000000 -1.000000 0.000000
vn 0.000000 -1.000000 0.000000
vn 1.000000 0.000000 0.000000
vn 1.000000 0.000000 0.000000
vn 1.000000 0.000000 0.000000
vn 1.000000 0.000000 0.000000
vn 0.000000 1.000000 0.000000
vn 0.000000 1.000000 0.000000
vn 0.000000 1.000000 0.000000
vn 0.000000 1.000000 0.000000
vn -1.000000 0.000000 0.000000
vn -1.000000 0.000000 0.000000
vn -1.000000 0.000000 0.000000
vn -1.000000 0.000000 0.000000
f 6//6 1//1 2//2
f 2//2 3//3 4//4
f 2//2 4//4 5//5
f 2//2 5//5 6//6
f 8//8 7//7 12//12
f 10//10 9//9 8//8
f 11//11 10//10 8//8
f 12//12 11//11 8//8
f 13//13 14//14 15//15
f 13//13 15//15 16//16
f 17//17 18//18 19//19
f 17//17 19//19 20//20
f 21//21 22//22 23//23
f 21//21 23//23 24//24
f 25//25 26//26 27//27
f 25//25 27//27 28//28
f 29//29 30//30 31//31
f 29//29 31//31 32//32
f 33//33 34//34 35//35
f 33//33 35//35 36//36
f 37//37 38//38 39//39
f 37//37 39//39 40//40
f 42//42 37//37 40//40
f 40//40 41//41 42//42
f 45//45 44//44 43//43
f 46//46 45//45 43//43
f 46//46 43//43 48//48
f 48//48 47//47 46//46
f 49//49 50//50 51//51
f 49//49 51//51 52//52
f 53//53 54//54 55//55
f 53//53 55//55 56//56
f 57//57 58//58 59//59
f 57//57 59//59 60//60
f 61//61 62//62 63//63
f 61//61 63//63 64//64
f 65//65 66//66 67//67
f 65//65 67//67 68//68
f 69//69 70//70 71//71
f 69//69 71//71 72//72
f 73//73 74//74 75//75
f 73//73 75//75 76//76
f 80//80 73//73 76//76
f 80//80 76//76 77//77
f 80//80 77//77 78//78
f 78//78 79//79 80//80
f 83//83 82//82 81//81
f 84//84 83//83 81//81
f 84//84 81//81 88//88
f 85//85 84//84 88//88
f 86//86 85//85 88//88
f 88//88 87//87 86//86
f 89//89 90//90 91//91
f 89//89 91//91 92//92
f 93//93 94//94 95//95
f 93//93 95//95 96//96
f 97//97 98//98 99//99
f 97//97 99//99 100//100
f 101//101 102//102 103//103
f 101//101 103//103 104//104
f 105//105 106//106 107//107
f 105//105 107//107 108//108
f 109//109 110//110 111//111
f 109//109 111//111 112//112
f 113//113 114//114 115//115
f 113//113 115//115 116//116
f 117//117 118//118 119//119
f 117//117 119//119 120//120
f 128//128 121//121 122//122
f 123//123 124//124 125//125
f 123//123 125//125 126//126
f 122//122 123//123 126//126
f 122//122 126//126 127//127
f 122//122 127//127 128//128
f 130//130 129//129 136//136
f 133//133 132//132 131//131
f 134//134 133//133 131//131
f 134//134 131//131 130//130
f 135//135 134//134 130//130
f 136//136 135//135 130//130
f 137//137 138//138 139//139
f 137//137 139//139 140//140
f 141//141 142//142 143//143
f 141//141 143//143 144//144
f 145//145 146//146 147//147
f 145//145 147//147 148//148
f 149//149 150//150 151//151
f 149//149 151//151 152//152
f 153//153 154//154 155//155
f 153//153 155//155 156//156
f 157//157 158//158 159//159
f 157//157 159//159 160//160
f 161//161 162//162 163//163
f 161//161 163//163 164//164
f 165//165 166//166 167//167
f 165//165 167//167 168//168
f 172//172 169//169 170//170
f 170//170 171//171 172//172
f 174//174 173//173 176//176
f 176//176 175//175 174//174
f 177//177 178//178 179//179
f 177//177 179//179 180//180
f 181//181 182//182 183//183
f 181//181 183//183 184//184
f 185//185 186//186 187//187
f 185//185 187//187 188//188
f 189//189 190//190 191//191
f 189//189 191//191 192//192
f 196//196 193//193 194//194
f 194//194 195//195 196//196
f 198//198 197//197 200//200
f 200//200 199//199 198//198
f 201//201 202//202 203//203
f 201//201 203//203 204//204
f 205//205 206//206 207//207
f 205//205 207//207 208//208
f 209//209 210//210 211//211
f 209//209 211//211 212//212
f 213//213 214//214 215//215
f 213//213 215//215 216//216
f 220//220 217//217 218//218
f 218//218 219//219 220//220
f 222//222 221//221 224//224
f 224//224 223//223 222//222
f 225//225 226//226 227//227
f 225//225 227//227 228//228
f 229//229 230//230 231//231
f 229//229 231//231 232//232
f 233//233 234//234 235//235
f 233//233 235//235 236//236
f 237//237 238//238 239//239
f 237//237 239//239 240//240
f 244//244 241//241 242//242
f 242//242 243//243 244//244
f 246//246 245//245 248//248
f 248//248 247//247 246//246
f 249//249 250//250 251//251
f 249//249 251//251 252//252
f 253//253 254//254 255//255
f 253//253 255//255 256//256
f 257//257 258//258 259//259
f 257//257 259//259 260//260
f 261//261 262//262 263//263
f 261//261 263//263 264//264
f 268//268 265//265 266//266
f 266//266 267//267 268//268
f 270//270 269//269 272//272
f 272//272 271//271 270//270
f 273//273 274//274 275//275
f 273//273 275//275 276//276
f 277//277 278//278 279//279
f 277//277 279//279 280//280
f 281//281 282//282 283//283
f 281//281 283//283 284//284
f 285//285 286//286 287//287
f 285//285 287//287 288//288
f 292//292 289//289 290//290
f 290//290 291//291 292//292
f 294//294 293//293 296//296
f 296//296 295//295 294//294
f 297//297 298//298 299//299
f 297//297 299//299 300//300
f 301//301 302//302 303//303
f 301//301 303//303 304//304
f 305//305 306//306 307//307
f 305//305 307//307 308//308
f 309//309 310//310 311//311
f 309//309 311//311 312//312
f 316//316 313//313 314//314
f 314//314 315//315 316//316
f 318//318 317//317 320//320
f 320//320 319//319 318//318
f 321//321 322//322 323//323
f 321//321 323//323 324//324
f 325//325 326//326 327//327
f 325//325 327//327 328//328
f 329//329 330//330 331//331
f 329//329 331//331 332//332
f 333//333 334//334 335//335
f 333//333 335//335 336//336
f 337//337 338//338 339//339
f 337//337 339//339 340//340
f 341//341 342//342 343//343
f 341//341 343//343 344//344
f 345//345 346//346 347//347
f 345//345 347//347 348//348
f 349//349 350//350 351//351
f 349//349 351//351 352//352
f 353//353 354//354 355//355
f 353//353 355//355 356//356
f 357//357 358//358 359//359
f 357//357 359//359 360//360
f 361//361 362//362 363//363
f 361//361 363//363 364//364
f 365//365 366//366 367//367
f 365//365 367//367 368//368
f 369//369 370//370 371//371
f 369//369 371//371 372//372
f 373//373 374//374 375//375
f 373//373 375//375 376//376
f 377//377 378//378 379//379
f 377//377 379//379 380//380
f 381//381 382//382 383//383
f 381//381 383//383 384//384
f 385//385 386//386 387//387
f 385//385 387//387 388//388
f 389//389 390//390 391//391
f 389//389 391//391 392//392
f 393//393 394//394 395//395
f 393//393 395//395 396//396
f 397//397 398//398 399//399
f 397//397 399//399 400//400
f 401//401 402//402 403//403
f 401//401 403//403 404//404
f 405//405 406//406 407//407
f 405//405 407//407 408//408
f 409//409 410//410 411//411
f 409//409 411//411 412//412
f 413//413 414//414 415//415
f 413//413 415//415 416//416
f 417//417 418//418 419//419
f 417//417 419//419 420//420
f 421//421 422//422 423//423
f 421//421 423//423 424//424
f 425//425 426//426 427//427
f 425//425 427//427 428//428
f 429//429 430//430 431//431
f 429//429 431//431 432//432
f 433//433 434//434 435//435
f 433//433 435//435 436//436
f 437//437 438//438 439//439
f 437//437 439//439 440//440
f 441//441 442//442 443//443
f 441//441 443//443 444//444
f 445//445 446//446 447//447
f 445//445 447//447 448//448
f 449//449 450//450 451//451
f 449//449 451//451 452//452
f 453//453 454//454 455//455
f 453//453 455//455 456//456
f 457//457 458//458 459//459
f 457//457 459//459 460//460
f 461//461 462//462 463//463
f 461//461 463//463 464//464
f 465//465 466//466 467//467
f 465//465 467//467 468//468
f 469//469 470//470 471//471
f 469//469 471//471 472//472
f 473//473 474//474 475//475
f 473//473 475//475 476//476
f 477//477 478//478 479//479
f 477//477 479//479 480//480
f 481//481 482//482 483//483
f 481//481 483//483 484//484
f 485//485 486//486 487//487
f 485//485 487//487 488//488
f 489//489 490//490 491//491
f 489//489 491//491 492//492
f 493//493 494//494 495//495
f 493//493 495//495 496//496
f 497//497 498//498 499//499
f 497//497 499//499 500//500
f 501//501 502//502 503//503
f 501//501 503//503 504//504
f 505//505 506//506 507//507
f 505//505 507//507 508//508
f 509//509 510//510 511//511
f 509//509 511//511 512//512
f 513//513 514//514 515//515
f 513//513 515//515 516//516
f 517//517 518//518 519//519
f 517//517 519//519 520//520
f 521//521 522//522 523//523
f 521//521 523//523 524//524
f 525//525 526//526 527//527
f 525//525 527//527 528//528
f 529//529 530//530 531//531
f 529//529 531//531 532//532
f 533//533 534//534 535//535
f 533//533 535//535 536//536
f 537//537 538//538 539//539
f 537//537 539//539 540//540
f 541//541 542//542 543//543
f 541//541 543//543 544//544
f 545//545 546//546 547//547
f 545//545 547//547 548//548
f 549//549 550//550 551//551
f 549//549 551//551 552//552
f 553//553 554//554 555//555
f 553//553 555//555 556//556
f 557//557 558//558 559//559
f 557//557 559//559 560//560
f 561//561 562//562 563//563
f 561//561 563//563 564//564
f 565//565 566//566 567//567
f 565//565 567//567 568//568
f 569//569 570//570 571//571
f 569//569 571//571 572//572
f 573//573 574//574 575//575
f 573//573 575//575 576//576
f 577//577 578//578 579//579
f 577//577 579//579 580//580
f 581//581 582//582 583//583
f 581//581 583//583 584//584
f 585//585 586//586 587//587
f 585//585 587//587 588//588
f 589//589 590//590 591//591
f 589//589 591//591 592//592
f 593//593 594//594 595//595
f 593//593 595//595 596//596
f 597//597 598//598 599//599
f 597//597 599//599 600//600
f 601//601 602//602 603//603
f 601//601 603//603 604//604
f 605//605 606//606 607//607
f 605//605 607//607 608//608
f 609//609 610//610 611//611
f 609//609 611//611 612//612
f 613//613 614//614 615//615
f 613//613 615//615 616//616
f 617//617 618//618 619//619
f 617//617 619//619 620//620
f 621//621 622//622 623//623
f 621//621 623//623 624//624
f 625//625 626//626 627//627
f 625//625 627//627 628//628
f 629//629 630//630 631//631
f 629//629 631//631 632//632
f 633//633 634//634 635//635
f 633//633 635//635 636//636
f 637//637 638//638 639//639
f 637//637 639//639 640//640
f 641//641 642//642 643//643
f 641//641 643//643 644//644
f 645//645 646//646 647//647
f 645//645 647//647 648//648
f 649//649 650//650 651//651
f 649//649 651//651 652//652
f 653//653 654//654 655//655
f 653//653 655//655 656//656
f 657//657 658//658 659//659
f 657//657 659//659 660//660
f 661//661 662//662 663//663
f 661//661 663//663 664//664
f 665//665 666//666 667//667
f 665//665 667//667 668//668
f 669//669 670//670 671//671
f 669//669 671//671 672//672
f 680//680 673//673 674//674
f 680//680 674//674 675//675
f 680//680 675//675 676//676
f 676//676 677//677 678//678
f 676//676 678//678 679//679
f 676//676 679//679 680//680
f 682//682 681//681 688//688
f 683//683 682//682 688//688
f 684//684 683//683 688//688
f 686//686 685//685 684//684
f 687//687 686//686 684//684
f 688//688 687//687 684//684
f 689//689 690//690 691//691
f 689//689 691//691 692//692
f 693//693 694//694 695//695
f 693//693 695//695 696//696
f 697//697 698//698 699//699
f 697//697 699//699 700//700
f 701//701 702//702 703//703
f 701//701 703//703 704//704
f 705//705 706//706 707//707
f 705//705 707//707 708//708
f 709//709 710//710 711//711
f 709//709 711//711 712//712
f 713//713 714//714 715//715
f 713//713 715//715 716//716
f 717//717 718//718 719//719
f 717//717 719//719 720//720
f 721//721 722//722 726//726
f 721//721 726//726 725//725
f 722//722 723//723 727//727
f 722//722 727//727 726//726
f 723//723 724//724 728//728
f 723//723 728//728 727//727
f 724//724 721//721 725//725
f 724//724 725//725 728//728
f 721//721 723//723 722//722
f 721//721 724//724 723//723
f 725//725 726//726 727//727
f 725//725 727//727 728//728
f 729//729 730//730 734//734
f 729//729 734//734 733//733
f 730//730 731//731 735//735
f 730//730 735//735 734//734
f 731//731 732//732 736//736
f 731//731 736//736 735//735
f 732//732 729//729 733//733
f 732//732 733//733 736//736
f 729//729 731//731 730//730
f 729//729 732//732 731//731
f 733//733 734//734 735//735
f 733//733 735//735 736//736
f 737//737 738//738 742//742
f 737//737 742//742 741//741
f 738//738 739//739 743//743
f 738//738 743//743 742//742
f 739//739 740//740 744//744
f 739//739 744//744 743//743
f 740//740 737//737 741//741
f 740//740 741//741 744//744
f 737//737 739//739 738//738
f 737//737 740//740 739//739
f 741//741 742//742 743//743
f 741//741 743//743 744//744
f 745//745 746//746 750//750
f 745//745 750//750 749//749
f 746//746 747//747 751//751
f 746//746 751//751 750//750
f 747//747 748//748 752//752
f 747//747 752//752 751//751
f 748//748 745//745 749//749
f 748//748 749//749 752//752
f 745//745 747//747 746//746
f 745//745 748//748 747//747
f 749//749 750//750 751//751
f 749//749 751//751 752//752
f 753//753 754//754 755//755
f 753//753 755//755 756//756
f 757//757 758//758 759//759
f 757//757 759//759 760//760
f 761//761 762//762 763//763
f 761//761 763//763 764//764
f 765//765 766//766 767//767
f 765//765 767//767 768//768
f 769//769 770//770 771//771
f 769//769 771//771 772//772
f 773//773 774//774 775//775
f 773//773 775//775 776//776
f 803//803 777//777 778//778
f 803//803 778//778 779//779
f 803//803 779//779 780//780
f 803//803 780//780 781//781
f 803//803 781//781 782//782
f 803//803 782//782 783//783
f 803//803 783//783 784//784
f 803//803 784//784 785//785
f 803//803 785//785 786//786
f 803//803 786//786 787//787
f 803//803 787//787 788//788
f 803//803 788//788 789//789
f 803//803 789//789 790//790
f 803//803 790//790 791//791
f 803//803 791//791 792//792
f 803//803 792//792 793//793
f 803//803 793//793 794//794
f 803//803 794//794 795//795
f 803//803 795//795 796//796
f 803//803 796//796 797//797
f 803//803 797//797 798//798
f 803//803 798//798 799//799
f 803//803 799//799 800//800
f 803//803 800//800 801//801
f 801//801 802//802 803//803
f 805//805 804//804 830//830
f 806//806 805//805 830//830
f 807//807 806//806 830//830
f 808//808 807//807 830//830
f 809//809 808//808 830//830
f 810//810 809//809 830//830
f 811//811 810//810 830//830
f 812//812 811//811 830//830
f 813//813 812//812 830//830
f 814//814 813//813 830//830
f 815//815 814//814 830//830
f 816//816 815//815 830//830
f 817//817 816//816 830//830
f 818//818 817//817 830//830
f 819//819 818//818 830//830
f 820//820 819//819 830//830
f 821//821 820//820 830//830
f 822//822 821//821 830//830
f 823//823 822//822 830//830
f 824//824 823//823 830//830
f 825//825 824//824 830//830
f 826//826 825//825 830//830
f 827//827 826//826 830//830
f 828//828 827//827 830//830
f 830//830 829//829 828//828
f 831//831 832//832 833//833
f 831//831 833//833 834//834
f 835//835 836//836 837//837
f 835//835 837//837 838//838
f 839//839 840//840 841//841
f 839//839 841//841 842//842
f 843//843 844//844 845//845
f 843//843 845//845 846//846
f 847//847 848//848 849//849
f 847//847 849//849 850//850
f 851//851 852//852 853//853
f 851//851 853//853 854//854
f 855//855 856//856 857//857
f 855//855 857//857 858//858
f 859//859 860//860 861//861
f 859//859 861//861 862//862
f 863//863 864//864 865//865
f 863//863 865//865 866//866
f 867//867 868//868 869//869
f 867//867 869//869 870//870
f 871//871 872//872 873//873
f 871//871 873//873 874//874
f 875//875 876//876 877//877
f 875//875 877//877 878//878
f 879//879 880//880 881//881
f 879//879 881//881 882//882
f 883//883 884//884 885//885
f 883//883 885//885 886//886
f 887//887 888//888 889//889
f 887//887 889//889 890//890
f 891//891 892//892 893//893
f 891//891 893//893 894//894
f 895//895 896//896 897//897
f 895//895 897//897 898//898
f 899//899 900//900 901//901
f 899//899 901//901 902//902
f 903//903 904//904 905//905
f 903//903 905//905 906//906
f 907//907 908//908 909//909
f 907//907 909//909 910//910
f 911//911 912//912 913//913
f 911//911 913//913 914//914
f 915//915 916//916 917//917
f 915//915 917//917 918//918
f 919//919 920//920 921//921
f 919//919 921//921 922//922
f 923//923 924//924 925//925
f 923//923 925//925 926//926
f 927//927 928//928 929//929
f 927//927 929//929 930//930
f 931//931 932//932 933//933
f 931//931 933//933 934//934
f 935//935 936//936 937//937
f 935//935 937//937 938//938
f 939//939 940//940 941//941
f 939//939 941//941 942//942
f 943//943 944//944 945//945
f 943//943 945//945 946//946
f 947//947 948//948 949//949
f 947//947 949//949 950//950
f 951//951 952//952 953//953
f 951//951 953//953 954//954
f 955//955 956//956 957//957
f 955//955 957//957 958//958
f 959//959 960//960 961//961
f 959//959 961//961 962//962
