# Dongfeng sandbox; metres; X right, Y far, Z up
mtllib scene.mtl
usemtl paving
v 0.610000 0.870000 0.014000
v 1.080000 0.870000 0.014000
v 1.080000 0.925000 0.014000
v 0.610000 0.925000 0.014000
v 0.620000 1.130000 0.014000
v 1.220000 1.130000 0.014000
v 1.220000 1.190000 0.014000
v 0.620000 1.190000 0.014000
v 0.710000 1.530000 0.014000
v 1.200000 1.530000 0.014000
v 1.200000 1.590000 0.014000
v 0.710000 1.590000 0.014000
v 0.710000 1.020000 0.014000
v 0.770000 1.020000 0.014000
v 0.770000 1.900000 0.014000
v 0.710000 1.900000 0.014000
v 1.080000 0.650000 0.014000
v 1.140000 0.650000 0.014000
v 1.140000 1.940000 0.014000
v 1.080000 1.940000 0.014000
v 1.099303 0.750000 0.014000
v 1.102113 0.775078 0.014000
v 1.093217 0.799316 0.014000
v 1.074737 0.820938 0.014000
v 1.050125 0.839087 0.014000
v 1.023076 0.853955 0.014000
v 0.996499 0.866515 0.014000
v 0.971890 0.877984 0.014000
v 0.949261 0.889247 0.014000
v 0.927586 0.900470 0.014000
v 0.905536 0.911063 0.014000
v 0.882167 0.919978 0.014000
v 0.857304 0.926235 0.014000
v 0.831486 0.929423 0.014000
v 0.805538 0.929980 0.014000
v 0.780000 0.929099 0.014000
v 0.754702 0.928290 0.014000
v 0.728706 0.928756 0.014000
v 0.700685 0.930820 0.014000
v 0.669622 0.933639 0.014000
v 0.635536 0.935347 0.014000
v 0.599932 0.933587 0.014000
v 0.565735 0.926271 0.014000
v 0.536663 0.912297 0.014000
v 0.516209 0.891967 0.014000
v 0.506549 0.866946 0.014000
v 0.507779 0.839778 0.014000
v 0.517745 0.813120 0.014000
v 0.532572 0.788957 0.014000
v 0.547728 0.768084 0.014000
v 0.559303 0.750000 0.014000
v 0.565071 0.733267 0.014000
v 0.565017 0.716151 0.014000
v 0.561166 0.697331 0.014000
v 0.556810 0.676392 0.014000
v 0.555422 0.653955 0.014000
v 0.559630 0.631401 0.014000
v 0.570592 0.610332 0.014000
v 0.587930 0.591989 0.014000
v 0.610182 0.576863 0.014000
v 0.635536 0.564653 0.014000
v 0.662529 0.554560 0.014000
v 0.690435 0.545812 0.014000
v 0.719213 0.538164 0.014000
v 0.749092 0.532171 0.014000
v 0.780000 0.529099 0.014000
v 0.811148 0.530481 0.014000
v 0.840978 0.537497 0.014000
v 0.867554 0.550397 0.014000
v 0.889260 0.568221 0.014000
v 0.905536 0.588937 0.014000
v 0.917336 0.609980 0.014000
v 0.927065 0.629013 0.014000
v 0.937962 0.644645 0.014000
v 0.953078 0.656853 0.014000
v 0.974203 0.666946 0.014000
v 1.001094 0.677083 0.014000
v 1.031316 0.689513 0.014000
v 1.060771 0.705793 0.014000
v 1.084770 0.726272 0.014000
v 1.118695 1.420000 0.014000
v 1.119476 1.426896 0.014000
v 1.117005 1.433562 0.014000
v 1.111871 1.439508 0.014000
v 1.105035 1.444499 0.014000
v 1.097521 1.448588 0.014000
v 1.090139 1.452042 0.014000
v 1.083303 1.455196 0.014000
v 1.077017 1.458293 0.014000
v 1.070996 1.461379 0.014000
v 1.064871 1.464292 0.014000
v 1.058380 1.466744 0.014000
v 1.051473 1.468464 0.014000
v 1.044302 1.469341 0.014000
v 1.037094 1.469495 0.014000
v 1.030000 1.469252 0.014000
v 1.022973 1.469030 0.014000
v 1.015752 1.469158 0.014000
v 1.007968 1.469725 0.014000
v 0.999339 1.470501 0.014000
v 0.989871 1.470971 0.014000
v 0.979981 1.470487 0.014000
v 0.970482 1.468475 0.014000
v 0.962407 1.464632 0.014000
v 0.956725 1.459041 0.014000
v 0.954041 1.452160 0.014000
v 0.954383 1.444689 0.014000
v 0.957151 1.437358 0.014000
v 0.961270 1.430713 0.014000
v 0.965480 1.424973 0.014000
v 0.968695 1.420000 0.014000
v 0.970298 1.415398 0.014000
v 0.970283 1.410692 0.014000
v 0.969213 1.405516 0.014000
v 0.968003 1.399758 0.014000
v 0.967617 1.393588 0.014000
v 0.968786 1.387385 0.014000
v 0.971831 1.381591 0.014000
v 0.976647 1.376547 0.014000
v 0.982828 1.372387 0.014000
v 0.989871 1.369030 0.014000
v 0.997369 1.366254 0.014000
v 1.005121 1.363848 0.014000
v 1.013115 1.361745 0.014000
v 1.021415 1.360097 0.014000
v 1.030000 1.359252 0.014000
v 1.038652 1.359632 0.014000
v 1.046938 1.361562 0.014000
v 1.054321 1.365109 0.014000
v 1.060350 1.370011 0.014000
v 1.064871 1.375708 0.014000
v 1.068149 1.381495 0.014000
v 1.070851 1.386729 0.014000
v 1.073878 1.391027 0.014000
v 1.078077 1.394385 0.014000
v 1.083945 1.397160 0.014000
v 1.091415 1.399948 0.014000
v 1.099810 1.403366 0.014000
v 1.107992 1.407843 0.014000
v 1.114658 1.413475 0.014000
v 0.954608 1.790000 0.014000
v 0.955441 1.798777 0.014000
v 0.952805 1.807261 0.014000
v 0.947329 1.814828 0.014000
v 0.940037 1.821180 0.014000
v 0.932022 1.826384 0.014000
v 0.924148 1.830780 0.014000
v 0.916856 1.834795 0.014000
v 0.910151 1.838736 0.014000
v 0.903729 1.842665 0.014000
v 0.897196 1.846372 0.014000
v 0.890272 1.849492 0.014000
v 0.882905 1.851682 0.014000
v 0.875255 1.852798 0.014000
v 0.867567 1.852993 0.014000
v 0.860000 1.852685 0.014000
v 0.852504 1.852401 0.014000
v 0.844802 1.852565 0.014000
v 0.836499 1.853287 0.014000
v 0.827295 1.854274 0.014000
v 0.817196 1.854872 0.014000
v 0.806646 1.854256 0.014000
v 0.796514 1.851695 0.014000
v 0.787900 1.846804 0.014000
v 0.781840 1.839688 0.014000
v 0.778978 1.830931 0.014000
v 0.779342 1.821422 0.014000
v 0.782295 1.812092 0.014000
v 0.786688 1.803635 0.014000
v 0.791179 1.796329 0.014000
v 0.794608 1.790000 0.014000
v 0.796317 1.784143 0.014000
v 0.796301 1.778153 0.014000
v 0.795160 1.771566 0.014000
v 0.793870 1.764237 0.014000
v 0.793458 1.756384 0.014000
v 0.794705 1.748490 0.014000
v 0.797953 1.741116 0.014000
v 0.803090 1.734696 0.014000
v 0.809684 1.729402 0.014000
v 0.817196 1.725128 0.014000
v 0.825194 1.721596 0.014000
v 0.833462 1.718534 0.014000
v 0.841989 1.715857 0.014000
v 0.850842 1.713760 0.014000
v 0.860000 1.712685 0.014000
v 0.869229 1.713168 0.014000
v 0.878068 1.715624 0.014000
v 0.885942 1.720139 0.014000
v 0.892373 1.726377 0.014000
v 0.897196 1.733628 0.014000
v 0.900692 1.740993 0.014000
v 0.903575 1.747655 0.014000
v 0.906803 1.753126 0.014000
v 0.911282 1.757398 0.014000
v 0.917542 1.760931 0.014000
v 0.925509 1.764479 0.014000
v 0.934464 1.768830 0.014000
v 0.943192 1.774527 0.014000
v 0.950302 1.781695 0.014000
v 2.250000 0.640000 0.014000
v 2.870000 0.640000 0.014000
v 2.870000 0.680000 0.014000
v 2.250000 0.680000 0.014000
v 2.660000 0.710000 0.014000
v 2.700000 0.710000 0.014000
v 2.700000 1.920000 0.014000
v 2.660000 1.920000 0.014000
vn 0.000000 0.000000 1.000000
vn 0.000000 0.000000 1.000000
vn 0.000000 0.000000 1.000000
vn 0.000000 0.000000 1.000000
vn 0.000000 0.000000 1.000000
vn 0.000000 0.000000 1.000000
vn 0.000000 0.000000 1.000000
vn 0.000000 0.000000 1.000000
vn 0.000000 0.000000 1.000000
vn 0.000000 0.000000 1.000000
vn 0.000000 0.000000 1.000000
vn 0.000000 0.000000 1.000000
vn 0.000000 0.000000 1.000000
vn 0.000000 0.000000 1.000000
vn 0.000000 0.000000 1.000000
vn 0.000000 0.000000 1.000000
vn 0.000000 0.000000 1.000000
vn 0.000000 0.000000 1.000000
vn 0.000000 0.000000 1.000000
vn 0.000000 0.000000 1.000000
vn 0.000000 0.000000 1.000000
vn 0.000000 0.000000 1.000000
vn 0.000000 0.000000 1.000000
vn 0.000000 0.000000 1.000000
vn 0.000000 0.000000 1.000000
vn 0.000000 0.000000 1.000000
vn 0.000000 0.000000 1.000000
vn 0.000000 0.000000 1.000000
vn 0.000000 0.000000 1.000000
vn 0.000000 0.000000 1.000000
vn 0.000000 0.000000 1.000000
vn 0.000000 0.000000 1.000000
vn 0.000000 0.000000 1.000000
vn 0.000000 0.000000 1.000000
vn 0.000000 0.000000 1.000000
vn 0.000000 0.000000 1.000000
vn 0.000000 0.000000 1.000000
vn 0.000000 0.000000 1.000000
vn 0.000000 0.000000 1.000000
vn 0.000000 0.000000 1.000000
vn 0.000000 0.000000 1.000000
vn 0.000000 0.000000 1.000000
vn 0.000000 0.000000 1.000000
vn 0.000000 0.000000 1.000000
vn 0.000000 0.000000 1.000000
vn 0.000000 0.000000 1.000000
vn 0.000000 0.000000 1.000000
vn 0.000000 0.000000 1.000000
vn 0.000000 0.000000 1.000000
vn 0.000000 0.000000 1.000000
vn 0.000000 0.000000 1.000000
vn 0.000000 0.000000 1.000000
vn 0.000000 0.000000 1.000000
vn 0.000000 0.000000 1.000000
vn 0.000000 0.000000 1.000000
vn 0.000000 0.000000 1.000000
vn 0.000000 0.000000 1.000000
vn 0.000000 0.000000 1.000000
vn 0.000000 0.000000 1.000000
vn 0.000000 0.000000 1.000000
vn 0.000000 0.000000 1.000000
vn 0.000000 0.000000 1.000000
vn 0.000000 0.000000 1.000000
vn 0.000000 0.000000 1.000000
vn 0.000000 0.000000 1.000000
vn 0.000000 0.000000 1.000000
vn 0.000000 0.000000 1.000000
vn 0.000000 0.000000 1.000000
vn 0.000000 0.000000 1.000000
vn 0.000000 0.000000 1.000000
vn 0.000000 0.000000 1.000000
vn 0.000000 0.000000 1.000000
vn 0.000000 0.000000 1.000000
vn 0.000000 0.000000 1.000000
vn 0.000000 0.000000 1.000000
vn 0.000000 0.000000 1.000000
vn 0.000000 0.000000 1.000000
vn 0.000000 0.000000 1.000000
vn 0.000000 0.000000 1.000000
vn 0.000000 0.000000 1.000000
vn 0.000000 0.000000 1.000000
vn 0.000000 0.000000 1.000000
vn 0.000000 0.000000 1.000000
vn 0.000000 0.000000 1.000000
vn 0.000000 0.000000 1.000000
vn 0.000000 0.000000 1.000000
vn 0.000000 0.000000 1.000000
vn 0.000000 0.000000 1.000000
vn 0.000000 0.000000 1.000000
vn 0.000000 0.000000 1.000000
vn 0.000000 0.000000 1.000000
vn 0.000000 0.000000 1.000000
vn 0.000000 0.000000 1.000000
vn 0.000000 0.000000 1.000000
vn 0.000000 0.000000 1.000000
vn 0.000000 0.000000 1.000000
vn 0.000000 0.000000 1.000000
vn 0.000000 0.000000 1.000000
vn 0.000000 0.000000 1.000000
vn 0.000000 0.000000 1.000000
vn 0.000000 0.000000 1.000000
vn 0.000000 0.000000 1.000000
vn 0.000000 0.000000 1.000000
vn 0.000000 0.000000 1.000000
vn 0.000000 0.000000 1.000000
vn 0.000000 0.000000 1.000000
vn 0.000000 0.000000 1.000000
vn 0.000000 0.000000 1.000000
vn 0.000000 0.000000 1.000000
vn 0.000000 0.000000 1.000000
vn 0.000000 0.000000 1.000000
vn 0.000000 0.000000 1.000000
vn 0.000000 0.000000 1.000000
vn 0.000000 0.000000 1.000000
vn 0.000000 0.000000 1.000000
vn 0.000000 0.000000 1.000000
vn 0.000000 0.000000 1.000000
vn 0.000000 0.000000 1.000000
vn 0.000000 0.000000 1.000000
vn 0.000000 0.000000 1.000000
vn 0.000000 0.000000 1.000000
vn 0.000000 0.000000 1.000000
vn 0.000000 0.000000 1.000000
vn 0.000000 0.000000 1.000000
vn 0.000000 0.000000 1.000000
vn 0.000000 0.000000 1.000000
vn 0.000000 0.000000 1.000000
vn 0.000000 0.000000 1.000000
vn 0.000000 0.000000 1.000000
vn 0.000000 0.000000 1.000000
vn 0.000000 0.000000 1.000000
vn 0.000000 0.000000 1.000000
vn 0.000000 0.000000 1.000000
vn 0.000000 0.000000 1.000000
vn 0.000000 0.000000 1.000000
vn 0.000000 0.000000 1.000000
vn 0.000000 0.000000 1.000000
vn 0.000000 0.000000 1.000000
vn 0.000000 0.000000 1.000000
vn 0.000000 0.000000 1.000000
vn 0.000000 0.000000 1.000000
vn 0.000000 0.000000 1.000000
vn 0.000000 0.000000 1.000000
vn 0.000000 0.000000 1.000000
vn 0.000000 0.000000 1.000000
vn 0.000000 0.000000 1.000000
vn 0.000000 0.000000 1.000000
vn 0.000000 0.000000 1.000000
vn 0.000000 0.000000 1.000000
vn 0.000000 0.000000 1.000000
vn 0.000000 0.000000 1.000000
vn 0.000000 0.000000 1.000000
vn 0.000000 0.000000 1.000000
vn 0.000000 0.000000 1.000000
vn 0.000000 0.000000 1.000000
vn 0.000000 0.000000 1.000000
vn 0.000000 0.000000 1.000000
vn 0.000000 0.000000 1.000000
vn 0.000000 0.000000 1.000000
vn 0.000000 0.000000 1.000000
vn 0.000000 0.000000 1.000000
vn 0.000000 0.000000 1.000000
vn 0.000000 0.000000 1.000000
vn 0.000000 0.000000 1.000000
vn 0.000000 0.000000 1.000000
vn 0.000000 0.000000 1.000000
vn 0.000000 0.000000 1.000000
vn 0.000000 0.000000 1.000000
vn 0.000000 0.000000 1.000000
vn 0.000000 0.000000 1.000000
vn 0.000000 0.000000 1.000000
vn 0.000000 0.000000 1.000000
vn 0.000000 0.000000 1.000000
vn 0.000000 0.000000 1.000000
vn 0.000000 0.000000 1.000000
vn 0.000000 0.000000 1.000000
vn 0.000000 0.000000 1.000000
vn 0.000000 0.000000 1.000000
vn 0.000000 0.000000 1.000000
vn 0.000000 0.000000 1.000000
vn 0.000000 0.000000 1.000000
vn 0.000000 0.000000 1.000000
vn 0.000000 0.000000 1.000000
vn 0.000000 0.000000 1.000000
vn 0.000000 0.000000 1.000000
vn 0.000000 0.000000 1.000000
vn 0.000000 0.000000 1.000000
vn 0.000000 0.000000 1.000000
vn 0.000000 0.000000 1.000000
vn 0.000000 0.000000 1.000000
vn 0.000000 0.000000 1.000000
vn 0.000000 0.000000 1.000000
vn 0.000000 0.000000 1.000000
vn 0.000000 0.000000 1.000000
vn 0.000000 0.000000 1.000000
vn 0.000000 0.000000 1.000000
vn 0.000000 0.000000 1.000000
vn 0.000000 0.000000 1.000000
vn 0.000000 0.000000 1.000000
vn 0.000000 0.000000 1.000000
vn 0.000000 0.000000 1.000000
vn 0.000000 0.000000 1.000000
vn 0.000000 0.000000 1.000000
vn 0.000000 0.000000 1.000000
vn 0.000000 0.000000 1.000000
vn 0.000000 0.000000 1.000000
vn 0.000000 0.000000 1.000000
vn 0.000000 0.000000 1.000000
f 4//4 1//1 2//2
f 2//2 3//3 4//4
f 8//8 5//5 6//6
f 6//6 7//7 8//8
f 12//12 9//9 10//10
f 10//10 11//11 12//12
f 16//16 13//13 14//14
f 14//14 15//15 16//16
f 20//20 17//17 18//18
f 18//18 19//19 20//20
f 80//80 21//21 22//22
f 80//80 22//22 23//23
f 80//80 23//23 24//24
f 80//80 24//24 25//25
f 80//80 25//25 26//26
f 80//80 26//26 27//27
f 80//80 27//27 28//28
f 80//80 28//28 29//29
f 80//80 29//29 30//30
f 80//80 30//30 31//31
f 80//80 31//31 32//32
f 80//80 32//32 33//33
f 80//80 33//33 34//34
f 80//80 34//34 35//35
f 80//80 35//35 36//36
f 80//80 36//36 37//37
f 80//80 37//37 38//38
f 80//80 38//38 39//39
f 80//80 39//39 40//40
f 80//80 40//40 41//41
f 80//80 41//41 42//42
f 80//80 42//42 43//43
f 80//80 43//43 44//44
f 80//80 44//44 45//45
f 80//80 45//45 46//46
f 80//80 46//46 47//47
f 80//80 47//47 48//48
f 80//80 48//48 49//49
f 80//80 49//49 50//50
f 80//80 50//50 51//51
f 80//80 51//51 52//52
f 80//80 52//52 53//53
f 80//80 53//53 54//54
f 80//80 54//54 55//55
f 80//80 55//55 56//56
f 80//80 56//56 57//57
f 80//80 57//57 58//58
f 80//80 58//58 59//59
f 80//80 59//59 60//60
f 80//80 60//60 61//61
f 80//80 61//61 62//62
f 80//80 62//62 63//63
f 80//80 63//63 64//64
f 64//64 65//65 66//66
f 64//64 66//66 67//67
f 64//64 67//67 68//68
f 64//64 68//68 69//69
f 64//64 69//69 70//70
f 64//64 70//70 71//71
f 64//64 71//71 72//72
f 64//64 72//72 73//73
f 64//64 73//73 74//74
f 64//64 74//74 75//75
f 80//80 64//64 75//75
f 80//80 75//75 76//76
f 80//80 76//76 77//77
f 80//80 77//77 78//78
f 78//78 79//79 80//80
f 140//140 81//81 82//82
f 140//140 82//82 83//83
f 140//140 83//83 84//84
f 140//140 84//84 85//85
f 140//140 85//85 86//86
f 140//140 86//86 87//87
f 140//140 87//87 88//88
f 140//140 88//88 89//89
f 140//140 89//89 90//90
f 140//140 90//90 91//91
f 140//140 91//91 92//92
f 140//140 92//92 93//93
f 140//140 93//93 94//94
f 140//140 94//94 95//95
f 140//140 95//95 96//96
f 140//140 96//96 97//97
f 140//140 97//97 98//98
f 140//140 98//98 99//99
f 140//140 99//99 100//100
f 140//140 100//100 101//101
f 140//140 101//101 102//102
f 140//140 102//102 103//103
f 140//140 103//103 104//104
f 140//140 104//104 105//105
f 140//140 105//105 106//106
f 140//140 106//106 107//107
f 140//140 107//107 108//108
f 140//140 108//108 109//109
f 140//140 109//109 110//110
f 140//140 110//110 111//111
f 140//140 111//111 112//112
f 140//140 112//112 113//113
f 140//140 113//113 114//114
f 140//140 114//114 115//115
f 140//140 115//115 116//116
f 140//140 116//116 117//117
f 140//140 117//117 118//118
f 140//140 118//118 119//119
f 140//140 119//119 120//120
f 140//140 120//120 121//121
f 140//140 121//121 122//122
f 140//140 122//122 123//123
f 140//140 123//123 124//124
f 124//124 125//125 126//126
f 124//124 126//126 127//127
f 124//124 127//127 128//128
f 124//124 128//128 129//129
f 124//124 129//129 130//130
f 124//124 130//130 131//131
f 124//124 131//131 132//132
f 124//124 132//132 133//133
f 124//124 133//133 134//134
f 124//124 134//134 135//135
f 140//140 124//124 135//135
f 140//140 135//135 136//136
f 140//140 136//136 137//137
f 140//140 137//137 138//138
f 138//138 139//139 140//140
f 200//200 141//141 142//142
f 200//200 142//142 143//143
f 200//200 143//143 144//144
f 200//200 144//144 145//145
f 200//200 145//145 146//146
f 200//200 146//146 147//147
f 200//200 147//147 148//148
f 200//200 148//148 149//149
f 200//200 149//149 150//150
f 200//200 150//150 151//151
f 200//200 151//151 152//152
f 200//200 152//152 153//153
f 200//200 153//153 154//154
f 200//200 154//154 155//155
f 200//200 155//155 156//156
f 200//200 156//156 157//157
f 200//200 157//157 158//158
f 200//200 158//158 159//159
f 200//200 159//159 160//160
f 200//200 160//160 161//161
f 200//200 161//161 162//162
f 200//200 162//162 163//163
f 200//200 163//163 164//164
f 200//200 164//164 165//165
f 200//200 165//165 166//166
f 200//200 166//166 167//167
f 200//200 167//167 168//168
f 200//200 168//168 169//169
f 200//200 169//169 170//170
f 200//200 170//170 171//171
f 200//200 171//171 172//172
f 200//200 172//172 173//173
f 200//200 173//173 174//174
f 200//200 174//174 175//175
f 200//200 175//175 176//176
f 200//200 176//176 177//177
f 200//200 177//177 178//178
f 200//200 178//178 179//179
f 200//200 179//179 180//180
f 200//200 180//180 181//181
f 200//200 181//181 182//182
f 200//200 182//182 183//183
f 200//200 183//183 184//184
f 184//184 185//185 186//186
f 184//184 186//186 187//187
f 184//184 187//187 188//188
f 184//184 188//188 189//189
f 184//184 189//189 190//190
f 184//184 190//190 191//191
f 184//184 191//191 192//192
f 184//184 192//192 193//193
f 184//184 193//193 194//194
f 184//184 194//194 195//195
f 200//200 184//184 195//195
f 200//200 195//195 196//196
f 200//200 196//196 197//197
f 200//200 197//197 198//198
f 198//198 199//199 200//200
f 204//204 201//201 202//202
f 202//202 203//203 204//204
f 208//208 205//205 206//206
f 206//206 207//207 208//208
