# Dongfeng sandbox; metres; X right, Y far, Z up
mtllib scene.mtl
usemtl grass
v 1.139529 0.448000 0.013000
v 1.159022 0.449022 0.013000
v 1.177835 0.452001 0.013000
v 1.196234 0.456931 0.013000
v 1.214016 0.463757 0.013000
v 1.230988 0.472405 0.013000
v 1.246962 0.482779 0.013000
v 1.261765 0.494766 0.013000
v 1.275234 0.508235 0.013000
v 1.287221 0.523038 0.013000
v 1.297595 0.539012 0.013000
v 1.306243 0.555984 0.013000
v 1.313069 0.573767 0.013000
v 1.317999 0.592165 0.013000
v 1.320978 0.610978 0.013000
v 1.322000 0.630471 0.013000
v 1.322000 1.959529 0.013000
v 1.321307 1.972750 0.013000
v 1.319310 1.985360 0.013000
v 1.316005 1.997692 0.013000
v 1.311430 2.009612 0.013000
v 1.305634 2.020988 0.013000
v 1.298680 2.031695 0.013000
v 1.290645 2.041617 0.013000
v 1.281617 2.050645 0.013000
v 1.271695 2.058680 0.013000
v 1.260988 2.065634 0.013000
v 1.249612 2.071430 0.013000
v 1.237692 2.076005 0.013000
v 1.225360 2.079310 0.013000
v 1.212750 2.081307 0.013000
v 1.199529 2.082000 0.013000
v 0.550471 2.082000 0.013000
v 0.533069 2.081088 0.013000
v 0.516323 2.078436 0.013000
v 0.499947 2.074048 0.013000
v 0.484119 2.067972 0.013000
v 0.469012 2.060275 0.013000
v 0.454793 2.051041 0.013000
v 0.441617 2.040371 0.013000
v 0.429629 2.028383 0.013000
v 0.418959 2.015207 0.013000
v 0.409725 2.000988 0.013000
v 0.402028 1.985881 0.013000
v 0.395952 1.970053 0.013000
v 0.391564 1.953677 0.013000
v 0.388912 1.936931 0.013000
v 0.388000 1.919529 0.013000
v 0.388000 0.870471 0.013000
v 0.390336 0.825892 0.013000
v 0.397246 0.782266 0.013000
v 0.408678 0.739602 0.013000
v 0.424506 0.698367 0.013000
v 0.444559 0.659012 0.013000
v 0.468615 0.621969 0.013000
v 0.496411 0.587643 0.013000
v 0.527643 0.556411 0.013000
v 0.561969 0.528615 0.013000
v 0.599012 0.504559 0.013000
v 0.638367 0.484506 0.013000
v 0.679602 0.468678 0.013000
v 0.722266 0.457246 0.013000
v 0.765892 0.450336 0.013000
v 0.810471 0.448000 0.013000
v 2.489529 0.448000 0.013000
v 2.534108 0.450336 0.013000
v 2.577734 0.457246 0.013000
v 2.620398 0.468678 0.013000
v 2.661633 0.484506 0.013000
v 2.700988 0.504559 0.013000
v 2.738031 0.528615 0.013000
v 2.772357 0.556411 0.013000
v 2.803589 0.587643 0.013000
v 2.831385 0.621969 0.013000
v 2.855441 0.659012 0.013000
v 2.875494 0.698367 0.013000
v 2.891322 0.739602 0.013000
v 2.902754 0.782266 0.013000
v 2.909664 0.825892 0.013000
v 2.912000 0.870471 0.013000
v 2.912000 1.919529 0.013000
v 2.911088 1.936931 0.013000
v 2.908436 1.953677 0.013000
v 2.904048 1.970053 0.013000
v 2.897972 1.985881 0.013000
v 2.890275 2.000988 0.013000
v 2.881041 2.015207 0.013000
v 2.870371 2.028383 0.013000
v 2.858383 2.040371 0.013000
v 2.845207 2.051041 0.013000
v 2.830988 2.060275 0.013000
v 2.815881 2.067972 0.013000
v 2.800053 2.074048 0.013000
v 2.783677 2.078436 0.013000
v 2.766931 2.081088 0.013000
v 2.749529 2.082000 0.013000
v 2.100471 2.082000 0.013000
v 2.087250 2.081307 0.013000
v 2.074640 2.079310 0.013000
v 2.062308 2.076005 0.013000
v 2.050388 2.071430 0.013000
v 2.039012 2.065634 0.013000
v 2.028305 2.058680 0.013000
v 2.018383 2.050645 0.013000
v 2.009355 2.041617 0.013000
v 2.001320 2.031695 0.013000
v 1.994366 2.020988 0.013000
v 1.988570 2.009612 0.013000
v 1.983995 1.997692 0.013000
v 1.980690 1.985360 0.013000
v 1.978693 1.972750 0.013000
v 1.978000 1.959529 0.013000
v 1.978000 0.630471 0.013000
v 1.979022 0.610978 0.013000
v 1.982001 0.592165 0.013000
v 1.986931 0.573767 0.013000
v 1.993757 0.555984 0.013000
v 2.002405 0.539012 0.013000
v 2.012779 0.523038 0.013000
v 2.024766 0.508235 0.013000
v 2.038235 0.494766 0.013000
v 2.053038 0.482779 0.013000
v 2.069012 0.472405 0.013000
v 2.085984 0.463757 0.013000
v 2.103766 0.456931 0.013000
v 2.122165 0.452001 0.013000
v 2.140978 0.449022 0.013000
v 2.160471 0.448000 0.013000
v 1.159411 2.738000 0.013000
v 1.181140 2.739424 0.013000
v 1.201919 2.743557 0.013000
v 1.221980 2.750367 0.013000
v 1.240981 2.759737 0.013000
v 1.258596 2.771508 0.013000
v 1.274524 2.785476 0.013000
v 1.288493 2.801404 0.013000
v 1.300263 2.819019 0.013000
v 1.309633 2.838020 0.013000
v 1.316443 2.858081 0.013000
v 1.320576 2.878860 0.013000
v 1.322000 2.900589 0.013000
v 1.322000 3.239847 0.013000
v 1.321746 3.254836 0.013000
v 1.320999 3.268700 0.013000
v 1.319771 3.281605 0.013000
v 1.318080 3.293576 0.013000
v 1.315944 3.304636 0.013000
v 1.313384 3.314814 0.013000
v 1.310420 3.324144 0.013000
v 1.307075 3.332664 0.013000
v 1.303367 3.340422 0.013000
v 1.299309 3.347471 0.013000
v 1.294907 3.353871 0.013000
v 1.290155 3.359683 0.013000
v 1.285040 3.364967 0.013000
v 1.279536 3.369778 0.013000
v 1.273616 3.374160 0.013000
v 1.267251 3.378147 0.013000
v 1.260414 3.381765 0.013000
v 1.253088 3.385030 0.013000
v 1.245261 3.387956 0.013000
v 1.236926 3.390553 0.013000
v 1.228086 3.392834 0.013000
v 1.218745 3.394811 0.013000
v 1.208911 3.396498 0.013000
v 1.198595 3.397913 0.013000
v 1.187807 3.399074 0.013000
v 1.176558 3.400002 0.013000
v 1.164860 3.400719 0.013000
v 1.152723 3.401250 0.013000
v 1.140158 3.401617 0.013000
v 1.127175 3.401848 0.013000
v 1.113784 3.401966 0.013000
v 1.099534 3.402001 0.013000
v 1.084302 3.402753 0.013000
v 1.068916 3.405001 0.013000
v 1.053873 3.408598 0.013000
v 1.039176 3.413414 0.013000
v 1.024810 3.419323 0.013000
v 1.010749 3.426204 0.013000
v 0.996960 3.433947 0.013000
v 0.983407 3.442446 0.013000
v 0.970052 3.451601 0.013000
v 0.956861 3.461319 0.013000
v 0.943799 3.471508 0.013000
v 0.930836 3.482080 0.013000
v 0.917943 3.492944 0.013000
v 0.905092 3.504016 0.013000
v 0.892261 3.515206 0.013000
v 0.879425 3.526429 0.013000
v 0.866564 3.537597 0.013000
v 0.853660 3.548624 0.013000
v 0.840693 3.559423 0.013000
v 0.827649 3.569907 0.013000
v 0.814514 3.579991 0.013000
v 0.801273 3.589589 0.013000
v 0.787915 3.598620 0.013000
v 0.774430 3.607002 0.013000
v 0.760805 3.614657 0.013000
v 0.747030 3.621509 0.013000
v 0.733090 3.627489 0.013000
v 0.718965 3.632527 0.013000
v 0.704632 3.636561 0.013000
v 0.690057 3.639526 0.013000
v 0.675199 3.641357 0.013000
v 0.659871 3.641990 0.013000
v 0.642562 3.641524 0.013000
v 0.625808 3.640129 0.013000
v 0.609737 3.637828 0.013000
v 0.594333 3.634640 0.013000
v 0.579582 3.630581 0.013000
v 0.565466 3.625668 0.013000
v 0.551965 3.619911 0.013000
v 0.539059 3.613318 0.013000
v 0.526728 3.605895 0.013000
v 0.514954 3.597641 0.013000
v 0.503721 3.588558 0.013000
v 0.493016 3.578640 0.013000
v 0.482831 3.567887 0.013000
v 0.473159 3.556293 0.013000
v 0.463999 3.543859 0.013000
v 0.455349 3.530584 0.013000
v 0.447211 3.516470 0.013000
v 0.439588 3.501522 0.013000
v 0.432482 3.485745 0.013000
v 0.425896 3.469148 0.013000
v 0.419834 3.451739 0.013000
v 0.414297 3.433528 0.013000
v 0.409288 3.414528 0.013000
v 0.404808 3.394749 0.013000
v 0.400858 3.374204 0.013000
v 0.397437 3.352905 0.013000
v 0.394547 3.330865 0.013000
v 0.392185 3.308097 0.013000
v 0.390352 3.284614 0.013000
v 0.389044 3.260427 0.013000
v 0.388261 3.235551 0.013000
v 0.388000 3.209908 0.013000
v 0.388000 2.880589 0.013000
v 0.389253 2.861470 0.013000
v 0.392876 2.843258 0.013000
v 0.398845 2.825674 0.013000
v 0.407058 2.809019 0.013000
v 0.417374 2.793579 0.013000
v 0.429618 2.779618 0.013000
v 0.443579 2.767375 0.013000
v 0.459019 2.757058 0.013000
v 0.475674 2.748845 0.013000
v 0.493258 2.742876 0.013000
v 0.511470 2.739253 0.013000
v 0.530589 2.738000 0.013000
v 2.769411 2.738000 0.013000
v 2.788530 2.739253 0.013000
v 2.806742 2.742876 0.013000
v 2.824326 2.748845 0.013000
v 2.840981 2.757058 0.013000
v 2.856421 2.767375 0.013000
v 2.870382 2.779618 0.013000
v 2.882626 2.793579 0.013000
v 2.892942 2.809019 0.013000
v 2.901155 2.825674 0.013000
v 2.907124 2.843258 0.013000
v 2.910747 2.861470 0.013000
v 2.912000 2.880589 0.013000
v 2.912000 3.319894 0.013000
v 2.911711 3.344410 0.013000
v 2.910854 3.367866 0.013000
v 2.909432 3.390369 0.013000
v 2.907452 3.411928 0.013000
v 2.904922 3.432550 0.013000
v 2.901849 3.452242 0.013000
v 2.898241 3.471013 0.013000
v 2.894108 3.488869 0.013000
v 2.889458 3.505821 0.013000
v 2.884302 3.521879 0.013000
v 2.878649 3.537055 0.013000
v 2.872510 3.551360 0.013000
v 2.865894 3.564811 0.013000
v 2.858811 3.577423 0.013000
v 2.851269 3.589216 0.013000
v 2.843272 3.600211 0.013000
v 2.834824 3.610428 0.013000
v 2.825925 3.619892 0.013000
v 2.816573 3.628624 0.013000
v 2.806761 3.636647 0.013000
v 2.796480 3.643979 0.013000
v 2.785721 3.650637 0.013000
v 2.774473 3.656636 0.013000
v 2.762724 3.661986 0.013000
v 2.750466 3.666695 0.013000
v 2.737689 3.670768 0.013000
v 2.724390 3.674208 0.013000
v 2.710564 3.677018 0.013000
v 2.696210 3.679200 0.013000
v 2.681328 3.680755 0.013000
v 2.665921 3.681687 0.013000
v 2.650014 3.681996 0.013000
v 2.634208 3.681664 0.013000
v 2.619045 3.680688 0.013000
v 2.604467 3.679094 0.013000
v 2.590427 3.676907 0.013000
v 2.576876 3.674151 0.013000
v 2.563765 3.670847 0.013000
v 2.551045 3.667015 0.013000
v 2.538668 3.662674 0.013000
v 2.526587 3.657841 0.013000
v 2.514757 3.652532 0.013000
v 2.503133 3.646763 0.013000
v 2.491675 3.640549 0.013000
v 2.480341 3.633908 0.013000
v 2.469093 3.626857 0.013000
v 2.457893 3.619413 0.013000
v 2.446705 3.611596 0.013000
v 2.435492 3.603428 0.013000
v 2.424218 3.594929 0.013000
v 2.412848 3.586122 0.013000
v 2.401346 3.577029 0.013000
v 2.389676 3.567677 0.013000
v 2.377801 3.558088 0.013000
v 2.365686 3.548288 0.013000
v 2.353294 3.538303 0.013000
v 2.340588 3.528157 0.013000
v 2.327532 3.517879 0.013000
v 2.314089 3.507493 0.013000
v 2.300222 3.497026 0.013000
v 2.285894 3.486506 0.013000
v 2.271068 3.475957 0.013000
v 2.255707 3.465408 0.013000
v 2.239760 3.454875 0.013000
v 2.223689 3.444746 0.013000
v 2.208028 3.435377 0.013000
v 2.192813 3.426713 0.013000
v 2.178057 3.418685 0.013000
v 2.163772 3.411227 0.013000
v 2.149971 3.404269 0.013000
v 2.136670 3.397744 0.013000
v 2.123880 3.391584 0.013000
v 2.111618 3.385723 0.013000
v 2.099897 3.380095 0.013000
v 2.088731 3.374636 0.013000
v 2.078133 3.369285 0.013000
v 2.068116 3.363980 0.013000
v 2.058689 3.358665 0.013000
v 2.049857 3.353283 0.013000
v 2.041620 3.347781 0.013000
v 2.033971 3.342103 0.013000
v 2.026894 3.336191 0.013000
v 2.020364 3.329980 0.013000
v 2.014349 3.323395 0.013000
v 2.008816 3.316349 0.013000
v 2.003736 3.308741 0.013000
v 1.999089 3.300465 0.013000
v 1.994866 3.291413 0.013000
v 1.991071 3.281476 0.013000
v 1.987718 3.270559 0.013000
v 1.984824 3.258571 0.013000
v 1.982414 3.245432 0.013000
v 1.980507 3.231071 0.013000
v 1.979125 3.215419 0.013000
v 1.978285 3.198413 0.013000
v 1.978000 3.179862 0.013000
v 1.978000 2.900589 0.013000
v 1.979424 2.878860 0.013000
v 1.983557 2.858081 0.013000
v 1.990367 2.838020 0.013000
v 1.999737 2.819019 0.013000
v 2.011508 2.801404 0.013000
v 2.025476 2.785476 0.013000
v 2.041404 2.771508 0.013000
v 2.059019 2.759737 0.013000
v 2.078020 2.750367 0.013000
v 2.098081 2.743557 0.013000
v 2.118860 2.739424 0.013000
v 2.140589 2.738000 0.013000
v 1.941978 3.980000 0.013000
v 1.940572 4.008619 0.013000
v 1.936368 4.036962 0.013000
v 1.929406 4.064757 0.013000
v 1.919753 4.091735 0.013000
v 1.907502 4.117638 0.013000
v 1.892771 4.142214 0.013000
v 1.875702 4.165229 0.013000
v 1.856460 4.186460 0.013000
v 1.835229 4.205702 0.013000
v 1.812214 4.222771 0.013000
v 1.787638 4.237502 0.013000
v 1.761735 4.249753 0.013000
v 1.734757 4.259406 0.013000
v 1.706962 4.266368 0.013000
v 1.678619 4.270572 0.013000
v 1.650000 4.271978 0.013000
v 1.621381 4.270572 0.013000
v 1.593038 4.266368 0.013000
v 1.565243 4.259406 0.013000
v 1.538265 4.249753 0.013000
v 1.512362 4.237502 0.013000
v 1.487786 4.222771 0.013000
v 1.464771 4.205702 0.013000
v 1.443540 4.186460 0.013000
v 1.424298 4.165229 0.013000
v 1.407229 4.142214 0.013000
v 1.392498 4.117638 0.013000
v 1.380247 4.091735 0.013000
v 1.370594 4.064757 0.013000
v 1.363632 4.036962 0.013000
v 1.359428 4.008619 0.013000
v 1.358022 3.980000 0.013000
v 1.359428 3.951381 0.013000
v 1.363632 3.923038 0.013000
v 1.370594 3.895243 0.013000
v 1.380247 3.868265 0.013000
v 1.392498 3.842362 0.013000
v 1.407229 3.817786 0.013000
v 1.424298 3.794771 0.013000
v 1.443540 3.773540 0.013000
v 1.464771 3.754298 0.013000
v 1.487786 3.737229 0.013000
v 1.512362 3.722498 0.013000
v 1.538265 3.710247 0.013000
v 1.565243 3.700594 0.013000
v 1.593038 3.693632 0.013000
v 1.621381 3.689428 0.013000
v 1.650000 3.688022 0.013000
v 1.678619 3.689428 0.013000
v 1.706962 3.693632 0.013000
v 1.734757 3.700594 0.013000
v 1.761735 3.710247 0.013000
v 1.787638 3.722498 0.013000
v 1.812214 3.737229 0.013000
v 1.835229 3.754298 0.013000
v 1.856460 3.773540 0.013000
v 1.875702 3.794771 0.013000
v 1.892771 3.817786 0.013000
v 1.907502 3.842362 0.013000
v 1.919753 3.868265 0.013000
v 1.929406 3.895243 0.013000
v 1.936368 3.923038 0.013000
v 1.940572 3.951381 0.013000
vn 0.000000 0.000000 1.000000
vn 0.000000 0.000000 1.000000
vn 0.000000 0.000000 1.000000
vn 0.000000 0.000000 1.000000
vn 0.000000 0.000000 1.000000
vn 0.000000 0.000000 1.000000
vn 0.000000 0.000000 1.000000
vn 0.000000 0.000000 1.000000
vn 0.000000 0.000000 1.000000
vn 0.000000 0.000000 1.000000
vn 0.000000 0.000000 1.000000
vn 0.000000 0.000000 1.000000
vn 0.000000 0.000000 1.000000
vn 0.000000 0.000000 1.000000
vn 0.000000 0.000000 1.000000
vn 0.000000 0.000000 1.000000
vn 0.000000 0.000000 1.000000
vn 0.000000 0.000000 1.000000
vn 0.000000 0.000000 1.000000
vn 0.000000 0.000000 1.000000
vn 0.000000 0.000000 1.000000
vn 0.000000 0.000000 1.000000
vn 0.000000 0.000000 1.000000
vn 0.000000 0.000000 1.000000
vn 0.000000 0.000000 1.000000
vn 0.000000 0.000000 1.000000
vn 0.000000 0.000000 1.000000
vn 0.000000 0.000000 1.000000
vn 0.000000 0.000000 1.000000
vn 0.000000 0.000000 1.000000
vn 0.000000 0.000000 1.000000
vn 0.000000 0.000000 1.000000
vn 0.000000 0.000000 1.000000
vn 0.000000 0.000000 1.000000
vn 0.000000 0.000000 1.000000
vn 0.000000 0.000000 1.000000
vn 0.000000 0.000000 1.000000
vn 0.000000 0.000000 1.000000
vn 0.000000 0.000000 1.000000
vn 0.000000 0.000000 1.000000
vn 0.000000 0.000000 1.000000
vn 0.000000 0.000000 1.000000
vn 0.000000 0.000000 1.000000
vn 0.000000 0.000000 1.000000
vn 0.000000 0.000000 1.000000
vn 0.000000 0.000000 1.000000
vn 0.000000 0.000000 1.000000
vn 0.000000 0.000000 1.000000
vn 0.000000 0.000000 1.000000
vn 0.000000 0.000000 1.000000
vn 0.000000 0.000000 1.000000
vn 0.000000 0.000000 1.000000
vn 0.000000 0.000000 1.000000
vn 0.000000 0.000000 1.000000
vn 0.000000 0.000000 1.000000
vn 0.000000 0.000000 1.000000
vn 0.000000 0.000000 1.000000
vn 0.000000 0.000000 1.000000
vn 0.000000 0.000000 1.000000
vn 0.000000 0.000000 1.000000
vn 0.000000 0.000000 1.000000
vn 0.000000 0.000000 1.000000
vn 0.000000 0.000000 1.000000
vn 0.000000 0.000000 1.000000
vn 0.000000 0.000000 1.000000
vn 0.000000 0.000000 1.000000
vn 0.000000 0.000000 1.000000
vn 0.000000 0.000000 1.000000
vn 0.000000 0.000000 1.000000
vn 0.000000 0.000000 1.000000
vn 0.000000 0.000000 1.000000
vn 0.000000 0.000000 1.000000
vn 0.000000 0.000000 1.000000
vn 0.000000 0.000000 1.000000
vn 0.000000 0.000000 1.000000
vn 0.000000 0.000000 1.000000
vn 0.000000 0.000000 1.000000
vn 0.000000 0.000000 1.000000
vn 0.000000 0.000000 1.000000
vn 0.000000 0.000000 1.000000
vn 0.000000 0.000000 1.000000
vn 0.000000 0.000000 1.000000
vn 0.000000 0.000000 1.000000
vn 0.000000 0.000000 1.000000
vn 0.000000 0.000000 1.000000
vn 0.000000 0.000000 1.000000
vn 0.000000 0.000000 1.000000
vn 0.000000 0.000000 1.000000
vn 0.000000 0.000000 1.000000
vn 0.000000 0.000000 1.000000
vn 0.000000 0.000000 1.000000
vn 0.000000 0.000000 1.000000
vn 0.000000 0.000000 1.000000
vn 0.000000 0.000000 1.000000
vn 0.000000 0.000000 1.000000
vn 0.000000 0.000000 1.000000
vn 0.000000 0.000000 1.000000
vn 0.000000 0.000000 1.000000
vn 0.000000 0.000000 1.000000
vn 0.000000 0.000000 1.000000
vn 0.000000 0.000000 1.000000
vn 0.000000 0.000000 1.000000
vn 0.000000 0.000000 1.000000
vn 0.000000 0.000000 1.000000
vn 0.000000 0.000000 1.000000
vn 0.000000 0.000000 1.000000
vn 0.000000 0.000000 1.000000
vn 0.000000 0.000000 1.000000
vn 0.000000 0.000000 1.000000
vn 0.000000 0.000000 1.000000
vn 0.000000 0.000000 1.000000
vn 0.000000 0.000000 1.000000
vn 0.000000 0.000000 1.000000
vn 0.000000 0.000000 1.000000
vn 0.000000 0.000000 1.000000
vn 0.000000 0.000000 1.000000
vn 0.000000 0.000000 1.000000
vn 0.000000 0.000000 1.000000
vn 0.000000 0.000000 1.000000
vn 0.000000 0.000000 1.000000
vn 0.000000 0.000000 1.000000
vn 0.000000 0.000000 1.000000
vn 0.000000 0.000000 1.000000
vn 0.000000 0.000000 1.000000
vn 0.000000 0.000000 1.000000
vn 0.000000 0.000000 1.000000
vn 0.000000 0.000000 1.000000
vn 0.000000 0.000000 1.000000
vn 0.000000 0.000000 1.000000
vn 0.000000 0.000000 1.000000
vn 0.000000 0.000000 1.000000
vn 0.000000 0.000000 1.000000
vn 0.000000 0.000000 1.000000
vn 0.000000 0.000000 1.000000
vn 0.000000 0.000000 1.000000
vn 0.000000 0.000000 1.000000
vn 0.000000 0.000000 1.000000
vn 0.000000 0.000000 1.000000
vn 0.000000 0.000000 1.000000
vn 0.000000 0.000000 1.000000
vn 0.000000 0.000000 1.000000
vn 0.000000 0.000000 1.000000
vn 0.000000 0.000000 1.000000
vn 0.000000 0.000000 1.000000
vn 0.000000 0.000000 1.000000
vn 0.000000 0.000000 1.000000
vn 0.000000 0.000000 1.000000
vn 0.000000 0.000000 1.000000
vn 0.000000 0.000000 1.000000
vn 0.000000 0.000000 1.000000
vn 0.000000 0.000000 1.000000
vn 0.000000 0.000000 1.000000
vn 0.000000 0.000000 1.000000
vn 0.000000 0.000000 1.000000
vn 0.000000 0.000000 1.000000
vn 0.000000 0.000000 1.000000
vn 0.000000 0.000000 1.000000
vn 0.000000 0.000000 1.000000
vn 0.000000 0.000000 1.000000
vn 0.000000 0.000000 1.000000
vn 0.000000 0.000000 1.000000
vn 0.000000 0.000000 1.000000
vn 0.000000 0.000000 1.000000
vn 0.000000 0.000000 1.000000
vn 0.000000 0.000000 1.000000
vn 0.000000 0.000000 1.000000
vn 0.000000 0.000000 1.000000
vn 0.000000 0.000000 1.000000
vn 0.000000 0.000000 1.000000
vn 0.000000 0.000000 1.000000
vn 0.000000 0.000000 1.000000
vn 0.000000 0.000000 1.000000
vn 0.000000 0.000000 1.000000
vn 0.000000 0.000000 1.000000
vn 0.000000 0.000000 1.000000
vn 0.000000 0.000000 1.000000
vn 0.000000 0.000000 1.000000
vn 0.000000 0.000000 1.000000
vn 0.000000 0.000000 1.000000
vn 0.000000 0.000000 1.000000
vn 0.000000 0.000000 1.000000
vn 0.000000 0.000000 1.000000
vn 0.000000 0.000000 1.000000
vn 0.000000 0.000000 1.000000
vn 0.000000 0.000000 1.000000
vn 0.000000 0.000000 1.000000
vn 0.000000 0.000000 1.000000
vn 0.000000 0.000000 1.000000
vn 0.000000 0.000000 1.000000
vn 0.000000 0.000000 1.000000
vn 0.000000 0.000000 1.000000
vn 0.000000 0.000000 1.000000
vn 0.000000 0.000000 1.000000
vn 0.000000 0.000000 1.000000
vn 0.000000 0.000000 1.000000
vn 0.000000 0.000000 1.000000
vn 0.000000 0.000000 1.000000
vn 0.000000 0.000000 1.000000
vn 0.000000 0.000000 1.000000
vn 0.000000 0.000000 1.000000
vn 0.000000 0.000000 1.000000
vn 0.000000 0.000000 1.000000
vn 0.000000 0.000000 1.000000
vn 0.000000 0.000000 1.000000
vn 0.000000 0.000000 1.000000
vn 0.000000 0.000000 1.000000
vn 0.000000 0.000000 1.000000
vn 0.000000 0.000000 1.000000
vn 0.000000 0.000000 1.000000
vn 0.000000 0.000000 1.000000
vn 0.000000 0.000000 1.000000
vn 0.000000 0.000000 1.000000
vn 0.000000 0.000000 1.000000
vn 0.000000 0.000000 1.000000
vn 0.000000 0.000000 1.000000
vn 0.000000 0.000000 1.000000
vn 0.000000 0.000000 1.000000
vn 0.000000 0.000000 1.000000
vn 0.000000 0.000000 1.000000
vn 0.000000 0.000000 1.000000
vn 0.000000 0.000000 1.000000
vn 0.000000 0.000000 1.000000
vn 0.000000 0.000000 1.000000
vn 0.000000 0.000000 1.000000
vn 0.000000 0.000000 1.000000
vn 0.000000 0.000000 1.000000
vn 0.000000 0.000000 1.000000
vn 0.000000 0.000000 1.000000
vn 0.000000 0.000000 1.000000
vn 0.000000 0.000000 1.000000
vn 0.000000 0.000000 1.000000
vn 0.000000 0.000000 1.000000
vn 0.000000 0.000000 1.000000
vn 0.000000 0.000000 1.000000
vn 0.000000 0.000000 1.000000
vn 0.000000 0.000000 1.000000
vn 0.000000 0.000000 1.000000
vn 0.000000 0.000000 1.000000
vn 0.000000 0.000000 1.000000
vn 0.000000 0.000000 1.000000
vn 0.000000 0.000000 1.000000
vn 0.000000 0.000000 1.000000
vn 0.000000 0.000000 1.000000
vn 0.000000 0.000000 1.000000
vn 0.000000 0.000000 1.000000
vn 0.000000 0.000000 1.000000
vn 0.000000 0.000000 1.000000
vn 0.000000 0.000000 1.000000
vn 0.000000 0.000000 1.000000
vn 0.000000 0.000000 1.000000
vn 0.000000 0.000000 1.000000
vn 0.000000 0.000000 1.000000
vn 0.000000 0.000000 1.000000
vn 0.000000 0.000000 1.000000
vn 0.000000 0.000000 1.000000
vn 0.000000 0.000000 1.000000
vn 0.000000 0.000000 1.000000
vn 0.000000 0.000000 1.000000
vn 0.000000 0.000000 1.000000
vn 0.000000 0.000000 1.000000
vn 0.000000 0.000000 1.000000
vn 0.000000 0.000000 1.000000
vn 0.000000 0.000000 1.000000
vn 0.000000 0.000000 1.000000
vn 0.000000 0.000000 1.000000
vn 0.000000 0.000000 1.000000
vn 0.000000 0.000000 1.000000
vn 0.000000 0.000000 1.000000
vn 0.000000 0.000000 1.000000
vn 0.000000 0.000000 1.000000
vn 0.000000 0.000000 1.000000
vn 0.000000 0.000000 1.000000
vn 0.000000 0.000000 1.000000
vn 0.000000 0.000000 1.000000
vn 0.000000 0.000000 1.000000
vn 0.000000 0.000000 1.000000
vn 0.000000 0.000000 1.000000
vn 0.000000 0.000000 1.000000
vn 0.000000 0.000000 1.000000
vn 0.000000 0.000000 1.000000
vn 0.000000 0.000000 1.000000
vn 0.000000 0.000000 1.000000
vn 0.000000 0.000000 1.000000
vn 0.000000 0.000000 1.000000
vn 0.000000 0.000000 1.000000
vn 0.000000 0.000000 1.000000
vn 0.000000 0.000000 1.000000
vn 0.000000 0.000000 1.000000
vn 0.000000 0.000000 1.000000
vn 0.000000 0.000000 1.000000
vn 0.000000 0.000000 1.000000
vn 0.000000 0.000000 1.000000
vn 0.000000 0.000000 1.000000
vn 0.000000 0.000000 1.000000
vn 0.000000 0.000000 1.000000
vn 0.000000 0.000000 1.000000
vn 0.000000 0.000000 1.000000
vn 0.000000 0.000000 1.000000
vn 0.000000 0.000000 1.000000
vn 0.000000 0.000000 1.000000
vn 0.000000 0.000000 1.000000
vn 0.000000 0.000000 1.000000
vn 0.000000 0.000000 1.000000
vn 0.000000 0.000000 1.000000
vn 0.000000 0.000000 1.000000
vn 0.000000 0.000000 1.000000
vn 0.000000 0.000000 1.000000
vn 0.000000 0.000000 1.000000
vn 0.000000 0.000000 1.000000
vn 0.000000 0.000000 1.000000
vn 0.000000 0.000000 1.000000
vn 0.000000 0.000000 1.000000
vn 0.000000 0.000000 1.000000
vn 0.000000 0.000000 1.000000
vn 0.000000 0.000000 1.000000
vn 0.000000 0.000000 1.000000
vn 0.000000 0.000000 1.000000
vn 0.000000 0.000000 1.000000
vn 0.000000 0.000000 1.000000
vn 0.000000 0.000000 1.000000
vn 0.000000 0.000000 1.000000
vn 0.000000 0.000000 1.000000
vn 0.000000 0.000000 1.000000
vn 0.000000 0.000000 1.000000
vn 0.000000 0.000000 1.000000
vn 0.000000 0.000000 1.000000
vn 0.000000 0.000000 1.000000
vn 0.000000 0.000000 1.000000
vn 0.000000 0.000000 1.000000
vn 0.000000 0.000000 1.000000
vn 0.000000 0.000000 1.000000
vn 0.000000 0.000000 1.000000
vn 0.000000 0.000000 1.000000
vn 0.000000 0.000000 1.000000
vn 0.000000 0.000000 1.000000
vn 0.000000 0.000000 1.000000
vn 0.000000 0.000000 1.000000
vn 0.000000 0.000000 1.000000
vn 0.000000 0.000000 1.000000
vn 0.000000 0.000000 1.000000
vn 0.000000 0.000000 1.000000
vn 0.000000 0.000000 1.000000
vn 0.000000 0.000000 1.000000
vn 0.000000 0.000000 1.000000
vn 0.000000 0.000000 1.000000
vn 0.000000 0.000000 1.000000
vn 0.000000 0.000000 1.000000
vn 0.000000 0.000000 1.000000
vn 0.000000 0.000000 1.000000
vn 0.000000 0.000000 1.000000
vn 0.000000 0.000000 1.000000
vn 0.000000 0.000000 1.000000
vn 0.000000 0.000000 1.000000
vn 0.000000 0.000000 1.000000
vn 0.000000 0.000000 1.000000
vn 0.000000 0.000000 1.000000
vn 0.000000 0.000000 1.000000
vn 0.000000 0.000000 1.000000
vn 0.000000 0.000000 1.000000
vn 0.000000 0.000000 1.000000
vn 0.000000 0.000000 1.000000
vn 0.000000 0.000000 1.000000
vn 0.000000 0.000000 1.000000
vn 0.000000 0.000000 1.000000
vn 0.000000 0.000000 1.000000
vn 0.000000 0.000000 1.000000
vn 0.000000 0.000000 1.000000
vn 0.000000 0.000000 1.000000
vn 0.000000 0.000000 1.000000
vn 0.000000 0.000000 1.000000
vn 0.000000 0.000000 1.000000
vn 0.000000 0.000000 1.000000
vn 0.000000 0.000000 1.000000
vn 0.000000 0.000000 1.000000
vn 0.000000 0.000000 1.000000
vn 0.000000 0.000000 1.000000
vn 0.000000 0.000000 1.000000
vn 0.000000 0.000000 1.000000
vn 0.000000 0.000000 1.000000
vn 0.000000 0.000000 1.000000
vn 0.000000 0.000000 1.000000
vn 0.000000 0.000000 1.000000
vn 0.000000 0.000000 1.000000
vn 0.000000 0.000000 1.000000
vn 0.000000 0.000000 1.000000
vn 0.000000 0.000000 1.000000
vn 0.000000 0.000000 1.000000
vn 0.000000 0.000000 1.000000
vn 0.000000 0.000000 1.000000
vn 0.000000 0.000000 1.000000
vn 0.000000 0.000000 1.000000
vn 0.000000 0.000000 1.000000
vn 0.000000 0.000000 1.000000
vn 0.000000 0.000000 1.000000
vn 0.000000 0.000000 1.000000
vn 0.000000 0.000000 1.000000
vn 0.000000 0.000000 1.000000
vn 0.000000 0.000000 1.000000
vn 0.000000 0.000000 1.000000
vn 0.000000 0.000000 1.000000
vn 0.000000 0.000000 1.000000
vn 0.000000 0.000000 1.000000
vn 0.000000 0.000000 1.000000
vn 0.000000 0.000000 1.000000
vn 0.000000 0.000000 1.000000
vn 0.000000 0.000000 1.000000
vn 0.000000 0.000000 1.000000
vn 0.000000 0.000000 1.000000
vn 0.000000 0.000000 1.000000
vn 0.000000 0.000000 1.000000
vn 0.000000 0.000000 1.000000
vn 0.000000 0.000000 1.000000
vn 0.000000 0.000000 1.000000
vn 0.000000 0.000000 1.000000
vn 0.000000 0.000000 1.000000
vn 0.000000 0.000000 1.000000
vn 0.000000 0.000000 1.000000
vn 0.000000 0.000000 1.000000
vn 0.000000 0.000000 1.000000
vn 0.000000 0.000000 1.000000
vn 0.000000 0.000000 1.000000
vn 0.000000 0.000000 1.000000
vn 0.000000 0.000000 1.000000
vn 0.000000 0.000000 1.000000
vn 0.000000 0.000000 1.000000
vn 0.000000 0.000000 1.000000
vn 0.000000 0.000000 1.000000
vn 0.000000 0.000000 1.000000
vn 0.000000 0.000000 1.000000
vn 0.000000 0.000000 1.000000
vn 0.000000 0.000000 1.000000
vn 0.000000 0.000000 1.000000
vn 0.000000 0.000000 1.000000
vn 0.000000 0.000000 1.000000
vn 0.000000 0.000000 1.000000
vn 0.000000 0.000000 1.000000
vn 0.000000 0.000000 1.000000
vn 0.000000 0.000000 1.000000
f 64//64 1//1 2//2
f 64//64 2//2 3//3
f 64//64 3//3 4//4
f 64//64 4//4 5//5
f 64//64 5//5 6//6
f 64//64 6//6 7//7
f 64//64 7//7 8//8
f 64//64 8//8 9//9
f 64//64 9//9 10//10
f 64//64 10//10 11//11
f 64//64 11//11 12//12
f 64//64 12//12 13//13
f 64//64 13//13 14//14
f 64//64 14//14 15//15
f 64//64 15//15 16//16
f 64//64 16//16 17//17
f 64//64 17//17 18//18
f 64//64 18//18 19//19
f 64//64 19//19 20//20
f 64//64 20//20 21//21
f 64//64 21//21 22//22
f 64//64 22//22 23//23
f 64//64 23//23 24//24
f 64//64 24//24 25//25
f 64//64 25//25 26//26
f 64//64 26//26 27//27
f 64//64 27//27 28//28
f 64//64 28//28 29//29
f 64//64 29//29 30//30
f 64//64 30//30 31//31
f 64//64 31//31 32//32
f 64//64 32//32 33//33
f 64//64 33//33 34//34
f 64//64 34//34 35//35
f 64//64 35//35 36//36
f 64//64 36//36 37//37
f 64//64 37//37 38//38
f 64//64 38//38 39//39
f 64//64 39//39 40//40
f 64//64 40//40 41//41
f 64//64 41//41 42//42
f 64//64 42//42 43//43
f 64//64 43//43 44//44
f 64//64 44//44 45//45
f 64//64 45//45 46//46
f 64//64 46//46 47//47
f 64//64 47//47 48//48
f 64//64 48//48 49//49
f 64//64 49//49 50//50
f 64//64 50//50 51//51
f 64//64 51//51 52//52
f 64//64 52//52 53//53
f 64//64 53//53 54//54
f 64//64 54//54 55//55
f 64//64 55//55 56//56
f 64//64 56//56 57//57
f 64//64 57//57 58//58
f 64//64 58//58 59//59
f 64//64 59//59 60//60
f 64//64 60//60 61//61
f 64//64 61//61 62//62
f 62//62 63//63 64//64
f 128//128 65//65 66//66
f 128//128 66//66 67//67
f 128//128 67//67 68//68
f 128//128 68//68 69//69
f 128//128 69//69 70//70
f 128//128 70//70 71//71
f 128//128 71//71 72//72
f 128//128 72//72 73//73
f 128//128 73//73 74//74
f 128//128 74//74 75//75
f 128//128 75//75 76//76
f 128//128 76//76 77//77
f 128//128 77//77 78//78
f 128//128 78//78 79//79
f 128//128 79//79 80//80
f 128//128 80//80 81//81
f 128//128 81//81 82//82
f 128//128 82//82 83//83
f 128//128 83//83 84//84
f 128//128 84//84 85//85
f 128//128 85//85 86//86
f 128//128 86//86 87//87
f 128//128 87//87 88//88
f 128//128 88//88 89//89
f 128//128 89//89 90//90
f 128//128 90//90 91//91
f 128//128 91//91 92//92
f 128//128 92//92 93//93
f 128//128 93//93 94//94
f 128//128 94//94 95//95
f 128//128 95//95 96//96
f 128//128 96//96 97//97
f 128//128 97//97 98//98
f 128//128 98//98 99//99
f 128//128 99//99 100//100
f 128//128 100//100 101//101
f 128//128 101//101 102//102
f 128//128 102//102 103//103
f 128//128 103//103 104//104
f 128//128 104//104 105//105
f 128//128 105//105 106//106
f 128//128 106//106 107//107
f 128//128 107//107 108//108
f 128//128 108//108 109//109
f 128//128 109//109 110//110
f 128//128 110//110 111//111
f 128//128 111//111 112//112
f 128//128 112//112 113//113
f 128//128 113//113 114//114
f 128//128 114//114 115//115
f 128//128 115//115 116//116
f 128//128 116//116 117//117
f 128//128 117//117 118//118
f 128//128 118//118 119//119
f 128//128 119//119 120//120
f 128//128 120//120 121//121
f 128//128 121//121 122//122
f 128//128 122//122 123//123
f 128//128 123//123 124//124
f 128//128 124//124 125//125
f 128//128 125//125 126//126
f 126//126 127//127 128//128
f 251//251 129//129 130//130
f 251//251 130//130 131//131
f 251//251 131//131 132//132
f 251//251 132//132 133//133
f 251//251 133//133 134//134
f 251//251 134//134 135//135
f 251//251 135//135 136//136
f 251//251 136//136 137//137
f 251//251 137//137 138//138
f 251//251 138//138 139//139
f 251//251 139//139 140//140
f 251//251 140//140 141//141
f 251//251 141//141 142//142
f 251//251 142//142 143//143
f 251//251 143//143 144//144
f 251//251 144//144 145//145
f 251//251 145//145 146//146
f 251//251 146//146 147//147
f 251//251 147//147 148//148
f 251//251 148//148 149//149
f 251//251 149//149 150//150
f 251//251 150//150 151//151
f 251//251 151//151 152//152
f 251//251 152//152 153//153
f 251//251 153//153 154//154
f 251//251 154//154 155//155
f 251//251 155//155 156//156
f 251//251 156//156 157//157
f 251//251 157//157 158//158
f 251//251 158//158 159//159
f 251//251 159//159 160//160
f 251//251 160//160 161//161
f 251//251 161//161 162//162
f 251//251 162//162 163//163
f 251//251 163//163 164//164
f 251//251 164//164 165//165
f 251//251 165//165 166//166
f 251//251 166//166 167//167
f 251//251 167//167 168//168
f 251//251 168//168 169//169
f 251//251 169//169 170//170
f 251//251 170//170 171//171
f 251//251 171//171 172//172
f 251//251 172//172 173//173
f 251//251 173//173 174//174
f 251//251 174//174 175//175
f 251//251 175//175 176//176
f 251//251 176//176 177//177
f 251//251 177//177 178//178
f 251//251 178//178 179//179
f 251//251 179//179 180//180
f 251//251 180//180 181//181
f 251//251 181//181 182//182
f 251//251 182//182 183//183
f 251//251 183//183 184//184
f 251//251 184//184 185//185
f 251//251 185//185 186//186
f 251//251 186//186 187//187
f 251//251 187//187 188//188
f 251//251 188//188 189//189
f 251//251 189//189 190//190
f 251//251 190//190 191//191
f 251//251 191//191 192//192
f 251//251 192//192 193//193
f 251//251 193//193 194//194
f 251//251 194//194 195//195
f 251//251 195//195 196//196
f 251//251 196//196 197//197
f 251//251 197//197 198//198
f 251//251 198//198 199//199
f 251//251 199//199 200//200
f 251//251 200//200 201//201
f 251//251 201//201 202//202
f 251//251 202//202 203//203
f 251//251 203//203 204//204
f 251//251 204//204 205//205
f 251//251 205//205 206//206
f 251//251 206//206 207//207
f 251//251 207//207 208//208
f 251//251 208//208 209//209
f 251//251 209//209 210//210
f 251//251 210//210 211//211
f 251//251 211//211 212//212
f 251//251 212//212 213//213
f 251//251 213//213 214//214
f 251//251 214//214 215//215
f 251//251 215//215 216//216
f 251//251 216//216 217//217
f 251//251 217//217 218//218
f 251//251 218//218 219//219
f 251//251 219//219 220//220
f 251//251 220//220 221//221
f 251//251 221//221 222//222
f 251//251 222//222 223//223
f 251//251 223//223 224//224
f 251//251 224//224 225//225
f 251//251 225//225 226//226
f 251//251 226//226 227//227
f 251//251 227//227 228//228
f 251//251 228//228 229//229
f 251//251 229//229 230//230
f 251//251 230//230 231//231
f 251//251 231//231 232//232
f 251//251 232//232 233//233
f 251//251 233//233 234//234
f 251//251 234//234 235//235
f 251//251 235//235 236//236
f 251//251 236//236 237//237
f 251//251 237//237 238//238
f 251//251 238//238 239//239
f 251//251 239//239 240//240
f 251//251 240//240 241//241
f 251//251 241//241 242//242
f 251//251 242//242 243//243
f 251//251 243//243 244//244
f 251//251 244//244 245//245
f 251//251 245//245 246//246
f 251//251 246//246 247//247
f 251//251 247//247 248//248
f 251//251 248//248 249//249
f 249//249 250//250 251//251
f 374//374 252//252 253//253
f 374//374 253//253 254//254
f 374//374 254//254 255//255
f 374//374 255//255 256//256
f 374//374 256//256 257//257
f 374//374 257//257 258//258
f 374//374 258//258 259//259
f 374//374 259//259 260//260
f 374//374 260//260 261//261
f 374//374 261//261 262//262
f 374//374 262//262 263//263
f 374//374 263//263 264//264
f 374//374 264//264 265//265
f 374//374 265//265 266//266
f 374//374 266//266 267//267
f 374//374 267//267 268//268
f 374//374 268//268 269//269
f 374//374 269//269 270//270
f 374//374 270//270 271//271
f 374//374 271//271 272//272
f 374//374 272//272 273//273
f 374//374 273//273 274//274
f 374//374 274//274 275//275
f 374//374 275//275 276//276
f 374//374 276//276 277//277
f 374//374 277//277 278//278
f 374//374 278//278 279//279
f 374//374 279//279 280//280
f 374//374 280//280 281//281
f 374//374 281//281 282//282
f 374//374 282//282 283//283
f 374//374 283//283 284//284
f 374//374 284//284 285//285
f 374//374 285//285 286//286
f 374//374 286//286 287//287
f 374//374 287//287 288//288
f 374//374 288//288 289//289
f 374//374 289//289 290//290
f 374//374 290//290 291//291
f 374//374 291//291 292//292
f 374//374 292//292 293//293
f 374//374 293//293 294//294
f 374//374 294//294 295//295
f 374//374 295//295 296//296
f 374//374 296//296 297//297
f 374//374 297//297 298//298
f 374//374 298//298 299//299
f 374//374 299//299 300//300
f 374//374 300//300 301//301
f 374//374 301//301 302//302
f 374//374 302//302 303//303
f 374//374 303//303 304//304
f 374//374 304//304 305//305
f 374//374 305//305 306//306
f 374//374 306//306 307//307
f 374//374 307//307 308//308
f 374//374 308//308 309//309
f 374//374 309//309 310//310
f 374//374 310//310 311//311
f 374//374 311//311 312//312
f 374//374 312//312 313//313
f 374//374 313//313 314//314
f 374//374 314//314 315//315
f 374//374 315//315 316//316
f 374//374 316//316 317//317
f 374//374 317//317 318//318
f 374//374 318//318 319//319
f 374//374 319//319 320//320
f 374//374 320//320 321//321
f 374//374 321//321 322//322
f 374//374 322//322 323//323
f 374//374 323//323 324//324
f 374//374 324//324 325//325
f 374//374 325//325 326//326
f 374//374 326//326 327//327
f 374//374 327//327 328//328
f 374//374 328//328 329//329
f 374//374 329//329 330//330
f 374//374 330//330 331//331
f 374//374 331//331 332//332
f 374//374 332//332 333//333
f 374//374 333//333 334//334
f 374//374 334//334 335//335
f 374//374 335//335 336//336
f 374//374 336//336 337//337
f 374//374 337//337 338//338
f 374//374 338//338 339//339
f 374//374 339//339 340//340
f 374//374 340//340 341//341
f 374//374 341//341 342//342
f 374//374 342//342 343//343
f 374//374 343//343 344//344
f 374//374 344//344 345//345
f 374//374 345//345 346//346
f 374//374 346//346 347//347
f 374//374 347//347 348//348
f 374//374 348//348 349//349
f 374//374 349//349 350//350
f 374//374 350//350 351//351
f 374//374 351//351 352//352
f 374//374 352//352 353//353
f 374//374 353//353 354//354
f 374//374 354//354 355//355
f 374//374 355//355 356//356
f 374//374 356//356 357//357
f 374//374 357//357 358//358
f 374//374 358//358 359//359
f 374//374 359//359 360//360
f 374//374 360//360 361//361
f 374//374 361//361 362//362
f 374//374 362//362 363//363
f 374//374 363//363 364//364
f 374//374 364//364 365//365
f 374//374 365//365 366//366
f 374//374 366//366 367//367
f 374//374 367//367 368//368
f 374//374 368//368 369//369
f 374//374 369//369 370//370
f 374//374 370//370 371//371
f 374//374 371//371 372//372
f 372//372 373//373 374//374
f 438//438 375//375 376//376
f 438//438 376//376 377//377
f 438//438 377//377 378//378
f 438//438 378//378 379//379
f 438//438 379//379 380//380
f 438//438 380//380 381//381
f 438//438 381//381 382//382
f 438//438 382//382 383//383
f 438//438 383//383 384//384
f 438//438 384//384 385//385
f 438//438 385//385 386//386
f 438//438 386//386 387//387
f 438//438 387//387 388//388
f 438//438 388//388 389//389
f 438//438 389//389 390//390
f 438//438 390//390 391//391
f 438//438 391//391 392//392
f 438//438 392//392 393//393
f 438//438 393//393 394//394
f 438//438 394//394 395//395
f 438//438 395//395 396//396
f 438//438 396//396 397//397
f 438//438 397//397 398//398
f 438//438 398//398 399//399
f 438//438 399//399 400//400
f 438//438 400//400 401//401
f 438//438 401//401 402//402
f 438//438 402//402 403//403
f 438//438 403//403 404//404
f 438//438 404//404 405//405
f 438//438 405//405 406//406
f 438//438 406//406 407//407
f 438//438 407//407 408//408
f 438//438 408//408 409//409
f 438//438 409//409 410//410
f 438//438 410//410 411//411
f 438//438 411//411 412//412
f 438//438 412//412 413//413
f 438//438 413//413 414//414
f 438//438 414//414 415//415
f 438//438 415//415 416//416
f 438//438 416//416 417//417
f 438//438 417//417 418//418
f 438//438 418//418 419//419
f 438//438 419//419 420//420
f 438//438 420//420 421//421
f 438//438 421//421 422//422
f 438//438 422//422 423//423
f 438//438 423//423 424//424
f 438//438 424//424 425//425
f 438//438 425//425 426//426
f 438//438 426//426 427//427
f 438//438 427//427 428//428
f 438//438 428//428 429//429
f 438//438 429//429 430//430
f 438//438 430//430 431//431
f 438//438 431//431 432//432
f 438//438 432//432 433//433
f 438//438 433//433 434//434
f 438//438 434//434 435//435
f 438//438 435//435 436//436
f 436//436 437//437 438//438
