# Dongfeng sandbox; metres; X right, Y far, Z up
mtllib scene.mtl
usemtl grey_yard
v 2.429900 1.654016 0.014500
v 2.417840 1.654824 0.014500
v 2.406605 1.652919 0.014500
v 2.397000 1.648399 0.014500
v 2.389117 1.641571 0.014500
v 2.382913 1.632836 0.014500
v 2.378222 1.622530 0.014500
v 2.374847 1.610905 0.014500
v 2.372620 1.598163 0.014500
v 2.371394 1.584499 0.014500
v 2.371042 1.570112 0.014500
v 2.371445 1.555203 0.014500
v 2.372486 1.539980 0.014500
v 2.374055 1.524654 0.014500
v 2.376024 1.509558 0.014500
v 2.379367 1.473256 0.014500
v 2.385017 1.437220 0.014500
v 2.392779 1.401812 0.014500
v 2.402475 1.367184 0.014500
v 2.413929 1.333486 0.014500
v 2.426965 1.300869 0.014500
v 2.441408 1.269486 0.014500
v 2.457084 1.239488 0.014500
v 2.473819 1.211023 0.014500
v 2.491439 1.184245 0.014500
v 2.509771 1.159304 0.014500
v 2.528646 1.136349 0.014500
v 2.547893 1.115533 0.014500
v 2.567342 1.097008 0.014500
v 2.593612 1.075259 0.014500
v 2.620448 1.054078 0.014500
v 2.647638 1.033483 0.014500
v 2.674904 1.013547 0.014500
v 2.701970 0.994344 0.014500
v 2.728559 0.975948 0.014500
v 2.754392 0.958431 0.014500
v 2.779191 0.941870 0.014500
v 2.802679 0.926337 0.014500
v 2.824574 0.911910 0.014500
v 2.844598 0.898663 0.014500
v 2.862467 0.886675 0.014500
v 2.877893 0.876029 0.014500
v 2.890800 0.866654 0.014500
v 2.893949 0.864787 0.014500
v 2.897442 0.863718 0.014500
v 2.900914 0.863561 0.014500
v 2.904187 0.864234 0.014500
v 2.907130 0.865602 0.014500
v 2.909669 0.867527 0.014500
v 2.911758 0.869896 0.014500
v 2.913353 0.872626 0.014500
v 2.914393 0.875645 0.014500
v 2.914795 0.878875 0.014500
v 2.914458 0.882210 0.014500
v 2.913295 0.885495 0.014500
v 2.911273 0.888548 0.014500
v 2.908665 0.890984 0.014500
v 2.897138 0.900822 0.014500
v 2.882793 0.912032 0.014500
v 2.865987 0.924540 0.014500
v 2.847037 0.938297 0.014500
v 2.826274 0.953245 0.014500
v 2.804027 0.969322 0.014500
v 2.780632 0.986464 0.014500
v 2.756423 1.004606 0.014500
v 2.731736 1.023682 0.014500
v 2.706908 1.043626 0.014500
v 2.682278 1.064370 0.014500
v 2.658181 1.085845 0.014500
v 2.634955 1.107984 0.014500
v 2.613247 1.130397 0.014500
v 2.601154 1.152421 0.014500
v 2.591506 1.176244 0.014500
v 2.584048 1.201392 0.014500
v 2.578395 1.227612 0.014500
v 2.574159 1.254645 0.014500
v 2.570946 1.282230 0.014500
v 2.568359 1.310104 0.014500
v 2.565996 1.338008 0.014500
v 2.563452 1.365685 0.014500
v 2.560320 1.392882 0.014500
v 2.556188 1.419345 0.014500
v 2.550637 1.444824 0.014500
v 2.543245 1.469066 0.014500
v 2.533857 1.491151 0.014500
v 2.529483 1.515416 0.014500
v 2.524685 1.538073 0.014500
v 2.519525 1.558659 0.014500
v 2.513975 1.577201 0.014500
v 2.508004 1.593731 0.014500
v 2.501577 1.608277 0.014500
v 2.494650 1.620869 0.014500
v 2.487171 1.631528 0.014500
v 2.479085 1.640259 0.014500
v 2.470343 1.647039 0.014500
v 2.460932 1.651817 0.014500
v 2.450895 1.654549 0.014500
v 2.440308 1.655236 0.014500
vn 0.000000 0.000000 1.000000
vn 0.000000 0.000000 1.000000
vn 0.000000 0.000000 1.000000
vn 0.000000 0.000000 1.000000
vn 0.000000 0.000000 1.000000
vn 0.000000 0.000000 1.000000
vn 0.000000 0.000000 1.000000
vn 0.000000 0.000000 1.000000
vn 0.000000 0.000000 1.000000
vn 0.000000 0.000000 1.000000
vn 0.000000 0.000000 1.000000
vn 0.000000 0.000000 1.000000
vn 0.000000 0.000000 1.000000
vn 0.000000 0.000000 1.000000
vn 0.000000 0.000000 1.000000
vn 0.000000 0.000000 1.000000
vn 0.000000 0.000000 1.000000
vn 0.000000 0.000000 1.000000
vn 0.000000 0.000000 1.000000
vn 0.000000 0.000000 1.000000
vn 0.000000 0.000000 1.000000
vn 0.000000 0.000000 1.000000
vn 0.000000 0.000000 1.000000
vn 0.000000 0.000000 1.000000
vn 0.000000 0.000000 1.000000
vn 0.000000 0.000000 1.000000
vn 0.000000 0.000000 1.000000
vn 0.000000 0.000000 1.000000
vn 0.000000 0.000000 1.000000
vn 0.000000 0.000000 1.000000
vn 0.000000 0.000000 1.000000
vn 0.000000 0.000000 1.000000
vn 0.000000 0.000000 1.000000
vn 0.000000 0.000000 1.000000
vn 0.000000 0.000000 1.000000
vn 0.000000 0.000000 1.000000
vn 0.000000 0.000000 1.000000
vn 0.000000 0.000000 1.000000
vn 0.000000 0.000000 1.000000
vn 0.000000 0.000000 1.000000
vn 0.000000 0.000000 1.000000
vn 0.000000 0.000000 1.000000
vn 0.000000 0.000000 1.000000
vn 0.000000 0.000000 1.000000
vn 0.000000 0.000000 1.000000
vn 0.000000 0.000000 1.000000
vn 0.000000 0.000000 1.000000
vn 0.000000 0.000000 1.000000
vn 0.000000 0.000000 1.000000
vn 0.000000 0.000000 1.000000
vn 0.000000 0.000000 1.000000
vn 0.000000 0.000000 1.000000
vn 0.000000 0.000000 1.000000
vn 0.000000 0.000000 1.000000
vn 0.000000 0.000000 1.000000
vn 0.000000 0.000000 1.000000
vn 0.000000 0.000000 1.000000
vn 0.000000 0.000000 1.000000
vn 0.000000 0.000000 1.000000
vn 0.000000 0.000000 1.000000
vn 0.000000 0.000000 1.000000
vn 0.000000 0.000000 1.000000
vn 0.000000 0.000000 1.000000
vn 0.000000 0.000000 1.000000
vn 0.000000 0.000000 1.000000
vn 0.000000 0.000000 1.000000
vn 0.000000 0.000000 1.000000
vn 0.000000 0.000000 1.000000
vn 0.000000 0.000000 1.000000
vn 0.000000 0.000000 1.000000
vn 0.000000 0.000000 1.000000
vn 0.000000 0.000000 1.000000
vn 0.000000 0.000000 1.000000
vn 0.000000 0.000000 1.000000
vn 0.000000 0.000000 1.000000
vn 0.000000 0.000000 1.000000
vn 0.000000 0.000000 1.000000
vn 0.000000 0.000000 1.000000
vn 0.000000 0.000000 1.000000
vn 0.000000 0.000000 1.000000
vn 0.000000 0.000000 1.000000
vn 0.000000 0.000000 1.000000
vn 0.000000 0.000000 1.000000
vn 0.000000 0.000000 1.000000
vn 0.000000 0.000000 1.000000
vn 0.000000 0.000000 1.000000
vn 0.000000 0.000000 1.000000
vn 0.000000 0.000000 1.000000
vn 0.000000 0.000000 1.000000
vn 0.000000 0.000000 1.000000
vn 0.000000 0.000000 1.000000
vn 0.000000 0.000000 1.000000
vn 0.000000 0.000000 1.000000
vn 0.000000 0.000000 1.000000
vn 0.000000 0.000000 1.000000
vn 0.000000 0.000000 1.000000
vn 0.000000 0.000000 1.000000
vn 0.000000 0.000000 1.000000
f 1//1 2//2 3//3
f 1//1 3//3 4//4
f 98//98 1//1 4//4
f 98//98 4//4 5//5
f 98//98 5//5 6//6
f 98//98 6//6 7//7
f 98//98 7//7 8//8
f 98//98 8//8 9//9
f 98//98 9//9 10//10
f 98//98 10//10 11//11
f 98//98 11//11 12//12
f 98//98 12//12 13//13
f 98//98 13//13 14//14
f 98//98 14//14 15//15
f 98//98 15//15 16//16
f 98//98 16//16 17//17
f 98//98 17//17 18//18
f 98//98 18//18 19//19
f 98//98 19//19 20//20
f 98//98 20//20 21//21
f 98//98 21//21 22//22
f 98//98 22//22 23//23
f 98//98 23//23 24//24
f 98//98 24//24 25//25
f 98//98 25//25 26//26
f 98//98 26//26 27//27
f 98//98 27//27 28//28
f 98//98 28//28 29//29
f 98//98 29//29 30//30
f 98//98 30//30 31//31
f 31//31 32//32 33//33
f 31//31 33//33 34//34
f 31//31 34//34 35//35
f 31//31 35//35 36//36
f 31//31 36//36 37//37
f 31//31 37//37 38//38
f 31//31 38//38 39//39
f 31//31 39//39 40//40
f 31//31 40//40 41//41
f 31//31 41//41 42//42
f 42//42 43//43 44//44
f 42//42 44//44 45//45
f 31//31 42//42 45//45
f 31//31 45//45 46//46
f 31//31 46//46 47//47
f 31//31 47//47 48//48
f 31//31 48//48 49//49
f 31//31 49//49 50//50
f 31//31 50//50 51//51
f 31//31 51//51 52//52
f 31//31 52//52 53//53
f 31//31 53//53 54//54
f 31//31 54//54 55//55
f 31//31 55//55 56//56
f 31//31 56//56 57//57
f 31//31 57//57 58//58
f 31//31 58//58 59//59
f 31//31 59//59 60//60
f 31//31 60//60 61//61
f 31//31 61//61 62//62
f 31//31 62//62 63//63
f 31//31 63//63 64//64
f 31//31 64//64 65//65
f 31//31 65//65 66//66
f 31//31 66//66 67//67
f 31//31 67//67 68//68
f 31//31 68//68 69//69
f 31//31 69//69 70//70
f 31//31 70//70 71//71
f 31//31 71//71 72//72
f 31//31 72//72 73//73
f 98//98 31//31 73//73
f 98//98 73//73 74//74
f 98//98 74//74 75//75
f 98//98 75//75 76//76
f 98//98 76//76 77//77
f 98//98 77//77 78//78
f 98//98 78//78 79//79
f 98//98 79//79 80//80
f 98//98 80//80 81//81
f 98//98 81//81 82//82
f 98//98 82//82 83//83
f 98//98 83//83 84//84
f 98//98 84//84 85//85
f 98//98 85//85 86//86
f 98//98 86//86 87//87
f 98//98 87//87 88//88
f 98//98 88//88 89//89
f 98//98 89//89 90//90
f 98//98 90//90 91//91
f 98//98 91//91 92//92
f 98//98 92//92 93//93
f 98//98 93//93 94//94
f 98//98 94//94 95//95
f 98//98 95//95 96//96
f 96//96 97//97 98//98
