# Dongfeng sandbox; metres; X right, Y far, Z up
mtllib scene.mtl
usemtl water
v 1.089613 0.753325 0.015000
v 1.091913 0.773847 0.015000
v 1.084448 0.794184 0.015000
v 1.067880 0.813569 0.015000
v 1.044725 0.830644 0.015000
v 1.018526 0.845045 0.015000
v 0.992251 0.857463 0.015000
v 0.967550 0.868975 0.015000
v 0.944733 0.880330 0.015000
v 0.923121 0.891521 0.015000
v 0.901582 0.901868 0.015000
v 0.879154 0.910424 0.015000
v 0.855464 0.916386 0.015000
v 0.830764 0.919436 0.015000
v 0.805603 0.919976 0.015000
v 0.780332 0.919104 0.015000
v 0.754772 0.918287 0.015000
v 0.728248 0.918763 0.015000
v 0.699866 0.920853 0.015000
v 0.668920 0.923662 0.015000
v 0.635533 0.925335 0.015000
v 0.601233 0.923639 0.015000
v 0.568992 0.916742 0.015000
v 0.542516 0.904015 0.015000
v 0.524770 0.886377 0.015000
v 0.516634 0.865302 0.015000
v 0.517698 0.841804 0.015000
v 0.526774 0.817526 0.015000
v 0.540892 0.794519 0.015000
v 0.555992 0.773722 0.015000
v 0.568368 0.754387 0.015000
v 0.575077 0.734927 0.015000
v 0.575014 0.715123 0.015000
v 0.570960 0.695310 0.015000
v 0.566747 0.675058 0.015000
v 0.565479 0.654573 0.015000
v 0.569188 0.634697 0.015000
v 0.578819 0.616186 0.015000
v 0.594451 0.599648 0.015000
v 0.615190 0.585551 0.015000
v 0.639465 0.573860 0.015000
v 0.665778 0.564021 0.015000
v 0.693216 0.555420 0.015000
v 0.721483 0.547908 0.015000
v 0.750574 0.542073 0.015000
v 0.780274 0.539121 0.015000
v 0.809769 0.540430 0.015000
v 0.837609 0.546978 0.015000
v 0.862123 0.558877 0.015000
v 0.882071 0.575257 0.015000
v 0.897193 0.594505 0.015000
v 0.908519 0.614703 0.015000
v 0.918472 0.634172 0.015000
v 0.930572 0.651531 0.015000
v 0.947708 0.665370 0.015000
v 0.970277 0.676153 0.015000
v 0.997427 0.686388 0.015000
v 1.026981 0.698543 0.015000
v 1.055049 0.714056 0.015000
v 1.077071 0.732849 0.015000
v 1.109011 1.423354 0.015000
v 1.109271 1.425654 0.015000
v 1.108256 1.428393 0.015000
v 1.105050 1.432106 0.015000
v 1.099673 1.436032 0.015000
v 1.093008 1.439659 0.015000
v 1.085925 1.442973 0.015000
v 1.078998 1.446169 0.015000
v 1.072526 1.449358 0.015000
v 1.066567 1.452413 0.015000
v 1.060950 1.455084 0.015000
v 1.055394 1.457182 0.015000
v 1.049651 1.458613 0.015000
v 1.043587 1.459354 0.015000
v 1.037158 1.459491 0.015000
v 1.030329 1.459258 0.015000
v 1.023042 1.459027 0.015000
v 1.015299 1.459164 0.015000
v 1.007157 1.459758 0.015000
v 0.998644 1.460523 0.015000
v 0.989868 1.460958 0.015000
v 0.981270 1.460538 0.015000
v 0.973711 1.458937 0.015000
v 0.968222 1.456324 0.015000
v 0.965264 1.453414 0.015000
v 0.964128 1.450501 0.015000
v 0.964300 1.446734 0.015000
v 0.966163 1.441800 0.015000
v 0.969564 1.436313 0.015000
v 0.973718 1.430650 0.015000
v 0.977744 1.424422 0.015000
v 0.980303 1.417074 0.015000
v 0.980279 1.409653 0.015000
v 0.979003 1.403476 0.015000
v 0.977938 1.398411 0.015000
v 0.977676 1.394211 0.015000
v 0.978335 1.390710 0.015000
v 0.980031 1.387483 0.015000
v 0.983131 1.384237 0.015000
v 0.987799 1.381096 0.015000
v 0.993767 1.378251 0.015000
v 1.000589 1.375725 0.015000
v 1.007876 1.373464 0.015000
v 1.015363 1.371494 0.015000
v 1.022882 1.370001 0.015000
v 1.030272 1.369274 0.015000
v 1.037287 1.369582 0.015000
v 1.043599 1.371052 0.015000
v 1.048927 1.373612 0.015000
v 1.053195 1.377082 0.015000
v 1.056554 1.381314 0.015000
v 1.059352 1.386255 0.015000
v 1.062280 1.391925 0.015000
v 1.066522 1.397949 0.015000
v 1.072745 1.402925 0.015000
v 1.080052 1.406381 0.015000
v 1.087780 1.409265 0.015000
v 1.095510 1.412413 0.015000
v 1.102308 1.416132 0.015000
v 1.106991 1.420088 0.015000
v 0.944836 1.792878 0.015000
v 0.945296 1.797725 0.015000
v 0.943742 1.802727 0.015000
v 0.939898 1.808039 0.015000
v 0.934000 1.813177 0.015000
v 0.926857 1.817816 0.015000
v 0.919299 1.822034 0.015000
v 0.911910 1.826102 0.015000
v 0.905008 1.830160 0.015000
v 0.898651 1.834048 0.015000
v 0.892664 1.837446 0.015000
v 0.886777 1.840099 0.015000
v 0.880747 1.841891 0.015000
v 0.874403 1.842816 0.015000
v 0.867644 1.842988 0.015000
v 0.860392 1.842692 0.015000
v 0.852587 1.842397 0.015000
v 0.844262 1.842574 0.015000
v 0.835533 1.843333 0.015000
v 0.826466 1.844305 0.015000
v 0.817192 1.844854 0.015000
v 0.808177 1.844328 0.015000
v 0.800275 1.842331 0.015000
v 0.794370 1.838978 0.015000
v 0.790732 1.834706 0.015000
v 0.789039 1.829526 0.015000
v 0.789283 1.823153 0.015000
v 0.791568 1.815934 0.015000
v 0.795396 1.808565 0.015000
v 0.799841 1.801333 0.015000
v 0.803909 1.793826 0.015000
v 0.806321 1.785560 0.015000
v 0.806299 1.777280 0.015000
v 0.805011 1.769845 0.015000
v 0.803824 1.763104 0.015000
v 0.803500 1.756909 0.015000
v 0.804380 1.751333 0.015000
v 0.806578 1.746343 0.015000
v 0.810210 1.741804 0.015000
v 0.815322 1.737699 0.015000
v 0.821700 1.734071 0.015000
v 0.828954 1.730867 0.015000
v 0.836698 1.728000 0.015000
v 0.844643 1.725505 0.015000
v 0.852584 1.723624 0.015000
v 0.860324 1.722715 0.015000
v 0.867609 1.723097 0.015000
v 0.874182 1.724923 0.015000
v 0.879880 1.728190 0.015000
v 0.884641 1.732809 0.015000
v 0.888471 1.738567 0.015000
v 0.891584 1.745124 0.015000
v 0.894645 1.752199 0.015000
v 0.898897 1.759403 0.015000
v 0.905282 1.765495 0.015000
v 0.913040 1.769873 0.015000
v 0.921289 1.773547 0.015000
v 0.929526 1.777548 0.015000
v 0.936838 1.782322 0.015000
v 0.942127 1.787654 0.015000
v 2.430000 1.650000 0.015500
v 2.418043 1.650802 0.015500
v 2.407813 1.649067 0.015500
v 2.399202 1.645015 0.015500
v 2.392099 1.638863 0.015500
v 2.386396 1.630831 0.015500
v 2.381983 1.621137 0.015500
v 2.378750 1.610000 0.015500
v 2.376589 1.597638 0.015500
v 2.375390 1.584271 0.015500
v 2.375044 1.570117 0.015500
v 2.375441 1.555394 0.015500
v 2.376472 1.540321 0.015500
v 2.378028 1.525117 0.015500
v 2.380000 1.510000 0.015500
v 2.383338 1.473750 0.015500
v 2.388950 1.437959 0.015500
v 2.396662 1.402781 0.015500
v 2.406297 1.368367 0.015500
v 2.417682 1.334872 0.015500
v 2.430641 1.302449 0.015500
v 2.445000 1.271250 0.015500
v 2.460583 1.241429 0.015500
v 2.477216 1.213138 0.015500
v 2.494723 1.186531 0.015500
v 2.512930 1.161760 0.015500
v 2.531662 1.138980 0.015500
v 2.550743 1.118342 0.015500
v 2.570000 1.100000 0.015500
v 2.596127 1.078369 0.015500
v 2.622895 1.057242 0.015500
v 2.650026 1.036692 0.015500
v 2.677242 1.016793 0.015500
v 2.704266 0.997620 0.015500
v 2.730819 0.979248 0.015500
v 2.756625 0.961750 0.015500
v 2.781405 0.945201 0.015500
v 2.804882 0.929676 0.015500
v 2.826778 0.915248 0.015500
v 2.846816 0.901992 0.015500
v 2.864717 0.889983 0.015500
v 2.880204 0.879294 0.015500
v 2.893000 0.870000 0.015500
v 2.895577 0.868472 0.015500
v 2.898128 0.867691 0.015500
v 2.900596 0.867579 0.015500
v 2.902924 0.868058 0.015500
v 2.905055 0.869049 0.015500
v 2.906933 0.870472 0.015500
v 2.908500 0.872250 0.015500
v 2.909700 0.874303 0.015500
v 2.910475 0.876553 0.015500
v 2.910770 0.878921 0.015500
v 2.910526 0.881329 0.015500
v 2.909688 0.883697 0.015500
v 2.908198 0.885947 0.015500
v 2.906000 0.888000 0.015500
v 2.894607 0.897724 0.015500
v 2.880367 0.908851 0.015500
v 2.863617 0.921317 0.015500
v 2.844694 0.935055 0.015500
v 2.823934 0.950001 0.015500
v 2.801673 0.966087 0.015500
v 2.778250 0.983250 0.015500
v 2.754000 1.001423 0.015500
v 2.729260 1.020540 0.015500
v 2.704367 1.040536 0.015500
v 2.679658 1.061346 0.015500
v 2.655469 1.082904 0.015500
v 2.632138 1.105144 0.015500
v 2.610000 1.128000 0.015500
v 2.597535 1.150702 0.015500
v 2.587726 1.174921 0.015500
v 2.580169 1.200400 0.015500
v 2.574461 1.226880 0.015500
v 2.570195 1.254104 0.015500
v 2.566968 1.281813 0.015500
v 2.564375 1.309750 0.015500
v 2.562012 1.337656 0.015500
v 2.559474 1.365273 0.015500
v 2.556356 1.392344 0.015500
v 2.552254 1.418610 0.015500
v 2.546764 1.443813 0.015500
v 2.539481 1.467696 0.015500
v 2.530000 1.490000 0.015500
v 2.525558 1.514647 0.015500
v 2.520787 1.537172 0.015500
v 2.515667 1.557598 0.015500
v 2.510175 1.575948 0.015500
v 2.504289 1.592241 0.015500
v 2.497988 1.606501 0.015500
v 2.491250 1.618750 0.015500
v 2.484052 1.629009 0.015500
v 2.476374 1.637300 0.015500
v 2.468192 1.643644 0.015500
v 2.459486 1.648065 0.015500
v 2.450233 1.650583 0.015500
v 2.440412 1.651221 0.015500
vn 0.000000 0.000000 1.000000
vn 0.000000 0.000000 1.000000
vn 0.000000 0.000000 1.000000
vn 0.000000 0.000000 1.000000
vn 0.000000 0.000000 1.000000
vn 0.000000 0.000000 1.000000
vn 0.000000 0.000000 1.000000
vn 0.000000 0.000000 1.000000
vn 0.000000 0.000000 1.000000
vn 0.000000 0.000000 1.000000
vn 0.000000 0.000000 1.000000
vn 0.000000 0.000000 1.000000
vn 0.000000 0.000000 1.000000
vn 0.000000 0.000000 1.000000
vn 0.000000 0.000000 1.000000
vn 0.000000 0.000000 1.000000
vn 0.000000 0.000000 1.000000
vn 0.000000 0.000000 1.000000
vn 0.000000 0.000000 1.000000
vn 0.000000 0.000000 1.000000
vn 0.000000 0.000000 1.000000
vn 0.000000 0.000000 1.000000
vn 0.000000 0.000000 1.000000
vn 0.000000 0.000000 1.000000
vn 0.000000 0.000000 1.000000
vn 0.000000 0.000000 1.000000
vn 0.000000 0.000000 1.000000
vn 0.000000 0.000000 1.000000
vn 0.000000 0.000000 1.000000
vn 0.000000 0.000000 1.000000
vn 0.000000 0.000000 1.000000
vn 0.000000 0.000000 1.000000
vn 0.000000 0.000000 1.000000
vn 0.000000 0.000000 1.000000
vn 0.000000 0.000000 1.000000
vn 0.000000 0.000000 1.000000
vn 0.000000 0.000000 1.000000
vn 0.000000 0.000000 1.000000
vn 0.000000 0.000000 1.000000
vn 0.000000 0.000000 1.000000
vn 0.000000 0.000000 1.000000
vn 0.000000 0.000000 1.000000
vn 0.000000 0.000000 1.000000
vn 0.000000 0.000000 1.000000
vn 0.000000 0.000000 1.000000
vn 0.000000 0.000000 1.000000
vn 0.000000 0.000000 1.000000
vn 0.000000 0.000000 1.000000
vn 0.000000 0.000000 1.000000
vn 0.000000 0.000000 1.000000
vn 0.000000 0.000000 1.000000
vn 0.000000 0.000000 1.000000
vn 0.000000 0.000000 1.000000
vn 0.000000 0.000000 1.000000
vn 0.000000 0.000000 1.000000
vn 0.000000 0.000000 1.000000
vn 0.000000 0.000000 1.000000
vn 0.000000 0.000000 1.000000
vn 0.000000 0.000000 1.000000
vn 0.000000 0.000000 1.000000
vn 0.000000 0.000000 1.000000
vn 0.000000 0.000000 1.000000
vn 0.000000 0.000000 1.000000
vn 0.000000 0.000000 1.000000
vn 0.000000 0.000000 1.000000
vn 0.000000 0.000000 1.000000
vn 0.000000 0.000000 1.000000
vn 0.000000 0.000000 1.000000
vn 0.000000 0.000000 1.000000
vn 0.000000 0.000000 1.000000
vn 0.000000 0.000000 1.000000
vn 0.000000 0.000000 1.000000
vn 0.000000 0.000000 1.000000
vn 0.000000 0.000000 1.000000
vn 0.000000 0.000000 1.000000
vn 0.000000 0.000000 1.000000
vn 0.000000 0.000000 1.000000
vn 0.000000 0.000000 1.000000
vn 0.000000 0.000000 1.000000
vn 0.000000 0.000000 1.000000
vn 0.000000 0.000000 1.000000
vn 0.000000 0.000000 1.000000
vn 0.000000 0.000000 1.000000
vn 0.000000 0.000000 1.000000
vn 0.000000 0.000000 1.000000
vn 0.000000 0.000000 1.000000
vn 0.000000 0.000000 1.000000
vn 0.000000 0.000000 1.000000
vn 0.000000 0.000000 1.000000
vn 0.000000 0.000000 1.000000
vn 0.000000 0.000000 1.000000
vn 0.000000 0.000000 1.000000
vn 0.000000 0.000000 1.000000
vn 0.000000 0.000000 1.000000
vn 0.000000 0.000000 1.000000
vn 0.000000 0.000000 1.000000
vn 0.000000 0.000000 1.000000
vn 0.000000 0.000000 1.000000
vn 0.000000 0.000000 1.000000
vn 0.000000 0.000000 1.000000
vn 0.000000 0.000000 1.000000
vn 0.000000 0.000000 1.000000
vn 0.000000 0.000000 1.000000
vn 0.000000 0.000000 1.000000
vn 0.000000 0.000000 1.000000
vn 0.000000 0.000000 1.000000
vn 0.000000 0.000000 1.000000
vn 0.000000 0.000000 1.000000
vn 0.000000 0.000000 1.000000
vn 0.000000 0.000000 1.000000
vn 0.000000 0.000000 1.000000
vn 0.000000 0.000000 1.000000
vn 0.000000 0.000000 1.000000
vn 0.000000 0.000000 1.000000
vn 0.000000 0.000000 1.000000
vn 0.000000 0.000000 1.000000
vn 0.000000 0.000000 1.000000
vn 0.000000 0.000000 1.000000
vn 0.000000 0.000000 1.000000
vn 0.000000 0.000000 1.000000
vn 0.000000 0.000000 1.000000
vn 0.000000 0.000000 1.000000
vn 0.000000 0.000000 1.000000
vn 0.000000 0.000000 1.000000
vn 0.000000 0.000000 1.000000
vn 0.000000 0.000000 1.000000
vn 0.000000 0.000000 1.000000
vn 0.000000 0.000000 1.000000
vn 0.000000 0.000000 1.000000
vn 0.000000 0.000000 1.000000
vn 0.000000 0.000000 1.000000
vn 0.000000 0.000000 1.000000
vn 0.000000 0.000000 1.000000
vn 0.000000 0.000000 1.000000
vn 0.000000 0.000000 1.000000
vn 0.000000 0.000000 1.000000
vn 0.000000 0.000000 1.000000
vn 0.000000 0.000000 1.000000
vn 0.000000 0.000000 1.000000
vn 0.000000 0.000000 1.000000
vn 0.000000 0.000000 1.000000
vn 0.000000 0.000000 1.000000
vn 0.000000 0.000000 1.000000
vn 0.000000 0.000000 1.000000
vn 0.000000 0.000000 1.000000
vn 0.000000 0.000000 1.000000
vn 0.000000 0.000000 1.000000
vn 0.000000 0.000000 1.000000
vn 0.000000 0.000000 1.000000
vn 0.000000 0.000000 1.000000
vn 0.000000 0.000000 1.000000
vn 0.000000 0.000000 1.000000
vn 0.000000 0.000000 1.000000
vn 0.000000 0.000000 1.000000
vn 0.000000 0.000000 1.000000
vn 0.000000 0.000000 1.000000
vn 0.000000 0.000000 1.000000
vn 0.000000 0.000000 1.000000
vn 0.000000 0.000000 1.000000
vn 0.000000 0.000000 1.000000
vn 0.000000 0.000000 1.000000
vn 0.000000 0.000000 1.000000
vn 0.000000 0.000000 1.000000
vn 0.000000 0.000000 1.000000
vn 0.000000 0.000000 1.000000
vn 0.000000 0.000000 1.000000
vn 0.000000 0.000000 1.000000
vn 0.000000 0.000000 1.000000
vn 0.000000 0.000000 1.000000
vn 0.000000 0.000000 1.000000
vn 0.000000 0.000000 1.000000
vn 0.000000 0.000000 1.000000
vn 0.000000 0.000000 1.000000
vn 0.000000 0.000000 1.000000
vn 0.000000 0.000000 1.000000
vn 0.000000 0.000000 1.000000
vn 0.000000 0.000000 1.000000
vn 0.000000 0.000000 1.000000
vn 0.000000 0.000000 1.000000
vn 0.000000 0.000000 1.000000
vn 0.000000 0.000000 1.000000
vn 0.000000 0.000000 1.000000
vn 0.000000 0.000000 1.000000
vn 0.000000 0.000000 1.000000
vn 0.000000 0.000000 1.000000
vn 0.000000 0.000000 1.000000
vn 0.000000 0.000000 1.000000
vn 0.000000 0.000000 1.000000
vn 0.000000 0.000000 1.000000
vn 0.000000 0.000000 1.000000
vn 0.000000 0.000000 1.000000
vn 0.000000 0.000000 1.000000
vn 0.000000 0.000000 1.000000
vn 0.000000 0.000000 1.000000
vn 0.000000 0.000000 1.000000
vn 0.000000 0.000000 1.000000
vn 0.000000 0.000000 1.000000
vn 0.000000 0.000000 1.000000
vn 0.000000 0.000000 1.000000
vn 0.000000 0.000000 1.000000
vn 0.000000 0.000000 1.000000
vn 0.000000 0.000000 1.000000
vn 0.000000 0.000000 1.000000
vn 0.000000 0.000000 1.000000
vn 0.000000 0.000000 1.000000
vn 0.000000 0.000000 1.000000
vn 0.000000 0.000000 1.000000
vn 0.000000 0.000000 1.000000
vn 0.000000 0.000000 1.000000
vn 0.000000 0.000000 1.000000
vn 0.000000 0.000000 1.000000
vn 0.000000 0.000000 1.000000
vn 0.000000 0.000000 1.000000
vn 0.000000 0.000000 1.000000
vn 0.000000 0.000000 1.000000
vn 0.000000 0.000000 1.000000
vn 0.000000 0.000000 1.000000
vn 0.000000 0.000000 1.000000
vn 0.000000 0.000000 1.000000
vn 0.000000 0.000000 1.000000
vn 0.000000 0.000000 1.000000
vn 0.000000 0.000000 1.000000
vn 0.000000 0.000000 1.000000
vn 0.000000 0.000000 1.000000
vn 0.000000 0.000000 1.000000
vn 0.000000 0.000000 1.000000
vn 0.000000 0.000000 1.000000
vn 0.000000 0.000000 1.000000
vn 0.000000 0.000000 1.000000
vn 0.000000 0.000000 1.000000
vn 0.000000 0.000000 1.000000
vn 0.000000 0.000000 1.000000
vn 0.000000 0.000000 1.000000
vn 0.000000 0.000000 1.000000
vn 0.000000 0.000000 1.000000
vn 0.000000 0.000000 1.000000
vn 0.000000 0.000000 1.000000
vn 0.000000 0.000000 1.000000
vn 0.000000 0.000000 1.000000
vn 0.000000 0.000000 1.000000
vn 0.000000 0.000000 1.000000
vn 0.000000 0.000000 1.000000
vn 0.000000 0.000000 1.000000
vn 0.000000 0.000000 1.000000
vn 0.000000 0.000000 1.000000
vn 0.000000 0.000000 1.000000
vn 0.000000 0.000000 1.000000
vn 0.000000 0.000000 1.000000
vn 0.000000 0.000000 1.000000
vn 0.000000 0.000000 1.000000
vn 0.000000 0.000000 1.000000
vn 0.000000 0.000000 1.000000
vn 0.000000 0.000000 1.000000
vn 0.000000 0.000000 1.000000
vn 0.000000 0.000000 1.000000
vn 0.000000 0.000000 1.000000
vn 0.000000 0.000000 1.000000
vn 0.000000 0.000000 1.000000
vn 0.000000 0.000000 1.000000
vn 0.000000 0.000000 1.000000
vn 0.000000 0.000000 1.000000
vn 0.000000 0.000000 1.000000
vn 0.000000 0.000000 1.000000
vn 0.000000 0.000000 1.000000
vn 0.000000 0.000000 1.000000
vn 0.000000 0.000000 1.000000
vn 0.000000 0.000000 1.000000
vn 0.000000 0.000000 1.000000
vn 0.000000 0.000000 1.000000
vn 0.000000 0.000000 1.000000
vn 0.000000 0.000000 1.000000
vn 0.000000 0.000000 1.000000
vn 0.000000 0.000000 1.000000
vn 0.000000 0.000000 1.000000
vn 0.000000 0.000000 1.000000
vn 0.000000 0.000000 1.000000
vn 0.000000 0.000000 1.000000
vn 0.000000 0.000000 1.000000
f 60//60 1//1 2//2
f 60//60 2//2 3//3
f 60//60 3//3 4//4
f 60//60 4//4 5//5
f 60//60 5//5 6//6
f 60//60 6//6 7//7
f 60//60 7//7 8//8
f 60//60 8//8 9//9
f 60//60 9//9 10//10
f 60//60 10//10 11//11
f 60//60 11//11 12//12
f 60//60 12//12 13//13
f 60//60 13//13 14//14
f 60//60 14//14 15//15
f 60//60 15//15 16//16
f 60//60 16//16 17//17
f 60//60 17//17 18//18
f 60//60 18//18 19//19
f 60//60 19//19 20//20
f 60//60 20//20 21//21
f 60//60 21//21 22//22
f 60//60 22//22 23//23
f 60//60 23//23 24//24
f 60//60 24//24 25//25
f 60//60 25//25 26//26
f 60//60 26//26 27//27
f 60//60 27//27 28//28
f 60//60 28//28 29//29
f 60//60 29//29 30//30
f 60//60 30//30 31//31
f 60//60 31//31 32//32
f 60//60 32//32 33//33
f 60//60 33//33 34//34
f 60//60 34//34 35//35
f 60//60 35//35 36//36
f 60//60 36//36 37//37
f 60//60 37//37 38//38
f 60//60 38//38 39//39
f 60//60 39//39 40//40
f 60//60 40//40 41//41
f 60//60 41//41 42//42
f 60//60 42//42 43//43
f 60//60 43//43 44//44
f 44//44 45//45 46//46
f 44//44 46//46 47//47
f 44//44 47//47 48//48
f 44//44 48//48 49//49
f 44//44 49//49 50//50
f 44//44 50//50 51//51
f 44//44 51//51 52//52
f 44//44 52//52 53//53
f 44//44 53//53 54//54
f 44//44 54//54 55//55
f 60//60 44//44 55//55
f 60//60 55//55 56//56
f 60//60 56//56 57//57
f 60//60 57//57 58//58
f 58//58 59//59 60//60
f 120//120 61//61 62//62
f 120//120 62//62 63//63
f 120//120 63//63 64//64
f 120//120 64//64 65//65
f 120//120 65//65 66//66
f 120//120 66//66 67//67
f 120//120 67//67 68//68
f 120//120 68//68 69//69
f 120//120 69//69 70//70
f 120//120 70//70 71//71
f 120//120 71//71 72//72
f 120//120 72//72 73//73
f 120//120 73//73 74//74
f 120//120 74//74 75//75
f 120//120 75//75 76//76
f 120//120 76//76 77//77
f 120//120 77//77 78//78
f 120//120 78//78 79//79
f 120//120 79//79 80//80
f 120//120 80//80 81//81
f 120//120 81//81 82//82
f 120//120 82//82 83//83
f 120//120 83//83 84//84
f 120//120 84//84 85//85
f 120//120 85//85 86//86
f 120//120 86//86 87//87
f 120//120 87//87 88//88
f 120//120 88//88 89//89
f 120//120 89//89 90//90
f 120//120 90//90 91//91
f 120//120 91//91 92//92
f 120//120 92//92 93//93
f 120//120 93//93 94//94
f 120//120 94//94 95//95
f 120//120 95//95 96//96
f 120//120 96//96 97//97
f 120//120 97//97 98//98
f 120//120 98//98 99//99
f 120//120 99//99 100//100
f 120//120 100//100 101//101
f 120//120 101//101 102//102
f 120//120 102//102 103//103
f 103//103 104//104 105//105
f 103//103 105//105 106//106
f 103//103 106//106 107//107
f 103//103 107//107 108//108
f 103//103 108//108 109//109
f 103//103 109//109 110//110
f 103//103 110//110 111//111
f 103//103 111//111 112//112
f 103//103 112//112 113//113
f 103//103 113//113 114//114
f 103//103 114//114 115//115
f 120//120 103//103 115//115
f 120//120 115//115 116//116
f 120//120 116//116 117//117
f 120//120 117//117 118//118
f 118//118 119//119 120//120
f 180//180 121//121 122//122
f 180//180 122//122 123//123
f 180//180 123//123 124//124
f 180//180 124//124 125//125
f 180//180 125//125 126//126
f 180//180 126//126 127//127
f 180//180 127//127 128//128
f 180//180 128//128 129//129
f 180//180 129//129 130//130
f 180//180 130//130 131//131
f 180//180 131//131 132//132
f 180//180 132//132 133//133
f 180//180 133//133 134//134
f 180//180 134//134 135//135
f 180//180 135//135 136//136
f 180//180 136//136 137//137
f 180//180 137//137 138//138
f 180//180 138//138 139//139
f 180//180 139//139 140//140
f 180//180 140//140 141//141
f 180//180 141//141 142//142
f 180//180 142//142 143//143
f 180//180 143//143 144//144
f 180//180 144//144 145//145
f 180//180 145//145 146//146
f 180//180 146//146 147//147
f 180//180 147//147 148//148
f 180//180 148//148 149//149
f 180//180 149//149 150//150
f 180//180 150//150 151//151
f 180//180 151//151 152//152
f 180//180 152//152 153//153
f 180//180 153//153 154//154
f 180//180 154//154 155//155
f 180//180 155//155 156//156
f 180//180 156//156 157//157
f 180//180 157//157 158//158
f 180//180 158//158 159//159
f 180//180 159//159 160//160
f 180//180 160//160 161//161
f 180//180 161//161 162//162
f 180//180 162//162 163//163
f 163//163 164//164 165//165
f 163//163 165//165 166//166
f 163//163 166//166 167//167
f 163//163 167//167 168//168
f 163//163 168//168 169//169
f 163//163 169//169 170//170
f 163//163 170//170 171//171
f 163//163 171//171 172//172
f 163//163 172//172 173//173
f 163//163 173//173 174//174
f 163//163 174//174 175//175
f 180//180 163//163 175//175
f 180//180 175//175 176//176
f 180//180 176//176 177//177
f 180//180 177//177 178//178
f 178//178 179//179 180//180
f 181//181 182//182 183//183
f 181//181 183//183 184//184
f 278//278 181//181 184//184
f 278//278 184//184 185//185
f 278//278 185//185 186//186
f 278//278 186//186 187//187
f 278//278 187//187 188//188
f 278//278 188//188 189//189
f 278//278 189//189 190//190
f 278//278 190//190 191//191
f 278//278 191//191 192//192
f 278//278 192//192 193//193
f 278//278 193//193 194//194
f 278//278 194//194 195//195
f 278//278 195//195 196//196
f 278//278 196//196 197//197
f 278//278 197//197 198//198
f 278//278 198//198 199//199
f 278//278 199//199 200//200
f 278//278 200//200 201//201
f 278//278 201//201 202//202
f 278//278 202//202 203//203
f 278//278 203//203 204//204
f 278//278 204//204 205//205
f 278//278 205//205 206//206
f 278//278 206//206 207//207
f 278//278 207//207 208//208
f 278//278 208//208 209//209
f 278//278 209//209 210//210
f 278//278 210//210 211//211
f 211//211 212//212 213//213
f 211//211 213//213 214//214
f 211//211 214//214 215//215
f 211//211 215//215 216//216
f 211//211 216//216 217//217
f 211//211 217//217 218//218
f 211//211 218//218 219//219
f 211//211 219//219 220//220
f 211//211 220//220 221//221
f 211//211 221//221 222//222
f 222//222 223//223 224//224
f 222//222 224//224 225//225
f 211//211 222//222 225//225
f 211//211 225//225 226//226
f 211//211 226//226 227//227
f 211//211 227//227 228//228
f 211//211 228//228 229//229
f 211//211 229//229 230//230
f 211//211 230//230 231//231
f 211//211 231//231 232//232
f 211//211 232//232 233//233
f 211//211 233//233 234//234
f 211//211 234//234 235//235
f 211//211 235//235 236//236
f 211//211 236//236 237//237
f 211//211 237//237 238//238
f 211//211 238//238 239//239
f 211//211 239//239 240//240
f 211//211 240//240 241//241
f 211//211 241//241 242//242
f 211//211 242//242 243//243
f 211//211 243//243 244//244
f 211//211 244//244 245//245
f 211//211 245//245 246//246
f 211//211 246//246 247//247
f 211//211 247//247 248//248
f 211//211 248//248 249//249
f 211//211 249//249 250//250
f 211//211 250//250 251//251
f 211//211 251//251 252//252
f 211//211 252//252 253//253
f 278//278 211//211 253//253
f 278//278 253//253 254//254
f 278//278 254//254 255//255
f 278//278 255//255 256//256
f 278//278 256//256 257//257
f 278//278 257//257 258//258
f 278//278 258//258 259//259
f 278//278 259//259 260//260
f 278//278 260//260 261//261
f 278//278 261//261 262//262
f 278//278 262//262 263//263
f 278//278 263//263 264//264
f 278//278 264//264 265//265
f 278//278 265//265 266//266
f 278//278 266//266 267//267
f 278//278 267//267 268//268
f 278//278 268//268 269//269
f 278//278 269//269 270//270
f 278//278 270//270 271//271
f 278//278 271//271 272//272
f 278//278 272//272 273//273
f 278//278 273//273 274//274
f 278//278 274//274 275//275
f 278//278 275//275 276//276
f 276//276 277//277 278//278
