# Dongfeng sandbox; metres; X right, Y far, Z up
mtllib scene.mtl
usemtl red
v 0.311000 0.896000 0.205500
v 0.311000 0.898000 0.205500
v 0.389000 0.898000 0.205500
v 0.389000 0.896000 0.205500
v 0.311000 0.896000 0.251500
v 0.389000 0.896000 0.251500
v 0.389000 0.898000 0.251500
v 0.311000 0.898000 0.251500
v 0.311000 0.896000 0.205500
v 0.389000 0.896000 0.205500
v 0.389000 0.896000 0.251500
v 0.311000 0.896000 0.251500
v 0.389000 0.896000 0.205500
v 0.389000 0.898000 0.205500
v 0.389000 0.898000 0.251500
v 0.389000 0.896000 0.251500
v 0.389000 0.898000 0.205500
v 0.311000 0.898000 0.205500
v 0.311000 0.898000 0.251500
v 0.389000 0.898000 0.251500
v 0.311000 0.898000 0.205500
v 0.311000 0.896000 0.205500
v 0.311000 0.896000 0.251500
v 0.311000 0.898000 0.251500
v 0.311000 1.996000 0.205500
v 0.311000 1.998000 0.205500
v 0.389000 1.998000 0.205500
v 0.389000 1.996000 0.205500
v 0.311000 1.996000 0.251500
v 0.389000 1.996000 0.251500
v 0.389000 1.998000 0.251500
v 0.311000 1.998000 0.251500
v 0.311000 1.996000 0.205500
v 0.389000 1.996000 0.205500
v 0.389000 1.996000 0.251500
v 0.311000 1.996000 0.251500
v 0.389000 1.996000 0.205500
v 0.389000 1.998000 0.205500
v 0.389000 1.998000 0.251500
v 0.389000 1.996000 0.251500
v 0.389000 1.998000 0.205500
v 0.311000 1.998000 0.205500
v 0.311000 1.998000 0.251500
v 0.389000 1.998000 0.251500
v 0.311000 1.998000 0.205500
v 0.311000 1.996000 0.205500
v 0.311000 1.996000 0.251500
v 0.311000 1.998000 0.251500
v 0.311000 3.146000 0.205500
v 0.311000 3.148000 0.205500
v 0.389000 3.148000 0.205500
v 0.389000 3.146000 0.205500
v 0.311000 3.146000 0.251500
v 0.389000 3.146000 0.251500
v 0.389000 3.148000 0.251500
v 0.311000 3.148000 0.251500
v 0.311000 3.146000 0.205500
v 0.389000 3.146000 0.205500
v 0.389000 3.146000 0.251500
v 0.311000 3.146000 0.251500
v 0.389000 3.146000 0.205500
v 0.389000 3.148000 0.205500
v 0.389000 3.148000 0.251500
v 0.389000 3.146000 0.251500
v 0.389000 3.148000 0.205500
v 0.311000 3.148000 0.205500
v 0.311000 3.148000 0.251500
v 0.389000 3.148000 0.251500
v 0.311000 3.148000 0.205500
v 0.311000 3.146000 0.205500
v 0.311000 3.146000 0.251500
v 0.311000 3.148000 0.251500
v 1.241000 0.776000 0.205500
v 1.241000 0.778000 0.205500
v 1.319000 0.778000 0.205500
v 1.319000 0.776000 0.205500
v 1.241000 0.776000 0.251500
v 1.319000 0.776000 0.251500
v 1.319000 0.778000 0.251500
v 1.241000 0.778000 0.251500
v 1.241000 0.776000 0.205500
v 1.319000 0.776000 0.205500
v 1.319000 0.776000 0.251500
v 1.241000 0.776000 0.251500
v 1.319000 0.776000 0.205500
v 1.319000 0.778000 0.205500
v 1.319000 0.778000 0.251500
v 1.319000 0.776000 0.251500
v 1.319000 0.778000 0.205500
v 1.241000 0.778000 0.205500
v 1.241000 0.778000 0.251500
v 1.319000 0.778000 0.251500
v 1.241000 0.778000 0.205500
v 1.241000 0.776000 0.205500
v 1.241000 0.776000 0.251500
v 1.241000 0.778000 0.251500
v 1.241000 1.896000 0.205500
v 1.241000 1.898000 0.205500
v 1.319000 1.898000 0.205500
v 1.319000 1.896000 0.205500
v 1.241000 1.896000 0.251500
v 1.319000 1.896000 0.251500
v 1.319000 1.898000 0.251500
v 1.241000 1.898000 0.251500
v 1.241000 1.896000 0.205500
v 1.319000 1.896000 0.205500
v 1.319000 1.896000 0.251500
v 1.241000 1.896000 0.251500
v 1.319000 1.896000 0.205500
v 1.319000 1.898000 0.205500
v 1.319000 1.898000 0.251500
v 1.319000 1.896000 0.251500
v 1.319000 1.898000 0.205500
v 1.241000 1.898000 0.205500
v 1.241000 1.898000 0.251500
v 1.319000 1.898000 0.251500
v 1.241000 1.898000 0.205500
v 1.241000 1.896000 0.205500
v 1.241000 1.896000 0.251500
v 1.241000 1.898000 0.251500
v 1.251000 3.376000 0.205500
v 1.251000 3.378000 0.205500
v 1.329000 3.378000 0.205500
v 1.329000 3.376000 0.205500
v 1.251000 3.376000 0.251500
v 1.329000 3.376000 0.251500
v 1.329000 3.378000 0.251500
v 1.251000 3.378000 0.251500
v 1.251000 3.376000 0.205500
v 1.329000 3.376000 0.205500
v 1.329000 3.376000 0.251500
v 1.251000 3.376000 0.251500
v 1.329000 3.376000 0.205500
v 1.329000 3.378000 0.205500
v 1.329000 3.378000 0.251500
v 1.329000 3.376000 0.251500
v 1.329000 3.378000 0.205500
v 1.251000 3.378000 0.205500
v 1.251000 3.378000 0.251500
v 1.329000 3.378000 0.251500
v 1.251000 3.378000 0.205500
v 1.251000 3.376000 0.205500
v 1.251000 3.376000 0.251500
v 1.251000 3.378000 0.251500
v 2.911000 0.896000 0.205500
v 2.911000 0.898000 0.205500
v 2.989000 0.898000 0.205500
v 2.989000 0.896000 0.205500
v 2.911000 0.896000 0.251500
v 2.989000 0.896000 0.251500
v 2.989000 0.898000 0.251500
v 2.911000 0.898000 0.251500
v 2.911000 0.896000 0.205500
v 2.989000 0.896000 0.205500
v 2.989000 0.896000 0.251500
v 2.911000 0.896000 0.251500
v 2.989000 0.896000 0.205500
v 2.989000 0.898000 0.205500
v 2.989000 0.898000 0.251500
v 2.989000 0.896000 0.251500
v 2.989000 0.898000 0.205500
v 2.911000 0.898000 0.205500
v 2.911000 0.898000 0.251500
v 2.989000 0.898000 0.251500
v 2.911000 0.898000 0.205500
v 2.911000 0.896000 0.205500
v 2.911000 0.896000 0.251500
v 2.911000 0.898000 0.251500
v 2.911000 1.996000 0.205500
v 2.911000 1.998000 0.205500
v 2.989000 1.998000 0.205500
v 2.989000 1.996000 0.205500
v 2.911000 1.996000 0.251500
v 2.989000 1.996000 0.251500
v 2.989000 1.998000 0.251500
v 2.911000 1.998000 0.251500
v 2.911000 1.996000 0.205500
v 2.989000 1.996000 0.205500
v 2.989000 1.996000 0.251500
v 2.911000 1.996000 0.251500
v 2.989000 1.996000 0.205500
v 2.989000 1.998000 0.205500
v 2.989000 1.998000 0.251500
v 2.989000 1.996000 0.251500
v 2.989000 1.998000 0.205500
v 2.911000 1.998000 0.205500
v 2.911000 1.998000 0.251500
v 2.989000 1.998000 0.251500
v 2.911000 1.998000 0.205500
v 2.911000 1.996000 0.205500
v 2.911000 1.996000 0.251500
v 2.911000 1.998000 0.251500
v 2.911000 3.146000 0.205500
v 2.911000 3.148000 0.205500
v 2.989000 3.148000 0.205500
v 2.989000 3.146000 0.205500
v 2.911000 3.146000 0.251500
v 2.989000 3.146000 0.251500
v 2.989000 3.148000 0.251500
v 2.911000 3.148000 0.251500
v 2.911000 3.146000 0.205500
v 2.989000 3.146000 0.205500
v 2.989000 3.146000 0.251500
v 2.911000 3.146000 0.251500
v 2.989000 3.146000 0.205500
v 2.989000 3.148000 0.205500
v 2.989000 3.148000 0.251500
v 2.989000 3.146000 0.251500
v 2.989000 3.148000 0.205500
v 2.911000 3.148000 0.205500
v 2.911000 3.148000 0.251500
v 2.989000 3.148000 0.251500
v 2.911000 3.148000 0.205500
v 2.911000 3.146000 0.205500
v 2.911000 3.146000 0.251500
v 2.911000 3.148000 0.251500
v 1.981000 0.796000 0.205500
v 1.981000 0.798000 0.205500
v 2.059000 0.798000 0.205500
v 2.059000 0.796000 0.205500
v 1.981000 0.796000 0.251500
v 2.059000 0.796000 0.251500
v 2.059000 0.798000 0.251500
v 1.981000 0.798000 0.251500
v 1.981000 0.796000 0.205500
v 2.059000 0.796000 0.205500
v 2.059000 0.796000 0.251500
v 1.981000 0.796000 0.251500
v 2.059000 0.796000 0.205500
v 2.059000 0.798000 0.205500
v 2.059000 0.798000 0.251500
v 2.059000 0.796000 0.251500
v 2.059000 0.798000 0.205500
v 1.981000 0.798000 0.205500
v 1.981000 0.798000 0.251500
v 2.059000 0.798000 0.251500
v 1.981000 0.798000 0.205500
v 1.981000 0.796000 0.205500
v 1.981000 0.796000 0.251500
v 1.981000 0.798000 0.251500
v 1.981000 1.936000 0.205500
v 1.981000 1.938000 0.205500
v 2.059000 1.938000 0.205500
v 2.059000 1.936000 0.205500
v 1.981000 1.936000 0.251500
v 2.059000 1.936000 0.251500
v 2.059000 1.938000 0.251500
v 1.981000 1.938000 0.251500
v 1.981000 1.936000 0.205500
v 2.059000 1.936000 0.205500
v 2.059000 1.936000 0.251500
v 1.981000 1.936000 0.251500
v 2.059000 1.936000 0.205500
v 2.059000 1.938000 0.205500
v 2.059000 1.938000 0.251500
v 2.059000 1.936000 0.251500
v 2.059000 1.938000 0.205500
v 1.981000 1.938000 0.205500
v 1.981000 1.938000 0.251500
v 2.059000 1.938000 0.251500
v 1.981000 1.938000 0.205500
v 1.981000 1.936000 0.205500
v 1.981000 1.936000 0.251500
v 1.981000 1.938000 0.251500
v 1.971000 3.376000 0.205500
v 1.971000 3.378000 0.205500
v 2.049000 3.378000 0.205500
v 2.049000 3.376000 0.205500
v 1.971000 3.376000 0.251500
v 2.049000 3.376000 0.251500
v 2.049000 3.378000 0.251500
v 1.971000 3.378000 0.251500
v 1.971000 3.376000 0.205500
v 2.049000 3.376000 0.205500
v 2.049000 3.376000 0.251500
v 1.971000 3.376000 0.251500
v 2.049000 3.376000 0.205500
v 2.049000 3.378000 0.205500
v 2.049000 3.378000 0.251500
v 2.049000 3.376000 0.251500
v 2.049000 3.378000 0.205500
v 1.971000 3.378000 0.205500
v 1.971000 3.378000 0.251500
v 2.049000 3.378000 0.251500
v 1.971000 3.378000 0.205500
v 1.971000 3.376000 0.205500
v 1.971000 3.376000 0.251500
v 1.971000 3.378000 0.251500
v 0.861000 4.224789 0.205500
v 0.861000 4.226789 0.205500
v 0.939000 4.226789 0.205500
v 0.939000 4.224789 0.205500
v 0.861000 4.224789 0.251500
v 0.939000 4.224789 0.251500
v 0.939000 4.226789 0.251500
v 0.861000 4.226789 0.251500
v 0.861000 4.224789 0.205500
v 0.939000 4.224789 0.205500
v 0.939000 4.224789 0.251500
v 0.861000 4.224789 0.251500
v 0.939000 4.224789 0.205500
v 0.939000 4.226789 0.205500
v 0.939000 4.226789 0.251500
v 0.939000 4.224789 0.251500
v 0.939000 4.226789 0.205500
v 0.861000 4.226789 0.205500
v 0.861000 4.226789 0.251500
v 0.939000 4.226789 0.251500
v 0.861000 4.226789 0.205500
v 0.861000 4.224789 0.205500
v 0.861000 4.224789 0.251500
v 0.861000 4.226789 0.251500
v 2.361000 4.224789 0.205500
v 2.361000 4.226789 0.205500
v 2.439000 4.226789 0.205500
v 2.439000 4.224789 0.205500
v 2.361000 4.224789 0.251500
v 2.439000 4.224789 0.251500
v 2.439000 4.226789 0.251500
v 2.361000 4.226789 0.251500
v 2.361000 4.224789 0.205500
v 2.439000 4.224789 0.205500
v 2.439000 4.224789 0.251500
v 2.361000 4.224789 0.251500
v 2.439000 4.224789 0.205500
v 2.439000 4.226789 0.205500
v 2.439000 4.226789 0.251500
v 2.439000 4.224789 0.251500
v 2.439000 4.226789 0.205500
v 2.361000 4.226789 0.205500
v 2.361000 4.226789 0.251500
v 2.439000 4.226789 0.251500
v 2.361000 4.226789 0.205500
v 2.361000 4.224789 0.205500
v 2.361000 4.224789 0.251500
v 2.361000 4.226789 0.251500
v 1.611000 4.496000 0.205500
v 1.611000 4.498000 0.205500
v 1.689000 4.498000 0.205500
v 1.689000 4.496000 0.205500
v 1.611000 4.496000 0.251500
v 1.689000 4.496000 0.251500
v 1.689000 4.498000 0.251500
v 1.611000 4.498000 0.251500
v 1.611000 4.496000 0.205500
v 1.689000 4.496000 0.205500
v 1.689000 4.496000 0.251500
v 1.611000 4.496000 0.251500
v 1.689000 4.496000 0.205500
v 1.689000 4.498000 0.205500
v 1.689000 4.498000 0.251500
v 1.689000 4.496000 0.251500
v 1.689000 4.498000 0.205500
v 1.611000 4.498000 0.205500
v 1.611000 4.498000 0.251500
v 1.689000 4.498000 0.251500
v 1.611000 4.498000 0.205500
v 1.611000 4.496000 0.205500
v 1.611000 4.496000 0.251500
v 1.611000 4.498000 0.251500
v 0.390000 4.133759 0.126000
v 0.384631 4.130659 0.126000
v 0.384631 4.124458 0.126000
v 0.390000 4.121358 0.126000
v 0.395369 4.124458 0.126000
v 0.395369 4.130659 0.126000
v 0.390000 4.133759 0.150000
v 0.384631 4.130659 0.150000
v 0.384631 4.124458 0.150000
v 0.390000 4.121358 0.150000
v 0.395369 4.124458 0.150000
v 0.395369 4.130659 0.150000
v 0.390000 4.133759 0.178000
v 0.384631 4.130659 0.178000
v 0.384631 4.124458 0.178000
v 0.390000 4.121358 0.178000
v 0.395369 4.124458 0.178000
v 0.395369 4.130659 0.178000
v 0.390000 4.133759 0.202000
v 0.384631 4.130659 0.202000
v 0.384631 4.124458 0.202000
v 0.390000 4.121358 0.202000
v 0.395369 4.124458 0.202000
v 0.395369 4.130659 0.202000
v 0.465144 4.134643 0.215000
v 0.464601 4.137695 0.209631
v 0.463514 4.143799 0.209631
v 0.462970 4.146851 0.215000
v 0.463514 4.143799 0.220369
v 0.464601 4.137695 0.220369
v 0.502173 4.141237 0.215000
v 0.501629 4.144289 0.209631
v 0.500542 4.150393 0.209631
v 0.499999 4.153445 0.215000
v 0.500542 4.150393 0.220369
v 0.501629 4.144289 0.220369
v 0.604001 4.159372 0.215000
v 0.603458 4.162424 0.209631
v 0.602371 4.168528 0.209631
v 0.601827 4.171580 0.215000
v 0.602371 4.168528 0.220369
v 0.603458 4.162424 0.220369
v 0.641030 4.165966 0.215000
v 0.640486 4.169018 0.209631
v 0.639399 4.175122 0.209631
v 0.638856 4.178174 0.215000
v 0.639399 4.175122 0.220369
v 0.640486 4.169018 0.220369
v 0.742858 4.184101 0.215000
v 0.742315 4.187152 0.209631
v 0.741228 4.193256 0.209631
v 0.740684 4.196309 0.215000
v 0.741228 4.193256 0.220369
v 0.742315 4.187152 0.220369
v 0.779887 4.190695 0.215000
v 0.779344 4.193747 0.209631
v 0.778256 4.199851 0.209631
v 0.777713 4.202903 0.215000
v 0.778256 4.199851 0.220369
v 0.779344 4.193747 0.220369
v 2.910000 4.133759 0.126000
v 2.904631 4.130659 0.126000
v 2.904631 4.124458 0.126000
v 2.910000 4.121358 0.126000
v 2.915369 4.124458 0.126000
v 2.915369 4.130659 0.126000
v 2.910000 4.133759 0.150000
v 2.904631 4.130659 0.150000
v 2.904631 4.124458 0.150000
v 2.910000 4.121358 0.150000
v 2.915369 4.124458 0.150000
v 2.915369 4.130659 0.150000
v 2.910000 4.133759 0.178000
v 2.904631 4.130659 0.178000
v 2.904631 4.124458 0.178000
v 2.910000 4.121358 0.178000
v 2.915369 4.124458 0.178000
v 2.915369 4.130659 0.178000
v 2.910000 4.133759 0.202000
v 2.904631 4.130659 0.202000
v 2.904631 4.124458 0.202000
v 2.910000 4.121358 0.202000
v 2.915369 4.124458 0.202000
v 2.915369 4.130659 0.202000
v 2.837030 4.146851 0.215000
v 2.836486 4.143799 0.209631
v 2.835399 4.137695 0.209631
v 2.834856 4.134643 0.215000
v 2.835399 4.137695 0.220369
v 2.836486 4.143799 0.220369
v 2.800001 4.153445 0.215000
v 2.799458 4.150393 0.209631
v 2.798371 4.144289 0.209631
v 2.797827 4.141237 0.215000
v 2.798371 4.144289 0.220369
v 2.799458 4.150393 0.220369
v 2.698173 4.171580 0.215000
v 2.697629 4.168528 0.209631
v 2.696542 4.162424 0.209631
v 2.695999 4.159372 0.215000
v 2.696542 4.162424 0.220369
v 2.697629 4.168528 0.220369
v 2.661144 4.178174 0.215000
v 2.660601 4.175122 0.209631
v 2.659514 4.169018 0.209631
v 2.658970 4.165966 0.215000
v 2.659514 4.169018 0.220369
v 2.660601 4.175122 0.220369
v 2.559316 4.196309 0.215000
v 2.558772 4.193256 0.209631
v 2.557685 4.187152 0.209631
v 2.557142 4.184101 0.215000
v 2.557685 4.187152 0.220369
v 2.558772 4.193256 0.220369
v 2.522287 4.202903 0.215000
v 2.521744 4.199851 0.209631
v 2.520657 4.193747 0.209631
v 2.520113 4.190695 0.215000
v 2.520657 4.193747 0.220369
v 2.521744 4.199851 0.220369
vn 0.000000 0.000000 -1.000000
vn 0.000000 0.000000 -1.000000
vn 0.000000 0.000000 -1.000000
vn 0.000000 0.000000 -1.000000
vn 0.000000 0.000000 1.000000
vn 0.000000 0.000000 1.000000
vn 0.000000 0.000000 1.000000
vn 0.000000 0.000000 1.000000
vn 0.000000 -1.000000 0.000000
vn 0.000000 -1.000000 0.000000
vn 0.000000 -1.000000 0.000000
vn 0.000000 -1.000000 0.000000
vn 1.000000 0.000000 0.000000
vn 1.000000 0.000000 0.000000
vn 1.000000 0.000000 0.000000
vn 1.000000 0.000000 0.000000
vn 0.000000 1.000000 0.000000
vn 0.000000 1.000000 0.000000
vn 0.000000 1.000000 0.000000
vn 0.000000 1.000000 0.000000
vn -1.000000 0.000000 0.000000
vn -1.000000 0.000000 0.000000
vn -1.000000 0.000000 0.000000
vn -1.000000 0.000000 0.000000
vn 0.000000 0.000000 -1.000000
vn 0.000000 0.000000 -1.000000
vn 0.000000 0.000000 -1.000000
vn 0.000000 0.000000 -1.000000
vn 0.000000 0.000000 1.000000
vn 0.000000 0.000000 1.000000
vn 0.000000 0.000000 1.000000
vn 0.000000 0.000000 1.000000
vn 0.000000 -1.000000 0.000000
vn 0.000000 -1.000000 0.000000
vn 0.000000 -1.000000 0.000000
vn 0.000000 -1.000000 0.000000
vn 1.000000 0.000000 0.000000
vn 1.000000 0.000000 0.000000
vn 1.000000 0.000000 0.000000
vn 1.000000 0.000000 0.000000
vn 0.000000 1.000000 0.000000
vn 0.000000 1.000000 0.000000
vn 0.000000 1.000000 0.000000
vn 0.000000 1.000000 0.000000
vn -1.000000 0.000000 0.000000
vn -1.000000 0.000000 0.000000
vn -1.000000 0.000000 0.000000
vn -1.000000 0.000000 0.000000
vn 0.000000 0.000000 -1.000000
vn 0.000000 0.000000 -1.000000
vn 0.000000 0.000000 -1.000000
vn 0.000000 0.000000 -1.000000
vn 0.000000 0.000000 1.000000
vn 0.000000 0.000000 1.000000
vn 0.000000 0.000000 1.000000
vn 0.000000 0.000000 1.000000
vn 0.000000 -1.000000 0.000000
vn 0.000000 -1.000000 0.000000
vn 0.000000 -1.000000 0.000000
vn 0.000000 -1.000000 0.000000
vn 1.000000 0.000000 0.000000
vn 1.000000 0.000000 0.000000
vn 1.000000 0.000000 0.000000
vn 1.000000 0.000000 0.000000
vn 0.000000 1.000000 0.000000
vn 0.000000 1.000000 0.000000
vn 0.000000 1.000000 0.000000
vn 0.000000 1.000000 0.000000
vn -1.000000 0.000000 0.000000
vn -1.000000 0.000000 0.000000
vn -1.000000 0.000000 0.000000
vn -1.000000 0.000000 0.000000
vn 0.000000 0.000000 -1.000000
vn 0.000000 0.000000 -1.000000
vn 0.000000 0.000000 -1.000000
vn 0.000000 0.000000 -1.000000
vn 0.000000 0.000000 1.000000
vn 0.000000 0.000000 1.000000
vn 0.000000 0.000000 1.000000
vn 0.000000 0.000000 1.000000
vn 0.000000 -1.000000 0.000000
vn 0.000000 -1.000000 0.000000
vn 0.000000 -1.000000 0.000000
vn 0.000000 -1.000000 0.000000
vn 1.000000 0.000000 0.000000
vn 1.000000 0.000000 0.000000
vn 1.000000 0.000000 0.000000
vn 1.000000 0.000000 0.000000
vn 0.000000 1.000000 0.000000
vn 0.000000 1.000000 0.000000
vn 0.000000 1.000000 0.000000
vn 0.000000 1.000000 0.000000
vn -1.000000 0.000000 0.000000
vn -1.000000 0.000000 0.000000
vn -1.000000 0.000000 0.000000
vn -1.000000 0.000000 0.000000
vn 0.000000 0.000000 -1.000000
vn 0.000000 0.000000 -1.000000
vn 0.000000 0.000000 -1.000000
vn 0.000000 0.000000 -1.000000
vn 0.000000 0.000000 1.000000
vn 0.000000 0.000000 1.000000
vn 0.000000 0.000000 1.000000
vn 0.000000 0.000000 1.000000
vn 0.000000 -1.000000 0.000000
vn 0.000000 -1.000000 0.000000
vn 0.000000 -1.000000 0.000000
vn 0.000000 -1.000000 0.000000
vn 1.000000 0.000000 0.000000
vn 1.000000 0.000000 0.000000
vn 1.000000 0.000000 0.000000
vn 1.000000 0.000000 0.000000
vn 0.000000 1.000000 0.000000
vn 0.000000 1.000000 0.000000
vn 0.000000 1.000000 0.000000
vn 0.000000 1.000000 0.000000
vn -1.000000 0.000000 0.000000
vn -1.000000 0.000000 0.000000
vn -1.000000 0.000000 0.000000
vn -1.000000 0.000000 0.000000
vn 0.000000 0.000000 -1.000000
vn 0.000000 0.000000 -1.000000
vn 0.000000 0.000000 -1.000000
vn 0.000000 0.000000 -1.000000
vn 0.000000 0.000000 1.000000
vn 0.000000 0.000000 1.000000
vn 0.000000 0.000000 1.000000
vn 0.000000 0.000000 1.000000
vn 0.000000 -1.000000 0.000000
vn 0.000000 -1.000000 0.000000
vn 0.000000 -1.000000 0.000000
vn 0.000000 -1.000000 0.000000
vn 1.000000 0.000000 0.000000
vn 1.000000 0.000000 0.000000
vn 1.000000 0.000000 0.000000
vn 1.000000 0.000000 0.000000
vn 0.000000 1.000000 0.000000
vn 0.000000 1.000000 0.000000
vn 0.000000 1.000000 0.000000
vn 0.000000 1.000000 0.000000
vn -1.000000 0.000000 0.000000
vn -1.000000 0.000000 0.000000
vn -1.000000 0.000000 0.000000
vn -1.000000 0.000000 0.000000
vn 0.000000 0.000000 -1.000000
vn 0.000000 0.000000 -1.000000
vn 0.000000 0.000000 -1.000000
vn 0.000000 0.000000 -1.000000
vn 0.000000 0.000000 1.000000
vn 0.000000 0.000000 1.000000
vn 0.000000 0.000000 1.000000
vn 0.000000 0.000000 1.000000
vn 0.000000 -1.000000 0.000000
vn 0.000000 -1.000000 0.000000
vn 0.000000 -1.000000 0.000000
vn 0.000000 -1.000000 0.000000
vn 1.000000 0.000000 0.000000
vn 1.000000 0.000000 0.000000
vn 1.000000 0.000000 0.000000
vn 1.000000 0.000000 0.000000
vn 0.000000 1.000000 0.000000
vn 0.000000 1.000000 0.000000
vn 0.000000 1.000000 0.000000
vn 0.000000 1.000000 0.000000
vn -1.000000 0.000000 0.000000
vn -1.000000 0.000000 0.000000
vn -1.000000 0.000000 0.000000
vn -1.000000 0.000000 0.000000
vn 0.000000 0.000000 -1.000000
vn 0.000000 0.000000 -1.000000
vn 0.000000 0.000000 -1.000000
vn 0.000000 0.000000 -1.000000
vn 0.000000 0.000000 1.000000
vn 0.000000 0.000000 1.000000
vn 0.000000 0.000000 1.000000
vn 0.000000 0.000000 1.000000
vn 0.000000 -1.000000 0.000000
vn 0.000000 -1.000000 0.000000
vn 0.000000 -1.000000 0.000000
vn 0.000000 -1.000000 0.000000
vn 1.000000 0.000000 0.000000
vn 1.000000 0.000000 0.000000
vn 1.000000 0.000000 0.000000
vn 1.000000 0.000000 0.000000
vn 0.000000 1.000000 0.000000
vn 0.000000 1.000000 0.000000
vn 0.000000 1.000000 0.000000
vn 0.000000 1.000000 0.000000
vn -1.000000 0.000000 0.000000
vn -1.000000 0.000000 0.000000
vn -1.000000 0.000000 0.000000
vn -1.000000 0.000000 0.000000
vn 0.000000 0.000000 -1.000000
vn 0.000000 0.000000 -1.000000
vn 0.000000 0.000000 -1.000000
vn 0.000000 0.000000 -1.000000
vn 0.000000 0.000000 1.000000
vn 0.000000 0.000000 1.000000
vn 0.000000 0.000000 1.000000
vn 0.000000 0.000000 1.000000
vn 0.000000 -1.000000 0.000000
vn 0.000000 -1.000000 0.000000
vn 0.000000 -1.000000 0.000000
vn 0.000000 -1.000000 0.000000
vn 1.000000 0.000000 0.000000
vn 1.000000 0.000000 0.000000
vn 1.000000 0.000000 0.000000
vn 1.000000 0.000000 0.000000
vn 0.000000 1.000000 0.000000
vn 0.000000 1.000000 0.000000
vn 0.000000 1.000000 0.000000
vn 0.000000 1.000000 0.000000
vn -1.000000 0.000000 0.000000
vn -1.000000 0.000000 0.000000
vn -1.000000 0.000000 0.000000
vn -1.000000 0.000000 0.000000
vn 0.000000 0.000000 -1.000000
vn 0.000000 0.000000 -1.000000
vn 0.000000 0.000000 -1.000000
vn 0.000000 0.000000 -1.000000
vn 0.000000 0.000000 1.000000
vn 0.000000 0.000000 1.000000
vn 0.000000 0.000000 1.000000
vn 0.000000 0.000000 1.000000
vn 0.000000 -1.000000 0.000000
vn 0.000000 -1.000000 0.000000
vn 0.000000 -1.000000 0.000000
vn 0.000000 -1.000000 0.000000
vn 1.000000 0.000000 0.000000
vn 1.000000 0.000000 0.000000
vn 1.000000 0.000000 0.000000
vn 1.000000 0.000000 0.000000
vn 0.000000 1.000000 0.000000
vn 0.000000 1.000000 0.000000
vn 0.000000 1.000000 0.000000
vn 0.000000 1.000000 0.000000
vn -1.000000 0.000000 0.000000
vn -1.000000 0.000000 0.000000
vn -1.000000 0.000000 0.000000
vn -1.000000 0.000000 0.000000
vn 0.000000 0.000000 -1.000000
vn 0.000000 0.000000 -1.000000
vn 0.000000 0.000000 -1.000000
vn 0.000000 0.000000 -1.000000
vn 0.000000 0.000000 1.000000
vn 0.000000 0.000000 1.000000
vn 0.000000 0.000000 1.000000
vn 0.000000 0.000000 1.000000
vn 0.000000 -1.000000 0.000000
vn 0.000000 -1.000000 0.000000
vn 0.000000 -1.000000 0.000000
vn 0.000000 -1.000000 0.000000
vn 1.000000 0.000000 0.000000
vn 1.000000 0.000000 0.000000
vn 1.000000 0.000000 0.000000
vn 1.000000 0.000000 0.000000
vn 0.000000 1.000000 0.000000
vn 0.000000 1.000000 0.000000
vn 0.000000 1.000000 0.000000
vn 0.000000 1.000000 0.000000
vn -1.000000 0.000000 0.000000
vn -1.000000 0.000000 0.000000
vn -1.000000 0.000000 0.000000
vn -1.000000 0.000000 0.000000
vn 0.000000 0.000000 -1.000000
vn 0.000000 0.000000 -1.000000
vn 0.000000 0.000000 -1.000000
vn 0.000000 0.000000 -1.000000
vn 0.000000 0.000000 1.000000
vn 0.000000 0.000000 1.000000
vn 0.000000 0.000000 1.000000
vn 0.000000 0.000000 1.000000
vn 0.000000 -1.000000 0.000000
vn 0.000000 -1.000000 0.000000
vn 0.000000 -1.000000 0.000000
vn 0.000000 -1.000000 0.000000
vn 1.000000 0.000000 0.000000
vn 1.000000 0.000000 0.000000
vn 1.000000 0.000000 0.000000
vn 1.000000 0.000000 0.000000
vn 0.000000 1.000000 0.000000
vn 0.000000 1.000000 0.000000
vn 0.000000 1.000000 0.000000
vn 0.000000 1.000000 0.000000
vn -1.000000 0.000000 0.000000
vn -1.000000 0.000000 0.000000
vn -1.000000 0.000000 0.000000
vn -1.000000 0.000000 0.000000
vn 0.000000 0.000000 -1.000000
vn 0.000000 0.000000 -1.000000
vn 0.000000 0.000000 -1.000000
vn 0.000000 0.000000 -1.000000
vn 0.000000 0.000000 1.000000
vn 0.000000 0.000000 1.000000
vn 0.000000 0.000000 1.000000
vn 0.000000 0.000000 1.000000
vn 0.000000 -1.000000 0.000000
vn 0.000000 -1.000000 0.000000
vn 0.000000 -1.000000 0.000000
vn 0.000000 -1.000000 0.000000
vn 1.000000 0.000000 0.000000
vn 1.000000 0.000000 0.000000
vn 1.000000 0.000000 0.000000
vn 1.000000 0.000000 0.000000
vn 0.000000 1.000000 0.000000
vn 0.000000 1.000000 0.000000
vn 0.000000 1.000000 0.000000
vn 0.000000 1.000000 0.000000
vn -1.000000 0.000000 0.000000
vn -1.000000 0.000000 0.000000
vn -1.000000 0.000000 0.000000
vn -1.000000 0.000000 0.000000
vn 0.000000 0.000000 -1.000000
vn 0.000000 0.000000 -1.000000
vn 0.000000 0.000000 -1.000000
vn 0.000000 0.000000 -1.000000
vn 0.000000 0.000000 1.000000
vn 0.000000 0.000000 1.000000
vn 0.000000 0.000000 1.000000
vn 0.000000 0.000000 1.000000
vn 0.000000 -1.000000 0.000000
vn 0.000000 -1.000000 0.000000
vn 0.000000 -1.000000 0.000000
vn 0.000000 -1.000000 0.000000
vn 1.000000 0.000000 0.000000
vn 1.000000 0.000000 0.000000
vn 1.000000 0.000000 0.000000
vn 1.000000 0.000000 0.000000
vn 0.000000 1.000000 0.000000
vn 0.000000 1.000000 0.000000
vn 0.000000 1.000000 0.000000
vn 0.000000 1.000000 0.000000
vn -1.000000 0.000000 0.000000
vn -1.000000 0.000000 0.000000
vn -1.000000 0.000000 0.000000
vn -1.000000 0.000000 0.000000
vn 0.000000 0.000000 -1.000000
vn 0.000000 0.000000 -1.000000
vn 0.000000 0.000000 -1.000000
vn 0.000000 0.000000 -1.000000
vn 0.000000 0.000000 1.000000
vn 0.000000 0.000000 1.000000
vn 0.000000 0.000000 1.000000
vn 0.000000 0.000000 1.000000
vn 0.000000 -1.000000 0.000000
vn 0.000000 -1.000000 0.000000
vn 0.000000 -1.000000 0.000000
vn 0.000000 -1.000000 0.000000
vn 1.000000 0.000000 0.000000
vn 1.000000 0.000000 0.000000
vn 1.000000 0.000000 0.000000
vn 1.000000 0.000000 0.000000
vn 0.000000 1.000000 0.000000
vn 0.000000 1.000000 0.000000
vn 0.000000 1.000000 0.000000
vn 0.000000 1.000000 0.000000
vn -1.000000 0.000000 0.000000
vn -1.000000 0.000000 0.000000
vn -1.000000 0.000000 0.000000
vn -1.000000 0.000000 0.000000
vn -0.168527 0.875714 -0.452464
vn -0.941555 0.326151 -0.084260
vn -0.732725 -0.634548 -0.245893
vn 0.179014 -0.930211 -0.320409
vn 0.915904 -0.317268 -0.245889
vn 0.753244 0.652321 -0.084262
vn 0.168527 0.875714 0.452463
vn -0.753246 0.652319 0.084262
vn -0.915905 -0.317266 0.245887
vn -0.179015 -0.930210 0.320410
vn 0.732723 -0.634550 0.245894
vn 0.941554 0.326153 0.084260
vn -0.168527 0.875714 -0.452464
vn -0.941555 0.326151 -0.084260
vn -0.732725 -0.634548 -0.245893
vn 0.179014 -0.930211 -0.320409
vn 0.915904 -0.317268 -0.245889
vn 0.753244 0.652321 -0.084262
vn 0.168527 0.875714 0.452463
vn -0.753246 0.652319 0.084262
vn -0.915905 -0.317266 0.245887
vn -0.179015 -0.930210 0.320410
vn 0.732723 -0.634550 0.245894
vn 0.941554 0.326153 0.084260
vn -0.139435 -0.973769 -0.179809
vn 0.004264 -0.331238 -0.943538
vn -0.270627 0.608226 -0.746205
vn -0.376003 0.908021 0.184716
vn -0.213973 0.290102 0.932768
vn 0.061569 -0.653021 0.754833
vn 0.467034 -0.865764 0.179809
vn 0.167652 -0.634116 -0.754844
vn 0.100668 0.346145 -0.932764
vn 0.039412 0.981996 -0.184743
vn 0.044013 0.664246 0.746217
vn 0.110351 -0.312344 0.943538
vn -0.139439 -0.973769 -0.179809
vn 0.004264 -0.331238 -0.943538
vn -0.270626 0.608213 -0.746216
vn -0.376003 0.908021 0.184716
vn -0.213971 0.290094 0.932771
vn 0.061569 -0.653021 0.754833
vn 0.467040 -0.865767 0.179783
vn 0.167660 -0.634129 -0.754832
vn 0.100665 0.346136 -0.932768
vn 0.039412 0.981996 -0.184743
vn 0.044013 0.664246 0.746217
vn 0.110352 -0.312335 0.943541
vn -0.139439 -0.973769 -0.179809
vn 0.004264 -0.331238 -0.943538
vn -0.270626 0.608213 -0.746216
vn -0.376003 0.908021 0.184716
vn -0.213971 0.290093 0.932771
vn 0.061569 -0.653021 0.754833
vn 0.467040 -0.865767 0.179783
vn 0.167660 -0.634129 -0.754832
vn 0.100666 0.346136 -0.932768
vn 0.039412 0.981996 -0.184743
vn 0.044013 0.664246 0.746217
vn 0.110353 -0.312336 0.943541
vn -0.168527 0.875715 -0.452461
vn -0.941553 0.326156 -0.084261
vn -0.732719 -0.634554 -0.245896
vn 0.179017 -0.930209 -0.320412
vn 0.915909 -0.317259 -0.245882
vn 0.753255 0.652309 -0.084261
vn 0.168529 0.875712 0.452466
vn -0.753240 0.652326 0.084263
vn -0.915902 -0.317271 0.245891
vn -0.179015 -0.930211 0.320407
vn 0.732734 -0.634538 0.245890
vn 0.941558 0.326143 0.084258
vn -0.168527 0.875715 -0.452461
vn -0.941553 0.326156 -0.084261
vn -0.732719 -0.634554 -0.245896
vn 0.179017 -0.930209 -0.320412
vn 0.915909 -0.317259 -0.245882
vn 0.753255 0.652309 -0.084261
vn 0.168529 0.875712 0.452466
vn -0.753240 0.652326 0.084263
vn -0.915902 -0.317271 0.245891
vn -0.179015 -0.930211 0.320407
vn 0.732734 -0.634538 0.245890
vn 0.941558 0.326143 0.084258
vn 0.467033 0.865770 -0.179784
vn 0.110352 0.312346 -0.943537
vn 0.044013 -0.664246 -0.746217
vn 0.039417 -0.981996 0.184743
vn 0.100665 -0.346135 0.932768
vn 0.167659 0.634141 0.754821
vn -0.139440 0.973769 0.179810
vn 0.061569 0.653022 -0.754832
vn -0.213974 -0.290103 -0.932768
vn -0.375998 -0.908017 -0.184744
vn -0.270616 -0.608201 0.746230
vn 0.004264 0.331247 0.943535
vn 0.467040 0.865767 -0.179783
vn 0.110353 0.312337 -0.943540
vn 0.044013 -0.664246 -0.746217
vn 0.039413 -0.981996 0.184744
vn 0.100665 -0.346135 0.932769
vn 0.167659 0.634127 0.754833
vn -0.139440 0.973769 0.179810
vn 0.061569 0.653022 -0.754832
vn -0.213972 -0.290095 -0.932771
vn -0.376003 -0.908021 -0.184717
vn -0.270625 -0.608212 0.746217
vn 0.004264 0.331237 0.943538
vn 0.467040 0.865767 -0.179783
vn 0.110353 0.312337 -0.943540
vn 0.044013 -0.664246 -0.746217
vn 0.039413 -0.981996 0.184744
vn 0.100665 -0.346135 0.932769
vn 0.167659 0.634127 0.754833
vn -0.139440 0.973769 0.179810
vn 0.061569 0.653022 -0.754832
vn -0.213972 -0.290095 -0.932771
vn -0.376003 -0.908021 -0.184717
vn -0.270625 -0.608212 0.746217
vn 0.004264 0.331237 0.943538
f 1//1 2//2 3//3
f 1//1 3//3 4//4
f 5//5 6//6 7//7
f 5//5 7//7 8//8
f 9//9 10//10 11//11
f 9//9 11//11 12//12
f 13//13 14//14 15//15
f 13//13 15//15 16//16
f 17//17 18//18 19//19
f 17//17 19//19 20//20
f 21//21 22//22 23//23
f 21//21 23//23 24//24
f 25//25 26//26 27//27
f 25//25 27//27 28//28
f 29//29 30//30 31//31
f 29//29 31//31 32//32
f 33//33 34//34 35//35
f 33//33 35//35 36//36
f 37//37 38//38 39//39
f 37//37 39//39 40//40
f 41//41 42//42 43//43
f 41//41 43//43 44//44
f 45//45 46//46 47//47
f 45//45 47//47 48//48
f 49//49 50//50 51//51
f 49//49 51//51 52//52
f 53//53 54//54 55//55
f 53//53 55//55 56//56
f 57//57 58//58 59//59
f 57//57 59//59 60//60
f 61//61 62//62 63//63
f 61//61 63//63 64//64
f 65//65 66//66 67//67
f 65//65 67//67 68//68
f 69//69 70//70 71//71
f 69//69 71//71 72//72
f 73//73 74//74 75//75
f 73//73 75//75 76//76
f 77//77 78//78 79//79
f 77//77 79//79 80//80
f 81//81 82//82 83//83
f 81//81 83//83 84//84
f 85//85 86//86 87//87
f 85//85 87//87 88//88
f 89//89 90//90 91//91
f 89//89 91//91 92//92
f 93//93 94//94 95//95
f 93//93 95//95 96//96
f 97//97 98//98 99//99
f 97//97 99//99 100//100
f 101//101 102//102 103//103
f 101//101 103//103 104//104
f 105//105 106//106 107//107
f 105//105 107//107 108//108
f 109//109 110//110 111//111
f 109//109 111//111 112//112
f 113//113 114//114 115//115
f 113//113 115//115 116//116
f 117//117 118//118 119//119
f 117//117 119//119 120//120
f 121//121 122//122 123//123
f 121//121 123//123 124//124
f 125//125 126//126 127//127
f 125//125 127//127 128//128
f 129//129 130//130 131//131
f 129//129 131//131 132//132
f 133//133 134//134 135//135
f 133//133 135//135 136//136
f 137//137 138//138 139//139
f 137//137 139//139 140//140
f 141//141 142//142 143//143
f 141//141 143//143 144//144
f 145//145 146//146 147//147
f 145//145 147//147 148//148
f 149//149 150//150 151//151
f 149//149 151//151 152//152
f 153//153 154//154 155//155
f 153//153 155//155 156//156
f 157//157 158//158 159//159
f 157//157 159//159 160//160
f 161//161 162//162 163//163
f 161//161 163//163 164//164
f 165//165 166//166 167//167
f 165//165 167//167 168//168
f 169//169 170//170 171//171
f 169//169 171//171 172//172
f 173//173 174//174 175//175
f 173//173 175//175 176//176
f 177//177 178//178 179//179
f 177//177 179//179 180//180
f 181//181 182//182 183//183
f 181//181 183//183 184//184
f 185//185 186//186 187//187
f 185//185 187//187 188//188
f 189//189 190//190 191//191
f 189//189 191//191 192//192
f 193//193 194//194 195//195
f 193//193 195//195 196//196
f 197//197 198//198 199//199
f 197//197 199//199 200//200
f 201//201 202//202 203//203
f 201//201 203//203 204//204
f 205//205 206//206 207//207
f 205//205 207//207 208//208
f 209//209 210//210 211//211
f 209//209 211//211 212//212
f 213//213 214//214 215//215
f 213//213 215//215 216//216
f 217//217 218//218 219//219
f 217//217 219//219 220//220
f 221//221 222//222 223//223
f 221//221 223//223 224//224
f 225//225 226//226 227//227
f 225//225 227//227 228//228
f 229//229 230//230 231//231
f 229//229 231//231 232//232
f 233//233 234//234 235//235
f 233//233 235//235 236//236
f 237//237 238//238 239//239
f 237//237 239//239 240//240
f 241//241 242//242 243//243
f 241//241 243//243 244//244
f 245//245 246//246 247//247
f 245//245 247//247 248//248
f 249//249 250//250 251//251
f 249//249 251//251 252//252
f 253//253 254//254 255//255
f 253//253 255//255 256//256
f 257//257 258//258 259//259
f 257//257 259//259 260//260
f 261//261 262//262 263//263
f 261//261 263//263 264//264
f 265//265 266//266 267//267
f 265//265 267//267 268//268
f 269//269 270//270 271//271
f 269//269 271//271 272//272
f 273//273 274//274 275//275
f 273//273 275//275 276//276
f 277//277 278//278 279//279
f 277//277 279//279 280//280
f 281//281 282//282 283//283
f 281//281 283//283 284//284
f 285//285 286//286 287//287
f 285//285 287//287 288//288
f 289//289 290//290 291//291
f 289//289 291//291 292//292
f 293//293 294//294 295//295
f 293//293 295//295 296//296
f 297//297 298//298 299//299
f 297//297 299//299 300//300
f 301//301 302//302 303//303
f 301//301 303//303 304//304
f 305//305 306//306 307//307
f 305//305 307//307 308//308
f 309//309 310//310 311//311
f 309//309 311//311 312//312
f 313//313 314//314 315//315
f 313//313 315//315 316//316
f 317//317 318//318 319//319
f 317//317 319//319 320//320
f 321//321 322//322 323//323
f 321//321 323//323 324//324
f 325//325 326//326 327//327
f 325//325 327//327 328//328
f 329//329 330//330 331//331
f 329//329 331//331 332//332
f 333//333 334//334 335//335
f 333//333 335//335 336//336
f 337//337 338//338 339//339
f 337//337 339//339 340//340
f 341//341 342//342 343//343
f 341//341 343//343 344//344
f 345//345 346//346 347//347
f 345//345 347//347 348//348
f 349//349 350//350 351//351
f 349//349 351//351 352//352
f 353//353 354//354 355//355
f 353//353 355//355 356//356
f 357//357 358//358 359//359
f 357//357 359//359 360//360
f 361//361 362//362 368//368
f 361//361 368//368 367//367
f 362//362 363//363 369//369
f 362//362 369//369 368//368
f 363//363 364//364 370//370
f 363//363 370//370 369//369
f 364//364 365//365 371//371
f 364//364 371//371 370//370
f 365//365 366//366 372//372
f 365//365 372//372 371//371
f 366//366 361//361 367//367
f 366//366 367//367 372//372
f 361//361 363//363 362//362
f 361//361 364//364 363//363
f 361//361 365//365 364//364
f 361//361 366//366 365//365
f 367//367 368//368 369//369
f 367//367 369//369 370//370
f 367//367 370//370 371//371
f 367//367 371//371 372//372
f 373//373 374//374 380//380
f 373//373 380//380 379//379
f 374//374 375//375 381//381
f 374//374 381//381 380//380
f 375//375 376//376 382//382
f 375//375 382//382 381//381
f 376//376 377//377 383//383
f 376//376 383//383 382//382
f 377//377 378//378 384//384
f 377//377 384//384 383//383
f 378//378 373//373 379//379
f 378//378 379//379 384//384
f 373//373 375//375 374//374
f 373//373 376//376 375//375
f 373//373 377//377 376//376
f 373//373 378//378 377//377
f 379//379 380//380 381//381
f 379//379 381//381 382//382
f 379//379 382//382 383//383
f 379//379 383//383 384//384
f 385//385 386//386 392//392
f 385//385 392//392 391//391
f 386//386 387//387 393//393
f 386//386 393//393 392//392
f 387//387 388//388 394//394
f 387//387 394//394 393//393
f 388//388 389//389 395//395
f 388//388 395//395 394//394
f 389//389 390//390 396//396
f 389//389 396//396 395//395
f 390//390 385//385 391//391
f 390//390 391//391 396//396
f 385//385 387//387 386//386
f 385//385 388//388 387//387
f 385//385 389//389 388//388
f 385//385 390//390 389//389
f 391//391 392//392 393//393
f 391//391 393//393 394//394
f 391//391 394//394 395//395
f 391//391 395//395 396//396
f 397//397 398//398 404//404
f 397//397 404//404 403//403
f 398//398 399//399 405//405
f 398//398 405//405 404//404
f 399//399 400//400 406//406
f 399//399 406//406 405//405
f 400//400 401//401 407//407
f 400//400 407//407 406//406
f 401//401 402//402 408//408
f 401//401 408//408 407//407
f 402//402 397//397 403//403
f 402//402 403//403 408//408
f 397//397 399//399 398//398
f 397//397 400//400 399//399
f 397//397 401//401 400//400
f 397//397 402//402 401//401
f 403//403 404//404 405//405
f 403//403 405//405 406//406
f 403//403 406//406 407//407
f 403//403 407//407 408//408
f 409//409 410//410 416//416
f 409//409 416//416 415//415
f 410//410 411//411 417//417
f 410//410 417//417 416//416
f 411//411 412//412 418//418
f 411//411 418//418 417//417
f 412//412 413//413 419//419
f 412//412 419//419 418//418
f 413//413 414//414 420//420
f 413//413 420//420 419//419
f 414//414 409//409 415//415
f 414//414 415//415 420//420
f 409//409 411//411 410//410
f 409//409 412//412 411//411
f 409//409 413//413 412//412
f 409//409 414//414 413//413
f 415//415 416//416 417//417
f 415//415 417//417 418//418
f 415//415 418//418 419//419
f 415//415 419//419 420//420
f 421//421 422//422 428//428
f 421//421 428//428 427//427
f 422//422 423//423 429//429
f 422//422 429//429 428//428
f 423//423 424//424 430//430
f 423//423 430//430 429//429
f 424//424 425//425 431//431
f 424//424 431//431 430//430
f 425//425 426//426 432//432
f 425//425 432//432 431//431
f 426//426 421//421 427//427
f 426//426 427//427 432//432
f 421//421 423//423 422//422
f 421//421 424//424 423//423
f 421//421 425//425 424//424
f 421//421 426//426 425//425
f 427//427 428//428 429//429
f 427//427 429//429 430//430
f 427//427 430//430 431//431
f 427//427 431//431 432//432
f 433//433 434//434 440//440
f 433//433 440//440 439//439
f 434//434 435//435 441//441
f 434//434 441//441 440//440
f 435//435 436//436 442//442
f 435//435 442//442 441//441
f 436//436 437//437 443//443
f 436//436 443//443 442//442
f 437//437 438//438 444//444
f 437//437 444//444 443//443
f 438//438 433//433 439//439
f 438//438 439//439 444//444
f 433//433 435//435 434//434
f 433//433 436//436 435//435
f 433//433 437//437 436//436
f 433//433 438//438 437//437
f 439//439 440//440 441//441
f 439//439 441//441 442//442
f 439//439 442//442 443//443
f 439//439 443//443 444//444
f 445//445 446//446 452//452
f 445//445 452//452 451//451
f 446//446 447//447 453//453
f 446//446 453//453 452//452
f 447//447 448//448 454//454
f 447//447 454//454 453//453
f 448//448 449//449 455//455
f 448//448 455//455 454//454
f 449//449 450//450 456//456
f 449//449 456//456 455//455
f 450//450 445//445 451//451
f 450//450 451//451 456//456
f 445//445 447//447 446//446
f 445//445 448//448 447//447
f 445//445 449//449 448//448
f 445//445 450//450 449//449
f 451//451 452//452 453//453
f 451//451 453//453 454//454
f 451//451 454//454 455//455
f 451//451 455//455 456//456
f 457//457 458//458 464//464
f 457//457 464//464 463//463
f 458//458 459//459 465//465
f 458//458 465//465 464//464
f 459//459 460//460 466//466
f 459//459 466//466 465//465
f 460//460 461//461 467//467
f 460//460 467//467 466//466
f 461//461 462//462 468//468
f 461//461 468//468 467//467
f 462//462 457//457 463//463
f 462//462 463//463 468//468
f 457//457 459//459 458//458
f 457//457 460//460 459//459
f 457//457 461//461 460//460
f 457//457 462//462 461//461
f 463//463 464//464 465//465
f 463//463 465//465 466//466
f 463//463 466//466 467//467
f 463//463 467//467 468//468
f 469//469 470//470 476//476
f 469//469 476//476 475//475
f 470//470 471//471 477//477
f 470//470 477//477 476//476
f 471//471 472//472 478//478
f 471//471 478//478 477//477
f 472//472 473//473 479//479
f 472//472 479//479 478//478
f 473//473 474//474 480//480
f 473//473 480//480 479//479
f 474//474 469//469 475//475
f 474//474 475//475 480//480
f 469//469 471//471 470//470
f 469//469 472//472 471//471
f 469//469 473//473 472//472
f 469//469 474//474 473//473
f 475//475 476//476 477//477
f 475//475 477//477 478//478
f 475//475 478//478 479//479
f 475//475 479//479 480//480
