# Dongfeng sandbox; metres; X right, Y far, Z up
mtllib scene.mtl
usemtl light_green
v 0.620000 2.032000 0.248000
v 0.628485 2.032000 0.251515
v 0.626000 2.038000 0.251515
v 0.620000 2.040485 0.251515
v 0.614000 2.038000 0.251515
v 0.611515 2.032000 0.251515
v 0.614000 2.026000 0.251515
v 0.620000 2.023515 0.251515
v 0.626000 2.026000 0.251515
v 0.632000 2.032000 0.260000
v 0.628485 2.040485 0.260000
v 0.620000 2.044000 0.260000
v 0.611515 2.040485 0.260000
v 0.608000 2.032000 0.260000
v 0.611515 2.023515 0.260000
v 0.620000 2.020000 0.260000
v 0.628485 2.023515 0.260000
v 0.628485 2.032000 0.268485
v 0.626000 2.038000 0.268485
v 0.620000 2.040485 0.268485
v 0.614000 2.038000 0.268485
v 0.611515 2.032000 0.268485
v 0.614000 2.026000 0.268485
v 0.620000 2.023515 0.268485
v 0.626000 2.026000 0.268485
v 0.620000 2.032000 0.272000
v 1.278000 2.270000 0.248000
v 1.286485 2.270000 0.251515
v 1.284000 2.276000 0.251515
v 1.278000 2.278485 0.251515
v 1.272000 2.276000 0.251515
v 1.269515 2.270000 0.251515
v 1.272000 2.264000 0.251515
v 1.278000 2.261515 0.251515
v 1.284000 2.264000 0.251515
v 1.290000 2.270000 0.260000
v 1.286485 2.278485 0.260000
v 1.278000 2.282000 0.260000
v 1.269515 2.278485 0.260000
v 1.266000 2.270000 0.260000
v 1.269515 2.261515 0.260000
v 1.278000 2.258000 0.260000
v 1.286485 2.261515 0.260000
v 1.286485 2.270000 0.268485
v 1.284000 2.276000 0.268485
v 1.278000 2.278485 0.268485
v 1.272000 2.276000 0.268485
v 1.269515 2.270000 0.268485
v 1.272000 2.264000 0.268485
v 1.278000 2.261515 0.268485
v 1.284000 2.264000 0.268485
v 1.278000 2.270000 0.272000
v 2.022000 2.560000 0.248000
v 2.030485 2.560000 0.251515
v 2.028000 2.566000 0.251515
v 2.022000 2.568485 0.251515
v 2.016000 2.566000 0.251515
v 2.013515 2.560000 0.251515
v 2.016000 2.554000 0.251515
v 2.022000 2.551515 0.251515
v 2.028000 2.554000 0.251515
v 2.034000 2.560000 0.260000
v 2.030485 2.568485 0.260000
v 2.022000 2.572000 0.260000
v 2.013515 2.568485 0.260000
v 2.010000 2.560000 0.260000
v 2.013515 2.551515 0.260000
v 2.022000 2.548000 0.260000
v 2.030485 2.551515 0.260000
v 2.030485 2.560000 0.268485
v 2.028000 2.566000 0.268485
v 2.022000 2.568485 0.268485
v 2.016000 2.566000 0.268485
v 2.013515 2.560000 0.268485
v 2.016000 2.554000 0.268485
v 2.022000 2.551515 0.268485
v 2.028000 2.554000 0.268485
v 2.022000 2.560000 0.272000
v 2.680000 2.788000 0.248000
v 2.688485 2.788000 0.251515
v 2.686000 2.794000 0.251515
v 2.680000 2.796485 0.251515
v 2.674000 2.794000 0.251515
v 2.671515 2.788000 0.251515
v 2.674000 2.782000 0.251515
v 2.680000 2.779515 0.251515
v 2.686000 2.782000 0.251515
v 2.692000 2.788000 0.260000
v 2.688485 2.796485 0.260000
v 2.680000 2.800000 0.260000
v 2.671515 2.796485 0.260000
v 2.668000 2.788000 0.260000
v 2.671515 2.779515 0.260000
v 2.680000 2.776000 0.260000
v 2.688485 2.779515 0.260000
v 2.688485 2.788000 0.268485
v 2.686000 2.794000 0.268485
v 2.680000 2.796485 0.268485
v 2.674000 2.794000 0.268485
v 2.671515 2.788000 0.268485
v 2.674000 2.782000 0.268485
v 2.680000 2.779515 0.268485
v 2.686000 2.782000 0.268485
v 2.680000 2.788000 0.272000
v 0.630000 2.752000 0.248000
v 0.638485 2.752000 0.251515
v 0.636000 2.758000 0.251515
v 0.630000 2.760485 0.251515
v 0.624000 2.758000 0.251515
v 0.621515 2.752000 0.251515
v 0.624000 2.746000 0.251515
v 0.630000 2.743515 0.251515
v 0.636000 2.746000 0.251515
v 0.642000 2.752000 0.260000
v 0.638485 2.760485 0.260000
v 0.630000 2.764000 0.260000
v 0.621515 2.760485 0.260000
v 0.618000 2.752000 0.260000
v 0.621515 2.743515 0.260000
v 0.630000 2.740000 0.260000
v 0.638485 2.743515 0.260000
v 0.638485 2.752000 0.268485
v 0.636000 2.758000 0.268485
v 0.630000 2.760485 0.268485
v 0.624000 2.758000 0.268485
v 0.621515 2.752000 0.268485
v 0.624000 2.746000 0.268485
v 0.630000 2.743515 0.268485
v 0.636000 2.746000 0.268485
v 0.630000 2.752000 0.272000
v 2.670000 2.068000 0.248000
v 2.678485 2.068000 0.251515
v 2.676000 2.074000 0.251515
v 2.670000 2.076485 0.251515
v 2.664000 2.074000 0.251515
v 2.661515 2.068000 0.251515
v 2.664000 2.062000 0.251515
v 2.670000 2.059515 0.251515
v 2.676000 2.062000 0.251515
v 2.682000 2.068000 0.260000
v 2.678485 2.076485 0.260000
v 2.670000 2.080000 0.260000
v 2.661515 2.076485 0.260000
v 2.658000 2.068000 0.260000
v 2.661515 2.059515 0.260000
v 2.670000 2.056000 0.260000
v 2.678485 2.059515 0.260000
v 2.678485 2.068000 0.268485
v 2.676000 2.074000 0.268485
v 2.670000 2.076485 0.268485
v 2.664000 2.074000 0.268485
v 2.661515 2.068000 0.268485
v 2.664000 2.062000 0.268485
v 2.670000 2.059515 0.268485
v 2.676000 2.062000 0.268485
v 2.670000 2.068000 0.272000
v 0.285000 3.352000 0.248000
v 0.293485 3.352000 0.251515
v 0.291000 3.358000 0.251515
v 0.285000 3.360485 0.251515
v 0.279000 3.358000 0.251515
v 0.276515 3.352000 0.251515
v 0.279000 3.346000 0.251515
v 0.285000 3.343515 0.251515
v 0.291000 3.346000 0.251515
v 0.297000 3.352000 0.260000
v 0.293485 3.360485 0.260000
v 0.285000 3.364000 0.260000
v 0.276515 3.360485 0.260000
v 0.273000 3.352000 0.260000
v 0.276515 3.343515 0.260000
v 0.285000 3.340000 0.260000
v 0.293485 3.343515 0.260000
v 0.293485 3.352000 0.268485
v 0.291000 3.358000 0.268485
v 0.285000 3.360485 0.268485
v 0.279000 3.358000 0.268485
v 0.276515 3.352000 0.268485
v 0.279000 3.346000 0.268485
v 0.285000 3.343515 0.268485
v 0.291000 3.346000 0.268485
v 0.285000 3.352000 0.272000
v 3.015000 3.518000 0.248000
v 3.023485 3.518000 0.251515
v 3.021000 3.524000 0.251515
v 3.015000 3.526485 0.251515
v 3.009000 3.524000 0.251515
v 3.006515 3.518000 0.251515
v 3.009000 3.512000 0.251515
v 3.015000 3.509515 0.251515
v 3.021000 3.512000 0.251515
v 3.027000 3.518000 0.260000
v 3.023485 3.526485 0.260000
v 3.015000 3.530000 0.260000
v 3.006515 3.526485 0.260000
v 3.003000 3.518000 0.260000
v 3.006515 3.509515 0.260000
v 3.015000 3.506000 0.260000
v 3.023485 3.509515 0.260000
v 3.023485 3.518000 0.268485
v 3.021000 3.524000 0.268485
v 3.015000 3.526485 0.268485
v 3.009000 3.524000 0.268485
v 3.006515 3.518000 0.268485
v 3.009000 3.512000 0.268485
v 3.015000 3.509515 0.268485
v 3.021000 3.512000 0.268485
v 3.015000 3.518000 0.272000
vn 0.000000 0.000000 -1.000000
vn 0.774596 0.106950 -0.623349
vn 0.472097 0.623349 -0.623346
vn -0.106944 0.774601 -0.623343
vn -0.623347 0.472097 -0.623348
vn -0.774596 -0.106950 -0.623349
vn -0.472100 -0.623344 -0.623349
vn 0.106951 -0.774594 -0.623350
vn 0.623347 -0.472097 -0.623348
vn 1.000000 0.000000 -0.000000
vn 0.707103 0.707110 -0.000004
vn -0.000000 1.000000 -0.000000
vn -0.707104 0.707110 0.000004
vn -1.000000 -0.000000 -0.000000
vn -0.707109 -0.707105 -0.000001
vn 0.000000 -1.000000 0.000000
vn 0.707109 -0.707105 0.000001
vn 0.774596 -0.106950 0.623347
vn 0.623348 0.472097 0.623347
vn 0.106945 0.774602 0.623342
vn -0.472097 0.623350 0.623345
vn -0.774596 0.106950 0.623347
vn -0.623348 -0.472097 0.623347
vn -0.106951 -0.774595 0.623349
vn 0.472101 -0.623345 0.623348
vn 0.000000 0.000000 1.000000
vn 0.000000 0.000000 -1.000000
vn 0.774598 0.106947 -0.623347
vn 0.472098 0.623345 -0.623350
vn -0.106950 0.774594 -0.623350
vn -0.623348 0.472096 -0.623349
vn -0.774598 -0.106947 -0.623347
vn -0.472098 -0.623345 -0.623350
vn 0.106950 -0.774594 -0.623350
vn 0.623348 -0.472096 -0.623349
vn 1.000000 0.000000 0.000000
vn 0.707109 0.707104 0.000002
vn -0.000000 1.000000 -0.000000
vn -0.707110 0.707104 -0.000002
vn -1.000000 -0.000000 0.000000
vn -0.707109 -0.707104 0.000002
vn 0.000000 -1.000000 -0.000000
vn 0.707110 -0.707104 -0.000002
vn 0.774598 -0.106947 0.623345
vn 0.623348 0.472096 0.623347
vn 0.106950 0.774595 0.623349
vn -0.472098 0.623346 0.623349
vn -0.774598 0.106947 0.623345
vn -0.623348 -0.472096 0.623347
vn -0.106950 -0.774595 0.623349
vn 0.472098 -0.623346 0.623349
vn 0.000000 0.000000 1.000000
vn 0.000000 0.000000 -1.000000
vn 0.774601 0.106943 -0.623343
vn 0.472098 0.623345 -0.623350
vn -0.106950 0.774594 -0.623350
vn -0.623345 0.472098 -0.623350
vn -0.774594 -0.106950 -0.623350
vn -0.472094 -0.623350 -0.623347
vn 0.106943 -0.774601 -0.623343
vn 0.623350 -0.472094 -0.623347
vn 1.000000 0.000000 -0.000000
vn 0.707112 0.707102 0.000004
vn -0.000000 1.000000 -0.000000
vn -0.707107 0.707107 -0.000000
vn -1.000000 -0.000000 -0.000000
vn -0.707101 -0.707112 -0.000004
vn 0.000000 -1.000000 -0.000000
vn 0.707107 -0.707107 -0.000000
vn 0.774602 -0.106944 0.623342
vn 0.623351 0.472094 0.623346
vn 0.106950 0.774595 0.623349
vn -0.472098 0.623346 0.623349
vn -0.774595 0.106950 0.623349
vn -0.623346 -0.472098 0.623349
vn -0.106944 -0.774602 0.623342
vn 0.472094 -0.623351 0.623346
vn 0.000000 0.000000 1.000000
vn 0.000000 0.000000 -1.000000
vn 0.774600 0.106946 -0.623344
vn 0.472094 0.623354 -0.623344
vn -0.106950 0.774599 -0.623344
vn -0.623341 0.472108 -0.623346
vn -0.774595 -0.106951 -0.623349
vn -0.472098 -0.623345 -0.623350
vn 0.106950 -0.774594 -0.623350
vn 0.623350 -0.472094 -0.623347
vn 1.000000 0.000000 -0.000002
vn 0.707104 0.707110 0.000006
vn -0.000000 1.000000 -0.000000
vn -0.707099 0.707114 -0.000002
vn -1.000000 -0.000000 0.000002
vn -0.707107 -0.707107 -0.000000
vn 0.000000 -1.000000 -0.000000
vn 0.707112 -0.707101 -0.000004
vn 0.774603 -0.106945 0.623341
vn 0.623347 0.472105 0.623342
vn 0.106951 0.774600 0.623343
vn -0.472094 0.623354 0.623343
vn -0.774594 0.106952 0.623350
vn -0.623346 -0.472098 0.623349
vn -0.106950 -0.774595 0.623349
vn 0.472098 -0.623346 0.623349
vn 0.000000 0.000000 1.000000
vn 0.000000 0.000000 -1.000000
vn 0.774595 0.106952 -0.623349
vn 0.472096 0.623353 -0.623343
vn -0.106951 0.774599 -0.623344
vn -0.623343 0.472107 -0.623344
vn -0.774596 -0.106952 -0.623347
vn -0.472100 -0.623344 -0.623349
vn 0.106951 -0.774594 -0.623350
vn 0.623347 -0.472097 -0.623348
vn 1.000000 0.000000 -0.000002
vn 0.707101 0.707113 0.000002
vn -0.000000 1.000000 0.000000
vn -0.707101 0.707112 -0.000002
vn -1.000000 -0.000000 0.000002
vn -0.707109 -0.707105 -0.000001
vn 0.000000 -1.000000 0.000000
vn 0.707109 -0.707105 0.000001
vn 0.774597 -0.106952 0.623346
vn 0.623344 0.472107 0.623343
vn 0.106952 0.774600 0.623343
vn -0.472097 0.623354 0.623342
vn -0.774595 0.106952 0.623348
vn -0.623348 -0.472097 0.623347
vn -0.106951 -0.774595 0.623349
vn 0.472101 -0.623345 0.623348
vn 0.000000 0.000000 1.000000
vn 0.000000 0.000000 -1.000000
vn 0.774600 0.106945 -0.623344
vn 0.472094 0.623350 -0.623347
vn -0.106943 0.774597 -0.623347
vn -0.623345 0.472098 -0.623350
vn -0.774595 -0.106951 -0.623349
vn -0.472098 -0.623345 -0.623350
vn 0.106950 -0.774594 -0.623350
vn 0.623350 -0.472094 -0.623347
vn 1.000000 0.000000 -0.000000
vn 0.707107 0.707107 0.000002
vn -0.000000 1.000000 -0.000000
vn -0.707102 0.707112 0.000002
vn -1.000000 -0.000000 -0.000000
vn -0.707107 -0.707107 -0.000000
vn 0.000000 -1.000000 -0.000000
vn 0.707112 -0.707101 -0.000004
vn 0.774603 -0.106945 0.623341
vn 0.623351 0.472094 0.623346
vn 0.106943 0.774598 0.623346
vn -0.472094 0.623351 0.623346
vn -0.774595 0.106951 0.623350
vn -0.623346 -0.472098 0.623349
vn -0.106950 -0.774595 0.623349
vn 0.472098 -0.623346 0.623349
vn 0.000000 0.000000 1.000000
vn 0.000000 0.000000 -1.000000
vn 0.774597 0.106948 -0.623348
vn 0.472099 0.623345 -0.623349
vn -0.106950 0.774594 -0.623350
vn -0.623347 0.472096 -0.623348
vn -0.774596 -0.106948 -0.623348
vn -0.472099 -0.623345 -0.623349
vn 0.106950 -0.774594 -0.623350
vn 0.623347 -0.472096 -0.623348
vn 1.000000 0.000000 -0.000000
vn 0.707109 0.707105 0.000001
vn -0.000000 1.000000 0.000000
vn -0.707109 0.707104 -0.000000
vn -1.000000 -0.000000 0.000000
vn -0.707109 -0.707105 0.000000
vn 0.000000 -1.000000 -0.000000
vn 0.707109 -0.707104 -0.000001
vn 0.774597 -0.106949 0.623347
vn 0.623348 0.472097 0.623347
vn 0.106951 0.774595 0.623349
vn -0.472099 0.623345 0.623348
vn -0.774597 0.106948 0.623347
vn -0.623348 -0.472097 0.623347
vn -0.106951 -0.774595 0.623349
vn 0.472099 -0.623345 0.623348
vn 0.000000 0.000000 1.000000
vn 0.000000 0.000000 -1.000000
vn 0.774600 0.106952 -0.623343
vn 0.472108 0.623341 -0.623346
vn -0.106951 0.774595 -0.623349
vn -0.623345 0.472098 -0.623350
vn -0.774593 -0.106952 -0.623351
vn -0.472094 -0.623354 -0.623344
vn 0.106953 -0.774598 -0.623345
vn 0.623350 -0.472104 -0.623340
vn 1.000000 0.000000 0.000002
vn 0.707114 0.707099 -0.000002
vn -0.000000 1.000000 0.000002
vn -0.707107 0.707107 -0.000000
vn -1.000000 -0.000000 -0.000002
vn -0.707099 -0.707115 0.000002
vn 0.000000 -1.000000 -0.000002
vn 0.707107 -0.707107 -0.000000
vn 0.774599 -0.106953 0.623344
vn 0.623354 0.472094 0.623343
vn 0.106952 0.774594 0.623350
vn -0.472098 0.623346 0.623349
vn -0.774596 0.106952 0.623348
vn -0.623342 -0.472108 0.623345
vn -0.106952 -0.774601 0.623341
vn 0.472105 -0.623351 0.623339
vn 0.000000 0.000000 1.000000
f 1//1 3//3 2//2
f 1//1 4//4 3//3
f 1//1 5//5 4//4
f 1//1 6//6 5//5
f 1//1 7//7 6//6
f 1//1 8//8 7//7
f 1//1 9//9 8//8
f 1//1 2//2 9//9
f 2//2 3//3 11//11
f 2//2 11//11 10//10
f 3//3 4//4 12//12
f 3//3 12//12 11//11
f 4//4 5//5 13//13
f 4//4 13//13 12//12
f 5//5 6//6 14//14
f 5//5 14//14 13//13
f 6//6 7//7 15//15
f 6//6 15//15 14//14
f 7//7 8//8 16//16
f 7//7 16//16 15//15
f 8//8 9//9 17//17
f 8//8 17//17 16//16
f 9//9 2//2 10//10
f 9//9 10//10 17//17
f 10//10 11//11 19//19
f 10//10 19//19 18//18
f 11//11 12//12 20//20
f 11//11 20//20 19//19
f 12//12 13//13 21//21
f 12//12 21//21 20//20
f 13//13 14//14 22//22
f 13//13 22//22 21//21
f 14//14 15//15 23//23
f 14//14 23//23 22//22
f 15//15 16//16 24//24
f 15//15 24//24 23//23
f 16//16 17//17 25//25
f 16//16 25//25 24//24
f 17//17 10//10 18//18
f 17//17 18//18 25//25
f 26//26 18//18 19//19
f 26//26 19//19 20//20
f 26//26 20//20 21//21
f 26//26 21//21 22//22
f 26//26 22//22 23//23
f 26//26 23//23 24//24
f 26//26 24//24 25//25
f 26//26 25//25 18//18
f 27//27 29//29 28//28
f 27//27 30//30 29//29
f 27//27 31//31 30//30
f 27//27 32//32 31//31
f 27//27 33//33 32//32
f 27//27 34//34 33//33
f 27//27 35//35 34//34
f 27//27 28//28 35//35
f 28//28 29//29 37//37
f 28//28 37//37 36//36
f 29//29 30//30 38//38
f 29//29 38//38 37//37
f 30//30 31//31 39//39
f 30//30 39//39 38//38
f 31//31 32//32 40//40
f 31//31 40//40 39//39
f 32//32 33//33 41//41
f 32//32 41//41 40//40
f 33//33 34//34 42//42
f 33//33 42//42 41//41
f 34//34 35//35 43//43
f 34//34 43//43 42//42
f 35//35 28//28 36//36
f 35//35 36//36 43//43
f 36//36 37//37 45//45
f 36//36 45//45 44//44
f 37//37 38//38 46//46
f 37//37 46//46 45//45
f 38//38 39//39 47//47
f 38//38 47//47 46//46
f 39//39 40//40 48//48
f 39//39 48//48 47//47
f 40//40 41//41 49//49
f 40//40 49//49 48//48
f 41//41 42//42 50//50
f 41//41 50//50 49//49
f 42//42 43//43 51//51
f 42//42 51//51 50//50
f 43//43 36//36 44//44
f 43//43 44//44 51//51
f 52//52 44//44 45//45
f 52//52 45//45 46//46
f 52//52 46//46 47//47
f 52//52 47//47 48//48
f 52//52 48//48 49//49
f 52//52 49//49 50//50
f 52//52 50//50 51//51
f 52//52 51//51 44//44
f 53//53 55//55 54//54
f 53//53 56//56 55//55
f 53//53 57//57 56//56
f 53//53 58//58 57//57
f 53//53 59//59 58//58
f 53//53 60//60 59//59
f 53//53 61//61 60//60
f 53//53 54//54 61//61
f 54//54 55//55 63//63
f 54//54 63//63 62//62
f 55//55 56//56 64//64
f 55//55 64//64 63//63
f 56//56 57//57 65//65
f 56//56 65//65 64//64
f 57//57 58//58 66//66
f 57//57 66//66 65//65
f 58//58 59//59 67//67
f 58//58 67//67 66//66
f 59//59 60//60 68//68
f 59//59 68//68 67//67
f 60//60 61//61 69//69
f 60//60 69//69 68//68
f 61//61 54//54 62//62
f 61//61 62//62 69//69
f 62//62 63//63 71//71
f 62//62 71//71 70//70
f 63//63 64//64 72//72
f 63//63 72//72 71//71
f 64//64 65//65 73//73
f 64//64 73//73 72//72
f 65//65 66//66 74//74
f 65//65 74//74 73//73
f 66//66 67//67 75//75
f 66//66 75//75 74//74
f 67//67 68//68 76//76
f 67//67 76//76 75//75
f 68//68 69//69 77//77
f 68//68 77//77 76//76
f 69//69 62//62 70//70
f 69//69 70//70 77//77
f 78//78 70//70 71//71
f 78//78 71//71 72//72
f 78//78 72//72 73//73
f 78//78 73//73 74//74
f 78//78 74//74 75//75
f 78//78 75//75 76//76
f 78//78 76//76 77//77
f 78//78 77//77 70//70
f 79//79 81//81 80//80
f 79//79 82//82 81//81
f 79//79 83//83 82//82
f 79//79 84//84 83//83
f 79//79 85//85 84//84
f 79//79 86//86 85//85
f 79//79 87//87 86//86
f 79//79 80//80 87//87
f 80//80 81//81 89//89
f 80//80 89//89 88//88
f 81//81 82//82 90//90
f 81//81 90//90 89//89
f 82//82 83//83 91//91
f 82//82 91//91 90//90
f 83//83 84//84 92//92
f 83//83 92//92 91//91
f 84//84 85//85 93//93
f 84//84 93//93 92//92
f 85//85 86//86 94//94
f 85//85 94//94 93//93
f 86//86 87//87 95//95
f 86//86 95//95 94//94
f 87//87 80//80 88//88
f 87//87 88//88 95//95
f 88//88 89//89 97//97
f 88//88 97//97 96//96
f 89//89 90//90 98//98
f 89//89 98//98 97//97
f 90//90 91//91 99//99
f 90//90 99//99 98//98
f 91//91 92//92 100//100
f 91//91 100//100 99//99
f 92//92 93//93 101//101
f 92//92 101//101 100//100
f 93//93 94//94 102//102
f 93//93 102//102 101//101
f 94//94 95//95 103//103
f 94//94 103//103 102//102
f 95//95 88//88 96//96
f 95//95 96//96 103//103
f 104//104 96//96 97//97
f 104//104 97//97 98//98
f 104//104 98//98 99//99
f 104//104 99//99 100//100
f 104//104 100//100 101//101
f 104//104 101//101 102//102
f 104//104 102//102 103//103
f 104//104 103//103 96//96
f 105//105 107//107 106//106
f 105//105 108//108 107//107
f 105//105 109//109 108//108
f 105//105 110//110 109//109
f 105//105 111//111 110//110
f 105//105 112//112 111//111
f 105//105 113//113 112//112
f 105//105 106//106 113//113
f 106//106 107//107 115//115
f 106//106 115//115 114//114
f 107//107 108//108 116//116
f 107//107 116//116 115//115
f 108//108 109//109 117//117
f 108//108 117//117 116//116
f 109//109 110//110 118//118
f 109//109 118//118 117//117
f 110//110 111//111 119//119
f 110//110 119//119 118//118
f 111//111 112//112 120//120
f 111//111 120//120 119//119
f 112//112 113//113 121//121
f 112//112 121//121 120//120
f 113//113 106//106 114//114
f 113//113 114//114 121//121
f 114//114 115//115 123//123
f 114//114 123//123 122//122
f 115//115 116//116 124//124
f 115//115 124//124 123//123
f 116//116 117//117 125//125
f 116//116 125//125 124//124
f 117//117 118//118 126//126
f 117//117 126//126 125//125
f 118//118 119//119 127//127
f 118//118 127//127 126//126
f 119//119 120//120 128//128
f 119//119 128//128 127//127
f 120//120 121//121 129//129
f 120//120 129//129 128//128
f 121//121 114//114 122//122
f 121//121 122//122 129//129
f 130//130 122//122 123//123
f 130//130 123//123 124//124
f 130//130 124//124 125//125
f 130//130 125//125 126//126
f 130//130 126//126 127//127
f 130//130 127//127 128//128
f 130//130 128//128 129//129
f 130//130 129//129 122//122
f 131//131 133//133 132//132
f 131//131 134//134 133//133
f 131//131 135//135 134//134
f 131//131 136//136 135//135
f 131//131 137//137 136//136
f 131//131 138//138 137//137
f 131//131 139//139 138//138
f 131//131 132//132 139//139
f 132//132 133//133 141//141
f 132//132 141//141 140//140
f 133//133 134//134 142//142
f 133//133 142//142 141//141
f 134//134 135//135 143//143
f 134//134 143//143 142//142
f 135//135 136//136 144//144
f 135//135 144//144 143//143
f 136//136 137//137 145//145
f 136//136 145//145 144//144
f 137//137 138//138 146//146
f 137//137 146//146 145//145
f 138//138 139//139 147//147
f 138//138 147//147 146//146
f 139//139 132//132 140//140
f 139//139 140//140 147//147
f 140//140 141//141 149//149
f 140//140 149//149 148//148
f 141//141 142//142 150//150
f 141//141 150//150 149//149
f 142//142 143//143 151//151
f 142//142 151//151 150//150
f 143//143 144//144 152//152
f 143//143 152//152 151//151
f 144//144 145//145 153//153
f 144//144 153//153 152//152
f 145//145 146//146 154//154
f 145//145 154//154 153//153
f 146//146 147//147 155//155
f 146//146 155//155 154//154
f 147//147 140//140 148//148
f 147//147 148//148 155//155
f 156//156 148//148 149//149
f 156//156 149//149 150//150
f 156//156 150//150 151//151
f 156//156 151//151 152//152
f 156//156 152//152 153//153
f 156//156 153//153 154//154
f 156//156 154//154 155//155
f 156//156 155//155 148//148
f 157//157 159//159 158//158
f 157//157 160//160 159//159
f 157//157 161//161 160//160
f 157//157 162//162 161//161
f 157//157 163//163 162//162
f 157//157 164//164 163//163
f 157//157 165//165 164//164
f 157//157 158//158 165//165
f 158//158 159//159 167//167
f 158//158 167//167 166//166
f 159//159 160//160 168//168
f 159//159 168//168 167//167
f 160//160 161//161 169//169
f 160//160 169//169 168//168
f 161//161 162//162 170//170
f 161//161 170//170 169//169
f 162//162 163//163 171//171
f 162//162 171//171 170//170
f 163//163 164//164 172//172
f 163//163 172//172 171//171
f 164//164 165//165 173//173
f 164//164 173//173 172//172
f 165//165 158//158 166//166
f 165//165 166//166 173//173
f 166//166 167//167 175//175
f 166//166 175//175 174//174
f 167//167 168//168 176//176
f 167//167 176//176 175//175
f 168//168 169//169 177//177
f 168//168 177//177 176//176
f 169//169 170//170 178//178
f 169//169 178//178 177//177
f 170//170 171//171 179//179
f 170//170 179//179 178//178
f 171//171 172//172 180//180
f 171//171 180//180 179//179
f 172//172 173//173 181//181
f 172//172 181//181 180//180
f 173//173 166//166 174//174
f 173//173 174//174 181//181
f 182//182 174//174 175//175
f 182//182 175//175 176//176
f 182//182 176//176 177//177
f 182//182 177//177 178//178
f 182//182 178//178 179//179
f 182//182 179//179 180//180
f 182//182 180//180 181//181
f 182//182 181//181 174//174
f 183//183 185//185 184//184
f 183//183 186//186 185//185
f 183//183 187//187 186//186
f 183//183 188//188 187//187
f 183//183 189//189 188//188
f 183//183 190//190 189//189
f 183//183 191//191 190//190
f 183//183 184//184 191//191
f 184//184 185//185 193//193
f 184//184 193//193 192//192
f 185//185 186//186 194//194
f 185//185 194//194 193//193
f 186//186 187//187 195//195
f 186//186 195//195 194//194
f 187//187 188//188 196//196
f 187//187 196//196 195//195
f 188//188 189//189 197//197
f 188//188 197//197 196//196
f 189//189 190//190 198//198
f 189//189 198//198 197//197
f 190//190 191//191 199//199
f 190//190 199//199 198//198
f 191//191 184//184 192//192
f 191//191 192//192 199//199
f 192//192 193//193 201//201
f 192//192 201//201 200//200
f 193//193 194//194 202//202
f 193//193 202//202 201//201
f 194//194 195//195 203//203
f 194//194 203//203 202//202
f 195//195 196//196 204//204
f 195//195 204//204 203//203
f 196//196 197//197 205//205
f 196//196 205//205 204//204
f 197//197 198//198 206//206
f 197//197 206//206 205//205
f 198//198 199//199 207//207
f 198//198 207//207 206//206
f 199//199 192//192 200//200
f 199//199 200//200 207//207
f 208//208 200//200 201//201
f 208//208 201//201 202//202
f 208//208 202//202 203//203
f 208//208 203//203 204//204
f 208//208 204//204 205//205
f 208//208 205//205 206//206
f 208//208 206//206 207//207
f 208//208 207//207 200//200
