# Dongfeng sandbox; metres; X right, Y far, Z up
mtllib scene.mtl
usemtl yellow
v 0.327000 0.895500 0.212970
v 0.331330 0.895500 0.215470
v 0.328338 0.896324 0.215470
v 0.323497 0.896009 0.215470
v 0.323497 0.894991 0.215470
v 0.328338 0.894676 0.215470
v 0.331330 0.895500 0.220470
v 0.328338 0.896324 0.220470
v 0.323497 0.896009 0.220470
v 0.323497 0.894991 0.220470
v 0.328338 0.894676 0.220470
v 0.327000 0.895500 0.222970
v 0.327000 1.995500 0.212970
v 0.331330 1.995500 0.215470
v 0.328338 1.996324 0.215470
v 0.323497 1.996009 0.215470
v 0.323497 1.994991 0.215470
v 0.328338 1.994676 0.215470
v 0.331330 1.995500 0.220470
v 0.328338 1.996324 0.220470
v 0.323497 1.996009 0.220470
v 0.323497 1.994991 0.220470
v 0.328338 1.994676 0.220470
v 0.327000 1.995500 0.222970
v 0.327000 3.145500 0.212970
v 0.331330 3.145500 0.215470
v 0.328338 3.146324 0.215470
v 0.323497 3.146009 0.215470
v 0.323497 3.144991 0.215470
v 0.328338 3.144676 0.215470
v 0.331330 3.145500 0.220470
v 0.328338 3.146324 0.220470
v 0.323497 3.146009 0.220470
v 0.323497 3.144991 0.220470
v 0.328338 3.144676 0.220470
v 0.327000 3.145500 0.222970
v 1.257000 0.775500 0.212970
v 1.261330 0.775500 0.215470
v 1.258338 0.776324 0.215470
v 1.253497 0.776009 0.215470
v 1.253497 0.774991 0.215470
v 1.258338 0.774676 0.215470
v 1.261330 0.775500 0.220470
v 1.258338 0.776324 0.220470
v 1.253497 0.776009 0.220470
v 1.253497 0.774991 0.220470
v 1.258338 0.774676 0.220470
v 1.257000 0.775500 0.222970
v 1.257000 1.895500 0.212970
v 1.261330 1.895500 0.215470
v 1.258338 1.896324 0.215470
v 1.253497 1.896009 0.215470
v 1.253497 1.894991 0.215470
v 1.258338 1.894676 0.215470
v 1.261330 1.895500 0.220470
v 1.258338 1.896324 0.220470
v 1.253497 1.896009 0.220470
v 1.253497 1.894991 0.220470
v 1.258338 1.894676 0.220470
v 1.257000 1.895500 0.222970
v 1.267000 3.375500 0.212970
v 1.271330 3.375500 0.215470
v 1.268338 3.376324 0.215470
v 1.263497 3.376009 0.215470
v 1.263497 3.374991 0.215470
v 1.268338 3.374676 0.215470
v 1.271330 3.375500 0.220470
v 1.268338 3.376324 0.220470
v 1.263497 3.376009 0.220470
v 1.263497 3.374991 0.220470
v 1.268338 3.374676 0.220470
v 1.267000 3.375500 0.222970
v 2.927000 0.895500 0.212970
v 2.931330 0.895500 0.215470
v 2.928338 0.896324 0.215470
v 2.923497 0.896009 0.215470
v 2.923497 0.894991 0.215470
v 2.928338 0.894676 0.215470
v 2.931330 0.895500 0.220470
v 2.928338 0.896324 0.220470
v 2.923497 0.896009 0.220470
v 2.923497 0.894991 0.220470
v 2.928338 0.894676 0.220470
v 2.927000 0.895500 0.222970
v 2.927000 1.995500 0.212970
v 2.931330 1.995500 0.215470
v 2.928338 1.996324 0.215470
v 2.923497 1.996009 0.215470
v 2.923497 1.994991 0.215470
v 2.928338 1.994676 0.215470
v 2.931330 1.995500 0.220470
v 2.928338 1.996324 0.220470
v 2.923497 1.996009 0.220470
v 2.923497 1.994991 0.220470
v 2.928338 1.994676 0.220470
v 2.927000 1.995500 0.222970
v 2.927000 3.145500 0.212970
v 2.931330 3.145500 0.215470
v 2.928338 3.146324 0.215470
v 2.923497 3.146009 0.215470
v 2.923497 3.144991 0.215470
v 2.928338 3.144676 0.215470
v 2.931330 3.145500 0.220470
v 2.928338 3.146324 0.220470
v 2.923497 3.146009 0.220470
v 2.923497 3.144991 0.220470
v 2.928338 3.144676 0.220470
v 2.927000 3.145500 0.222970
v 1.997000 0.795500 0.212970
v 2.001330 0.795500 0.215470
v 1.998338 0.796324 0.215470
v 1.993497 0.796009 0.215470
v 1.993497 0.794991 0.215470
v 1.998338 0.794676 0.215470
v 2.001330 0.795500 0.220470
v 1.998338 0.796324 0.220470
v 1.993497 0.796009 0.220470
v 1.993497 0.794991 0.220470
v 1.998338 0.794676 0.220470
v 1.997000 0.795500 0.222970
v 1.997000 1.935500 0.212970
v 2.001330 1.935500 0.215470
v 1.998338 1.936324 0.215470
v 1.993497 1.936009 0.215470
v 1.993497 1.934991 0.215470
v 1.998338 1.934676 0.215470
v 2.001330 1.935500 0.220470
v 1.998338 1.936324 0.220470
v 1.993497 1.936009 0.220470
v 1.993497 1.934991 0.220470
v 1.998338 1.934676 0.220470
v 1.997000 1.935500 0.222970
v 1.987000 3.375500 0.212970
v 1.991330 3.375500 0.215470
v 1.988338 3.376324 0.215470
v 1.983497 3.376009 0.215470
v 1.983497 3.374991 0.215470
v 1.988338 3.374676 0.215470
v 1.991330 3.375500 0.220470
v 1.988338 3.376324 0.220470
v 1.983497 3.376009 0.220470
v 1.983497 3.374991 0.220470
v 1.988338 3.374676 0.220470
v 1.987000 3.375500 0.222970
v 0.877000 4.224289 0.212970
v 0.881330 4.224289 0.215470
v 0.878338 4.225113 0.215470
v 0.873497 4.224798 0.215470
v 0.873497 4.223780 0.215470
v 0.878338 4.223466 0.215470
v 0.881330 4.224289 0.220470
v 0.878338 4.225113 0.220470
v 0.873497 4.224798 0.220470
v 0.873497 4.223780 0.220470
v 0.878338 4.223466 0.220470
v 0.877000 4.224289 0.222970
v 2.377000 4.224289 0.212970
v 2.381330 4.224289 0.215470
v 2.378338 4.225113 0.215470
v 2.373497 4.224798 0.215470
v 2.373497 4.223780 0.215470
v 2.378338 4.223466 0.215470
v 2.381330 4.224289 0.220470
v 2.378338 4.225113 0.220470
v 2.373497 4.224798 0.220470
v 2.373497 4.223780 0.220470
v 2.378338 4.223466 0.220470
v 2.377000 4.224289 0.222970
v 1.627000 4.495500 0.212970
v 1.631330 4.495500 0.215470
v 1.628338 4.496324 0.215470
v 1.623497 4.496009 0.215470
v 1.623497 4.494991 0.215470
v 1.628338 4.494677 0.215470
v 1.631330 4.495500 0.220470
v 1.628338 4.496324 0.220470
v 1.623497 4.496009 0.220470
v 1.623497 4.494991 0.220470
v 1.628338 4.494677 0.220470
v 1.627000 4.495500 0.222970
v 1.042500 5.027500 0.130000
v 1.042500 5.072500 0.130000
v 1.077500 5.072500 0.130000
v 1.077500 5.027500 0.130000
v 1.042500 5.027500 0.230000
v 1.077500 5.027500 0.230000
v 1.077500 5.072500 0.230000
v 1.042500 5.072500 0.230000
v 1.042500 5.027500 0.130000
v 1.077500 5.027500 0.130000
v 1.077500 5.027500 0.230000
v 1.042500 5.027500 0.230000
v 1.077500 5.027500 0.130000
v 1.077500 5.072500 0.130000
v 1.077500 5.072500 0.230000
v 1.077500 5.027500 0.230000
v 1.077500 5.072500 0.130000
v 1.042500 5.072500 0.130000
v 1.042500 5.072500 0.230000
v 1.077500 5.072500 0.230000
v 1.042500 5.072500 0.130000
v 1.042500 5.027500 0.130000
v 1.042500 5.027500 0.230000
v 1.042500 5.072500 0.230000
v 2.342500 5.027500 0.130000
v 2.342500 5.072500 0.130000
v 2.377500 5.072500 0.130000
v 2.377500 5.027500 0.130000
v 2.342500 5.027500 0.230000
v 2.377500 5.027500 0.230000
v 2.377500 5.072500 0.230000
v 2.342500 5.072500 0.230000
v 2.342500 5.027500 0.130000
v 2.377500 5.027500 0.130000
v 2.377500 5.027500 0.230000
v 2.342500 5.027500 0.230000
v 2.377500 5.027500 0.130000
v 2.377500 5.072500 0.130000
v 2.377500 5.072500 0.230000
v 2.377500 5.027500 0.230000
v 2.377500 5.072500 0.130000
v 2.342500 5.072500 0.130000
v 2.342500 5.072500 0.230000
v 2.377500 5.072500 0.230000
v 2.342500 5.072500 0.130000
v 2.342500 5.027500 0.130000
v 2.342500 5.027500 0.230000
v 2.342500 5.072500 0.230000
v 0.371000 4.100059 0.002000
v 0.371000 4.155058 0.002000
v 0.409000 4.155058 0.002000
v 0.409000 4.100059 0.002000
v 0.371000 4.100059 0.102000
v 0.409000 4.100059 0.102000
v 0.409000 4.155058 0.102000
v 0.371000 4.155058 0.102000
v 0.371000 4.100059 0.002000
v 0.409000 4.100059 0.002000
v 0.409000 4.100059 0.102000
v 0.371000 4.100059 0.102000
v 0.409000 4.100059 0.002000
v 0.409000 4.155058 0.002000
v 0.409000 4.155058 0.102000
v 0.409000 4.100059 0.102000
v 0.409000 4.155058 0.002000
v 0.371000 4.155058 0.002000
v 0.371000 4.155058 0.102000
v 0.409000 4.155058 0.102000
v 0.371000 4.155058 0.002000
v 0.371000 4.100059 0.002000
v 0.371000 4.100059 0.102000
v 0.371000 4.155058 0.102000
v 2.891000 4.100059 0.002000
v 2.891000 4.155058 0.002000
v 2.929000 4.155058 0.002000
v 2.929000 4.100059 0.002000
v 2.891000 4.100059 0.102000
v 2.929000 4.100059 0.102000
v 2.929000 4.155058 0.102000
v 2.891000 4.155058 0.102000
v 2.891000 4.100059 0.002000
v 2.929000 4.100059 0.002000
v 2.929000 4.100059 0.102000
v 2.891000 4.100059 0.102000
v 2.929000 4.100059 0.002000
v 2.929000 4.155058 0.002000
v 2.929000 4.155058 0.102000
v 2.929000 4.100059 0.102000
v 2.929000 4.155058 0.002000
v 2.891000 4.155058 0.002000
v 2.891000 4.155058 0.102000
v 2.929000 4.155058 0.102000
v 2.891000 4.155058 0.002000
v 2.891000 4.100059 0.002000
v 2.891000 4.100059 0.102000
v 2.891000 4.155058 0.102000
vn 0.000000 -0.000000 -1.000000
vn 0.704938 0.640224 -0.305247
vn 0.026950 0.995962 -0.085635
vn -0.377504 0.908642 -0.178497
vn -0.186509 -0.975699 -0.115002
vn 0.106552 -0.989684 -0.095770
vn 0.704938 -0.640224 0.305247
vn 0.106552 0.989684 0.095770
vn -0.186509 0.975699 0.115002
vn -0.377504 -0.908642 0.178497
vn 0.026950 -0.995962 0.085635
vn 0.000000 -0.000000 1.000000
vn 0.000000 -0.000000 -1.000000
vn 0.704938 0.640224 -0.305247
vn 0.026950 0.995962 -0.085635
vn -0.377504 0.908642 -0.178497
vn -0.186509 -0.975699 -0.115002
vn 0.106552 -0.989684 -0.095770
vn 0.704938 -0.640224 0.305247
vn 0.106552 0.989684 0.095770
vn -0.186509 0.975699 0.115002
vn -0.377504 -0.908642 0.178497
vn 0.026950 -0.995962 0.085635
vn 0.000000 -0.000000 1.000000
vn 0.000000 -0.000000 -1.000000
vn 0.704951 0.640213 -0.305242
vn 0.026943 0.995961 -0.085646
vn -0.377522 0.908632 -0.178506
vn -0.186486 -0.975704 -0.114996
vn 0.106544 -0.989686 -0.095757
vn 0.704925 -0.640236 0.305253
vn 0.106560 0.989682 0.095782
vn -0.186532 0.975694 0.115008
vn -0.377485 -0.908651 0.178489
vn 0.026957 -0.995963 0.085624
vn 0.000000 -0.000000 1.000000
vn 0.000000 -0.000000 -1.000000
vn 0.704937 0.640224 -0.305249
vn 0.026950 0.995962 -0.085636
vn -0.377506 0.908641 -0.178496
vn -0.186510 -0.975699 -0.115001
vn 0.106552 -0.989684 -0.095770
vn 0.704937 -0.640224 0.305249
vn 0.106552 0.989684 0.095770
vn -0.186510 0.975699 0.115001
vn -0.377506 -0.908641 0.178496
vn 0.026950 -0.995962 0.085636
vn 0.000000 -0.000000 1.000000
vn 0.000000 -0.000000 -1.000000
vn 0.704965 0.640191 -0.305256
vn 0.026961 0.995961 -0.085649
vn -0.377536 0.908624 -0.178517
vn -0.186524 -0.975696 -0.115008
vn 0.106552 -0.989684 -0.095770
vn 0.704952 -0.640202 0.305261
vn 0.106572 0.989681 0.095784
vn -0.186523 0.975695 0.115017
vn -0.377537 -0.908626 0.178503
vn 0.026950 -0.995962 0.085636
vn 0.000000 -0.000000 1.000000
vn 0.000000 -0.000000 -1.000000
vn 0.704950 0.640212 -0.305244
vn 0.026943 0.995961 -0.085647
vn -0.377524 0.908632 -0.178504
vn -0.186487 -0.975704 -0.114995
vn 0.106544 -0.989686 -0.095758
vn 0.704924 -0.640235 0.305255
vn 0.106560 0.989682 0.095782
vn -0.186533 0.975694 0.115007
vn -0.377487 -0.908650 0.178487
vn 0.026957 -0.995963 0.085624
vn 0.000000 -0.000000 1.000000
vn 0.000000 0.000000 -1.000000
vn 0.704926 0.640239 -0.305244
vn 0.026950 0.995962 -0.085635
vn -0.377514 0.908637 -0.178498
vn -0.186514 -0.975698 -0.115003
vn 0.106551 -0.989684 -0.095768
vn 0.704926 -0.640239 0.305244
vn 0.106551 0.989684 0.095768
vn -0.186514 0.975698 0.115003
vn -0.377514 -0.908637 0.178498
vn 0.026950 -0.995962 0.085635
vn 0.000000 0.000000 1.000000
vn 0.000000 0.000000 -1.000000
vn 0.704926 0.640239 -0.305244
vn 0.026950 0.995962 -0.085635
vn -0.377514 0.908637 -0.178498
vn -0.186514 -0.975698 -0.115003
vn 0.106551 -0.989684 -0.095768
vn 0.704926 -0.640239 0.305244
vn 0.106551 0.989684 0.095768
vn -0.186514 0.975698 0.115003
vn -0.377514 -0.908637 0.178498
vn 0.026950 -0.995962 0.085635
vn 0.000000 0.000000 1.000000
vn 0.000000 0.000000 -1.000000
vn 0.704939 0.640227 -0.305239
vn 0.026943 0.995961 -0.085647
vn -0.377532 0.908628 -0.178507
vn -0.186491 -0.975703 -0.114997
vn 0.106543 -0.989686 -0.095756
vn 0.704913 -0.640250 0.305250
vn 0.106559 0.989682 0.095781
vn -0.186537 0.975693 0.115009
vn -0.377495 -0.908647 0.178489
vn 0.026957 -0.995963 0.085624
vn 0.000000 0.000000 1.000000
vn 0.000000 -0.000000 -1.000000
vn 0.704951 0.640207 -0.305252
vn 0.026955 0.995961 -0.085642
vn -0.377521 0.908633 -0.178507
vn -0.186517 -0.975697 -0.115005
vn 0.106552 -0.989684 -0.095770
vn 0.704944 -0.640213 0.305255
vn 0.106562 0.989682 0.095777
vn -0.186517 0.975697 0.115009
vn -0.377522 -0.908634 0.178500
vn 0.026950 -0.995962 0.085636
vn 0.000000 -0.000000 1.000000
vn 0.000000 -0.000000 -1.000000
vn 0.704937 0.640224 -0.305249
vn 0.026950 0.995962 -0.085636
vn -0.377506 0.908641 -0.178496
vn -0.186510 -0.975699 -0.115001
vn 0.106552 -0.989684 -0.095770
vn 0.704937 -0.640224 0.305249
vn 0.106552 0.989684 0.095770
vn -0.186510 0.975699 0.115001
vn -0.377506 -0.908641 0.178496
vn 0.026950 -0.995962 0.085636
vn 0.000000 -0.000000 1.000000
vn 0.000000 -0.000000 -1.000000
vn 0.704950 0.640212 -0.305244
vn 0.026943 0.995961 -0.085647
vn -0.377524 0.908632 -0.178504
vn -0.186487 -0.975704 -0.114995
vn 0.106544 -0.989686 -0.095758
vn 0.704924 -0.640235 0.305255
vn 0.106560 0.989682 0.095782
vn -0.186533 0.975694 0.115007
vn -0.377487 -0.908650 0.178487
vn 0.026957 -0.995963 0.085624
vn 0.000000 -0.000000 1.000000
vn 0.000000 -0.000000 -1.000000
vn 0.704895 0.640278 -0.305231
vn 0.026921 0.995964 -0.085621
vn -0.377522 0.908638 -0.178477
vn -0.186438 -0.975713 -0.115002
vn 0.106567 -0.989683 -0.095762
vn 0.704895 -0.640278 0.305231
vn 0.106520 0.989689 0.095754
vn -0.186531 0.975697 0.114990
vn -0.377445 -0.908666 0.178499
vn 0.026993 -0.995962 0.085628
vn 0.000000 -0.000000 1.000000
vn 0.000000 -0.000000 -1.000000
vn 0.704911 0.640267 -0.305221
vn 0.026921 0.995964 -0.085619
vn -0.377518 0.908639 -0.178482
vn -0.186436 -0.975713 -0.115005
vn 0.106569 -0.989683 -0.095762
vn 0.704911 -0.640267 0.305221
vn 0.106521 0.989689 0.095754
vn -0.186529 0.975697 0.114992
vn -0.377440 -0.908667 0.178504
vn 0.026993 -0.995962 0.085627
vn 0.000000 -0.000000 1.000000
vn 0.000000 -0.000000 -1.000000
vn 0.704895 0.640278 -0.305231
vn 0.026921 0.995964 -0.085621
vn -0.377526 0.908636 -0.178476
vn -0.186440 -0.975712 -0.115001
vn 0.106568 -0.989683 -0.095762
vn 0.704895 -0.640278 0.305231
vn 0.106521 0.989689 0.095754
vn -0.186533 0.975696 0.114989
vn -0.377449 -0.908664 0.178498
vn 0.026993 -0.995961 0.085628
vn 0.000000 -0.000000 1.000000
vn 0.000000 0.000000 -1.000000
vn 0.000000 0.000000 -1.000000
vn 0.000000 0.000000 -1.000000
vn 0.000000 0.000000 -1.000000
vn 0.000000 0.000000 1.000000
vn 0.000000 0.000000 1.000000
vn 0.000000 0.000000 1.000000
vn 0.000000 0.000000 1.000000
vn 0.000000 -1.000000 0.000000
vn 0.000000 -1.000000 0.000000
vn 0.000000 -1.000000 0.000000
vn 0.000000 -1.000000 0.000000
vn 1.000000 0.000000 0.000000
vn 1.000000 0.000000 0.000000
vn 1.000000 0.000000 0.000000
vn 1.000000 0.000000 0.000000
vn 0.000000 1.000000 0.000000
vn 0.000000 1.000000 0.000000
vn 0.000000 1.000000 0.000000
vn 0.000000 1.000000 0.000000
vn -1.000000 0.000000 0.000000
vn -1.000000 0.000000 0.000000
vn -1.000000 0.000000 0.000000
vn -1.000000 0.000000 0.000000
vn 0.000000 0.000000 -1.000000
vn 0.000000 0.000000 -1.000000
vn 0.000000 0.000000 -1.000000
vn 0.000000 0.000000 -1.000000
vn 0.000000 0.000000 1.000000
vn 0.000000 0.000000 1.000000
vn 0.000000 0.000000 1.000000
vn 0.000000 0.000000 1.000000
vn 0.000000 -1.000000 0.000000
vn 0.000000 -1.000000 0.000000
vn 0.000000 -1.000000 0.000000
vn 0.000000 -1.000000 0.000000
vn 1.000000 0.000000 0.000000
vn 1.000000 0.000000 0.000000
vn 1.000000 0.000000 0.000000
vn 1.000000 0.000000 0.000000
vn 0.000000 1.000000 0.000000
vn 0.000000 1.000000 0.000000
vn 0.000000 1.000000 0.000000
vn 0.000000 1.000000 0.000000
vn -1.000000 0.000000 0.000000
vn -1.000000 0.000000 0.000000
vn -1.000000 0.000000 0.000000
vn -1.000000 0.000000 0.000000
vn 0.000000 0.000000 -1.000000
vn 0.000000 0.000000 -1.000000
vn 0.000000 0.000000 -1.000000
vn 0.000000 0.000000 -1.000000
vn 0.000000 0.000000 1.000000
vn 0.000000 0.000000 1.000000
vn 0.000000 0.000000 1.000000
vn 0.000000 0.000000 1.000000
vn 0.000000 -1.000000 0.000000
vn 0.000000 -1.000000 0.000000
vn 0.000000 -1.000000 0.000000
vn 0.000000 -1.000000 0.000000
vn 1.000000 0.000000 0.000000
vn 1.000000 0.000000 0.000000
vn 1.000000 0.000000 0.000000
vn 1.000000 0.000000 0.000000
vn 0.000000 1.000000 0.000000
vn 0.000000 1.000000 0.000000
vn 0.000000 1.000000 0.000000
vn 0.000000 1.000000 0.000000
vn -1.000000 0.000000 0.000000
vn -1.000000 0.000000 0.000000
vn -1.000000 0.000000 0.000000
vn -1.000000 0.000000 0.000000
vn 0.000000 0.000000 -1.000000
vn 0.000000 0.000000 -1.000000
vn 0.000000 0.000000 -1.000000
vn 0.000000 0.000000 -1.000000
vn 0.000000 0.000000 1.000000
vn 0.000000 0.000000 1.000000
vn 0.000000 0.000000 1.000000
vn 0.000000 0.000000 1.000000
vn 0.000000 -1.000000 0.000000
vn 0.000000 -1.000000 0.000000
vn 0.000000 -1.000000 0.000000
vn 0.000000 -1.000000 0.000000
vn 1.000000 0.000000 0.000000
vn 1.000000 0.000000 0.000000
vn 1.000000 0.000000 0.000000
vn 1.000000 0.000000 0.000000
vn 0.000000 1.000000 0.000000
vn 0.000000 1.000000 0.000000
vn 0.000000 1.000000 0.000000
vn 0.000000 1.000000 0.000000
vn -1.000000 0.000000 0.000000
vn -1.000000 0.000000 0.000000
vn -1.000000 0.000000 0.000000
vn -1.000000 0.000000 0.000000
f 1//1 3//3 2//2
f 1//1 4//4 3//3
f 1//1 5//5 4//4
f 1//1 6//6 5//5
f 1//1 2//2 6//6
f 2//2 3//3 8//8
f 2//2 8//8 7//7
f 3//3 4//4 9//9
f 3//3 9//9 8//8
f 4//4 5//5 10//10
f 4//4 10//10 9//9
f 5//5 6//6 11//11
f 5//5 11//11 10//10
f 6//6 2//2 7//7
f 6//6 7//7 11//11
f 12//12 7//7 8//8
f 12//12 8//8 9//9
f 12//12 9//9 10//10
f 12//12 10//10 11//11
f 12//12 11//11 7//7
f 13//13 15//15 14//14
f 13//13 16//16 15//15
f 13//13 17//17 16//16
f 13//13 18//18 17//17
f 13//13 14//14 18//18
f 14//14 15//15 20//20
f 14//14 20//20 19//19
f 15//15 16//16 21//21
f 15//15 21//21 20//20
f 16//16 17//17 22//22
f 16//16 22//22 21//21
f 17//17 18//18 23//23
f 17//17 23//23 22//22
f 18//18 14//14 19//19
f 18//18 19//19 23//23
f 24//24 19//19 20//20
f 24//24 20//20 21//21
f 24//24 21//21 22//22
f 24//24 22//22 23//23
f 24//24 23//23 19//19
f 25//25 27//27 26//26
f 25//25 28//28 27//27
f 25//25 29//29 28//28
f 25//25 30//30 29//29
f 25//25 26//26 30//30
f 26//26 27//27 32//32
f 26//26 32//32 31//31
f 27//27 28//28 33//33
f 27//27 33//33 32//32
f 28//28 29//29 34//34
f 28//28 34//34 33//33
f 29//29 30//30 35//35
f 29//29 35//35 34//34
f 30//30 26//26 31//31
f 30//30 31//31 35//35
f 36//36 31//31 32//32
f 36//36 32//32 33//33
f 36//36 33//33 34//34
f 36//36 34//34 35//35
f 36//36 35//35 31//31
f 37//37 39//39 38//38
f 37//37 40//40 39//39
f 37//37 41//41 40//40
f 37//37 42//42 41//41
f 37//37 38//38 42//42
f 38//38 39//39 44//44
f 38//38 44//44 43//43
f 39//39 40//40 45//45
f 39//39 45//45 44//44
f 40//40 41//41 46//46
f 40//40 46//46 45//45
f 41//41 42//42 47//47
f 41//41 47//47 46//46
f 42//42 38//38 43//43
f 42//42 43//43 47//47
f 48//48 43//43 44//44
f 48//48 44//44 45//45
f 48//48 45//45 46//46
f 48//48 46//46 47//47
f 48//48 47//47 43//43
f 49//49 51//51 50//50
f 49//49 52//52 51//51
f 49//49 53//53 52//52
f 49//49 54//54 53//53
f 49//49 50//50 54//54
f 50//50 51//51 56//56
f 50//50 56//56 55//55
f 51//51 52//52 57//57
f 51//51 57//57 56//56
f 52//52 53//53 58//58
f 52//52 58//58 57//57
f 53//53 54//54 59//59
f 53//53 59//59 58//58
f 54//54 50//50 55//55
f 54//54 55//55 59//59
f 60//60 55//55 56//56
f 60//60 56//56 57//57
f 60//60 57//57 58//58
f 60//60 58//58 59//59
f 60//60 59//59 55//55
f 61//61 63//63 62//62
f 61//61 64//64 63//63
f 61//61 65//65 64//64
f 61//61 66//66 65//65
f 61//61 62//62 66//66
f 62//62 63//63 68//68
f 62//62 68//68 67//67
f 63//63 64//64 69//69
f 63//63 69//69 68//68
f 64//64 65//65 70//70
f 64//64 70//70 69//69
f 65//65 66//66 71//71
f 65//65 71//71 70//70
f 66//66 62//62 67//67
f 66//66 67//67 71//71
f 72//72 67//67 68//68
f 72//72 68//68 69//69
f 72//72 69//69 70//70
f 72//72 70//70 71//71
f 72//72 71//71 67//67
f 73//73 75//75 74//74
f 73//73 76//76 75//75
f 73//73 77//77 76//76
f 73//73 78//78 77//77
f 73//73 74//74 78//78
f 74//74 75//75 80//80
f 74//74 80//80 79//79
f 75//75 76//76 81//81
f 75//75 81//81 80//80
f 76//76 77//77 82//82
f 76//76 82//82 81//81
f 77//77 78//78 83//83
f 77//77 83//83 82//82
f 78//78 74//74 79//79
f 78//78 79//79 83//83
f 84//84 79//79 80//80
f 84//84 80//80 81//81
f 84//84 81//81 82//82
f 84//84 82//82 83//83
f 84//84 83//83 79//79
f 85//85 87//87 86//86
f 85//85 88//88 87//87
f 85//85 89//89 88//88
f 85//85 90//90 89//89
f 85//85 86//86 90//90
f 86//86 87//87 92//92
f 86//86 92//92 91//91
f 87//87 88//88 93//93
f 87//87 93//93 92//92
f 88//88 89//89 94//94
f 88//88 94//94 93//93
f 89//89 90//90 95//95
f 89//89 95//95 94//94
f 90//90 86//86 91//91
f 90//90 91//91 95//95
f 96//96 91//91 92//92
f 96//96 92//92 93//93
f 96//96 93//93 94//94
f 96//96 94//94 95//95
f 96//96 95//95 91//91
f 97//97 99//99 98//98
f 97//97 100//100 99//99
f 97//97 101//101 100//100
f 97//97 102//102 101//101
f 97//97 98//98 102//102
f 98//98 99//99 104//104
f 98//98 104//104 103//103
f 99//99 100//100 105//105
f 99//99 105//105 104//104
f 100//100 101//101 106//106
f 100//100 106//106 105//105
f 101//101 102//102 107//107
f 101//101 107//107 106//106
f 102//102 98//98 103//103
f 102//102 103//103 107//107
f 108//108 103//103 104//104
f 108//108 104//104 105//105
f 108//108 105//105 106//106
f 108//108 106//106 107//107
f 108//108 107//107 103//103
f 109//109 111//111 110//110
f 109//109 112//112 111//111
f 109//109 113//113 112//112
f 109//109 114//114 113//113
f 109//109 110//110 114//114
f 110//110 111//111 116//116
f 110//110 116//116 115//115
f 111//111 112//112 117//117
f 111//111 117//117 116//116
f 112//112 113//113 118//118
f 112//112 118//118 117//117
f 113//113 114//114 119//119
f 113//113 119//119 118//118
f 114//114 110//110 115//115
f 114//114 115//115 119//119
f 120//120 115//115 116//116
f 120//120 116//116 117//117
f 120//120 117//117 118//118
f 120//120 118//118 119//119
f 120//120 119//119 115//115
f 121//121 123//123 122//122
f 121//121 124//124 123//123
f 121//121 125//125 124//124
f 121//121 126//126 125//125
f 121//121 122//122 126//126
f 122//122 123//123 128//128
f 122//122 128//128 127//127
f 123//123 124//124 129//129
f 123//123 129//129 128//128
f 124//124 125//125 130//130
f 124//124 130//130 129//129
f 125//125 126//126 131//131
f 125//125 131//131 130//130
f 126//126 122//122 127//127
f 126//126 127//127 131//131
f 132//132 127//127 128//128
f 132//132 128//128 129//129
f 132//132 129//129 130//130
f 132//132 130//130 131//131
f 132//132 131//131 127//127
f 133//133 135//135 134//134
f 133//133 136//136 135//135
f 133//133 137//137 136//136
f 133//133 138//138 137//137
f 133//133 134//134 138//138
f 134//134 135//135 140//140
f 134//134 140//140 139//139
f 135//135 136//136 141//141
f 135//135 141//141 140//140
f 136//136 137//137 142//142
f 136//136 142//142 141//141
f 137//137 138//138 143//143
f 137//137 143//143 142//142
f 138//138 134//134 139//139
f 138//138 139//139 143//143
f 144//144 139//139 140//140
f 144//144 140//140 141//141
f 144//144 141//141 142//142
f 144//144 142//142 143//143
f 144//144 143//143 139//139
f 145//145 147//147 146//146
f 145//145 148//148 147//147
f 145//145 149//149 148//148
f 145//145 150//150 149//149
f 145//145 146//146 150//150
f 146//146 147//147 152//152
f 146//146 152//152 151//151
f 147//147 148//148 153//153
f 147//147 153//153 152//152
f 148//148 149//149 154//154
f 148//148 154//154 153//153
f 149//149 150//150 155//155
f 149//149 155//155 154//154
f 150//150 146//146 151//151
f 150//150 151//151 155//155
f 156//156 151//151 152//152
f 156//156 152//152 153//153
f 156//156 153//153 154//154
f 156//156 154//154 155//155
f 156//156 155//155 151//151
f 157//157 159//159 158//158
f 157//157 160//160 159//159
f 157//157 161//161 160//160
f 157//157 162//162 161//161
f 157//157 158//158 162//162
f 158//158 159//159 164//164
f 158//158 164//164 163//163
f 159//159 160//160 165//165
f 159//159 165//165 164//164
f 160//160 161//161 166//166
f 160//160 166//166 165//165
f 161//161 162//162 167//167
f 161//161 167//167 166//166
f 162//162 158//158 163//163
f 162//162 163//163 167//167
f 168//168 163//163 164//164
f 168//168 164//164 165//165
f 168//168 165//165 166//166
f 168//168 166//166 167//167
f 168//168 167//167 163//163
f 169//169 171//171 170//170
f 169//169 172//172 171//171
f 169//169 173//173 172//172
f 169//169 174//174 173//173
f 169//169 170//170 174//174
f 170//170 171//171 176//176
f 170//170 176//176 175//175
f 171//171 172//172 177//177
f 171//171 177//177 176//176
f 172//172 173//173 178//178
f 172//172 178//178 177//177
f 173//173 174//174 179//179
f 173//173 179//179 178//178
f 174//174 170//170 175//175
f 174//174 175//175 179//179
f 180//180 175//175 176//176
f 180//180 176//176 177//177
f 180//180 177//177 178//178
f 180//180 178//178 179//179
f 180//180 179//179 175//175
f 181//181 182//182 183//183
f 181//181 183//183 184//184
f 185//185 186//186 187//187
f 185//185 187//187 188//188
f 189//189 190//190 191//191
f 189//189 191//191 192//192
f 193//193 194//194 195//195
f 193//193 195//195 196//196
f 197//197 198//198 199//199
f 197//197 199//199 200//200
f 201//201 202//202 203//203
f 201//201 203//203 204//204
f 205//205 206//206 207//207
f 205//205 207//207 208//208
f 209//209 210//210 211//211
f 209//209 211//211 212//212
f 213//213 214//214 215//215
f 213//213 215//215 216//216
f 217//217 218//218 219//219
f 217//217 219//219 220//220
f 221//221 222//222 223//223
f 221//221 223//223 224//224
f 225//225 226//226 227//227
f 225//225 227//227 228//228
f 229//229 230//230 231//231
f 229//229 231//231 232//232
f 233//233 234//234 235//235
f 233//233 235//235 236//236
f 237//237 238//238 239//239
f 237//237 239//239 240//240
f 241//241 242//242 243//243
f 241//241 243//243 244//244
f 245//245 246//246 247//247
f 245//245 247//247 248//248
f 249//249 250//250 251//251
f 249//249 251//251 252//252
f 253//253 254//254 255//255
f 253//253 255//255 256//256
f 257//257 258//258 259//259
f 257//257 259//259 260//260
f 261//261 262//262 263//263
f 261//261 263//263 264//264
f 265//265 266//266 267//267
f 265//265 267//267 268//268
f 269//269 270//270 271//271
f 269//269 271//271 272//272
f 273//273 274//274 275//275
f 273//273 275//275 276//276
