# Dongfeng sandbox; metres; X right, Y far, Z up
mtllib scene.mtl
usemtl grey_yard
v 0.347000 4.300000 0.002000
v 0.347358 4.277994 0.002000
v 0.348451 4.256973 0.002000
v 0.350303 4.236934 0.002000
v 0.352940 4.217870 0.002000
v 0.356388 4.199780 0.002000
v 0.360672 4.182656 0.002000
v 0.365818 4.166497 0.002000
v 0.371852 4.151296 0.002000
v 0.378799 4.137051 0.002000
v 0.386685 4.123756 0.002000
v 0.395535 4.111407 0.002000
v 0.405375 4.100000 0.002000
v 0.416231 4.089530 0.002000
v 0.428128 4.079994 0.002000
v 0.441092 4.071387 0.002000
v 0.455148 4.063704 0.002000
v 0.470323 4.056941 0.002000
v 0.486641 4.051094 0.002000
v 0.504128 4.046158 0.002000
v 0.522810 4.042130 0.002000
v 0.542713 4.039004 0.002000
v 0.563862 4.036777 0.002000
v 0.586282 4.035443 0.002000
v 0.610000 4.035000 0.002000
v 0.637549 4.036389 0.002000
v 0.665155 4.040416 0.002000
v 0.692757 4.046872 0.002000
v 0.720291 4.055548 0.002000
v 0.747696 4.066233 0.002000
v 0.774911 4.078719 0.002000
v 0.801872 4.092796 0.002000
v 0.828519 4.108254 0.002000
v 0.854788 4.124885 0.002000
v 0.880618 4.142478 0.002000
v 0.905948 4.160825 0.002000
v 0.930714 4.179716 0.002000
v 0.954856 4.198941 0.002000
v 0.978310 4.218291 0.002000
v 1.001016 4.237557 0.002000
v 1.022910 4.256528 0.002000
v 1.043931 4.274997 0.002000
v 1.064018 4.292752 0.002000
v 1.083107 4.309586 0.002000
v 1.101138 4.325287 0.002000
v 1.118047 4.339648 0.002000
v 1.133773 4.352458 0.002000
v 1.148254 4.363507 0.002000
v 1.161429 4.372588 0.002000
v 1.212857 4.405891 0.002000
v 1.264286 4.439162 0.002000
v 1.315714 4.471436 0.002000
v 1.367143 4.501685 0.002000
v 1.418571 4.528872 0.002000
v 1.470000 4.552009 0.002000
v 1.521429 4.570217 0.002000
v 1.572857 4.582780 0.002000
v 1.624286 4.589192 0.002000
v 1.675714 4.589192 0.002000
v 1.727143 4.582780 0.002000
v 1.778571 4.570217 0.002000
v 1.830000 4.552009 0.002000
v 1.881429 4.528872 0.002000
v 1.932857 4.501685 0.002000
v 1.984286 4.471436 0.002000
v 2.035714 4.439162 0.002000
v 2.087143 4.405891 0.002000
v 2.138572 4.372588 0.002000
v 2.148299 4.365971 0.002000
v 2.158715 4.358216 0.002000
v 2.169797 4.349412 0.002000
v 2.181523 4.339648 0.002000
v 2.193871 4.329011 0.002000
v 2.206819 4.317591 0.002000
v 2.220342 4.305475 0.002000
v 2.234420 4.292752 0.002000
v 2.249029 4.279510 0.002000
v 2.264147 4.265839 0.002000
v 2.279752 4.251824 0.002000
v 2.295820 4.237557 0.002000
v 2.312330 4.223124 0.002000
v 2.329260 4.208613 0.002000
v 2.346586 4.194115 0.002000
v 2.364286 4.179716 0.002000
v 2.382337 4.165505 0.002000
v 2.400718 4.151571 0.002000
v 2.419405 4.138001 0.002000
v 2.438376 4.124885 0.002000
v 2.457609 4.112310 0.002000
v 2.477081 4.100366 0.002000
v 2.496769 4.089139 0.002000
v 2.516652 4.078719 0.002000
v 2.536706 4.069194 0.002000
v 2.556909 4.060652 0.002000
v 2.577239 4.053182 0.002000
v 2.597673 4.046872 0.002000
v 2.618189 4.041811 0.002000
v 2.638763 4.038086 0.002000
v 2.659374 4.035786 0.002000
v 2.680000 4.035000 0.002000
v 2.694860 4.035221 0.002000
v 2.709433 4.035889 0.002000
v 2.723706 4.037011 0.002000
v 2.737668 4.038594 0.002000
v 2.751306 4.040646 0.002000
v 2.764608 4.043174 0.002000
v 2.777562 4.046185 0.002000
v 2.790156 4.049687 0.002000
v 2.802378 4.053688 0.002000
v 2.814216 4.058193 0.002000
v 2.825658 4.063211 0.002000
v 2.836691 4.068750 0.002000
v 2.847304 4.074816 0.002000
v 2.857485 4.081416 0.002000
v 2.867221 4.088558 0.002000
v 2.876500 4.096250 0.002000
v 2.885310 4.104498 0.002000
v 2.893640 4.113310 0.002000
v 2.901477 4.122694 0.002000
v 2.908809 4.132656 0.002000
v 2.915623 4.143204 0.002000
v 2.921909 4.154346 0.002000
v 2.927653 4.166088 0.002000
v 2.932844 4.178438 0.002000
v 2.937469 4.191402 0.002000
v 2.941517 4.204990 0.002000
v 2.944975 4.219208 0.002000
v 2.947832 4.234063 0.002000
v 2.950075 4.249562 0.002000
v 2.951692 4.265713 0.002000
v 2.952671 4.282523 0.002000
v 2.953000 4.300000 0.002000
v 2.960000 4.560000 0.002000
v 2.958292 4.601290 0.002000
v 2.953181 4.642297 0.002000
v 2.944700 4.682743 0.002000
v 2.932909 4.722350 0.002000
v 2.917887 4.760848 0.002000
v 2.899737 4.797974 0.002000
v 2.878583 4.833474 0.002000
v 2.854570 4.867106 0.002000
v 2.827862 4.898641 0.002000
v 2.798641 4.927862 0.002000
v 2.767106 4.954570 0.002000
v 2.733474 4.978583 0.002000
v 2.697974 4.999737 0.002000
v 2.660848 5.017887 0.002000
v 2.622350 5.032908 0.002000
v 2.582743 5.044700 0.002000
v 2.542297 5.053181 0.002000
v 2.501290 5.058292 0.002000
v 2.460000 5.060000 0.002000
v 0.840000 5.060000 0.002000
v 0.798710 5.058292 0.002000
v 0.757703 5.053181 0.002000
v 0.717257 5.044700 0.002000
v 0.677650 5.032908 0.002000
v 0.639152 5.017887 0.002000
v 0.602026 4.999737 0.002000
v 0.566526 4.978583 0.002000
v 0.532894 4.954570 0.002000
v 0.501359 4.927862 0.002000
v 0.472138 4.898641 0.002000
v 0.445430 4.867106 0.002000
v 0.421417 4.833474 0.002000
v 0.400263 4.797974 0.002000
v 0.382113 4.760848 0.002000
v 0.367091 4.722350 0.002000
v 0.355300 4.682743 0.002000
v 0.346819 4.642297 0.002000
v 0.341708 4.601290 0.002000
v 0.340000 4.560000 0.002000
vn 0.000000 0.000000 1.000000
vn 0.000000 0.000000 1.000000
vn 0.000000 0.000000 1.000000
vn 0.000000 0.000000 1.000000
vn 0.000000 0.000000 1.000000
vn 0.000000 0.000000 1.000000
vn 0.000000 0.000000 1.000000
vn 0.000000 0.000000 1.000000
vn 0.000000 0.000000 1.000000
vn 0.000000 0.000000 1.000000
vn 0.000000 0.000000 1.000000
vn 0.000000 0.000000 1.000000
vn 0.000000 0.000000 1.000000
vn 0.000000 0.000000 1.000000
vn 0.000000 0.000000 1.000000
vn 0.000000 0.000000 1.000000
vn 0.000000 0.000000 1.000000
vn 0.000000 0.000000 1.000000
vn 0.000000 0.000000 1.000000
vn 0.000000 0.000000 1.000000
vn 0.000000 0.000000 1.000000
vn 0.000000 0.000000 1.000000
vn 0.000000 0.000000 1.000000
vn 0.000000 0.000000 1.000000
vn 0.000000 0.000000 1.000000
vn 0.000000 0.000000 1.000000
vn 0.000000 0.000000 1.000000
vn 0.000000 0.000000 1.000000
vn 0.000000 0.000000 1.000000
vn 0.000000 0.000000 1.000000
vn 0.000000 0.000000 1.000000
vn 0.000000 0.000000 1.000000
vn 0.000000 0.000000 1.000000
vn 0.000000 0.000000 1.000000
vn 0.000000 0.000000 1.000000
vn 0.000000 0.000000 1.000000
vn 0.000000 0.000000 1.000000
vn 0.000000 0.000000 1.000000
vn 0.000000 0.000000 1.000000
vn 0.000000 0.000000 1.000000
vn 0.000000 0.000000 1.000000
vn 0.000000 0.000000 1.000000
vn 0.000000 0.000000 1.000000
vn 0.000000 0.000000 1.000000
vn 0.000000 0.000000 1.000000
vn 0.000000 0.000000 1.000000
vn 0.000000 0.000000 1.000000
vn 0.000000 0.000000 1.000000
vn 0.000000 0.000000 1.000000
vn 0.000000 0.000000 1.000000
vn 0.000000 0.000000 1.000000
vn 0.000000 0.000000 1.000000
vn 0.000000 0.000000 1.000000
vn 0.000000 0.000000 1.000000
vn 0.000000 0.000000 1.000000
vn 0.000000 0.000000 1.000000
vn 0.000000 0.000000 1.000000
vn 0.000000 0.000000 1.000000
vn 0.000000 0.000000 1.000000
vn 0.000000 0.000000 1.000000
vn 0.000000 0.000000 1.000000
vn 0.000000 0.000000 1.000000
vn 0.000000 0.000000 1.000000
vn 0.000000 0.000000 1.000000
vn 0.000000 0.000000 1.000000
vn 0.000000 0.000000 1.000000
vn 0.000000 0.000000 1.000000
vn 0.000000 0.000000 1.000000
vn 0.000000 0.000000 1.000000
vn 0.000000 0.000000 1.000000
vn 0.000000 0.000000 1.000000
vn 0.000000 0.000000 1.000000
vn 0.000000 0.000000 1.000000
vn 0.000000 0.000000 1.000000
vn 0.000000 0.000000 1.000000
vn 0.000000 0.000000 1.000000
vn 0.000000 0.000000 1.000000
vn 0.000000 0.000000 1.000000
vn 0.000000 0.000000 1.000000
vn 0.000000 0.000000 1.000000
vn 0.000000 0.000000 1.000000
vn 0.000000 0.000000 1.000000
vn 0.000000 0.000000 1.000000
vn 0.000000 0.000000 1.000000
vn 0.000000 0.000000 1.000000
vn 0.000000 0.000000 1.000000
vn 0.000000 0.000000 1.000000
vn 0.000000 0.000000 1.000000
vn 0.000000 0.000000 1.000000
vn 0.000000 0.000000 1.000000
vn 0.000000 0.000000 1.000000
vn 0.000000 0.000000 1.000000
vn 0.000000 0.000000 1.000000
vn 0.000000 0.000000 1.000000
vn 0.000000 0.000000 1.000000
vn 0.000000 0.000000 1.000000
vn 0.000000 0.000000 1.000000
vn 0.000000 0.000000 1.000000
vn 0.000000 0.000000 1.000000
vn 0.000000 0.000000 1.000000
vn 0.000000 0.000000 1.000000
vn 0.000000 0.000000 1.000000
vn 0.000000 0.000000 1.000000
vn 0.000000 0.000000 1.000000
vn 0.000000 0.000000 1.000000
vn 0.000000 0.000000 1.000000
vn 0.000000 0.000000 1.000000
vn 0.000000 0.000000 1.000000
vn 0.000000 0.000000 1.000000
vn 0.000000 0.000000 1.000000
vn 0.000000 0.000000 1.000000
vn 0.000000 0.000000 1.000000
vn 0.000000 0.000000 1.000000
vn 0.000000 0.000000 1.000000
vn 0.000000 0.000000 1.000000
vn 0.000000 0.000000 1.000000
vn 0.000000 0.000000 1.000000
vn 0.000000 0.000000 1.000000
vn 0.000000 0.000000 1.000000
vn 0.000000 0.000000 1.000000
vn 0.000000 0.000000 1.000000
vn 0.000000 0.000000 1.000000
vn 0.000000 0.000000 1.000000
vn 0.000000 0.000000 1.000000
vn 0.000000 0.000000 1.000000
vn 0.000000 0.000000 1.000000
vn 0.000000 0.000000 1.000000
vn 0.000000 0.000000 1.000000
vn 0.000000 0.000000 1.000000
vn 0.000000 0.000000 1.000000
vn 0.000000 0.000000 1.000000
vn 0.000000 0.000000 1.000000
vn 0.000000 0.000000 1.000000
vn 0.000000 0.000000 1.000000
vn 0.000000 0.000000 1.000000
vn 0.000000 0.000000 1.000000
vn 0.000000 0.000000 1.000000
vn 0.000000 0.000000 1.000000
vn 0.000000 0.000000 1.000000
vn 0.000000 0.000000 1.000000
vn 0.000000 0.000000 1.000000
vn 0.000000 0.000000 1.000000
vn 0.000000 0.000000 1.000000
vn 0.000000 0.000000 1.000000
vn 0.000000 0.000000 1.000000
vn 0.000000 0.000000 1.000000
vn 0.000000 0.000000 1.000000
vn 0.000000 0.000000 1.000000
vn 0.000000 0.000000 1.000000
vn 0.000000 0.000000 1.000000
vn 0.000000 0.000000 1.000000
vn 0.000000 0.000000 1.000000
vn 0.000000 0.000000 1.000000
vn 0.000000 0.000000 1.000000
vn 0.000000 0.000000 1.000000
vn 0.000000 0.000000 1.000000
vn 0.000000 0.000000 1.000000
vn 0.000000 0.000000 1.000000
vn 0.000000 0.000000 1.000000
vn 0.000000 0.000000 1.000000
vn 0.000000 0.000000 1.000000
vn 0.000000 0.000000 1.000000
vn 0.000000 0.000000 1.000000
vn 0.000000 0.000000 1.000000
vn 0.000000 0.000000 1.000000
vn 0.000000 0.000000 1.000000
vn 0.000000 0.000000 1.000000
vn 0.000000 0.000000 1.000000
vn 0.000000 0.000000 1.000000
vn 0.000000 0.000000 1.000000
vn 0.000000 0.000000 1.000000
vn 0.000000 0.000000 1.000000
f 1//1 2//2 3//3
f 172//172 1//1 3//3
f 172//172 3//3 4//4
f 172//172 4//4 5//5
f 172//172 5//5 6//6
f 172//172 6//6 7//7
f 172//172 7//7 8//8
f 172//172 8//8 9//9
f 172//172 9//9 10//10
f 172//172 10//10 11//11
f 172//172 11//11 12//12
f 172//172 12//12 13//13
f 172//172 13//13 14//14
f 172//172 14//14 15//15
f 172//172 15//15 16//16
f 172//172 16//16 17//17
f 172//172 17//17 18//18
f 172//172 18//18 19//19
f 172//172 19//19 20//20
f 172//172 20//20 21//21
f 172//172 21//21 22//22
f 172//172 22//22 23//23
f 172//172 23//23 24//24
f 172//172 24//24 25//25
f 172//172 25//25 26//26
f 172//172 26//26 27//27
f 172//172 27//27 28//28
f 172//172 28//28 29//29
f 172//172 29//29 30//30
f 172//172 30//30 31//31
f 172//172 31//31 32//32
f 172//172 32//32 33//33
f 172//172 33//33 34//34
f 172//172 34//34 35//35
f 172//172 35//35 36//36
f 172//172 36//36 37//37
f 172//172 37//37 38//38
f 172//172 38//38 39//39
f 172//172 39//39 40//40
f 172//172 40//40 41//41
f 172//172 41//41 42//42
f 172//172 42//42 43//43
f 172//172 43//43 44//44
f 172//172 44//44 45//45
f 172//172 45//45 46//46
f 172//172 46//46 47//47
f 172//172 47//47 48//48
f 172//172 48//48 49//49
f 172//172 49//49 50//50
f 172//172 50//50 51//51
f 172//172 51//51 52//52
f 172//172 52//52 53//53
f 172//172 53//53 54//54
f 172//172 54//54 55//55
f 172//172 55//55 56//56
f 172//172 56//56 57//57
f 172//172 57//57 58//58
f 76//76 77//77 78//78
f 76//76 78//78 79//79
f 75//75 76//76 79//79
f 75//75 79//79 80//80
f 75//75 80//80 81//81
f 74//74 75//75 81//81
f 74//74 81//81 82//82
f 74//74 82//82 83//83
f 74//74 83//83 84//84
f 73//73 74//74 84//84
f 73//73 84//84 85//85
f 73//73 85//85 86//86
f 72//72 73//73 86//86
f 72//72 86//86 87//87
f 72//72 87//87 88//88
f 72//72 88//88 89//89
f 71//71 72//72 89//89
f 71//71 89//89 90//90
f 71//71 90//90 91//91
f 71//71 91//91 92//92
f 70//70 71//71 92//92
f 70//70 92//92 93//93
f 70//70 93//93 94//94
f 70//70 94//94 95//95
f 69//69 70//70 95//95
f 69//69 95//95 96//96
f 69//69 96//96 97//97
f 69//69 97//97 98//98
f 68//68 69//69 98//98
f 68//68 98//98 99//99
f 67//67 68//68 99//99
f 66//66 67//67 99//99
f 66//66 99//99 100//100
f 65//65 66//66 100//100
f 65//65 100//100 101//101
f 65//65 101//101 102//102
f 65//65 102//102 103//103
f 64//64 65//65 103//103
f 64//64 103//103 104//104
f 64//64 104//104 105//105
f 64//64 105//105 106//106
f 64//64 106//106 107//107
f 64//64 107//107 108//108
f 63//63 64//64 108//108
f 63//63 108//108 109//109
f 63//63 109//109 110//110
f 63//63 110//110 111//111
f 63//63 111//111 112//112
f 63//63 112//112 113//113
f 63//63 113//113 114//114
f 63//63 114//114 115//115
f 62//62 63//63 115//115
f 62//62 115//115 116//116
f 62//62 116//116 117//117
f 62//62 117//117 118//118
f 62//62 118//118 119//119
f 62//62 119//119 120//120
f 62//62 120//120 121//121
f 62//62 121//121 122//122
f 62//62 122//122 123//123
f 61//61 62//62 123//123
f 61//61 123//123 124//124
f 61//61 124//124 125//125
f 61//61 125//125 126//126
f 61//61 126//126 127//127
f 61//61 127//127 128//128
f 61//61 128//128 129//129
f 61//61 129//129 130//130
f 61//61 130//130 131//131
f 61//61 131//131 132//132
f 60//60 61//61 132//132
f 60//60 132//132 133//133
f 59//59 60//60 133//133
f 59//59 133//133 134//134
f 58//58 59//59 134//134
f 58//58 134//134 135//135
f 172//172 58//58 135//135
f 172//172 135//135 136//136
f 172//172 136//136 137//137
f 172//172 137//137 138//138
f 172//172 138//138 139//139
f 172//172 139//139 140//140
f 172//172 140//140 141//141
f 172//172 141//141 142//142
f 172//172 142//142 143//143
f 172//172 143//143 144//144
f 172//172 144//144 145//145
f 172//172 145//145 146//146
f 172//172 146//146 147//147
f 172//172 147//147 148//148
f 172//172 148//148 149//149
f 172//172 149//149 150//150
f 172//172 150//150 151//151
f 172//172 151//151 152//152
f 172//172 152//152 153//153
f 172//172 153//153 154//154
f 172//172 154//154 155//155
f 172//172 155//155 156//156
f 172//172 156//156 157//157
f 172//172 157//157 158//158
f 172//172 158//158 159//159
f 172//172 159//159 160//160
f 172//172 160//160 161//161
f 172//172 161//161 162//162
f 172//172 162//162 163//163
f 172//172 163//163 164//164
f 172//172 164//164 165//165
f 172//172 165//165 166//166
f 172//172 166//166 167//167
f 172//172 167//167 168//168
f 172//172 168//168 169//169
f 172//172 169//169 170//170
f 170//170 171//171 172//172
