# Dongfeng sandbox; metres; X right, Y far, Z up
mtllib scene.mtl
usemtl grass
v 1.875000 4.650000 0.004000
v 1.878536 4.651464 0.004000
v 1.880000 4.655000 0.004000
v 1.880000 4.975000 0.004000
v 1.878536 4.978536 0.004000
v 1.875000 4.980000 0.004000
v 1.425000 4.980000 0.004000
v 1.421464 4.978536 0.004000
v 1.420000 4.975000 0.004000
v 1.420000 4.655000 0.004000
v 1.421464 4.651464 0.004000
v 1.425000 4.650000 0.004000
vn 0.000000 0.000000 1.000000
vn 0.000000 0.000000 1.000000
vn 0.000000 0.000000 1.000000
vn 0.000000 0.000000 1.000000
vn 0.000000 0.000000 1.000000
vn 0.000000 0.000000 1.000000
vn 0.000000 0.000000 1.000000
vn 0.000000 0.000000 1.000000
vn 0.000000 0.000000 1.000000
vn 0.000000 0.000000 1.000000
vn 0.000000 0.000000 1.000000
vn 0.000000 0.000000 1.000000
f 12//12 1//1 2//2
f 12//12 2//2 3//3
f 12//12 3//3 4//4
f 12//12 4//4 5//5
f 12//12 5//5 6//6
f 12//12 6//6 7//7
f 12//12 7//7 8//8
f 12//12 8//8 9//9
f 12//12 9//9 10//10
f 10//10 11//11 12//12
