mtllib vehicle.mtl
o base_label
usemtl label
v -0.09905000 -0.00850000 0.04700000
v -0.09855000 -0.00850000 0.04700000
v -0.09855000 0.00850000 0.04700000
v -0.09905000 0.00850000 0.04700000
v -0.09905000 -0.00850000 0.06500000
v -0.09855000 -0.00850000 0.06500000
v -0.09855000 0.00850000 0.06500000
v -0.09905000 0.00850000 0.06500000
vn -0.99789083 -0.05869957 -0.02771925
vn 0.99950641 -0.01469865 -0.02776412
vn 0.99789083 0.05869957 -0.02771925
vn -0.99950641 0.01469865 -0.02776412
vn -0.99979544 -0.01470290 0.01388608
vn 0.99674267 -0.05863203 0.05537470
vn 0.99979544 0.01470290 0.01388608
vn -0.99674267 0.05863203 0.05537470
f 2//2 1//1 4//4
f 4//4 3//3 2//2
f 8//8 5//5 6//6
f 6//6 7//7 8//8
f 1//1 2//2 6//6
f 1//1 6//6 5//5
f 2//2 3//3 7//7
f 2//2 7//7 6//6
f 3//3 4//4 8//8
f 3//3 8//8 7//7
f 4//4 1//1 5//5
f 4//4 5//5 8//8
