mtllib vehicle.mtl
o base_cable_white
usemtl cable_white
v -0.04777081 -0.03832288 0.05000000
v -0.04720908 -0.03762544 0.04872023
v -0.04573689 -0.03721005 0.04840415
v -0.04446283 -0.03738951 0.04928978
v -0.04434629 -0.03802868 0.05071022
v -0.04547502 -0.03864625 0.05159586
v -0.04699907 -0.03877719 0.05127978
v -0.04671345 -0.04411026 0.04730923
v -0.04615734 -0.04338638 0.04604174
v -0.04469870 -0.04290647 0.04575564
v -0.04343592 -0.04303190 0.04666638
v -0.04331990 -0.04366822 0.04808814
v -0.04443800 -0.04433628 0.04895032
v -0.04594827 -0.04453300 0.04860367
v -0.04512927 -0.04941520 0.04482087
v -0.04459021 -0.04863534 0.04357950
v -0.04317256 -0.04801832 0.04335733
v -0.04194385 -0.04802878 0.04432166
v -0.04182931 -0.04865883 0.04574634
v -0.04291520 -0.04943404 0.04655854
v -0.04438382 -0.04977066 0.04614667
v -0.04307604 -0.05417156 0.04256836
v -0.04256217 -0.05333425 0.04135401
v -0.04120560 -0.05257579 0.04119836
v -0.04002785 -0.05246731 0.04221861
v -0.03991579 -0.05309050 0.04364650
v -0.04095381 -0.05397609 0.04440679
v -0.04236025 -0.05445720 0.04392697
v -0.04060055 -0.05838956 0.04055000
v -0.04012068 -0.05749512 0.03936278
v -0.03884714 -0.05659508 0.03927433
v -0.03773895 -0.05636718 0.04035125
v -0.03763058 -0.05698305 0.04178260
v -0.03860365 -0.05797891 0.04249054
v -0.03992541 -0.05860487 0.04194198
v -0.03775130 -0.06207846 0.03876464
v -0.03731427 -0.06112926 0.03760369
v -0.03614619 -0.06009251 0.03758077
v -0.03512664 -0.05974892 0.03871313
v -0.03502337 -0.06035721 0.04014809
v -0.03591415 -0.06145933 0.04080509
v -0.03712818 -0.06222536 0.04018939
v -0.03457889 -0.06524734 0.03721127
v -0.03419286 -0.06424783 0.03607472
v -0.03315133 -0.06308442 0.03611318
v -0.03223858 -0.06263319 0.03729769
v -0.03214195 -0.06323392 0.03873629
v -0.03293418 -0.06443425 0.03934569
v -0.03401872 -0.06533030 0.03866699
v -0.03113588 -0.06790592 0.03588865
v -0.03080766 -0.06686237 0.03477373
v -0.02991081 -0.06558694 0.03486715
v -0.02912068 -0.06504005 0.03609858
v -0.02903226 -0.06563354 0.03754071
v -0.02971212 -0.06692047 0.03810760
v -0.03064832 -0.06793178 0.03737237
v -0.02747618 -0.07006536 0.03479494
v -0.02721077 -0.06898531 0.03369821
v -0.02647267 -0.06761587 0.03383842
v -0.02581768 -0.06698829 0.03511000
v -0.02573902 -0.06757512 0.03655541
v -0.02629593 -0.06893449 0.03708624
v -0.02706904 -0.07004274 0.03630275
v -0.02365411 -0.07173856 0.03392748
v -0.02345462 -0.07063019 0.03284512
v -0.02288491 -0.06918672 0.03302287
v -0.02237397 -0.06849511 0.03432687
v -0.02230656 -0.06907617 0.03577518
v -0.02273343 -0.07049233 0.03627720
v -0.02333315 -0.07167722 0.03545490
v -0.01972352 -0.07294001 0.03328288
v -0.01959135 -0.07181159 0.03221098
v -0.01919564 -0.07031462 0.03241654
v -0.01883437 -0.06957634 0.03374477
v -0.01877959 -0.07015269 0.03519550
v -0.01907253 -0.07160968 0.03567628
v -0.01949262 -0.07285015 0.03482509
v -0.01573720 -0.07368530 0.03285723
v -0.01567243 -0.07254482 0.03179191
v -0.01545323 -0.07101455 0.03201555
v -0.01524467 -0.07024682 0.03335975
v -0.01520380 -0.07081973 0.03481229
v -0.01536139 -0.07230188 0.03527939
v -0.01559878 -0.07357717 0.03440931
v -0.01174669 -0.07399044 0.03264638
v -0.01174851 -0.07284545 0.03158393
v -0.01170625 -0.07130140 0.03181610
v -0.01165175 -0.07052098 0.03316805
v -0.01162604 -0.07109188 0.03462173
v -0.01164848 -0.07258418 0.03508250
v -0.01170218 -0.07387416 0.03420339
v -0.00780241 -0.07387137 0.03264622
v -0.00786950 -0.07272898 0.03158309
v -0.00800349 -0.07119004 0.03181436
v -0.00810348 -0.07041340 0.03316588
v -0.00809417 -0.07098387 0.03461993
v -0.00798258 -0.07247189 0.03508158
v -0.00785274 -0.07375695 0.03420320
v -0.00395401 -0.07334343 0.03285296
v -0.00408484 -0.07221052 0.03178564
v -0.00439387 -0.07069542 0.03200649
v -0.00464840 -0.06993905 0.03334921
v -0.00465677 -0.07051096 0.03480271
v -0.00441267 -0.07198049 0.03527246
v -0.00409991 -0.07324106 0.03440474
v -0.00025093 -0.07242118 0.03326321
v -0.00044378 -0.07130457 0.03218814
v -0.00092636 -0.06983259 0.03238861
v -0.00133527 -0.06911367 0.03371365
v -0.00136260 -0.06968918 0.03516549
v -0.00098777 -0.07112575 0.03565085
v -0.00049303 -0.07234160 0.03480426
v 0.00325702 -0.07111825 0.03387407
v 0.00300409 -0.07002500 0.03278751
v 0.00235009 -0.06861665 0.03295677
v 0.00178750 -0.06795374 0.03425438
v 0.00173995 -0.06853543 0.03570323
v 0.00224325 -0.06992371 0.03621230
v 0.00291841 -0.07107317 0.03539824
v 0.00651889 -0.06944758 0.03468308
v 0.00620839 -0.06838515 0.03358099
v 0.00538663 -0.06706280 0.03370702
v 0.00467241 -0.06647629 0.03496626
v 0.00460355 -0.06706727 0.03641048
v 0.00523191 -0.06839073 0.03695215
v 0.00608431 -0.06945007 0.03618339
v 0.00948186 -0.06742197 0.03568792
v 0.00911734 -0.06639820 0.03456595
v 0.00813456 -0.06518614 0.03463541
v 0.00727357 -0.06469849 0.03584399
v 0.00718272 -0.06530245 0.03728161
v 0.00793041 -0.06654325 0.03786571
v 0.00895362 -0.06748652 0.03715645
v 0.01209068 -0.06505507 0.03688588
v 0.01167735 -0.06407795 0.03573951
v 0.01054534 -0.06300168 0.03573808
v 0.00954708 -0.06263674 0.03688266
v 0.00943428 -0.06325792 0.03831137
v 0.01029188 -0.06439746 0.03894835
v 0.01147409 -0.06519727 0.03831395
v 0.01428776 -0.06236288 0.03827309
v 0.01383300 -0.06143981 0.03709796
v 0.01257051 -0.06052417 0.03701129
v 0.01145098 -0.06030545 0.03807834
v 0.01131743 -0.06094836 0.03949560
v 0.01227043 -0.06196877 0.04019584
v 0.01359235 -0.06259829 0.03965177
v 0.01601433 -0.05936520 0.03984357
v 0.01552784 -0.05850203 0.03863608
v 0.01416149 -0.05776799 0.03845152
v 0.01294417 -0.05771584 0.03942886
v 0.01279254 -0.05838485 0.04083215
v 0.01382079 -0.05927124 0.04160468
v 0.01525462 -0.05970753 0.04116473
v 0.01721291 -0.05608629 0.04158885
v 0.01670616 -0.05528618 0.04034675
v 0.01526933 -0.05474730 0.04005538
v 0.01398437 -0.05487543 0.04093415
v 0.01381888 -0.05557409 0.04232133
v 0.01489749 -0.05631717 0.04317234
v 0.01640797 -0.05654513 0.04284636
v 0.01783015 -0.05255373 0.04349835
v 0.01731518 -0.05181653 0.04222120
v 0.01584459 -0.05147622 0.04181953
v 0.01452576 -0.05178906 0.04259582
v 0.01435181 -0.05251948 0.04396550
v 0.01545371 -0.05311745 0.04489717
v 0.01700172 -0.05313270 0.04468927
v 0.01781850 -0.04879571 0.04556090
v 0.01730634 -0.04811800 0.04425010
v 0.01583733 -0.04796914 0.04374054
v 0.01451768 -0.04846122 0.04441592
v 0.01434110 -0.04922370 0.04576768
v 0.01544056 -0.04968241 0.04677790
v 0.01698815 -0.04949194 0.04668587
v 0.01713558 -0.04483797 0.04776639
v 0.01663510 -0.04421392 0.04642480
v 0.01519744 -0.04424088 0.04581471
v 0.01390519 -0.04489854 0.04639554
v 0.01373144 -0.04569167 0.04772991
v 0.01480702 -0.04602303 0.04881301
v 0.01632201 -0.04564310 0.04882925
v 0.01574184 -0.04070207 0.05010694
v 0.01525923 -0.04012461 0.04873821
v 0.01387484 -0.04030668 0.04803814
v 0.01263114 -0.04111119 0.04853389
v 0.01246466 -0.04193231 0.04985216
v 0.01350077 -0.04215174 0.05100025
v 0.01495925 -0.04160423 0.05111364
v 0.01364159 -0.03648512 0.05252922
v 0.01316882 -0.03592805 0.05114866
v 0.01181590 -0.03617818 0.05040918
v 0.01060162 -0.03704716 0.05086761
v 0.01044034 -0.03788063 0.05217876
v 0.01145352 -0.03805096 0.05335530
v 0.01287821 -0.03742990 0.05351127
v -0.04777081 -0.03832288 0.05000000
v -0.04720908 -0.03762544 0.04872023
v -0.04573689 -0.03721005 0.04840415
v -0.04446283 -0.03738951 0.04928978
v -0.04434629 -0.03802868 0.05071022
v -0.04547502 -0.03864625 0.05159586
v -0.04699907 -0.03877719 0.05127978
v 0.01364159 -0.03648512 0.05252922
v 0.01316882 -0.03592805 0.05114866
v 0.01181590 -0.03617818 0.05040918
v 0.01060162 -0.03704716 0.05086761
v 0.01044034 -0.03788063 0.05217876
v 0.01145352 -0.03805096 0.05335530
v 0.01287821 -0.03742990 0.05351127
v -0.02601601 -0.03563853 0.05000000
v -0.02590618 -0.03496419 0.04921416
v -0.02511398 -0.03431681 0.04902007
v -0.02423595 -0.03418389 0.04956389
v -0.02393326 -0.03466551 0.05043611
v -0.02443385 -0.03539901 0.05097993
v -0.02536076 -0.03583205 0.05078584
v -0.02362993 -0.03943282 0.04707702
v -0.02352841 -0.03874614 0.04630080
v -0.02275748 -0.03806691 0.04613151
v -0.02189765 -0.03790661 0.04669663
v -0.02159641 -0.03838594 0.04757061
v -0.02208058 -0.03914396 0.04809533
v -0.02298558 -0.03960986 0.04787566
v -0.02095475 -0.04278896 0.04433474
v -0.02087310 -0.04207779 0.04357849
v -0.02015277 -0.04133509 0.04346070
v -0.01933619 -0.04112013 0.04407007
v -0.01903825 -0.04159478 0.04494773
v -0.01948331 -0.04240162 0.04543279
v -0.02033624 -0.04293308 0.04515998
v -0.01804829 -0.04568241 0.04180336
v -0.01799023 -0.04494814 0.04106727
v -0.01733009 -0.04414550 0.04100152
v -0.01656496 -0.04387888 0.04165563
v -0.01627101 -0.04434907 0.04253703
v -0.01666958 -0.04520199 0.04298202
v -0.01746055 -0.04579538 0.04265550
v -0.01494520 -0.04812882 0.03948300
v -0.01491428 -0.04737350 0.03876683
v -0.01432347 -0.04651613 0.03875256
v -0.01361766 -0.04620232 0.03945092
v -0.01332835 -0.04666838 0.04033604
v -0.01367338 -0.04756335 0.04074140
v -0.01439295 -0.04821331 0.04036176
v -0.01168071 -0.05014404 0.03737379
v -0.01168012 -0.04937031 0.03667688
v -0.01116689 -0.04846494 0.03671236
v -0.01052749 -0.04810970 0.03745353
v -0.01024341 -0.04857209 0.03834226
v -0.01052856 -0.04950392 0.03870933
v -0.01116822 -0.05020350 0.03827832
v -0.00829042 -0.05174431 0.03547579
v -0.00832287 -0.05095526 0.03479704
v -0.00789425 -0.05000984 0.03487953
v -0.00732730 -0.04961997 0.03566115
v -0.00704896 -0.05007922 0.03655331
v -0.00726882 -0.05104178 0.03688421
v -0.00782132 -0.05178282 0.03640466
v -0.00481016 -0.05294633 0.03378880
v -0.00487783 -0.05214537 0.03312681
v -0.00453943 -0.05116864 0.03325269
v -0.00404977 -0.05075165 0.03407165
v -0.00377758 -0.05120839 0.03496701
v -0.00392783 -0.05219493 0.03526452
v -0.00438736 -0.05296838 0.03474017
v -0.00127573 -0.05376721 0.03231239
v -0.00138026 -0.05295792 0.03166549
v -0.00113632 -0.05195912 0.03183050
v -0.00072760 -0.05152291 0.03268315
v -0.00046187 -0.05197778 0.03358139
v -0.00053923 -0.05298120 0.03384882
v -0.00090144 -0.05377757 0.03328406
v 0.00227727 -0.05422444 0.03104586
v 0.00213470 -0.05341047 0.03041223
v 0.00228115 -0.05239897 0.03061166
v 0.00260634 -0.05195162 0.03149397
v 0.00286540 -0.05240528 0.03239477
v 0.00286325 -0.05341833 0.03263573
v 0.00260151 -0.05422793 0.03203541
v 0.00581361 -0.05433565 0.02998830
v 0.00563217 -0.05352068 0.02936601
v 0.00567901 -0.05250590 0.02959490
v 0.00591886 -0.05205548 0.03050261
v 0.00617111 -0.05250858 0.03140562
v 0.00624580 -0.05352401 0.03162394
v 0.00608670 -0.05433714 0.03099318
v 0.00929844 -0.05411851 0.02913871
v 0.00907752 -0.05330620 0.02852576
v 0.00902322 -0.05229760 0.02877898
v 0.00917643 -0.05185220 0.02970768
v 0.00942177 -0.05230539 0.03061254
v 0.00957451 -0.05331592 0.03081218
v 0.00951962 -0.05412283 0.03015626
v 0.01269726 -0.05359048 0.02849607
v 0.01243636 -0.05278461 0.02789039
v 0.01227968 -0.05179179 0.02816262
v 0.01234520 -0.05135964 0.02910777
v 0.01258359 -0.05181358 0.03001411
v 0.01281532 -0.05281178 0.03019916
v 0.01286591 -0.05360258 0.02952357
v 0.01597583 -0.05276873 0.02805950
v 0.01567448 -0.05197323 0.02745890
v 0.01541426 -0.05100626 0.02774455
v 0.01539113 -0.05059596 0.02870136
v 0.01562250 -0.05105130 0.02960881
v 0.01593415 -0.05202940 0.02978359
v 0.01609140 -0.05279373 0.02909408
v 0.01910000 -0.05166994 0.02782835
v 0.01875773 -0.05088910 0.02723045
v 0.01839283 -0.04995886 0.02752345
v 0.01828009 -0.04957971 0.02848672
v 0.01850439 -0.05003715 0.02939489
v 0.01889684 -0.05098673 0.02956410
v 0.01916191 -0.05171339 0.02886692
v 0.02203538 -0.05031031 0.02780235
v 0.02165181 -0.04954891 0.02720444
v 0.02118129 -0.04866753 0.02749793
v 0.02097814 -0.04832986 0.02846181
v 0.02119534 -0.04879018 0.02937026
v 0.02166932 -0.04970186 0.02953920
v 0.02204318 -0.05037837 0.02884142
v 0.02474703 -0.04870554 0.02798165
v 0.02432206 -0.04796903 0.02738057
v 0.02374566 -0.04715028 0.02766654
v 0.02345188 -0.04686584 0.02862421
v 0.02366193 -0.04732989 0.02953244
v 0.02421765 -0.04819299 0.02970731
v 0.02470056 -0.04880522 0.02901715
v 0.02719890 -0.04687113 0.02836684
v 0.02673309 -0.04616567 0.02775882
v 0.02605214 -0.04542517 0.02802774
v 0.02566883 -0.04520724 0.02897110
v 0.02587179 -0.04567599 0.02987853
v 0.02650819 -0.04647844 0.03006672
v 0.02709881 -0.04701033 0.02939395
v 0.02935334 -0.04482286 0.02895877
v 0.02884843 -0.04415523 0.02833936
v 0.02806720 -0.04351015 0.02857999
v 0.02759793 -0.04337339 0.02949946
v 0.02779399 -0.04384793 0.03040539
v 0.02850775 -0.04457643 0.03061561
v 0.02920173 -0.04501031 0.02997180
v 0.03117075 -0.04257777 0.02975809
v 0.03063030 -0.04195493 0.02912222
v 0.02975762 -0.04142299 0.02932175
v 0.02920985 -0.04138251 0.03020643
v 0.02939947 -0.04186399 0.03111008
v 0.03018370 -0.04250484 0.03135223
v 0.03097199 -0.04282251 0.03075054
v 0.03260981 -0.04015543 0.03076445
v 0.03203978 -0.03958368 0.03010680
v 0.03109046 -0.03918100 0.03025171
v 0.03047671 -0.03925063 0.03109005
v 0.03066071 -0.03974013 0.03199055
v 0.03150389 -0.04028089 0.03227510
v 0.03237132 -0.04046572 0.03172943
v 0.03362890 -0.03757886 0.03197553
v 0.03303766 -0.03706269 0.03129118
v 0.03203277 -0.03680093 0.03136886
v 0.03137093 -0.03699070 0.03215009
v 0.03155053 -0.03748909 0.03304658
v 0.03243632 -0.03792081 0.03338326
v 0.03336128 -0.03796076 0.03290660
v 0.03418833 -0.03487445 0.03338652
v 0.03358603 -0.03441545 0.03267174
v 0.03255124 -0.03429900 0.03267261
v 0.03186318 -0.03461278 0.03338847
v 0.03203996 -0.03512052 0.03428027
v 0.03294848 -0.03543986 0.03467646
v 0.03390459 -0.03533036 0.03427870
v 0.03425257 -0.03207011 0.03499056
v 0.03364974 -0.03166652 0.03424352
v 0.03261185 -0.03169122 0.03416269
v 0.03192046 -0.03212561 0.03480893
v 0.03209619 -0.03264258 0.03569562
v 0.03300672 -0.03285285 0.03615505
v 0.03396640 -0.03259807 0.03584126
v 0.03379084 -0.02919257 0.03678019
v 0.03319683 -0.02883968 0.03600110
v 0.03217984 -0.02899384 0.03583889
v 0.03150568 -0.02953896 0.03641570
v 0.03168201 -0.03006455 0.03729718
v 0.03257605 -0.03017484 0.03781956
v 0.03351457 -0.02978677 0.03758948
v 0.03277569 -0.02626529 0.03874899
v 0.03219761 -0.02595656 0.03793976
v 0.03121991 -0.02622369 0.03770082
v 0.03057882 -0.02686551 0.03821210
v 0.03075709 -0.02739873 0.03908860
v 0.03162048 -0.02742182 0.03967029
v 0.03251885 -0.02691738 0.03951915
v 0.03118070 -0.02330795 0.04089245
v 0.03062313 -0.02303624 0.04005601
v 0.02969667 -0.02339817 0.03974773
v 0.02909898 -0.02412121 0.04019976
v 0.02928012 -0.02466089 0.04107170
v 0.03010370 -0.02461082 0.04170697
v 0.03094953 -0.02400870 0.04162720
v 0.02901425 -0.02038217 0.04317199
v 0.02846762 -0.02012613 0.04232347
v 0.02756886 -0.02052814 0.04198439
v 0.02699476 -0.02128547 0.04241008
v 0.02717763 -0.02182783 0.04328000
v 0.02797976 -0.02174682 0.04393907
v 0.02879713 -0.02110344 0.04389100
v -0.02601601 -0.03563853 0.05000000
v -0.02590618 -0.03496419 0.04921416
v -0.02511398 -0.03431681 0.04902007
v -0.02423595 -0.03418389 0.04956389
v -0.02393326 -0.03466551 0.05043611
v -0.02443385 -0.03539901 0.05097993
v -0.02536076 -0.03583205 0.05078584
v 0.02901425 -0.02038217 0.04317199
v 0.02846762 -0.02012613 0.04232347
v 0.02756886 -0.02052814 0.04198439
v 0.02699476 -0.02128547 0.04241008
v 0.02717763 -0.02182783 0.04328000
v 0.02797976 -0.02174682 0.04393907
v 0.02879713 -0.02110344 0.04389100
vn -0.98317897 -0.11279015 -0.14365734
vn -0.54982877 0.26754659 -0.79126936
vn 0.29813454 0.44652858 -0.84363973
vn 0.92152196 0.28854623 -0.25988129
vn 0.84982675 -0.08696549 0.51983798
vn 0.13746813 -0.39690119 0.90750867
vn -0.67777669 -0.40813404 0.61159247
vn -0.97418529 -0.22524357 -0.01511032
vn -0.67280036 0.18177018 -0.71714664
vn 0.13357911 0.45227051 -0.88182086
vn 0.84092695 0.38222510 -0.38307431
vn 0.91349024 0.02318113 0.40619981
vn 0.29476485 -0.35337108 0.88783032
vn -0.54508942 -0.46335009 0.69870180
vn -0.94707954 -0.31584316 -0.05730122
vn -0.65658182 0.12132604 -0.74443287
vn 0.12690437 0.46788007 -0.87463337
vn 0.81670570 0.46234247 -0.34529874
vn 0.88829297 0.10656254 0.44674382
vn 0.28681156 -0.32985106 0.89940941
vn -0.52923453 -0.51681554 0.67291349
vn -0.90659201 -0.40950635 -0.10195888
vn -0.63066202 0.05886759 -0.77382171
vn 0.11866473 0.48360407 -0.86720580
vn 0.78068548 0.54466259 -0.30638677
vn 0.85123944 0.19281280 0.48807248
vn 0.27627495 -0.30513567 0.91135305
vn -0.50512600 -0.57192802 0.64633280
vn -0.85150325 -0.50327325 -0.14716718
vn -0.59492528 -0.00402533 -0.80377084
vn 0.10813948 0.49886584 -0.85990620
vn 0.73191470 0.62689102 -0.26703680
vn 0.80067116 0.27931559 0.53000796
vn 0.26181191 -0.28010947 0.92357630
vn -0.47244641 -0.62685621 0.61955285
vn -0.78149927 -0.59384096 -0.19134194
vn -0.54903090 -0.06516411 -0.83325785
vn 0.09544772 0.51310331 -0.85300338
vn 0.67017376 0.70611423 -0.22862585
vn 0.73625010 0.36304709 0.57108033
vn 0.24327137 -0.25558323 0.93567955
vn -0.43107775 -0.67960954 0.59355110
vn -0.69742227 -0.67779714 -0.23279442
vn -0.49340507 -0.12224323 -0.86116660
vn 0.08089691 0.52579129 -0.84675807
vn 0.59626055 0.77933776 -0.19262937
vn 0.65870339 0.44086331 0.60971254
vn 0.22078100 -0.23241882 0.94722605
vn -0.38161078 -0.72815496 0.56935364
vn -0.60120559 -0.75210738 -0.26997468
vn -0.42922023 -0.17317300 -0.88644302
vn 0.06494148 0.53651506 -0.84138823
vn 0.51192760 0.84391916 -0.16040823
vn 0.56977069 0.50995541 0.64444298
vn 0.19473086 -0.21141967 0.95780039
vn -0.32529646 -0.77071935 0.54788136
vn -0.49552262 -0.81452358 -0.30167633
vn -0.35817868 -0.21636125 -0.90823781
vn 0.04811017 0.54501301 -0.83704615
vn 0.41957107 0.89792347 -0.13301726
vn 0.47188357 0.56822300 0.67412788
vn 0.16570157 -0.19323255 0.96705961
vn -0.26382104 -0.80603260 0.52982068
vn -0.38327947 -0.86375427 -0.32714739
vn -0.28217301 -0.25085115 -0.92598712
vn 0.03092952 0.55119073 -0.83380586
vn 0.32177830 0.94027156 -0.11112230
vn 0.36769000 0.61443359 0.69805121
vn 0.13434552 -0.17830242 0.97476125
vn -0.19899091 -0.83342510 0.51556313
vn -0.26712525 -0.89937997 -0.34606299
vn -0.20295171 -0.27627054 -0.93940687
vn 0.01385631 0.55509067 -0.83167446
vn 0.22089756 0.97065854 -0.09500670
vn 0.25960505 0.64814907 0.71589655
vn 0.10127042 -0.16688310 0.98076206
vn -0.13242926 -0.85276300 0.50523031
vn -0.14912315 -0.92158002 -0.35840279
vn -0.12188410 -0.29265627 -0.94841790
vn -0.00275479 0.55684394 -0.83061260
vn 0.11875608 0.98930585 -0.08468130
vn 0.14950755 0.66947603 0.72763270
vn 0.06696317 -0.15908888 0.98499072
vn -0.06538855 -0.86427355 0.49875396
vn -0.03063953 -0.93078279 -0.36428660
vn -0.03987215 -0.30021527 -0.95303774
vn -0.01865369 0.55662405 -0.83055508
vn 0.01657033 0.99665457 -0.08003202
vn 0.03863846 0.67874604 0.73335588
vn 0.03175031 -0.15497641 0.98740780
vn 0.00131167 -0.86832982 0.49598566
vn 0.08757900 -0.92734569 -0.36381298
vn 0.04260510 -0.29910293 -0.95326918
vn -0.03368043 0.55460358 -0.83143282
vn -0.08499101 0.99308801 -0.08094912
vn -0.07233225 0.67622131 0.73313898
vn -0.00418575 -0.15462270 0.98796469
vn 0.06722687 -0.86526370 0.49678886
vn 0.20520556 -0.91131330 -0.35692966
vn 0.12535939 -0.28924742 -0.94901055
vn -0.04772374 0.55092657 -0.83318806
vn -0.18562001 0.97872257 -0.08744878
vn -0.18311898 0.66186512 0.72691262
vn -0.04076076 -0.15819176 0.98656678
vn 0.13216692 -0.85522616 0.50111902
vn 0.32204059 -0.88226962 -0.34335127
vn 0.20829137 -0.27023754 -0.93999279
vn -0.06069198 0.54571068 -0.83577287
vn -0.28512049 0.95328820 -0.09973982
vn -0.29354933 0.63520700 0.71438146
vn -0.07791350 -0.16598341 0.98304576
vn 0.19602250 -0.83811003 0.50906450
vn 0.43766391 -0.83930451 -0.32251865
vn 0.29114193 -0.24128512 -0.92575258
vn -0.07247698 0.53905225 -0.83914828
vn -0.38312182 0.91609931 -0.11823623
vn -0.40324086 0.59530360 0.69498950
vn -0.11550356 -0.17845102 0.97714591
vn 0.25856566 -0.81353617 0.52086711
vn 0.55102342 -0.78111762 -0.29364693
vn 0.37319669 -0.20128687 -0.90565324
vn -0.08292741 0.53105718 -0.84326822
vn -0.47873294 0.86614949 -0.14352636
vn -0.51121354 0.54082322 0.66796029
vn -0.15318555 -0.19617417 0.96852976
vn 0.31922221 -0.78092200 0.53689665
vn 0.66002017 -0.70633352 -0.25586385
vn 0.45295975 -0.14903045 -0.87898654
vn -0.09184726 0.52188486 -0.84805673
vn -0.57021636 0.80236799 -0.17623523
vn -0.61548817 0.47033751 0.63242155
vn -0.19027334 -0.21977256 0.95681554
vn 0.37684807 -0.73966181 0.55757147
vn 0.76120585 -0.61407858 -0.20850217
vn 0.52790183 -0.08360751 -0.84518021
vn -0.09902238 0.51179427 -0.85338223
vn -0.65474039 0.72409654 -0.21679311
vn -0.71277797 0.38286683 0.58767390
vn -0.22562599 -0.24972232 0.94166428
vn 0.42957503 -0.68945587 0.58319461
vn 0.84983015 -0.50480247 -0.15153660
vn 0.59444553 -0.00503115 -0.80412018
vn -0.10428289 0.50117123 -0.85904163
vn -0.72842234 0.63176769 -0.26508594
vn -0.79849946 0.27868423 0.53360450
vn -0.25763625 -0.28608590 0.92291844
vn 0.47486806 -0.63075984 0.61371195
vn 0.92052245 -0.38109294 -0.08606132
vn 0.64841527 0.08510032 -0.75651550
vn -0.10757514 0.49050203 -0.86477470
vn -0.78688854 0.52758938 -0.32008731
vn -0.86739302 0.16014798 0.47114965
vn -0.28439331 -0.32822755 0.90077025
vn 0.50995141 -0.56520897 0.64845073
vn 0.96865112 -0.24799991 -0.01453035
vn 0.68604439 0.18325675 -0.70410234
vn -0.10901036 0.48029530 -0.87030637
vn -0.82638431 0.41583267 -0.37970001
vn -0.91483027 0.03207497 0.40256277
vn -0.30408198 -0.37464482 0.87588555
vn 0.53258675 -0.49571878 0.68601322
vn 0.99187917 -0.11240925 0.05949719
vn 0.70520389 0.28434962 -0.64948660
vn -0.10884921 0.47098425 -0.87540025
vn -0.84506702 0.30231321 -0.44098580
vn -0.93836433 -0.09884296 0.33121356
vn -0.31549922 -0.42309356 0.84938329
vn 0.54191041 -0.42604908 0.72444135
vn 0.99106210 0.01847087 0.13211630
vn 0.70619047 0.38284254 -0.59558934
vn -0.10744851 0.46285009 -0.87990040
vn -0.84375858 0.19308755 -0.50078803
vn -0.93865460 -0.22555043 0.26087272
vn -0.31844237 -0.47103310 0.82263136
vn 0.53881294 -0.35991654 0.76166970
vn 0.96991837 0.13877939 0.19999672
vn 0.69157827 0.47407919 -0.54494798
vn -0.10518146 0.45600823 -0.88373822
vn -0.82565284 0.09301742 -0.55645776
vn -0.91917193 -0.34229872 0.19481952
vn -0.31374791 -0.51619565 0.79693431
vn 0.52561963 -0.30012673 0.79602009
vn 0.93391800 0.24387728 0.26138288
vn 0.66506696 0.55491722 -0.49975276
vn -0.10375226 0.44984004 -0.88706225
vn -0.79582649 0.00342036 -0.60551500
vn -0.88442177 -0.44650847 0.13575077
vn -0.30344784 -0.55714172 0.77298939
vn 0.50423717 -0.24920154 0.82682741
vn 0.88464248 0.19835052 0.42197707
vn 0.74440026 0.57028615 -0.34733546
vn 0.04511746 0.51430577 -0.85641932
vn -0.68881154 0.07047605 -0.72150660
vn -0.90330362 -0.42690468 -0.04236775
vn -0.43605998 -0.60195476 0.66895610
vn 0.36035058 -0.32295299 0.87512785
vn -0.16312422 0.89463609 0.41595274
vn -0.16312547 0.89463645 0.41595179
vn -0.16312397 0.89463592 0.41595334
vn -0.16312376 0.89463621 0.41595271
vn -0.16312419 0.89463639 0.41595215
vn -0.16312461 0.89463586 0.41595313
vn -0.16312534 0.89463538 0.41595405
vn -0.39699531 0.79589754 0.45710149
vn -0.39699546 0.79589742 0.45710164
vn -0.39699534 0.79589754 0.45710155
vn -0.39699525 0.79589754 0.45710149
vn -0.39699522 0.79589754 0.45710155
vn -0.39699531 0.79589754 0.45710152
vn -0.39699560 0.79589766 0.45710111
vn -0.88187361 -0.45250025 -0.13244779
vn -0.67005211 0.14028752 -0.72893727
vn 0.04668832 0.62778056 -0.77698886
vn 0.72844672 0.64192092 -0.23938030
vn 0.86095613 0.17217751 0.47865379
vn 0.34455401 -0.42733407 0.83586371
vn -0.43086311 -0.70493656 0.56340164
vn -0.82372355 -0.56657785 -0.02165664
vn -0.74625552 0.00758436 -0.66561639
vn -0.10824466 0.57608640 -0.81018978
vn 0.61227399 0.71132278 -0.34516722
vn 0.87114799 0.30950010 0.38119656
vn 0.47156850 -0.32618776 0.81928301
vn -0.28280395 -0.71544498 0.63887429
vn -0.77327627 -0.62984633 -0.07305805
vn -0.71299165 -0.03637190 -0.70022851
vn -0.11716424 0.58496445 -0.80255163
vn 0.56810534 0.76637483 -0.29987654
vn 0.82413620 0.36825123 0.43033767
vn 0.45675245 -0.30823785 0.83448589
vn -0.25405756 -0.75136757 0.60901684
vn -0.71320039 -0.68963927 -0.12547074
vn -0.67269754 -0.07754116 -0.73584336
vn -0.12700780 0.59340882 -0.79481763
vn 0.51554734 0.81820798 -0.25445357
vn 0.76843369 0.42404637 0.47926438
vn 0.43982780 -0.29077601 0.84970629
vn -0.21945339 -0.78520250 0.57904857
vn -0.64398170 -0.74420989 -0.17731115
vn -0.62613809 -0.11523777 -0.77114940
vn -0.13814513 0.60096151 -0.78724915
vn 0.45506802 0.86545169 -0.20953865
vn 0.70420831 0.47501644 0.52768362
vn 0.42028835 -0.27473491 0.86479962
vn -0.17961444 -0.81598842 0.54945564
vn -0.56650388 -0.79205519 -0.22742471
vn -0.57390213 -0.14842679 -0.80536067
vn -0.15042947 0.60741299 -0.78001308
vn 0.38744056 0.90680158 -0.16613448
vn 0.63228142 0.51976305 0.57451421
vn 0.39838332 -0.26053894 0.87943745
vn -0.13505319 -0.84286386 0.52090418
vn -0.48199278 -0.83198202 -0.27475226
vn -0.51681840 -0.17628503 -0.83774835
vn -0.16367540 0.61260068 -0.77325988
vn 0.31373021 0.94122612 -0.12516615
vn 0.55379325 0.55717564 0.61876351
vn 0.37445918 -0.24852721 0.89331657
vn -0.08647589 -0.86514872 0.49400374
vn -0.39184597 -0.86317480 -0.31841165
vn -0.45584115 -0.19824439 -0.86770266
vn -0.17768143 0.61641520 -0.76711255
vn 0.23515029 0.96802104 -0.08740412
vn 0.47004771 0.58649564 0.65960449
vn 0.34891304 -0.23893745 0.90618360
vn -0.03468716 -0.88238150 0.46925434
vn -0.29744357 -0.88518101 -0.35774562
vn -0.39191988 -0.21399474 -0.89476532
vn -0.19225629 0.61879516 -0.76166272
vn 0.15289733 0.98679709 -0.05342294
vn 0.38233620 0.60729891 0.69642442
vn 0.32214278 -0.23190768 0.91784686
vn 0.01952242 -0.89431047 0.44702089
vn -0.19999041 -0.89782315 -0.39232308
vn -0.32588646 -0.22342041 -0.91863012
vn -0.20723921 0.61970705 -0.75697756
vn 0.06801118 0.99740523 -0.02360857
vn 0.29178378 0.61942083 0.72882104
vn 0.29449779 -0.22749931 0.92817843
vn 0.07546882 -0.90084070 0.42754000
vn -0.10040455 -0.90107286 -0.42188475
vn -0.25837848 -0.22651355 -0.93911237
vn -0.22250985 0.61913621 -0.75310004
vn -0.01871728 0.99982321 0.00180338
vn 0.19925106 0.62283653 0.75655383
vn 0.26625264 -0.22572938 0.93709958
vn 0.13263775 -0.90195763 0.41094962
vn 0.00072479 -0.89490199 -0.44626218
vn -0.18980770 -0.22327334 -0.95609730
vn -0.23798802 0.61705685 -0.75006837
vn -0.10677688 0.99402481 0.02266030
vn 0.10529587 0.61751837 0.77947658
vn 0.23759441 -0.22661144 0.94456136
vn 0.19070388 -0.89764196 0.39732972
vn 0.10310146 -0.87912953 -0.46529719
vn -0.12037694 -0.21360211 -0.96947592
vn -0.25362915 0.61341858 -0.74792373
vn -0.19591239 0.97985303 0.03881061
vn 0.01019915 0.60330510 0.79744518
vn 0.20862862 -0.23019542 0.95051783
vn 0.24951427 -0.88778174 0.38676393
vn 0.20663972 -0.85329795 -0.47873017
vn -0.05013959 -0.19721538 -0.97907716
vn -0.26940596 0.60812873 -0.74672616
vn -0.28604683 0.95690942 0.05001596
vn -0.08595450 0.57977504 0.81023002
vn 0.17940375 -0.23660064 0.95490026
vn 0.30903807 -0.87209672 0.37939814
vn 0.31131065 -0.81657261 -0.48610172
vn 0.02090040 -0.17357017 -0.98459965
vn -0.28528458 0.60104275 -0.74656570
vn -0.37714484 0.92446780 0.05586719
vn -0.18313351 0.54616004 0.81741738
vn 0.14995062 -0.24604572 0.95758873
vn 0.36927170 -0.85008383 0.37549436
vn 0.41691020 -0.76768702 -0.48666471
vn 0.09263487 -0.14182581 -0.98554760
vn -0.30118778 0.59196323 -0.74757314
vn -0.46901804 0.88142961 0.05571316
vn -0.28115249 0.50129098 0.81832802
vn 0.12034369 -0.25885981 0.95838875
vn 0.43010661 -0.82098281 0.37549388
vn 0.52274364 -0.70498091 -0.47931296
vn 0.16463538 -0.10085643 -0.98118454
vn -0.31695136 0.58065712 -0.74991947
vn -0.56104827 0.82635504 0.04860051
vn -0.37937698 0.44362584 0.81195402
vn 0.09078090 -0.27547380 0.95701259
vn 0.49113622 -0.78380072 0.38005498
vn 0.62720996 -0.62659758 -0.46258318
vn 0.23586987 -0.04937025 -0.97052974
vn -0.33227244 0.56689829 -0.75380450
vn -0.65183461 0.75763023 0.03328755
vn -0.47634396 0.37142694 0.79695576
vn 0.06168437 -0.29636514 0.95308065
vn 0.55140591 -0.73743320 0.39005607
vn 0.72735637 -0.53094780 -0.43479559
vn 0.30438703 0.01379192 -0.95244861
vn -0.34666720 0.55054510 -0.75942212
vn -0.73881167 0.67385989 0.00837485
vn -0.56935000 0.28318563 0.77178133
vn 0.03380430 -0.32194123 0.94615597
vn 0.60914093 -0.68094897 0.40651658
vn 0.81859803 -0.41751510 -0.39443418
vn 0.36710247 0.08911976 -0.92590141
vn -0.35946643 0.53165239 -0.76689607
vn -0.81800675 0.57455671 -0.02737783
vn -0.65418315 0.17836304 0.73500401
vn 0.00828032 -0.35234037 0.93583536
vn 0.66157597 -0.61408389 0.43036976
vn 0.89497256 -0.28788948 -0.34079868
vn 0.41993597 0.17571156 -0.89038152
vn -0.36987588 0.51058692 -0.77620405
vn -0.88424069 0.46105054 -0.07450349
vn -0.72533715 0.05837713 0.68591416
vn -0.01342411 -0.38717487 0.92190856
vn 0.70512092 -0.53787315 0.46205753
vn 0.95027149 -0.14657502 -0.27477235
vn 0.45856255 0.27066562 -0.84643996
vn -0.37712803 0.48809364 -0.78710794
vn -0.93209136 0.33723924 -0.13219503
vn -0.77704906 -0.07260651 0.62523842
vn -0.02977313 -0.42533714 0.90454513
vn 0.73607647 -0.45512387 0.50105262
vn 0.97994751 -0.00084406 -0.19925404
vn 0.47973511 0.36910307 -0.79600078
vn -0.38069370 0.46524104 -0.79913896
vn -0.95756096 0.20951620 -0.19793926
vn -0.80508476 -0.20777602 0.55557871
vn -0.03958256 -0.46501729 0.88441628
vn 0.75182104 -0.37027037 0.54558676
vn 0.98289120 0.14075594 -0.11879677
vn 0.48257169 0.46514872 -0.74213290
vn -0.38046265 0.44322428 -0.81166524
vn -0.95967203 0.08545311 -0.26781988
vn -0.80841047 -0.33911496 0.48111707
vn -0.04244446 -0.50402838 0.86264348
vn 0.75186461 -0.28839803 0.59289646
vn 0.96190751 0.27065554 -0.03846496
vn 0.46894285 0.55351126 -0.68827170
vn -0.37680408 0.42309275 -0.82402134
vn -0.94090235 -0.02824483 -0.33749795
vn -0.78962135 -0.45957193 0.40656081
vn -0.03887560 -0.54034632 0.84054416
vn 0.73805475 -0.21386597 0.63995045
vn 0.92256939 0.38400733 0.03747083
vn 0.44268396 0.63075274 -0.63732404
vn -0.37044895 0.40553156 -0.83565050
vn -0.90615684 -0.12732410 -0.40332156
vn -0.75385189 -0.56468344 0.33591649
vn -0.03012357 -0.57255793 0.81931072
vn 0.71381027 -0.14932002 0.68423563
vn 0.87170303 0.47832087 0.10650323
vn 0.40796226 0.69544089 -0.59154773
vn -0.36317894 0.39003614 -0.84615177
vn -0.86106622 -0.21159559 -0.46237680
vn -0.70645130 -0.65341115 0.27199337
vn -0.01830321 -0.60029405 0.79956990
vn 0.68236607 -0.09668127 0.72458905
vn 0.86251020 0.42615789 0.27288398
vn 0.50747526 0.73112106 -0.45599434
vn -0.22916292 0.48690441 -0.84285730
vn -0.79366720 -0.12469537 -0.59543556
vn -0.75964636 -0.64244699 0.10099098
vn -0.15258189 -0.67549157 0.72140831
vn 0.56968051 -0.19920461 0.79735917
vn -0.44570062 0.70918232 0.54627031
vn -0.44569999 0.70918167 0.54627186
vn -0.44569963 0.70918161 0.54627216
vn -0.44570041 0.70918226 0.54627079
vn -0.44570112 0.70918292 0.54626936
vn -0.44570124 0.70918286 0.54626930
vn -0.44570145 0.70918238 0.54626977
vn -0.50476378 0.68091249 0.53063333
vn -0.50476474 0.68091202 0.53063291
vn -0.50476414 0.68091321 0.53063202
vn -0.50476384 0.68091309 0.53063244
vn -0.50476360 0.68091220 0.53063387
vn -0.50476319 0.68091178 0.53063476
vn -0.50476325 0.68091178 0.53063470
f 1//1 2//2 9//9
f 1//1 9//9 8//8
f 2//2 3//3 10//10
f 2//2 10//10 9//9
f 3//3 4//4 11//11
f 3//3 11//11 10//10
f 4//4 5//5 12//12
f 4//4 12//12 11//11
f 5//5 6//6 13//13
f 5//5 13//13 12//12
f 6//6 7//7 14//14
f 6//6 14//14 13//13
f 7//7 1//1 8//8
f 7//7 8//8 14//14
f 8//8 9//9 16//16
f 8//8 16//16 15//15
f 9//9 10//10 17//17
f 9//9 17//17 16//16
f 10//10 11//11 18//18
f 10//10 18//18 17//17
f 11//11 12//12 19//19
f 11//11 19//19 18//18
f 12//12 13//13 20//20
f 12//12 20//20 19//19
f 13//13 14//14 21//21
f 13//13 21//21 20//20
f 14//14 8//8 15//15
f 14//14 15//15 21//21
f 15//15 16//16 23//23
f 15//15 23//23 22//22
f 16//16 17//17 24//24
f 16//16 24//24 23//23
f 17//17 18//18 25//25
f 17//17 25//25 24//24
f 18//18 19//19 26//26
f 18//18 26//26 25//25
f 19//19 20//20 27//27
f 19//19 27//27 26//26
f 20//20 21//21 28//28
f 20//20 28//28 27//27
f 21//21 15//15 22//22
f 21//21 22//22 28//28
f 22//22 23//23 30//30
f 22//22 30//30 29//29
f 23//23 24//24 31//31
f 23//23 31//31 30//30
f 24//24 25//25 32//32
f 24//24 32//32 31//31
f 25//25 26//26 33//33
f 25//25 33//33 32//32
f 26//26 27//27 34//34
f 26//26 34//34 33//33
f 27//27 28//28 35//35
f 27//27 35//35 34//34
f 28//28 22//22 29//29
f 28//28 29//29 35//35
f 29//29 30//30 37//37
f 29//29 37//37 36//36
f 30//30 31//31 38//38
f 30//30 38//38 37//37
f 31//31 32//32 39//39
f 31//31 39//39 38//38
f 32//32 33//33 40//40
f 32//32 40//40 39//39
f 33//33 34//34 41//41
f 33//33 41//41 40//40
f 34//34 35//35 42//42
f 34//34 42//42 41//41
f 35//35 29//29 36//36
f 35//35 36//36 42//42
f 36//36 37//37 44//44
f 36//36 44//44 43//43
f 37//37 38//38 45//45
f 37//37 45//45 44//44
f 38//38 39//39 46//46
f 38//38 46//46 45//45
f 39//39 40//40 47//47
f 39//39 47//47 46//46
f 40//40 41//41 48//48
f 40//40 48//48 47//47
f 41//41 42//42 49//49
f 41//41 49//49 48//48
f 42//42 36//36 43//43
f 42//42 43//43 49//49
f 43//43 44//44 51//51
f 43//43 51//51 50//50
f 44//44 45//45 52//52
f 44//44 52//52 51//51
f 45//45 46//46 53//53
f 45//45 53//53 52//52
f 46//46 47//47 54//54
f 46//46 54//54 53//53
f 47//47 48//48 55//55
f 47//47 55//55 54//54
f 48//48 49//49 56//56
f 48//48 56//56 55//55
f 49//49 43//43 50//50
f 49//49 50//50 56//56
f 50//50 51//51 58//58
f 50//50 58//58 57//57
f 51//51 52//52 59//59
f 51//51 59//59 58//58
f 52//52 53//53 60//60
f 52//52 60//60 59//59
f 53//53 54//54 61//61
f 53//53 61//61 60//60
f 54//54 55//55 62//62
f 54//54 62//62 61//61
f 55//55 56//56 63//63
f 55//55 63//63 62//62
f 56//56 50//50 57//57
f 56//56 57//57 63//63
f 57//57 58//58 65//65
f 57//57 65//65 64//64
f 58//58 59//59 66//66
f 58//58 66//66 65//65
f 59//59 60//60 67//67
f 59//59 67//67 66//66
f 60//60 61//61 68//68
f 60//60 68//68 67//67
f 61//61 62//62 69//69
f 61//61 69//69 68//68
f 62//62 63//63 70//70
f 62//62 70//70 69//69
f 63//63 57//57 64//64
f 63//63 64//64 70//70
f 64//64 65//65 72//72
f 64//64 72//72 71//71
f 65//65 66//66 73//73
f 65//65 73//73 72//72
f 66//66 67//67 74//74
f 66//66 74//74 73//73
f 67//67 68//68 75//75
f 67//67 75//75 74//74
f 68//68 69//69 76//76
f 68//68 76//76 75//75
f 69//69 70//70 77//77
f 69//69 77//77 76//76
f 70//70 64//64 71//71
f 70//70 71//71 77//77
f 71//71 72//72 79//79
f 71//71 79//79 78//78
f 72//72 73//73 80//80
f 72//72 80//80 79//79
f 73//73 74//74 81//81
f 73//73 81//81 80//80
f 74//74 75//75 82//82
f 74//74 82//82 81//81
f 75//75 76//76 83//83
f 75//75 83//83 82//82
f 76//76 77//77 84//84
f 76//76 84//84 83//83
f 77//77 71//71 78//78
f 77//77 78//78 84//84
f 78//78 79//79 86//86
f 78//78 86//86 85//85
f 79//79 80//80 87//87
f 79//79 87//87 86//86
f 80//80 81//81 88//88
f 80//80 88//88 87//87
f 81//81 82//82 89//89
f 81//81 89//89 88//88
f 82//82 83//83 90//90
f 82//82 90//90 89//89
f 83//83 84//84 91//91
f 83//83 91//91 90//90
f 84//84 78//78 85//85
f 84//84 85//85 91//91
f 85//85 86//86 93//93
f 85//85 93//93 92//92
f 86//86 87//87 94//94
f 86//86 94//94 93//93
f 87//87 88//88 95//95
f 87//87 95//95 94//94
f 88//88 89//89 96//96
f 88//88 96//96 95//95
f 89//89 90//90 97//97
f 89//89 97//97 96//96
f 90//90 91//91 98//98
f 90//90 98//98 97//97
f 91//91 85//85 92//92
f 91//91 92//92 98//98
f 92//92 93//93 100//100
f 92//92 100//100 99//99
f 93//93 94//94 101//101
f 93//93 101//101 100//100
f 94//94 95//95 102//102
f 94//94 102//102 101//101
f 95//95 96//96 103//103
f 95//95 103//103 102//102
f 96//96 97//97 104//104
f 96//96 104//104 103//103
f 97//97 98//98 105//105
f 97//97 105//105 104//104
f 98//98 92//92 99//99
f 98//98 99//99 105//105
f 99//99 100//100 107//107
f 99//99 107//107 106//106
f 100//100 101//101 108//108
f 100//100 108//108 107//107
f 101//101 102//102 109//109
f 101//101 109//109 108//108
f 102//102 103//103 110//110
f 102//102 110//110 109//109
f 103//103 104//104 111//111
f 103//103 111//111 110//110
f 104//104 105//105 112//112
f 104//104 112//112 111//111
f 105//105 99//99 106//106
f 105//105 106//106 112//112
f 106//106 107//107 114//114
f 106//106 114//114 113//113
f 107//107 108//108 115//115
f 107//107 115//115 114//114
f 108//108 109//109 116//116
f 108//108 116//116 115//115
f 109//109 110//110 117//117
f 109//109 117//117 116//116
f 110//110 111//111 118//118
f 110//110 118//118 117//117
f 111//111 112//112 119//119
f 111//111 119//119 118//118
f 112//112 106//106 113//113
f 112//112 113//113 119//119
f 113//113 114//114 121//121
f 113//113 121//121 120//120
f 114//114 115//115 122//122
f 114//114 122//122 121//121
f 115//115 116//116 123//123
f 115//115 123//123 122//122
f 116//116 117//117 124//124
f 116//116 124//124 123//123
f 117//117 118//118 125//125
f 117//117 125//125 124//124
f 118//118 119//119 126//126
f 118//118 126//126 125//125
f 119//119 113//113 120//120
f 119//119 120//120 126//126
f 120//120 121//121 128//128
f 120//120 128//128 127//127
f 121//121 122//122 129//129
f 121//121 129//129 128//128
f 122//122 123//123 130//130
f 122//122 130//130 129//129
f 123//123 124//124 131//131
f 123//123 131//131 130//130
f 124//124 125//125 132//132
f 124//124 132//132 131//131
f 125//125 126//126 133//133
f 125//125 133//133 132//132
f 126//126 120//120 127//127
f 126//126 127//127 133//133
f 127//127 128//128 135//135
f 127//127 135//135 134//134
f 128//128 129//129 136//136
f 128//128 136//136 135//135
f 129//129 130//130 137//137
f 129//129 137//137 136//136
f 130//130 131//131 138//138
f 130//130 138//138 137//137
f 131//131 132//132 139//139
f 131//131 139//139 138//138
f 132//132 133//133 140//140
f 132//132 140//140 139//139
f 133//133 127//127 134//134
f 133//133 134//134 140//140
f 134//134 135//135 142//142
f 134//134 142//142 141//141
f 135//135 136//136 143//143
f 135//135 143//143 142//142
f 136//136 137//137 144//144
f 136//136 144//144 143//143
f 137//137 138//138 145//145
f 137//137 145//145 144//144
f 138//138 139//139 146//146
f 138//138 146//146 145//145
f 139//139 140//140 147//147
f 139//139 147//147 146//146
f 140//140 134//134 141//141
f 140//140 141//141 147//147
f 141//141 142//142 149//149
f 141//141 149//149 148//148
f 142//142 143//143 150//150
f 142//142 150//150 149//149
f 143//143 144//144 151//151
f 143//143 151//151 150//150
f 144//144 145//145 152//152
f 144//144 152//152 151//151
f 145//145 146//146 153//153
f 145//145 153//153 152//152
f 146//146 147//147 154//154
f 146//146 154//154 153//153
f 147//147 141//141 148//148
f 147//147 148//148 154//154
f 148//148 149//149 156//156
f 148//148 156//156 155//155
f 149//149 150//150 157//157
f 149//149 157//157 156//156
f 150//150 151//151 158//158
f 150//150 158//158 157//157
f 151//151 152//152 159//159
f 151//151 159//159 158//158
f 152//152 153//153 160//160
f 152//152 160//160 159//159
f 153//153 154//154 161//161
f 153//153 161//161 160//160
f 154//154 148//148 155//155
f 154//154 155//155 161//161
f 155//155 156//156 163//163
f 155//155 163//163 162//162
f 156//156 157//157 164//164
f 156//156 164//164 163//163
f 157//157 158//158 165//165
f 157//157 165//165 164//164
f 158//158 159//159 166//166
f 158//158 166//166 165//165
f 159//159 160//160 167//167
f 159//159 167//167 166//166
f 160//160 161//161 168//168
f 160//160 168//168 167//167
f 161//161 155//155 162//162
f 161//161 162//162 168//168
f 162//162 163//163 170//170
f 162//162 170//170 169//169
f 163//163 164//164 171//171
f 163//163 171//171 170//170
f 164//164 165//165 172//172
f 164//164 172//172 171//171
f 165//165 166//166 173//173
f 165//165 173//173 172//172
f 166//166 167//167 174//174
f 166//166 174//174 173//173
f 167//167 168//168 175//175
f 167//167 175//175 174//174
f 168//168 162//162 169//169
f 168//168 169//169 175//175
f 169//169 170//170 177//177
f 169//169 177//177 176//176
f 170//170 171//171 178//178
f 170//170 178//178 177//177
f 171//171 172//172 179//179
f 171//171 179//179 178//178
f 172//172 173//173 180//180
f 172//172 180//180 179//179
f 173//173 174//174 181//181
f 173//173 181//181 180//180
f 174//174 175//175 182//182
f 174//174 182//182 181//181
f 175//175 169//169 176//176
f 175//175 176//176 182//182
f 176//176 177//177 184//184
f 176//176 184//184 183//183
f 177//177 178//178 185//185
f 177//177 185//185 184//184
f 178//178 179//179 186//186
f 178//178 186//186 185//185
f 179//179 180//180 187//187
f 179//179 187//187 186//186
f 180//180 181//181 188//188
f 180//180 188//188 187//187
f 181//181 182//182 189//189
f 181//181 189//189 188//188
f 182//182 176//176 183//183
f 182//182 183//183 189//189
f 183//183 184//184 191//191
f 183//183 191//191 190//190
f 184//184 185//185 192//192
f 184//184 192//192 191//191
f 185//185 186//186 193//193
f 185//185 193//193 192//192
f 186//186 187//187 194//194
f 186//186 194//194 193//193
f 187//187 188//188 195//195
f 187//187 195//195 194//194
f 188//188 189//189 196//196
f 188//188 196//196 195//195
f 189//189 183//183 190//190
f 189//189 190//190 196//196
f 199//199 198//198 197//197
f 200//200 199//199 197//197
f 201//201 200//200 197//197
f 202//202 201//201 197//197
f 203//203 202//202 197//197
f 204//204 205//205 206//206
f 204//204 206//206 207//207
f 204//204 207//207 208//208
f 204//204 208//208 209//209
f 204//204 209//209 210//210
f 211//211 212//212 219//219
f 211//211 219//219 218//218
f 212//212 213//213 220//220
f 212//212 220//220 219//219
f 213//213 214//214 221//221
f 213//213 221//221 220//220
f 214//214 215//215 222//222
f 214//214 222//222 221//221
f 215//215 216//216 223//223
f 215//215 223//223 222//222
f 216//216 217//217 224//224
f 216//216 224//224 223//223
f 217//217 211//211 218//218
f 217//217 218//218 224//224
f 218//218 219//219 226//226
f 218//218 226//226 225//225
f 219//219 220//220 227//227
f 219//219 227//227 226//226
f 220//220 221//221 228//228
f 220//220 228//228 227//227
f 221//221 222//222 229//229
f 221//221 229//229 228//228
f 222//222 223//223 230//230
f 222//222 230//230 229//229
f 223//223 224//224 231//231
f 223//223 231//231 230//230
f 224//224 218//218 225//225
f 224//224 225//225 231//231
f 225//225 226//226 233//233
f 225//225 233//233 232//232
f 226//226 227//227 234//234
f 226//226 234//234 233//233
f 227//227 228//228 235//235
f 227//227 235//235 234//234
f 228//228 229//229 236//236
f 228//228 236//236 235//235
f 229//229 230//230 237//237
f 229//229 237//237 236//236
f 230//230 231//231 238//238
f 230//230 238//238 237//237
f 231//231 225//225 232//232
f 231//231 232//232 238//238
f 232//232 233//233 240//240
f 232//232 240//240 239//239
f 233//233 234//234 241//241
f 233//233 241//241 240//240
f 234//234 235//235 242//242
f 234//234 242//242 241//241
f 235//235 236//236 243//243
f 235//235 243//243 242//242
f 236//236 237//237 244//244
f 236//236 244//244 243//243
f 237//237 238//238 245//245
f 237//237 245//245 244//244
f 238//238 232//232 239//239
f 238//238 239//239 245//245
f 239//239 240//240 247//247
f 239//239 247//247 246//246
f 240//240 241//241 248//248
f 240//240 248//248 247//247
f 241//241 242//242 249//249
f 241//241 249//249 248//248
f 242//242 243//243 250//250
f 242//242 250//250 249//249
f 243//243 244//244 251//251
f 243//243 251//251 250//250
f 244//244 245//245 252//252
f 244//244 252//252 251//251
f 245//245 239//239 246//246
f 245//245 246//246 252//252
f 246//246 247//247 254//254
f 246//246 254//254 253//253
f 247//247 248//248 255//255
f 247//247 255//255 254//254
f 248//248 249//249 256//256
f 248//248 256//256 255//255
f 249//249 250//250 257//257
f 249//249 257//257 256//256
f 250//250 251//251 258//258
f 250//250 258//258 257//257
f 251//251 252//252 259//259
f 251//251 259//259 258//258
f 252//252 246//246 253//253
f 252//252 253//253 259//259
f 253//253 254//254 261//261
f 253//253 261//261 260//260
f 254//254 255//255 262//262
f 254//254 262//262 261//261
f 255//255 256//256 263//263
f 255//255 263//263 262//262
f 256//256 257//257 264//264
f 256//256 264//264 263//263
f 257//257 258//258 265//265
f 257//257 265//265 264//264
f 258//258 259//259 266//266
f 258//258 266//266 265//265
f 259//259 253//253 260//260
f 259//259 260//260 266//266
f 260//260 261//261 268//268
f 260//260 268//268 267//267
f 261//261 262//262 269//269
f 261//261 269//269 268//268
f 262//262 263//263 270//270
f 262//262 270//270 269//269
f 263//263 264//264 271//271
f 263//263 271//271 270//270
f 264//264 265//265 272//272
f 264//264 272//272 271//271
f 265//265 266//266 273//273
f 265//265 273//273 272//272
f 266//266 260//260 267//267
f 266//266 267//267 273//273
f 267//267 268//268 275//275
f 267//267 275//275 274//274
f 268//268 269//269 276//276
f 268//268 276//276 275//275
f 269//269 270//270 277//277
f 269//269 277//277 276//276
f 270//270 271//271 278//278
f 270//270 278//278 277//277
f 271//271 272//272 279//279
f 271//271 279//279 278//278
f 272//272 273//273 280//280
f 272//272 280//280 279//279
f 273//273 267//267 274//274
f 273//273 274//274 280//280
f 274//274 275//275 282//282
f 274//274 282//282 281//281
f 275//275 276//276 283//283
f 275//275 283//283 282//282
f 276//276 277//277 284//284
f 276//276 284//284 283//283
f 277//277 278//278 285//285
f 277//277 285//285 284//284
f 278//278 279//279 286//286
f 278//278 286//286 285//285
f 279//279 280//280 287//287
f 279//279 287//287 286//286
f 280//280 274//274 281//281
f 280//280 281//281 287//287
f 281//281 282//282 289//289
f 281//281 289//289 288//288
f 282//282 283//283 290//290
f 282//282 290//290 289//289
f 283//283 284//284 291//291
f 283//283 291//291 290//290
f 284//284 285//285 292//292
f 284//284 292//292 291//291
f 285//285 286//286 293//293
f 285//285 293//293 292//292
f 286//286 287//287 294//294
f 286//286 294//294 293//293
f 287//287 281//281 288//288
f 287//287 288//288 294//294
f 288//288 289//289 296//296
f 288//288 296//296 295//295
f 289//289 290//290 297//297
f 289//289 297//297 296//296
f 290//290 291//291 298//298
f 290//290 298//298 297//297
f 291//291 292//292 299//299
f 291//291 299//299 298//298
f 292//292 293//293 300//300
f 292//292 300//300 299//299
f 293//293 294//294 301//301
f 293//293 301//301 300//300
f 294//294 288//288 295//295
f 294//294 295//295 301//301
f 295//295 296//296 303//303
f 295//295 303//303 302//302
f 296//296 297//297 304//304
f 296//296 304//304 303//303
f 297//297 298//298 305//305
f 297//297 305//305 304//304
f 298//298 299//299 306//306
f 298//298 306//306 305//305
f 299//299 300//300 307//307
f 299//299 307//307 306//306
f 300//300 301//301 308//308
f 300//300 308//308 307//307
f 301//301 295//295 302//302
f 301//301 302//302 308//308
f 302//302 303//303 310//310
f 302//302 310//310 309//309
f 303//303 304//304 311//311
f 303//303 311//311 310//310
f 304//304 305//305 312//312
f 304//304 312//312 311//311
f 305//305 306//306 313//313
f 305//305 313//313 312//312
f 306//306 307//307 314//314
f 306//306 314//314 313//313
f 307//307 308//308 315//315
f 307//307 315//315 314//314
f 308//308 302//302 309//309
f 308//308 309//309 315//315
f 309//309 310//310 317//317
f 309//309 317//317 316//316
f 310//310 311//311 318//318
f 310//310 318//318 317//317
f 311//311 312//312 319//319
f 311//311 319//319 318//318
f 312//312 313//313 320//320
f 312//312 320//320 319//319
f 313//313 314//314 321//321
f 313//313 321//321 320//320
f 314//314 315//315 322//322
f 314//314 322//322 321//321
f 315//315 309//309 316//316
f 315//315 316//316 322//322
f 316//316 317//317 324//324
f 316//316 324//324 323//323
f 317//317 318//318 325//325
f 317//317 325//325 324//324
f 318//318 319//319 326//326
f 318//318 326//326 325//325
f 319//319 320//320 327//327
f 319//319 327//327 326//326
f 320//320 321//321 328//328
f 320//320 328//328 327//327
f 321//321 322//322 329//329
f 321//321 329//329 328//328
f 322//322 316//316 323//323
f 322//322 323//323 329//329
f 323//323 324//324 331//331
f 323//323 331//331 330//330
f 324//324 325//325 332//332
f 324//324 332//332 331//331
f 325//325 326//326 333//333
f 325//325 333//333 332//332
f 326//326 327//327 334//334
f 326//326 334//334 333//333
f 327//327 328//328 335//335
f 327//327 335//335 334//334
f 328//328 329//329 336//336
f 328//328 336//336 335//335
f 329//329 323//323 330//330
f 329//329 330//330 336//336
f 330//330 331//331 338//338
f 330//330 338//338 337//337
f 331//331 332//332 339//339
f 331//331 339//339 338//338
f 332//332 333//333 340//340
f 332//332 340//340 339//339
f 333//333 334//334 341//341
f 333//333 341//341 340//340
f 334//334 335//335 342//342
f 334//334 342//342 341//341
f 335//335 336//336 343//343
f 335//335 343//343 342//342
f 336//336 330//330 337//337
f 336//336 337//337 343//343
f 337//337 338//338 345//345
f 337//337 345//345 344//344
f 338//338 339//339 346//346
f 338//338 346//346 345//345
f 339//339 340//340 347//347
f 339//339 347//347 346//346
f 340//340 341//341 348//348
f 340//340 348//348 347//347
f 341//341 342//342 349//349
f 341//341 349//349 348//348
f 342//342 343//343 350//350
f 342//342 350//350 349//349
f 343//343 337//337 344//344
f 343//343 344//344 350//350
f 344//344 345//345 352//352
f 344//344 352//352 351//351
f 345//345 346//346 353//353
f 345//345 353//353 352//352
f 346//346 347//347 354//354
f 346//346 354//354 353//353
f 347//347 348//348 355//355
f 347//347 355//355 354//354
f 348//348 349//349 356//356
f 348//348 356//356 355//355
f 349//349 350//350 357//357
f 349//349 357//357 356//356
f 350//350 344//344 351//351
f 350//350 351//351 357//357
f 351//351 352//352 359//359
f 351//351 359//359 358//358
f 352//352 353//353 360//360
f 352//352 360//360 359//359
f 353//353 354//354 361//361
f 353//353 361//361 360//360
f 354//354 355//355 362//362
f 354//354 362//362 361//361
f 355//355 356//356 363//363
f 355//355 363//363 362//362
f 356//356 357//357 364//364
f 356//356 364//364 363//363
f 357//357 351//351 358//358
f 357//357 358//358 364//364
f 358//358 359//359 366//366
f 358//358 366//366 365//365
f 359//359 360//360 367//367
f 359//359 367//367 366//366
f 360//360 361//361 368//368
f 360//360 368//368 367//367
f 361//361 362//362 369//369
f 361//361 369//369 368//368
f 362//362 363//363 370//370
f 362//362 370//370 369//369
f 363//363 364//364 371//371
f 363//363 371//371 370//370
f 364//364 358//358 365//365
f 364//364 365//365 371//371
f 365//365 366//366 373//373
f 365//365 373//373 372//372
f 366//366 367//367 374//374
f 366//366 374//374 373//373
f 367//367 368//368 375//375
f 367//367 375//375 374//374
f 368//368 369//369 376//376
f 368//368 376//376 375//375
f 369//369 370//370 377//377
f 369//369 377//377 376//376
f 370//370 371//371 378//378
f 370//370 378//378 377//377
f 371//371 365//365 372//372
f 371//371 372//372 378//378
f 372//372 373//373 380//380
f 372//372 380//380 379//379
f 373//373 374//374 381//381
f 373//373 381//381 380//380
f 374//374 375//375 382//382
f 374//374 382//382 381//381
f 375//375 376//376 383//383
f 375//375 383//383 382//382
f 376//376 377//377 384//384
f 376//376 384//384 383//383
f 377//377 378//378 385//385
f 377//377 385//385 384//384
f 378//378 372//372 379//379
f 378//378 379//379 385//385
f 379//379 380//380 387//387
f 379//379 387//387 386//386
f 380//380 381//381 388//388
f 380//380 388//388 387//387
f 381//381 382//382 389//389
f 381//381 389//389 388//388
f 382//382 383//383 390//390
f 382//382 390//390 389//389
f 383//383 384//384 391//391
f 383//383 391//391 390//390
f 384//384 385//385 392//392
f 384//384 392//392 391//391
f 385//385 379//379 386//386
f 385//385 386//386 392//392
f 386//386 387//387 394//394
f 386//386 394//394 393//393
f 387//387 388//388 395//395
f 387//387 395//395 394//394
f 388//388 389//389 396//396
f 388//388 396//396 395//395
f 389//389 390//390 397//397
f 389//389 397//397 396//396
f 390//390 391//391 398//398
f 390//390 398//398 397//397
f 391//391 392//392 399//399
f 391//391 399//399 398//398
f 392//392 386//386 393//393
f 392//392 393//393 399//399
f 393//393 394//394 401//401
f 393//393 401//401 400//400
f 394//394 395//395 402//402
f 394//394 402//402 401//401
f 395//395 396//396 403//403
f 395//395 403//403 402//402
f 396//396 397//397 404//404
f 396//396 404//404 403//403
f 397//397 398//398 405//405
f 397//397 405//405 404//404
f 398//398 399//399 406//406
f 398//398 406//406 405//405
f 399//399 393//393 400//400
f 399//399 400//400 406//406
f 409//409 408//408 407//407
f 410//410 409//409 407//407
f 411//411 410//410 407//407
f 412//412 411//411 407//407
f 413//413 412//412 407//407
f 414//414 415//415 416//416
f 414//414 416//416 417//417
f 414//414 417//417 418//418
f 414//414 418//418 419//419
f 414//414 419//419 420//420
