mtllib vehicle.mtl
o base_chip
usemtl chip
v -0.04100000 -0.01000000 0.05400000
v -0.02300000 -0.01000000 0.05400000
v -0.02300000 0.01000000 0.05400000
v -0.04100000 0.01000000 0.05400000
v -0.04100000 -0.01000000 0.05800000
v -0.02300000 -0.01000000 0.05800000
v -0.02300000 0.01000000 0.05800000
v -0.04100000 0.01000000 0.05800000
v -0.05100000 -0.03760000 0.04800000
v -0.04300000 -0.03760000 0.04800000
v -0.04300000 -0.03680000 0.04800000
v -0.05100000 -0.03680000 0.04800000
v -0.05100000 -0.03760000 0.05300000
v -0.04300000 -0.03760000 0.05300000
v -0.04300000 -0.03680000 0.05300000
v -0.05100000 -0.03680000 0.05300000
v -0.03500000 -0.03760000 0.04800000
v -0.02700000 -0.03760000 0.04800000
v -0.02700000 -0.03680000 0.04800000
v -0.03500000 -0.03680000 0.04800000
v -0.03500000 -0.03760000 0.05300000
v -0.02700000 -0.03760000 0.05300000
v -0.02700000 -0.03680000 0.05300000
v -0.03500000 -0.03680000 0.05300000
v -0.02300000 -0.00400000 0.04000000
v 0.00500000 -0.00400000 0.04000000
v 0.00500000 0.02400000 0.04000000
v -0.02300000 0.02400000 0.04000000
v -0.02300000 -0.00400000 0.04600000
v 0.00500000 -0.00400000 0.04600000
v 0.00500000 0.02400000 0.04600000
v -0.02300000 0.02400000 0.04600000
vn -0.20207162 -0.36372894 -0.90932298
vn 0.21590401 -0.09715682 -0.97156882
vn 0.20207162 0.36372894 -0.90932298
vn -0.21590401 0.09715682 -0.97156882
vn -0.39952061 -0.17978428 0.89892203
vn 0.10831234 -0.19496223 0.97481179
vn 0.39952061 0.17978428 0.89892203
vn -0.10831234 0.19496223 0.97481179
vn -0.04977890 -0.99557948 -0.07964624
vn 0.18712005 -0.93560165 -0.29939207
vn 0.04977890 0.99557948 -0.07964624
vn -0.18712005 0.93560165 -0.29939207
vn -0.19374579 -0.96873039 0.15499663
vn 0.04931189 -0.98623931 0.15779805
vn 0.19374579 0.96873039 0.15499663
vn -0.04931189 0.98623931 0.15779805
vn -0.04977889 -0.99557948 -0.07964624
vn 0.18712002 -0.93560165 -0.29939210
vn 0.04977889 0.99557948 -0.07964624
vn -0.18712002 0.93560165 -0.29939210
vn -0.19374578 -0.96873045 0.15499665
vn 0.04931189 -0.98623937 0.15779807
vn 0.19374578 0.96873045 0.15499665
vn -0.04931189 0.98623937 0.15779807
vn -0.19324701 -0.38649401 -0.90181929
vn 0.20838863 -0.10419431 -0.97248012
vn 0.19324701 0.38649401 -0.90181929
vn -0.20838863 0.10419431 -0.97248012
vn -0.38649401 -0.19324701 0.90181929
vn 0.10419431 -0.20838863 0.97248012
vn 0.38649401 0.19324701 0.90181929
vn -0.10419431 0.20838863 0.97248012
f 2//2 1//1 4//4
f 4//4 3//3 2//2
f 8//8 5//5 6//6
f 6//6 7//7 8//8
f 1//1 2//2 6//6
f 1//1 6//6 5//5
f 2//2 3//3 7//7
f 2//2 7//7 6//6
f 3//3 4//4 8//8
f 3//3 8//8 7//7
f 4//4 1//1 5//5
f 4//4 5//5 8//8
f 10//10 9//9 12//12
f 12//12 11//11 10//10
f 16//16 13//13 14//14
f 14//14 15//15 16//16
f 9//9 10//10 14//14
f 9//9 14//14 13//13
f 10//10 11//11 15//15
f 10//10 15//15 14//14
f 11//11 12//12 16//16
f 11//11 16//16 15//15
f 12//12 9//9 13//13
f 12//12 13//13 16//16
f 18//18 17//17 20//20
f 20//20 19//19 18//18
f 24//24 21//21 22//22
f 22//22 23//23 24//24
f 17//17 18//18 22//22
f 17//17 22//22 21//21
f 18//18 19//19 23//23
f 18//18 23//23 22//22
f 19//19 20//20 24//24
f 19//19 24//24 23//23
f 20//20 17//17 21//21
f 20//20 21//21 24//24
f 26//26 25//25 28//28
f 28//28 27//27 26//26
f 32//32 29//29 30//30
f 30//30 31//31 32//32
f 25//25 26//26 30//30
f 25//25 30//30 29//29
f 26//26 27//27 31//31
f 26//26 31//31 30//30
f 27//27 28//28 32//32
f 27//27 32//32 31//31
f 28//28 25//25 29//29
f 28//28 29//29 32//32
