mtllib vehicle.mtl
o base_rubber
usemtl rubber
v -0.10170000 0.00280000 0.01200000
v -0.10170000 0.00266296 0.01113475
v -0.10170000 0.00226525 0.01035420
v -0.10170000 0.00164580 0.00973475
v -0.10170000 0.00086525 0.00933704
v -0.10170000 0.00000000 0.00920000
v -0.10170000 -0.00086525 0.00933704
v -0.10170000 -0.00164580 0.00973475
v -0.10170000 -0.00226525 0.01035420
v -0.10170000 -0.00266296 0.01113475
v -0.10170000 -0.00280000 0.01200000
v -0.10170000 -0.00266296 0.01286525
v -0.10170000 -0.00226525 0.01364580
v -0.10170000 -0.00164580 0.01426525
v -0.10170000 -0.00086525 0.01466296
v -0.10170000 -0.00000000 0.01480000
v -0.10170000 0.00086525 0.01466296
v -0.10170000 0.00164580 0.01426525
v -0.10170000 0.00226525 0.01364580
v -0.10170000 0.00266296 0.01286525
v -0.10240000 0.00280000 0.01200000
v -0.10240000 0.00266296 0.01113475
v -0.10240000 0.00226525 0.01035420
v -0.10240000 0.00164580 0.00973475
v -0.10240000 0.00086525 0.00933704
v -0.10240000 0.00000000 0.00920000
v -0.10240000 -0.00086525 0.00933704
v -0.10240000 -0.00164580 0.00973475
v -0.10240000 -0.00226525 0.01035420
v -0.10240000 -0.00266296 0.01113475
v -0.10240000 -0.00280000 0.01200000
v -0.10240000 -0.00266296 0.01286525
v -0.10240000 -0.00226525 0.01364580
v -0.10240000 -0.00164580 0.01426525
v -0.10240000 -0.00086525 0.01466296
v -0.10240000 -0.00000000 0.01480000
v -0.10240000 0.00086525 0.01466296
v -0.10240000 0.00164580 0.01426525
v -0.10240000 0.00226525 0.01364580
v -0.10240000 0.00266296 0.01286525
v -0.10200000 -0.00065000 0.01000000
v -0.10256292 -0.00032500 0.01000000
v -0.10256292 0.00032500 0.01000000
v -0.10200000 0.00065000 0.01000000
v -0.10143708 0.00032500 0.01000000
v -0.10143708 -0.00032500 0.01000000
v -0.10200000 -0.00065000 -0.01000000
v -0.10256292 -0.00032500 -0.01000000
v -0.10256292 0.00032500 -0.01000000
v -0.10200000 0.00065000 -0.01000000
v -0.10143708 0.00032500 -0.01000000
v -0.10143708 -0.00032500 -0.01000000
v -0.10180000 0.00260000 -0.01000000
v -0.10180000 0.00234252 -0.01112810
v -0.10180000 0.00162107 -0.01203276
v -0.10180000 0.00057855 -0.01253481
v -0.10180000 -0.00057855 -0.01253481
v -0.10180000 -0.00162107 -0.01203276
v -0.10180000 -0.00234252 -0.01112810
v -0.10180000 -0.00260000 -0.01000000
v -0.10180000 -0.00234252 -0.00887190
v -0.10180000 -0.00162107 -0.00796724
v -0.10180000 -0.00057855 -0.00746519
v -0.10180000 0.00057855 -0.00746519
v -0.10180000 0.00162107 -0.00796724
v -0.10180000 0.00234252 -0.00887190
v -0.10280000 0.00260000 -0.01000000
v -0.10280000 0.00234252 -0.01112810
v -0.10280000 0.00162107 -0.01203276
v -0.10280000 0.00057855 -0.01253481
v -0.10280000 -0.00057855 -0.01253481
v -0.10280000 -0.00162107 -0.01203276
v -0.10280000 -0.00234252 -0.01112810
v -0.10280000 -0.00260000 -0.01000000
v -0.10280000 -0.00234252 -0.00887190
v -0.10280000 -0.00162107 -0.00796724
v -0.10280000 -0.00057855 -0.00746519
v -0.10280000 0.00057855 -0.00746519
v -0.10280000 0.00162107 -0.00796724
v -0.10280000 0.00234252 -0.00887190
v -0.05319517 0.02259719 0.05500000
v -0.05346370 0.02281777 0.05430058
v -0.05413608 0.02317558 0.05412785
v -0.05470598 0.02340117 0.05461185
v -0.05474427 0.02332467 0.05538815
v -0.05422211 0.02300369 0.05587216
v -0.05353269 0.02267993 0.05569942
v -0.05032240 0.02833990 0.05570791
v -0.05058454 0.02857219 0.05500986
v -0.05123837 0.02896461 0.05484117
v -0.05179156 0.02922166 0.05532888
v -0.05182753 0.02914977 0.05610572
v -0.05131921 0.02880309 0.05658672
v -0.05064936 0.02844266 0.05640968
v -0.04704839 0.03339933 0.05628561
v -0.04729478 0.03365495 0.05558999
v -0.04790349 0.03411687 0.05542863
v -0.04841617 0.03443727 0.05592306
v -0.04844674 0.03437487 0.05670095
v -0.04797220 0.03397667 0.05717654
v -0.04734987 0.03354251 0.05699170
v -0.04338829 0.03783961 0.05674399
v -0.04361567 0.03811738 0.05605038
v -0.04416964 0.03864557 0.05589522
v -0.04463306 0.03902644 0.05639535
v -0.04465695 0.03897319 0.05717415
v -0.04422334 0.03852592 0.05764519
v -0.04365873 0.03802142 0.05745374
v -0.03937625 0.04168165 0.05708889
v -0.03958181 0.04197951 0.05639681
v -0.04007266 0.04256806 0.05624640
v -0.04047919 0.04300411 0.05675092
v -0.04049527 0.04295931 0.05753046
v -0.04010879 0.04246739 0.05799801
v -0.03961078 0.04189878 0.05780149
v -0.03504539 0.04494582 0.05732601
v -0.03522705 0.04526098 0.05663491
v -0.03564851 0.04590179 0.05648764
v -0.03599240 0.04638571 0.05699510
v -0.03599976 0.04634833 0.05777516
v -0.03566505 0.04581781 0.05824042
v -0.03524032 0.04519363 0.05804053
v -0.03042824 0.04765144 0.05746086
v -0.03058481 0.04798070 0.05677019
v -0.03093317 0.04866432 0.05662443
v -0.03121100 0.04918754 0.05713335
v -0.03120909 0.04915636 0.05791372
v -0.03092887 0.04859425 0.05837790
v -0.03058136 0.04792450 0.05817635
v -0.02555731 0.04981667 0.05749877
v -0.02568846 0.05015670 0.05680802
v -0.02596262 0.05087332 0.05666228
v -0.02617333 0.05142691 0.05717129
v -0.02616194 0.05140059 0.05795175
v -0.02593701 0.05081420 0.05841597
v -0.02566793 0.05010929 0.05821437
v -0.02046558 0.05145868 0.05744497
v -0.02057172 0.05180633 0.05675372
v -0.02077276 0.05254654 0.05660671
v -0.02091733 0.05312192 0.05711463
v -0.02089656 0.05309919 0.05789501
v -0.02072608 0.05249548 0.05836021
v -0.02053428 0.05176537 0.05815992
v -0.01518675 0.05259396 0.05730464
v -0.01526880 0.05294641 0.05661254
v -0.01539944 0.05370178 0.05646322
v -0.01548030 0.05429126 0.05696911
v -0.01545050 0.05427096 0.05774927
v -0.01533246 0.05365616 0.05821622
v -0.01521508 0.05290983 0.05801834
v -0.00975528 0.05323874 0.05708297
v -0.00981449 0.05359358 0.05638976
v -0.00987841 0.05435688 0.05623734
v -0.00989893 0.05495386 0.05674047
v -0.00986058 0.05493497 0.05752030
v -0.00979224 0.05431445 0.05798958
v -0.00974538 0.05355956 0.05779495
v -0.00420631 0.05340919 0.05678519
v -0.00424404 0.05376442 0.05609068
v -0.00424537 0.05452965 0.05593458
v -0.00420930 0.05512865 0.05643442
v -0.00416299 0.05511036 0.05721382
v -0.00414131 0.05448855 0.05768588
v -0.00416059 0.05373146 0.05749512
v 0.00142455 0.05312167 0.05641659
v 0.00140691 0.05347563 0.05572064
v 0.00146403 0.05423788 0.05556043
v 0.00155288 0.05483443 0.05605660
v 0.00160656 0.05481606 0.05683553
v 0.00158465 0.05419661 0.05731067
v 0.00150364 0.05344254 0.05712422
v 0.00710134 0.05239278 0.05598253
v 0.00710253 0.05274411 0.05528503
v 0.00721416 0.05349935 0.05512040
v 0.00735218 0.05408978 0.05561262
v 0.00741265 0.05407081 0.05639104
v 0.00735004 0.05345671 0.05686948
v 0.00721150 0.05270992 0.05668768
v 0.01278796 0.05123936 0.05548839
v 0.01280680 0.05158691 0.05478925
v 0.01296941 0.05233180 0.05461998
v 0.01315333 0.05291310 0.05510805
v 0.01322007 0.05289309 0.05588592
v 0.01311937 0.05228683 0.05636786
v 0.01292706 0.05155085 0.05619094
v 0.01844817 0.04967852 0.05493962
v 0.01848368 0.05002129 0.05423877
v 0.01869417 0.05075296 0.05406466
v 0.01892113 0.05132254 0.05454840
v 0.01899366 0.05130114 0.05532572
v 0.01885715 0.05070487 0.05581129
v 0.01861438 0.04998274 0.05563945
v 0.02404576 0.04772756 0.05434167
v 0.02409709 0.04806465 0.05363904
v 0.02435284 0.04878051 0.05345992
v 0.02462040 0.04933608 0.05393919
v 0.02469832 0.04931301 0.05471594
v 0.02452790 0.04872866 0.05520527
v 0.02423748 0.04802307 0.05503870
v 0.02954450 0.04540399 0.05370004
v 0.02961098 0.04573452 0.05299557
v 0.02990980 0.04643214 0.05281125
v 0.03021594 0.04697154 0.05328589
v 0.03029887 0.04694653 0.05406206
v 0.03009615 0.04637595 0.05455530
v 0.02976042 0.04568945 0.05439419
v 0.03490825 0.04272549 0.05302025
v 0.03498932 0.04304857 0.05231385
v 0.03532945 0.04372552 0.05212414
v 0.03567250 0.04424660 0.05259397
v 0.03576015 0.04421942 0.05336955
v 0.03552640 0.04366444 0.05386685
v 0.03514727 0.04299958 0.05371140
v 0.04010089 0.03970988 0.05230781
v 0.04019614 0.04002455 0.05159939
v 0.04057615 0.04067829 0.05140405
v 0.04095477 0.04117882 0.05186888
v 0.04104689 0.04114923 0.05264385
v 0.04078314 0.04061180 0.05314540
v 0.04036213 0.03997122 0.05299585
v 0.04508642 0.03637509 0.05156828
v 0.04519551 0.03668033 0.05085773
v 0.04561428 0.03730808 0.05065648
v 0.04602740 0.03778563 0.05111606
v 0.04612377 0.03775339 0.05189042
v 0.04583083 0.03723562 0.05239643
v 0.04536916 0.03662222 0.05225306
v 0.04982892 0.03273920 0.05080719
v 0.04995158 0.03303384 0.05009438
v 0.05040819 0.03363250 0.04988689
v 0.05085491 0.03408439 0.05034096
v 0.05095536 0.03404922 0.05111466
v 0.05063389 0.03355348 0.05162539
v 0.05013258 0.03297047 0.05148855
v 0.05429260 0.02882039 0.05003009
v 0.05442859 0.02910309 0.04931488
v 0.05492222 0.02966917 0.04910077
v 0.05540176 0.03009234 0.04954899
v 0.05550613 0.03005396 0.05032203
v 0.05515672 0.02958292 0.05083776
v 0.05461664 0.02903393 0.05070784
v 0.05844180 0.02463692 0.04924255
v 0.05859087 0.02490618 0.04852476
v 0.05912067 0.02543566 0.04830360
v 0.05963226 0.02582664 0.04874559
v 0.05974039 0.02578471 0.04951793
v 0.05936364 0.02534144 0.05003901
v 0.05878572 0.02483063 0.04991645
v 0.06224108 0.02020716 0.04845011
v 0.06240289 0.02046125 0.04772955
v 0.06296786 0.02094956 0.04750085
v 0.06351054 0.02130439 0.04793620
v 0.06362230 0.02125853 0.04870779
v 0.06321897 0.02084653 0.04923460
v 0.06260426 0.02037862 0.04911992
v 0.06565520 0.01554946 0.04765829
v 0.06582928 0.01578644 0.04693477
v 0.06642804 0.01622845 0.04669800
v 0.06700058 0.01654267 0.04712626
v 0.06711578 0.01649247 0.04789707
v 0.06668688 0.01611565 0.04843000
v 0.06603687 0.01569598 0.04832373
v 0.06864922 0.01068217 0.04687262
v 0.06883486 0.01089988 0.04614592
v 0.06946541 0.01128993 0.04590053
v 0.07006606 0.01155860 0.04632124
v 0.07018450 0.01150358 0.04709123
v 0.06973154 0.01116630 0.04763070
v 0.06904828 0.01080074 0.04753341
v 0.07120571 0.00558711 0.04609282
v 0.07139675 0.00579449 0.04536451
v 0.07204205 0.00615662 0.04511473
v 0.07265569 0.00640082 0.04553158
v 0.07277558 0.00634319 0.04630116
v 0.07231145 0.00602713 0.04684396
v 0.07161278 0.00569064 0.04675124
v -0.05319517 0.02259719 0.05500000
v -0.05346370 0.02281777 0.05430058
v -0.05413608 0.02317558 0.05412785
v -0.05470598 0.02340117 0.05461185
v -0.05474427 0.02332467 0.05538815
v -0.05422211 0.02300369 0.05587216
v -0.05353269 0.02267993 0.05569942
v 0.07120571 0.00558711 0.04609282
v 0.07139675 0.00579449 0.04536451
v 0.07204205 0.00615662 0.04511473
v 0.07265569 0.00640082 0.04553158
v 0.07277558 0.00634319 0.04630116
v 0.07231145 0.00602713 0.04684396
v 0.07161278 0.00569064 0.04675124
v -0.01865566 -0.02045838 0.05200000
v -0.01851567 -0.02013293 0.05140299
v -0.01798737 -0.01970738 0.05125554
v -0.01746858 -0.01950218 0.05166868
v -0.01734996 -0.01967185 0.05233131
v -0.01772084 -0.02008862 0.05274446
v -0.01830193 -0.02043866 0.05259701
v -0.01569613 -0.02469089 0.05038652
v -0.01556109 -0.02435865 0.04979212
v -0.01504523 -0.02391595 0.04965125
v -0.01453702 -0.02369615 0.05006998
v -0.01441914 -0.02386476 0.05073301
v -0.01478036 -0.02429483 0.05114106
v -0.01534867 -0.02466249 0.05098686
v -0.01261319 -0.02848853 0.04888378
v -0.01248966 -0.02814226 0.04829491
v -0.01200252 -0.02766423 0.04816793
v -0.01151862 -0.02741441 0.04859846
v -0.01140233 -0.02758091 0.04926230
v -0.01174122 -0.02803835 0.04965957
v -0.01228011 -0.02844228 0.04949111
v -0.00943149 -0.03184235 0.04749568
v -0.00932164 -0.03148180 0.04691270
v -0.00886836 -0.03096813 0.04680037
v -0.00841298 -0.03068815 0.04724329
v -0.00829841 -0.03085269 0.04790792
v -0.00861092 -0.03133784 0.04829378
v -0.00911519 -0.03177828 0.04811032
v -0.00616183 -0.03476390 0.04621843
v -0.00606805 -0.03438913 0.04564165
v -0.00565415 -0.03384031 0.04554459
v -0.00523181 -0.03353072 0.04600035
v -0.00511906 -0.03369349 0.04666572
v -0.00540080 -0.03420605 0.04703968
v -0.00586488 -0.03468243 0.04684061
v -0.00281530 -0.03726450 0.04504834
v -0.00274010 -0.03687596 0.04447798
v -0.00237130 -0.03629347 0.04439658
v -0.00198661 -0.03595566 0.04486544
v -0.00187571 -0.03611691 0.04553150
v -0.00212211 -0.03665579 0.04589320
v -0.00254027 -0.03716652 0.04567817
v 0.00059670 -0.03935529 0.04398181
v 0.00065078 -0.03895392 0.04341798
v 0.00096887 -0.03834037 0.04335233
v 0.00131143 -0.03797666 0.04383431
v 0.00142051 -0.03813667 0.04450096
v 0.00121397 -0.03869991 0.04485030
v 0.00084734 -0.03924225 0.04461925
v 0.00406230 -0.04104738 0.04301528
v 0.00409289 -0.04063462 0.04245795
v 0.00435512 -0.03999380 0.04240780
v 0.00465151 -0.03960746 0.04290260
v 0.00475889 -0.03976654 0.04356975
v 0.00459639 -0.04035124 0.04390689
v 0.00428638 -0.04092127 0.04366012
v 0.00756920 -0.04235198 0.04214526
v 0.00757421 -0.04192976 0.04159422
v 0.00777627 -0.04126654 0.04155893
v 0.00802323 -0.04086174 0.04206596
v 0.00812913 -0.04102018 0.04273351
v 0.00801422 -0.04162255 0.04305889
v 0.00776503 -0.04221526 0.04279710
v 0.01110468 -0.04328055 0.04136820
v 0.01108246 -0.04285122 0.04082312
v 0.01122126 -0.04217136 0.04080169
v 0.01141657 -0.04175292 0.04132004
v 0.01152131 -0.04191099 0.04198786
v 0.01145661 -0.04252654 0.04230225
v 0.01127119 -0.04313605 0.04202648
v 0.01465574 -0.04384498 0.04068050
v 0.01460522 -0.04341117 0.04014088
v 0.01467910 -0.04272095 0.04013201
v 0.01482173 -0.04229408 0.04066056
v 0.01492572 -0.04245200 0.04132853
v 0.01491276 -0.04307579 0.04163292
v 0.01479261 -0.04369572 0.04134452
v 0.01820931 -0.04405764 0.04007845
v 0.01813005 -0.04362210 0.03954371
v 0.01813882 -0.04292795 0.03954588
v 0.01822903 -0.04249789 0.04008332
v 0.01833274 -0.04265578 0.04075134
v 0.01837187 -0.04328271 0.04104690
v 0.01831694 -0.04390660 0.04074744
v 0.02175247 -0.04393135 0.03955822
v 0.02164458 -0.04349679 0.03902769
v 0.02158947 -0.04280487 0.03903927
v 0.02162865 -0.04237660 0.03958423
v 0.02173261 -0.04253449 0.04025222
v 0.02182307 -0.04315964 0.04054021
v 0.02183190 -0.04378130 0.04023135
v 0.02527254 -0.04347927 0.03911582
v 0.02513667 -0.04304826 0.03858885
v 0.02502008 -0.04236418 0.03860822
v 0.02501057 -0.04194216 0.03915934
v 0.02511529 -0.04209998 0.03982722
v 0.02525539 -0.04271881 0.04010892
v 0.02532537 -0.04333265 0.03979232
v 0.02875724 -0.04271480 0.03874721
v 0.02859443 -0.04228964 0.03822313
v 0.02841960 -0.04161829 0.03824874
v 0.02836440 -0.04120629 0.03880475
v 0.02847040 -0.04136389 0.03947248
v 0.02865777 -0.04197242 0.03974911
v 0.02878543 -0.04257363 0.03942633
v 0.03219468 -0.04165142 0.03844824
v 0.03200623 -0.04123410 0.03792645
v 0.03177694 -0.04057956 0.03795689
v 0.03167946 -0.04018067 0.03851664
v 0.03178720 -0.04033781 0.03918420
v 0.03201903 -0.04093265 0.03945688
v 0.03220037 -0.04151726 0.03912935
v 0.03557329 -0.04030256 0.03821475
v 0.03536066 -0.03989480 0.03769470
v 0.03508093 -0.03926035 0.03772874
v 0.03494475 -0.03887697 0.03829123
v 0.03505466 -0.03903334 0.03895862
v 0.03532790 -0.03961172 0.03922834
v 0.03555871 -0.04017658 0.03889729
v 0.03888177 -0.03868157 0.03804257
v 0.03864646 -0.03828482 0.03752377
v 0.03832036 -0.03767306 0.03756034
v 0.03814902 -0.03730696 0.03812474
v 0.03826147 -0.03746220 0.03879197
v 0.03857303 -0.03802188 0.03905958
v 0.03884909 -0.03856455 0.03872607
v 0.04210903 -0.03680163 0.03792751
v 0.04185252 -0.03641710 0.03740956
v 0.04148396 -0.03583005 0.03744777
v 0.04128086 -0.03548253 0.03801339
v 0.04139618 -0.03563624 0.03868048
v 0.04174307 -0.03617542 0.03894671
v 0.04206031 -0.03669407 0.03861161
v 0.04524406 -0.03467578 0.03786545
v 0.04496779 -0.03430453 0.03734797
v 0.04456045 -0.03374375 0.03738710
v 0.04432877 -0.03341572 0.03795336
v 0.04444722 -0.03356745 0.03862036
v 0.04482660 -0.03408469 0.03888582
v 0.04518123 -0.03457794 0.03854986
v 0.04827595 -0.03231693 0.03785225
v 0.04798125 -0.03195988 0.03733496
v 0.04753853 -0.03142660 0.03737438
v 0.04728117 -0.03111867 0.03794084
v 0.04740297 -0.03126796 0.03860778
v 0.04781221 -0.03176205 0.03887298
v 0.04820072 -0.03222889 0.03853674
v 0.05119377 -0.02973784 0.03788383
v 0.05088187 -0.02939584 0.03736645
v 0.05040688 -0.02889108 0.03740568
v 0.05012649 -0.02860366 0.03797198
v 0.05025182 -0.02875001 0.03863892
v 0.05068851 -0.02921992 0.03890428
v 0.05110772 -0.02965955 0.03856823
v 0.05398661 -0.02695118 0.03795612
v 0.05365865 -0.02662503 0.03743843
v 0.05315420 -0.02614966 0.03747705
v 0.05285313 -0.02588303 0.03804291
v 0.05298214 -0.02602592 0.03870990
v 0.05344409 -0.02647073 0.03897576
v 0.05389112 -0.02688251 0.03864029
v 0.05664348 -0.02396953 0.03806506
v 0.05630052 -0.02366004 0.03754686
v 0.05576917 -0.02321487 0.03758455
v 0.05544956 -0.02296923 0.03814975
v 0.05558235 -0.02310811 0.03881684
v 0.05606756 -0.02352692 0.03908350
v 0.05653980 -0.02391029 0.03874892
v 0.05915341 -0.02080542 0.03820661
v 0.05879642 -0.02051340 0.03768775
v 0.05824050 -0.02009922 0.03772423
v 0.05790426 -0.01987475 0.03828859
v 0.05804090 -0.02000904 0.03895584
v 0.05854753 -0.02040095 0.03922354
v 0.05904264 -0.02075538 0.03889010
v 0.06150533 -0.01747131 0.03837678
v 0.06113524 -0.01719762 0.03785710
v 0.06055688 -0.01681525 0.03789214
v 0.06020577 -0.01661213 0.03845552
v 0.06034629 -0.01674122 0.03912299
v 0.06087264 -0.01710531 0.03939195
v 0.06138846 -0.01743023 0.03905985
v 0.06368815 -0.01397963 0.03857153
v 0.06330586 -0.01372518 0.03805091
v 0.06270707 -0.01337552 0.03808433
v 0.06234267 -0.01319395 0.03864662
v 0.06248706 -0.01331719 0.03931437
v 0.06303152 -0.01365244 0.03958476
v 0.06356605 -0.01394725 0.03925416
v 0.06568051 -0.01036204 0.03878591
v 0.06529254 -0.01011751 0.03826474
v 0.06468429 -0.00978449 0.03829723
v 0.06431377 -0.00961376 0.03885892
v 0.06445999 -0.00973388 0.03952685
v 0.06501286 -0.01005439 0.03979805
v 0.06555604 -0.01033395 0.03946830
v -0.01865566 -0.02045838 0.05200000
v -0.01851567 -0.02013293 0.05140299
v -0.01798737 -0.01970738 0.05125554
v -0.01746858 -0.01950218 0.05166868
v -0.01734996 -0.01967185 0.05233131
v -0.01772084 -0.02008862 0.05274446
v -0.01830193 -0.02043866 0.05259701
v 0.06568051 -0.01036204 0.03878591
v 0.06529254 -0.01011751 0.03826474
v 0.06468429 -0.00978449 0.03829723
v 0.06431377 -0.00961376 0.03885892
v 0.06445999 -0.00973388 0.03952685
v 0.06501286 -0.01005439 0.03979805
v 0.06555604 -0.01033395 0.03946830
vn 0.99929571 0.03747343 -0.00197840
vn 0.12924218 0.92561328 -0.35571969
vn 0.45332301 0.69248950 -0.56120980
vn 0.73924339 0.36656290 -0.56493431
vn 0.87863183 0.12340796 -0.46127716
vn 0.93616885 -0.01853418 -0.35106179
vn 0.96122944 -0.09891934 -0.25739661
vn 0.97315359 -0.14491126 -0.17880931
vn 0.97912687 -0.17050232 -0.11063201
vn 0.98197681 -0.18258028 -0.04884669
vn 0.98282576 -0.18427901 0.00972896
vn 0.98197681 -0.17642194 0.06780017
vn 0.97912693 -0.15790538 0.12797017
vn 0.97315359 -0.12527780 0.19307390
vn 0.96122944 -0.07126649 0.26638153
vn 0.93616885 0.01853418 0.35106179
vn 0.87863177 0.17129277 0.44571847
vn 0.73924345 0.42401046 0.52319616
vn 0.45332262 0.74773347 0.48517340
vn 0.12924193 0.95792365 0.25627857
vn -0.99929571 0.03747342 0.00197840
vn -0.12924215 0.95792365 -0.25627849
vn -0.45332307 0.74773318 -0.48517361
vn -0.73924345 0.42401046 -0.52319616
vn -0.87863177 0.17129277 -0.44571847
vn -0.93616885 0.01853418 -0.35106179
vn -0.96122944 -0.07126649 -0.26638153
vn -0.97315359 -0.12527780 -0.19307390
vn -0.97912687 -0.15790537 -0.12797023
vn -0.98197681 -0.17642187 -0.06780016
vn -0.98282576 -0.18427908 -0.00972896
vn -0.98197681 -0.18258022 0.04884669
vn -0.97912693 -0.17050239 0.11063197
vn -0.97315359 -0.14491126 0.17880931
vn -0.96122944 -0.09891934 0.25739661
vn -0.93616885 -0.01853418 0.35106179
vn -0.87863183 0.12340796 0.46127716
vn -0.73924339 0.36656290 0.56493431
vn -0.45332271 0.69248974 0.56120974
vn -0.12924188 0.92561334 0.35571960
vn -0.18859774 -0.97998637 0.06369897
vn -0.94485688 -0.32731071 0.01063760
vn -0.75554156 0.65432358 0.03189828
vn 0.18881148 0.98109263 0.04251411
vn 0.94443083 0.32715881 0.03189798
vn 0.75588781 -0.65461475 0.01063749
vn 0.18859854 -0.97998619 -0.06369924
vn -0.75588351 -0.65461969 -0.01063757
vn -0.94442958 0.32716268 -0.03189836
vn -0.18881068 0.98109281 -0.04251393
vn 0.75554585 0.65431863 -0.03189803
vn 0.94485825 -0.32730687 -0.01063747
vn 0.99660146 0.08213703 -0.00624908
vn 0.16870691 0.85305214 -0.49380159
vn 0.54542482 0.47136596 -0.69305551
vn 0.80223417 0.08830954 -0.59044194
vn 0.90388131 -0.12655528 -0.40863469
vn 0.94196784 -0.22861525 -0.24582836
vn 0.95666951 -0.27116880 -0.10607084
vn 0.96061045 -0.27709764 0.02108191
vn 0.95666951 -0.25200057 0.14587422
vn 0.94196790 -0.18879336 0.27758536
vn 0.90388131 -0.06327766 0.42307755
vn 0.80223405 0.17661916 0.57028610
vn 0.54542440 0.57079065 0.61376715
vn 0.16870682 0.91793901 0.35906276
vn -0.99660146 0.08213700 0.00624908
vn -0.16870691 0.91793907 -0.35906255
vn -0.54542476 0.57079053 -0.61376703
vn -0.80223417 0.17661908 -0.57028586
vn -0.90388131 -0.06327764 -0.42307743
vn -0.94196790 -0.18879333 -0.27758530
vn -0.95666951 -0.25200054 -0.14587416
vn -0.96061045 -0.27709770 -0.02108191
vn -0.95666951 -0.27116877 0.10607088
vn -0.94196779 -0.22861530 0.24582841
vn -0.90388119 -0.12655531 0.40863481
vn -0.80223405 0.08830958 0.59044218
vn -0.54542446 0.47136608 0.69305569
vn -0.16870677 0.85305214 0.49380171
vn 0.89079583 -0.42623207 -0.15750892
vn 0.48220214 -0.13459899 -0.86565822
vn -0.28971291 0.25858921 -0.92151946
vn -0.84295648 0.45704329 -0.28378817
vn -0.76235682 0.31182560 0.56707758
vn -0.10794391 -0.06817563 0.99181658
vn 0.62820816 -0.39678228 0.66926694
vn 0.86858320 -0.49554330 -0.00020941
vn 0.58353990 -0.23250735 -0.77808833
vn -0.14150199 0.20597589 -0.96827227
vn -0.75914627 0.48926121 -0.42932552
vn -0.80595976 0.40462133 0.43210015
vn -0.24723329 0.01598589 0.96882415
vn 0.49783516 -0.38452896 0.77736586
vn 0.80759066 -0.58963197 -0.01146288
vn 0.53974146 -0.30041903 -0.78640169
vn -0.13503067 0.21539910 -0.96714520
vn -0.70735776 0.56850296 -0.42005885
vn -0.74843943 0.49448887 0.44194928
vn -0.22765313 0.04935731 0.97249061
vn 0.46511960 -0.43329671 0.77195710
vn 0.73367512 -0.67918468 -0.02071358
vn 0.48702458 -0.36544350 -0.79325789
vn -0.12677492 0.22394429 -0.96632141
vn -0.64439601 0.64405006 -0.41225392
vn -0.67819488 0.58038312 0.45078513
vn -0.20293196 0.08121044 0.97581947
vn 0.42571771 -0.47957277 0.76731640
vn 0.64843225 -0.76075512 -0.02805790
vn 0.42607528 -0.42486349 -0.79871833
vn -0.11743459 0.23146908 -0.96572834
vn -0.57189584 0.71274334 -0.40611839
vn -0.59706587 0.65872985 0.45780712
vn -0.17408442 0.11045495 0.97851640
vn 0.38054243 -0.52154946 0.76365811
vn 0.55469757 -0.83138978 -0.03319230
vn 0.35891384 -0.47653306 -0.80255657
vn -0.10734189 0.23769327 -0.96539092
vn -0.49227500 0.77210182 -0.40190050
vn -0.50773996 0.72668821 0.46273577
vn -0.14206909 0.13600251 0.98046911
vn 0.33108783 -0.55772960 0.76112974
vn 0.45595783 -0.88927174 -0.03603141
vn 0.28804165 -0.51910859 -0.80471009
vn -0.09687576 0.24247754 -0.96530813
vn -0.40848887 0.82061511 -0.39965951
vn -0.41354263 0.78249520 0.46549293
vn -0.10811044 0.15715204 0.98163915
vn 0.27916279 -0.58721507 0.75976747
vn 0.35571986 -0.93387175 -0.03670151
vn 0.21599151 -0.55216533 -0.80527085
vn -0.08639678 0.24583431 -0.96545380
vn -0.32349947 0.85786414 -0.39927071
vn -0.31783515 0.82561809 0.46619266
vn -0.07347295 0.17366579 0.98206007
vn 0.22656335 -0.60976630 0.75950909
vn 0.25697508 -0.96576673 -0.03547346
vn 0.14493805 -0.57607579 -0.80444372
vn -0.07618420 0.24787924 -0.96579087
vn -0.23982216 0.88436073 -0.40048906
vn -0.22349694 0.85658425 0.46509409
vn -0.03925667 0.18570766 0.98182052
vn 0.17480814 -0.62570632 0.76021951
vn 0.16190389 -0.98626494 -0.03268968
vn 0.07648228 -0.59175229 -0.80248344
vn -0.06642220 0.24879019 -0.96627718
vn -0.15928276 0.90122658 -0.40301323
vn -0.13263831 0.87663078 0.46252075
vn -0.00628092 0.19372539 0.98103565
vn 0.12499437 -0.63572609 0.76172745
vn 0.07183031 -0.99700397 -0.02869772
vn 0.01161098 -0.60035825 -0.79964685
vn -0.05720171 0.24875954 -0.96687472
vn -0.08298227 0.90985280 -0.40654874
vn -0.04655072 0.88731921 0.45880011
vn 0.02494331 0.19829479 0.97982496
vn 0.07777940 -0.64067841 0.76385969
vn -0.01265591 -0.99963647 -0.02380503
vn -0.04922241 -0.60307872 -0.79616159
vn -0.04854411 0.24796444 -0.96755207
vn -0.01140476 0.91163874 -0.41083419
vn 0.03418112 0.89023554 0.45421615
vn 0.05417498 0.20000826 0.97829533
vn 0.03344754 -0.64141273 0.76646650
vn -0.09150716 -0.99563712 -0.01825045
vn -0.10596019 -0.60098386 -0.79220629
vn -0.04042079 0.24654603 -0.96828777
vn 0.05542347 0.90782779 -0.41566446
vn 0.10949942 0.88679677 0.44900030
vn 0.08137442 0.19940157 0.97653323
vn -0.00799373 -0.63868535 0.76942652
vn -0.16503491 -0.98621213 -0.01221337
vn -0.15880866 -0.59495497 -0.78791386
vn -0.03277574 0.24461168 -0.96906698
vn 0.11777473 0.89943278 -0.42089182
vn 0.17969218 0.87816620 0.44332239
vn 0.10663749 0.19692013 0.97460294
vn -0.04671603 -0.63311088 0.77265012
vn -0.23375356 -0.97227848 -0.00581388
vn -0.20812750 -0.58566856 -0.78337425
vn -0.02554047 0.24223337 -0.96988183
vn 0.17609115 0.88722205 -0.42641407
vn 0.24524646 0.86523110 0.43729785
vn 0.13013570 0.19290189 0.97255003
vn -0.08299339 -0.62515116 0.77607870
vn -0.29827282 -0.95448023 0.00087472
vn -0.25434828 -0.57360846 -0.77864009
vn -0.01864209 0.23945516 -0.97072840
vn 0.23089243 0.87173021 -0.43217501
vn 0.30674246 0.84861755 0.43099567
vn 0.15207963 0.18759459 0.97040200
vn -0.11714637 -0.61512703 0.77967650
vn -0.35922250 -0.93321913 0.00782214
vn -0.29792041 -0.55908114 -0.77373880
vn -0.01200922 0.23629309 -0.97160769
vn 0.28271413 0.85328490 -0.43815246
vn 0.36478186 0.82872063 0.42444816
vn 0.17268777 0.18115851 0.96817380
vn -0.14950499 -0.60323155 0.78342837
vn -0.41720852 -0.90868652 0.01502455
vn -0.33927822 -0.54224396 -0.76867527
vn -0.00557729 0.23274103 -0.97252268
vn 0.33207107 0.83203924 -0.44434166
vn 0.41994536 0.80573446 0.41765764
vn 0.19217452 0.17368485 0.96586877
vn -0.18038368 -0.58954591 0.78733563
vn -0.47278282 -0.88089150 0.02250499
vn -0.37882003 -0.52312404 -0.76343745
vn 0.00071116 0.22877307 -0.97347951
vn 0.37943149 0.80798906 -0.45076090
vn 0.47276139 0.77967751 0.41060889
vn 0.21073475 0.16519882 0.96348339
vn -0.21006970 -0.57405770 0.79140919
vn -0.52642518 -0.84968144 0.03029624
vn -0.41689238 -0.50163615 -0.75799865
vn 0.00690416 0.22434719 -0.97448486
vn 0.42519966 0.78099239 -0.45744529
vn 0.52368963 0.75041533 0.40326923
vn 0.22854017 0.15567291 0.96100754
vn -0.23881064 -0.55666745 0.79567009
vn -0.57852411 -0.81475872 0.03844721
vn -0.45377854 -0.47758767 -0.75232643
vn 0.01303653 0.21939911 -0.97554809
vn 0.46970314 0.75078392 -0.46443784
vn 0.57310492 0.71767694 0.39558882
vn 0.24573305 0.14503010 0.95842659
vn -0.26680145 -0.53719568 0.80014861
vn -0.62935811 -0.77569163 0.04702136
vn -0.48968396 -0.45069012 -0.74638325
vn 0.01913335 0.21385741 -0.97667754
vn 0.51317424 0.71698219 -0.47179306
vn 0.62127769 0.68106234 0.38751534
vn 0.26242191 0.13315190 0.95572239
vn -0.29418138 -0.51539421 0.80487651
vn -0.67907244 -0.73192579 0.05608215
vn -0.52472383 -0.42057434 -0.74012303
vn 0.02519820 0.20762965 -0.97788286
vn 0.55573183 0.67910343 -0.47956300
vn 0.66835350 0.64005601 0.37898785
vn 0.27867147 0.11987616 0.95287561
vn -0.32101509 -0.49094766 0.80988872
vn -0.72764701 -0.68279922 0.06568884
vn -0.55889803 -0.38679418 -0.73350072
vn 0.03120950 0.20060670 -0.97917461
vn 0.59735018 0.63657039 -0.48780209
vn 0.71432132 0.59404200 0.36994469
vn 0.29449502 0.10500541 0.94986659
vn -0.34727433 -0.46348342 0.81522000
vn -0.77485162 -0.62757033 0.07589808
vn -0.59205896 -0.34884119 -0.72648191
vn 0.03712066 0.19267657 -0.98055989
vn 0.63782150 0.58873695 -0.49656069
vn 0.75897312 0.54232526 0.36033764
vn 0.30984387 0.08831632 0.94667685
vn -0.37281644 -0.43258739 0.82089949
vn -0.82019842 -0.56546444 0.08674360
vn -0.62388432 -0.30618766 -0.71903926
vn 0.04284518 0.18372263 -0.98204392
vn 0.67671525 0.53493232 -0.50586945
vn 0.80185741 0.48418045 0.35013407
vn 0.32458380 0.06956784 0.94329518
vn -0.39735553 -0.39783058 0.82694578
vn -0.86306387 -0.49554327 0.09776331
vn -0.65382016 -0.25823113 -0.71122134
vn 0.04783180 0.17344694 -0.98368096
vn 0.71299511 0.47460485 -0.51612806
vn 0.84216213 0.41906142 0.33933821
vn 0.33814797 0.04834157 0.93985051
vn -0.42091110 -0.35891643 0.83307427
vn -0.84708017 -0.46456414 0.25813815
vn -0.75597024 -0.28946924 -0.58712566
vn -0.09512989 0.10381527 -0.99003667
vn 0.63715839 0.41892505 -0.64693975
vn 0.88956565 0.41867754 0.18270765
vn 0.47300577 0.10352912 0.87495553
vn -0.29991174 -0.28964624 0.90893239
vn -0.44487536 -0.88886923 -0.10953292
vn -0.44487557 -0.88886911 -0.10953315
vn -0.44487548 -0.88886911 -0.10953334
vn -0.44487545 -0.88886905 -0.10953315
vn -0.44487548 -0.88886911 -0.10953301
vn -0.44487515 -0.88886940 -0.10953251
vn -0.44487420 -0.88887000 -0.10953111
vn 0.44445726 -0.88548541 -0.13554844
vn 0.44445714 -0.88548547 -0.13554853
vn 0.44445780 -0.88548517 -0.13554788
vn 0.44445771 -0.88548511 -0.13554864
vn 0.44445738 -0.88548511 -0.13554955
vn 0.44445664 -0.88548577 -0.13554810
vn 0.44445488 -0.88548714 -0.13554469
vn -0.83624697 -0.52713466 -0.15106297
vn -0.55209333 -0.06926288 -0.83090049
vn 0.14800027 0.44091055 -0.88526481
vn 0.73666662 0.61885709 -0.27265018
vn 0.77027863 0.33055779 0.54534608
vn 0.22360177 -0.20677668 0.95249444
vn -0.49124387 -0.58833247 0.64229620
vn -0.79987490 -0.60014141 -0.00551596
vn -0.63731831 -0.18367726 -0.74839026
vn 0.00460079 0.37091312 -0.92865616
vn 0.64353442 0.64645737 -0.40982467
vn 0.79750431 0.43466976 0.41838878
vn 0.34985536 -0.10501138 0.93089950
vn -0.36101726 -0.56535727 0.74164528
vn -0.75697190 -0.65291822 -0.02629499
vn -0.60923767 -0.21937335 -0.76203990
vn -0.00324270 0.37931257 -0.92526293
vn 0.60575312 0.69271839 -0.39141360
vn 0.75779355 0.48348039 0.43817306
vn 0.33793607 -0.09060794 0.93679738
vn -0.33606619 -0.59599417 0.72928071
vn -0.70642453 -0.70612901 -0.04843759
vn -0.57600051 -0.25498661 -0.77666295
vn -0.01236330 0.38808256 -0.92154169
vn 0.56117839 0.73935258 -0.37207052
vn 0.71126986 0.53264153 0.45868090
vn 0.32442501 -0.07613359 0.94284254
vn -0.30635786 -0.62700701 0.71624517
vn -0.64769793 -0.75853109 -0.07154015
vn -0.53752321 -0.28990608 -0.79184806
vn -0.02311524 0.39690664 -0.91756791
vn 0.50931537 0.78537226 -0.35183558
vn 0.65730947 0.58095109 0.48004168
vn 0.30896398 -0.06212685 0.94904244
vn -0.27165416 -0.65773791 0.70255601
vn -0.58052975 -0.80864662 -0.09526750
vn -0.49368638 -0.32315570 -0.80736864
vn -0.03560766 0.40553167 -0.91338724
vn 0.44989917 0.82947761 -0.33099490
vn 0.59570354 0.62705052 0.50194120
vn 0.29157013 -0.04897222 0.95529503
vn -0.23172709 -0.68730807 0.68841124
vn -0.50509363 -0.85479832 -0.11916510
vn -0.44466540 -0.35363683 -0.82292992
vn -0.04988245 0.41365278 -0.90906715
vn 0.38304743 0.87018245 -0.30993074
vn 0.52665216 0.66940498 0.52396047
vn 0.27238664 -0.03707667 0.96147329
vn -0.18661083 -0.71470374 0.67407340
vn -0.42210826 -0.89524388 -0.14269924
vn -0.39099500 -0.38023141 -0.83818078
vn -0.06589198 0.42092970 -0.90469688
vn 0.30935299 0.90593445 -0.28910816
vn 0.45085350 0.70643497 0.54560125
vn 0.25169525 -0.02683870 0.96743435
vn -0.13665356 -0.73884797 0.65987080
vn -0.33286420 -0.92837530 -0.16529001
vn -0.33358467 -0.40192175 -0.85274857
vn -0.08348402 0.42702347 -0.90037847
vn 0.22991784 0.93528438 -0.26903713
vn 0.36953288 0.73669815 0.56632262
vn 0.22991218 -0.01859618 0.97303373
vn -0.08255707 -0.75872159 0.64616233
vn -0.23916039 -0.95292509 -0.18637645
vn -0.27366900 -0.41793445 -0.86627716
vn -0.10240610 0.43163243 -0.89621782
vn 0.14629707 0.95707333 -0.25021559
vn 0.28437218 0.75907362 0.58561057
vn 0.20756871 -0.01256441 0.97813982
vn -0.02534786 -0.77349651 0.63329357
vn -0.14312917 -0.96813768 -0.20548339
vn -0.21268632 -0.42785102 -0.87846911
vn -0.12232719 0.43451875 -0.89231694
vn 0.06035399 0.97058386 -0.23307614
vn 0.19734946 0.77291936 0.60303301
vn 0.18524732 -0.00882055 0.98265237
vn 0.03373452 -0.78263170 0.62157023
vn -0.04699629 -0.97385055 -0.22227561
vn -0.15211640 -0.43165404 -0.88912058
vn -0.14287172 0.43553412 -0.88876188
vn -0.02595178 0.97561842 -0.21793403
vn 0.11051542 0.77814609 0.61828393
vn 0.16352268 -0.00728659 0.98651266
vn 0.09336556 -0.78594059 0.61121213
vn 0.04716658 -0.97046542 -0.23658437
vn -0.09331453 -0.42969850 -0.89813787
vn -0.16366206 0.43463504 -0.88561118
vn -0.11078439 0.97248018 -0.20496137
vn 0.02576089 0.77517492 0.63122129
vn 0.14289859 -0.00775013 0.98970699
vn 0.15229319 -0.78357673 0.60234070
vn 0.13764322 -0.95882827 -0.24840012
vn -0.03737998 -0.42262971 -0.90553123
vn -0.18435389 0.43185940 -0.88289922
vn -0.19260798 0.96187055 -0.19418311
vn -0.05535857 0.76482683 0.64185303
vn 0.12376554 -0.00990177 0.99226213
vn 0.20945671 -0.77597135 0.59497589
vn 0.22317642 -0.94005668 -0.25784832
vn 0.01490597 -0.41125792 -0.91139716
vn -0.20466423 0.42731017 -0.88063532
vn -0.27028623 0.94473791 -0.18551475
vn -0.13172044 0.74816531 0.65030646
vn 0.10638186 -0.01338064 0.99423528
vn 0.26406097 -0.76372904 0.58905846
vn 0.30298769 -0.91536796 -0.26514143
vn 0.06308487 -0.39644191 -0.91588974
vn -0.22438417 0.42113131 -0.87880611
vn -0.34310114 0.92212838 -0.17877595
vn -0.20264423 0.72633421 0.65679067
vn 0.09087812 -0.01782341 0.99570256
vn 0.31558898 -0.74752837 0.58446985
vn 0.37672269 -0.88593888 -0.27054077
vn 0.10698162 -0.37900075 -0.91919166
vn -0.24337368 0.41347623 -0.87738621
vn -0.41070795 0.89505959 -0.17374516
vn -0.26783729 0.70042974 0.66155976
vn 0.07727902 -0.02288980 0.99674672
vn 0.36377680 -0.72803348 0.58106244
vn 0.44436124 -0.85281301 -0.27432278
vn 0.14663954 -0.35965556 -0.92149043
vn -0.26155797 0.40449163 -0.87634122
vn -0.47305861 0.86443686 -0.17018953
vn -0.32731172 0.67142379 0.66487378
vn 0.06552806 -0.02828343 0.99744982
vn 0.40856352 -0.70584065 0.57867503
vn 0.50611877 -0.81685615 -0.27674860
vn 0.18225116 -0.33899876 -0.92296493
vn -0.27891055 0.39430586 -0.87563229
vn -0.53031635 0.83101225 -0.16787842
vn -0.38129118 0.64011723 0.66698349
vn 0.05551296 -0.03375340 0.99788731
vn 0.45003170 -0.68144220 0.57715511
vn 0.56235462 -0.77874380 -0.27805656
vn 0.21409875 -0.31749555 -0.92377400
vn -0.29543743 0.38301477 -0.87522364
vn -0.58277380 0.79537261 -0.16660480
vn -0.43012866 0.60713917 0.66811031
vn 0.04709400 -0.03910902 0.99812460
vn 0.48835593 -0.65522063 0.57636309
vn 0.61350185 -0.73897177 -0.27845338
vn 0.24250636 -0.29549217 -0.92405361
vn -0.31116635 0.37068471 -0.87508190
vn -0.63079339 0.75794572 -0.16618660
vn -0.47424251 0.57295573 0.66844285
vn 0.04011763 -0.04419716 0.99821705
vn 0.52375954 -0.62745118 0.57617784
vn 0.66001338 -0.69788057 -0.27810970
vn 0.26780561 -0.27323046 -0.92391843
vn -0.32613897 0.35735637 -0.87517416
vn -0.67475647 0.71902096 -0.16647090
vn -0.51406449 0.53788853 0.66814202
vn 0.03443019 -0.04890416 0.99820983
vn 0.55648017 -0.59831399 0.57649827
vn 0.70232695 -0.65567988 -0.27716571
vn 0.29031751 -0.25087273 -0.92346019
vn -0.34039092 0.34303781 -0.87547648
vn -0.71503240 0.67877007 -0.16733162
vn -0.55001086 0.50214100 0.66733986
vn 0.02988167 -0.05314247 0.99813974
vn 0.58674902 -0.56790817 0.57723993
vn 0.74084026 -0.61247444 -0.27573684
vn 0.31033313 -0.22851387 -0.92275393
vn -0.35395789 0.32771489 -0.87596613
vn -0.75195551 0.63727081 -0.16866784
vn -0.58246326 0.46582678 0.66613966
vn 0.02633589 -0.05684992 0.99803537
vn 0.61477399 -0.53626686 0.57833451
vn 0.77589995 -0.56828731 -0.27391368
vn 0.32810956 -0.20619945 -0.92186004
vn -0.36686081 0.31135178 -0.87662601
vn -0.78581542 0.59452462 -0.17039515
vn -0.61175656 0.42898721 0.66462314
vn 0.02366693 -0.05997658 0.99791920
vn 0.64073175 -0.50337023 0.57972515
vn 0.80779034 -0.52308011 -0.27177545
vn 0.34386882 -0.18394172 -0.92082554
vn -0.37911201 0.29389754 -0.87743849
vn -0.81684482 0.55047798 -0.17244883
vn -0.63817030 0.39160714 0.66285938
vn 0.02175826 -0.06248162 0.99780893
vn 0.66475642 -0.46915397 0.58137202
vn 0.83673030 -0.47688213 -0.26919475
vn 0.35764894 -0.16165923 -0.91975731
vn -0.39100748 0.27540755 -0.87821627
vn -0.84532952 0.50495738 -0.17445917
vn -0.66194785 0.35357812 0.66091412
vn 0.02017756 -0.06415971 0.99773562
vn 0.68665427 -0.43347314 0.58361536
vn 0.87322968 -0.47429407 -0.11187115
vn 0.48753229 -0.21838769 -0.84535140
vn -0.26524675 0.20193544 -0.94279701
vn -0.81847692 0.47020492 -0.33015576
vn -0.75506127 0.38421521 0.53128260
vn -0.12267791 0.00870913 0.99240834
vn 0.60197413 -0.37335718 0.70585513
vn -0.54690266 0.78228521 0.29820678
vn -0.54690260 0.78228539 0.29820639
vn -0.54690289 0.78228533 0.29820612
vn -0.54690266 0.78228521 0.29820690
vn -0.54690236 0.78228545 0.29820678
vn -0.54690284 0.78228521 0.29820669
vn -0.54690397 0.78228354 0.29820889
vn 0.48170963 0.87479526 0.05185669
vn 0.48170990 0.87479508 0.05185657
vn 0.48171026 0.87479490 0.05185565
vn 0.48171046 0.87479472 0.05185752
vn 0.48170993 0.87479502 0.05185795
vn 0.48170814 0.87479609 0.05185544
vn 0.48170605 0.87479734 0.05185371
f 1//1 2//2 22//22
f 1//1 22//22 21//21
f 2//2 3//3 23//23
f 2//2 23//23 22//22
f 3//3 4//4 24//24
f 3//3 24//24 23//23
f 4//4 5//5 25//25
f 4//4 25//25 24//24
f 5//5 6//6 26//26
f 5//5 26//26 25//25
f 6//6 7//7 27//27
f 6//6 27//27 26//26
f 7//7 8//8 28//28
f 7//7 28//28 27//27
f 8//8 9//9 29//29
f 8//8 29//29 28//28
f 9//9 10//10 30//30
f 9//9 30//30 29//29
f 10//10 11//11 31//31
f 10//10 31//31 30//30
f 11//11 12//12 32//32
f 11//11 32//32 31//31
f 12//12 13//13 33//33
f 12//12 33//33 32//32
f 13//13 14//14 34//34
f 13//13 34//34 33//33
f 14//14 15//15 35//35
f 14//14 35//35 34//34
f 15//15 16//16 36//36
f 15//15 36//36 35//35
f 16//16 17//17 37//37
f 16//16 37//37 36//36
f 17//17 18//18 38//38
f 17//17 38//38 37//37
f 18//18 19//19 39//39
f 18//18 39//39 38//38
f 19//19 20//20 40//40
f 19//19 40//40 39//39
f 20//20 1//1 21//21
f 20//20 21//21 40//40
f 1//1 3//3 2//2
f 1//1 4//4 3//3
f 1//1 5//5 4//4
f 1//1 6//6 5//5
f 1//1 7//7 6//6
f 1//1 8//8 7//7
f 1//1 9//9 8//8
f 1//1 10//10 9//9
f 1//1 11//11 10//10
f 1//1 12//12 11//11
f 1//1 13//13 12//12
f 1//1 14//14 13//13
f 1//1 15//15 14//14
f 1//1 16//16 15//15
f 1//1 17//17 16//16
f 1//1 18//18 17//17
f 1//1 19//19 18//18
f 1//1 20//20 19//19
f 21//21 22//22 23//23
f 21//21 23//23 24//24
f 21//21 24//24 25//25
f 21//21 25//25 26//26
f 21//21 26//26 27//27
f 21//21 27//27 28//28
f 21//21 28//28 29//29
f 21//21 29//29 30//30
f 21//21 30//30 31//31
f 21//21 31//31 32//32
f 21//21 32//32 33//33
f 21//21 33//33 34//34
f 21//21 34//34 35//35
f 21//21 35//35 36//36
f 21//21 36//36 37//37
f 21//21 37//37 38//38
f 21//21 38//38 39//39
f 21//21 39//39 40//40
f 41//41 42//42 48//48
f 41//41 48//48 47//47
f 42//42 43//43 49//49
f 42//42 49//49 48//48
f 43//43 44//44 50//50
f 43//43 50//50 49//49
f 44//44 45//45 51//51
f 44//44 51//51 50//50
f 45//45 46//46 52//52
f 45//45 52//52 51//51
f 46//46 41//41 47//47
f 46//46 47//47 52//52
f 41//41 43//43 42//42
f 41//41 44//44 43//43
f 41//41 45//45 44//44
f 41//41 46//46 45//45
f 47//47 48//48 49//49
f 47//47 49//49 50//50
f 47//47 50//50 51//51
f 47//47 51//51 52//52
f 53//53 54//54 68//68
f 53//53 68//68 67//67
f 54//54 55//55 69//69
f 54//54 69//69 68//68
f 55//55 56//56 70//70
f 55//55 70//70 69//69
f 56//56 57//57 71//71
f 56//56 71//71 70//70
f 57//57 58//58 72//72
f 57//57 72//72 71//71
f 58//58 59//59 73//73
f 58//58 73//73 72//72
f 59//59 60//60 74//74
f 59//59 74//74 73//73
f 60//60 61//61 75//75
f 60//60 75//75 74//74
f 61//61 62//62 76//76
f 61//61 76//76 75//75
f 62//62 63//63 77//77
f 62//62 77//77 76//76
f 63//63 64//64 78//78
f 63//63 78//78 77//77
f 64//64 65//65 79//79
f 64//64 79//79 78//78
f 65//65 66//66 80//80
f 65//65 80//80 79//79
f 66//66 53//53 67//67
f 66//66 67//67 80//80
f 53//53 55//55 54//54
f 53//53 56//56 55//55
f 53//53 57//57 56//56
f 53//53 58//58 57//57
f 53//53 59//59 58//58
f 53//53 60//60 59//59
f 53//53 61//61 60//60
f 53//53 62//62 61//61
f 53//53 63//63 62//62
f 53//53 64//64 63//63
f 53//53 65//65 64//64
f 53//53 66//66 65//65
f 67//67 68//68 69//69
f 67//67 69//69 70//70
f 67//67 70//70 71//71
f 67//67 71//71 72//72
f 67//67 72//72 73//73
f 67//67 73//73 74//74
f 67//67 74//74 75//75
f 67//67 75//75 76//76
f 67//67 76//76 77//77
f 67//67 77//77 78//78
f 67//67 78//78 79//79
f 67//67 79//79 80//80
f 81//81 82//82 89//89
f 81//81 89//89 88//88
f 82//82 83//83 90//90
f 82//82 90//90 89//89
f 83//83 84//84 91//91
f 83//83 91//91 90//90
f 84//84 85//85 92//92
f 84//84 92//92 91//91
f 85//85 86//86 93//93
f 85//85 93//93 92//92
f 86//86 87//87 94//94
f 86//86 94//94 93//93
f 87//87 81//81 88//88
f 87//87 88//88 94//94
f 88//88 89//89 96//96
f 88//88 96//96 95//95
f 89//89 90//90 97//97
f 89//89 97//97 96//96
f 90//90 91//91 98//98
f 90//90 98//98 97//97
f 91//91 92//92 99//99
f 91//91 99//99 98//98
f 92//92 93//93 100//100
f 92//92 100//100 99//99
f 93//93 94//94 101//101
f 93//93 101//101 100//100
f 94//94 88//88 95//95
f 94//94 95//95 101//101
f 95//95 96//96 103//103
f 95//95 103//103 102//102
f 96//96 97//97 104//104
f 96//96 104//104 103//103
f 97//97 98//98 105//105
f 97//97 105//105 104//104
f 98//98 99//99 106//106
f 98//98 106//106 105//105
f 99//99 100//100 107//107
f 99//99 107//107 106//106
f 100//100 101//101 108//108
f 100//100 108//108 107//107
f 101//101 95//95 102//102
f 101//101 102//102 108//108
f 102//102 103//103 110//110
f 102//102 110//110 109//109
f 103//103 104//104 111//111
f 103//103 111//111 110//110
f 104//104 105//105 112//112
f 104//104 112//112 111//111
f 105//105 106//106 113//113
f 105//105 113//113 112//112
f 106//106 107//107 114//114
f 106//106 114//114 113//113
f 107//107 108//108 115//115
f 107//107 115//115 114//114
f 108//108 102//102 109//109
f 108//108 109//109 115//115
f 109//109 110//110 117//117
f 109//109 117//117 116//116
f 110//110 111//111 118//118
f 110//110 118//118 117//117
f 111//111 112//112 119//119
f 111//111 119//119 118//118
f 112//112 113//113 120//120
f 112//112 120//120 119//119
f 113//113 114//114 121//121
f 113//113 121//121 120//120
f 114//114 115//115 122//122
f 114//114 122//122 121//121
f 115//115 109//109 116//116
f 115//115 116//116 122//122
f 116//116 117//117 124//124
f 116//116 124//124 123//123
f 117//117 118//118 125//125
f 117//117 125//125 124//124
f 118//118 119//119 126//126
f 118//118 126//126 125//125
f 119//119 120//120 127//127
f 119//119 127//127 126//126
f 120//120 121//121 128//128
f 120//120 128//128 127//127
f 121//121 122//122 129//129
f 121//121 129//129 128//128
f 122//122 116//116 123//123
f 122//122 123//123 129//129
f 123//123 124//124 131//131
f 123//123 131//131 130//130
f 124//124 125//125 132//132
f 124//124 132//132 131//131
f 125//125 126//126 133//133
f 125//125 133//133 132//132
f 126//126 127//127 134//134
f 126//126 134//134 133//133
f 127//127 128//128 135//135
f 127//127 135//135 134//134
f 128//128 129//129 136//136
f 128//128 136//136 135//135
f 129//129 123//123 130//130
f 129//129 130//130 136//136
f 130//130 131//131 138//138
f 130//130 138//138 137//137
f 131//131 132//132 139//139
f 131//131 139//139 138//138
f 132//132 133//133 140//140
f 132//132 140//140 139//139
f 133//133 134//134 141//141
f 133//133 141//141 140//140
f 134//134 135//135 142//142
f 134//134 142//142 141//141
f 135//135 136//136 143//143
f 135//135 143//143 142//142
f 136//136 130//130 137//137
f 136//136 137//137 143//143
f 137//137 138//138 145//145
f 137//137 145//145 144//144
f 138//138 139//139 146//146
f 138//138 146//146 145//145
f 139//139 140//140 147//147
f 139//139 147//147 146//146
f 140//140 141//141 148//148
f 140//140 148//148 147//147
f 141//141 142//142 149//149
f 141//141 149//149 148//148
f 142//142 143//143 150//150
f 142//142 150//150 149//149
f 143//143 137//137 144//144
f 143//143 144//144 150//150
f 144//144 145//145 152//152
f 144//144 152//152 151//151
f 145//145 146//146 153//153
f 145//145 153//153 152//152
f 146//146 147//147 154//154
f 146//146 154//154 153//153
f 147//147 148//148 155//155
f 147//147 155//155 154//154
f 148//148 149//149 156//156
f 148//148 156//156 155//155
f 149//149 150//150 157//157
f 149//149 157//157 156//156
f 150//150 144//144 151//151
f 150//150 151//151 157//157
f 151//151 152//152 159//159
f 151//151 159//159 158//158
f 152//152 153//153 160//160
f 152//152 160//160 159//159
f 153//153 154//154 161//161
f 153//153 161//161 160//160
f 154//154 155//155 162//162
f 154//154 162//162 161//161
f 155//155 156//156 163//163
f 155//155 163//163 162//162
f 156//156 157//157 164//164
f 156//156 164//164 163//163
f 157//157 151//151 158//158
f 157//157 158//158 164//164
f 158//158 159//159 166//166
f 158//158 166//166 165//165
f 159//159 160//160 167//167
f 159//159 167//167 166//166
f 160//160 161//161 168//168
f 160//160 168//168 167//167
f 161//161 162//162 169//169
f 161//161 169//169 168//168
f 162//162 163//163 170//170
f 162//162 170//170 169//169
f 163//163 164//164 171//171
f 163//163 171//171 170//170
f 164//164 158//158 165//165
f 164//164 165//165 171//171
f 165//165 166//166 173//173
f 165//165 173//173 172//172
f 166//166 167//167 174//174
f 166//166 174//174 173//173
f 167//167 168//168 175//175
f 167//167 175//175 174//174
f 168//168 169//169 176//176
f 168//168 176//176 175//175
f 169//169 170//170 177//177
f 169//169 177//177 176//176
f 170//170 171//171 178//178
f 170//170 178//178 177//177
f 171//171 165//165 172//172
f 171//171 172//172 178//178
f 172//172 173//173 180//180
f 172//172 180//180 179//179
f 173//173 174//174 181//181
f 173//173 181//181 180//180
f 174//174 175//175 182//182
f 174//174 182//182 181//181
f 175//175 176//176 183//183
f 175//175 183//183 182//182
f 176//176 177//177 184//184
f 176//176 184//184 183//183
f 177//177 178//178 185//185
f 177//177 185//185 184//184
f 178//178 172//172 179//179
f 178//178 179//179 185//185
f 179//179 180//180 187//187
f 179//179 187//187 186//186
f 180//180 181//181 188//188
f 180//180 188//188 187//187
f 181//181 182//182 189//189
f 181//181 189//189 188//188
f 182//182 183//183 190//190
f 182//182 190//190 189//189
f 183//183 184//184 191//191
f 183//183 191//191 190//190
f 184//184 185//185 192//192
f 184//184 192//192 191//191
f 185//185 179//179 186//186
f 185//185 186//186 192//192
f 186//186 187//187 194//194
f 186//186 194//194 193//193
f 187//187 188//188 195//195
f 187//187 195//195 194//194
f 188//188 189//189 196//196
f 188//188 196//196 195//195
f 189//189 190//190 197//197
f 189//189 197//197 196//196
f 190//190 191//191 198//198
f 190//190 198//198 197//197
f 191//191 192//192 199//199
f 191//191 199//199 198//198
f 192//192 186//186 193//193
f 192//192 193//193 199//199
f 193//193 194//194 201//201
f 193//193 201//201 200//200
f 194//194 195//195 202//202
f 194//194 202//202 201//201
f 195//195 196//196 203//203
f 195//195 203//203 202//202
f 196//196 197//197 204//204
f 196//196 204//204 203//203
f 197//197 198//198 205//205
f 197//197 205//205 204//204
f 198//198 199//199 206//206
f 198//198 206//206 205//205
f 199//199 193//193 200//200
f 199//199 200//200 206//206
f 200//200 201//201 208//208
f 200//200 208//208 207//207
f 201//201 202//202 209//209
f 201//201 209//209 208//208
f 202//202 203//203 210//210
f 202//202 210//210 209//209
f 203//203 204//204 211//211
f 203//203 211//211 210//210
f 204//204 205//205 212//212
f 204//204 212//212 211//211
f 205//205 206//206 213//213
f 205//205 213//213 212//212
f 206//206 200//200 207//207
f 206//206 207//207 213//213
f 207//207 208//208 215//215
f 207//207 215//215 214//214
f 208//208 209//209 216//216
f 208//208 216//216 215//215
f 209//209 210//210 217//217
f 209//209 217//217 216//216
f 210//210 211//211 218//218
f 210//210 218//218 217//217
f 211//211 212//212 219//219
f 211//211 219//219 218//218
f 212//212 213//213 220//220
f 212//212 220//220 219//219
f 213//213 207//207 214//214
f 213//213 214//214 220//220
f 214//214 215//215 222//222
f 214//214 222//222 221//221
f 215//215 216//216 223//223
f 215//215 223//223 222//222
f 216//216 217//217 224//224
f 216//216 224//224 223//223
f 217//217 218//218 225//225
f 217//217 225//225 224//224
f 218//218 219//219 226//226
f 218//218 226//226 225//225
f 219//219 220//220 227//227
f 219//219 227//227 226//226
f 220//220 214//214 221//221
f 220//220 221//221 227//227
f 221//221 222//222 229//229
f 221//221 229//229 228//228
f 222//222 223//223 230//230
f 222//222 230//230 229//229
f 223//223 224//224 231//231
f 223//223 231//231 230//230
f 224//224 225//225 232//232
f 224//224 232//232 231//231
f 225//225 226//226 233//233
f 225//225 233//233 232//232
f 226//226 227//227 234//234
f 226//226 234//234 233//233
f 227//227 221//221 228//228
f 227//227 228//228 234//234
f 228//228 229//229 236//236
f 228//228 236//236 235//235
f 229//229 230//230 237//237
f 229//229 237//237 236//236
f 230//230 231//231 238//238
f 230//230 238//238 237//237
f 231//231 232//232 239//239
f 231//231 239//239 238//238
f 232//232 233//233 240//240
f 232//232 240//240 239//239
f 233//233 234//234 241//241
f 233//233 241//241 240//240
f 234//234 228//228 235//235
f 234//234 235//235 241//241
f 235//235 236//236 243//243
f 235//235 243//243 242//242
f 236//236 237//237 244//244
f 236//236 244//244 243//243
f 237//237 238//238 245//245
f 237//237 245//245 244//244
f 238//238 239//239 246//246
f 238//238 246//246 245//245
f 239//239 240//240 247//247
f 239//239 247//247 246//246
f 240//240 241//241 248//248
f 240//240 248//248 247//247
f 241//241 235//235 242//242
f 241//241 242//242 248//248
f 242//242 243//243 250//250
f 242//242 250//250 249//249
f 243//243 244//244 251//251
f 243//243 251//251 250//250
f 244//244 245//245 252//252
f 244//244 252//252 251//251
f 245//245 246//246 253//253
f 245//245 253//253 252//252
f 246//246 247//247 254//254
f 246//246 254//254 253//253
f 247//247 248//248 255//255
f 247//247 255//255 254//254
f 248//248 242//242 249//249
f 248//248 249//249 255//255
f 249//249 250//250 257//257
f 249//249 257//257 256//256
f 250//250 251//251 258//258
f 250//250 258//258 257//257
f 251//251 252//252 259//259
f 251//251 259//259 258//258
f 252//252 253//253 260//260
f 252//252 260//260 259//259
f 253//253 254//254 261//261
f 253//253 261//261 260//260
f 254//254 255//255 262//262
f 254//254 262//262 261//261
f 255//255 249//249 256//256
f 255//255 256//256 262//262
f 256//256 257//257 264//264
f 256//256 264//264 263//263
f 257//257 258//258 265//265
f 257//257 265//265 264//264
f 258//258 259//259 266//266
f 258//258 266//266 265//265
f 259//259 260//260 267//267
f 259//259 267//267 266//266
f 260//260 261//261 268//268
f 260//260 268//268 267//267
f 261//261 262//262 269//269
f 261//261 269//269 268//268
f 262//262 256//256 263//263
f 262//262 263//263 269//269
f 263//263 264//264 271//271
f 263//263 271//271 270//270
f 264//264 265//265 272//272
f 264//264 272//272 271//271
f 265//265 266//266 273//273
f 265//265 273//273 272//272
f 266//266 267//267 274//274
f 266//266 274//274 273//273
f 267//267 268//268 275//275
f 267//267 275//275 274//274
f 268//268 269//269 276//276
f 268//268 276//276 275//275
f 269//269 263//263 270//270
f 269//269 270//270 276//276
f 279//279 278//278 277//277
f 280//280 279//279 277//277
f 281//281 280//280 277//277
f 282//282 281//281 277//277
f 283//283 282//282 277//277
f 284//284 285//285 286//286
f 284//284 286//286 287//287
f 284//284 287//287 288//288
f 284//284 288//288 289//289
f 284//284 289//289 290//290
f 291//291 292//292 299//299
f 291//291 299//299 298//298
f 292//292 293//293 300//300
f 292//292 300//300 299//299
f 293//293 294//294 301//301
f 293//293 301//301 300//300
f 294//294 295//295 302//302
f 294//294 302//302 301//301
f 295//295 296//296 303//303
f 295//295 303//303 302//302
f 296//296 297//297 304//304
f 296//296 304//304 303//303
f 297//297 291//291 298//298
f 297//297 298//298 304//304
f 298//298 299//299 306//306
f 298//298 306//306 305//305
f 299//299 300//300 307//307
f 299//299 307//307 306//306
f 300//300 301//301 308//308
f 300//300 308//308 307//307
f 301//301 302//302 309//309
f 301//301 309//309 308//308
f 302//302 303//303 310//310
f 302//302 310//310 309//309
f 303//303 304//304 311//311
f 303//303 311//311 310//310
f 304//304 298//298 305//305
f 304//304 305//305 311//311
f 305//305 306//306 313//313
f 305//305 313//313 312//312
f 306//306 307//307 314//314
f 306//306 314//314 313//313
f 307//307 308//308 315//315
f 307//307 315//315 314//314
f 308//308 309//309 316//316
f 308//308 316//316 315//315
f 309//309 310//310 317//317
f 309//309 317//317 316//316
f 310//310 311//311 318//318
f 310//310 318//318 317//317
f 311//311 305//305 312//312
f 311//311 312//312 318//318
f 312//312 313//313 320//320
f 312//312 320//320 319//319
f 313//313 314//314 321//321
f 313//313 321//321 320//320
f 314//314 315//315 322//322
f 314//314 322//322 321//321
f 315//315 316//316 323//323
f 315//315 323//323 322//322
f 316//316 317//317 324//324
f 316//316 324//324 323//323
f 317//317 318//318 325//325
f 317//317 325//325 324//324
f 318//318 312//312 319//319
f 318//318 319//319 325//325
f 319//319 320//320 327//327
f 319//319 327//327 326//326
f 320//320 321//321 328//328
f 320//320 328//328 327//327
f 321//321 322//322 329//329
f 321//321 329//329 328//328
f 322//322 323//323 330//330
f 322//322 330//330 329//329
f 323//323 324//324 331//331
f 323//323 331//331 330//330
f 324//324 325//325 332//332
f 324//324 332//332 331//331
f 325//325 319//319 326//326
f 325//325 326//326 332//332
f 326//326 327//327 334//334
f 326//326 334//334 333//333
f 327//327 328//328 335//335
f 327//327 335//335 334//334
f 328//328 329//329 336//336
f 328//328 336//336 335//335
f 329//329 330//330 337//337
f 329//329 337//337 336//336
f 330//330 331//331 338//338
f 330//330 338//338 337//337
f 331//331 332//332 339//339
f 331//331 339//339 338//338
f 332//332 326//326 333//333
f 332//332 333//333 339//339
f 333//333 334//334 341//341
f 333//333 341//341 340//340
f 334//334 335//335 342//342
f 334//334 342//342 341//341
f 335//335 336//336 343//343
f 335//335 343//343 342//342
f 336//336 337//337 344//344
f 336//336 344//344 343//343
f 337//337 338//338 345//345
f 337//337 345//345 344//344
f 338//338 339//339 346//346
f 338//338 346//346 345//345
f 339//339 333//333 340//340
f 339//339 340//340 346//346
f 340//340 341//341 348//348
f 340//340 348//348 347//347
f 341//341 342//342 349//349
f 341//341 349//349 348//348
f 342//342 343//343 350//350
f 342//342 350//350 349//349
f 343//343 344//344 351//351
f 343//343 351//351 350//350
f 344//344 345//345 352//352
f 344//344 352//352 351//351
f 345//345 346//346 353//353
f 345//345 353//353 352//352
f 346//346 340//340 347//347
f 346//346 347//347 353//353
f 347//347 348//348 355//355
f 347//347 355//355 354//354
f 348//348 349//349 356//356
f 348//348 356//356 355//355
f 349//349 350//350 357//357
f 349//349 357//357 356//356
f 350//350 351//351 358//358
f 350//350 358//358 357//357
f 351//351 352//352 359//359
f 351//351 359//359 358//358
f 352//352 353//353 360//360
f 352//352 360//360 359//359
f 353//353 347//347 354//354
f 353//353 354//354 360//360
f 354//354 355//355 362//362
f 354//354 362//362 361//361
f 355//355 356//356 363//363
f 355//355 363//363 362//362
f 356//356 357//357 364//364
f 356//356 364//364 363//363
f 357//357 358//358 365//365
f 357//357 365//365 364//364
f 358//358 359//359 366//366
f 358//358 366//366 365//365
f 359//359 360//360 367//367
f 359//359 367//367 366//366
f 360//360 354//354 361//361
f 360//360 361//361 367//367
f 361//361 362//362 369//369
f 361//361 369//369 368//368
f 362//362 363//363 370//370
f 362//362 370//370 369//369
f 363//363 364//364 371//371
f 363//363 371//371 370//370
f 364//364 365//365 372//372
f 364//364 372//372 371//371
f 365//365 366//366 373//373
f 365//365 373//373 372//372
f 366//366 367//367 374//374
f 366//366 374//374 373//373
f 367//367 361//361 368//368
f 367//367 368//368 374//374
f 368//368 369//369 376//376
f 368//368 376//376 375//375
f 369//369 370//370 377//377
f 369//369 377//377 376//376
f 370//370 371//371 378//378
f 370//370 378//378 377//377
f 371//371 372//372 379//379
f 371//371 379//379 378//378
f 372//372 373//373 380//380
f 372//372 380//380 379//379
f 373//373 374//374 381//381
f 373//373 381//381 380//380
f 374//374 368//368 375//375
f 374//374 375//375 381//381
f 375//375 376//376 383//383
f 375//375 383//383 382//382
f 376//376 377//377 384//384
f 376//376 384//384 383//383
f 377//377 378//378 385//385
f 377//377 385//385 384//384
f 378//378 379//379 386//386
f 378//378 386//386 385//385
f 379//379 380//380 387//387
f 379//379 387//387 386//386
f 380//380 381//381 388//388
f 380//380 388//388 387//387
f 381//381 375//375 382//382
f 381//381 382//382 388//388
f 382//382 383//383 390//390
f 382//382 390//390 389//389
f 383//383 384//384 391//391
f 383//383 391//391 390//390
f 384//384 385//385 392//392
f 384//384 392//392 391//391
f 385//385 386//386 393//393
f 385//385 393//393 392//392
f 386//386 387//387 394//394
f 386//386 394//394 393//393
f 387//387 388//388 395//395
f 387//387 395//395 394//394
f 388//388 382//382 389//389
f 388//388 389//389 395//395
f 389//389 390//390 397//397
f 389//389 397//397 396//396
f 390//390 391//391 398//398
f 390//390 398//398 397//397
f 391//391 392//392 399//399
f 391//391 399//399 398//398
f 392//392 393//393 400//400
f 392//392 400//400 399//399
f 393//393 394//394 401//401
f 393//393 401//401 400//400
f 394//394 395//395 402//402
f 394//394 402//402 401//401
f 395//395 389//389 396//396
f 395//395 396//396 402//402
f 396//396 397//397 404//404
f 396//396 404//404 403//403
f 397//397 398//398 405//405
f 397//397 405//405 404//404
f 398//398 399//399 406//406
f 398//398 406//406 405//405
f 399//399 400//400 407//407
f 399//399 407//407 406//406
f 400//400 401//401 408//408
f 400//400 408//408 407//407
f 401//401 402//402 409//409
f 401//401 409//409 408//408
f 402//402 396//396 403//403
f 402//402 403//403 409//409
f 403//403 404//404 411//411
f 403//403 411//411 410//410
f 404//404 405//405 412//412
f 404//404 412//412 411//411
f 405//405 406//406 413//413
f 405//405 413//413 412//412
f 406//406 407//407 414//414
f 406//406 414//414 413//413
f 407//407 408//408 415//415
f 407//407 415//415 414//414
f 408//408 409//409 416//416
f 408//408 416//416 415//415
f 409//409 403//403 410//410
f 409//409 410//410 416//416
f 410//410 411//411 418//418
f 410//410 418//418 417//417
f 411//411 412//412 419//419
f 411//411 419//419 418//418
f 412//412 413//413 420//420
f 412//412 420//420 419//419
f 413//413 414//414 421//421
f 413//413 421//421 420//420
f 414//414 415//415 422//422
f 414//414 422//422 421//421
f 415//415 416//416 423//423
f 415//415 423//423 422//422
f 416//416 410//410 417//417
f 416//416 417//417 423//423
f 417//417 418//418 425//425
f 417//417 425//425 424//424
f 418//418 419//419 426//426
f 418//418 426//426 425//425
f 419//419 420//420 427//427
f 419//419 427//427 426//426
f 420//420 421//421 428//428
f 420//420 428//428 427//427
f 421//421 422//422 429//429
f 421//421 429//429 428//428
f 422//422 423//423 430//430
f 422//422 430//430 429//429
f 423//423 417//417 424//424
f 423//423 424//424 430//430
f 424//424 425//425 432//432
f 424//424 432//432 431//431
f 425//425 426//426 433//433
f 425//425 433//433 432//432
f 426//426 427//427 434//434
f 426//426 434//434 433//433
f 427//427 428//428 435//435
f 427//427 435//435 434//434
f 428//428 429//429 436//436
f 428//428 436//436 435//435
f 429//429 430//430 437//437
f 429//429 437//437 436//436
f 430//430 424//424 431//431
f 430//430 431//431 437//437
f 431//431 432//432 439//439
f 431//431 439//439 438//438
f 432//432 433//433 440//440
f 432//432 440//440 439//439
f 433//433 434//434 441//441
f 433//433 441//441 440//440
f 434//434 435//435 442//442
f 434//434 442//442 441//441
f 435//435 436//436 443//443
f 435//435 443//443 442//442
f 436//436 437//437 444//444
f 436//436 444//444 443//443
f 437//437 431//431 438//438
f 437//437 438//438 444//444
f 438//438 439//439 446//446
f 438//438 446//446 445//445
f 439//439 440//440 447//447
f 439//439 447//447 446//446
f 440//440 441//441 448//448
f 440//440 448//448 447//447
f 441//441 442//442 449//449
f 441//441 449//449 448//448
f 442//442 443//443 450//450
f 442//442 450//450 449//449
f 443//443 444//444 451//451
f 443//443 451//451 450//450
f 444//444 438//438 445//445
f 444//444 445//445 451//451
f 445//445 446//446 453//453
f 445//445 453//453 452//452
f 446//446 447//447 454//454
f 446//446 454//454 453//453
f 447//447 448//448 455//455
f 447//447 455//455 454//454
f 448//448 449//449 456//456
f 448//448 456//456 455//455
f 449//449 450//450 457//457
f 449//449 457//457 456//456
f 450//450 451//451 458//458
f 450//450 458//458 457//457
f 451//451 445//445 452//452
f 451//451 452//452 458//458
f 452//452 453//453 460//460
f 452//452 460//460 459//459
f 453//453 454//454 461//461
f 453//453 461//461 460//460
f 454//454 455//455 462//462
f 454//454 462//462 461//461
f 455//455 456//456 463//463
f 455//455 463//463 462//462
f 456//456 457//457 464//464
f 456//456 464//464 463//463
f 457//457 458//458 465//465
f 457//457 465//465 464//464
f 458//458 452//452 459//459
f 458//458 459//459 465//465
f 459//459 460//460 467//467
f 459//459 467//467 466//466
f 460//460 461//461 468//468
f 460//460 468//468 467//467
f 461//461 462//462 469//469
f 461//461 469//469 468//468
f 462//462 463//463 470//470
f 462//462 470//470 469//469
f 463//463 464//464 471//471
f 463//463 471//471 470//470
f 464//464 465//465 472//472
f 464//464 472//472 471//471
f 465//465 459//459 466//466
f 465//465 466//466 472//472
f 466//466 467//467 474//474
f 466//466 474//474 473//473
f 467//467 468//468 475//475
f 467//467 475//475 474//474
f 468//468 469//469 476//476
f 468//468 476//476 475//475
f 469//469 470//470 477//477
f 469//469 477//477 476//476
f 470//470 471//471 478//478
f 470//470 478//478 477//477
f 471//471 472//472 479//479
f 471//471 479//479 478//478
f 472//472 466//466 473//473
f 472//472 473//473 479//479
f 473//473 474//474 481//481
f 473//473 481//481 480//480
f 474//474 475//475 482//482
f 474//474 482//482 481//481
f 475//475 476//476 483//483
f 475//475 483//483 482//482
f 476//476 477//477 484//484
f 476//476 484//484 483//483
f 477//477 478//478 485//485
f 477//477 485//485 484//484
f 478//478 479//479 486//486
f 478//478 486//486 485//485
f 479//479 473//473 480//480
f 479//479 480//480 486//486
f 489//489 488//488 487//487
f 490//490 489//489 487//487
f 491//491 490//490 487//487
f 492//492 491//491 487//487
f 493//493 492//492 487//487
f 494//494 495//495 496//496
f 494//494 496//496 497//497
f 494//494 497//497 498//498
f 494//494 498//498 499//499
f 494//494 499//499 500//500
