mtllib vehicle.mtl
o base_silver
usemtl silver
v -0.09980000 0.00400000 0.01200000
v -0.09980000 0.00380423 0.01076393
v -0.09980000 0.00323607 0.00964886
v -0.09980000 0.00235114 0.00876393
v -0.09980000 0.00123607 0.00819577
v -0.09980000 0.00000000 0.00800000
v -0.09980000 -0.00123607 0.00819577
v -0.09980000 -0.00235114 0.00876393
v -0.09980000 -0.00323607 0.00964886
v -0.09980000 -0.00380423 0.01076393
v -0.09980000 -0.00400000 0.01200000
v -0.09980000 -0.00380423 0.01323607
v -0.09980000 -0.00323607 0.01435114
v -0.09980000 -0.00235114 0.01523607
v -0.09980000 -0.00123607 0.01580423
v -0.09980000 -0.00000000 0.01600000
v -0.09980000 0.00123607 0.01580423
v -0.09980000 0.00235114 0.01523607
v -0.09980000 0.00323607 0.01435114
v -0.09980000 0.00380423 0.01323607
v -0.10200000 0.00400000 0.01200000
v -0.10200000 0.00380423 0.01076393
v -0.10200000 0.00323607 0.00964886
v -0.10200000 0.00235114 0.00876393
v -0.10200000 0.00123607 0.00819577
v -0.10200000 0.00000000 0.00800000
v -0.10200000 -0.00123607 0.00819577
v -0.10200000 -0.00235114 0.00876393
v -0.10200000 -0.00323607 0.00964886
v -0.10200000 -0.00380423 0.01076393
v -0.10200000 -0.00400000 0.01200000
v -0.10200000 -0.00380423 0.01323607
v -0.10200000 -0.00323607 0.01435114
v -0.10200000 -0.00235114 0.01523607
v -0.10200000 -0.00123607 0.01580423
v -0.10200000 -0.00000000 0.01600000
v -0.10200000 0.00123607 0.01580423
v -0.10200000 0.00235114 0.01523607
v -0.10200000 0.00323607 0.01435114
v -0.10200000 0.00380423 0.01323607
v -0.06100000 0.01750000 0.05400000
v -0.05900000 0.01750000 0.05400000
v -0.05900000 0.02050000 0.05400000
v -0.06100000 0.02050000 0.05400000
v -0.06100000 0.01750000 0.05500000
v -0.05900000 0.01750000 0.05500000
v -0.05900000 0.02050000 0.05500000
v -0.06100000 0.02050000 0.05500000
v -0.05650000 0.01750000 0.05400000
v -0.05450000 0.01750000 0.05400000
v -0.05450000 0.02050000 0.05400000
v -0.05650000 0.02050000 0.05400000
v -0.05650000 0.01750000 0.05500000
v -0.05450000 0.01750000 0.05500000
v -0.05450000 0.02050000 0.05500000
v -0.05650000 0.02050000 0.05500000
v -0.05200000 0.01750000 0.05400000
v -0.05000000 0.01750000 0.05400000
v -0.05000000 0.02050000 0.05400000
v -0.05200000 0.02050000 0.05400000
v -0.05200000 0.01750000 0.05500000
v -0.05000000 0.01750000 0.05500000
v -0.05000000 0.02050000 0.05500000
v -0.05200000 0.02050000 0.05500000
v -0.04750000 0.01750000 0.05400000
v -0.04550000 0.01750000 0.05400000
v -0.04550000 0.02050000 0.05400000
v -0.04750000 0.02050000 0.05400000
v -0.04750000 0.01750000 0.05500000
v -0.04550000 0.01750000 0.05500000
v -0.04550000 0.02050000 0.05500000
v -0.04750000 0.02050000 0.05500000
v -0.04300000 0.01750000 0.05400000
v -0.04100000 0.01750000 0.05400000
v -0.04100000 0.02050000 0.05400000
v -0.04300000 0.02050000 0.05400000
v -0.04300000 0.01750000 0.05500000
v -0.04100000 0.01750000 0.05500000
v -0.04100000 0.02050000 0.05500000
v -0.04300000 0.02050000 0.05500000
v -0.03850000 0.01750000 0.05400000
v -0.03650000 0.01750000 0.05400000
v -0.03650000 0.02050000 0.05400000
v -0.03850000 0.02050000 0.05400000
v -0.03850000 0.01750000 0.05500000
v -0.03650000 0.01750000 0.05500000
v -0.03650000 0.02050000 0.05500000
v -0.03850000 0.02050000 0.05500000
v -0.03400000 0.01750000 0.05400000
v -0.03200000 0.01750000 0.05400000
v -0.03200000 0.02050000 0.05400000
v -0.03400000 0.02050000 0.05400000
v -0.03400000 0.01750000 0.05500000
v -0.03200000 0.01750000 0.05500000
v -0.03200000 0.02050000 0.05500000
v -0.03400000 0.02050000 0.05500000
v -0.02950000 0.01750000 0.05400000
v -0.02750000 0.01750000 0.05400000
v -0.02750000 0.02050000 0.05400000
v -0.02950000 0.02050000 0.05400000
v -0.02950000 0.01750000 0.05500000
v -0.02750000 0.01750000 0.05500000
v -0.02750000 0.02050000 0.05500000
v -0.02950000 0.02050000 0.05500000
v -0.02500000 0.01750000 0.05400000
v -0.02300000 0.01750000 0.05400000
v -0.02300000 0.02050000 0.05400000
v -0.02500000 0.02050000 0.05400000
v -0.02500000 0.01750000 0.05500000
v -0.02300000 0.01750000 0.05500000
v -0.02300000 0.02050000 0.05500000
v -0.02500000 0.02050000 0.05500000
v -0.02050000 0.01750000 0.05400000
v -0.01850000 0.01750000 0.05400000
v -0.01850000 0.02050000 0.05400000
v -0.02050000 0.02050000 0.05400000
v -0.02050000 0.01750000 0.05500000
v -0.01850000 0.01750000 0.05500000
v -0.01850000 0.02050000 0.05500000
v -0.02050000 0.02050000 0.05500000
v -0.05300000 -0.03700000 0.04600000
v -0.04100000 -0.03700000 0.04600000
v -0.04100000 -0.02300000 0.04600000
v -0.05300000 -0.02300000 0.04600000
v -0.05300000 -0.03700000 0.05600000
v -0.04100000 -0.03700000 0.05600000
v -0.04100000 -0.02300000 0.05600000
v -0.05300000 -0.02300000 0.05600000
v -0.03700000 -0.03700000 0.04600000
v -0.02500000 -0.03700000 0.04600000
v -0.02500000 -0.02300000 0.04600000
v -0.03700000 -0.02300000 0.04600000
v -0.03700000 -0.03700000 0.05600000
v -0.02500000 -0.03700000 0.05600000
v -0.02500000 -0.02300000 0.05600000
v -0.03700000 -0.02300000 0.05600000
vn 0.99660474 0.08221990 -0.00434079
vn 0.05913923 0.93180823 -0.35810038
vn 0.22523263 0.75694054 -0.61344218
vn 0.44646856 0.48705289 -0.75062990
vn 0.64156741 0.19824520 -0.74100614
vn 0.77093822 -0.03357866 -0.63602412
vn 0.84566343 -0.19145909 -0.49819350
vn 0.88710231 -0.29061565 -0.35859737
vn 0.90963227 -0.34848320 -0.22611642
vn 0.92084837 -0.37667367 -0.10077361
vn 0.92425132 -0.38125366 0.02012822
vn 0.92084837 -0.36396861 0.13987574
vn 0.90963227 -0.32273671 0.26155341
vn 0.88710231 -0.25124118 0.38720465
vn 0.84566349 -0.13793729 0.51558363
vn 0.77093834 0.03357898 0.63602400
vn 0.64156693 0.27516878 0.71601254
vn 0.44646850 0.56338388 0.69517237
vn 0.22523265 0.81732553 0.53032929
vn 0.05913927 0.96433485 0.25799397
vn -0.99660474 0.08221990 0.00434079
vn -0.05913923 0.96433485 -0.25799391
vn -0.22523259 0.81732577 -0.53032905
vn -0.44646859 0.56338382 -0.69517231
vn -0.64156741 0.27516830 -0.71601230
vn -0.77093822 0.03357866 -0.63602412
vn -0.84566343 -0.13793683 -0.51558393
vn -0.88710231 -0.25124118 -0.38720465
vn -0.90963227 -0.32273671 -0.26155332
vn -0.92084837 -0.36396867 -0.13987568
vn -0.92425132 -0.38125366 -0.02012822
vn -0.92084825 -0.37667367 0.10077364
vn -0.90963227 -0.34848309 0.22611648
vn -0.88710231 -0.29061565 0.35859737
vn -0.84566349 -0.19145925 0.49819320
vn -0.77093834 -0.03357898 0.63602400
vn -0.64156693 0.19824602 0.74100631
vn -0.44646844 0.48705292 0.75062996
vn -0.22523262 0.75694042 0.61344224
vn -0.05913927 0.93180823 0.35810053
vn -0.38411018 -0.51214695 -0.76822186
vn 0.44232520 -0.14744174 -0.88465208
vn 0.38411018 0.51214695 -0.76822186
vn -0.44232520 0.14744174 -0.88465208
vn -0.68824655 -0.22941554 0.68824786
vn 0.23076884 -0.30769181 0.92307711
vn 0.68824655 0.22941554 0.68824786
vn -0.23076884 0.30769181 0.92307711
vn -0.38411018 -0.51214695 -0.76822186
vn 0.44232520 -0.14744174 -0.88465208
vn 0.38411018 0.51214695 -0.76822186
vn -0.44232520 0.14744174 -0.88465208
vn -0.68824655 -0.22941554 0.68824786
vn 0.23076884 -0.30769181 0.92307711
vn 0.68824655 0.22941554 0.68824786
vn -0.23076884 0.30769181 0.92307711
vn -0.38411018 -0.51214695 -0.76822186
vn 0.44232520 -0.14744174 -0.88465208
vn 0.38411018 0.51214695 -0.76822186
vn -0.44232520 0.14744174 -0.88465208
vn -0.68824655 -0.22941554 0.68824786
vn 0.23076884 -0.30769181 0.92307711
vn 0.68824655 0.22941554 0.68824786
vn -0.23076884 0.30769181 0.92307711
vn -0.38411018 -0.51214695 -0.76822186
vn 0.44232520 -0.14744174 -0.88465208
vn 0.38411018 0.51214695 -0.76822186
vn -0.44232520 0.14744174 -0.88465208
vn -0.68824655 -0.22941554 0.68824786
vn 0.23076884 -0.30769181 0.92307711
vn 0.68824655 0.22941554 0.68824786
vn -0.23076884 0.30769181 0.92307711
vn -0.38411018 -0.51214695 -0.76822186
vn 0.44232520 -0.14744174 -0.88465208
vn 0.38411018 0.51214695 -0.76822186
vn -0.44232520 0.14744174 -0.88465208
vn -0.68824655 -0.22941554 0.68824786
vn 0.23076884 -0.30769181 0.92307711
vn 0.68824655 0.22941554 0.68824786
vn -0.23076884 0.30769181 0.92307711
vn -0.38411018 -0.51214695 -0.76822186
vn 0.44232520 -0.14744174 -0.88465208
vn 0.38411018 0.51214695 -0.76822186
vn -0.44232520 0.14744174 -0.88465208
vn -0.68824655 -0.22941554 0.68824786
vn 0.23076884 -0.30769181 0.92307711
vn 0.68824655 0.22941554 0.68824786
vn -0.23076884 0.30769181 0.92307711
vn -0.38411018 -0.51214695 -0.76822186
vn 0.44232520 -0.14744174 -0.88465208
vn 0.38411018 0.51214695 -0.76822186
vn -0.44232520 0.14744174 -0.88465208
vn -0.68824655 -0.22941554 0.68824786
vn 0.23076884 -0.30769181 0.92307711
vn 0.68824655 0.22941554 0.68824786
vn -0.23076884 0.30769181 0.92307711
vn -0.38411018 -0.51214695 -0.76822186
vn 0.44232520 -0.14744174 -0.88465208
vn 0.38411018 0.51214695 -0.76822186
vn -0.44232520 0.14744174 -0.88465208
vn -0.68824655 -0.22941554 0.68824786
vn 0.23076884 -0.30769181 0.92307711
vn 0.68824655 0.22941554 0.68824786
vn -0.23076884 0.30769181 0.92307711
vn -0.38411018 -0.51214695 -0.76822186
vn 0.44232520 -0.14744174 -0.88465208
vn 0.38411018 0.51214695 -0.76822186
vn -0.44232520 0.14744174 -0.88465208
vn -0.68824655 -0.22941554 0.68824786
vn 0.23076884 -0.30769181 0.92307711
vn 0.68824655 0.22941554 0.68824786
vn -0.23076884 0.30769181 0.92307711
vn -0.38411018 -0.51214695 -0.76822186
vn 0.44232520 -0.14744174 -0.88465208
vn 0.38411018 0.51214695 -0.76822186
vn -0.44232520 0.14744174 -0.88465208
vn -0.68824655 -0.22941554 0.68824786
vn 0.23076884 -0.30769181 0.92307711
vn 0.68824655 0.22941554 0.68824786
vn -0.23076884 0.30769181 0.92307711
vn -0.43117979 -0.73916519 -0.51741558
vn 0.61736953 -0.26458690 -0.74084324
vn 0.43117979 0.73916519 -0.51741558
vn -0.61736953 0.26458690 -0.74084324
vn -0.80486369 -0.34494153 0.48291805
vn 0.32110101 -0.55045879 0.77064216
vn 0.80486369 0.34494153 0.48291805
vn -0.32110101 0.55045879 0.77064216
vn -0.43117970 -0.73916513 -0.51741558
vn 0.61736947 -0.26458690 -0.74084324
vn 0.43117970 0.73916513 -0.51741558
vn -0.61736947 0.26458690 -0.74084324
vn -0.80486363 -0.34494153 0.48291811
vn 0.32110095 -0.55045873 0.77064216
vn 0.80486363 0.34494153 0.48291811
vn -0.32110095 0.55045873 0.77064216
f 1//1 2//2 22//22
f 1//1 22//22 21//21
f 2//2 3//3 23//23
f 2//2 23//23 22//22
f 3//3 4//4 24//24
f 3//3 24//24 23//23
f 4//4 5//5 25//25
f 4//4 25//25 24//24
f 5//5 6//6 26//26
f 5//5 26//26 25//25
f 6//6 7//7 27//27
f 6//6 27//27 26//26
f 7//7 8//8 28//28
f 7//7 28//28 27//27
f 8//8 9//9 29//29
f 8//8 29//29 28//28
f 9//9 10//10 30//30
f 9//9 30//30 29//29
f 10//10 11//11 31//31
f 10//10 31//31 30//30
f 11//11 12//12 32//32
f 11//11 32//32 31//31
f 12//12 13//13 33//33
f 12//12 33//33 32//32
f 13//13 14//14 34//34
f 13//13 34//34 33//33
f 14//14 15//15 35//35
f 14//14 35//35 34//34
f 15//15 16//16 36//36
f 15//15 36//36 35//35
f 16//16 17//17 37//37
f 16//16 37//37 36//36
f 17//17 18//18 38//38
f 17//17 38//38 37//37
f 18//18 19//19 39//39
f 18//18 39//39 38//38
f 19//19 20//20 40//40
f 19//19 40//40 39//39
f 20//20 1//1 21//21
f 20//20 21//21 40//40
f 1//1 3//3 2//2
f 1//1 4//4 3//3
f 1//1 5//5 4//4
f 1//1 6//6 5//5
f 1//1 7//7 6//6
f 1//1 8//8 7//7
f 1//1 9//9 8//8
f 1//1 10//10 9//9
f 1//1 11//11 10//10
f 1//1 12//12 11//11
f 1//1 13//13 12//12
f 1//1 14//14 13//13
f 1//1 15//15 14//14
f 1//1 16//16 15//15
f 1//1 17//17 16//16
f 1//1 18//18 17//17
f 1//1 19//19 18//18
f 1//1 20//20 19//19
f 21//21 22//22 23//23
f 21//21 23//23 24//24
f 21//21 24//24 25//25
f 21//21 25//25 26//26
f 21//21 26//26 27//27
f 21//21 27//27 28//28
f 21//21 28//28 29//29
f 21//21 29//29 30//30
f 21//21 30//30 31//31
f 21//21 31//31 32//32
f 21//21 32//32 33//33
f 21//21 33//33 34//34
f 21//21 34//34 35//35
f 21//21 35//35 36//36
f 21//21 36//36 37//37
f 21//21 37//37 38//38
f 21//21 38//38 39//39
f 21//21 39//39 40//40
f 42//42 41//41 44//44
f 44//44 43//43 42//42
f 48//48 45//45 46//46
f 46//46 47//47 48//48
f 41//41 42//42 46//46
f 41//41 46//46 45//45
f 42//42 43//43 47//47
f 42//42 47//47 46//46
f 43//43 44//44 48//48
f 43//43 48//48 47//47
f 44//44 41//41 45//45
f 44//44 45//45 48//48
f 50//50 49//49 52//52
f 52//52 51//51 50//50
f 56//56 53//53 54//54
f 54//54 55//55 56//56
f 49//49 50//50 54//54
f 49//49 54//54 53//53
f 50//50 51//51 55//55
f 50//50 55//55 54//54
f 51//51 52//52 56//56
f 51//51 56//56 55//55
f 52//52 49//49 53//53
f 52//52 53//53 56//56
f 58//58 57//57 60//60
f 60//60 59//59 58//58
f 64//64 61//61 62//62
f 62//62 63//63 64//64
f 57//57 58//58 62//62
f 57//57 62//62 61//61
f 58//58 59//59 63//63
f 58//58 63//63 62//62
f 59//59 60//60 64//64
f 59//59 64//64 63//63
f 60//60 57//57 61//61
f 60//60 61//61 64//64
f 66//66 65//65 68//68
f 68//68 67//67 66//66
f 72//72 69//69 70//70
f 70//70 71//71 72//72
f 65//65 66//66 70//70
f 65//65 70//70 69//69
f 66//66 67//67 71//71
f 66//66 71//71 70//70
f 67//67 68//68 72//72
f 67//67 72//72 71//71
f 68//68 65//65 69//69
f 68//68 69//69 72//72
f 74//74 73//73 76//76
f 76//76 75//75 74//74
f 80//80 77//77 78//78
f 78//78 79//79 80//80
f 73//73 74//74 78//78
f 73//73 78//78 77//77
f 74//74 75//75 79//79
f 74//74 79//79 78//78
f 75//75 76//76 80//80
f 75//75 80//80 79//79
f 76//76 73//73 77//77
f 76//76 77//77 80//80
f 82//82 81//81 84//84
f 84//84 83//83 82//82
f 88//88 85//85 86//86
f 86//86 87//87 88//88
f 81//81 82//82 86//86
f 81//81 86//86 85//85
f 82//82 83//83 87//87
f 82//82 87//87 86//86
f 83//83 84//84 88//88
f 83//83 88//88 87//87
f 84//84 81//81 85//85
f 84//84 85//85 88//88
f 90//90 89//89 92//92
f 92//92 91//91 90//90
f 96//96 93//93 94//94
f 94//94 95//95 96//96
f 89//89 90//90 94//94
f 89//89 94//94 93//93
f 90//90 91//91 95//95
f 90//90 95//95 94//94
f 91//91 92//92 96//96
f 91//91 96//96 95//95
f 92//92 89//89 93//93
f 92//92 93//93 96//96
f 98//98 97//97 100//100
f 100//100 99//99 98//98
f 104//104 101//101 102//102
f 102//102 103//103 104//104
f 97//97 98//98 102//102
f 97//97 102//102 101//101
f 98//98 99//99 103//103
f 98//98 103//103 102//102
f 99//99 100//100 104//104
f 99//99 104//104 103//103
f 100//100 97//97 101//101
f 100//100 101//101 104//104
f 106//106 105//105 108//108
f 108//108 107//107 106//106
f 112//112 109//109 110//110
f 110//110 111//111 112//112
f 105//105 106//106 110//110
f 105//105 110//110 109//109
f 106//106 107//107 111//111
f 106//106 111//111 110//110
f 107//107 108//108 112//112
f 107//107 112//112 111//111
f 108//108 105//105 109//109
f 108//108 109//109 112//112
f 114//114 113//113 116//116
f 116//116 115//115 114//114
f 120//120 117//117 118//118
f 118//118 119//119 120//120
f 113//113 114//114 118//118
f 113//113 118//118 117//117
f 114//114 115//115 119//119
f 114//114 119//119 118//118
f 115//115 116//116 120//120
f 115//115 120//120 119//119
f 116//116 113//113 117//117
f 116//116 117//117 120//120
f 122//122 121//121 124//124
f 124//124 123//123 122//122
f 128//128 125//125 126//126
f 126//126 127//127 128//128
f 121//121 122//122 126//126
f 121//121 126//126 125//125
f 122//122 123//123 127//127
f 122//122 127//127 126//126
f 123//123 124//124 128//128
f 123//123 128//128 127//127
f 124//124 121//121 125//125
f 124//124 125//125 128//128
f 130//130 129//129 132//132
f 132//132 131//131 130//130
f 136//136 133//133 134//134
f 134//134 135//135 136//136
f 129//129 130//130 134//134
f 129//129 134//134 133//133
f 130//130 131//131 135//135
f 130//130 135//135 134//134
f 131//131 132//132 136//136
f 131//131 136//136 135//135
f 132//132 129//129 133//133
f 132//132 133//133 136//136
