mtllib vehicle.mtl
o base_gold
usemtl gold
v -0.05800000 -0.01970000 0.03400000
v -0.05901638 -0.02018946 0.03400000
v -0.05926741 -0.02128928 0.03400000
v -0.05856405 -0.02217126 0.03400000
v -0.05743595 -0.02217126 0.03400000
v -0.05673259 -0.02128928 0.03400000
v -0.05698362 -0.02018946 0.03400000
v -0.05800000 -0.01970000 0.05500000
v -0.05901638 -0.02018946 0.05500000
v -0.05926741 -0.02128928 0.05500000
v -0.05856405 -0.02217126 0.05500000
v -0.05743595 -0.02217126 0.05500000
v -0.05673259 -0.02128928 0.05500000
v -0.05698362 -0.02018946 0.05500000
v -0.05800000 0.02230000 0.03400000
v -0.05901638 0.02181054 0.03400000
v -0.05926741 0.02071072 0.03400000
v -0.05856405 0.01982874 0.03400000
v -0.05743595 0.01982874 0.03400000
v -0.05673259 0.02071072 0.03400000
v -0.05698362 0.02181054 0.03400000
v -0.05800000 0.02230000 0.05500000
v -0.05901638 0.02181054 0.05500000
v -0.05926741 0.02071072 0.05500000
v -0.05856405 0.01982874 0.05500000
v -0.05743595 0.01982874 0.05500000
v -0.05673259 0.02071072 0.05500000
v -0.05698362 0.02181054 0.05500000
v -0.02000000 -0.01970000 0.03400000
v -0.02101638 -0.02018946 0.03400000
v -0.02126741 -0.02128928 0.03400000
v -0.02056405 -0.02217126 0.03400000
v -0.01943595 -0.02217126 0.03400000
v -0.01873259 -0.02128928 0.03400000
v -0.01898362 -0.02018946 0.03400000
v -0.02000000 -0.01970000 0.05500000
v -0.02101638 -0.02018946 0.05500000
v -0.02126741 -0.02128928 0.05500000
v -0.02056405 -0.02217126 0.05500000
v -0.01943595 -0.02217126 0.05500000
v -0.01873259 -0.02128928 0.05500000
v -0.01898362 -0.02018946 0.05500000
v -0.02000000 0.02230000 0.03400000
v -0.02101638 0.02181054 0.03400000
v -0.02126741 0.02071072 0.03400000
v -0.02056405 0.01982874 0.03400000
v -0.01943595 0.01982874 0.03400000
v -0.01873259 0.02071072 0.03400000
v -0.01898362 0.02181054 0.03400000
v -0.02000000 0.02230000 0.05500000
v -0.02101638 0.02181054 0.05500000
v -0.02126741 0.02071072 0.05500000
v -0.02056405 0.01982874 0.05500000
v -0.01943595 0.01982874 0.05500000
v -0.01873259 0.02071072 0.05500000
v -0.01898362 0.02181054 0.05500000
v -0.06100000 -0.02050000 0.05400000
v -0.05900000 -0.02050000 0.05400000
v -0.05900000 -0.01750000 0.05400000
v -0.06100000 -0.01750000 0.05400000
v -0.06100000 -0.02050000 0.05500000
v -0.05900000 -0.02050000 0.05500000
v -0.05900000 -0.01750000 0.05500000
v -0.06100000 -0.01750000 0.05500000
v -0.05650000 -0.02050000 0.05400000
v -0.05450000 -0.02050000 0.05400000
v -0.05450000 -0.01750000 0.05400000
v -0.05650000 -0.01750000 0.05400000
v -0.05650000 -0.02050000 0.05500000
v -0.05450000 -0.02050000 0.05500000
v -0.05450000 -0.01750000 0.05500000
v -0.05650000 -0.01750000 0.05500000
v -0.05200000 -0.02050000 0.05400000
v -0.05000000 -0.02050000 0.05400000
v -0.05000000 -0.01750000 0.05400000
v -0.05200000 -0.01750000 0.05400000
v -0.05200000 -0.02050000 0.05500000
v -0.05000000 -0.02050000 0.05500000
v -0.05000000 -0.01750000 0.05500000
v -0.05200000 -0.01750000 0.05500000
v -0.04750000 -0.02050000 0.05400000
v -0.04550000 -0.02050000 0.05400000
v -0.04550000 -0.01750000 0.05400000
v -0.04750000 -0.01750000 0.05400000
v -0.04750000 -0.02050000 0.05500000
v -0.04550000 -0.02050000 0.05500000
v -0.04550000 -0.01750000 0.05500000
v -0.04750000 -0.01750000 0.05500000
v -0.04300000 -0.02050000 0.05400000
v -0.04100000 -0.02050000 0.05400000
v -0.04100000 -0.01750000 0.05400000
v -0.04300000 -0.01750000 0.05400000
v -0.04300000 -0.02050000 0.05500000
v -0.04100000 -0.02050000 0.05500000
v -0.04100000 -0.01750000 0.05500000
v -0.04300000 -0.01750000 0.05500000
v -0.03850000 -0.02050000 0.05400000
v -0.03650000 -0.02050000 0.05400000
v -0.03650000 -0.01750000 0.05400000
v -0.03850000 -0.01750000 0.05400000
v -0.03850000 -0.02050000 0.05500000
v -0.03650000 -0.02050000 0.05500000
v -0.03650000 -0.01750000 0.05500000
v -0.03850000 -0.01750000 0.05500000
v -0.03400000 -0.02050000 0.05400000
v -0.03200000 -0.02050000 0.05400000
v -0.03200000 -0.01750000 0.05400000
v -0.03400000 -0.01750000 0.05400000
v -0.03400000 -0.02050000 0.05500000
v -0.03200000 -0.02050000 0.05500000
v -0.03200000 -0.01750000 0.05500000
v -0.03400000 -0.01750000 0.05500000
v -0.02950000 -0.02050000 0.05400000
v -0.02750000 -0.02050000 0.05400000
v -0.02750000 -0.01750000 0.05400000
v -0.02950000 -0.01750000 0.05400000
v -0.02950000 -0.02050000 0.05500000
v -0.02750000 -0.02050000 0.05500000
v -0.02750000 -0.01750000 0.05500000
v -0.02950000 -0.01750000 0.05500000
v -0.02500000 -0.02050000 0.05400000
v -0.02300000 -0.02050000 0.05400000
v -0.02300000 -0.01750000 0.05400000
v -0.02500000 -0.01750000 0.05400000
v -0.02500000 -0.02050000 0.05500000
v -0.02300000 -0.02050000 0.05500000
v -0.02300000 -0.01750000 0.05500000
v -0.02500000 -0.01750000 0.05500000
v -0.02050000 -0.02050000 0.05400000
v -0.01850000 -0.02050000 0.05400000
v -0.01850000 -0.01750000 0.05400000
v -0.02050000 -0.01750000 0.05400000
v -0.02050000 -0.02050000 0.05500000
v -0.01850000 -0.02050000 0.05500000
v -0.01850000 -0.01750000 0.05500000
v -0.02050000 -0.01750000 0.05500000
vn -0.15690832 0.97746885 -0.14118978
vn -0.87066686 0.49163386 -0.01534031
vn -0.92618722 -0.37376690 -0.04975385
vn -0.28474650 -0.95548683 -0.07722968
vn 0.56949288 -0.81836021 -0.07722960
vn 0.99663723 -0.06510569 -0.04975371
vn 0.67305028 0.73943758 -0.01534027
vn 0.15690851 0.97746879 0.14118996
vn -0.67304909 0.73943871 0.01534030
vn -0.99663723 -0.06510569 0.04975383
vn -0.56949288 -0.81836021 0.07722966
vn 0.28474650 -0.95548683 0.07722963
vn 0.92618722 -0.37376690 0.04975373
vn 0.87066746 0.49163297 0.01534026
vn -0.15690774 0.97746891 -0.14118986
vn -0.87066674 0.49163413 -0.01534033
vn -0.92618740 -0.37376648 -0.04975382
vn -0.28474703 -0.95548660 -0.07722968
vn 0.56949371 -0.81835967 -0.07722957
vn 0.99663723 -0.06510566 -0.04975371
vn 0.67304963 0.73943818 -0.01534029
vn 0.15690792 0.97746879 0.14119002
vn -0.67304844 0.73943925 0.01534032
vn -0.99663723 -0.06510566 0.04975383
vn -0.56949371 -0.81835967 0.07722963
vn 0.28474703 -0.95548660 0.07722963
vn 0.92618740 -0.37376648 0.04975370
vn 0.87066722 0.49163318 0.01534028
vn -0.15690821 0.97746885 -0.14118981
vn -0.87066686 0.49163386 -0.01534031
vn -0.92618722 -0.37376690 -0.04975385
vn -0.28474614 -0.95548689 -0.07722966
vn 0.56949258 -0.81836039 -0.07722967
vn 0.99663723 -0.06510569 -0.04975377
vn 0.67304969 0.73943818 -0.01534029
vn 0.15690830 0.97746885 0.14118990
vn -0.67304909 0.73943871 0.01534030
vn -0.99663723 -0.06510569 0.04975383
vn -0.56949258 -0.81836039 0.07722970
vn 0.28474614 -0.95548689 0.07722963
vn 0.92618722 -0.37376690 0.04975379
vn 0.87066716 0.49163342 0.01534029
vn -0.15690762 0.97746885 -0.14118987
vn -0.87066674 0.49163413 -0.01534033
vn -0.92618740 -0.37376648 -0.04975382
vn -0.28474671 -0.95548666 -0.07722965
vn 0.56949347 -0.81835985 -0.07722964
vn 0.99663723 -0.06510566 -0.04975377
vn 0.67304903 0.73943877 -0.01534031
vn 0.15690771 0.97746885 0.14118995
vn -0.67304844 0.73943925 0.01534032
vn -0.99663723 -0.06510566 0.04975383
vn -0.56949347 -0.81835985 0.07722966
vn 0.28474671 -0.95548666 0.07722963
vn 0.92618740 -0.37376648 0.04975376
vn 0.87066704 0.49163368 0.01534030
vn -0.38411018 -0.51214695 -0.76822186
vn 0.44232520 -0.14744174 -0.88465208
vn 0.38411018 0.51214695 -0.76822186
vn -0.44232520 0.14744174 -0.88465208
vn -0.68824655 -0.22941554 0.68824786
vn 0.23076884 -0.30769181 0.92307711
vn 0.68824655 0.22941554 0.68824786
vn -0.23076884 0.30769181 0.92307711
vn -0.38411018 -0.51214695 -0.76822186
vn 0.44232520 -0.14744174 -0.88465208
vn 0.38411018 0.51214695 -0.76822186
vn -0.44232520 0.14744174 -0.88465208
vn -0.68824655 -0.22941554 0.68824786
vn 0.23076884 -0.30769181 0.92307711
vn 0.68824655 0.22941554 0.68824786
vn -0.23076884 0.30769181 0.92307711
vn -0.38411018 -0.51214695 -0.76822186
vn 0.44232520 -0.14744174 -0.88465208
vn 0.38411018 0.51214695 -0.76822186
vn -0.44232520 0.14744174 -0.88465208
vn -0.68824655 -0.22941554 0.68824786
vn 0.23076884 -0.30769181 0.92307711
vn 0.68824655 0.22941554 0.68824786
vn -0.23076884 0.30769181 0.92307711
vn -0.38411018 -0.51214695 -0.76822186
vn 0.44232520 -0.14744174 -0.88465208
vn 0.38411018 0.51214695 -0.76822186
vn -0.44232520 0.14744174 -0.88465208
vn -0.68824655 -0.22941554 0.68824786
vn 0.23076884 -0.30769181 0.92307711
vn 0.68824655 0.22941554 0.68824786
vn -0.23076884 0.30769181 0.92307711
vn -0.38411018 -0.51214695 -0.76822186
vn 0.44232520 -0.14744174 -0.88465208
vn 0.38411018 0.51214695 -0.76822186
vn -0.44232520 0.14744174 -0.88465208
vn -0.68824655 -0.22941554 0.68824786
vn 0.23076884 -0.30769181 0.92307711
vn 0.68824655 0.22941554 0.68824786
vn -0.23076884 0.30769181 0.92307711
vn -0.38411018 -0.51214695 -0.76822186
vn 0.44232520 -0.14744174 -0.88465208
vn 0.38411018 0.51214695 -0.76822186
vn -0.44232520 0.14744174 -0.88465208
vn -0.68824655 -0.22941554 0.68824786
vn 0.23076884 -0.30769181 0.92307711
vn 0.68824655 0.22941554 0.68824786
vn -0.23076884 0.30769181 0.92307711
vn -0.38411018 -0.51214695 -0.76822186
vn 0.44232520 -0.14744174 -0.88465208
vn 0.38411018 0.51214695 -0.76822186
vn -0.44232520 0.14744174 -0.88465208
vn -0.68824655 -0.22941554 0.68824786
vn 0.23076884 -0.30769181 0.92307711
vn 0.68824655 0.22941554 0.68824786
vn -0.23076884 0.30769181 0.92307711
vn -0.38411018 -0.51214695 -0.76822186
vn 0.44232520 -0.14744174 -0.88465208
vn 0.38411018 0.51214695 -0.76822186
vn -0.44232520 0.14744174 -0.88465208
vn -0.68824655 -0.22941554 0.68824786
vn 0.23076884 -0.30769181 0.92307711
vn 0.68824655 0.22941554 0.68824786
vn -0.23076884 0.30769181 0.92307711
vn -0.38411018 -0.51214695 -0.76822186
vn 0.44232520 -0.14744174 -0.88465208
vn 0.38411018 0.51214695 -0.76822186
vn -0.44232520 0.14744174 -0.88465208
vn -0.68824655 -0.22941554 0.68824786
vn 0.23076884 -0.30769181 0.92307711
vn 0.68824655 0.22941554 0.68824786
vn -0.23076884 0.30769181 0.92307711
vn -0.38411018 -0.51214695 -0.76822186
vn 0.44232520 -0.14744174 -0.88465208
vn 0.38411018 0.51214695 -0.76822186
vn -0.44232520 0.14744174 -0.88465208
vn -0.68824655 -0.22941554 0.68824786
vn 0.23076884 -0.30769181 0.92307711
vn 0.68824655 0.22941554 0.68824786
vn -0.23076884 0.30769181 0.92307711
f 1//1 2//2 9//9
f 1//1 9//9 8//8
f 2//2 3//3 10//10
f 2//2 10//10 9//9
f 3//3 4//4 11//11
f 3//3 11//11 10//10
f 4//4 5//5 12//12
f 4//4 12//12 11//11
f 5//5 6//6 13//13
f 5//5 13//13 12//12
f 6//6 7//7 14//14
f 6//6 14//14 13//13
f 7//7 1//1 8//8
f 7//7 8//8 14//14
f 1//1 3//3 2//2
f 1//1 4//4 3//3
f 1//1 5//5 4//4
f 1//1 6//6 5//5
f 1//1 7//7 6//6
f 8//8 9//9 10//10
f 8//8 10//10 11//11
f 8//8 11//11 12//12
f 8//8 12//12 13//13
f 8//8 13//13 14//14
f 15//15 16//16 23//23
f 15//15 23//23 22//22
f 16//16 17//17 24//24
f 16//16 24//24 23//23
f 17//17 18//18 25//25
f 17//17 25//25 24//24
f 18//18 19//19 26//26
f 18//18 26//26 25//25
f 19//19 20//20 27//27
f 19//19 27//27 26//26
f 20//20 21//21 28//28
f 20//20 28//28 27//27
f 21//21 15//15 22//22
f 21//21 22//22 28//28
f 15//15 17//17 16//16
f 15//15 18//18 17//17
f 15//15 19//19 18//18
f 15//15 20//20 19//19
f 15//15 21//21 20//20
f 22//22 23//23 24//24
f 22//22 24//24 25//25
f 22//22 25//25 26//26
f 22//22 26//26 27//27
f 22//22 27//27 28//28
f 29//29 30//30 37//37
f 29//29 37//37 36//36
f 30//30 31//31 38//38
f 30//30 38//38 37//37
f 31//31 32//32 39//39
f 31//31 39//39 38//38
f 32//32 33//33 40//40
f 32//32 40//40 39//39
f 33//33 34//34 41//41
f 33//33 41//41 40//40
f 34//34 35//35 42//42
f 34//34 42//42 41//41
f 35//35 29//29 36//36
f 35//35 36//36 42//42
f 29//29 31//31 30//30
f 29//29 32//32 31//31
f 29//29 33//33 32//32
f 29//29 34//34 33//33
f 29//29 35//35 34//34
f 36//36 37//37 38//38
f 36//36 38//38 39//39
f 36//36 39//39 40//40
f 36//36 40//40 41//41
f 36//36 41//41 42//42
f 43//43 44//44 51//51
f 43//43 51//51 50//50
f 44//44 45//45 52//52
f 44//44 52//52 51//51
f 45//45 46//46 53//53
f 45//45 53//53 52//52
f 46//46 47//47 54//54
f 46//46 54//54 53//53
f 47//47 48//48 55//55
f 47//47 55//55 54//54
f 48//48 49//49 56//56
f 48//48 56//56 55//55
f 49//49 43//43 50//50
f 49//49 50//50 56//56
f 43//43 45//45 44//44
f 43//43 46//46 45//45
f 43//43 47//47 46//46
f 43//43 48//48 47//47
f 43//43 49//49 48//48
f 50//50 51//51 52//52
f 50//50 52//52 53//53
f 50//50 53//53 54//54
f 50//50 54//54 55//55
f 50//50 55//55 56//56
f 58//58 57//57 60//60
f 60//60 59//59 58//58
f 64//64 61//61 62//62
f 62//62 63//63 64//64
f 57//57 58//58 62//62
f 57//57 62//62 61//61
f 58//58 59//59 63//63
f 58//58 63//63 62//62
f 59//59 60//60 64//64
f 59//59 64//64 63//63
f 60//60 57//57 61//61
f 60//60 61//61 64//64
f 66//66 65//65 68//68
f 68//68 67//67 66//66
f 72//72 69//69 70//70
f 70//70 71//71 72//72
f 65//65 66//66 70//70
f 65//65 70//70 69//69
f 66//66 67//67 71//71
f 66//66 71//71 70//70
f 67//67 68//68 72//72
f 67//67 72//72 71//71
f 68//68 65//65 69//69
f 68//68 69//69 72//72
f 74//74 73//73 76//76
f 76//76 75//75 74//74
f 80//80 77//77 78//78
f 78//78 79//79 80//80
f 73//73 74//74 78//78
f 73//73 78//78 77//77
f 74//74 75//75 79//79
f 74//74 79//79 78//78
f 75//75 76//76 80//80
f 75//75 80//80 79//79
f 76//76 73//73 77//77
f 76//76 77//77 80//80
f 82//82 81//81 84//84
f 84//84 83//83 82//82
f 88//88 85//85 86//86
f 86//86 87//87 88//88
f 81//81 82//82 86//86
f 81//81 86//86 85//85
f 82//82 83//83 87//87
f 82//82 87//87 86//86
f 83//83 84//84 88//88
f 83//83 88//88 87//87
f 84//84 81//81 85//85
f 84//84 85//85 88//88
f 90//90 89//89 92//92
f 92//92 91//91 90//90
f 96//96 93//93 94//94
f 94//94 95//95 96//96
f 89//89 90//90 94//94
f 89//89 94//94 93//93
f 90//90 91//91 95//95
f 90//90 95//95 94//94
f 91//91 92//92 96//96
f 91//91 96//96 95//95
f 92//92 89//89 93//93
f 92//92 93//93 96//96
f 98//98 97//97 100//100
f 100//100 99//99 98//98
f 104//104 101//101 102//102
f 102//102 103//103 104//104
f 97//97 98//98 102//102
f 97//97 102//102 101//101
f 98//98 99//99 103//103
f 98//98 103//103 102//102
f 99//99 100//100 104//104
f 99//99 104//104 103//103
f 100//100 97//97 101//101
f 100//100 101//101 104//104
f 106//106 105//105 108//108
f 108//108 107//107 106//106
f 112//112 109//109 110//110
f 110//110 111//111 112//112
f 105//105 106//106 110//110
f 105//105 110//110 109//109
f 106//106 107//107 111//111
f 106//106 111//111 110//110
f 107//107 108//108 112//112
f 107//107 112//112 111//111
f 108//108 105//105 109//109
f 108//108 109//109 112//112
f 114//114 113//113 116//116
f 116//116 115//115 114//114
f 120//120 117//117 118//118
f 118//118 119//119 120//120
f 113//113 114//114 118//118
f 113//113 118//118 117//117
f 114//114 115//115 119//119
f 114//114 119//119 118//118
f 115//115 116//116 120//120
f 115//115 120//120 119//119
f 116//116 113//113 117//117
f 116//116 117//117 120//120
f 122//122 121//121 124//124
f 124//124 123//123 122//122
f 128//128 125//125 126//126
f 126//126 127//127 128//128
f 121//121 122//122 126//126
f 121//121 126//126 125//125
f 122//122 123//123 127//127
f 122//122 127//127 126//126
f 123//123 124//124 128//128
f 123//123 128//128 127//127
f 124//124 121//121 125//125
f 124//124 125//125 128//128
f 130//130 129//129 132//132
f 132//132 131//131 130//130
f 136//136 133//133 134//134
f 134//134 135//135 136//136
f 129//129 130//130 134//134
f 129//129 134//134 133//133
f 130//130 131//131 135//135
f 130//130 135//135 134//134
f 131//131 132//132 136//136
f 131//131 136//136 135//135
f 132//132 129//129 133//133
f 132//132 133//133 136//136
