mtllib vehicle.mtl
o base_marker
usemtl marker
v -0.08400000 0.05600000 0.07680000
v -0.08181871 0.05600000 0.07723389
v -0.08198474 0.05683475 0.07723389
v -0.08245759 0.05754241 0.07723389
v -0.08316525 0.05801525 0.07723389
v -0.08400000 0.05818130 0.07723389
v -0.08483475 0.05801525 0.07723389
v -0.08554241 0.05754241 0.07723389
v -0.08601525 0.05683475 0.07723389
v -0.08618130 0.05600000 0.07723389
v -0.08601525 0.05516525 0.07723389
v -0.08554241 0.05445759 0.07723389
v -0.08483475 0.05398475 0.07723389
v -0.08400000 0.05381870 0.07723389
v -0.08316525 0.05398475 0.07723389
v -0.08245759 0.05445759 0.07723389
v -0.08198474 0.05516525 0.07723389
v -0.07996949 0.05600000 0.07846949
v -0.08027630 0.05754241 0.07846949
v -0.08115000 0.05885000 0.07846949
v -0.08245759 0.05972371 0.07846949
v -0.08400000 0.06003051 0.07846949
v -0.08554241 0.05972371 0.07846949
v -0.08685000 0.05885000 0.07846949
v -0.08772370 0.05754241 0.07846949
v -0.08803051 0.05600000 0.07846949
v -0.08772370 0.05445759 0.07846949
v -0.08685000 0.05315000 0.07846949
v -0.08554241 0.05227629 0.07846949
v -0.08400000 0.05196949 0.07846949
v -0.08245759 0.05227629 0.07846949
v -0.08115000 0.05315000 0.07846949
v -0.08027630 0.05445759 0.07846949
v -0.07873388 0.05600000 0.08031870
v -0.07913475 0.05801525 0.08031870
v -0.08027630 0.05972371 0.08031870
v -0.08198474 0.06086525 0.08031870
v -0.08400000 0.06126611 0.08031870
v -0.08601525 0.06086525 0.08031870
v -0.08772370 0.05972371 0.08031870
v -0.08886526 0.05801525 0.08031870
v -0.08926611 0.05600000 0.08031870
v -0.08886526 0.05398475 0.08031870
v -0.08772370 0.05227629 0.08031870
v -0.08601525 0.05113475 0.08031870
v -0.08400000 0.05073389 0.08031870
v -0.08198474 0.05113475 0.08031870
v -0.08027630 0.05227629 0.08031870
v -0.07913475 0.05398475 0.08031870
v -0.07830000 0.05600000 0.08250000
v -0.07873388 0.05818130 0.08250000
v -0.07996949 0.06003051 0.08250000
v -0.08181871 0.06126611 0.08250000
v -0.08400000 0.06170000 0.08250000
v -0.08618130 0.06126611 0.08250000
v -0.08803051 0.06003051 0.08250000
v -0.08926611 0.05818130 0.08250000
v -0.08970000 0.05600000 0.08250000
v -0.08926611 0.05381870 0.08250000
v -0.08803051 0.05196949 0.08250000
v -0.08618130 0.05073389 0.08250000
v -0.08400000 0.05030000 0.08250000
v -0.08181871 0.05073389 0.08250000
v -0.07996949 0.05196949 0.08250000
v -0.07873388 0.05381870 0.08250000
v -0.07873388 0.05600000 0.08468129
v -0.07913475 0.05801525 0.08468129
v -0.08027630 0.05972371 0.08468129
v -0.08198474 0.06086525 0.08468129
v -0.08400000 0.06126611 0.08468129
v -0.08601525 0.06086525 0.08468129
v -0.08772370 0.05972371 0.08468129
v -0.08886526 0.05801525 0.08468129
v -0.08926611 0.05600000 0.08468129
v -0.08886526 0.05398475 0.08468129
v -0.08772370 0.05227629 0.08468129
v -0.08601525 0.05113475 0.08468129
v -0.08400000 0.05073389 0.08468129
v -0.08198474 0.05113475 0.08468129
v -0.08027630 0.05227629 0.08468129
v -0.07913475 0.05398475 0.08468129
v -0.07996949 0.05600000 0.08653051
v -0.08027630 0.05754241 0.08653051
v -0.08115000 0.05885000 0.08653051
v -0.08245759 0.05972371 0.08653051
v -0.08400000 0.06003051 0.08653051
v -0.08554241 0.05972371 0.08653051
v -0.08685000 0.05885000 0.08653051
v -0.08772370 0.05754241 0.08653051
v -0.08803051 0.05600000 0.08653051
v -0.08772370 0.05445759 0.08653051
v -0.08685000 0.05315000 0.08653051
v -0.08554241 0.05227629 0.08653051
v -0.08400000 0.05196949 0.08653051
v -0.08245759 0.05227629 0.08653051
v -0.08115000 0.05315000 0.08653051
v -0.08027630 0.05445759 0.08653051
v -0.08181871 0.05600000 0.08776611
v -0.08198474 0.05683475 0.08776611
v -0.08245759 0.05754241 0.08776611
v -0.08316525 0.05801525 0.08776611
v -0.08400000 0.05818130 0.08776611
v -0.08483475 0.05801525 0.08776611
v -0.08554241 0.05754241 0.08776611
v -0.08601525 0.05683475 0.08776611
v -0.08618130 0.05600000 0.08776611
v -0.08601525 0.05516525 0.08776611
v -0.08554241 0.05445759 0.08776611
v -0.08483475 0.05398475 0.08776611
v -0.08400000 0.05381870 0.08776611
v -0.08316525 0.05398475 0.08776611
v -0.08245759 0.05445759 0.08776611
v -0.08198474 0.05516525 0.08776611
v -0.08400000 0.05600000 0.08820000
v -0.06900000 -0.05900000 0.07680000
v -0.06681871 -0.05900000 0.07723389
v -0.06698474 -0.05816526 0.07723389
v -0.06745759 -0.05745759 0.07723389
v -0.06816526 -0.05698474 0.07723389
v -0.06900000 -0.05681871 0.07723389
v -0.06983475 -0.05698474 0.07723389
v -0.07054241 -0.05745759 0.07723389
v -0.07101525 -0.05816526 0.07723389
v -0.07118130 -0.05900000 0.07723389
v -0.07101525 -0.05983474 0.07723389
v -0.07054241 -0.06054241 0.07723389
v -0.06983475 -0.06101526 0.07723389
v -0.06900000 -0.06118130 0.07723389
v -0.06816526 -0.06101526 0.07723389
v -0.06745759 -0.06054241 0.07723389
v -0.06698474 -0.05983474 0.07723389
v -0.06496949 -0.05900000 0.07846949
v -0.06527629 -0.05745759 0.07846949
v -0.06615000 -0.05615000 0.07846949
v -0.06745759 -0.05527630 0.07846949
v -0.06900000 -0.05496949 0.07846949
v -0.07054241 -0.05527630 0.07846949
v -0.07185000 -0.05615000 0.07846949
v -0.07272370 -0.05745759 0.07846949
v -0.07303051 -0.05900000 0.07846949
v -0.07272370 -0.06054241 0.07846949
v -0.07185000 -0.06185000 0.07846949
v -0.07054241 -0.06272370 0.07846949
v -0.06900000 -0.06303051 0.07846949
v -0.06745759 -0.06272370 0.07846949
v -0.06615000 -0.06185000 0.07846949
v -0.06527629 -0.06054241 0.07846949
v -0.06373388 -0.05900000 0.08031870
v -0.06413475 -0.05698474 0.08031870
v -0.06527629 -0.05527630 0.08031870
v -0.06698474 -0.05413475 0.08031870
v -0.06900000 -0.05373389 0.08031870
v -0.07101525 -0.05413475 0.08031870
v -0.07272370 -0.05527630 0.08031870
v -0.07386526 -0.05698474 0.08031870
v -0.07426611 -0.05900000 0.08031870
v -0.07386526 -0.06101526 0.08031870
v -0.07272370 -0.06272370 0.08031870
v -0.07101525 -0.06386525 0.08031870
v -0.06900000 -0.06426612 0.08031870
v -0.06698474 -0.06386525 0.08031870
v -0.06527629 -0.06272370 0.08031870
v -0.06413475 -0.06101526 0.08031870
v -0.06330000 -0.05900000 0.08250000
v -0.06373388 -0.05681871 0.08250000
v -0.06496949 -0.05496949 0.08250000
v -0.06681871 -0.05373389 0.08250000
v -0.06900000 -0.05330000 0.08250000
v -0.07118130 -0.05373389 0.08250000
v -0.07303051 -0.05496949 0.08250000
v -0.07426611 -0.05681871 0.08250000
v -0.07470000 -0.05900000 0.08250000
v -0.07426611 -0.06118130 0.08250000
v -0.07303051 -0.06303051 0.08250000
v -0.07118130 -0.06426612 0.08250000
v -0.06900000 -0.06470000 0.08250000
v -0.06681871 -0.06426612 0.08250000
v -0.06496949 -0.06303051 0.08250000
v -0.06373388 -0.06118130 0.08250000
v -0.06373388 -0.05900000 0.08468129
v -0.06413475 -0.05698474 0.08468129
v -0.06527629 -0.05527630 0.08468129
v -0.06698474 -0.05413475 0.08468129
v -0.06900000 -0.05373389 0.08468129
v -0.07101525 -0.05413475 0.08468129
v -0.07272370 -0.05527630 0.08468129
v -0.07386526 -0.05698474 0.08468129
v -0.07426611 -0.05900000 0.08468129
v -0.07386526 -0.06101526 0.08468129
v -0.07272370 -0.06272370 0.08468129
v -0.07101525 -0.06386525 0.08468129
v -0.06900000 -0.06426612 0.08468129
v -0.06698474 -0.06386525 0.08468129
v -0.06527629 -0.06272370 0.08468129
v -0.06413475 -0.06101526 0.08468129
v -0.06496949 -0.05900000 0.08653051
v -0.06527629 -0.05745759 0.08653051
v -0.06615000 -0.05615000 0.08653051
v -0.06745759 -0.05527630 0.08653051
v -0.06900000 -0.05496949 0.08653051
v -0.07054241 -0.05527630 0.08653051
v -0.07185000 -0.05615000 0.08653051
v -0.07272370 -0.05745759 0.08653051
v -0.07303051 -0.05900000 0.08653051
v -0.07272370 -0.06054241 0.08653051
v -0.07185000 -0.06185000 0.08653051
v -0.07054241 -0.06272370 0.08653051
v -0.06900000 -0.06303051 0.08653051
v -0.06745759 -0.06272370 0.08653051
v -0.06615000 -0.06185000 0.08653051
v -0.06527629 -0.06054241 0.08653051
v -0.06681871 -0.05900000 0.08776611
v -0.06698474 -0.05816526 0.08776611
v -0.06745759 -0.05745759 0.08776611
v -0.06816526 -0.05698474 0.08776611
v -0.06900000 -0.05681871 0.08776611
v -0.06983475 -0.05698474 0.08776611
v -0.07054241 -0.05745759 0.08776611
v -0.07101525 -0.05816526 0.08776611
v -0.07118130 -0.05900000 0.08776611
v -0.07101525 -0.05983474 0.08776611
v -0.07054241 -0.06054241 0.08776611
v -0.06983475 -0.06101526 0.08776611
v -0.06900000 -0.06118130 0.08776611
v -0.06816526 -0.06101526 0.08776611
v -0.06745759 -0.06054241 0.08776611
v -0.06698474 -0.05983474 0.08776611
v -0.06900000 -0.05900000 0.08820000
v 0.01100000 0.05500000 0.07680000
v 0.01318130 0.05500000 0.07723389
v 0.01301525 0.05583474 0.07723389
v 0.01254241 0.05654241 0.07723389
v 0.01183475 0.05701526 0.07723389
v 0.01100000 0.05718130 0.07723389
v 0.01016525 0.05701526 0.07723389
v 0.00945759 0.05654241 0.07723389
v 0.00898475 0.05583474 0.07723389
v 0.00881870 0.05500000 0.07723389
v 0.00898475 0.05416526 0.07723389
v 0.00945759 0.05345759 0.07723389
v 0.01016525 0.05298474 0.07723389
v 0.01100000 0.05281870 0.07723389
v 0.01183475 0.05298474 0.07723389
v 0.01254241 0.05345759 0.07723389
v 0.01301525 0.05416526 0.07723389
v 0.01503051 0.05500000 0.07846949
v 0.01472370 0.05654241 0.07846949
v 0.01385000 0.05785000 0.07846949
v 0.01254241 0.05872370 0.07846949
v 0.01100000 0.05903051 0.07846949
v 0.00945759 0.05872370 0.07846949
v 0.00815000 0.05785000 0.07846949
v 0.00727630 0.05654241 0.07846949
v 0.00696949 0.05500000 0.07846949
v 0.00727630 0.05345759 0.07846949
v 0.00815000 0.05215000 0.07846949
v 0.00945759 0.05127630 0.07846949
v 0.01100000 0.05096949 0.07846949
v 0.01254241 0.05127630 0.07846949
v 0.01385000 0.05215000 0.07846949
v 0.01472370 0.05345759 0.07846949
v 0.01626611 0.05500000 0.08031870
v 0.01586526 0.05701526 0.08031870
v 0.01472370 0.05872370 0.08031870
v 0.01301525 0.05986525 0.08031870
v 0.01100000 0.06026611 0.08031870
v 0.00898475 0.05986525 0.08031870
v 0.00727630 0.05872370 0.08031870
v 0.00613475 0.05701526 0.08031870
v 0.00573389 0.05500000 0.08031870
v 0.00613475 0.05298474 0.08031870
v 0.00727630 0.05127630 0.08031870
v 0.00898475 0.05013474 0.08031870
v 0.01100000 0.04973389 0.08031870
v 0.01301525 0.05013474 0.08031870
v 0.01472370 0.05127630 0.08031870
v 0.01586526 0.05298474 0.08031870
v 0.01670000 0.05500000 0.08250000
v 0.01626611 0.05718130 0.08250000
v 0.01503051 0.05903051 0.08250000
v 0.01318130 0.06026611 0.08250000
v 0.01100000 0.06070000 0.08250000
v 0.00881870 0.06026611 0.08250000
v 0.00696949 0.05903051 0.08250000
v 0.00573389 0.05718130 0.08250000
v 0.00530000 0.05500000 0.08250000
v 0.00573389 0.05281870 0.08250000
v 0.00696949 0.05096949 0.08250000
v 0.00881870 0.04973389 0.08250000
v 0.01100000 0.04930000 0.08250000
v 0.01318130 0.04973389 0.08250000
v 0.01503051 0.05096949 0.08250000
v 0.01626611 0.05281870 0.08250000
v 0.01626611 0.05500000 0.08468129
v 0.01586526 0.05701526 0.08468129
v 0.01472370 0.05872370 0.08468129
v 0.01301525 0.05986525 0.08468129
v 0.01100000 0.06026611 0.08468129
v 0.00898475 0.05986525 0.08468129
v 0.00727630 0.05872370 0.08468129
v 0.00613475 0.05701526 0.08468129
v 0.00573389 0.05500000 0.08468129
v 0.00613475 0.05298474 0.08468129
v 0.00727630 0.05127630 0.08468129
v 0.00898475 0.05013474 0.08468129
v 0.01100000 0.04973389 0.08468129
v 0.01301525 0.05013474 0.08468129
v 0.01472370 0.05127630 0.08468129
v 0.01586526 0.05298474 0.08468129
v 0.01503051 0.05500000 0.08653051
v 0.01472370 0.05654241 0.08653051
v 0.01385000 0.05785000 0.08653051
v 0.01254241 0.05872370 0.08653051
v 0.01100000 0.05903051 0.08653051
v 0.00945759 0.05872370 0.08653051
v 0.00815000 0.05785000 0.08653051
v 0.00727630 0.05654241 0.08653051
v 0.00696949 0.05500000 0.08653051
v 0.00727630 0.05345759 0.08653051
v 0.00815000 0.05215000 0.08653051
v 0.00945759 0.05127630 0.08653051
v 0.01100000 0.05096949 0.08653051
v 0.01254241 0.05127630 0.08653051
v 0.01385000 0.05215000 0.08653051
v 0.01472370 0.05345759 0.08653051
v 0.01318130 0.05500000 0.08776611
v 0.01301525 0.05583474 0.08776611
v 0.01254241 0.05654241 0.08776611
v 0.01183475 0.05701526 0.08776611
v 0.01100000 0.05718130 0.08776611
v 0.01016525 0.05701526 0.08776611
v 0.00945759 0.05654241 0.08776611
v 0.00898475 0.05583474 0.08776611
v 0.00881870 0.05500000 0.08776611
v 0.00898475 0.05416526 0.08776611
v 0.00945759 0.05345759 0.08776611
v 0.01016525 0.05298474 0.08776611
v 0.01100000 0.05281870 0.08776611
v 0.01183475 0.05298474 0.08776611
v 0.01254241 0.05345759 0.08776611
v 0.01301525 0.05416526 0.08776611
v 0.01100000 0.05500000 0.08820000
v 0.01400000 -0.05600000 0.07680000
v 0.01618130 -0.05600000 0.07723389
v 0.01601525 -0.05516525 0.07723389
v 0.01554241 -0.05445759 0.07723389
v 0.01483475 -0.05398475 0.07723389
v 0.01400000 -0.05381870 0.07723389
v 0.01316525 -0.05398475 0.07723389
v 0.01245759 -0.05445759 0.07723389
v 0.01198475 -0.05516525 0.07723389
v 0.01181870 -0.05600000 0.07723389
v 0.01198475 -0.05683475 0.07723389
v 0.01245759 -0.05754241 0.07723389
v 0.01316525 -0.05801525 0.07723389
v 0.01400000 -0.05818130 0.07723389
v 0.01483475 -0.05801525 0.07723389
v 0.01554241 -0.05754241 0.07723389
v 0.01601525 -0.05683475 0.07723389
v 0.01803051 -0.05600000 0.07846949
v 0.01772370 -0.05445759 0.07846949
v 0.01685000 -0.05315000 0.07846949
v 0.01554241 -0.05227629 0.07846949
v 0.01400000 -0.05196949 0.07846949
v 0.01245759 -0.05227629 0.07846949
v 0.01115000 -0.05315000 0.07846949
v 0.01027630 -0.05445759 0.07846949
v 0.00996949 -0.05600000 0.07846949
v 0.01027630 -0.05754241 0.07846949
v 0.01115000 -0.05885000 0.07846949
v 0.01245759 -0.05972371 0.07846949
v 0.01400000 -0.06003051 0.07846949
v 0.01554241 -0.05972371 0.07846949
v 0.01685000 -0.05885000 0.07846949
v 0.01772370 -0.05754241 0.07846949
v 0.01926611 -0.05600000 0.08031870
v 0.01886525 -0.05398475 0.08031870
v 0.01772370 -0.05227629 0.08031870
v 0.01601525 -0.05113475 0.08031870
v 0.01400000 -0.05073389 0.08031870
v 0.01198475 -0.05113475 0.08031870
v 0.01027630 -0.05227629 0.08031870
v 0.00913475 -0.05398475 0.08031870
v 0.00873389 -0.05600000 0.08031870
v 0.00913475 -0.05801525 0.08031870
v 0.01027630 -0.05972371 0.08031870
v 0.01198475 -0.06086525 0.08031870
v 0.01400000 -0.06126611 0.08031870
v 0.01601525 -0.06086525 0.08031870
v 0.01772370 -0.05972371 0.08031870
v 0.01886525 -0.05801525 0.08031870
v 0.01970000 -0.05600000 0.08250000
v 0.01926611 -0.05381870 0.08250000
v 0.01803051 -0.05196949 0.08250000
v 0.01618130 -0.05073389 0.08250000
v 0.01400000 -0.05030000 0.08250000
v 0.01181870 -0.05073389 0.08250000
v 0.00996949 -0.05196949 0.08250000
v 0.00873389 -0.05381870 0.08250000
v 0.00830000 -0.05600000 0.08250000
v 0.00873389 -0.05818130 0.08250000
v 0.00996949 -0.06003051 0.08250000
v 0.01181870 -0.06126611 0.08250000
v 0.01400000 -0.06170000 0.08250000
v 0.01618130 -0.06126611 0.08250000
v 0.01803051 -0.06003051 0.08250000
v 0.01926611 -0.05818130 0.08250000
v 0.01926611 -0.05600000 0.08468129
v 0.01886525 -0.05398475 0.08468129
v 0.01772370 -0.05227629 0.08468129
v 0.01601525 -0.05113475 0.08468129
v 0.01400000 -0.05073389 0.08468129
v 0.01198475 -0.05113475 0.08468129
v 0.01027630 -0.05227629 0.08468129
v 0.00913475 -0.05398475 0.08468129
v 0.00873389 -0.05600000 0.08468129
v 0.00913475 -0.05801525 0.08468129
v 0.01027630 -0.05972371 0.08468129
v 0.01198475 -0.06086525 0.08468129
v 0.01400000 -0.06126611 0.08468129
v 0.01601525 -0.06086525 0.08468129
v 0.01772370 -0.05972371 0.08468129
v 0.01886525 -0.05801525 0.08468129
v 0.01803051 -0.05600000 0.08653051
v 0.01772370 -0.05445759 0.08653051
v 0.01685000 -0.05315000 0.08653051
v 0.01554241 -0.05227629 0.08653051
v 0.01400000 -0.05196949 0.08653051
v 0.01245759 -0.05227629 0.08653051
v 0.01115000 -0.05315000 0.08653051
v 0.01027630 -0.05445759 0.08653051
v 0.00996949 -0.05600000 0.08653051
v 0.01027630 -0.05754241 0.08653051
v 0.01115000 -0.05885000 0.08653051
v 0.01245759 -0.05972371 0.08653051
v 0.01400000 -0.06003051 0.08653051
v 0.01554241 -0.05972371 0.08653051
v 0.01685000 -0.05885000 0.08653051
v 0.01772370 -0.05754241 0.08653051
v 0.01618130 -0.05600000 0.08776611
v 0.01601525 -0.05516525 0.08776611
v 0.01554241 -0.05445759 0.08776611
v 0.01483475 -0.05398475 0.08776611
v 0.01400000 -0.05381870 0.08776611
v 0.01316525 -0.05398475 0.08776611
v 0.01245759 -0.05445759 0.08776611
v 0.01198475 -0.05516525 0.08776611
v 0.01181870 -0.05600000 0.08776611
v 0.01198475 -0.05683475 0.08776611
v 0.01245759 -0.05754241 0.08776611
v 0.01316525 -0.05801525 0.08776611
v 0.01400000 -0.05818130 0.08776611
v 0.01483475 -0.05801525 0.08776611
v 0.01554241 -0.05754241 0.08776611
v 0.01601525 -0.05683475 0.08776611
v 0.01400000 -0.05600000 0.08820000
v 0.01600000 0.00500000 0.07680000
v 0.01818130 0.00500000 0.07723389
v 0.01801525 0.00583475 0.07723389
v 0.01754241 0.00654241 0.07723389
v 0.01683475 0.00701525 0.07723389
v 0.01600000 0.00718130 0.07723389
v 0.01516525 0.00701525 0.07723389
v 0.01445759 0.00654241 0.07723389
v 0.01398475 0.00583475 0.07723389
v 0.01381870 0.00500000 0.07723389
v 0.01398475 0.00416525 0.07723389
v 0.01445759 0.00345759 0.07723389
v 0.01516525 0.00298475 0.07723389
v 0.01600000 0.00281870 0.07723389
v 0.01683475 0.00298475 0.07723389
v 0.01754241 0.00345759 0.07723389
v 0.01801525 0.00416525 0.07723389
v 0.02003051 0.00500000 0.07846949
v 0.01972370 0.00654241 0.07846949
v 0.01885000 0.00785000 0.07846949
v 0.01754241 0.00872370 0.07846949
v 0.01600000 0.00903051 0.07846949
v 0.01445759 0.00872370 0.07846949
v 0.01315000 0.00785000 0.07846949
v 0.01227630 0.00654241 0.07846949
v 0.01196949 0.00500000 0.07846949
v 0.01227630 0.00345759 0.07846949
v 0.01315000 0.00215000 0.07846949
v 0.01445759 0.00127630 0.07846949
v 0.01600000 0.00096949 0.07846949
v 0.01754241 0.00127630 0.07846949
v 0.01885000 0.00215000 0.07846949
v 0.01972370 0.00345759 0.07846949
v 0.02126611 0.00500000 0.08031870
v 0.02086525 0.00701525 0.08031870
v 0.01972370 0.00872370 0.08031870
v 0.01801525 0.00986525 0.08031870
v 0.01600000 0.01026611 0.08031870
v 0.01398475 0.00986525 0.08031870
v 0.01227630 0.00872370 0.08031870
v 0.01113475 0.00701525 0.08031870
v 0.01073389 0.00500000 0.08031870
v 0.01113475 0.00298475 0.08031870
v 0.01227630 0.00127630 0.08031870
v 0.01398475 0.00013475 0.08031870
v 0.01600000 -0.00026611 0.08031870
v 0.01801525 0.00013475 0.08031870
v 0.01972370 0.00127630 0.08031870
v 0.02086525 0.00298475 0.08031870
v 0.02170000 0.00500000 0.08250000
v 0.02126611 0.00718130 0.08250000
v 0.02003051 0.00903051 0.08250000
v 0.01818130 0.01026611 0.08250000
v 0.01600000 0.01070000 0.08250000
v 0.01381870 0.01026611 0.08250000
v 0.01196949 0.00903051 0.08250000
v 0.01073389 0.00718130 0.08250000
v 0.01030000 0.00500000 0.08250000
v 0.01073389 0.00281870 0.08250000
v 0.01196949 0.00096949 0.08250000
v 0.01381870 -0.00026611 0.08250000
v 0.01600000 -0.00070000 0.08250000
v 0.01818130 -0.00026611 0.08250000
v 0.02003051 0.00096949 0.08250000
v 0.02126611 0.00281870 0.08250000
v 0.02126611 0.00500000 0.08468129
v 0.02086525 0.00701525 0.08468129
v 0.01972370 0.00872370 0.08468129
v 0.01801525 0.00986525 0.08468129
v 0.01600000 0.01026611 0.08468129
v 0.01398475 0.00986525 0.08468129
v 0.01227630 0.00872370 0.08468129
v 0.01113475 0.00701525 0.08468129
v 0.01073389 0.00500000 0.08468129
v 0.01113475 0.00298475 0.08468129
v 0.01227630 0.00127630 0.08468129
v 0.01398475 0.00013475 0.08468129
v 0.01600000 -0.00026611 0.08468129
v 0.01801525 0.00013475 0.08468129
v 0.01972370 0.00127630 0.08468129
v 0.02086525 0.00298475 0.08468129
v 0.02003051 0.00500000 0.08653051
v 0.01972370 0.00654241 0.08653051
v 0.01885000 0.00785000 0.08653051
v 0.01754241 0.00872370 0.08653051
v 0.01600000 0.00903051 0.08653051
v 0.01445759 0.00872370 0.08653051
v 0.01315000 0.00785000 0.08653051
v 0.01227630 0.00654241 0.08653051
v 0.01196949 0.00500000 0.08653051
v 0.01227630 0.00345759 0.08653051
v 0.01315000 0.00215000 0.08653051
v 0.01445759 0.00127630 0.08653051
v 0.01600000 0.00096949 0.08653051
v 0.01754241 0.00127630 0.08653051
v 0.01885000 0.00215000 0.08653051
v 0.01972370 0.00345759 0.08653051
v 0.01818130 0.00500000 0.08776611
v 0.01801525 0.00583475 0.08776611
v 0.01754241 0.00654241 0.08776611
v 0.01683475 0.00701525 0.08776611
v 0.01600000 0.00718130 0.08776611
v 0.01516525 0.00701525 0.08776611
v 0.01445759 0.00654241 0.08776611
v 0.01398475 0.00583475 0.08776611
v 0.01381870 0.00500000 0.08776611
v 0.01398475 0.00416525 0.08776611
v 0.01445759 0.00345759 0.08776611
v 0.01516525 0.00298475 0.08776611
v 0.01600000 0.00281870 0.08776611
v 0.01683475 0.00298475 0.08776611
v 0.01754241 0.00345759 0.08776611
v 0.01801525 0.00416525 0.08776611
v 0.01600000 0.00500000 0.08820000
vn 0.00000000 0.00000000 -1.00000000
vn 0.43960500 0.03551050 -0.89748901
vn 0.39255288 0.20103706 -0.89748889
vn 0.28573838 0.33595762 -0.89748871
vn 0.13542297 0.41973144 -0.89748877
vn -0.03551000 0.43960515 -0.89748895
vn -0.20103644 0.39255312 -0.89748895
vn -0.33595741 0.28573781 -0.89748901
vn -0.41973141 0.13542306 -0.89748877
vn -0.43960509 -0.03551048 -0.89748889
vn -0.39255327 -0.20103610 -0.89748895
vn -0.28573793 -0.33595705 -0.89748913
vn -0.13542226 -0.41973123 -0.89748895
vn 0.03551004 -0.43960476 -0.89748907
vn 0.20103697 -0.39255294 -0.89748889
vn 0.33595729 -0.28573859 -0.89748877
vn 0.41973099 -0.13542262 -0.89748907
vn 0.72500032 0.02723049 -0.68820995
vn 0.65939295 0.30260321 -0.68820947
vn 0.49339795 0.53190756 -0.68820983
vn 0.25228888 0.68023390 -0.68820935
vn -0.02722970 0.72500092 -0.68820941
vn -0.30260250 0.65939337 -0.68820941
vn -0.53190744 0.49339864 -0.68820941
vn -0.68023372 0.25228819 -0.68820983
vn -0.72500068 -0.02722933 -0.68820965
vn -0.65939295 -0.30260286 -0.68820953
vn -0.49339920 -0.53190726 -0.68820918
vn -0.25228834 -0.68023401 -0.68820947
vn 0.02722970 -0.72500086 -0.68820953
vn 0.30260283 -0.65939295 -0.68820953
vn 0.53190744 -0.49339861 -0.68820941
vn 0.68023348 -0.25229013 -0.68820930
vn 0.92785144 0.01474431 -0.37265825
vn 0.85157996 0.36869630 -0.37265879
vn 0.64566386 0.66651624 -0.37265834
vn 0.34145114 0.86286551 -0.37265837
vn -0.01474488 0.92785150 -0.37265834
vn -0.36869556 0.85158044 -0.37265834
vn -0.66651595 0.64566451 -0.37265784
vn -0.86286557 0.34145099 -0.37265819
vn -0.92785168 -0.01474431 -0.37265798
vn -0.85158008 -0.36869600 -0.37265885
vn -0.64566392 -0.66651618 -0.37265837
vn -0.34145096 -0.86286575 -0.37265804
vn 0.01474489 -0.92785150 -0.37265840
vn 0.36869562 -0.85158056 -0.37265807
vn 0.66651618 -0.64566350 -0.37265918
vn 0.86286539 -0.34145114 -0.37265864
vn 1.00000000 -0.00000011 -0.00000006
vn 0.92387956 0.38268328 0.00000037
vn 0.70710641 0.70710719 -0.00000059
vn 0.38268355 0.92387950 0.00000007
vn 0.00000011 1.00000000 0.00000011
vn -0.38268340 0.92387956 -0.00000007
vn -0.70710659 0.70710695 -0.00000013
vn -0.92387950 0.38268355 -0.00000045
vn -1.00000000 0.00000011 0.00000005
vn -0.92387968 -0.38268298 0.00000039
vn -0.70710665 -0.70710689 0.00000013
vn -0.38268352 -0.92387950 0.00000007
vn -0.00000011 -1.00000000 -0.00000011
vn 0.38268340 -0.92387956 -0.00000008
vn 0.70710623 -0.70710731 0.00000058
vn 0.92387968 -0.38268316 -0.00000031
vn 0.92785126 -0.01474421 0.37265873
vn 0.86286497 0.34145144 0.37265927
vn 0.66651589 0.64566344 0.37265980
vn 0.36869541 0.85158032 0.37265870
vn 0.01474478 0.92785120 0.37265900
vn -0.34145096 0.86286545 0.37265861
vn -0.64566380 0.66651595 0.37265897
vn -0.85157979 0.36869615 0.37265939
vn -0.92785132 0.01474421 0.37265870
vn -0.86286551 -0.34145078 0.37265882
vn -0.66651571 -0.64566439 0.37265846
vn -0.36869538 -0.85158038 0.37265897
vn -0.01474478 -0.92785120 0.37265903
vn 0.34145114 -0.86286521 0.37265894
vn 0.64566380 -0.66651601 0.37265900
vn 0.85157984 -0.36869577 0.37265942
vn 0.72500050 -0.02723048 0.68820977
vn 0.68023342 0.25229043 0.68820941
vn 0.53190738 0.49339861 0.68820941
vn 0.30260286 0.65939295 0.68820959
vn 0.02722970 0.72500092 0.68820953
vn -0.25228834 0.68023407 0.68820947
vn -0.49339920 0.53190720 0.68820918
vn -0.65939289 0.30260321 0.68820947
vn -0.72500062 0.02722934 0.68820983
vn -0.68023390 -0.25228792 0.68820983
vn -0.53190738 -0.49339861 0.68820941
vn -0.30260250 -0.65939337 0.68820935
vn -0.02722970 -0.72500098 0.68820941
vn 0.25228891 -0.68023390 0.68820941
vn 0.49339801 -0.53190756 0.68820983
vn 0.65939295 -0.30260286 0.68820953
vn 0.43960604 -0.03551045 0.89748842
vn 0.41973186 0.13542333 0.89748853
vn 0.33595815 0.28573939 0.89748830
vn 0.20103742 0.39255399 0.89748830
vn 0.03551004 0.43960595 0.89748853
vn -0.13542271 0.41973230 0.89748847
vn -0.28573871 0.33595783 0.89748853
vn -0.39255413 0.20103677 0.89748842
vn -0.43960592 0.03551049 0.89748853
vn -0.41973230 -0.13542312 0.89748836
vn -0.33595797 -0.28573841 0.89748859
vn -0.20103669 -0.39255378 0.89748859
vn -0.03550996 -0.43960583 0.89748853
vn 0.13542329 -0.41973203 0.89748847
vn 0.28573897 -0.33595812 0.89748836
vn 0.39255378 -0.20103712 0.89748847
vn -0.00000000 -0.00000001 1.00000000
vn 0.00000000 -0.00000000 -1.00000000
vn 0.43960571 0.03550975 -0.89748859
vn 0.39255288 0.20103706 -0.89748889
vn 0.28573802 0.33595768 -0.89748889
vn 0.13542332 0.41973117 -0.89748883
vn -0.03551053 0.43960518 -0.89748883
vn -0.20103644 0.39255312 -0.89748895
vn -0.33595762 0.28573751 -0.89748901
vn -0.41973141 0.13542306 -0.89748877
vn -0.43960509 -0.03551056 -0.89748889
vn -0.39255327 -0.20103642 -0.89748883
vn -0.28573844 -0.33595696 -0.89748895
vn -0.13542268 -0.41973123 -0.89748895
vn 0.03551058 -0.43960500 -0.89748901
vn 0.20103705 -0.39255312 -0.89748877
vn 0.33595693 -0.28573895 -0.89748883
vn 0.41973144 -0.13542221 -0.89748895
vn 0.72500050 0.02723052 -0.68820983
vn 0.65939331 0.30260241 -0.68820947
vn 0.49339810 0.53190732 -0.68820989
vn 0.25228935 0.68023336 -0.68820971
vn -0.02722994 0.72500068 -0.68820965
vn -0.30260301 0.65939289 -0.68820953
vn -0.53190738 0.49339870 -0.68820947
vn -0.68023366 0.25228804 -0.68820989
vn -0.72500068 -0.02722936 -0.68820971
vn -0.65939271 -0.30260324 -0.68820959
vn -0.49339920 -0.53190726 -0.68820918
vn -0.25228944 -0.68023390 -0.68820924
vn 0.02723027 -0.72500056 -0.68820965
vn 0.30260336 -0.65939283 -0.68820947
vn 0.53190696 -0.49339876 -0.68820983
vn 0.68023336 -0.25228912 -0.68820983
vn 0.92785114 0.01474483 -0.37265909
vn 0.85157990 0.36869627 -0.37265885
vn 0.64566422 0.66651595 -0.37265813
vn 0.34145132 0.86286533 -0.37265861
vn -0.01474430 0.92785156 -0.37265807
vn -0.36869618 0.85157990 -0.37265900
vn -0.66651595 0.64566427 -0.37265813
vn -0.86286557 0.34145099 -0.37265816
vn -0.92785156 -0.01474431 -0.37265801
vn -0.85157996 -0.36869621 -0.37265888
vn -0.64566338 -0.66651630 -0.37265906
vn -0.34145117 -0.86286557 -0.37265825
vn 0.01474431 -0.92785156 -0.37265822
vn 0.36869645 -0.85158002 -0.37265858
vn 0.66651589 -0.64566416 -0.37265855
vn 0.86286521 -0.34145141 -0.37265867
vn 1.00000000 -0.00000011 0.00000000
vn 0.92387921 0.38268402 -0.00000003
vn 0.70710671 0.70710683 -0.00000037
vn 0.38268369 0.92387944 -0.00000017
vn 0.00000010 1.00000000 0.00000010
vn -0.38268313 0.92387968 0.00000046
vn -0.70710689 0.70710671 -0.00000037
vn -0.92387956 0.38268331 -0.00000051
vn -1.00000000 0.00000011 0.00000000
vn -0.92387974 -0.38268307 0.00000051
vn -0.70710683 -0.70710671 0.00000057
vn -0.38268328 -0.92387962 -0.00000042
vn -0.00000011 -1.00000000 -0.00000011
vn 0.38268355 -0.92387950 0.00000012
vn 0.70710641 -0.70710713 0.00000015
vn 0.92387921 -0.38268426 0.00000003
vn 0.92785096 -0.01474474 0.37265971
vn 0.86286497 0.34145144 0.37265927
vn 0.66651583 0.64566374 0.37265933
vn 0.36869627 0.85157984 0.37265915
vn 0.01474420 0.92785132 0.37265873
vn -0.34145114 0.86286527 0.37265891
vn -0.64566368 0.66651577 0.37265942
vn -0.85157979 0.36869603 0.37265947
vn -0.92785132 0.01474420 0.37265867
vn -0.86286533 -0.34145105 0.37265879
vn -0.66651547 -0.64566451 0.37265864
vn -0.36869597 -0.85157973 0.37265959
vn -0.01474420 -0.92785126 0.37265885
vn 0.34145132 -0.86286503 0.37265921
vn 0.64566380 -0.66651595 0.37265900
vn 0.85157973 -0.36869606 0.37265947
vn 0.72500050 -0.02723052 0.68820983
vn 0.68023342 0.25228915 0.68820983
vn 0.53190690 0.49339876 0.68820977
vn 0.30260354 0.65939242 0.68820977
vn 0.02722991 0.72500050 0.68820989
vn -0.25228903 0.68023372 0.68820953
vn -0.49339932 0.53190696 0.68820924
vn -0.65939265 0.30260327 0.68820965
vn -0.72500062 0.02722935 0.68820971
vn -0.68023366 -0.25228804 0.68820989
vn -0.53190732 -0.49339864 0.68820947
vn -0.30260286 -0.65939337 0.68820924
vn -0.02723030 -0.72500080 0.68820959
vn 0.25228977 -0.68023354 0.68820947
vn 0.49339801 -0.53190756 0.68820983
vn 0.65939331 -0.30260238 0.68820953
vn 0.43960667 -0.03550975 0.89748812
vn 0.41973233 0.13542259 0.89748847
vn 0.33595762 0.28573966 0.89748836
vn 0.20103742 0.39255399 0.89748830
vn 0.03551056 0.43960592 0.89748853
vn -0.13542306 0.41973209 0.89748853
vn -0.28573912 0.33595765 0.89748853
vn -0.39255413 0.20103677 0.89748842
vn -0.43960604 0.03551055 0.89748847
vn -0.41973230 -0.13542344 0.89748830
vn -0.33595827 -0.28573820 0.89748847
vn -0.20103678 -0.39255393 0.89748853
vn -0.03551051 -0.43960613 0.89748847
vn 0.13542369 -0.41973200 0.89748842
vn 0.28573874 -0.33595833 0.89748842
vn 0.39255378 -0.20103744 0.89748842
vn 0.00000000 -0.00000000 1.00000000
vn 0.00000000 0.00000000 -1.00000000
vn 0.43960515 0.03551024 -0.89748889
vn 0.39255309 0.20103674 -0.89748889
vn 0.28573841 0.33595711 -0.89748889
vn 0.13542293 0.41973123 -0.89748889
vn -0.03551052 0.43960500 -0.89748895
vn -0.20103671 0.39255309 -0.89748895
vn -0.33595735 0.28573808 -0.89748895
vn -0.41973135 0.13542253 -0.89748889
vn -0.43960524 -0.03551020 -0.89748889
vn -0.39255309 -0.20103674 -0.89748889
vn -0.28573841 -0.33595711 -0.89748889
vn -0.13542257 -0.41973144 -0.89748883
vn 0.03551012 -0.43960536 -0.89748877
vn 0.20103671 -0.39255309 -0.89748895
vn 0.33595735 -0.28573808 -0.89748895
vn 0.41973132 -0.13542259 -0.89748889
vn 0.72500074 0.02722970 -0.68820959
vn 0.65939283 0.30260301 -0.68820971
vn 0.49339870 0.53190714 -0.68820953
vn 0.25228927 0.68023354 -0.68820959
vn -0.02722991 0.72500062 -0.68820977
vn -0.30260319 0.65939277 -0.68820959
vn -0.53190732 0.49339870 -0.68820959
vn -0.68023372 0.25228873 -0.68820965
vn -0.72500074 -0.02722980 -0.68820953
vn -0.65939295 -0.30260292 -0.68820959
vn -0.49339870 -0.53190714 -0.68820953
vn -0.25228843 -0.68023384 -0.68820965
vn 0.02722958 -0.72500092 -0.68820941
vn 0.30260280 -0.65939307 -0.68820953
vn 0.53190720 -0.49339870 -0.68820959
vn 0.68023366 -0.25228864 -0.68820977
vn 0.92785156 0.01474466 -0.37265813
vn 0.85158038 0.36869580 -0.37265840
vn 0.64566380 0.66651613 -0.37265867
vn 0.34145120 0.86286545 -0.37265840
vn -0.01474431 0.92785150 -0.37265810
vn -0.36869615 0.85158002 -0.37265870
vn -0.66651618 0.64566386 -0.37265849
vn -0.86286551 0.34145111 -0.37265828
vn -0.92785150 -0.01474473 -0.37265825
vn -0.85158044 -0.36869588 -0.37265831
vn -0.64566410 -0.66651624 -0.37265801
vn -0.34145102 -0.86286563 -0.37265819
vn 0.01474489 -0.92785144 -0.37265834
vn 0.36869556 -0.85158062 -0.37265807
vn 0.66651613 -0.64566416 -0.37265813
vn 0.86286557 -0.34145108 -0.37265828
vn 1.00000000 -0.00000010 0.00000000
vn 0.92387968 0.38268313 0.00000015
vn 0.70710701 0.70710659 0.00000019
vn 0.38268334 0.92387956 -0.00000039
vn 0.00000010 1.00000000 0.00000000
vn -0.38268319 0.92387962 0.00000037
vn -0.70710683 0.70710671 -0.00000013
vn -0.92387950 0.38268346 -0.00000008
vn -1.00000000 0.00000010 -0.00000000
vn -0.92387950 -0.38268346 -0.00000007
vn -0.70710665 -0.70710689 -0.00000010
vn -0.38268360 -0.92387944 0.00000012
vn -0.00000010 -1.00000000 0.00000000
vn 0.38268346 -0.92387950 -0.00000011
vn 0.70710647 -0.70710707 0.00000005
vn 0.92387950 -0.38268358 0.00000001
vn 0.92785126 -0.01474455 0.37265879
vn 0.86286527 0.34145105 0.37265885
vn 0.66651595 0.64566386 0.37265909
vn 0.36869597 0.85157979 0.37265939
vn 0.01474420 0.92785132 0.37265873
vn -0.34145123 0.86286521 0.37265903
vn -0.64566380 0.66651577 0.37265921
vn -0.85158026 0.36869556 0.37265903
vn -0.92785120 0.01474463 0.37265894
vn -0.86286527 -0.34145114 0.37265891
vn -0.66651583 -0.64566398 0.37265873
vn -0.36869541 -0.85158038 0.37265867
vn -0.01474478 -0.92785120 0.37265891
vn 0.34145102 -0.86286533 0.37265882
vn 0.64566380 -0.66651607 0.37265870
vn 0.85158020 -0.36869574 0.37265894
vn 0.72500074 -0.02722970 0.68820959
vn 0.68023372 0.25228867 0.68820971
vn 0.53190720 0.49339873 0.68820965
vn 0.30260319 0.65939277 0.68820965
vn 0.02722992 0.72500056 0.68820977
vn -0.25228924 0.68023354 0.68820959
vn -0.49339870 0.53190714 0.68820953
vn -0.65939283 0.30260286 0.68820965
vn -0.72500074 0.02722980 0.68820953
vn -0.68023372 -0.25228870 0.68820965
vn -0.53190726 -0.49339870 0.68820959
vn -0.30260277 -0.65939307 0.68820953
vn -0.02722957 -0.72500092 0.68820941
vn 0.25228840 -0.68023384 0.68820965
vn 0.49339870 -0.53190714 0.68820953
vn 0.65939277 -0.30260301 0.68820977
vn 0.43960613 -0.03551022 0.89748847
vn 0.41973221 0.13542295 0.89748842
vn 0.33595800 0.28573877 0.89748847
vn 0.20103708 0.39255396 0.89748847
vn 0.03551050 0.43960592 0.89748847
vn -0.13542329 0.41973206 0.89748842
vn -0.28573912 0.33595780 0.89748842
vn -0.39255399 0.20103706 0.89748836
vn -0.43960616 0.03551019 0.89748842
vn -0.41973221 -0.13542287 0.89748842
vn -0.33595800 -0.28573877 0.89748847
vn -0.20103708 -0.39255396 0.89748847
vn -0.03551010 -0.43960634 0.89748842
vn 0.13542293 -0.41973230 0.89748836
vn 0.28573912 -0.33595780 0.89748842
vn 0.39255399 -0.20103706 0.89748836
vn 0.00000000 -0.00000000 1.00000000
vn 0.00000000 0.00000000 -1.00000000
vn 0.43960515 0.03551026 -0.89748889
vn 0.39255312 0.20103645 -0.89748895
vn 0.28573799 0.33595726 -0.89748901
vn 0.13542257 0.41973117 -0.89748889
vn -0.03551007 0.43960488 -0.89748901
vn -0.20103657 0.39255294 -0.89748901
vn -0.33595708 0.28573820 -0.89748901
vn -0.41973126 0.13542227 -0.89748895
vn -0.43960509 -0.03551008 -0.89748895
vn -0.39255294 -0.20103680 -0.89748895
vn -0.28573808 -0.33595735 -0.89748901
vn -0.13542256 -0.41973141 -0.89748883
vn 0.03551010 -0.43960512 -0.89748895
vn 0.20103674 -0.39255312 -0.89748883
vn 0.33595726 -0.28573826 -0.89748889
vn 0.41973132 -0.13542283 -0.89748889
vn 0.72500080 0.02722979 -0.68820953
vn 0.65939325 0.30260265 -0.68820947
vn 0.49339855 0.53190744 -0.68820941
vn 0.25228861 0.68023396 -0.68820953
vn -0.02722970 0.72500098 -0.68820947
vn -0.30260259 0.65939331 -0.68820947
vn -0.53190732 0.49339864 -0.68820953
vn -0.68023384 0.25228843 -0.68820959
vn -0.72500068 -0.02722972 -0.68820971
vn -0.65939313 -0.30260280 -0.68820947
vn -0.49339843 -0.53190750 -0.68820953
vn -0.25228855 -0.68023396 -0.68820953
vn 0.02722970 -0.72500098 -0.68820947
vn 0.30260271 -0.65939325 -0.68820941
vn 0.53190744 -0.49339864 -0.68820947
vn 0.68023372 -0.25228897 -0.68820953
vn 0.92785150 0.01474460 -0.37265822
vn 0.85158038 0.36869574 -0.37265852
vn 0.64566404 0.66651618 -0.37265819
vn 0.34145105 0.86286557 -0.37265822
vn -0.01474489 0.92785144 -0.37265837
vn -0.36869556 0.85158062 -0.37265810
vn -0.66651601 0.64566422 -0.37265807
vn -0.86286569 0.34145075 -0.37265816
vn -0.92785144 -0.01474474 -0.37265837
vn -0.85158044 -0.36869588 -0.37265828
vn -0.64566398 -0.66651624 -0.37265813
vn -0.34145093 -0.86286563 -0.37265822
vn 0.01474489 -0.92785144 -0.37265840
vn 0.36869568 -0.85158056 -0.37265819
vn 0.66651613 -0.64566410 -0.37265828
vn 0.86286551 -0.34145111 -0.37265831
vn 1.00000000 -0.00000011 0.00000005
vn 0.92387968 0.38268310 0.00000007
vn 0.70710671 0.70710683 -0.00000012
vn 0.38268360 0.92387944 0.00000010
vn 0.00000011 1.00000000 0.00000001
vn -0.38268343 0.92387950 -0.00000019
vn -0.70710653 0.70710707 0.00000004
vn -0.92387956 0.38268334 0.00000003
vn -1.00000000 0.00000010 -0.00000005
vn -0.92387950 -0.38268346 0.00000003
vn -0.70710665 -0.70710689 -0.00000004
vn -0.38268358 -0.92387950 0.00000018
vn -0.00000011 -1.00000000 -0.00000001
vn 0.38268343 -0.92387950 -0.00000010
vn 0.70710653 -0.70710701 0.00000011
vn 0.92387944 -0.38268360 -0.00000014
vn 0.92785126 -0.01474450 0.37265891
vn 0.86286539 0.34145087 0.37265888
vn 0.66651583 0.64566398 0.37265891
vn 0.36869544 0.85158032 0.37265879
vn 0.01474479 0.92785120 0.37265900
vn -0.34145093 0.86286539 0.37265882
vn -0.64566392 0.66651601 0.37265873
vn -0.85158032 0.36869535 0.37265897
vn -0.92785126 0.01474463 0.37265882
vn -0.86286527 -0.34145108 0.37265888
vn -0.66651577 -0.64566416 0.37265876
vn -0.36869535 -0.85158038 0.37265879
vn -0.01474479 -0.92785120 0.37265900
vn 0.34145105 -0.86286533 0.37265879
vn 0.64566392 -0.66651595 0.37265885
vn 0.85158008 -0.36869583 0.37265909
vn 0.72500062 -0.02722980 0.68820965
vn 0.68023390 0.25228870 0.68820947
vn 0.53190738 0.49339864 0.68820953
vn 0.30260271 0.65939319 0.68820935
vn 0.02722971 0.72500092 0.68820947
vn -0.25228855 0.68023396 0.68820953
vn -0.49339846 0.53190756 0.68820959
vn -0.65939307 0.30260244 0.68820959
vn -0.72500080 0.02722971 0.68820953
vn -0.68023366 -0.25228873 0.68820965
vn -0.53190732 -0.49339870 0.68820959
vn -0.30260259 -0.65939325 0.68820947
vn -0.02722970 -0.72500092 0.68820941
vn 0.25228861 -0.68023390 0.68820959
vn 0.49339861 -0.53190738 0.68820953
vn 0.65939313 -0.30260295 0.68820947
vn 0.43960601 -0.03551027 0.89748853
vn 0.41973215 0.13542287 0.89748842
vn 0.33595783 0.28573883 0.89748853
vn 0.20103700 0.39255378 0.89748847
vn 0.03551006 0.43960586 0.89748859
vn -0.13542289 0.41973209 0.89748847
vn -0.28573865 0.33595788 0.89748859
vn -0.39255384 0.20103681 0.89748853
vn -0.43960610 0.03551003 0.89748842
vn -0.41973218 -0.13542297 0.89748842
vn -0.33595785 -0.28573900 0.89748847
vn -0.20103703 -0.39255401 0.89748842
vn -0.03551007 -0.43960610 0.89748842
vn 0.13542303 -0.41973227 0.89748842
vn 0.28573877 -0.33595803 0.89748842
vn 0.39255399 -0.20103711 0.89748836
vn 0.00000000 -0.00000000 1.00000000
vn 0.00000000 0.00000000 -1.00000000
vn 0.43960530 0.03551010 -0.89748883
vn 0.39255306 0.20103672 -0.89748895
vn 0.28573823 0.33595732 -0.89748889
vn 0.13542265 0.41973129 -0.89748889
vn -0.03551022 0.43960521 -0.89748895
vn -0.20103665 0.39255306 -0.89748889
vn -0.33595720 0.28573835 -0.89748895
vn -0.41973129 0.13542248 -0.89748895
vn -0.43960509 -0.03551020 -0.89748895
vn -0.39255300 -0.20103666 -0.89748895
vn -0.28573829 -0.33595717 -0.89748895
vn -0.13542241 -0.41973135 -0.89748889
vn 0.03551015 -0.43960515 -0.89748889
vn 0.20103678 -0.39255303 -0.89748889
vn 0.33595729 -0.28573829 -0.89748895
vn 0.41973147 -0.13542259 -0.89748883
vn 0.72500074 0.02722981 -0.68820959
vn 0.65939307 0.30260268 -0.68820947
vn 0.49339864 0.53190732 -0.68820947
vn 0.25228885 0.68023372 -0.68820965
vn -0.02722976 0.72500086 -0.68820953
vn -0.30260286 0.65939295 -0.68820965
vn -0.53190732 0.49339870 -0.68820953
vn -0.68023378 0.25228882 -0.68820953
vn -0.72500074 -0.02722978 -0.68820959
vn -0.65939301 -0.30260286 -0.68820959
vn -0.49339864 -0.53190732 -0.68820965
vn -0.25228870 -0.68023378 -0.68820959
vn 0.02722977 -0.72500074 -0.68820959
vn 0.30260286 -0.65939301 -0.68820953
vn 0.53190732 -0.49339861 -0.68820959
vn 0.68023372 -0.25228864 -0.68820959
vn 0.92785138 0.01474473 -0.37265843
vn 0.85158032 0.36869588 -0.37265840
vn 0.64566404 0.66651613 -0.37265816
vn 0.34145114 0.86286551 -0.37265834
vn -0.01474474 0.92785150 -0.37265828
vn -0.36869568 0.85158050 -0.37265831
vn -0.66651618 0.64566392 -0.37265837
vn -0.86286557 0.34145105 -0.37265825
vn -0.92785150 -0.01474466 -0.37265813
vn -0.85158050 -0.36869574 -0.37265825
vn -0.64566398 -0.66651618 -0.37265831
vn -0.34145102 -0.86286557 -0.37265822
vn 0.01474472 -0.92785156 -0.37265828
vn 0.36869588 -0.85158044 -0.37265825
vn 0.66651618 -0.64566416 -0.37265822
vn 0.86286551 -0.34145108 -0.37265837
vn 1.00000000 -0.00000011 0.00000000
vn 0.92387950 0.38268358 0.00000001
vn 0.70710683 0.70710677 -0.00000003
vn 0.38268369 0.92387944 0.00000003
vn 0.00000011 1.00000000 0.00000002
vn -0.38268325 0.92387956 -0.00000002
vn -0.70710665 0.70710689 0.00000002
vn -0.92387956 0.38268346 -0.00000006
vn -1.00000000 0.00000010 0.00000000
vn -0.92387962 -0.38268328 0.00000005
vn -0.70710683 -0.70710665 -0.00000002
vn -0.38268343 -0.92387950 0.00000000
vn -0.00000011 -1.00000000 -0.00000001
vn 0.38268349 -0.92387950 -0.00000001
vn 0.70710671 -0.70710683 0.00000004
vn 0.92387938 -0.38268378 0.00000001
vn 0.92785114 -0.01474463 0.37265912
vn 0.86286527 0.34145114 0.37265891
vn 0.66651583 0.64566404 0.37265885
vn 0.36869568 0.85158020 0.37265888
vn 0.01474464 0.92785120 0.37265894
vn -0.34145105 0.86286527 0.37265885
vn -0.64566380 0.66651595 0.37265900
vn -0.85158032 0.36869556 0.37265891
vn -0.92785126 0.01474456 0.37265879
vn -0.86286533 -0.34145108 0.37265888
vn -0.66651595 -0.64566380 0.37265891
vn -0.36869544 -0.85158032 0.37265888
vn -0.01474462 -0.92785126 0.37265888
vn 0.34145108 -0.86286527 0.37265891
vn 0.64566398 -0.66651583 0.37265876
vn 0.85158014 -0.36869574 0.37265903
vn 0.72500074 -0.02722981 0.68820959
vn 0.68023372 0.25228864 0.68820959
vn 0.53190732 0.49339870 0.68820953
vn 0.30260295 0.65939295 0.68820953
vn 0.02722975 0.72500074 0.68820959
vn -0.25228873 0.68023378 0.68820959
vn -0.49339864 0.53190732 0.68820953
vn -0.65939295 0.30260289 0.68820965
vn -0.72500074 0.02722977 0.68820953
vn -0.68023378 -0.25228885 0.68820953
vn -0.53190732 -0.49339861 0.68820959
vn -0.30260274 -0.65939295 0.68820965
vn -0.02722976 -0.72500074 0.68820959
vn 0.25228879 -0.68023372 0.68820965
vn 0.49339864 -0.53190726 0.68820965
vn 0.65939313 -0.30260274 0.68820953
vn 0.43960625 -0.03551009 0.89748842
vn 0.41973224 0.13542293 0.89748836
vn 0.33595788 0.28573897 0.89748847
vn 0.20103711 0.39255396 0.89748847
vn 0.03551020 0.43960604 0.89748842
vn -0.13542286 0.41973221 0.89748847
vn -0.28573892 0.33595788 0.89748847
vn -0.39255393 0.20103702 0.89748847
vn -0.43960598 0.03551017 0.89748847
vn -0.41973218 -0.13542289 0.89748847
vn -0.33595785 -0.28573897 0.89748847
vn -0.20103703 -0.39255393 0.89748853
vn -0.03551014 -0.43960619 0.89748847
vn 0.13542297 -0.41973221 0.89748842
vn 0.28573895 -0.33595797 0.89748842
vn 0.39255396 -0.20103709 0.89748847
vn 0.00000000 -0.00000000 1.00000000
f 1//1 3//3 2//2
f 1//1 4//4 3//3
f 1//1 5//5 4//4
f 1//1 6//6 5//5
f 1//1 7//7 6//6
f 1//1 8//8 7//7
f 1//1 9//9 8//8
f 1//1 10//10 9//9
f 1//1 11//11 10//10
f 1//1 12//12 11//11
f 1//1 13//13 12//12
f 1//1 14//14 13//13
f 1//1 15//15 14//14
f 1//1 16//16 15//15
f 1//1 17//17 16//16
f 1//1 2//2 17//17
f 2//2 3//3 19//19
f 2//2 19//19 18//18
f 3//3 4//4 20//20
f 3//3 20//20 19//19
f 4//4 5//5 21//21
f 4//4 21//21 20//20
f 5//5 6//6 22//22
f 5//5 22//22 21//21
f 6//6 7//7 23//23
f 6//6 23//23 22//22
f 7//7 8//8 24//24
f 7//7 24//24 23//23
f 8//8 9//9 25//25
f 8//8 25//25 24//24
f 9//9 10//10 26//26
f 9//9 26//26 25//25
f 10//10 11//11 27//27
f 10//10 27//27 26//26
f 11//11 12//12 28//28
f 11//11 28//28 27//27
f 12//12 13//13 29//29
f 12//12 29//29 28//28
f 13//13 14//14 30//30
f 13//13 30//30 29//29
f 14//14 15//15 31//31
f 14//14 31//31 30//30
f 15//15 16//16 32//32
f 15//15 32//32 31//31
f 16//16 17//17 33//33
f 16//16 33//33 32//32
f 17//17 2//2 18//18
f 17//17 18//18 33//33
f 18//18 19//19 35//35
f 18//18 35//35 34//34
f 19//19 20//20 36//36
f 19//19 36//36 35//35
f 20//20 21//21 37//37
f 20//20 37//37 36//36
f 21//21 22//22 38//38
f 21//21 38//38 37//37
f 22//22 23//23 39//39
f 22//22 39//39 38//38
f 23//23 24//24 40//40
f 23//23 40//40 39//39
f 24//24 25//25 41//41
f 24//24 41//41 40//40
f 25//25 26//26 42//42
f 25//25 42//42 41//41
f 26//26 27//27 43//43
f 26//26 43//43 42//42
f 27//27 28//28 44//44
f 27//27 44//44 43//43
f 28//28 29//29 45//45
f 28//28 45//45 44//44
f 29//29 30//30 46//46
f 29//29 46//46 45//45
f 30//30 31//31 47//47
f 30//30 47//47 46//46
f 31//31 32//32 48//48
f 31//31 48//48 47//47
f 32//32 33//33 49//49
f 32//32 49//49 48//48
f 33//33 18//18 34//34
f 33//33 34//34 49//49
f 34//34 35//35 51//51
f 34//34 51//51 50//50
f 35//35 36//36 52//52
f 35//35 52//52 51//51
f 36//36 37//37 53//53
f 36//36 53//53 52//52
f 37//37 38//38 54//54
f 37//37 54//54 53//53
f 38//38 39//39 55//55
f 38//38 55//55 54//54
f 39//39 40//40 56//56
f 39//39 56//56 55//55
f 40//40 41//41 57//57
f 40//40 57//57 56//56
f 41//41 42//42 58//58
f 41//41 58//58 57//57
f 42//42 43//43 59//59
f 42//42 59//59 58//58
f 43//43 44//44 60//60
f 43//43 60//60 59//59
f 44//44 45//45 61//61
f 44//44 61//61 60//60
f 45//45 46//46 62//62
f 45//45 62//62 61//61
f 46//46 47//47 63//63
f 46//46 63//63 62//62
f 47//47 48//48 64//64
f 47//47 64//64 63//63
f 48//48 49//49 65//65
f 48//48 65//65 64//64
f 49//49 34//34 50//50
f 49//49 50//50 65//65
f 50//50 51//51 67//67
f 50//50 67//67 66//66
f 51//51 52//52 68//68
f 51//51 68//68 67//67
f 52//52 53//53 69//69
f 52//52 69//69 68//68
f 53//53 54//54 70//70
f 53//53 70//70 69//69
f 54//54 55//55 71//71
f 54//54 71//71 70//70
f 55//55 56//56 72//72
f 55//55 72//72 71//71
f 56//56 57//57 73//73
f 56//56 73//73 72//72
f 57//57 58//58 74//74
f 57//57 74//74 73//73
f 58//58 59//59 75//75
f 58//58 75//75 74//74
f 59//59 60//60 76//76
f 59//59 76//76 75//75
f 60//60 61//61 77//77
f 60//60 77//77 76//76
f 61//61 62//62 78//78
f 61//61 78//78 77//77
f 62//62 63//63 79//79
f 62//62 79//79 78//78
f 63//63 64//64 80//80
f 63//63 80//80 79//79
f 64//64 65//65 81//81
f 64//64 81//81 80//80
f 65//65 50//50 66//66
f 65//65 66//66 81//81
f 66//66 67//67 83//83
f 66//66 83//83 82//82
f 67//67 68//68 84//84
f 67//67 84//84 83//83
f 68//68 69//69 85//85
f 68//68 85//85 84//84
f 69//69 70//70 86//86
f 69//69 86//86 85//85
f 70//70 71//71 87//87
f 70//70 87//87 86//86
f 71//71 72//72 88//88
f 71//71 88//88 87//87
f 72//72 73//73 89//89
f 72//72 89//89 88//88
f 73//73 74//74 90//90
f 73//73 90//90 89//89
f 74//74 75//75 91//91
f 74//74 91//91 90//90
f 75//75 76//76 92//92
f 75//75 92//92 91//91
f 76//76 77//77 93//93
f 76//76 93//93 92//92
f 77//77 78//78 94//94
f 77//77 94//94 93//93
f 78//78 79//79 95//95
f 78//78 95//95 94//94
f 79//79 80//80 96//96
f 79//79 96//96 95//95
f 80//80 81//81 97//97
f 80//80 97//97 96//96
f 81//81 66//66 82//82
f 81//81 82//82 97//97
f 82//82 83//83 99//99
f 82//82 99//99 98//98
f 83//83 84//84 100//100
f 83//83 100//100 99//99
f 84//84 85//85 101//101
f 84//84 101//101 100//100
f 85//85 86//86 102//102
f 85//85 102//102 101//101
f 86//86 87//87 103//103
f 86//86 103//103 102//102
f 87//87 88//88 104//104
f 87//87 104//104 103//103
f 88//88 89//89 105//105
f 88//88 105//105 104//104
f 89//89 90//90 106//106
f 89//89 106//106 105//105
f 90//90 91//91 107//107
f 90//90 107//107 106//106
f 91//91 92//92 108//108
f 91//91 108//108 107//107
f 92//92 93//93 109//109
f 92//92 109//109 108//108
f 93//93 94//94 110//110
f 93//93 110//110 109//109
f 94//94 95//95 111//111
f 94//94 111//111 110//110
f 95//95 96//96 112//112
f 95//95 112//112 111//111
f 96//96 97//97 113//113
f 96//96 113//113 112//112
f 97//97 82//82 98//98
f 97//97 98//98 113//113
f 98//98 99//99 114//114
f 99//99 100//100 114//114
f 100//100 101//101 114//114
f 101//101 102//102 114//114
f 102//102 103//103 114//114
f 103//103 104//104 114//114
f 104//104 105//105 114//114
f 105//105 106//106 114//114
f 106//106 107//107 114//114
f 107//107 108//108 114//114
f 108//108 109//109 114//114
f 109//109 110//110 114//114
f 110//110 111//111 114//114
f 111//111 112//112 114//114
f 112//112 113//113 114//114
f 113//113 98//98 114//114
f 115//115 117//117 116//116
f 115//115 118//118 117//117
f 115//115 119//119 118//118
f 115//115 120//120 119//119
f 115//115 121//121 120//120
f 115//115 122//122 121//121
f 115//115 123//123 122//122
f 115//115 124//124 123//123
f 115//115 125//125 124//124
f 115//115 126//126 125//125
f 115//115 127//127 126//126
f 115//115 128//128 127//127
f 115//115 129//129 128//128
f 115//115 130//130 129//129
f 115//115 131//131 130//130
f 115//115 116//116 131//131
f 116//116 117//117 133//133
f 116//116 133//133 132//132
f 117//117 118//118 134//134
f 117//117 134//134 133//133
f 118//118 119//119 135//135
f 118//118 135//135 134//134
f 119//119 120//120 136//136
f 119//119 136//136 135//135
f 120//120 121//121 137//137
f 120//120 137//137 136//136
f 121//121 122//122 138//138
f 121//121 138//138 137//137
f 122//122 123//123 139//139
f 122//122 139//139 138//138
f 123//123 124//124 140//140
f 123//123 140//140 139//139
f 124//124 125//125 141//141
f 124//124 141//141 140//140
f 125//125 126//126 142//142
f 125//125 142//142 141//141
f 126//126 127//127 143//143
f 126//126 143//143 142//142
f 127//127 128//128 144//144
f 127//127 144//144 143//143
f 128//128 129//129 145//145
f 128//128 145//145 144//144
f 129//129 130//130 146//146
f 129//129 146//146 145//145
f 130//130 131//131 147//147
f 130//130 147//147 146//146
f 131//131 116//116 132//132
f 131//131 132//132 147//147
f 132//132 133//133 149//149
f 132//132 149//149 148//148
f 133//133 134//134 150//150
f 133//133 150//150 149//149
f 134//134 135//135 151//151
f 134//134 151//151 150//150
f 135//135 136//136 152//152
f 135//135 152//152 151//151
f 136//136 137//137 153//153
f 136//136 153//153 152//152
f 137//137 138//138 154//154
f 137//137 154//154 153//153
f 138//138 139//139 155//155
f 138//138 155//155 154//154
f 139//139 140//140 156//156
f 139//139 156//156 155//155
f 140//140 141//141 157//157
f 140//140 157//157 156//156
f 141//141 142//142 158//158
f 141//141 158//158 157//157
f 142//142 143//143 159//159
f 142//142 159//159 158//158
f 143//143 144//144 160//160
f 143//143 160//160 159//159
f 144//144 145//145 161//161
f 144//144 161//161 160//160
f 145//145 146//146 162//162
f 145//145 162//162 161//161
f 146//146 147//147 163//163
f 146//146 163//163 162//162
f 147//147 132//132 148//148
f 147//147 148//148 163//163
f 148//148 149//149 165//165
f 148//148 165//165 164//164
f 149//149 150//150 166//166
f 149//149 166//166 165//165
f 150//150 151//151 167//167
f 150//150 167//167 166//166
f 151//151 152//152 168//168
f 151//151 168//168 167//167
f 152//152 153//153 169//169
f 152//152 169//169 168//168
f 153//153 154//154 170//170
f 153//153 170//170 169//169
f 154//154 155//155 171//171
f 154//154 171//171 170//170
f 155//155 156//156 172//172
f 155//155 172//172 171//171
f 156//156 157//157 173//173
f 156//156 173//173 172//172
f 157//157 158//158 174//174
f 157//157 174//174 173//173
f 158//158 159//159 175//175
f 158//158 175//175 174//174
f 159//159 160//160 176//176
f 159//159 176//176 175//175
f 160//160 161//161 177//177
f 160//160 177//177 176//176
f 161//161 162//162 178//178
f 161//161 178//178 177//177
f 162//162 163//163 179//179
f 162//162 179//179 178//178
f 163//163 148//148 164//164
f 163//163 164//164 179//179
f 164//164 165//165 181//181
f 164//164 181//181 180//180
f 165//165 166//166 182//182
f 165//165 182//182 181//181
f 166//166 167//167 183//183
f 166//166 183//183 182//182
f 167//167 168//168 184//184
f 167//167 184//184 183//183
f 168//168 169//169 185//185
f 168//168 185//185 184//184
f 169//169 170//170 186//186
f 169//169 186//186 185//185
f 170//170 171//171 187//187
f 170//170 187//187 186//186
f 171//171 172//172 188//188
f 171//171 188//188 187//187
f 172//172 173//173 189//189
f 172//172 189//189 188//188
f 173//173 174//174 190//190
f 173//173 190//190 189//189
f 174//174 175//175 191//191
f 174//174 191//191 190//190
f 175//175 176//176 192//192
f 175//175 192//192 191//191
f 176//176 177//177 193//193
f 176//176 193//193 192//192
f 177//177 178//178 194//194
f 177//177 194//194 193//193
f 178//178 179//179 195//195
f 178//178 195//195 194//194
f 179//179 164//164 180//180
f 179//179 180//180 195//195
f 180//180 181//181 197//197
f 180//180 197//197 196//196
f 181//181 182//182 198//198
f 181//181 198//198 197//197
f 182//182 183//183 199//199
f 182//182 199//199 198//198
f 183//183 184//184 200//200
f 183//183 200//200 199//199
f 184//184 185//185 201//201
f 184//184 201//201 200//200
f 185//185 186//186 202//202
f 185//185 202//202 201//201
f 186//186 187//187 203//203
f 186//186 203//203 202//202
f 187//187 188//188 204//204
f 187//187 204//204 203//203
f 188//188 189//189 205//205
f 188//188 205//205 204//204
f 189//189 190//190 206//206
f 189//189 206//206 205//205
f 190//190 191//191 207//207
f 190//190 207//207 206//206
f 191//191 192//192 208//208
f 191//191 208//208 207//207
f 192//192 193//193 209//209
f 192//192 209//209 208//208
f 193//193 194//194 210//210
f 193//193 210//210 209//209
f 194//194 195//195 211//211
f 194//194 211//211 210//210
f 195//195 180//180 196//196
f 195//195 196//196 211//211
f 196//196 197//197 213//213
f 196//196 213//213 212//212
f 197//197 198//198 214//214
f 197//197 214//214 213//213
f 198//198 199//199 215//215
f 198//198 215//215 214//214
f 199//199 200//200 216//216
f 199//199 216//216 215//215
f 200//200 201//201 217//217
f 200//200 217//217 216//216
f 201//201 202//202 218//218
f 201//201 218//218 217//217
f 202//202 203//203 219//219
f 202//202 219//219 218//218
f 203//203 204//204 220//220
f 203//203 220//220 219//219
f 204//204 205//205 221//221
f 204//204 221//221 220//220
f 205//205 206//206 222//222
f 205//205 222//222 221//221
f 206//206 207//207 223//223
f 206//206 223//223 222//222
f 207//207 208//208 224//224
f 207//207 224//224 223//223
f 208//208 209//209 225//225
f 208//208 225//225 224//224
f 209//209 210//210 226//226
f 209//209 226//226 225//225
f 210//210 211//211 227//227
f 210//210 227//227 226//226
f 211//211 196//196 212//212
f 211//211 212//212 227//227
f 212//212 213//213 228//228
f 213//213 214//214 228//228
f 214//214 215//215 228//228
f 215//215 216//216 228//228
f 216//216 217//217 228//228
f 217//217 218//218 228//228
f 218//218 219//219 228//228
f 219//219 220//220 228//228
f 220//220 221//221 228//228
f 221//221 222//222 228//228
f 222//222 223//223 228//228
f 223//223 224//224 228//228
f 224//224 225//225 228//228
f 225//225 226//226 228//228
f 226//226 227//227 228//228
f 227//227 212//212 228//228
f 229//229 231//231 230//230
f 229//229 232//232 231//231
f 229//229 233//233 232//232
f 229//229 234//234 233//233
f 229//229 235//235 234//234
f 229//229 236//236 235//235
f 229//229 237//237 236//236
f 229//229 238//238 237//237
f 229//229 239//239 238//238
f 229//229 240//240 239//239
f 229//229 241//241 240//240
f 229//229 242//242 241//241
f 229//229 243//243 242//242
f 229//229 244//244 243//243
f 229//229 245//245 244//244
f 229//229 230//230 245//245
f 230//230 231//231 247//247
f 230//230 247//247 246//246
f 231//231 232//232 248//248
f 231//231 248//248 247//247
f 232//232 233//233 249//249
f 232//232 249//249 248//248
f 233//233 234//234 250//250
f 233//233 250//250 249//249
f 234//234 235//235 251//251
f 234//234 251//251 250//250
f 235//235 236//236 252//252
f 235//235 252//252 251//251
f 236//236 237//237 253//253
f 236//236 253//253 252//252
f 237//237 238//238 254//254
f 237//237 254//254 253//253
f 238//238 239//239 255//255
f 238//238 255//255 254//254
f 239//239 240//240 256//256
f 239//239 256//256 255//255
f 240//240 241//241 257//257
f 240//240 257//257 256//256
f 241//241 242//242 258//258
f 241//241 258//258 257//257
f 242//242 243//243 259//259
f 242//242 259//259 258//258
f 243//243 244//244 260//260
f 243//243 260//260 259//259
f 244//244 245//245 261//261
f 244//244 261//261 260//260
f 245//245 230//230 246//246
f 245//245 246//246 261//261
f 246//246 247//247 263//263
f 246//246 263//263 262//262
f 247//247 248//248 264//264
f 247//247 264//264 263//263
f 248//248 249//249 265//265
f 248//248 265//265 264//264
f 249//249 250//250 266//266
f 249//249 266//266 265//265
f 250//250 251//251 267//267
f 250//250 267//267 266//266
f 251//251 252//252 268//268
f 251//251 268//268 267//267
f 252//252 253//253 269//269
f 252//252 269//269 268//268
f 253//253 254//254 270//270
f 253//253 270//270 269//269
f 254//254 255//255 271//271
f 254//254 271//271 270//270
f 255//255 256//256 272//272
f 255//255 272//272 271//271
f 256//256 257//257 273//273
f 256//256 273//273 272//272
f 257//257 258//258 274//274
f 257//257 274//274 273//273
f 258//258 259//259 275//275
f 258//258 275//275 274//274
f 259//259 260//260 276//276
f 259//259 276//276 275//275
f 260//260 261//261 277//277
f 260//260 277//277 276//276
f 261//261 246//246 262//262
f 261//261 262//262 277//277
f 262//262 263//263 279//279
f 262//262 279//279 278//278
f 263//263 264//264 280//280
f 263//263 280//280 279//279
f 264//264 265//265 281//281
f 264//264 281//281 280//280
f 265//265 266//266 282//282
f 265//265 282//282 281//281
f 266//266 267//267 283//283
f 266//266 283//283 282//282
f 267//267 268//268 284//284
f 267//267 284//284 283//283
f 268//268 269//269 285//285
f 268//268 285//285 284//284
f 269//269 270//270 286//286
f 269//269 286//286 285//285
f 270//270 271//271 287//287
f 270//270 287//287 286//286
f 271//271 272//272 288//288
f 271//271 288//288 287//287
f 272//272 273//273 289//289
f 272//272 289//289 288//288
f 273//273 274//274 290//290
f 273//273 290//290 289//289
f 274//274 275//275 291//291
f 274//274 291//291 290//290
f 275//275 276//276 292//292
f 275//275 292//292 291//291
f 276//276 277//277 293//293
f 276//276 293//293 292//292
f 277//277 262//262 278//278
f 277//277 278//278 293//293
f 278//278 279//279 295//295
f 278//278 295//295 294//294
f 279//279 280//280 296//296
f 279//279 296//296 295//295
f 280//280 281//281 297//297
f 280//280 297//297 296//296
f 281//281 282//282 298//298
f 281//281 298//298 297//297
f 282//282 283//283 299//299
f 282//282 299//299 298//298
f 283//283 284//284 300//300
f 283//283 300//300 299//299
f 284//284 285//285 301//301
f 284//284 301//301 300//300
f 285//285 286//286 302//302
f 285//285 302//302 301//301
f 286//286 287//287 303//303
f 286//286 303//303 302//302
f 287//287 288//288 304//304
f 287//287 304//304 303//303
f 288//288 289//289 305//305
f 288//288 305//305 304//304
f 289//289 290//290 306//306
f 289//289 306//306 305//305
f 290//290 291//291 307//307
f 290//290 307//307 306//306
f 291//291 292//292 308//308
f 291//291 308//308 307//307
f 292//292 293//293 309//309
f 292//292 309//309 308//308
f 293//293 278//278 294//294
f 293//293 294//294 309//309
f 294//294 295//295 311//311
f 294//294 311//311 310//310
f 295//295 296//296 312//312
f 295//295 312//312 311//311
f 296//296 297//297 313//313
f 296//296 313//313 312//312
f 297//297 298//298 314//314
f 297//297 314//314 313//313
f 298//298 299//299 315//315
f 298//298 315//315 314//314
f 299//299 300//300 316//316
f 299//299 316//316 315//315
f 300//300 301//301 317//317
f 300//300 317//317 316//316
f 301//301 302//302 318//318
f 301//301 318//318 317//317
f 302//302 303//303 319//319
f 302//302 319//319 318//318
f 303//303 304//304 320//320
f 303//303 320//320 319//319
f 304//304 305//305 321//321
f 304//304 321//321 320//320
f 305//305 306//306 322//322
f 305//305 322//322 321//321
f 306//306 307//307 323//323
f 306//306 323//323 322//322
f 307//307 308//308 324//324
f 307//307 324//324 323//323
f 308//308 309//309 325//325
f 308//308 325//325 324//324
f 309//309 294//294 310//310
f 309//309 310//310 325//325
f 310//310 311//311 327//327
f 310//310 327//327 326//326
f 311//311 312//312 328//328
f 311//311 328//328 327//327
f 312//312 313//313 329//329
f 312//312 329//329 328//328
f 313//313 314//314 330//330
f 313//313 330//330 329//329
f 314//314 315//315 331//331
f 314//314 331//331 330//330
f 315//315 316//316 332//332
f 315//315 332//332 331//331
f 316//316 317//317 333//333
f 316//316 333//333 332//332
f 317//317 318//318 334//334
f 317//317 334//334 333//333
f 318//318 319//319 335//335
f 318//318 335//335 334//334
f 319//319 320//320 336//336
f 319//319 336//336 335//335
f 320//320 321//321 337//337
f 320//320 337//337 336//336
f 321//321 322//322 338//338
f 321//321 338//338 337//337
f 322//322 323//323 339//339
f 322//322 339//339 338//338
f 323//323 324//324 340//340
f 323//323 340//340 339//339
f 324//324 325//325 341//341
f 324//324 341//341 340//340
f 325//325 310//310 326//326
f 325//325 326//326 341//341
f 326//326 327//327 342//342
f 327//327 328//328 342//342
f 328//328 329//329 342//342
f 329//329 330//330 342//342
f 330//330 331//331 342//342
f 331//331 332//332 342//342
f 332//332 333//333 342//342
f 333//333 334//334 342//342
f 334//334 335//335 342//342
f 335//335 336//336 342//342
f 336//336 337//337 342//342
f 337//337 338//338 342//342
f 338//338 339//339 342//342
f 339//339 340//340 342//342
f 340//340 341//341 342//342
f 341//341 326//326 342//342
f 343//343 345//345 344//344
f 343//343 346//346 345//345
f 343//343 347//347 346//346
f 343//343 348//348 347//347
f 343//343 349//349 348//348
f 343//343 350//350 349//349
f 343//343 351//351 350//350
f 343//343 352//352 351//351
f 343//343 353//353 352//352
f 343//343 354//354 353//353
f 343//343 355//355 354//354
f 343//343 356//356 355//355
f 343//343 357//357 356//356
f 343//343 358//358 357//357
f 343//343 359//359 358//358
f 343//343 344//344 359//359
f 344//344 345//345 361//361
f 344//344 361//361 360//360
f 345//345 346//346 362//362
f 345//345 362//362 361//361
f 346//346 347//347 363//363
f 346//346 363//363 362//362
f 347//347 348//348 364//364
f 347//347 364//364 363//363
f 348//348 349//349 365//365
f 348//348 365//365 364//364
f 349//349 350//350 366//366
f 349//349 366//366 365//365
f 350//350 351//351 367//367
f 350//350 367//367 366//366
f 351//351 352//352 368//368
f 351//351 368//368 367//367
f 352//352 353//353 369//369
f 352//352 369//369 368//368
f 353//353 354//354 370//370
f 353//353 370//370 369//369
f 354//354 355//355 371//371
f 354//354 371//371 370//370
f 355//355 356//356 372//372
f 355//355 372//372 371//371
f 356//356 357//357 373//373
f 356//356 373//373 372//372
f 357//357 358//358 374//374
f 357//357 374//374 373//373
f 358//358 359//359 375//375
f 358//358 375//375 374//374
f 359//359 344//344 360//360
f 359//359 360//360 375//375
f 360//360 361//361 377//377
f 360//360 377//377 376//376
f 361//361 362//362 378//378
f 361//361 378//378 377//377
f 362//362 363//363 379//379
f 362//362 379//379 378//378
f 363//363 364//364 380//380
f 363//363 380//380 379//379
f 364//364 365//365 381//381
f 364//364 381//381 380//380
f 365//365 366//366 382//382
f 365//365 382//382 381//381
f 366//366 367//367 383//383
f 366//366 383//383 382//382
f 367//367 368//368 384//384
f 367//367 384//384 383//383
f 368//368 369//369 385//385
f 368//368 385//385 384//384
f 369//369 370//370 386//386
f 369//369 386//386 385//385
f 370//370 371//371 387//387
f 370//370 387//387 386//386
f 371//371 372//372 388//388
f 371//371 388//388 387//387
f 372//372 373//373 389//389
f 372//372 389//389 388//388
f 373//373 374//374 390//390
f 373//373 390//390 389//389
f 374//374 375//375 391//391
f 374//374 391//391 390//390
f 375//375 360//360 376//376
f 375//375 376//376 391//391
f 376//376 377//377 393//393
f 376//376 393//393 392//392
f 377//377 378//378 394//394
f 377//377 394//394 393//393
f 378//378 379//379 395//395
f 378//378 395//395 394//394
f 379//379 380//380 396//396
f 379//379 396//396 395//395
f 380//380 381//381 397//397
f 380//380 397//397 396//396
f 381//381 382//382 398//398
f 381//381 398//398 397//397
f 382//382 383//383 399//399
f 382//382 399//399 398//398
f 383//383 384//384 400//400
f 383//383 400//400 399//399
f 384//384 385//385 401//401
f 384//384 401//401 400//400
f 385//385 386//386 402//402
f 385//385 402//402 401//401
f 386//386 387//387 403//403
f 386//386 403//403 402//402
f 387//387 388//388 404//404
f 387//387 404//404 403//403
f 388//388 389//389 405//405
f 388//388 405//405 404//404
f 389//389 390//390 406//406
f 389//389 406//406 405//405
f 390//390 391//391 407//407
f 390//390 407//407 406//406
f 391//391 376//376 392//392
f 391//391 392//392 407//407
f 392//392 393//393 409//409
f 392//392 409//409 408//408
f 393//393 394//394 410//410
f 393//393 410//410 409//409
f 394//394 395//395 411//411
f 394//394 411//411 410//410
f 395//395 396//396 412//412
f 395//395 412//412 411//411
f 396//396 397//397 413//413
f 396//396 413//413 412//412
f 397//397 398//398 414//414
f 397//397 414//414 413//413
f 398//398 399//399 415//415
f 398//398 415//415 414//414
f 399//399 400//400 416//416
f 399//399 416//416 415//415
f 400//400 401//401 417//417
f 400//400 417//417 416//416
f 401//401 402//402 418//418
f 401//401 418//418 417//417
f 402//402 403//403 419//419
f 402//402 419//419 418//418
f 403//403 404//404 420//420
f 403//403 420//420 419//419
f 404//404 405//405 421//421
f 404//404 421//421 420//420
f 405//405 406//406 422//422
f 405//405 422//422 421//421
f 406//406 407//407 423//423
f 406//406 423//423 422//422
f 407//407 392//392 408//408
f 407//407 408//408 423//423
f 408//408 409//409 425//425
f 408//408 425//425 424//424
f 409//409 410//410 426//426
f 409//409 426//426 425//425
f 410//410 411//411 427//427
f 410//410 427//427 426//426
f 411//411 412//412 428//428
f 411//411 428//428 427//427
f 412//412 413//413 429//429
f 412//412 429//429 428//428
f 413//413 414//414 430//430
f 413//413 430//430 429//429
f 414//414 415//415 431//431
f 414//414 431//431 430//430
f 415//415 416//416 432//432
f 415//415 432//432 431//431
f 416//416 417//417 433//433
f 416//416 433//433 432//432
f 417//417 418//418 434//434
f 417//417 434//434 433//433
f 418//418 419//419 435//435
f 418//418 435//435 434//434
f 419//419 420//420 436//436
f 419//419 436//436 435//435
f 420//420 421//421 437//437
f 420//420 437//437 436//436
f 421//421 422//422 438//438
f 421//421 438//438 437//437
f 422//422 423//423 439//439
f 422//422 439//439 438//438
f 423//423 408//408 424//424
f 423//423 424//424 439//439
f 424//424 425//425 441//441
f 424//424 441//441 440//440
f 425//425 426//426 442//442
f 425//425 442//442 441//441
f 426//426 427//427 443//443
f 426//426 443//443 442//442
f 427//427 428//428 444//444
f 427//427 444//444 443//443
f 428//428 429//429 445//445
f 428//428 445//445 444//444
f 429//429 430//430 446//446
f 429//429 446//446 445//445
f 430//430 431//431 447//447
f 430//430 447//447 446//446
f 431//431 432//432 448//448
f 431//431 448//448 447//447
f 432//432 433//433 449//449
f 432//432 449//449 448//448
f 433//433 434//434 450//450
f 433//433 450//450 449//449
f 434//434 435//435 451//451
f 434//434 451//451 450//450
f 435//435 436//436 452//452
f 435//435 452//452 451//451
f 436//436 437//437 453//453
f 436//436 453//453 452//452
f 437//437 438//438 454//454
f 437//437 454//454 453//453
f 438//438 439//439 455//455
f 438//438 455//455 454//454
f 439//439 424//424 440//440
f 439//439 440//440 455//455
f 440//440 441//441 456//456
f 441//441 442//442 456//456
f 442//442 443//443 456//456
f 443//443 444//444 456//456
f 444//444 445//445 456//456
f 445//445 446//446 456//456
f 446//446 447//447 456//456
f 447//447 448//448 456//456
f 448//448 449//449 456//456
f 449//449 450//450 456//456
f 450//450 451//451 456//456
f 451//451 452//452 456//456
f 452//452 453//453 456//456
f 453//453 454//454 456//456
f 454//454 455//455 456//456
f 455//455 440//440 456//456
f 457//457 459//459 458//458
f 457//457 460//460 459//459
f 457//457 461//461 460//460
f 457//457 462//462 461//461
f 457//457 463//463 462//462
f 457//457 464//464 463//463
f 457//457 465//465 464//464
f 457//457 466//466 465//465
f 457//457 467//467 466//466
f 457//457 468//468 467//467
f 457//457 469//469 468//468
f 457//457 470//470 469//469
f 457//457 471//471 470//470
f 457//457 472//472 471//471
f 457//457 473//473 472//472
f 457//457 458//458 473//473
f 458//458 459//459 475//475
f 458//458 475//475 474//474
f 459//459 460//460 476//476
f 459//459 476//476 475//475
f 460//460 461//461 477//477
f 460//460 477//477 476//476
f 461//461 462//462 478//478
f 461//461 478//478 477//477
f 462//462 463//463 479//479
f 462//462 479//479 478//478
f 463//463 464//464 480//480
f 463//463 480//480 479//479
f 464//464 465//465 481//481
f 464//464 481//481 480//480
f 465//465 466//466 482//482
f 465//465 482//482 481//481
f 466//466 467//467 483//483
f 466//466 483//483 482//482
f 467//467 468//468 484//484
f 467//467 484//484 483//483
f 468//468 469//469 485//485
f 468//468 485//485 484//484
f 469//469 470//470 486//486
f 469//469 486//486 485//485
f 470//470 471//471 487//487
f 470//470 487//487 486//486
f 471//471 472//472 488//488
f 471//471 488//488 487//487
f 472//472 473//473 489//489
f 472//472 489//489 488//488
f 473//473 458//458 474//474
f 473//473 474//474 489//489
f 474//474 475//475 491//491
f 474//474 491//491 490//490
f 475//475 476//476 492//492
f 475//475 492//492 491//491
f 476//476 477//477 493//493
f 476//476 493//493 492//492
f 477//477 478//478 494//494
f 477//477 494//494 493//493
f 478//478 479//479 495//495
f 478//478 495//495 494//494
f 479//479 480//480 496//496
f 479//479 496//496 495//495
f 480//480 481//481 497//497
f 480//480 497//497 496//496
f 481//481 482//482 498//498
f 481//481 498//498 497//497
f 482//482 483//483 499//499
f 482//482 499//499 498//498
f 483//483 484//484 500//500
f 483//483 500//500 499//499
f 484//484 485//485 501//501
f 484//484 501//501 500//500
f 485//485 486//486 502//502
f 485//485 502//502 501//501
f 486//486 487//487 503//503
f 486//486 503//503 502//502
f 487//487 488//488 504//504
f 487//487 504//504 503//503
f 488//488 489//489 505//505
f 488//488 505//505 504//504
f 489//489 474//474 490//490
f 489//489 490//490 505//505
f 490//490 491//491 507//507
f 490//490 507//507 506//506
f 491//491 492//492 508//508
f 491//491 508//508 507//507
f 492//492 493//493 509//509
f 492//492 509//509 508//508
f 493//493 494//494 510//510
f 493//493 510//510 509//509
f 494//494 495//495 511//511
f 494//494 511//511 510//510
f 495//495 496//496 512//512
f 495//495 512//512 511//511
f 496//496 497//497 513//513
f 496//496 513//513 512//512
f 497//497 498//498 514//514
f 497//497 514//514 513//513
f 498//498 499//499 515//515
f 498//498 515//515 514//514
f 499//499 500//500 516//516
f 499//499 516//516 515//515
f 500//500 501//501 517//517
f 500//500 517//517 516//516
f 501//501 502//502 518//518
f 501//501 518//518 517//517
f 502//502 503//503 519//519
f 502//502 519//519 518//518
f 503//503 504//504 520//520
f 503//503 520//520 519//519
f 504//504 505//505 521//521
f 504//504 521//521 520//520
f 505//505 490//490 506//506
f 505//505 506//506 521//521
f 506//506 507//507 523//523
f 506//506 523//523 522//522
f 507//507 508//508 524//524
f 507//507 524//524 523//523
f 508//508 509//509 525//525
f 508//508 525//525 524//524
f 509//509 510//510 526//526
f 509//509 526//526 525//525
f 510//510 511//511 527//527
f 510//510 527//527 526//526
f 511//511 512//512 528//528
f 511//511 528//528 527//527
f 512//512 513//513 529//529
f 512//512 529//529 528//528
f 513//513 514//514 530//530
f 513//513 530//530 529//529
f 514//514 515//515 531//531
f 514//514 531//531 530//530
f 515//515 516//516 532//532
f 515//515 532//532 531//531
f 516//516 517//517 533//533
f 516//516 533//533 532//532
f 517//517 518//518 534//534
f 517//517 534//534 533//533
f 518//518 519//519 535//535
f 518//518 535//535 534//534
f 519//519 520//520 536//536
f 519//519 536//536 535//535
f 520//520 521//521 537//537
f 520//520 537//537 536//536
f 521//521 506//506 522//522
f 521//521 522//522 537//537
f 522//522 523//523 539//539
f 522//522 539//539 538//538
f 523//523 524//524 540//540
f 523//523 540//540 539//539
f 524//524 525//525 541//541
f 524//524 541//541 540//540
f 525//525 526//526 542//542
f 525//525 542//542 541//541
f 526//526 527//527 543//543
f 526//526 543//543 542//542
f 527//527 528//528 544//544
f 527//527 544//544 543//543
f 528//528 529//529 545//545
f 528//528 545//545 544//544
f 529//529 530//530 546//546
f 529//529 546//546 545//545
f 530//530 531//531 547//547
f 530//530 547//547 546//546
f 531//531 532//532 548//548
f 531//531 548//548 547//547
f 532//532 533//533 549//549
f 532//532 549//549 548//548
f 533//533 534//534 550//550
f 533//533 550//550 549//549
f 534//534 535//535 551//551
f 534//534 551//551 550//550
f 535//535 536//536 552//552
f 535//535 552//552 551//551
f 536//536 537//537 553//553
f 536//536 553//553 552//552
f 537//537 522//522 538//538
f 537//537 538//538 553//553
f 538//538 539//539 555//555
f 538//538 555//555 554//554
f 539//539 540//540 556//556
f 539//539 556//556 555//555
f 540//540 541//541 557//557
f 540//540 557//557 556//556
f 541//541 542//542 558//558
f 541//541 558//558 557//557
f 542//542 543//543 559//559
f 542//542 559//559 558//558
f 543//543 544//544 560//560
f 543//543 560//560 559//559
f 544//544 545//545 561//561
f 544//544 561//561 560//560
f 545//545 546//546 562//562
f 545//545 562//562 561//561
f 546//546 547//547 563//563
f 546//546 563//563 562//562
f 547//547 548//548 564//564
f 547//547 564//564 563//563
f 548//548 549//549 565//565
f 548//548 565//565 564//564
f 549//549 550//550 566//566
f 549//549 566//566 565//565
f 550//550 551//551 567//567
f 550//550 567//567 566//566
f 551//551 552//552 568//568
f 551//551 568//568 567//567
f 552//552 553//553 569//569
f 552//552 569//569 568//568
f 553//553 538//538 554//554
f 553//553 554//554 569//569
f 554//554 555//555 570//570
f 555//555 556//556 570//570
f 556//556 557//557 570//570
f 557//557 558//558 570//570
f 558//558 559//559 570//570
f 559//559 560//560 570//570
f 560//560 561//561 570//570
f 561//561 562//562 570//570
f 562//562 563//563 570//570
f 563//563 564//564 570//570
f 564//564 565//565 570//570
f 565//565 566//566 570//570
f 566//566 567//567 570//570
f 567//567 568//568 570//570
f 568//568 569//569 570//570
f 569//569 554//554 570//570
