mtllib vehicle.mtl
o base_board
usemtl board
v -0.06800000 -0.02550000 0.05200000
v -0.00200000 -0.02550000 0.05200000
v -0.00200000 0.02550000 0.05200000
v -0.06800000 0.02550000 0.05200000
v -0.06800000 -0.02550000 0.05360000
v -0.00200000 -0.02550000 0.05360000
v -0.00200000 0.02550000 0.05360000
v -0.06800000 0.02550000 0.05360000
vn -0.02418772 -0.06260353 -0.99774534
vn 0.02423228 -0.01567971 -0.99958342
vn 0.02418772 0.06260353 -0.99774534
vn -0.02423228 0.01567971 -0.99958342
vn -0.04840411 -0.03132031 0.99833661
vn 0.01211434 -0.03135477 0.99943489
vn 0.04840411 0.03132031 0.99833661
vn -0.01211434 0.03135477 0.99943489
f 2//2 1//1 4//4
f 4//4 3//3 2//2
f 8//8 5//5 6//6
f 6//6 7//7 8//8
f 1//1 2//2 6//6
f 1//1 6//6 5//5
f 2//2 3//3 7//7
f 2//2 7//7 6//6
f 3//3 4//4 8//8
f 3//3 8//8 7//7
f 4//4 1//1 5//5
f 4//4 5//5 8//8
