mtllib vehicle.mtl
o camera_rubber
usemtl rubber
v -0.00400000 -0.00830000 0.00000000
v -0.00400000 -0.00819781 -0.00129841
v -0.00400000 -0.00789377 -0.00256484
v -0.00400000 -0.00739535 -0.00376812
v -0.00400000 -0.00671484 -0.00487862
v -0.00400000 -0.00586899 -0.00586899
v -0.00400000 -0.00487862 -0.00671484
v -0.00400000 -0.00376812 -0.00739535
v -0.00400000 -0.00256484 -0.00789377
v -0.00400000 -0.00129841 -0.00819781
v -0.00400000 -0.00000000 -0.00830000
v -0.00400000 0.00129841 -0.00819781
v -0.00400000 0.00256484 -0.00789377
v -0.00400000 0.00376812 -0.00739535
v -0.00400000 0.00487862 -0.00671484
v -0.00400000 0.00586899 -0.00586899
v -0.00400000 0.00671484 -0.00487862
v -0.00400000 0.00739535 -0.00376812
v -0.00400000 0.00789377 -0.00256484
v -0.00400000 0.00819781 -0.00129841
v -0.00400000 0.00830000 -0.00000000
v -0.00400000 0.00819781 0.00129841
v -0.00400000 0.00789377 0.00256484
v -0.00400000 0.00739535 0.00376812
v -0.00400000 0.00671484 0.00487862
v -0.00400000 0.00586899 0.00586899
v -0.00400000 0.00487862 0.00671484
v -0.00400000 0.00376812 0.00739535
v -0.00400000 0.00256484 0.00789377
v -0.00400000 0.00129841 0.00819781
v -0.00400000 0.00000000 0.00830000
v -0.00400000 -0.00129841 0.00819781
v -0.00400000 -0.00256484 0.00789377
v -0.00400000 -0.00376812 0.00739535
v -0.00400000 -0.00487862 0.00671484
v -0.00400000 -0.00586899 0.00586899
v -0.00400000 -0.00671484 0.00487862
v -0.00400000 -0.00739535 0.00376812
v -0.00400000 -0.00789377 0.00256484
v -0.00400000 -0.00819781 0.00129841
v 0.00050000 -0.00830000 0.00000000
v 0.00050000 -0.00819781 -0.00129841
v 0.00050000 -0.00789377 -0.00256484
v 0.00050000 -0.00739535 -0.00376812
v 0.00050000 -0.00671484 -0.00487862
v 0.00050000 -0.00586899 -0.00586899
v 0.00050000 -0.00487862 -0.00671484
v 0.00050000 -0.00376812 -0.00739535
v 0.00050000 -0.00256484 -0.00789377
v 0.00050000 -0.00129841 -0.00819781
v 0.00050000 -0.00000000 -0.00830000
v 0.00050000 0.00129841 -0.00819781
v 0.00050000 0.00256484 -0.00789377
v 0.00050000 0.00376812 -0.00739535
v 0.00050000 0.00487862 -0.00671484
v 0.00050000 0.00586899 -0.00586899
v 0.00050000 0.00671484 -0.00487862
v 0.00050000 0.00739535 -0.00376812
v 0.00050000 0.00789377 -0.00256484
v 0.00050000 0.00819781 -0.00129841
v 0.00050000 0.00830000 -0.00000000
v 0.00050000 0.00819781 0.00129841
v 0.00050000 0.00789377 0.00256484
v 0.00050000 0.00739535 0.00376812
v 0.00050000 0.00671484 0.00487862
v 0.00050000 0.00586899 0.00586899
v 0.00050000 0.00487862 0.00671484
v 0.00050000 0.00376812 0.00739535
v 0.00050000 0.00256484 0.00789377
v 0.00050000 0.00129841 0.00819781
v 0.00050000 0.00000000 0.00830000
v 0.00050000 -0.00129841 0.00819781
v 0.00050000 -0.00256484 0.00789377
v 0.00050000 -0.00376812 0.00739535
v 0.00050000 -0.00487862 0.00671484
v 0.00050000 -0.00586899 0.00586899
v 0.00050000 -0.00671484 0.00487862
v 0.00050000 -0.00739535 0.00376812
v 0.00050000 -0.00789377 0.00256484
v 0.00050000 -0.00819781 0.00129841
vn -0.99917370 -0.04062906 -0.00106586
vn -0.01513186 -0.98313355 -0.18226179
vn -0.06005309 -0.94092417 -0.33324954
vn -0.13278906 -0.87101197 -0.47297496
vn -0.22854443 -0.77232766 -0.59268665
vn -0.33874139 -0.64762598 -0.68252093
vn -0.45198649 -0.50521314 -0.73516518
vn -0.55727965 -0.35742813 -0.74945611
vn -0.64736557 -0.21643573 -0.73080331
vn -0.71980405 -0.09057527 -0.68824291
vn -0.77572173 0.01654984 -0.63085812
vn -0.81789100 0.10488056 -0.56573349
vn -0.84933770 0.17622375 -0.49756464
vn -0.87268543 0.23300895 -0.42910007
vn -0.88998044 0.27761185 -0.36175492
vn -0.90273219 0.31207234 -0.29611716
vn -0.91202050 0.33802208 -0.23229228
vn -0.91859865 0.35670239 -0.17011732
vn -0.92297733 0.36901107 -0.10928684
vn -0.92548364 0.37554926 -0.04942365
vn -0.92629969 0.37665805 0.00988119
vn -0.92548376 0.37244132 0.06904639
vn -0.92297733 0.36277345 0.12848441
vn -0.91859865 0.34729221 0.18858585
vn -0.91202056 0.32537764 0.24969582
vn -0.90273219 0.29611716 0.31207234
vn -0.88998032 0.25826257 0.37581301
vn -0.87268555 0.21019003 0.44072691
vn -0.84933770 0.14989318 0.50611991
vn -0.81789100 0.07507388 0.57045442
vn -0.77572173 -0.01654984 0.63085812
vn -0.71980405 -0.12653649 0.68254715
vn -0.64736545 -0.25445527 0.71844995
vn -0.55727965 -0.39623177 0.72968471
vn -0.45198652 -0.54306418 0.70766479
vn -0.33874139 -0.68252093 0.64762598
vn -0.22854441 -0.80234092 0.55137700
vn -0.13278906 -0.89461273 0.42665574
vn -0.06005310 -0.95710278 0.28345692
vn -0.01513186 -0.99133754 0.13046363
vn 0.99917370 -0.04062906 0.00106586
vn 0.01513186 -0.99133754 -0.13046363
vn 0.06005310 -0.95710278 -0.28345692
vn 0.13278906 -0.89461273 -0.42665574
vn 0.22854441 -0.80234092 -0.55137700
vn 0.33874139 -0.68252093 -0.64762598
vn 0.45198652 -0.54306418 -0.70766479
vn 0.55727965 -0.39623177 -0.72968471
vn 0.64736545 -0.25445527 -0.71844995
vn 0.71980405 -0.12653649 -0.68254715
vn 0.77572173 -0.01654984 -0.63085812
vn 0.81789100 0.07507388 -0.57045442
vn 0.84933770 0.14989318 -0.50611991
vn 0.87268555 0.21019003 -0.44072691
vn 0.88998032 0.25826257 -0.37581301
vn 0.90273219 0.29611716 -0.31207234
vn 0.91202056 0.32537764 -0.24969582
vn 0.91859865 0.34729221 -0.18858585
vn 0.92297733 0.36277345 -0.12848441
vn 0.92548376 0.37244132 -0.06904639
vn 0.92629969 0.37665805 -0.00988119
vn 0.92548364 0.37554926 0.04942365
vn 0.92297733 0.36901107 0.10928684
vn 0.91859865 0.35670239 0.17011732
vn 0.91202050 0.33802208 0.23229228
vn 0.90273219 0.31207234 0.29611716
vn 0.88998044 0.27761185 0.36175492
vn 0.87268543 0.23300895 0.42910007
vn 0.84933770 0.17622375 0.49756464
vn 0.81789100 0.10488056 0.56573349
vn 0.77572173 0.01654984 0.63085812
vn 0.71980405 -0.09057527 0.68824291
vn 0.64736557 -0.21643573 0.73080331
vn 0.55727965 -0.35742813 0.74945611
vn 0.45198649 -0.50521314 0.73516518
vn 0.33874139 -0.64762598 0.68252093
vn 0.22854443 -0.77232766 0.59268665
vn 0.13278906 -0.87101197 0.47297496
vn 0.06005309 -0.94092417 0.33324954
vn 0.01513186 -0.98313355 0.18226179
f 1//1 2//2 42//42
f 1//1 42//42 41//41
f 2//2 3//3 43//43
f 2//2 43//43 42//42
f 3//3 4//4 44//44
f 3//3 44//44 43//43
f 4//4 5//5 45//45
f 4//4 45//45 44//44
f 5//5 6//6 46//46
f 5//5 46//46 45//45
f 6//6 7//7 47//47
f 6//6 47//47 46//46
f 7//7 8//8 48//48
f 7//7 48//48 47//47
f 8//8 9//9 49//49
f 8//8 49//49 48//48
f 9//9 10//10 50//50
f 9//9 50//50 49//49
f 10//10 11//11 51//51
f 10//10 51//51 50//50
f 11//11 12//12 52//52
f 11//11 52//52 51//51
f 12//12 13//13 53//53
f 12//12 53//53 52//52
f 13//13 14//14 54//54
f 13//13 54//54 53//53
f 14//14 15//15 55//55
f 14//14 55//55 54//54
f 15//15 16//16 56//56
f 15//15 56//56 55//55
f 16//16 17//17 57//57
f 16//16 57//57 56//56
f 17//17 18//18 58//58
f 17//17 58//58 57//57
f 18//18 19//19 59//59
f 18//18 59//59 58//58
f 19//19 20//20 60//60
f 19//19 60//60 59//59
f 20//20 21//21 61//61
f 20//20 61//61 60//60
f 21//21 22//22 62//62
f 21//21 62//62 61//61
f 22//22 23//23 63//63
f 22//22 63//63 62//62
f 23//23 24//24 64//64
f 23//23 64//64 63//63
f 24//24 25//25 65//65
f 24//24 65//65 64//64
f 25//25 26//26 66//66
f 25//25 66//66 65//65
f 26//26 27//27 67//67
f 26//26 67//67 66//66
f 27//27 28//28 68//68
f 27//27 68//68 67//67
f 28//28 29//29 69//69
f 28//28 69//69 68//68
f 29//29 30//30 70//70
f 29//29 70//70 69//69
f 30//30 31//31 71//71
f 30//30 71//71 70//70
f 31//31 32//32 72//72
f 31//31 72//72 71//71
f 32//32 33//33 73//73
f 32//32 73//73 72//72
f 33//33 34//34 74//74
f 33//33 74//74 73//73
f 34//34 35//35 75//75
f 34//34 75//75 74//74
f 35//35 36//36 76//76
f 35//35 76//76 75//75
f 36//36 37//37 77//77
f 36//36 77//77 76//76
f 37//37 38//38 78//78
f 37//37 78//78 77//77
f 38//38 39//39 79//79
f 38//38 79//79 78//78
f 39//39 40//40 80//80
f 39//39 80//80 79//79
f 40//40 1//1 41//41
f 40//40 41//41 80//80
f 1//1 3//3 2//2
f 1//1 4//4 3//3
f 1//1 5//5 4//4
f 1//1 6//6 5//5
f 1//1 7//7 6//6
f 1//1 8//8 7//7
f 1//1 9//9 8//8
f 1//1 10//10 9//9
f 1//1 11//11 10//10
f 1//1 12//12 11//11
f 1//1 13//13 12//12
f 1//1 14//14 13//13
f 1//1 15//15 14//14
f 1//1 16//16 15//15
f 1//1 17//17 16//16
f 1//1 18//18 17//17
f 1//1 19//19 18//18
f 1//1 20//20 19//19
f 1//1 21//21 20//20
f 1//1 22//22 21//21
f 1//1 23//23 22//22
f 1//1 24//24 23//23
f 1//1 25//25 24//24
f 1//1 26//26 25//25
f 1//1 27//27 26//26
f 1//1 28//28 27//27
f 1//1 29//29 28//28
f 1//1 30//30 29//29
f 1//1 31//31 30//30
f 1//1 32//32 31//31
f 1//1 33//33 32//32
f 1//1 34//34 33//33
f 1//1 35//35 34//34
f 1//1 36//36 35//35
f 1//1 37//37 36//36
f 1//1 38//38 37//37
f 1//1 39//39 38//38
f 1//1 40//40 39//39
f 41//41 42//42 43//43
f 41//41 43//43 44//44
f 41//41 44//44 45//45
f 41//41 45//45 46//46
f 41//41 46//46 47//47
f 41//41 47//47 48//48
f 41//41 48//48 49//49
f 41//41 49//49 50//50
f 41//41 50//50 51//51
f 41//41 51//51 52//52
f 41//41 52//52 53//53
f 41//41 53//53 54//54
f 41//41 54//54 55//55
f 41//41 55//55 56//56
f 41//41 56//56 57//57
f 41//41 57//57 58//58
f 41//41 58//58 59//59
f 41//41 59//59 60//60
f 41//41 60//60 61//61
f 41//41 61//61 62//62
f 41//41 62//62 63//63
f 41//41 63//63 64//64
f 41//41 64//64 65//65
f 41//41 65//65 66//66
f 41//41 66//66 67//67
f 41//41 67//67 68//68
f 41//41 68//68 69//69
f 41//41 69//69 70//70
f 41//41 70//70 71//71
f 41//41 71//71 72//72
f 41//41 72//72 73//73
f 41//41 73//73 74//74
f 41//41 74//74 75//75
f 41//41 75//75 76//76
f 41//41 76//76 77//77
f 41//41 77//77 78//78
f 41//41 78//78 79//79
f 41//41 79//79 80//80
