mtllib vehicle.mtl
o camera_teal
usemtl teal
v 0.00130000 0.00233328 -0.00992954
v 0.00099879 0.00250639 -0.01053058
v 0.00032198 0.00254914 -0.01067902
v -0.00022078 0.00242935 -0.01026309
v -0.00022078 0.00223721 -0.00959599
v 0.00032198 0.00211742 -0.00918007
v 0.00099879 0.00216017 -0.00932851
v 0.00130000 0.00330578 -0.00964945
v 0.00099879 0.00350849 -0.01024115
v 0.00032198 0.00355855 -0.01038729
v -0.00022078 0.00341827 -0.00997782
v -0.00022078 0.00319328 -0.00932108
v 0.00032198 0.00305300 -0.00891160
v 0.00099879 0.00310306 -0.00905774
v 0.00130000 0.00424573 -0.00927436
v 0.00099879 0.00450608 -0.00984307
v 0.00032198 0.00457038 -0.00998353
v -0.00022078 0.00439021 -0.00958997
v -0.00022078 0.00410125 -0.00895875
v 0.00032198 0.00392108 -0.00856520
v 0.00099879 0.00398538 -0.00870566
v 0.00130000 0.00514389 -0.00880798
v 0.00099879 0.00545931 -0.00934808
v 0.00032198 0.00553721 -0.00948148
v -0.00022078 0.00531893 -0.00910771
v -0.00022078 0.00496884 -0.00850824
v 0.00032198 0.00475056 -0.00813447
v 0.00099879 0.00482846 -0.00826787
v 0.00130000 0.00599141 -0.00825488
v 0.00099879 0.00635880 -0.00876107
v 0.00032198 0.00644954 -0.00888609
v -0.00022078 0.00619529 -0.00853580
v -0.00022078 0.00578752 -0.00797397
v 0.00032198 0.00553327 -0.00762367
v 0.00099879 0.00562401 -0.00774869
v 0.00130000 0.00677994 -0.00762052
v 0.00099879 0.00719569 -0.00808781
v 0.00032198 0.00729837 -0.00820323
v -0.00022078 0.00701067 -0.00787985
v -0.00022078 0.00654922 -0.00736120
v 0.00032198 0.00626152 -0.00703782
v 0.00099879 0.00636420 -0.00715323
v 0.00130000 0.00750174 -0.00691115
v 0.00099879 0.00796174 -0.00733494
v 0.00032198 0.00807536 -0.00743961
v -0.00022078 0.00775702 -0.00714633
v -0.00022078 0.00724645 -0.00667596
v 0.00032198 0.00692812 -0.00638269
v 0.00099879 0.00704173 -0.00648735
v 0.00130000 0.00814968 -0.00613373
v 0.00099879 0.00864942 -0.00650985
v 0.00032198 0.00877285 -0.00660275
v -0.00022078 0.00842702 -0.00634247
v -0.00022078 0.00787235 -0.00592500
v 0.00032198 0.00752652 -0.00566472
v 0.00099879 0.00764994 -0.00575761
v 0.00130000 0.00871740 -0.00529594
v 0.00099879 0.00925195 -0.00562069
v 0.00032198 0.00938397 -0.00570089
v -0.00022078 0.00901405 -0.00547616
v -0.00022078 0.00842074 -0.00511572
v 0.00032198 0.00805082 -0.00489098
v 0.00099879 0.00818285 -0.00497119
v 0.00130000 0.00919930 -0.00440601
v 0.00099879 0.00976340 -0.00467619
v 0.00032198 0.00990272 -0.00474291
v -0.00022078 0.00951235 -0.00455595
v -0.00022078 0.00888625 -0.00425607
v 0.00032198 0.00849587 -0.00406910
v 0.00099879 0.00863520 -0.00413583
v 0.00130000 0.00959064 -0.00347270
v 0.00099879 0.01017874 -0.00368565
v 0.00032198 0.01032398 -0.00373824
v -0.00022078 0.00991701 -0.00359088
v -0.00022078 0.00926427 -0.00335453
v 0.00032198 0.00885729 -0.00320716
v 0.00099879 0.00900254 -0.00325976
v 0.00130000 0.00988756 -0.00250521
v 0.00099879 0.01049387 -0.00265883
v 0.00032198 0.01064361 -0.00269678
v -0.00022078 0.01022404 -0.00259047
v -0.00022078 0.00955109 -0.00241996
v 0.00032198 0.00913151 -0.00231365
v 0.00099879 0.00928126 -0.00235159
v 0.00130000 0.01008715 -0.00151306
v 0.00099879 0.01070570 -0.00160584
v 0.00032198 0.01085847 -0.00162876
v -0.00022078 0.01043042 -0.00156455
v -0.00022078 0.00974389 -0.00146157
v 0.00032198 0.00931584 -0.00139737
v 0.00099879 0.00946861 -0.00142028
v 0.00130000 0.01018744 -0.00050601
v 0.00099879 0.01081214 -0.00053704
v 0.00032198 0.01096642 -0.00054471
v -0.00022078 0.01053412 -0.00052323
v -0.00022078 0.00984076 -0.00048879
v 0.00032198 0.00940846 -0.00046732
v 0.00099879 0.00956275 -0.00047499
v 0.00130000 0.01018744 0.00050601
v 0.00099879 0.01081214 0.00053704
v 0.00032198 0.01096642 0.00054471
v -0.00022078 0.01053412 0.00052323
v -0.00022078 0.00984076 0.00048879
v 0.00032198 0.00940846 0.00046732
v 0.00099879 0.00956275 0.00047499
v 0.00130000 0.01008715 0.00151306
v 0.00099879 0.01070570 0.00160584
v 0.00032198 0.01085847 0.00162876
v -0.00022078 0.01043042 0.00156455
v -0.00022078 0.00974389 0.00146157
v 0.00032198 0.00931584 0.00139737
v 0.00099879 0.00946861 0.00142028
v 0.00130000 0.00988756 0.00250521
v 0.00099879 0.01049387 0.00265883
v 0.00032198 0.01064361 0.00269678
v -0.00022078 0.01022404 0.00259047
v -0.00022078 0.00955109 0.00241996
v 0.00032198 0.00913151 0.00231365
v 0.00099879 0.00928126 0.00235159
v 0.00130000 0.00959064 0.00347270
v 0.00099879 0.01017874 0.00368565
v 0.00032198 0.01032398 0.00373824
v -0.00022078 0.00991701 0.00359088
v -0.00022078 0.00926427 0.00335453
v 0.00032198 0.00885729 0.00320716
v 0.00099879 0.00900254 0.00325976
v 0.00130000 0.00919930 0.00440601
v 0.00099879 0.00976340 0.00467619
v 0.00032198 0.00990272 0.00474291
v -0.00022078 0.00951235 0.00455595
v -0.00022078 0.00888625 0.00425607
v 0.00032198 0.00849587 0.00406910
v 0.00099879 0.00863520 0.00413583
v 0.00130000 0.00871740 0.00529594
v 0.00099879 0.00925195 0.00562069
v 0.00032198 0.00938397 0.00570089
v -0.00022078 0.00901405 0.00547616
v -0.00022078 0.00842074 0.00511572
v 0.00032198 0.00805082 0.00489098
v 0.00099879 0.00818285 0.00497119
v 0.00130000 0.00814968 0.00613373
v 0.00099879 0.00864942 0.00650985
v 0.00032198 0.00877285 0.00660275
v -0.00022078 0.00842702 0.00634247
v -0.00022078 0.00787235 0.00592500
v 0.00032198 0.00752652 0.00566472
v 0.00099879 0.00764994 0.00575761
v 0.00130000 0.00750174 0.00691115
v 0.00099879 0.00796174 0.00733494
v 0.00032198 0.00807536 0.00743961
v -0.00022078 0.00775702 0.00714633
v -0.00022078 0.00724645 0.00667596
v 0.00032198 0.00692812 0.00638269
v 0.00099879 0.00704173 0.00648735
v 0.00130000 0.00677994 0.00762052
v 0.00099879 0.00719569 0.00808781
v 0.00032198 0.00729837 0.00820323
v -0.00022078 0.00701067 0.00787985
v -0.00022078 0.00654922 0.00736120
v 0.00032198 0.00626152 0.00703782
v 0.00099879 0.00636420 0.00715323
v 0.00130000 0.00599141 0.00825488
v 0.00099879 0.00635880 0.00876107
v 0.00032198 0.00644954 0.00888609
v -0.00022078 0.00619529 0.00853580
v -0.00022078 0.00578752 0.00797397
v 0.00032198 0.00553327 0.00762367
v 0.00099879 0.00562401 0.00774869
v 0.00130000 0.00514389 0.00880798
v 0.00099879 0.00545931 0.00934808
v 0.00032198 0.00553721 0.00948148
v -0.00022078 0.00531893 0.00910771
v -0.00022078 0.00496884 0.00850824
v 0.00032198 0.00475056 0.00813447
v 0.00099879 0.00482846 0.00826787
v 0.00130000 0.00424573 0.00927436
v 0.00099879 0.00450608 0.00984307
v 0.00032198 0.00457038 0.00998353
v -0.00022078 0.00439021 0.00958997
v -0.00022078 0.00410125 0.00895875
v 0.00032198 0.00392108 0.00856520
v 0.00099879 0.00398538 0.00870566
v 0.00130000 0.00330578 0.00964945
v 0.00099879 0.00350849 0.01024115
v 0.00032198 0.00355855 0.01038729
v -0.00022078 0.00341827 0.00997782
v -0.00022078 0.00319328 0.00932108
v 0.00032198 0.00305300 0.00891160
v 0.00099879 0.00310306 0.00905774
v 0.00130000 0.00233328 0.00992954
v 0.00099879 0.00250639 0.01053058
v 0.00032198 0.00254914 0.01067902
v -0.00022078 0.00242935 0.01026309
v -0.00022078 0.00223721 0.00959599
v 0.00032198 0.00211742 0.00918007
v 0.00099879 0.00216017 0.00932851
v 0.00130000 0.00233328 -0.00992954
v 0.00099879 0.00250639 -0.01053058
v 0.00032198 0.00254914 -0.01067902
v -0.00022078 0.00242935 -0.01026309
v -0.00022078 0.00223721 -0.00959599
v 0.00032198 0.00211742 -0.00918007
v 0.00099879 0.00216017 -0.00932851
v 0.00130000 0.00233328 0.00992954
v 0.00099879 0.00250639 0.01053058
v 0.00032198 0.00254914 0.01067902
v -0.00022078 0.00242935 0.01026309
v -0.00022078 0.00223721 0.00959599
v 0.00032198 0.00211742 0.00918007
v 0.00099879 0.00216017 0.00932851
v -0.00030000 -0.00231746 0.00993325
v 0.00000121 -0.00214531 0.00933194
v 0.00067802 -0.00210279 0.00918343
v 0.00122078 -0.00222193 0.00959955
v 0.00122078 -0.00241300 0.01026695
v 0.00067802 -0.00253213 0.01068306
v 0.00000121 -0.00248961 0.01053455
v -0.00030000 -0.00329040 0.00965470
v 0.00000121 -0.00308863 0.00906267
v 0.00067802 -0.00303880 0.00891645
v 0.00122078 -0.00317843 0.00932615
v 0.00122078 -0.00340238 0.00998325
v 0.00067802 -0.00354200 0.01039295
v 0.00000121 -0.00349217 0.01024673
v -0.00030000 -0.00423095 0.00928111
v 0.00000121 -0.00397151 0.00871199
v 0.00067802 -0.00390743 0.00857143
v 0.00122078 -0.00408697 0.00896528
v 0.00122078 -0.00437493 0.00959695
v 0.00067802 -0.00455447 0.00999079
v 0.00000121 -0.00449040 0.00985023
v -0.00030000 -0.00512985 0.00881616
v 0.00000121 -0.00481529 0.00827555
v 0.00067802 -0.00473760 0.00814203
v 0.00122078 -0.00495528 0.00851614
v 0.00122078 -0.00530442 0.00911617
v 0.00067802 -0.00552211 0.00949028
v 0.00000121 -0.00544441 0.00935677
v -0.00030000 -0.00597825 0.00826441
v 0.00000121 -0.00561166 0.00775764
v 0.00067802 -0.00552112 0.00763248
v 0.00122078 -0.00577481 0.00798317
v 0.00122078 -0.00618169 0.00854565
v 0.00067802 -0.00643538 0.00889635
v 0.00000121 -0.00634484 0.00877119
v -0.00030000 -0.00676780 0.00763131
v 0.00000121 -0.00635280 0.00716336
v 0.00067802 -0.00625030 0.00704778
v 0.00122078 -0.00653749 0.00737162
v 0.00122078 -0.00699811 0.00789101
v 0.00067802 -0.00728530 0.00821484
v 0.00000121 -0.00718280 0.00809926
v -0.00030000 -0.00749072 0.00692308
v 0.00000121 -0.00703139 0.00649856
v 0.00067802 -0.00691794 0.00639371
v 0.00122078 -0.00723581 0.00668749
v 0.00122078 -0.00774563 0.00715868
v 0.00067802 -0.00806350 0.00745246
v 0.00000121 -0.00795005 0.00734761
v -0.00030000 -0.00813990 0.00614671
v 0.00000121 -0.00764076 0.00576979
v 0.00067802 -0.00751749 0.00567670
v 0.00122078 -0.00786290 0.00593753
v 0.00122078 -0.00841690 0.00635588
v 0.00067802 -0.00876232 0.00661671
v 0.00000121 -0.00863904 0.00652362
v -0.00030000 -0.00870895 0.00530982
v 0.00000121 -0.00817492 0.00498422
v 0.00067802 -0.00804302 0.00490380
v 0.00122078 -0.00841259 0.00512912
v 0.00122078 -0.00900532 0.00549051
v 0.00067802 -0.00937488 0.00571583
v 0.00000121 -0.00924299 0.00563541
v -0.00030000 -0.00919227 0.00442065
v 0.00000121 -0.00862860 0.00414958
v 0.00067802 -0.00848938 0.00408263
v 0.00122078 -0.00887946 0.00427022
v 0.00122078 -0.00950508 0.00457109
v 0.00067802 -0.00989516 0.00475868
v 0.00000121 -0.00975594 0.00469173
v -0.00030000 -0.00958509 0.00348797
v 0.00000121 -0.00899734 0.00327409
v 0.00067802 -0.00885217 0.00322127
v 0.00122078 -0.00925891 0.00336928
v 0.00122078 -0.00991128 0.00360667
v 0.00067802 -0.01031802 0.00375468
v 0.00000121 -0.01017285 0.00370186
v -0.00030000 -0.00988356 0.00252096
v 0.00000121 -0.00927750 0.00236637
v 0.00067802 -0.00912781 0.00232819
v 0.00122078 -0.00954722 0.00243517
v 0.00122078 -0.01021990 0.00260675
v 0.00067802 -0.01063931 0.00271372
v 0.00000121 -0.01048962 0.00267554
v -0.00030000 -0.01008473 0.00152913
v 0.00000121 -0.00946633 0.00143536
v 0.00067802 -0.00931360 0.00141220
v 0.00122078 -0.00974155 0.00147709
v 0.00122078 -0.01042791 0.00158116
v 0.00067802 -0.01085586 0.00164605
v 0.00000121 -0.01070313 0.00162289
v -0.00030000 -0.01018662 0.00052224
v 0.00000121 -0.00956198 0.00049022
v 0.00067802 -0.00940770 0.00048231
v 0.00122078 -0.00983997 0.00050447
v 0.00122078 -0.01053327 0.00054001
v 0.00067802 -0.01096554 0.00056217
v 0.00000121 -0.01081127 0.00055426
v -0.00030000 -0.01018823 -0.00048979
v 0.00000121 -0.00956349 -0.00045975
v 0.00067802 -0.00940919 -0.00045234
v 0.00122078 -0.00984153 -0.00047312
v 0.00122078 -0.01053494 -0.00050646
v 0.00067802 -0.01096728 -0.00052724
v 0.00000121 -0.01081298 -0.00051982
v -0.00030000 -0.01008955 -0.00149699
v 0.00000121 -0.00947086 -0.00140520
v 0.00067802 -0.00931805 -0.00138253
v 0.00122078 -0.00974620 -0.00144605
v 0.00122078 -0.01043290 -0.00154794
v 0.00067802 -0.01086105 -0.00161146
v 0.00000121 -0.01070824 -0.00158879
v -0.00030000 -0.00989154 -0.00248946
v 0.00000121 -0.00928499 -0.00233681
v 0.00067802 -0.00913518 -0.00229911
v 0.00122078 -0.00955493 -0.00240475
v 0.00122078 -0.01022815 -0.00257418
v 0.00067802 -0.01064790 -0.00267982
v 0.00000121 -0.01049809 -0.00264212
v -0.00030000 -0.00959616 -0.00345743
v 0.00000121 -0.00900772 -0.00324542
v 0.00067802 -0.00886239 -0.00319305
v 0.00122078 -0.00926960 -0.00333977
v 0.00122078 -0.00992271 -0.00357508
v 0.00067802 -0.01032993 -0.00372180
v 0.00000121 -0.01018459 -0.00366944
v -0.00030000 -0.00920630 -0.00439135
v 0.00000121 -0.00864177 -0.00412207
v 0.00067802 -0.00850234 -0.00405557
v 0.00122078 -0.00889301 -0.00424191
v 0.00122078 -0.00951960 -0.00454079
v 0.00067802 -0.00991026 -0.00472714
v 0.00000121 -0.00977084 -0.00466063
v -0.00030000 -0.00872582 -0.00528205
v 0.00000121 -0.00819075 -0.00495815
v 0.00067802 -0.00805860 -0.00487816
v 0.00122078 -0.00842888 -0.00510230
v 0.00122078 -0.00902276 -0.00546180
v 0.00067802 -0.00939304 -0.00568594
v 0.00000121 -0.00926089 -0.00560594
v -0.00030000 -0.00815944 -0.00612075
v 0.00000121 -0.00765910 -0.00574542
v 0.00067802 -0.00753553 -0.00565272
v 0.00122078 -0.00788177 -0.00591246
v 0.00122078 -0.00843711 -0.00632904
v 0.00067802 -0.00878335 -0.00658877
v 0.00000121 -0.00865978 -0.00649607
v -0.00030000 -0.00751273 -0.00689919
v 0.00000121 -0.00705205 -0.00647613
v 0.00067802 -0.00693827 -0.00637164
v 0.00122078 -0.00725708 -0.00666441
v 0.00122078 -0.00776839 -0.00713397
v 0.00067802 -0.00808720 -0.00742674
v 0.00000121 -0.00797342 -0.00732225
v -0.00030000 -0.00679207 -0.00760972
v 0.00000121 -0.00637558 -0.00714309
v 0.00067802 -0.00627272 -0.00702784
v 0.00122078 -0.00656094 -0.00735076
v 0.00122078 -0.00702321 -0.00786867
v 0.00067802 -0.00731143 -0.00819159
v 0.00000121 -0.00720856 -0.00807634
v -0.00030000 -0.00600454 -0.00824533
v 0.00000121 -0.00563635 -0.00773972
v 0.00067802 -0.00554541 -0.00761485
v 0.00122078 -0.00580021 -0.00796474
v 0.00122078 -0.00620888 -0.00852592
v 0.00067802 -0.00646368 -0.00887581
v 0.00000121 -0.00637274 -0.00875093
v -0.00030000 -0.00515791 -0.00879977
v 0.00000121 -0.00484162 -0.00826017
v 0.00067802 -0.00476351 -0.00812690
v 0.00122078 -0.00498238 -0.00850032
v 0.00122078 -0.00533343 -0.00909923
v 0.00067802 -0.00555231 -0.00947265
v 0.00000121 -0.00547419 -0.00933938
v -0.00030000 -0.00426049 -0.00926759
v 0.00000121 -0.00399924 -0.00869930
v 0.00067802 -0.00393472 -0.00855894
v 0.00122078 -0.00411551 -0.00895221
v 0.00122078 -0.00440548 -0.00958296
v 0.00067802 -0.00458627 -0.00997623
v 0.00000121 -0.00452175 -0.00983588
v -0.00030000 -0.00332114 -0.00964417
v 0.00000121 -0.00311749 -0.00905279
v 0.00067802 -0.00306719 -0.00890673
v 0.00122078 -0.00320812 -0.00931598
v 0.00122078 -0.00343416 -0.00997236
v 0.00067802 -0.00357509 -0.01038161
v 0.00000121 -0.00352479 -0.01023555
v -0.00030000 -0.00234909 -0.00992581
v 0.00000121 -0.00217503 -0.00932506
v 0.00067802 -0.00213204 -0.00917668
v 0.00122078 -0.00225249 -0.00959242
v 0.00122078 -0.00244569 -0.01025921
v 0.00067802 -0.00256614 -0.01067495
v 0.00000121 -0.00252315 -0.01052657
v -0.00030000 -0.00231746 0.00993325
v 0.00000121 -0.00214531 0.00933194
v 0.00067802 -0.00210279 0.00918343
v 0.00122078 -0.00222193 0.00959955
v 0.00122078 -0.00241300 0.01026695
v 0.00067802 -0.00253213 0.01068306
v 0.00000121 -0.00248961 0.01053455
v -0.00030000 -0.00234909 -0.00992581
v 0.00000121 -0.00217503 -0.00932506
v 0.00067802 -0.00213204 -0.00917668
v 0.00122078 -0.00225249 -0.00959242
v 0.00122078 -0.00244569 -0.01025921
v 0.00067802 -0.00256614 -0.01067495
v 0.00000121 -0.00252315 -0.01052657
vn 0.98684269 0.04486304 -0.15533489
vn 0.49095201 0.24179253 -0.83696038
vn -0.37200317 0.25758278 -0.89177614
vn -0.95729679 0.08013021 -0.27778029
vn -0.82201236 -0.15722311 0.54733592
vn -0.06447203 -0.27531224 0.95919061
vn 0.74153256 -0.18530253 0.64481968
vn 0.99994010 0.01005601 -0.00432022
vn 0.61899078 0.26020372 -0.74104291
vn -0.22272368 0.31528586 -0.92249060
vn -0.89848477 0.13562772 -0.41752881
vn -0.90431100 -0.14460152 0.40163663
vn -0.22631447 -0.31604597 0.92135590
vn 0.62600327 -0.24742979 0.73952579
vn 0.99991983 0.01134618 -0.00563075
vn 0.61891639 0.33181843 -0.71192628
vn -0.22051844 0.40422845 -0.88767731
vn -0.89717364 0.17699330 -0.40466395
vn -0.90487587 -0.18338078 0.38415000
vn -0.22480829 -0.40702486 0.88532031
vn 0.62854022 -0.31962457 0.70906794
vn 0.99991983 0.01184821 -0.00447873
vn 0.61891615 0.40073413 -0.67554045
vn -0.22051822 0.49020422 -0.84325057
vn -0.89717352 0.21622311 -0.38513294
vn -0.90487593 -0.22054569 0.36408666
vn -0.22480872 -0.49275303 0.84062809
vn 0.62854034 -0.38831741 0.67390394
vn 0.99991983 0.01223387 -0.00328254
vn 0.61891651 0.46570528 -0.63250375
vn -0.22051853 0.57135421 -0.79052263
vn -0.89717358 0.25332382 -0.36181030
vn -0.90487587 -0.25554004 0.34043938
vn -0.22480890 -0.57363063 0.78766042
vn 0.62854028 -0.45318729 0.63210630
vn 0.99991983 0.01249882 -0.00205402
vn 0.61891657 0.52609187 -0.58324057
vn -0.22051823 0.64688015 -0.73001212
vn -0.89717364 0.28793108 -0.33492571
vn -0.90487587 -0.28801855 0.31344053
vn -0.22480854 -0.64886159 0.72693861
vn 0.62854022 -0.51359618 0.58408582
vn 0.99991983 0.01264092 -0.00080536
vn 0.61891639 0.58129954 -0.52823615
vn -0.22051816 0.71603769 -0.66231543
vn -0.89717358 0.31970373 -0.30474424
vn -0.90487587 -0.31766152 0.28335616
vn -0.22480845 -0.71770477 0.65906072
vn 0.62854028 -0.56894898 0.53031510
vn 0.99991983 0.01265849 0.00045122
vn 0.61891615 0.63078457 -0.46803162
vn -0.22051796 0.77814633 -0.58809870
vn -0.89717352 0.34832934 -0.27156287
vn -0.90487587 -0.34417757 0.25048244
vn -0.22480874 -0.77948242 0.58469486
vn 0.62854016 -0.61870086 0.47132424
vn 0.99991983 0.01255145 0.00170352
vn 0.61891639 0.67405981 -0.40321946
vn -0.22051845 0.83259434 -0.50809282
vn -0.89717352 0.37352574 -0.23570813
vn -0.90487581 -0.36730555 0.21514265
vn -0.22480877 -0.83358699 0.50457287
vn 0.62854010 -0.66236204 0.40769339
vn 0.99991983 0.01232087 0.00293880
vn 0.61891639 0.71069956 -0.33443779
vn -0.22051841 0.87884641 -0.42308471
vn -0.89717364 0.39504465 -0.19753283
vn -0.90487587 -0.38681740 0.17768501
vn -0.22480834 -0.87948543 0.41948369
vn 0.62854022 -0.69950271 0.34004882
vn 0.99991983 0.01196897 0.00414539
vn 0.61891615 0.74034303 -0.26236400
vn -0.22051822 0.91644686 -0.33391166
vn -0.89717358 0.41267514 -0.15741302
vn -0.90487599 -0.40252107 0.13847831
vn -0.22480838 -0.91672575 0.33026522
vn 0.62854034 -0.72975713 0.26905686
vn 0.99991983 0.01149930 0.00531108
vn 0.61891621 0.76269823 -0.18770716
vn -0.22051877 0.94502521 -0.24145167
vn -0.89717346 0.42624307 -0.11574356
vn -0.90487593 -0.41426256 0.09790839
vn -0.22480890 -0.94494134 0.23779570
vn 0.62854052 -0.75282758 0.19541609
vn 0.99991983 0.01091638 0.00642443
vn 0.61891657 0.77754503 -0.11120242
vn -0.22051857 0.96430069 -0.14661475
vn -0.89717352 0.43561471 -0.07293490
vn -0.90487587 -0.42192605 0.05637453
vn -0.22480914 -0.96385485 0.14298522
vn 0.62854016 -0.76848733 0.11985213
vn 0.99991983 0.01022601 0.00747463
vn 0.61891657 0.78473759 -0.03360342
vn -0.22051787 0.97408330 -0.05033433
vn -0.89717358 0.44069794 -0.02940808
vn -0.90487587 -0.42543581 0.01428563
vn -0.22480875 -0.97327995 0.04676662
vn 0.62854010 -0.77658170 0.04310791
vn 0.99991983 0.00943497 0.00845117
vn 0.61891645 0.78420508 0.04432666
vn -0.22051801 0.97427666 0.04644170
vn -0.89717358 0.44144315 0.01440843
vn -0.90487593 -0.42475721 -0.02794375
vn -0.22480868 -0.97312373 -0.04991223
vn 0.62854010 -0.77703106 -0.03406092
vn 0.99991983 0.00855105 0.00934444
vn 0.61891627 0.77595264 0.12182020
vn -0.22051807 0.96487892 0.14276034
vn -0.89717346 0.43784246 0.05808287
vn -0.90487593 -0.41989747 -0.06989820
vn -0.22480884 -0.96338773 -0.14609955
vn 0.62854022 -0.76983094 -0.11089412
vn 0.99991977 0.00758294 0.01014595
vn 0.61891609 0.76006150 0.19811460
vn -0.22051841 0.94598258 0.23767340
vn -0.89717352 0.42993155 0.10118552
vn -0.90487593 -0.41090393 -0.11116442
vn -0.22480857 -0.94416791 -0.24084865
vn 0.62854034 -0.75505245 -0.18663563
vn 0.99991983 0.00654021 0.01084748
vn 0.61891639 0.73668754 0.27245900
vn -0.22051881 0.91777360 0.33024696
vn -0.89717358 0.41778830 0.14329216
vn -0.90487593 -0.39786536 -0.15133622
vn -0.22480871 -0.91565335 -0.33322647
vn 0.62854046 -0.73284101 -0.26053992
vn 0.99991983 0.00543306 0.01144210
vn 0.61891651 0.70606172 0.34412092
vn -0.22051845 0.88052994 0.41956955
vn -0.89717364 0.40153202 0.18398802
vn -0.90487587 -0.38091031 -0.19001839
vn -0.22480869 -0.87812495 -0.42232406
vn 0.62854022 -0.70341545 -0.33187929
vn 0.99991983 0.00427246 0.01192431
vn 0.61891627 0.66848540 0.41239533
vn -0.22051808 0.83461797 0.50476187
vn -0.89717358 0.38132313 0.22287285
vn -0.90487587 -0.36020529 -0.22682993
vn -0.22480842 -0.83195186 -0.50726461
vn 0.62854004 -0.66706520 -0.39995176
vn 0.99991983 0.00306979 0.01228887
vn 0.61891627 0.62432826 0.47660968
vn -0.22051825 0.78048992 0.58498472
vn -0.89717346 0.35736042 0.25956371
vn -0.90487587 -0.33595419 -0.26140848
vn -0.22480871 -0.77758867 -0.58721107
vn 0.62854022 -0.62414789 -0.46408692
vn 0.99991983 0.00183683 0.01253262
vn 0.61891639 0.57402480 0.53613240
vn -0.22051848 0.71867859 0.65944880
vn -0.89717352 0.32987952 0.29369894
vn -0.90487587 -0.30839601 -0.29341367
vn -0.22480860 -0.71557087 -0.66137695
vn 0.62854028 -0.57508647 -0.52365327
vn 0.99991983 0.00058596 0.01265297
vn 0.61891645 0.51807052 0.59037721
vn -0.22051819 0.64979196 0.72742158
vn -0.89717358 0.29915127 0.32494316
vn -0.90487587 -0.27780175 -0.32253027
vn -0.22480838 -0.64650857 -0.72903216
vn 0.62854022 -0.52036369 -0.57806486
vn 0.99991983 -0.00067089 0.01264875
vn 0.61891645 0.45701620 0.63881034
vn -0.22051817 0.57450861 0.78823328
vn -0.89717352 0.26547810 0.35298866
vn -0.90487599 -0.24447276 -0.34847176
vn -0.22480868 -0.57108182 -0.78951037
vn 0.62854040 -0.46051797 -0.62678558
vn 0.99991983 -0.00192097 0.01251998
vn 0.61891621 0.39146310 0.68095475
vn -0.22051834 0.49356976 0.84128505
vn -0.89717352 0.22919147 0.37755927
vn -0.90487587 -0.20873725 -0.37098312
vn -0.22480904 -0.49003357 -0.84221607
vn 0.62854040 -0.39613923 -0.66933602
vn 0.99991983 -0.00315221 0.01226804
vn 0.61891627 0.32205617 0.71639550
vn -0.22051834 0.40777218 0.88605505
vn -0.89717358 0.19064872 0.39841270
vn -0.90487587 -0.17094673 -0.38984221
vn -0.22480863 -0.40416089 -0.88663137
vn 0.62854022 -0.32786080 -0.70529741
vn 0.99994183 -0.00500011 0.00955792
vn 0.62119478 0.24982762 0.74276727
vn -0.21935146 0.31906977 0.92199749
vn -0.89779055 0.15000801 0.41408911
vn -0.90351874 -0.13190852 -0.40774253
vn -0.22219501 -0.31320029 -0.92332816
vn 0.62861800 -0.25570050 -0.73447710
vn 0.98785704 -0.04288258 -0.14933009
vn 0.73722970 0.18736298 0.64914364
vn -0.06604374 0.27697757 0.95860404
vn -0.81948566 0.15898179 0.55060709
vn -0.95932603 -0.07801414 -0.27130651
vn -0.37609839 -0.25572085 -0.89059347
vn 0.49232450 -0.24017432 -0.83661991
vn -0.00000004 -0.96093762 -0.27676487
vn 0.00000055 -0.96093744 -0.27676558
vn 0.00000020 -0.96093756 -0.27676517
vn -0.00000002 -0.96093774 -0.27676469
vn -0.00000012 -0.96093774 -0.27676463
vn -0.00000025 -0.96093762 -0.27676496
vn -0.00000045 -0.96093762 -0.27676523
vn -0.00000004 -0.96093768 0.27676490
vn 0.00000053 -0.96093744 0.27676558
vn 0.00000020 -0.96093756 0.27676520
vn -0.00000001 -0.96093774 0.27676472
vn -0.00000012 -0.96093774 0.27676463
vn -0.00000026 -0.96093762 0.27676496
vn -0.00000045 -0.96093756 0.27676517
vn -0.98785710 0.04264455 -0.14939827
vn -0.49232492 0.23884137 -0.83700120
vn 0.37609884 0.25430289 -0.89099926
vn 0.95932609 0.07758206 -0.27143055
vn 0.81948555 -0.15810426 0.55085969
vn 0.06604367 -0.27544978 0.95904410
vn -0.73722953 -0.18632905 0.64944142
vn -0.99994183 0.00501543 0.00954994
vn -0.62861848 0.25453043 -0.73488313
vn 0.22219512 0.31172943 -0.92382574
vn 0.90351886 0.13125902 -0.40795201
vn 0.89779061 -0.14934830 0.41432741
vn 0.21935156 -0.31760076 0.92250466
vn -0.62119496 -0.24864404 0.74316418
vn -0.99991983 0.00317173 0.01226301
vn -0.62854028 0.32673708 -0.70581871
vn 0.22480860 0.40274841 -0.88727385
vn 0.90487599 0.17032556 -0.39011368
vn 0.89717352 -0.19001383 0.39871597
vn 0.22051847 -0.40636036 0.88670343
vn -0.61891651 -0.32091472 0.71690732
vn -0.99991983 0.00194092 0.01251690
vn -0.62854034 0.39507261 -0.66996622
vn 0.22480851 0.48869133 -0.84299582
vn 0.90487599 0.20814605 -0.37131488
vn 0.89717364 -0.22858986 0.37792343
vn 0.22051834 -0.49222943 0.84207004
vn -0.61891645 -0.39037794 0.68157715
vn -0.99991983 0.00069096 0.01264769
vn -0.62854034 0.45951924 -0.62751830
vn 0.22480857 0.56982374 -0.79041892
vn 0.90487593 0.24391744 -0.34886083
vn 0.89717358 -0.26491562 0.35341093
vn 0.22051847 -0.57325274 0.78914696
vn -0.61891639 -0.45599845 0.63953733
vn -0.99991983 -0.00056574 0.01265386
vn -0.62854034 0.51944232 -0.57889277
vn 0.22480850 0.64534676 -0.73006076
vn 0.90487587 0.27728778 -0.32297233
vn 0.89717358 -0.29863337 0.32541928
vn 0.22051853 -0.64863259 0.72845548
vn -0.61891627 -0.51712972 0.59120166
vn -0.99991983 -0.00181696 0.01253559
vn -0.62854022 0.57425171 -0.52456856
vn 0.22480854 0.71451658 -0.66251582
vn 0.90487587 0.30792829 -0.29390445
vn 0.89717358 -0.32941142 0.29422402
vn 0.22051853 -0.71762717 0.66059279
vn -0.61891621 -0.57317030 0.53704607
vn -0.99991983 -0.00305024 0.01229377
vn -0.62854022 0.62340796 -0.46508038
vn 0.22480860 0.77665246 -0.58844888
vn 0.90487587 0.33553749 -0.26194331
vn 0.89717352 -0.35694644 0.26013237
vn 0.22051859 -0.77955723 0.58622706
vn -0.61891609 -0.62356836 0.47760364
vn -0.99991983 -0.00425346 0.01193102
vn -0.62854028 0.66642720 -0.40101373
vn 0.22480868 0.83114278 -0.50858897
vn 0.90487576 0.35984361 -0.22740348
vn 0.89717352 -0.38096786 0.22347994
vn 0.22051877 -0.83381301 0.50609016
vn -0.61891621 -0.66782790 0.41345948
vn -0.99991983 -0.00541481 0.01145075
vn -0.62854016 0.70288599 -0.33299926
vn 0.22480875 0.87745112 -0.42372230
vn 0.90487576 0.38060737 -0.19062494
vn 0.89717346 -0.40123868 0.18462738
vn 0.22051854 -0.87986058 0.42097133
vn -0.61891603 -0.70551324 0.34524500
vn -0.99991983 -0.00652291 0.01085784
vn -0.62854040 0.73242515 -0.26170662
vn 0.22480871 0.91512167 -0.33468413
vn 0.90487587 0.39762411 -0.15196967
vn 0.89717346 -0.41755962 0.14395745
vn 0.22051857 -0.91724658 0.33170834
vn -0.61891598 -0.73625302 0.27363190
vn -0.99991983 -0.00756681 0.01015794
vn -0.62854040 0.75475419 -0.18783811
vn 0.22480834 0.94378316 -0.24235213
vn 0.90487593 0.41072634 -0.11181854
vn 0.89717352 -0.42976981 0.10187028
vn 0.22051834 -0.94560277 0.23918010
vn -0.61891633 -0.75974464 0.19932511
vn -0.99991983 -0.00853615 0.00935820
vn -0.62854016 0.76965344 -0.11212011
vn 0.22480842 0.96315390 -0.14763393
vn 0.90487581 0.41978571 -0.07056704
vn 0.89717364 -0.43774930 0.05877994
vn 0.22051837 -0.96465027 0.14429665
vn -0.61891639 -0.77575743 0.12305606
vn -0.99991983 -0.00942150 0.00846618
vn -0.62854010 0.77697581 -0.03529811
vn 0.22480854 0.97304308 -0.05146161
vn 0.90487581 0.42471245 -0.02862016
vn 0.89717352 -0.44141969 0.01511133
vn 0.22051853 -0.97420138 0.04799296
vn -0.61891609 -0.78413379 0.04557541
vn -0.99991983 -0.01021411 0.00749089
vn -0.62854040 0.77664912 0.04187098
vn 0.22480853 0.97335327 0.04521650
vn 0.90487587 0.42545789 0.01360814
vn 0.89717346 -0.44074449 -0.02870598
vn 0.22051857 -0.97416204 -0.04878280
vn -0.61891609 -0.78479052 -0.03235353
vn -0.99991983 -0.01090614 0.00644181
vn -0.62854022 0.76867723 0.11862781
vn 0.22480871 0.96408153 0.14144954
vn 0.90487593 0.42201519 0.05570238
vn 0.89717352 -0.43573037 -0.07224081
vn 0.22051811 -0.96453303 -0.14507839
vn -0.61891609 -0.77772152 -0.10996415
vn -0.99991983 -0.01149082 0.00532935
vn -0.62854022 0.75313801 0.19421707
vn 0.22480856 0.94531900 0.23629026
vn 0.90487587 0.41441819 0.09724840
vn 0.89717358 -0.42642656 -0.11506464
vn 0.22051822 -0.94540870 -0.23994607
vn -0.61891621 -0.76299638 -0.18649209
vn -0.99991983 -0.01196238 0.00416446
vn -0.62854034 0.73018473 0.26789433
vn 0.22480862 0.91725039 0.32880509
vn 0.90487587 0.40274128 0.13783716
vn 0.89717358 -0.41292533 -0.15675558
vn 0.22051872 -0.91697729 -0.33245182
vn -0.61891651 -0.74075979 -0.26118436
vn -0.99991983 -0.01231617 0.00295846
vn -0.62854022 0.70004338 0.33893439
vn 0.22480838 0.88015234 0.41808257
vn 0.90487593 0.38709977 0.17706873
vn 0.89717358 -0.39535895 -0.19690339
vn 0.22051847 -0.87951899 -0.42168462
vn -0.61891627 -0.71123135 -0.33330554
vn -0.99991983 -0.01254875 0.00172341
vn -0.62854034 0.66301042 0.40663782
vn 0.22480859 0.83438945 0.50324482
vn 0.90487593 0.36764750 0.21455741
vn 0.89717358 -0.37390056 -0.23511286
vn 0.22051808 -0.83340269 -0.50676602
vn -0.61891615 -0.67470121 -0.40214553
vn -0.99991983 -0.01265775 0.00047145
vn -0.62854022 0.61945063 0.47033828
vn 0.22480814 0.78041285 0.58345270
vn 0.90487593 0.34457597 0.24993393
vn 0.89717358 -0.34876114 -0.27100775
vn 0.22051823 -0.77908188 -0.58685881
vn -0.61891633 -0.63152909 -0.46702614
vn -0.99991983 -0.01264214 -0.00078520
vn -0.62854028 0.56979287 0.52940840
vn 0.22480832 0.71875358 0.65791684
vn 0.90487587 0.31811255 0.28284985
vn 0.89717352 -0.32018867 -0.30423477
vn 0.22051851 -0.71709138 -0.66117436
vn -0.61891621 -0.58214003 -0.52730989
vn -0.99991983 -0.01250213 -0.00203417
vn -0.62854034 0.51452577 0.58326691
vn 0.22480848 0.65001857 0.72590429
vn 0.90487587 0.28851733 0.31298137
vn 0.89717346 -0.28846425 -0.33446684
vn 0.22051837 -0.64804196 -0.72898096
vn -0.61891615 -0.52702028 -0.58240229
vn -0.99991983 -0.01223906 -0.00326306
vn -0.62854034 0.45419347 0.63138372
vn 0.22480857 0.57488447 0.78674585
vn 0.90487587 0.25608188 0.34003192
vn 0.89717358 -0.25389984 -0.36140636
vn 0.22051845 -0.57261282 -0.78961146
vn -0.61891621 -0.46671227 -0.63176125
vn -0.99991983 -0.01185539 -0.00445980
vn -0.62854016 0.38939023 0.67328483
vn 0.22480853 0.49409139 0.83984220
vn 0.90487593 0.22112547 0.36373502
vn 0.89717352 -0.21683607 -0.38478801
vn 0.22051844 -0.49154657 -0.84246880
vn -0.61891621 -0.40180960 -0.67490119
vn -0.99991983 -0.01135514 -0.00561275
vn -0.62854010 0.32075343 0.70855808
vn 0.22480832 0.40843415 0.88467103
vn 0.90487587 0.18399233 0.38385749
vn 0.89717352 -0.17763774 -0.40438166
vn 0.22051835 -0.40564173 -0.88703239
vn -0.61891609 -0.33295172 -0.71139723
vn -0.99994010 -0.01006286 -0.00430417
vn -0.62600332 0.24860726 0.73913080
vn 0.22631422 0.31751308 0.92085141
vn 0.90431100 0.14524092 0.40140587
vn 0.89848489 -0.13629234 -0.41731218
vn 0.22272360 -0.31675488 -0.92198718
vn -0.61899090 -0.26138380 -0.74062735
vn -0.98684257 -0.04511048 -0.15526327
vn -0.74153250 0.18632919 0.64452386
vn 0.06447230 0.27683970 0.95875084
vn 0.82201207 0.15809490 0.54708505
vn 0.95729691 -0.08057232 -0.27765229
vn 0.37200373 -0.25900209 -0.89136475
vn -0.49095237 -0.24312516 -0.83657390
vn 0.00000004 0.96137714 0.27523428
vn -0.00000025 0.96137726 0.27523386
vn -0.00000003 0.96137726 0.27523413
vn 0.00000007 0.96137714 0.27523428
vn 0.00000007 0.96137714 0.27523434
vn 0.00000008 0.96137714 0.27523434
vn 0.00000013 0.96137714 0.27523428
vn 0.00000007 0.96049559 -0.27829507
vn -0.00000008 0.96049553 -0.27829531
vn 0.00000007 0.96049547 -0.27829549
vn 0.00000006 0.96049559 -0.27829528
vn 0.00000003 0.96049565 -0.27829489
vn 0.00000013 0.96049571 -0.27829468
vn 0.00000030 0.96049577 -0.27829450
f 1//1 2//2 9//9
f 1//1 9//9 8//8
f 2//2 3//3 10//10
f 2//2 10//10 9//9
f 3//3 4//4 11//11
f 3//3 11//11 10//10
f 4//4 5//5 12//12
f 4//4 12//12 11//11
f 5//5 6//6 13//13
f 5//5 13//13 12//12
f 6//6 7//7 14//14
f 6//6 14//14 13//13
f 7//7 1//1 8//8
f 7//7 8//8 14//14
f 8//8 9//9 16//16
f 8//8 16//16 15//15
f 9//9 10//10 17//17
f 9//9 17//17 16//16
f 10//10 11//11 18//18
f 10//10 18//18 17//17
f 11//11 12//12 19//19
f 11//11 19//19 18//18
f 12//12 13//13 20//20
f 12//12 20//20 19//19
f 13//13 14//14 21//21
f 13//13 21//21 20//20
f 14//14 8//8 15//15
f 14//14 15//15 21//21
f 15//15 16//16 23//23
f 15//15 23//23 22//22
f 16//16 17//17 24//24
f 16//16 24//24 23//23
f 17//17 18//18 25//25
f 17//17 25//25 24//24
f 18//18 19//19 26//26
f 18//18 26//26 25//25
f 19//19 20//20 27//27
f 19//19 27//27 26//26
f 20//20 21//21 28//28
f 20//20 28//28 27//27
f 21//21 15//15 22//22
f 21//21 22//22 28//28
f 22//22 23//23 30//30
f 22//22 30//30 29//29
f 23//23 24//24 31//31
f 23//23 31//31 30//30
f 24//24 25//25 32//32
f 24//24 32//32 31//31
f 25//25 26//26 33//33
f 25//25 33//33 32//32
f 26//26 27//27 34//34
f 26//26 34//34 33//33
f 27//27 28//28 35//35
f 27//27 35//35 34//34
f 28//28 22//22 29//29
f 28//28 29//29 35//35
f 29//29 30//30 37//37
f 29//29 37//37 36//36
f 30//30 31//31 38//38
f 30//30 38//38 37//37
f 31//31 32//32 39//39
f 31//31 39//39 38//38
f 32//32 33//33 40//40
f 32//32 40//40 39//39
f 33//33 34//34 41//41
f 33//33 41//41 40//40
f 34//34 35//35 42//42
f 34//34 42//42 41//41
f 35//35 29//29 36//36
f 35//35 36//36 42//42
f 36//36 37//37 44//44
f 36//36 44//44 43//43
f 37//37 38//38 45//45
f 37//37 45//45 44//44
f 38//38 39//39 46//46
f 38//38 46//46 45//45
f 39//39 40//40 47//47
f 39//39 47//47 46//46
f 40//40 41//41 48//48
f 40//40 48//48 47//47
f 41//41 42//42 49//49
f 41//41 49//49 48//48
f 42//42 36//36 43//43
f 42//42 43//43 49//49
f 43//43 44//44 51//51
f 43//43 51//51 50//50
f 44//44 45//45 52//52
f 44//44 52//52 51//51
f 45//45 46//46 53//53
f 45//45 53//53 52//52
f 46//46 47//47 54//54
f 46//46 54//54 53//53
f 47//47 48//48 55//55
f 47//47 55//55 54//54
f 48//48 49//49 56//56
f 48//48 56//56 55//55
f 49//49 43//43 50//50
f 49//49 50//50 56//56
f 50//50 51//51 58//58
f 50//50 58//58 57//57
f 51//51 52//52 59//59
f 51//51 59//59 58//58
f 52//52 53//53 60//60
f 52//52 60//60 59//59
f 53//53 54//54 61//61
f 53//53 61//61 60//60
f 54//54 55//55 62//62
f 54//54 62//62 61//61
f 55//55 56//56 63//63
f 55//55 63//63 62//62
f 56//56 50//50 57//57
f 56//56 57//57 63//63
f 57//57 58//58 65//65
f 57//57 65//65 64//64
f 58//58 59//59 66//66
f 58//58 66//66 65//65
f 59//59 60//60 67//67
f 59//59 67//67 66//66
f 60//60 61//61 68//68
f 60//60 68//68 67//67
f 61//61 62//62 69//69
f 61//61 69//69 68//68
f 62//62 63//63 70//70
f 62//62 70//70 69//69
f 63//63 57//57 64//64
f 63//63 64//64 70//70
f 64//64 65//65 72//72
f 64//64 72//72 71//71
f 65//65 66//66 73//73
f 65//65 73//73 72//72
f 66//66 67//67 74//74
f 66//66 74//74 73//73
f 67//67 68//68 75//75
f 67//67 75//75 74//74
f 68//68 69//69 76//76
f 68//68 76//76 75//75
f 69//69 70//70 77//77
f 69//69 77//77 76//76
f 70//70 64//64 71//71
f 70//70 71//71 77//77
f 71//71 72//72 79//79
f 71//71 79//79 78//78
f 72//72 73//73 80//80
f 72//72 80//80 79//79
f 73//73 74//74 81//81
f 73//73 81//81 80//80
f 74//74 75//75 82//82
f 74//74 82//82 81//81
f 75//75 76//76 83//83
f 75//75 83//83 82//82
f 76//76 77//77 84//84
f 76//76 84//84 83//83
f 77//77 71//71 78//78
f 77//77 78//78 84//84
f 78//78 79//79 86//86
f 78//78 86//86 85//85
f 79//79 80//80 87//87
f 79//79 87//87 86//86
f 80//80 81//81 88//88
f 80//80 88//88 87//87
f 81//81 82//82 89//89
f 81//81 89//89 88//88
f 82//82 83//83 90//90
f 82//82 90//90 89//89
f 83//83 84//84 91//91
f 83//83 91//91 90//90
f 84//84 78//78 85//85
f 84//84 85//85 91//91
f 85//85 86//86 93//93
f 85//85 93//93 92//92
f 86//86 87//87 94//94
f 86//86 94//94 93//93
f 87//87 88//88 95//95
f 87//87 95//95 94//94
f 88//88 89//89 96//96
f 88//88 96//96 95//95
f 89//89 90//90 97//97
f 89//89 97//97 96//96
f 90//90 91//91 98//98
f 90//90 98//98 97//97
f 91//91 85//85 92//92
f 91//91 92//92 98//98
f 92//92 93//93 100//100
f 92//92 100//100 99//99
f 93//93 94//94 101//101
f 93//93 101//101 100//100
f 94//94 95//95 102//102
f 94//94 102//102 101//101
f 95//95 96//96 103//103
f 95//95 103//103 102//102
f 96//96 97//97 104//104
f 96//96 104//104 103//103
f 97//97 98//98 105//105
f 97//97 105//105 104//104
f 98//98 92//92 99//99
f 98//98 99//99 105//105
f 99//99 100//100 107//107
f 99//99 107//107 106//106
f 100//100 101//101 108//108
f 100//100 108//108 107//107
f 101//101 102//102 109//109
f 101//101 109//109 108//108
f 102//102 103//103 110//110
f 102//102 110//110 109//109
f 103//103 104//104 111//111
f 103//103 111//111 110//110
f 104//104 105//105 112//112
f 104//104 112//112 111//111
f 105//105 99//99 106//106
f 105//105 106//106 112//112
f 106//106 107//107 114//114
f 106//106 114//114 113//113
f 107//107 108//108 115//115
f 107//107 115//115 114//114
f 108//108 109//109 116//116
f 108//108 116//116 115//115
f 109//109 110//110 117//117
f 109//109 117//117 116//116
f 110//110 111//111 118//118
f 110//110 118//118 117//117
f 111//111 112//112 119//119
f 111//111 119//119 118//118
f 112//112 106//106 113//113
f 112//112 113//113 119//119
f 113//113 114//114 121//121
f 113//113 121//121 120//120
f 114//114 115//115 122//122
f 114//114 122//122 121//121
f 115//115 116//116 123//123
f 115//115 123//123 122//122
f 116//116 117//117 124//124
f 116//116 124//124 123//123
f 117//117 118//118 125//125
f 117//117 125//125 124//124
f 118//118 119//119 126//126
f 118//118 126//126 125//125
f 119//119 113//113 120//120
f 119//119 120//120 126//126
f 120//120 121//121 128//128
f 120//120 128//128 127//127
f 121//121 122//122 129//129
f 121//121 129//129 128//128
f 122//122 123//123 130//130
f 122//122 130//130 129//129
f 123//123 124//124 131//131
f 123//123 131//131 130//130
f 124//124 125//125 132//132
f 124//124 132//132 131//131
f 125//125 126//126 133//133
f 125//125 133//133 132//132
f 126//126 120//120 127//127
f 126//126 127//127 133//133
f 127//127 128//128 135//135
f 127//127 135//135 134//134
f 128//128 129//129 136//136
f 128//128 136//136 135//135
f 129//129 130//130 137//137
f 129//129 137//137 136//136
f 130//130 131//131 138//138
f 130//130 138//138 137//137
f 131//131 132//132 139//139
f 131//131 139//139 138//138
f 132//132 133//133 140//140
f 132//132 140//140 139//139
f 133//133 127//127 134//134
f 133//133 134//134 140//140
f 134//134 135//135 142//142
f 134//134 142//142 141//141
f 135//135 136//136 143//143
f 135//135 143//143 142//142
f 136//136 137//137 144//144
f 136//136 144//144 143//143
f 137//137 138//138 145//145
f 137//137 145//145 144//144
f 138//138 139//139 146//146
f 138//138 146//146 145//145
f 139//139 140//140 147//147
f 139//139 147//147 146//146
f 140//140 134//134 141//141
f 140//140 141//141 147//147
f 141//141 142//142 149//149
f 141//141 149//149 148//148
f 142//142 143//143 150//150
f 142//142 150//150 149//149
f 143//143 144//144 151//151
f 143//143 151//151 150//150
f 144//144 145//145 152//152
f 144//144 152//152 151//151
f 145//145 146//146 153//153
f 145//145 153//153 152//152
f 146//146 147//147 154//154
f 146//146 154//154 153//153
f 147//147 141//141 148//148
f 147//147 148//148 154//154
f 148//148 149//149 156//156
f 148//148 156//156 155//155
f 149//149 150//150 157//157
f 149//149 157//157 156//156
f 150//150 151//151 158//158
f 150//150 158//158 157//157
f 151//151 152//152 159//159
f 151//151 159//159 158//158
f 152//152 153//153 160//160
f 152//152 160//160 159//159
f 153//153 154//154 161//161
f 153//153 161//161 160//160
f 154//154 148//148 155//155
f 154//154 155//155 161//161
f 155//155 156//156 163//163
f 155//155 163//163 162//162
f 156//156 157//157 164//164
f 156//156 164//164 163//163
f 157//157 158//158 165//165
f 157//157 165//165 164//164
f 158//158 159//159 166//166
f 158//158 166//166 165//165
f 159//159 160//160 167//167
f 159//159 167//167 166//166
f 160//160 161//161 168//168
f 160//160 168//168 167//167
f 161//161 155//155 162//162
f 161//161 162//162 168//168
f 162//162 163//163 170//170
f 162//162 170//170 169//169
f 163//163 164//164 171//171
f 163//163 171//171 170//170
f 164//164 165//165 172//172
f 164//164 172//172 171//171
f 165//165 166//166 173//173
f 165//165 173//173 172//172
f 166//166 167//167 174//174
f 166//166 174//174 173//173
f 167//167 168//168 175//175
f 167//167 175//175 174//174
f 168//168 162//162 169//169
f 168//168 169//169 175//175
f 169//169 170//170 177//177
f 169//169 177//177 176//176
f 170//170 171//171 178//178
f 170//170 178//178 177//177
f 171//171 172//172 179//179
f 171//171 179//179 178//178
f 172//172 173//173 180//180
f 172//172 180//180 179//179
f 173//173 174//174 181//181
f 173//173 181//181 180//180
f 174//174 175//175 182//182
f 174//174 182//182 181//181
f 175//175 169//169 176//176
f 175//175 176//176 182//182
f 176//176 177//177 184//184
f 176//176 184//184 183//183
f 177//177 178//178 185//185
f 177//177 185//185 184//184
f 178//178 179//179 186//186
f 178//178 186//186 185//185
f 179//179 180//180 187//187
f 179//179 187//187 186//186
f 180//180 181//181 188//188
f 180//180 188//188 187//187
f 181//181 182//182 189//189
f 181//181 189//189 188//188
f 182//182 176//176 183//183
f 182//182 183//183 189//189
f 183//183 184//184 191//191
f 183//183 191//191 190//190
f 184//184 185//185 192//192
f 184//184 192//192 191//191
f 185//185 186//186 193//193
f 185//185 193//193 192//192
f 186//186 187//187 194//194
f 186//186 194//194 193//193
f 187//187 188//188 195//195
f 187//187 195//195 194//194
f 188//188 189//189 196//196
f 188//188 196//196 195//195
f 189//189 183//183 190//190
f 189//189 190//190 196//196
f 199//199 198//198 197//197
f 200//200 199//199 197//197
f 201//201 200//200 197//197
f 202//202 201//201 197//197
f 203//203 202//202 197//197
f 204//204 205//205 206//206
f 204//204 206//206 207//207
f 204//204 207//207 208//208
f 204//204 208//208 209//209
f 204//204 209//209 210//210
f 211//211 212//212 219//219
f 211//211 219//219 218//218
f 212//212 213//213 220//220
f 212//212 220//220 219//219
f 213//213 214//214 221//221
f 213//213 221//221 220//220
f 214//214 215//215 222//222
f 214//214 222//222 221//221
f 215//215 216//216 223//223
f 215//215 223//223 222//222
f 216//216 217//217 224//224
f 216//216 224//224 223//223
f 217//217 211//211 218//218
f 217//217 218//218 224//224
f 218//218 219//219 226//226
f 218//218 226//226 225//225
f 219//219 220//220 227//227
f 219//219 227//227 226//226
f 220//220 221//221 228//228
f 220//220 228//228 227//227
f 221//221 222//222 229//229
f 221//221 229//229 228//228
f 222//222 223//223 230//230
f 222//222 230//230 229//229
f 223//223 224//224 231//231
f 223//223 231//231 230//230
f 224//224 218//218 225//225
f 224//224 225//225 231//231
f 225//225 226//226 233//233
f 225//225 233//233 232//232
f 226//226 227//227 234//234
f 226//226 234//234 233//233
f 227//227 228//228 235//235
f 227//227 235//235 234//234
f 228//228 229//229 236//236
f 228//228 236//236 235//235
f 229//229 230//230 237//237
f 229//229 237//237 236//236
f 230//230 231//231 238//238
f 230//230 238//238 237//237
f 231//231 225//225 232//232
f 231//231 232//232 238//238
f 232//232 233//233 240//240
f 232//232 240//240 239//239
f 233//233 234//234 241//241
f 233//233 241//241 240//240
f 234//234 235//235 242//242
f 234//234 242//242 241//241
f 235//235 236//236 243//243
f 235//235 243//243 242//242
f 236//236 237//237 244//244
f 236//236 244//244 243//243
f 237//237 238//238 245//245
f 237//237 245//245 244//244
f 238//238 232//232 239//239
f 238//238 239//239 245//245
f 239//239 240//240 247//247
f 239//239 247//247 246//246
f 240//240 241//241 248//248
f 240//240 248//248 247//247
f 241//241 242//242 249//249
f 241//241 249//249 248//248
f 242//242 243//243 250//250
f 242//242 250//250 249//249
f 243//243 244//244 251//251
f 243//243 251//251 250//250
f 244//244 245//245 252//252
f 244//244 252//252 251//251
f 245//245 239//239 246//246
f 245//245 246//246 252//252
f 246//246 247//247 254//254
f 246//246 254//254 253//253
f 247//247 248//248 255//255
f 247//247 255//255 254//254
f 248//248 249//249 256//256
f 248//248 256//256 255//255
f 249//249 250//250 257//257
f 249//249 257//257 256//256
f 250//250 251//251 258//258
f 250//250 258//258 257//257
f 251//251 252//252 259//259
f 251//251 259//259 258//258
f 252//252 246//246 253//253
f 252//252 253//253 259//259
f 253//253 254//254 261//261
f 253//253 261//261 260//260
f 254//254 255//255 262//262
f 254//254 262//262 261//261
f 255//255 256//256 263//263
f 255//255 263//263 262//262
f 256//256 257//257 264//264
f 256//256 264//264 263//263
f 257//257 258//258 265//265
f 257//257 265//265 264//264
f 258//258 259//259 266//266
f 258//258 266//266 265//265
f 259//259 253//253 260//260
f 259//259 260//260 266//266
f 260//260 261//261 268//268
f 260//260 268//268 267//267
f 261//261 262//262 269//269
f 261//261 269//269 268//268
f 262//262 263//263 270//270
f 262//262 270//270 269//269
f 263//263 264//264 271//271
f 263//263 271//271 270//270
f 264//264 265//265 272//272
f 264//264 272//272 271//271
f 265//265 266//266 273//273
f 265//265 273//273 272//272
f 266//266 260//260 267//267
f 266//266 267//267 273//273
f 267//267 268//268 275//275
f 267//267 275//275 274//274
f 268//268 269//269 276//276
f 268//268 276//276 275//275
f 269//269 270//270 277//277
f 269//269 277//277 276//276
f 270//270 271//271 278//278
f 270//270 278//278 277//277
f 271//271 272//272 279//279
f 271//271 279//279 278//278
f 272//272 273//273 280//280
f 272//272 280//280 279//279
f 273//273 267//267 274//274
f 273//273 274//274 280//280
f 274//274 275//275 282//282
f 274//274 282//282 281//281
f 275//275 276//276 283//283
f 275//275 283//283 282//282
f 276//276 277//277 284//284
f 276//276 284//284 283//283
f 277//277 278//278 285//285
f 277//277 285//285 284//284
f 278//278 279//279 286//286
f 278//278 286//286 285//285
f 279//279 280//280 287//287
f 279//279 287//287 286//286
f 280//280 274//274 281//281
f 280//280 281//281 287//287
f 281//281 282//282 289//289
f 281//281 289//289 288//288
f 282//282 283//283 290//290
f 282//282 290//290 289//289
f 283//283 284//284 291//291
f 283//283 291//291 290//290
f 284//284 285//285 292//292
f 284//284 292//292 291//291
f 285//285 286//286 293//293
f 285//285 293//293 292//292
f 286//286 287//287 294//294
f 286//286 294//294 293//293
f 287//287 281//281 288//288
f 287//287 288//288 294//294
f 288//288 289//289 296//296
f 288//288 296//296 295//295
f 289//289 290//290 297//297
f 289//289 297//297 296//296
f 290//290 291//291 298//298
f 290//290 298//298 297//297
f 291//291 292//292 299//299
f 291//291 299//299 298//298
f 292//292 293//293 300//300
f 292//292 300//300 299//299
f 293//293 294//294 301//301
f 293//293 301//301 300//300
f 294//294 288//288 295//295
f 294//294 295//295 301//301
f 295//295 296//296 303//303
f 295//295 303//303 302//302
f 296//296 297//297 304//304
f 296//296 304//304 303//303
f 297//297 298//298 305//305
f 297//297 305//305 304//304
f 298//298 299//299 306//306
f 298//298 306//306 305//305
f 299//299 300//300 307//307
f 299//299 307//307 306//306
f 300//300 301//301 308//308
f 300//300 308//308 307//307
f 301//301 295//295 302//302
f 301//301 302//302 308//308
f 302//302 303//303 310//310
f 302//302 310//310 309//309
f 303//303 304//304 311//311
f 303//303 311//311 310//310
f 304//304 305//305 312//312
f 304//304 312//312 311//311
f 305//305 306//306 313//313
f 305//305 313//313 312//312
f 306//306 307//307 314//314
f 306//306 314//314 313//313
f 307//307 308//308 315//315
f 307//307 315//315 314//314
f 308//308 302//302 309//309
f 308//308 309//309 315//315
f 309//309 310//310 317//317
f 309//309 317//317 316//316
f 310//310 311//311 318//318
f 310//310 318//318 317//317
f 311//311 312//312 319//319
f 311//311 319//319 318//318
f 312//312 313//313 320//320
f 312//312 320//320 319//319
f 313//313 314//314 321//321
f 313//313 321//321 320//320
f 314//314 315//315 322//322
f 314//314 322//322 321//321
f 315//315 309//309 316//316
f 315//315 316//316 322//322
f 316//316 317//317 324//324
f 316//316 324//324 323//323
f 317//317 318//318 325//325
f 317//317 325//325 324//324
f 318//318 319//319 326//326
f 318//318 326//326 325//325
f 319//319 320//320 327//327
f 319//319 327//327 326//326
f 320//320 321//321 328//328
f 320//320 328//328 327//327
f 321//321 322//322 329//329
f 321//321 329//329 328//328
f 322//322 316//316 323//323
f 322//322 323//323 329//329
f 323//323 324//324 331//331
f 323//323 331//331 330//330
f 324//324 325//325 332//332
f 324//324 332//332 331//331
f 325//325 326//326 333//333
f 325//325 333//333 332//332
f 326//326 327//327 334//334
f 326//326 334//334 333//333
f 327//327 328//328 335//335
f 327//327 335//335 334//334
f 328//328 329//329 336//336
f 328//328 336//336 335//335
f 329//329 323//323 330//330
f 329//329 330//330 336//336
f 330//330 331//331 338//338
f 330//330 338//338 337//337
f 331//331 332//332 339//339
f 331//331 339//339 338//338
f 332//332 333//333 340//340
f 332//332 340//340 339//339
f 333//333 334//334 341//341
f 333//333 341//341 340//340
f 334//334 335//335 342//342
f 334//334 342//342 341//341
f 335//335 336//336 343//343
f 335//335 343//343 342//342
f 336//336 330//330 337//337
f 336//336 337//337 343//343
f 337//337 338//338 345//345
f 337//337 345//345 344//344
f 338//338 339//339 346//346
f 338//338 346//346 345//345
f 339//339 340//340 347//347
f 339//339 347//347 346//346
f 340//340 341//341 348//348
f 340//340 348//348 347//347
f 341//341 342//342 349//349
f 341//341 349//349 348//348
f 342//342 343//343 350//350
f 342//342 350//350 349//349
f 343//343 337//337 344//344
f 343//343 344//344 350//350
f 344//344 345//345 352//352
f 344//344 352//352 351//351
f 345//345 346//346 353//353
f 345//345 353//353 352//352
f 346//346 347//347 354//354
f 346//346 354//354 353//353
f 347//347 348//348 355//355
f 347//347 355//355 354//354
f 348//348 349//349 356//356
f 348//348 356//356 355//355
f 349//349 350//350 357//357
f 349//349 357//357 356//356
f 350//350 344//344 351//351
f 350//350 351//351 357//357
f 351//351 352//352 359//359
f 351//351 359//359 358//358
f 352//352 353//353 360//360
f 352//352 360//360 359//359
f 353//353 354//354 361//361
f 353//353 361//361 360//360
f 354//354 355//355 362//362
f 354//354 362//362 361//361
f 355//355 356//356 363//363
f 355//355 363//363 362//362
f 356//356 357//357 364//364
f 356//356 364//364 363//363
f 357//357 351//351 358//358
f 357//357 358//358 364//364
f 358//358 359//359 366//366
f 358//358 366//366 365//365
f 359//359 360//360 367//367
f 359//359 367//367 366//366
f 360//360 361//361 368//368
f 360//360 368//368 367//367
f 361//361 362//362 369//369
f 361//361 369//369 368//368
f 362//362 363//363 370//370
f 362//362 370//370 369//369
f 363//363 364//364 371//371
f 363//363 371//371 370//370
f 364//364 358//358 365//365
f 364//364 365//365 371//371
f 365//365 366//366 373//373
f 365//365 373//373 372//372
f 366//366 367//367 374//374
f 366//366 374//374 373//373
f 367//367 368//368 375//375
f 367//367 375//375 374//374
f 368//368 369//369 376//376
f 368//368 376//376 375//375
f 369//369 370//370 377//377
f 369//369 377//377 376//376
f 370//370 371//371 378//378
f 370//370 378//378 377//377
f 371//371 365//365 372//372
f 371//371 372//372 378//378
f 372//372 373//373 380//380
f 372//372 380//380 379//379
f 373//373 374//374 381//381
f 373//373 381//381 380//380
f 374//374 375//375 382//382
f 374//374 382//382 381//381
f 375//375 376//376 383//383
f 375//375 383//383 382//382
f 376//376 377//377 384//384
f 376//376 384//384 383//383
f 377//377 378//378 385//385
f 377//377 385//385 384//384
f 378//378 372//372 379//379
f 378//378 379//379 385//385
f 379//379 380//380 387//387
f 379//379 387//387 386//386
f 380//380 381//381 388//388
f 380//380 388//388 387//387
f 381//381 382//382 389//389
f 381//381 389//389 388//388
f 382//382 383//383 390//390
f 382//382 390//390 389//389
f 383//383 384//384 391//391
f 383//383 391//391 390//390
f 384//384 385//385 392//392
f 384//384 392//392 391//391
f 385//385 379//379 386//386
f 385//385 386//386 392//392
f 386//386 387//387 394//394
f 386//386 394//394 393//393
f 387//387 388//388 395//395
f 387//387 395//395 394//394
f 388//388 389//389 396//396
f 388//388 396//396 395//395
f 389//389 390//390 397//397
f 389//389 397//397 396//396
f 390//390 391//391 398//398
f 390//390 398//398 397//397
f 391//391 392//392 399//399
f 391//391 399//399 398//398
f 392//392 386//386 393//393
f 392//392 393//393 399//399
f 393//393 394//394 401//401
f 393//393 401//401 400//400
f 394//394 395//395 402//402
f 394//394 402//402 401//401
f 395//395 396//396 403//403
f 395//395 403//403 402//402
f 396//396 397//397 404//404
f 396//396 404//404 403//403
f 397//397 398//398 405//405
f 397//397 405//405 404//404
f 398//398 399//399 406//406
f 398//398 406//406 405//405
f 399//399 393//393 400//400
f 399//399 400//400 406//406
f 409//409 408//408 407//407
f 410//410 409//409 407//407
f 411//411 410//410 407//407
f 412//412 411//411 407//407
f 413//413 412//412 407//407
f 414//414 415//415 416//416
f 414//414 416//416 417//417
f 414//414 417//417 418//418
f 414//414 418//418 419//419
f 414//414 419//419 420//420
