mtllib vehicle.mtl
o camera_edge
usemtl edge
v 0.00050000 -0.00680000 0.00000000
v 0.00050000 -0.00671628 -0.00106375
v 0.00050000 -0.00646718 -0.00210132
v 0.00050000 -0.00605884 -0.00308714
v 0.00050000 -0.00550132 -0.00399694
v 0.00050000 -0.00480833 -0.00480833
v 0.00050000 -0.00399694 -0.00550132
v 0.00050000 -0.00308714 -0.00605884
v 0.00050000 -0.00210132 -0.00646718
v 0.00050000 -0.00106375 -0.00671628
v 0.00050000 -0.00000000 -0.00680000
v 0.00050000 0.00106375 -0.00671628
v 0.00050000 0.00210132 -0.00646718
v 0.00050000 0.00308714 -0.00605884
v 0.00050000 0.00399694 -0.00550132
v 0.00050000 0.00480833 -0.00480833
v 0.00050000 0.00550132 -0.00399694
v 0.00050000 0.00605884 -0.00308714
v 0.00050000 0.00646718 -0.00210132
v 0.00050000 0.00671628 -0.00106375
v 0.00050000 0.00680000 -0.00000000
v 0.00050000 0.00671628 0.00106375
v 0.00050000 0.00646718 0.00210132
v 0.00050000 0.00605884 0.00308714
v 0.00050000 0.00550132 0.00399694
v 0.00050000 0.00480833 0.00480833
v 0.00050000 0.00399694 0.00550132
v 0.00050000 0.00308714 0.00605884
v 0.00050000 0.00210132 0.00646718
v 0.00050000 0.00106375 0.00671628
v 0.00050000 0.00000000 0.00680000
v 0.00050000 -0.00106375 0.00671628
v 0.00050000 -0.00210132 0.00646718
v 0.00050000 -0.00308714 0.00605884
v 0.00050000 -0.00399694 0.00550132
v 0.00050000 -0.00480833 0.00480833
v 0.00050000 -0.00550132 0.00399694
v 0.00050000 -0.00605884 0.00308714
v 0.00050000 -0.00646718 0.00210132
v 0.00050000 -0.00671628 0.00106375
v 0.00120000 -0.00680000 0.00000000
v 0.00120000 -0.00671628 -0.00106375
v 0.00120000 -0.00646718 -0.00210132
v 0.00120000 -0.00605884 -0.00308714
v 0.00120000 -0.00550132 -0.00399694
v 0.00120000 -0.00480833 -0.00480833
v 0.00120000 -0.00399694 -0.00550132
v 0.00120000 -0.00308714 -0.00605884
v 0.00120000 -0.00210132 -0.00646718
v 0.00120000 -0.00106375 -0.00671628
v 0.00120000 -0.00000000 -0.00680000
v 0.00120000 0.00106375 -0.00671628
v 0.00120000 0.00210132 -0.00646718
v 0.00120000 0.00308714 -0.00605884
v 0.00120000 0.00399694 -0.00550132
v 0.00120000 0.00480833 -0.00480833
v 0.00120000 0.00550132 -0.00399694
v 0.00120000 0.00605884 -0.00308714
v 0.00120000 0.00646718 -0.00210132
v 0.00120000 0.00671628 -0.00106375
v 0.00120000 0.00680000 -0.00000000
v 0.00120000 0.00671628 0.00106375
v 0.00120000 0.00646718 0.00210132
v 0.00120000 0.00605884 0.00308714
v 0.00120000 0.00550132 0.00399694
v 0.00120000 0.00480833 0.00480833
v 0.00120000 0.00399694 0.00550132
v 0.00120000 0.00308714 0.00605884
v 0.00120000 0.00210132 0.00646718
v 0.00120000 0.00106375 0.00671628
v 0.00120000 0.00000000 0.00680000
v 0.00120000 -0.00106375 0.00671628
v 0.00120000 -0.00210132 0.00646718
v 0.00120000 -0.00308714 0.00605884
v 0.00120000 -0.00399694 0.00550132
v 0.00120000 -0.00480833 0.00480833
v 0.00120000 -0.00550132 0.00399694
v 0.00120000 -0.00605884 0.00308714
v 0.00120000 -0.00646718 0.00210132
v 0.00120000 -0.00671628 0.00106375
vn -0.99997020 -0.00772036 -0.00020254
vn -0.07945309 -0.98013777 -0.18170631
vn -0.30205789 -0.89859498 -0.31825775
vn -0.57654011 -0.71803534 -0.38990605
vn -0.77752423 -0.49888429 -0.38284528
vn -0.88453132 -0.32108784 -0.33838853
vn -0.93641555 -0.19873415 -0.28918976
vn -0.96223646 -0.11717969 -0.24570255
vn -0.97591317 -0.06195052 -0.20917833
vn -0.98364556 -0.02350114 -0.17857505
vn -0.98827964 0.00400335 -0.15260200
vn -0.99119711 0.02413315 -0.13017605
vn -0.99310982 0.03912334 -0.11046404
vn -0.99440432 0.05041183 -0.09283641
vn -0.99530131 0.05894769 -0.07681452
vn -0.99593133 0.06537031 -0.06202814
vn -0.99637443 0.07011611 -0.04818451
vn -0.99668044 0.07348368 -0.03504560
vn -0.99688077 0.07567394 -0.02241169
vn -0.99699408 0.07681489 -0.01010912
vn -0.99703085 0.07697665 0.00201940
vn -0.99699414 0.07617920 0.01412275
vn -0.99688077 0.07439476 0.02634859
vn -0.99668044 0.07154509 0.03885027
vn -0.99637443 0.06749327 0.05179453
vn -0.99593133 0.06202814 0.06537031
vn -0.99530131 0.05483909 0.07979959
vn -0.99440432 0.04547492 0.09535190
vn -0.99310982 0.03327769 0.11236341
vn -0.99119711 0.01727461 0.13126233
vn -0.98827964 -0.00400335 0.15260200
vn -0.98364556 -0.03283180 0.17709723
vn -0.97591317 -0.07283292 0.20564243
vn -0.96223646 -0.12990110 0.23922066
vn -0.93641555 -0.21362349 0.27837199
vn -0.88453132 -0.33838853 0.32108784
vn -0.77752423 -0.51827133 0.35616136
vn -0.57654005 -0.73749107 0.35172194
vn -0.30205789 -0.91404581 0.27070495
vn -0.07945309 -0.98831677 0.13006616
vn 0.99997020 -0.00772036 0.00020254
vn 0.07945309 -0.98831677 -0.13006616
vn 0.30205789 -0.91404581 -0.27070495
vn 0.57654005 -0.73749107 -0.35172194
vn 0.77752423 -0.51827133 -0.35616136
vn 0.88453132 -0.33838853 -0.32108784
vn 0.93641555 -0.21362349 -0.27837199
vn 0.96223646 -0.12990110 -0.23922066
vn 0.97591317 -0.07283292 -0.20564243
vn 0.98364556 -0.03283180 -0.17709723
vn 0.98827964 -0.00400335 -0.15260200
vn 0.99119711 0.01727461 -0.13126233
vn 0.99310982 0.03327769 -0.11236341
vn 0.99440432 0.04547492 -0.09535190
vn 0.99530131 0.05483909 -0.07979959
vn 0.99593133 0.06202814 -0.06537031
vn 0.99637443 0.06749327 -0.05179453
vn 0.99668044 0.07154509 -0.03885027
vn 0.99688077 0.07439476 -0.02634859
vn 0.99699414 0.07617920 -0.01412275
vn 0.99703085 0.07697665 -0.00201940
vn 0.99699408 0.07681489 0.01010912
vn 0.99688077 0.07567394 0.02241169
vn 0.99668044 0.07348368 0.03504560
vn 0.99637443 0.07011611 0.04818451
vn 0.99593133 0.06537031 0.06202814
vn 0.99530131 0.05894769 0.07681452
vn 0.99440432 0.05041183 0.09283641
vn 0.99310982 0.03912334 0.11046404
vn 0.99119711 0.02413315 0.13017605
vn 0.98827964 0.00400335 0.15260200
vn 0.98364556 -0.02350114 0.17857505
vn 0.97591317 -0.06195052 0.20917833
vn 0.96223646 -0.11717969 0.24570255
vn 0.93641555 -0.19873415 0.28918976
vn 0.88453132 -0.32108784 0.33838853
vn 0.77752423 -0.49888429 0.38284528
vn 0.57654011 -0.71803534 0.38990605
vn 0.30205789 -0.89859498 0.31825775
vn 0.07945309 -0.98013777 0.18170631
f 1//1 2//2 42//42
f 1//1 42//42 41//41
f 2//2 3//3 43//43
f 2//2 43//43 42//42
f 3//3 4//4 44//44
f 3//3 44//44 43//43
f 4//4 5//5 45//45
f 4//4 45//45 44//44
f 5//5 6//6 46//46
f 5//5 46//46 45//45
f 6//6 7//7 47//47
f 6//6 47//47 46//46
f 7//7 8//8 48//48
f 7//7 48//48 47//47
f 8//8 9//9 49//49
f 8//8 49//49 48//48
f 9//9 10//10 50//50
f 9//9 50//50 49//49
f 10//10 11//11 51//51
f 10//10 51//51 50//50
f 11//11 12//12 52//52
f 11//11 52//52 51//51
f 12//12 13//13 53//53
f 12//12 53//53 52//52
f 13//13 14//14 54//54
f 13//13 54//54 53//53
f 14//14 15//15 55//55
f 14//14 55//55 54//54
f 15//15 16//16 56//56
f 15//15 56//56 55//55
f 16//16 17//17 57//57
f 16//16 57//57 56//56
f 17//17 18//18 58//58
f 17//17 58//58 57//57
f 18//18 19//19 59//59
f 18//18 59//59 58//58
f 19//19 20//20 60//60
f 19//19 60//60 59//59
f 20//20 21//21 61//61
f 20//20 61//61 60//60
f 21//21 22//22 62//62
f 21//21 62//62 61//61
f 22//22 23//23 63//63
f 22//22 63//63 62//62
f 23//23 24//24 64//64
f 23//23 64//64 63//63
f 24//24 25//25 65//65
f 24//24 65//65 64//64
f 25//25 26//26 66//66
f 25//25 66//66 65//65
f 26//26 27//27 67//67
f 26//26 67//67 66//66
f 27//27 28//28 68//68
f 27//27 68//68 67//67
f 28//28 29//29 69//69
f 28//28 69//69 68//68
f 29//29 30//30 70//70
f 29//29 70//70 69//69
f 30//30 31//31 71//71
f 30//30 71//71 70//70
f 31//31 32//32 72//72
f 31//31 72//72 71//71
f 32//32 33//33 73//73
f 32//32 73//73 72//72
f 33//33 34//34 74//74
f 33//33 74//74 73//73
f 34//34 35//35 75//75
f 34//34 75//75 74//74
f 35//35 36//36 76//76
f 35//35 76//76 75//75
f 36//36 37//37 77//77
f 36//36 77//77 76//76
f 37//37 38//38 78//78
f 37//37 78//78 77//77
f 38//38 39//39 79//79
f 38//38 79//79 78//78
f 39//39 40//40 80//80
f 39//39 80//80 79//79
f 40//40 1//1 41//41
f 40//40 41//41 80//80
f 1//1 3//3 2//2
f 1//1 4//4 3//3
f 1//1 5//5 4//4
f 1//1 6//6 5//5
f 1//1 7//7 6//6
f 1//1 8//8 7//7
f 1//1 9//9 8//8
f 1//1 10//10 9//9
f 1//1 11//11 10//10
f 1//1 12//12 11//11
f 1//1 13//13 12//12
f 1//1 14//14 13//13
f 1//1 15//15 14//14
f 1//1 16//16 15//15
f 1//1 17//17 16//16
f 1//1 18//18 17//17
f 1//1 19//19 18//18
f 1//1 20//20 19//19
f 1//1 21//21 20//20
f 1//1 22//22 21//21
f 1//1 23//23 22//22
f 1//1 24//24 23//23
f 1//1 25//25 24//24
f 1//1 26//26 25//25
f 1//1 27//27 26//26
f 1//1 28//28 27//27
f 1//1 29//29 28//28
f 1//1 30//30 29//29
f 1//1 31//31 30//30
f 1//1 32//32 31//31
f 1//1 33//33 32//32
f 1//1 34//34 33//33
f 1//1 35//35 34//34
f 1//1 36//36 35//35
f 1//1 37//37 36//36
f 1//1 38//38 37//37
f 1//1 39//39 38//38
f 1//1 40//40 39//39
f 41//41 42//42 43//43
f 41//41 43//43 44//44
f 41//41 44//44 45//45
f 41//41 45//45 46//46
f 41//41 46//46 47//47
f 41//41 47//47 48//48
f 41//41 48//48 49//49
f 41//41 49//49 50//50
f 41//41 50//50 51//51
f 41//41 51//51 52//52
f 41//41 52//52 53//53
f 41//41 53//53 54//54
f 41//41 54//54 55//55
f 41//41 55//55 56//56
f 41//41 56//56 57//57
f 41//41 57//57 58//58
f 41//41 58//58 59//59
f 41//41 59//59 60//60
f 41//41 60//60 61//61
f 41//41 61//61 62//62
f 41//41 62//62 63//63
f 41//41 63//63 64//64
f 41//41 64//64 65//65
f 41//41 65//65 66//66
f 41//41 66//66 67//67
f 41//41 67//67 68//68
f 41//41 68//68 69//69
f 41//41 69//69 70//70
f 41//41 70//70 71//71
f 41//41 71//71 72//72
f 41//41 72//72 73//73
f 41//41 73//73 74//74
f 41//41 74//74 75//75
f 41//41 75//75 76//76
f 41//41 76//76 77//77
f 41//41 77//77 78//78
f 41//41 78//78 79//79
f 41//41 79//79 80//80
