mtllib vehicle.mtl
o camera_lens
usemtl lens
v 0.00130000 -0.00560000 0.00000000
v 0.00130000 -0.00553105 -0.00087603
v 0.00130000 -0.00532592 -0.00173050
v 0.00130000 -0.00498964 -0.00254235
v 0.00130000 -0.00453050 -0.00329160
v 0.00130000 -0.00395980 -0.00395980
v 0.00130000 -0.00329160 -0.00453050
v 0.00130000 -0.00254235 -0.00498964
v 0.00130000 -0.00173050 -0.00532592
v 0.00130000 -0.00087603 -0.00553105
v 0.00130000 -0.00000000 -0.00560000
v 0.00130000 0.00087603 -0.00553105
v 0.00130000 0.00173050 -0.00532592
v 0.00130000 0.00254235 -0.00498964
v 0.00130000 0.00329160 -0.00453050
v 0.00130000 0.00395980 -0.00395980
v 0.00130000 0.00453050 -0.00329160
v 0.00130000 0.00498964 -0.00254235
v 0.00130000 0.00532592 -0.00173050
v 0.00130000 0.00553105 -0.00087603
v 0.00130000 0.00560000 -0.00000000
v 0.00130000 0.00553105 0.00087603
v 0.00130000 0.00532592 0.00173050
v 0.00130000 0.00498964 0.00254235
v 0.00130000 0.00453050 0.00329160
v 0.00130000 0.00395980 0.00395980
v 0.00130000 0.00329160 0.00453050
v 0.00130000 0.00254235 0.00498964
v 0.00130000 0.00173050 0.00532592
v 0.00130000 0.00087603 0.00553105
v 0.00130000 0.00000000 0.00560000
v 0.00130000 -0.00087603 0.00553105
v 0.00130000 -0.00173050 0.00532592
v 0.00130000 -0.00254235 0.00498964
v 0.00130000 -0.00329160 0.00453050
v 0.00130000 -0.00395980 0.00395980
v 0.00130000 -0.00453050 0.00329160
v 0.00130000 -0.00498964 0.00254235
v 0.00130000 -0.00532592 0.00173050
v 0.00130000 -0.00553105 0.00087603
v 0.00150000 -0.00560000 0.00000000
v 0.00150000 -0.00553105 -0.00087603
v 0.00150000 -0.00532592 -0.00173050
v 0.00150000 -0.00498964 -0.00254235
v 0.00150000 -0.00453050 -0.00329160
v 0.00150000 -0.00395980 -0.00395980
v 0.00150000 -0.00329160 -0.00453050
v 0.00150000 -0.00254235 -0.00498964
v 0.00150000 -0.00173050 -0.00532592
v 0.00150000 -0.00087603 -0.00553105
v 0.00150000 -0.00000000 -0.00560000
v 0.00150000 0.00087603 -0.00553105
v 0.00150000 0.00173050 -0.00532592
v 0.00150000 0.00254235 -0.00498964
v 0.00150000 0.00329160 -0.00453050
v 0.00150000 0.00395980 -0.00395980
v 0.00150000 0.00453050 -0.00329160
v 0.00150000 0.00498964 -0.00254235
v 0.00150000 0.00532592 -0.00173050
v 0.00150000 0.00553105 -0.00087603
v 0.00150000 0.00560000 -0.00000000
v 0.00150000 0.00553105 0.00087603
v 0.00150000 0.00532592 0.00173050
v 0.00150000 0.00498964 0.00254235
v 0.00150000 0.00453050 0.00329160
v 0.00150000 0.00395980 0.00395980
v 0.00150000 0.00329160 0.00453050
v 0.00150000 0.00254235 0.00498964
v 0.00150000 0.00173050 0.00532592
v 0.00150000 0.00087603 0.00553105
v 0.00150000 0.00000000 0.00560000
v 0.00150000 -0.00087603 0.00553105
v 0.00150000 -0.00173050 0.00532592
v 0.00150000 -0.00254235 0.00498964
v 0.00150000 -0.00329160 0.00453050
v 0.00150000 -0.00395980 0.00395980
v 0.00150000 -0.00453050 0.00329160
v 0.00150000 -0.00498964 0.00254235
v 0.00150000 -0.00532592 0.00173050
v 0.00150000 -0.00553105 0.00087603
vn -0.99999642 -0.00267856 -0.00007027
vn -0.22390635 -0.95828229 -0.17765450
vn -0.67437226 -0.69602668 -0.24651361
vn -0.89739406 -0.38775027 -0.21055536
vn -0.96281379 -0.21432883 -0.16447668
vn -0.98367035 -0.12388343 -0.13055842
vn -0.99165499 -0.07301594 -0.10624973
vn -0.99521798 -0.04204764 -0.08816554
vn -0.99700600 -0.02195758 -0.07414059
vn -0.99798822 -0.00827232 -0.06285796
vn -0.99856710 0.00140337 -0.05349468
vn -0.99892801 0.00843803 -0.04551540
vn -0.99916303 0.01365614 -0.03855785
vn -0.99932140 0.01757630 -0.03236781
vn -0.99943089 0.02053610 -0.02676050
vn -0.99950761 0.02276093 -0.02159724
vn -0.99956149 0.02440380 -0.01677055
vn -0.99959868 0.02556898 -0.01219428
vn -0.99962300 0.02632644 -0.00779688
vn -0.99963677 0.02672070 -0.00351654
vn -0.99964118 0.02677611 0.00070244
vn -0.99963677 0.02649957 0.00491272
vn -0.99962300 0.02588143 0.00916649
vn -0.99959868 0.02489444 0.01351813
vn -0.99956149 0.02349092 0.01802702
vn -0.99950761 0.02159724 0.02276093
vn -0.99943089 0.01910475 0.02780044
vn -0.99932140 0.01585503 0.03324484
vn -0.99916303 0.01161570 0.03922083
vn -0.99892801 0.00603997 0.04589521
vn -0.99856710 -0.00140337 0.05349468
vn -0.99798822 -0.01155670 0.06233776
vn -0.99700600 -0.02581470 0.07288734
vn -0.99521798 -0.04661247 0.08583965
vn -0.99165499 -0.07848637 0.10227523
vn -0.98367035 -0.13055842 0.12388343
vn -0.96281379 -0.22265783 0.15301281
vn -0.89739406 -0.39825666 0.18993534
vn -0.67437226 -0.70799434 0.20968062
vn -0.22390634 -0.96627885 0.12716559
vn 0.99999642 -0.00267856 0.00007027
vn 0.22390634 -0.96627885 -0.12716559
vn 0.67437226 -0.70799434 -0.20968062
vn 0.89739406 -0.39825666 -0.18993534
vn 0.96281379 -0.22265783 -0.15301281
vn 0.98367035 -0.13055842 -0.12388343
vn 0.99165499 -0.07848637 -0.10227523
vn 0.99521798 -0.04661247 -0.08583965
vn 0.99700600 -0.02581470 -0.07288734
vn 0.99798822 -0.01155670 -0.06233776
vn 0.99856710 -0.00140337 -0.05349468
vn 0.99892801 0.00603997 -0.04589521
vn 0.99916303 0.01161570 -0.03922083
vn 0.99932140 0.01585503 -0.03324484
vn 0.99943089 0.01910475 -0.02780044
vn 0.99950761 0.02159724 -0.02276093
vn 0.99956149 0.02349092 -0.01802702
vn 0.99959868 0.02489444 -0.01351813
vn 0.99962300 0.02588143 -0.00916649
vn 0.99963677 0.02649957 -0.00491272
vn 0.99964118 0.02677611 -0.00070244
vn 0.99963677 0.02672070 0.00351654
vn 0.99962300 0.02632644 0.00779688
vn 0.99959868 0.02556898 0.01219428
vn 0.99956149 0.02440380 0.01677055
vn 0.99950761 0.02276093 0.02159724
vn 0.99943089 0.02053610 0.02676050
vn 0.99932140 0.01757630 0.03236781
vn 0.99916303 0.01365614 0.03855785
vn 0.99892801 0.00843803 0.04551540
vn 0.99856710 0.00140337 0.05349468
vn 0.99798822 -0.00827232 0.06285796
vn 0.99700600 -0.02195758 0.07414059
vn 0.99521798 -0.04204764 0.08816554
vn 0.99165499 -0.07301594 0.10624973
vn 0.98367035 -0.12388343 0.13055842
vn 0.96281379 -0.21432883 0.16447668
vn 0.89739406 -0.38775027 0.21055536
vn 0.67437226 -0.69602668 0.24651361
vn 0.22390635 -0.95828229 0.17765450
f 1//1 2//2 42//42
f 1//1 42//42 41//41
f 2//2 3//3 43//43
f 2//2 43//43 42//42
f 3//3 4//4 44//44
f 3//3 44//44 43//43
f 4//4 5//5 45//45
f 4//4 45//45 44//44
f 5//5 6//6 46//46
f 5//5 46//46 45//45
f 6//6 7//7 47//47
f 6//6 47//47 46//46
f 7//7 8//8 48//48
f 7//7 48//48 47//47
f 8//8 9//9 49//49
f 8//8 49//49 48//48
f 9//9 10//10 50//50
f 9//9 50//50 49//49
f 10//10 11//11 51//51
f 10//10 51//51 50//50
f 11//11 12//12 52//52
f 11//11 52//52 51//51
f 12//12 13//13 53//53
f 12//12 53//53 52//52
f 13//13 14//14 54//54
f 13//13 54//54 53//53
f 14//14 15//15 55//55
f 14//14 55//55 54//54
f 15//15 16//16 56//56
f 15//15 56//56 55//55
f 16//16 17//17 57//57
f 16//16 57//57 56//56
f 17//17 18//18 58//58
f 17//17 58//58 57//57
f 18//18 19//19 59//59
f 18//18 59//59 58//58
f 19//19 20//20 60//60
f 19//19 60//60 59//59
f 20//20 21//21 61//61
f 20//20 61//61 60//60
f 21//21 22//22 62//62
f 21//21 62//62 61//61
f 22//22 23//23 63//63
f 22//22 63//63 62//62
f 23//23 24//24 64//64
f 23//23 64//64 63//63
f 24//24 25//25 65//65
f 24//24 65//65 64//64
f 25//25 26//26 66//66
f 25//25 66//66 65//65
f 26//26 27//27 67//67
f 26//26 67//67 66//66
f 27//27 28//28 68//68
f 27//27 68//68 67//67
f 28//28 29//29 69//69
f 28//28 69//69 68//68
f 29//29 30//30 70//70
f 29//29 70//70 69//69
f 30//30 31//31 71//71
f 30//30 71//71 70//70
f 31//31 32//32 72//72
f 31//31 72//72 71//71
f 32//32 33//33 73//73
f 32//32 73//73 72//72
f 33//33 34//34 74//74
f 33//33 74//74 73//73
f 34//34 35//35 75//75
f 34//34 75//75 74//74
f 35//35 36//36 76//76
f 35//35 76//76 75//75
f 36//36 37//37 77//77
f 36//36 77//77 76//76
f 37//37 38//38 78//78
f 37//37 78//78 77//77
f 38//38 39//39 79//79
f 38//38 79//79 78//78
f 39//39 40//40 80//80
f 39//39 80//80 79//79
f 40//40 1//1 41//41
f 40//40 41//41 80//80
f 1//1 3//3 2//2
f 1//1 4//4 3//3
f 1//1 5//5 4//4
f 1//1 6//6 5//5
f 1//1 7//7 6//6
f 1//1 8//8 7//7
f 1//1 9//9 8//8
f 1//1 10//10 9//9
f 1//1 11//11 10//10
f 1//1 12//12 11//11
f 1//1 13//13 12//12
f 1//1 14//14 13//13
f 1//1 15//15 14//14
f 1//1 16//16 15//15
f 1//1 17//17 16//16
f 1//1 18//18 17//17
f 1//1 19//19 18//18
f 1//1 20//20 19//19
f 1//1 21//21 20//20
f 1//1 22//22 21//21
f 1//1 23//23 22//22
f 1//1 24//24 23//23
f 1//1 25//25 24//24
f 1//1 26//26 25//25
f 1//1 27//27 26//26
f 1//1 28//28 27//27
f 1//1 29//29 28//28
f 1//1 30//30 29//29
f 1//1 31//31 30//30
f 1//1 32//32 31//31
f 1//1 33//33 32//32
f 1//1 34//34 33//33
f 1//1 35//35 34//34
f 1//1 36//36 35//35
f 1//1 37//37 36//36
f 1//1 38//38 37//37
f 1//1 39//39 38//38
f 1//1 40//40 39//39
f 41//41 42//42 43//43
f 41//41 43//43 44//44
f 41//41 44//44 45//45
f 41//41 45//45 46//46
f 41//41 46//46 47//47
f 41//41 47//47 48//48
f 41//41 48//48 49//49
f 41//41 49//49 50//50
f 41//41 50//50 51//51
f 41//41 51//51 52//52
f 41//41 52//52 53//53
f 41//41 53//53 54//54
f 41//41 54//54 55//55
f 41//41 55//55 56//56
f 41//41 56//56 57//57
f 41//41 57//57 58//58
f 41//41 58//58 59//59
f 41//41 59//59 60//60
f 41//41 60//60 61//61
f 41//41 61//61 62//62
f 41//41 62//62 63//63
f 41//41 63//63 64//64
f 41//41 64//64 65//65
f 41//41 65//65 66//66
f 41//41 66//66 67//67
f 41//41 67//67 68//68
f 41//41 68//68 69//69
f 41//41 69//69 70//70
f 41//41 70//70 71//71
f 41//41 71//71 72//72
f 41//41 72//72 73//73
f 41//41 73//73 74//74
f 41//41 74//74 75//75
f 41//41 75//75 76//76
f 41//41 76//76 77//77
f 41//41 77//77 78//78
f 41//41 78//78 79//79
f 41//41 79//79 80//80
