mtllib vehicle.mtl
o lidar_lens
usemtl lens
v 0.00000000 0.01255000 -0.00250000
v -0.00163810 0.01244263 -0.00250000
v -0.00324818 0.01212237 -0.00250000
v -0.00480268 0.01159469 -0.00250000
v -0.00627500 0.01086862 -0.00250000
v -0.00763996 0.00995658 -0.00250000
v -0.00887419 0.00887419 -0.00250000
v -0.00995658 0.00763996 -0.00250000
v -0.01086862 0.00627500 -0.00250000
v -0.01159469 0.00480268 -0.00250000
v -0.01212237 0.00324818 -0.00250000
v -0.01244263 0.00163810 -0.00250000
v -0.01255000 0.00000000 -0.00250000
v -0.01244263 -0.00163810 -0.00250000
v -0.01212237 -0.00324818 -0.00250000
v -0.01159469 -0.00480268 -0.00250000
v -0.01086862 -0.00627500 -0.00250000
v -0.00995658 -0.00763996 -0.00250000
v -0.00887419 -0.00887419 -0.00250000
v -0.00763996 -0.00995658 -0.00250000
v -0.00627500 -0.01086862 -0.00250000
v -0.00480268 -0.01159469 -0.00250000
v -0.00324818 -0.01212237 -0.00250000
v -0.00163810 -0.01244263 -0.00250000
v -0.00000000 -0.01255000 -0.00250000
v 0.00163810 -0.01244263 -0.00250000
v 0.00324818 -0.01212237 -0.00250000
v 0.00480268 -0.01159469 -0.00250000
v 0.00627500 -0.01086862 -0.00250000
v 0.00763996 -0.00995658 -0.00250000
v 0.00887419 -0.00887419 -0.00250000
v 0.00995658 -0.00763996 -0.00250000
v 0.01086862 -0.00627500 -0.00250000
v 0.01159469 -0.00480268 -0.00250000
v 0.01212237 -0.00324818 -0.00250000
v 0.01244263 -0.00163810 -0.00250000
v 0.01255000 -0.00000000 -0.00250000
v 0.01244263 0.00163810 -0.00250000
v 0.01212237 0.00324818 -0.00250000
v 0.01159469 0.00480268 -0.00250000
v 0.01086862 0.00627500 -0.00250000
v 0.00995658 0.00763996 -0.00250000
v 0.00887419 0.00887419 -0.00250000
v 0.00763996 0.00995658 -0.00250000
v 0.00627500 0.01086862 -0.00250000
v 0.00480268 0.01159469 -0.00250000
v 0.00324818 0.01212237 -0.00250000
v 0.00163810 0.01244263 -0.00250000
v 0.00000000 0.01255000 0.00250000
v -0.00163810 0.01244263 0.00250000
v -0.00324818 0.01212237 0.00250000
v -0.00480268 0.01159469 0.00250000
v -0.00627500 0.01086862 0.00250000
v -0.00763996 0.00995658 0.00250000
v -0.00887419 0.00887419 0.00250000
v -0.00995658 0.00763996 0.00250000
v -0.01086862 0.00627500 0.00250000
v -0.01159469 0.00480268 0.00250000
v -0.01212237 0.00324818 0.00250000
v -0.01244263 0.00163810 0.00250000
v -0.01255000 0.00000000 0.00250000
v -0.01244263 -0.00163810 0.00250000
v -0.01212237 -0.00324818 0.00250000
v -0.01159469 -0.00480268 0.00250000
v -0.01086862 -0.00627500 0.00250000
v -0.00995658 -0.00763996 0.00250000
v -0.00887419 -0.00887419 0.00250000
v -0.00763996 -0.00995658 0.00250000
v -0.00627500 -0.01086862 0.00250000
v -0.00480268 -0.01159469 0.00250000
v -0.00324818 -0.01212237 0.00250000
v -0.00163810 -0.01244263 0.00250000
v -0.00000000 -0.01255000 0.00250000
v 0.00163810 -0.01244263 0.00250000
v 0.00324818 -0.01212237 0.00250000
v 0.00480268 -0.01159469 0.00250000
v 0.00627500 -0.01086862 0.00250000
v 0.00763996 -0.00995658 0.00250000
v 0.00887419 -0.00887419 0.00250000
v 0.00995658 -0.00763996 0.00250000
v 0.01086862 -0.00627500 0.00250000
v 0.01159469 -0.00480268 0.00250000
v 0.01212237 -0.00324818 0.00250000
v 0.01244263 -0.00163810 0.00250000
v 0.01255000 -0.00000000 0.00250000
v 0.01244263 0.00163810 0.00250000
v 0.01212237 0.00324818 0.00250000
v 0.01159469 0.00480268 0.00250000
v 0.01086862 0.00627500 0.00250000
v 0.00995658 0.00763996 0.00250000
v 0.00887419 0.00887419 0.00250000
v 0.00763996 0.00995658 0.00250000
v 0.00627500 0.01086862 0.00250000
v 0.00480268 0.01159469 0.00250000
v 0.00324818 0.01212237 0.00250000
v 0.00163810 0.01244263 0.00250000
vn -0.00054385 0.02489268 -0.99968994
vn -0.15213504 0.98825610 -0.01431064
vn -0.27940187 0.95848608 -0.05691138
vn -0.39954540 0.90796787 -0.12632436
vn -0.50623757 0.83420122 -0.21870488
vn -0.59159124 0.73706543 -0.32673287
vn -0.64869535 0.62095624 -0.44000864
vn -0.67477614 0.49473777 -0.54764187
vn -0.67249292 0.36891803 -0.64160174
vn -0.64834070 0.25210518 -0.71839917
vn -0.60978216 0.14919463 -0.77840006
vn -0.56315607 0.06165986 -0.82404691
vn -0.51295406 -0.01120698 -0.85834289
vn -0.46198040 -0.07111862 -0.88403410
vn -0.41180748 -0.12004324 -0.90332949
vn -0.36320844 -0.15982753 -0.91789693
vn -0.31647468 -0.19205363 -0.92895591
vn -0.27162394 -0.21801369 -0.93738490
vn -0.22852522 -0.23873380 -0.94381267
vn -0.18697236 -0.25501287 -0.94868839
vn -0.14672524 -0.26746234 -0.95233166
vn -0.10753124 -0.27653888 -0.95496768
vn -0.06913640 -0.28257149 -0.95675153
vn -0.03129007 -0.28578064 -0.95778412
vn 0.00625488 -0.28629145 -0.95812207
vn 0.04374155 -0.28414136 -0.95778412
vn 0.08141172 -0.27928233 -0.95675153
vn 0.11950643 -0.27157864 -0.95496768
vn 0.15826662 -0.26079890 -0.95233166
vn 0.19793159 -0.24660358 -0.94868839
vn 0.23873380 -0.22852522 -0.94381267
vn 0.28088644 -0.20594256 -0.93738490
vn 0.32456064 -0.17804837 -0.92895591
vn 0.36984226 -0.14381197 -0.91789693
vn 0.41665739 -0.10194304 -0.90332949
vn 0.46464568 -0.05087398 -0.88403410
vn 0.51295406 0.01120698 -0.85834289
vn 0.55992573 0.08619661 -0.82404691
vn 0.60268426 0.17568445 -0.77840006
vn 0.63671142 0.28018075 -0.71839911
vn 0.65573871 0.39793706 -0.64160174
vn 0.65252477 0.52373636 -0.54764187
vn 0.62095624 0.64869535 -0.44000864
vn 0.55883569 0.76219970 -0.32673287
vn 0.46932083 0.85551512 -0.21870485
vn 0.35950884 0.92455149 -0.12632437
vn 0.23727347 0.96977437 -0.05691138
vn 0.10882824 0.99395758 -0.01431064
vn 0.00054385 0.02489268 0.99968994
vn -0.10882824 0.99395758 0.01431064
vn -0.23727347 0.96977437 0.05691138
vn -0.35950884 0.92455149 0.12632437
vn -0.46932083 0.85551512 0.21870485
vn -0.55883569 0.76219970 0.32673287
vn -0.62095624 0.64869535 0.44000864
vn -0.65252477 0.52373636 0.54764187
vn -0.65573871 0.39793706 0.64160174
vn -0.63671142 0.28018075 0.71839911
vn -0.60268426 0.17568445 0.77840006
vn -0.55992573 0.08619661 0.82404691
vn -0.51295406 0.01120698 0.85834289
vn -0.46464568 -0.05087398 0.88403410
vn -0.41665739 -0.10194304 0.90332949
vn -0.36984226 -0.14381197 0.91789693
vn -0.32456064 -0.17804837 0.92895591
vn -0.28088644 -0.20594256 0.93738490
vn -0.23873380 -0.22852522 0.94381267
vn -0.19793159 -0.24660358 0.94868839
vn -0.15826662 -0.26079890 0.95233166
vn -0.11950643 -0.27157864 0.95496768
vn -0.08141172 -0.27928233 0.95675153
vn -0.04374155 -0.28414136 0.95778412
vn -0.00625488 -0.28629145 0.95812207
vn 0.03129007 -0.28578064 0.95778412
vn 0.06913640 -0.28257149 0.95675153
vn 0.10753124 -0.27653888 0.95496768
vn 0.14672524 -0.26746234 0.95233166
vn 0.18697236 -0.25501287 0.94868839
vn 0.22852522 -0.23873380 0.94381267
vn 0.27162394 -0.21801369 0.93738490
vn 0.31647468 -0.19205363 0.92895591
vn 0.36320844 -0.15982753 0.91789693
vn 0.41180748 -0.12004324 0.90332949
vn 0.46198040 -0.07111862 0.88403410
vn 0.51295406 -0.01120698 0.85834289
vn 0.56315607 0.06165986 0.82404691
vn 0.60978216 0.14919463 0.77840006
vn 0.64834070 0.25210518 0.71839917
vn 0.67249292 0.36891803 0.64160174
vn 0.67477614 0.49473777 0.54764187
vn 0.64869535 0.62095624 0.44000864
vn 0.59159124 0.73706543 0.32673287
vn 0.50623757 0.83420122 0.21870488
vn 0.39954540 0.90796787 0.12632436
vn 0.27940187 0.95848608 0.05691138
vn 0.15213504 0.98825610 0.01431064
f 1//1 2//2 50//50
f 1//1 50//50 49//49
f 2//2 3//3 51//51
f 2//2 51//51 50//50
f 3//3 4//4 52//52
f 3//3 52//52 51//51
f 4//4 5//5 53//53
f 4//4 53//53 52//52
f 5//5 6//6 54//54
f 5//5 54//54 53//53
f 6//6 7//7 55//55
f 6//6 55//55 54//54
f 7//7 8//8 56//56
f 7//7 56//56 55//55
f 8//8 9//9 57//57
f 8//8 57//57 56//56
f 9//9 10//10 58//58
f 9//9 58//58 57//57
f 10//10 11//11 59//59
f 10//10 59//59 58//58
f 11//11 12//12 60//60
f 11//11 60//60 59//59
f 12//12 13//13 61//61
f 12//12 61//61 60//60
f 13//13 14//14 62//62
f 13//13 62//62 61//61
f 14//14 15//15 63//63
f 14//14 63//63 62//62
f 15//15 16//16 64//64
f 15//15 64//64 63//63
f 16//16 17//17 65//65
f 16//16 65//65 64//64
f 17//17 18//18 66//66
f 17//17 66//66 65//65
f 18//18 19//19 67//67
f 18//18 67//67 66//66
f 19//19 20//20 68//68
f 19//19 68//68 67//67
f 20//20 21//21 69//69
f 20//20 69//69 68//68
f 21//21 22//22 70//70
f 21//21 70//70 69//69
f 22//22 23//23 71//71
f 22//22 71//71 70//70
f 23//23 24//24 72//72
f 23//23 72//72 71//71
f 24//24 25//25 73//73
f 24//24 73//73 72//72
f 25//25 26//26 74//74
f 25//25 74//74 73//73
f 26//26 27//27 75//75
f 26//26 75//75 74//74
f 27//27 28//28 76//76
f 27//27 76//76 75//75
f 28//28 29//29 77//77
f 28//28 77//77 76//76
f 29//29 30//30 78//78
f 29//29 78//78 77//77
f 30//30 31//31 79//79
f 30//30 79//79 78//78
f 31//31 32//32 80//80
f 31//31 80//80 79//79
f 32//32 33//33 81//81
f 32//32 81//81 80//80
f 33//33 34//34 82//82
f 33//33 82//82 81//81
f 34//34 35//35 83//83
f 34//34 83//83 82//82
f 35//35 36//36 84//84
f 35//35 84//84 83//83
f 36//36 37//37 85//85
f 36//36 85//85 84//84
f 37//37 38//38 86//86
f 37//37 86//86 85//85
f 38//38 39//39 87//87
f 38//38 87//87 86//86
f 39//39 40//40 88//88
f 39//39 88//88 87//87
f 40//40 41//41 89//89
f 40//40 89//89 88//88
f 41//41 42//42 90//90
f 41//41 90//90 89//89
f 42//42 43//43 91//91
f 42//42 91//91 90//90
f 43//43 44//44 92//92
f 43//43 92//92 91//91
f 44//44 45//45 93//93
f 44//44 93//93 92//92
f 45//45 46//46 94//94
f 45//45 94//94 93//93
f 46//46 47//47 95//95
f 46//46 95//95 94//94
f 47//47 48//48 96//96
f 47//47 96//96 95//95
f 48//48 1//1 49//49
f 48//48 49//49 96//96
f 1//1 3//3 2//2
f 1//1 4//4 3//3
f 1//1 5//5 4//4
f 1//1 6//6 5//5
f 1//1 7//7 6//6
f 1//1 8//8 7//7
f 1//1 9//9 8//8
f 1//1 10//10 9//9
f 1//1 11//11 10//10
f 1//1 12//12 11//11
f 1//1 13//13 12//12
f 1//1 14//14 13//13
f 1//1 15//15 14//14
f 1//1 16//16 15//15
f 1//1 17//17 16//16
f 1//1 18//18 17//17
f 1//1 19//19 18//18
f 1//1 20//20 19//19
f 1//1 21//21 20//20
f 1//1 22//22 21//21
f 1//1 23//23 22//22
f 1//1 24//24 23//23
f 1//1 25//25 24//24
f 1//1 26//26 25//25
f 1//1 27//27 26//26
f 1//1 28//28 27//27
f 1//1 29//29 28//28
f 1//1 30//30 29//29
f 1//1 31//31 30//30
f 1//1 32//32 31//31
f 1//1 33//33 32//32
f 1//1 34//34 33//33
f 1//1 35//35 34//34
f 1//1 36//36 35//35
f 1//1 37//37 36//36
f 1//1 38//38 37//37
f 1//1 39//39 38//38
f 1//1 40//40 39//39
f 1//1 41//41 40//40
f 1//1 42//42 41//41
f 1//1 43//43 42//42
f 1//1 44//44 43//43
f 1//1 45//45 44//44
f 1//1 46//46 45//45
f 1//1 47//47 46//46
f 1//1 48//48 47//47
f 49//49 50//50 51//51
f 49//49 51//51 52//52
f 49//49 52//52 53//53
f 49//49 53//53 54//54
f 49//49 54//54 55//55
f 49//49 55//55 56//56
f 49//49 56//56 57//57
f 49//49 57//57 58//58
f 49//49 58//58 59//59
f 49//49 59//59 60//60
f 49//49 60//60 61//61
f 49//49 61//61 62//62
f 49//49 62//62 63//63
f 49//49 63//63 64//64
f 49//49 64//64 65//65
f 49//49 65//65 66//66
f 49//49 66//66 67//67
f 49//49 67//67 68//68
f 49//49 68//68 69//69
f 49//49 69//69 70//70
f 49//49 70//70 71//71
f 49//49 71//71 72//72
f 49//49 72//72 73//73
f 49//49 73//73 74//74
f 49//49 74//74 75//75
f 49//49 75//75 76//76
f 49//49 76//76 77//77
f 49//49 77//77 78//78
f 49//49 78//78 79//79
f 49//49 79//79 80//80
f 49//49 80//80 81//81
f 49//49 81//81 82//82
f 49//49 82//82 83//83
f 49//49 83//83 84//84
f 49//49 84//84 85//85
f 49//49 85//85 86//86
f 49//49 86//86 87//87
f 49//49 87//87 88//88
f 49//49 88//88 89//89
f 49//49 89//89 90//90
f 49//49 90//90 91//91
f 49//49 91//91 92//92
f 49//49 92//92 93//93
f 49//49 93//93 94//94
f 49//49 94//94 95//95
f 49//49 95//95 96//96
