mtllib vehicle.mtl
o lidar_shell
usemtl shell
v 0.00000000 0.01600000 -0.02500000
v -0.00208842 0.01586312 -0.02500000
v -0.00414110 0.01545481 -0.02500000
v -0.00612294 0.01478207 -0.02500000
v -0.00800000 0.01385641 -0.02500000
v -0.00974018 0.01269365 -0.02500000
v -0.01131371 0.01131371 -0.02500000
v -0.01269365 0.00974018 -0.02500000
v -0.01385641 0.00800000 -0.02500000
v -0.01478207 0.00612294 -0.02500000
v -0.01545481 0.00414110 -0.02500000
v -0.01586312 0.00208842 -0.02500000
v -0.01600000 0.00000000 -0.02500000
v -0.01586312 -0.00208842 -0.02500000
v -0.01545481 -0.00414110 -0.02500000
v -0.01478207 -0.00612294 -0.02500000
v -0.01385641 -0.00800000 -0.02500000
v -0.01269365 -0.00974018 -0.02500000
v -0.01131371 -0.01131371 -0.02500000
v -0.00974018 -0.01269365 -0.02500000
v -0.00800000 -0.01385641 -0.02500000
v -0.00612294 -0.01478207 -0.02500000
v -0.00414110 -0.01545481 -0.02500000
v -0.00208842 -0.01586312 -0.02500000
v -0.00000000 -0.01600000 -0.02500000
v 0.00208842 -0.01586312 -0.02500000
v 0.00414110 -0.01545481 -0.02500000
v 0.00612294 -0.01478207 -0.02500000
v 0.00800000 -0.01385641 -0.02500000
v 0.00974018 -0.01269365 -0.02500000
v 0.01131371 -0.01131371 -0.02500000
v 0.01269365 -0.00974018 -0.02500000
v 0.01385641 -0.00800000 -0.02500000
v 0.01478207 -0.00612294 -0.02500000
v 0.01545481 -0.00414110 -0.02500000
v 0.01586312 -0.00208842 -0.02500000
v 0.01600000 -0.00000000 -0.02500000
v 0.01586312 0.00208842 -0.02500000
v 0.01545481 0.00414110 -0.02500000
v 0.01478207 0.00612294 -0.02500000
v 0.01385641 0.00800000 -0.02500000
v 0.01269365 0.00974018 -0.02500000
v 0.01131371 0.01131371 -0.02500000
v 0.00974018 0.01269365 -0.02500000
v 0.00800000 0.01385641 -0.02500000
v 0.00612294 0.01478207 -0.02500000
v 0.00414110 0.01545481 -0.02500000
v 0.00208842 0.01586312 -0.02500000
v 0.00000000 0.01600000 -0.01000000
v -0.00208842 0.01586312 -0.01000000
v -0.00414110 0.01545481 -0.01000000
v -0.00612294 0.01478207 -0.01000000
v -0.00800000 0.01385641 -0.01000000
v -0.00974018 0.01269365 -0.01000000
v -0.01131371 0.01131371 -0.01000000
v -0.01269365 0.00974018 -0.01000000
v -0.01385641 0.00800000 -0.01000000
v -0.01478207 0.00612294 -0.01000000
v -0.01545481 0.00414110 -0.01000000
v -0.01586312 0.00208842 -0.01000000
v -0.01600000 0.00000000 -0.01000000
v -0.01586312 -0.00208842 -0.01000000
v -0.01545481 -0.00414110 -0.01000000
v -0.01478207 -0.00612294 -0.01000000
v -0.01385641 -0.00800000 -0.01000000
v -0.01269365 -0.00974018 -0.01000000
v -0.01131371 -0.01131371 -0.01000000
v -0.00974018 -0.01269365 -0.01000000
v -0.00800000 -0.01385641 -0.01000000
v -0.00612294 -0.01478207 -0.01000000
v -0.00414110 -0.01545481 -0.01000000
v -0.00208842 -0.01586312 -0.01000000
v -0.00000000 -0.01600000 -0.01000000
v 0.00208842 -0.01586312 -0.01000000
v 0.00414110 -0.01545481 -0.01000000
v 0.00612294 -0.01478207 -0.01000000
v 0.00800000 -0.01385641 -0.01000000
v 0.00974018 -0.01269365 -0.01000000
v 0.01131371 -0.01131371 -0.01000000
v 0.01269365 -0.00974018 -0.01000000
v 0.01385641 -0.00800000 -0.01000000
v 0.01478207 -0.00612294 -0.01000000
v 0.01545481 -0.00414110 -0.01000000
v 0.01586312 -0.00208842 -0.01000000
v 0.01600000 -0.00000000 -0.01000000
v 0.01586312 0.00208842 -0.01000000
v 0.01545481 0.00414110 -0.01000000
v 0.01478207 0.00612294 -0.01000000
v 0.01385641 0.00800000 -0.01000000
v 0.01269365 0.00974018 -0.01000000
v 0.01131371 0.01131371 -0.01000000
v 0.00974018 0.01269365 -0.01000000
v 0.00800000 0.01385641 -0.01000000
v 0.00612294 0.01478207 -0.01000000
v 0.00414110 0.01545481 -0.01000000
v 0.00208842 0.01586312 -0.01000000
v 0.00000000 0.01230000 -0.01100000
v -0.00160547 0.01219477 -0.01100000
v -0.00318347 0.01188089 -0.01100000
v -0.00470701 0.01136372 -0.01100000
v -0.00615000 0.01065211 -0.01100000
v -0.00748777 0.00975825 -0.01100000
v -0.00869741 0.00869741 -0.01100000
v -0.00975825 0.00748777 -0.01100000
v -0.01065211 0.00615000 -0.01100000
v -0.01136372 0.00470701 -0.01100000
v -0.01188089 0.00318347 -0.01100000
v -0.01219477 0.00160547 -0.01100000
v -0.01230000 0.00000000 -0.01100000
v -0.01219477 -0.00160547 -0.01100000
v -0.01188089 -0.00318347 -0.01100000
v -0.01136372 -0.00470701 -0.01100000
v -0.01065211 -0.00615000 -0.01100000
v -0.00975825 -0.00748777 -0.01100000
v -0.00869741 -0.00869741 -0.01100000
v -0.00748777 -0.00975825 -0.01100000
v -0.00615000 -0.01065211 -0.01100000
v -0.00470701 -0.01136372 -0.01100000
v -0.00318347 -0.01188089 -0.01100000
v -0.00160547 -0.01219477 -0.01100000
v -0.00000000 -0.01230000 -0.01100000
v 0.00160547 -0.01219477 -0.01100000
v 0.00318347 -0.01188089 -0.01100000
v 0.00470701 -0.01136372 -0.01100000
v 0.00615000 -0.01065211 -0.01100000
v 0.00748777 -0.00975825 -0.01100000
v 0.00869741 -0.00869741 -0.01100000
v 0.00975825 -0.00748777 -0.01100000
v 0.01065211 -0.00615000 -0.01100000
v 0.01136372 -0.00470701 -0.01100000
v 0.01188089 -0.00318347 -0.01100000
v 0.01219477 -0.00160547 -0.01100000
v 0.01230000 -0.00000000 -0.01100000
v 0.01219477 0.00160547 -0.01100000
v 0.01188089 0.00318347 -0.01100000
v 0.01136372 0.00470701 -0.01100000
v 0.01065211 0.00615000 -0.01100000
v 0.00975825 0.00748777 -0.01100000
v 0.00869741 0.00869741 -0.01100000
v 0.00748777 0.00975825 -0.01100000
v 0.00615000 0.01065211 -0.01100000
v 0.00470701 0.01136372 -0.01100000
v 0.00318347 0.01188089 -0.01100000
v 0.00160547 0.01219477 -0.01100000
v 0.00000000 0.01230000 0.00400000
v -0.00160547 0.01219477 0.00400000
v -0.00318347 0.01188089 0.00400000
v -0.00470701 0.01136372 0.00400000
v -0.00615000 0.01065211 0.00400000
v -0.00748777 0.00975825 0.00400000
v -0.00869741 0.00869741 0.00400000
v -0.00975825 0.00748777 0.00400000
v -0.01065211 0.00615000 0.00400000
v -0.01136372 0.00470701 0.00400000
v -0.01188089 0.00318347 0.00400000
v -0.01219477 0.00160547 0.00400000
v -0.01230000 0.00000000 0.00400000
v -0.01219477 -0.00160547 0.00400000
v -0.01188089 -0.00318347 0.00400000
v -0.01136372 -0.00470701 0.00400000
v -0.01065211 -0.00615000 0.00400000
v -0.00975825 -0.00748777 0.00400000
v -0.00869741 -0.00869741 0.00400000
v -0.00748777 -0.00975825 0.00400000
v -0.00615000 -0.01065211 0.00400000
v -0.00470701 -0.01136372 0.00400000
v -0.00318347 -0.01188089 0.00400000
v -0.00160547 -0.01219477 0.00400000
v -0.00000000 -0.01230000 0.00400000
v 0.00160547 -0.01219477 0.00400000
v 0.00318347 -0.01188089 0.00400000
v 0.00470701 -0.01136372 0.00400000
v 0.00615000 -0.01065211 0.00400000
v 0.00748777 -0.00975825 0.00400000
v 0.00869741 -0.00869741 0.00400000
v 0.00975825 -0.00748777 0.00400000
v 0.01065211 -0.00615000 0.00400000
v 0.01136372 -0.00470701 0.00400000
v 0.01188089 -0.00318347 0.00400000
v 0.01219477 -0.00160547 0.00400000
v 0.01230000 -0.00000000 0.00400000
v 0.01219477 0.00160547 0.00400000
v 0.01188089 0.00318347 0.00400000
v 0.01136372 0.00470701 0.00400000
v 0.01065211 0.00615000 0.00400000
v 0.00975825 0.00748777 0.00400000
v 0.00869741 0.00869741 0.00400000
v 0.00748777 0.00975825 0.00400000
v 0.00615000 0.01065211 0.00400000
v 0.00470701 0.01136372 0.00400000
v 0.00318347 0.01188089 0.00400000
v 0.00160547 0.01219477 0.00400000
vn -0.00127795 0.05849339 -0.99828696
vn -0.15214832 0.98833895 -0.00608212
vn -0.27977347 0.95976055 -0.02421761
vn -0.40218359 0.91396290 -0.05403809
vn -0.51645952 0.85104579 -0.09481893
vn -0.61929750 0.77158469 -0.14535344
vn -0.70721352 0.67697221 -0.20385721
vn -0.77696544 0.56966156 -0.26797473
vn -0.82609946 0.45318395 -0.33493868
vn -0.85344332 0.33185855 -0.40187618
vn -0.85934418 0.21025516 -0.46617627
vn -0.84555542 0.09257977 -0.52579939
vn -0.81482625 -0.01780216 -0.57943189
vn -0.77037054 -0.11859351 -0.62647009
vn -0.71538836 -0.20853816 -0.66688174
vn -0.65273732 -0.28723294 -0.70102149
vn -0.58477378 -0.35487160 -0.72945583
vn -0.51332265 -0.41200849 -0.75282729
vn -0.43972376 -0.45936683 -0.77176750
vn -0.36491245 -0.49770671 -0.78684610
vn -0.28950873 -0.52773935 -0.79854608
vn -0.21389589 -0.55007780 -0.80725640
vn -0.13828973 -0.56521076 -0.81327283
vn -0.06279150 -0.57349128 -0.81680167
vn 0.01256535 -0.57513136 -0.81796455
vn 0.08777881 -0.57020164 -0.81680167
vn 0.16284305 -0.55863172 -0.81327283
vn 0.23771647 -0.54021108 -0.80725640
vn 0.31228134 -0.51459163 -0.79854614
vn 0.38630155 -0.48129430 -0.78684610
vn 0.45936683 -0.43972376 -0.77176750
vn 0.53082722 -0.38919601 -0.75282729
vn 0.59971476 -0.32899320 -0.72945583
vn 0.66465938 -0.25845057 -0.70102155
vn 0.72381359 -0.17709497 -0.66688174
vn 0.77481502 -0.08483441 -0.62647009
vn 0.81482625 0.01780216 -0.57943189
vn 0.84070516 0.12942107 -0.52579939
vn 0.84934139 0.24758592 -0.46617627
vn 0.83813506 0.36881602 -0.40187615
vn 0.80551857 0.48883116 -0.33493868
vn 0.75134414 0.60305184 -0.26797470
vn 0.67697221 0.70721352 -0.20385721
vn 0.58500773 0.79789621 -0.14535344
vn 0.47879755 0.87278992 -0.09481892
vn 0.36188251 0.93065619 -0.05403810
vn 0.23758949 0.97106373 -0.02421761
vn 0.10883744 0.99404097 -0.00608212
vn 0.00127795 0.05849339 0.99828696
vn -0.10883744 0.99404097 0.00608212
vn -0.23758949 0.97106373 0.02421761
vn -0.36188251 0.93065619 0.05403810
vn -0.47879755 0.87278992 0.09481892
vn -0.58500773 0.79789621 0.14535344
vn -0.67697221 0.70721352 0.20385721
vn -0.75134414 0.60305184 0.26797470
vn -0.80551857 0.48883116 0.33493868
vn -0.83813506 0.36881602 0.40187615
vn -0.84934139 0.24758592 0.46617627
vn -0.84070516 0.12942107 0.52579939
vn -0.81482625 0.01780216 0.57943189
vn -0.77481502 -0.08483441 0.62647009
vn -0.72381359 -0.17709497 0.66688174
vn -0.66465938 -0.25845057 0.70102155
vn -0.59971476 -0.32899320 0.72945583
vn -0.53082722 -0.38919601 0.75282729
vn -0.45936683 -0.43972376 0.77176750
vn -0.38630155 -0.48129430 0.78684610
vn -0.31228134 -0.51459163 0.79854614
vn -0.23771647 -0.54021108 0.80725640
vn -0.16284305 -0.55863172 0.81327283
vn -0.08777881 -0.57020164 0.81680167
vn -0.01256535 -0.57513136 0.81796455
vn 0.06279150 -0.57349128 0.81680167
vn 0.13828973 -0.56521076 0.81327283
vn 0.21389589 -0.55007780 0.80725640
vn 0.28950873 -0.52773935 0.79854608
vn 0.36491245 -0.49770671 0.78684610
vn 0.43972376 -0.45936683 0.77176750
vn 0.51332265 -0.41200849 0.75282729
vn 0.58477378 -0.35487160 0.72945583
vn 0.65273732 -0.28723294 0.70102149
vn 0.71538836 -0.20853816 0.66688174
vn 0.77037054 -0.11859351 0.62647009
vn 0.81482625 -0.01780216 0.57943189
vn 0.84555542 0.09257977 0.52579939
vn 0.85934418 0.21025516 0.46617627
vn 0.85344332 0.33185855 0.40187618
vn 0.82609946 0.45318395 0.33493868
vn 0.77696544 0.56966156 0.26797473
vn 0.70721352 0.67697221 0.20385721
vn 0.61929750 0.77158469 0.14535344
vn 0.51645952 0.85104579 0.09481893
vn 0.40218359 0.91396290 0.05403809
vn 0.27977347 0.95976055 0.02421761
vn 0.15214832 0.98833895 0.00608212
vn -0.00166040 0.07599898 -0.99710649
vn -0.15214914 0.98834646 -0.00467567
vn -0.27980703 0.95987564 -0.01861956
vn -0.40242395 0.91450924 -0.04156666
vn -0.51741189 0.85261488 -0.07302653
vn -0.62199062 0.77494061 -0.11222639
vn -0.71330202 0.68280005 -0.15806450
vn -0.78863370 0.57821643 -0.20909941
vn -0.84573084 0.46395350 -0.26360294
vn -0.88311034 0.34339452 -0.31968158
vn -0.90028822 0.22027273 -0.37544772
vn -0.89784223 0.09830429 -0.42920357
vn -0.87728685 -0.01916665 -0.47958356
vn -0.84080726 -0.12943649 -0.52563238
vn -0.79093379 -0.23055990 -0.56680316
vn -0.73024219 -0.32133842 -0.60289967
vn -0.66112810 -0.40120754 -0.63398910
vn -0.58567578 -0.47008100 -0.66030878
vn -0.50560468 -0.52819103 -0.68218631
vn -0.42227691 -0.57594663 -0.69997698
vn -0.33673474 -0.61382651 -0.71402150
vn -0.24975599 -0.64229941 -0.72461951
vn -0.16191494 -0.66177100 -0.73201269
vn -0.07363733 -0.67255163 -0.73637754
vn 0.01474357 -0.67483592 -0.73782057
vn 0.10294080 -0.66869372 -0.73637754
vn 0.19066305 -0.65406799 -0.73201275
vn 0.27757004 -0.63077849 -0.72461945
vn 0.36322215 -0.59853405 -0.71402144
vn 0.44702822 -0.55695426 -0.69997698
vn 0.52819103 -0.50560468 -0.68218631
vn 0.60564762 -0.44405329 -0.66030878
vn 0.67801982 -0.37195009 -0.63398910
vn 0.74357975 -0.28913853 -0.60289967
vn 0.80024874 -0.19579618 -0.56680316
vn 0.84565812 -0.09259067 -0.52563238
vn 0.87728685 0.01916665 -0.47958356
vn 0.89269203 0.13742378 -0.42920351
vn 0.88980889 0.25938231 -0.37544775
vn 0.86726999 0.38163665 -0.31968158
vn 0.82466078 0.50044787 -0.26360291
vn 0.76262784 0.61210805 -0.20909943
vn 0.68280005 0.71330202 -0.15806450
vn 0.58755189 0.80136639 -0.11222639
vn 0.47968039 0.87439913 -0.07302653
vn 0.36209887 0.93121248 -0.04156667
vn 0.23761784 0.97118026 -0.01861956
vn 0.10883787 0.99404860 -0.00467567
vn 0.00166040 0.07599898 0.99710649
vn -0.10883787 0.99404860 0.00467567
vn -0.23761784 0.97118026 0.01861956
vn -0.36209887 0.93121248 0.04156667
vn -0.47968039 0.87439913 0.07302653
vn -0.58755189 0.80136639 0.11222639
vn -0.68280005 0.71330202 0.15806450
vn -0.76262784 0.61210805 0.20909943
vn -0.82466078 0.50044787 0.26360291
vn -0.86726999 0.38163665 0.31968158
vn -0.88980889 0.25938231 0.37544775
vn -0.89269203 0.13742378 0.42920351
vn -0.87728685 0.01916665 0.47958356
vn -0.84565812 -0.09259067 0.52563238
vn -0.80024874 -0.19579618 0.56680316
vn -0.74357975 -0.28913853 0.60289967
vn -0.67801982 -0.37195009 0.63398910
vn -0.60564762 -0.44405329 0.66030878
vn -0.52819103 -0.50560468 0.68218631
vn -0.44702822 -0.55695426 0.69997698
vn -0.36322215 -0.59853405 0.71402144
vn -0.27757004 -0.63077849 0.72461945
vn -0.19066305 -0.65406799 0.73201275
vn -0.10294080 -0.66869372 0.73637754
vn -0.01474357 -0.67483592 0.73782057
vn 0.07363733 -0.67255163 0.73637754
vn 0.16191494 -0.66177100 0.73201269
vn 0.24975599 -0.64229941 0.72461951
vn 0.33673474 -0.61382651 0.71402150
vn 0.42227691 -0.57594663 0.69997698
vn 0.50560468 -0.52819103 0.68218631
vn 0.58567578 -0.47008100 0.66030878
vn 0.66112810 -0.40120754 0.63398910
vn 0.73024219 -0.32133842 0.60289967
vn 0.79093379 -0.23055990 0.56680316
vn 0.84080726 -0.12943649 0.52563238
vn 0.87728685 -0.01916665 0.47958356
vn 0.89784223 0.09830429 0.42920357
vn 0.90028822 0.22027273 0.37544772
vn 0.88311034 0.34339452 0.31968158
vn 0.84573084 0.46395350 0.26360294
vn 0.78863370 0.57821643 0.20909941
vn 0.71330202 0.68280005 0.15806450
vn 0.62199062 0.77494061 0.11222639
vn 0.51741189 0.85261488 0.07302653
vn 0.40242395 0.91450924 0.04156666
vn 0.27980703 0.95987564 0.01861956
vn 0.15214914 0.98834646 0.00467567
f 1//1 2//2 50//50
f 1//1 50//50 49//49
f 2//2 3//3 51//51
f 2//2 51//51 50//50
f 3//3 4//4 52//52
f 3//3 52//52 51//51
f 4//4 5//5 53//53
f 4//4 53//53 52//52
f 5//5 6//6 54//54
f 5//5 54//54 53//53
f 6//6 7//7 55//55
f 6//6 55//55 54//54
f 7//7 8//8 56//56
f 7//7 56//56 55//55
f 8//8 9//9 57//57
f 8//8 57//57 56//56
f 9//9 10//10 58//58
f 9//9 58//58 57//57
f 10//10 11//11 59//59
f 10//10 59//59 58//58
f 11//11 12//12 60//60
f 11//11 60//60 59//59
f 12//12 13//13 61//61
f 12//12 61//61 60//60
f 13//13 14//14 62//62
f 13//13 62//62 61//61
f 14//14 15//15 63//63
f 14//14 63//63 62//62
f 15//15 16//16 64//64
f 15//15 64//64 63//63
f 16//16 17//17 65//65
f 16//16 65//65 64//64
f 17//17 18//18 66//66
f 17//17 66//66 65//65
f 18//18 19//19 67//67
f 18//18 67//67 66//66
f 19//19 20//20 68//68
f 19//19 68//68 67//67
f 20//20 21//21 69//69
f 20//20 69//69 68//68
f 21//21 22//22 70//70
f 21//21 70//70 69//69
f 22//22 23//23 71//71
f 22//22 71//71 70//70
f 23//23 24//24 72//72
f 23//23 72//72 71//71
f 24//24 25//25 73//73
f 24//24 73//73 72//72
f 25//25 26//26 74//74
f 25//25 74//74 73//73
f 26//26 27//27 75//75
f 26//26 75//75 74//74
f 27//27 28//28 76//76
f 27//27 76//76 75//75
f 28//28 29//29 77//77
f 28//28 77//77 76//76
f 29//29 30//30 78//78
f 29//29 78//78 77//77
f 30//30 31//31 79//79
f 30//30 79//79 78//78
f 31//31 32//32 80//80
f 31//31 80//80 79//79
f 32//32 33//33 81//81
f 32//32 81//81 80//80
f 33//33 34//34 82//82
f 33//33 82//82 81//81
f 34//34 35//35 83//83
f 34//34 83//83 82//82
f 35//35 36//36 84//84
f 35//35 84//84 83//83
f 36//36 37//37 85//85
f 36//36 85//85 84//84
f 37//37 38//38 86//86
f 37//37 86//86 85//85
f 38//38 39//39 87//87
f 38//38 87//87 86//86
f 39//39 40//40 88//88
f 39//39 88//88 87//87
f 40//40 41//41 89//89
f 40//40 89//89 88//88
f 41//41 42//42 90//90
f 41//41 90//90 89//89
f 42//42 43//43 91//91
f 42//42 91//91 90//90
f 43//43 44//44 92//92
f 43//43 92//92 91//91
f 44//44 45//45 93//93
f 44//44 93//93 92//92
f 45//45 46//46 94//94
f 45//45 94//94 93//93
f 46//46 47//47 95//95
f 46//46 95//95 94//94
f 47//47 48//48 96//96
f 47//47 96//96 95//95
f 48//48 1//1 49//49
f 48//48 49//49 96//96
f 1//1 3//3 2//2
f 1//1 4//4 3//3
f 1//1 5//5 4//4
f 1//1 6//6 5//5
f 1//1 7//7 6//6
f 1//1 8//8 7//7
f 1//1 9//9 8//8
f 1//1 10//10 9//9
f 1//1 11//11 10//10
f 1//1 12//12 11//11
f 1//1 13//13 12//12
f 1//1 14//14 13//13
f 1//1 15//15 14//14
f 1//1 16//16 15//15
f 1//1 17//17 16//16
f 1//1 18//18 17//17
f 1//1 19//19 18//18
f 1//1 20//20 19//19
f 1//1 21//21 20//20
f 1//1 22//22 21//21
f 1//1 23//23 22//22
f 1//1 24//24 23//23
f 1//1 25//25 24//24
f 1//1 26//26 25//25
f 1//1 27//27 26//26
f 1//1 28//28 27//27
f 1//1 29//29 28//28
f 1//1 30//30 29//29
f 1//1 31//31 30//30
f 1//1 32//32 31//31
f 1//1 33//33 32//32
f 1//1 34//34 33//33
f 1//1 35//35 34//34
f 1//1 36//36 35//35
f 1//1 37//37 36//36
f 1//1 38//38 37//37
f 1//1 39//39 38//38
f 1//1 40//40 39//39
f 1//1 41//41 40//40
f 1//1 42//42 41//41
f 1//1 43//43 42//42
f 1//1 44//44 43//43
f 1//1 45//45 44//44
f 1//1 46//46 45//45
f 1//1 47//47 46//46
f 1//1 48//48 47//47
f 49//49 50//50 51//51
f 49//49 51//51 52//52
f 49//49 52//52 53//53
f 49//49 53//53 54//54
f 49//49 54//54 55//55
f 49//49 55//55 56//56
f 49//49 56//56 57//57
f 49//49 57//57 58//58
f 49//49 58//58 59//59
f 49//49 59//59 60//60
f 49//49 60//60 61//61
f 49//49 61//61 62//62
f 49//49 62//62 63//63
f 49//49 63//63 64//64
f 49//49 64//64 65//65
f 49//49 65//65 66//66
f 49//49 66//66 67//67
f 49//49 67//67 68//68
f 49//49 68//68 69//69
f 49//49 69//69 70//70
f 49//49 70//70 71//71
f 49//49 71//71 72//72
f 49//49 72//72 73//73
f 49//49 73//73 74//74
f 49//49 74//74 75//75
f 49//49 75//75 76//76
f 49//49 76//76 77//77
f 49//49 77//77 78//78
f 49//49 78//78 79//79
f 49//49 79//79 80//80
f 49//49 80//80 81//81
f 49//49 81//81 82//82
f 49//49 82//82 83//83
f 49//49 83//83 84//84
f 49//49 84//84 85//85
f 49//49 85//85 86//86
f 49//49 86//86 87//87
f 49//49 87//87 88//88
f 49//49 88//88 89//89
f 49//49 89//89 90//90
f 49//49 90//90 91//91
f 49//49 91//91 92//92
f 49//49 92//92 93//93
f 49//49 93//93 94//94
f 49//49 94//94 95//95
f 49//49 95//95 96//96
f 97//97 98//98 146//146
f 97//97 146//146 145//145
f 98//98 99//99 147//147
f 98//98 147//147 146//146
f 99//99 100//100 148//148
f 99//99 148//148 147//147
f 100//100 101//101 149//149
f 100//100 149//149 148//148
f 101//101 102//102 150//150
f 101//101 150//150 149//149
f 102//102 103//103 151//151
f 102//102 151//151 150//150
f 103//103 104//104 152//152
f 103//103 152//152 151//151
f 104//104 105//105 153//153
f 104//104 153//153 152//152
f 105//105 106//106 154//154
f 105//105 154//154 153//153
f 106//106 107//107 155//155
f 106//106 155//155 154//154
f 107//107 108//108 156//156
f 107//107 156//156 155//155
f 108//108 109//109 157//157
f 108//108 157//157 156//156
f 109//109 110//110 158//158
f 109//109 158//158 157//157
f 110//110 111//111 159//159
f 110//110 159//159 158//158
f 111//111 112//112 160//160
f 111//111 160//160 159//159
f 112//112 113//113 161//161
f 112//112 161//161 160//160
f 113//113 114//114 162//162
f 113//113 162//162 161//161
f 114//114 115//115 163//163
f 114//114 163//163 162//162
f 115//115 116//116 164//164
f 115//115 164//164 163//163
f 116//116 117//117 165//165
f 116//116 165//165 164//164
f 117//117 118//118 166//166
f 117//117 166//166 165//165
f 118//118 119//119 167//167
f 118//118 167//167 166//166
f 119//119 120//120 168//168
f 119//119 168//168 167//167
f 120//120 121//121 169//169
f 120//120 169//169 168//168
f 121//121 122//122 170//170
f 121//121 170//170 169//169
f 122//122 123//123 171//171
f 122//122 171//171 170//170
f 123//123 124//124 172//172
f 123//123 172//172 171//171
f 124//124 125//125 173//173
f 124//124 173//173 172//172
f 125//125 126//126 174//174
f 125//125 174//174 173//173
f 126//126 127//127 175//175
f 126//126 175//175 174//174
f 127//127 128//128 176//176
f 127//127 176//176 175//175
f 128//128 129//129 177//177
f 128//128 177//177 176//176
f 129//129 130//130 178//178
f 129//129 178//178 177//177
f 130//130 131//131 179//179
f 130//130 179//179 178//178
f 131//131 132//132 180//180
f 131//131 180//180 179//179
f 132//132 133//133 181//181
f 132//132 181//181 180//180
f 133//133 134//134 182//182
f 133//133 182//182 181//181
f 134//134 135//135 183//183
f 134//134 183//183 182//182
f 135//135 136//136 184//184
f 135//135 184//184 183//183
f 136//136 137//137 185//185
f 136//136 185//185 184//184
f 137//137 138//138 186//186
f 137//137 186//186 185//185
f 138//138 139//139 187//187
f 138//138 187//187 186//186
f 139//139 140//140 188//188
f 139//139 188//188 187//187
f 140//140 141//141 189//189
f 140//140 189//189 188//188
f 141//141 142//142 190//190
f 141//141 190//190 189//189
f 142//142 143//143 191//191
f 142//142 191//191 190//190
f 143//143 144//144 192//192
f 143//143 192//192 191//191
f 144//144 97//97 145//145
f 144//144 145//145 192//192
f 97//97 99//99 98//98
f 97//97 100//100 99//99
f 97//97 101//101 100//100
f 97//97 102//102 101//101
f 97//97 103//103 102//102
f 97//97 104//104 103//103
f 97//97 105//105 104//104
f 97//97 106//106 105//105
f 97//97 107//107 106//106
f 97//97 108//108 107//107
f 97//97 109//109 108//108
f 97//97 110//110 109//109
f 97//97 111//111 110//110
f 97//97 112//112 111//111
f 97//97 113//113 112//112
f 97//97 114//114 113//113
f 97//97 115//115 114//114
f 97//97 116//116 115//115
f 97//97 117//117 116//116
f 97//97 118//118 117//117
f 97//97 119//119 118//118
f 97//97 120//120 119//119
f 97//97 121//121 120//120
f 97//97 122//122 121//121
f 97//97 123//123 122//122
f 97//97 124//124 123//123
f 97//97 125//125 124//124
f 97//97 126//126 125//125
f 97//97 127//127 126//126
f 97//97 128//128 127//127
f 97//97 129//129 128//128
f 97//97 130//130 129//129
f 97//97 131//131 130//130
f 97//97 132//132 131//131
f 97//97 133//133 132//132
f 97//97 134//134 133//133
f 97//97 135//135 134//134
f 97//97 136//136 135//135
f 97//97 137//137 136//136
f 97//97 138//138 137//137
f 97//97 139//139 138//138
f 97//97 140//140 139//139
f 97//97 141//141 140//140
f 97//97 142//142 141//141
f 97//97 143//143 142//142
f 97//97 144//144 143//143
f 145//145 146//146 147//147
f 145//145 147//147 148//148
f 145//145 148//148 149//149
f 145//145 149//149 150//150
f 145//145 150//150 151//151
f 145//145 151//151 152//152
f 145//145 152//152 153//153
f 145//145 153//153 154//154
f 145//145 154//154 155//155
f 145//145 155//155 156//156
f 145//145 156//156 157//157
f 145//145 157//157 158//158
f 145//145 158//158 159//159
f 145//145 159//159 160//160
f 145//145 160//160 161//161
f 145//145 161//161 162//162
f 145//145 162//162 163//163
f 145//145 163//163 164//164
f 145//145 164//164 165//165
f 145//145 165//165 166//166
f 145//145 166//166 167//167
f 145//145 167//167 168//168
f 145//145 168//168 169//169
f 145//145 169//169 170//170
f 145//145 170//170 171//171
f 145//145 171//171 172//172
f 145//145 172//172 173//173
f 145//145 173//173 174//174
f 145//145 174//174 175//175
f 145//145 175//175 176//176
f 145//145 176//176 177//177
f 145//145 177//177 178//178
f 145//145 178//178 179//179
f 145//145 179//179 180//180
f 145//145 180//180 181//181
f 145//145 181//181 182//182
f 145//145 182//182 183//183
f 145//145 183//183 184//184
f 145//145 184//184 185//185
f 145//145 185//185 186//186
f 145//145 186//186 187//187
f 145//145 187//187 188//188
f 145//145 188//188 189//189
f 145//145 189//189 190//190
f 145//145 190//190 191//191
f 145//145 191//191 192//192
