mtllib vehicle.mtl
o lidar_plate
usemtl plate
v -0.01700000 -0.01650000 -0.02500000
v 0.01300000 -0.01650000 -0.02500000
v 0.01300000 -0.01150000 -0.02500000
v -0.01700000 -0.01150000 -0.02500000
v -0.01700000 -0.01650000 -0.02300000
v 0.01300000 -0.01650000 -0.02300000
v 0.01300000 -0.01150000 -0.02300000
v -0.01700000 -0.01150000 -0.02300000
v -0.01700000 0.01150000 -0.02500000
v 0.01300000 0.01150000 -0.02500000
v 0.01300000 0.01650000 -0.02500000
v -0.01700000 0.01650000 -0.02500000
v -0.01700000 0.01150000 -0.02300000
v 0.01300000 0.01150000 -0.02300000
v 0.01300000 0.01650000 -0.02300000
v -0.01700000 0.01650000 -0.02300000
vn -0.05198753 -0.62385041 -0.77981287
vn 0.06523281 -0.19569845 -0.97849208
vn 0.05198753 0.62385041 -0.77981287
vn -0.06523281 0.19569845 -0.97849208
vn -0.12285904 -0.36857712 0.92144269
vn 0.03093441 -0.37121299 0.92803228
vn 0.12285904 0.36857712 0.92144269
vn -0.03093441 0.37121299 0.92803228
vn -0.05198753 -0.62385041 -0.77981287
vn 0.06523281 -0.19569845 -0.97849208
vn 0.05198753 0.62385041 -0.77981287
vn -0.06523281 0.19569845 -0.97849208
vn -0.12285904 -0.36857712 0.92144269
vn 0.03093441 -0.37121299 0.92803228
vn 0.12285904 0.36857712 0.92144269
vn -0.03093441 0.37121299 0.92803228
f 2//2 1//1 4//4
f 4//4 3//3 2//2
f 8//8 5//5 6//6
f 6//6 7//7 8//8
f 1//1 2//2 6//6
f 1//1 6//6 5//5
f 2//2 3//3 7//7
f 2//2 7//7 6//6
f 3//3 4//4 8//8
f 3//3 8//8 7//7
f 4//4 1//1 5//5
f 4//4 5//5 8//8
f 10//10 9//9 12//12
f 12//12 11//11 10//10
f 16//16 13//13 14//14
f 14//14 15//15 16//16
f 9//9 10//10 14//14
f 9//9 14//14 13//13
f 10//10 11//11 15//15
f 10//10 15//15 14//14
f 11//11 12//12 16//16
f 11//11 16//16 15//15
f 12//12 9//9 13//13
f 12//12 13//13 16//16
