mtllib vehicle.mtl
o lidar_silver
usemtl silver
v 0.00700000 -0.01300000 -0.02300000
v 0.00629289 -0.01329289 -0.02300000
v 0.00600000 -0.01400000 -0.02300000
v 0.00629289 -0.01470711 -0.02300000
v 0.00700000 -0.01500000 -0.02300000
v 0.00770711 -0.01470711 -0.02300000
v 0.00800000 -0.01400000 -0.02300000
v 0.00770711 -0.01329289 -0.02300000
v 0.00700000 -0.01300000 -0.02200000
v 0.00629289 -0.01329289 -0.02200000
v 0.00600000 -0.01400000 -0.02200000
v 0.00629289 -0.01470711 -0.02200000
v 0.00700000 -0.01500000 -0.02200000
v 0.00770711 -0.01470711 -0.02200000
v 0.00800000 -0.01400000 -0.02200000
v 0.00770711 -0.01329289 -0.02200000
v 0.00700000 0.01500000 -0.02300000
v 0.00629289 0.01470711 -0.02300000
v 0.00600000 0.01400000 -0.02300000
v 0.00629289 0.01329289 -0.02300000
v 0.00700000 0.01300000 -0.02300000
v 0.00770711 0.01329289 -0.02300000
v 0.00800000 0.01400000 -0.02300000
v 0.00770711 0.01470711 -0.02300000
v 0.00700000 0.01500000 -0.02200000
v 0.00629289 0.01470711 -0.02200000
v 0.00600000 0.01400000 -0.02200000
v 0.00629289 0.01329289 -0.02200000
v 0.00700000 0.01300000 -0.02200000
v 0.00770711 0.01329289 -0.02200000
v 0.00800000 0.01400000 -0.02200000
v 0.00770711 0.01470711 -0.02200000
vn -0.04842305 0.35071161 -0.93523079
vn -0.78266835 0.59276080 -0.18990754
vn -0.82661337 -0.11413138 -0.55107564
vn -0.40063512 -0.52899027 -0.74810487
vn 0.08255973 -0.59795183 -0.79726881
vn 0.52898985 -0.40063575 -0.74810481
vn 0.82661343 0.11413153 -0.55107546
vn 0.59276092 0.78266835 -0.18990743
vn 0.04842305 0.35071155 0.93523079
vn -0.59276080 0.78266841 0.18990760
vn -0.82661349 0.11413135 0.55107552
vn -0.52898985 -0.40063554 0.74810487
vn -0.08255973 -0.59795195 0.79726875
vn 0.40063518 -0.52899021 0.74810481
vn 0.82661337 -0.11413156 0.55107564
vn 0.78266829 0.59276098 0.18990731
vn -0.04842305 0.35071161 -0.93523079
vn -0.78266811 0.59276122 -0.18990739
vn -0.82661349 -0.11413135 -0.55107558
vn -0.40063527 -0.52899009 -0.74810481
vn 0.08255973 -0.59795183 -0.79726881
vn 0.52899015 -0.40063554 -0.74810463
vn 0.82661337 0.11413156 -0.55107564
vn 0.59276062 0.78266853 -0.18990715
vn 0.04842305 0.35071155 0.93523079
vn -0.59276056 0.78266865 0.18990737
vn -0.82661337 0.11413138 0.55107570
vn -0.52899015 -0.40063536 0.74810475
vn -0.08255973 -0.59795195 0.79726875
vn 0.40063533 -0.52899003 0.74810481
vn 0.82661343 -0.11413153 0.55107546
vn 0.78266805 0.59276146 0.18990713
f 1//1 2//2 10//10
f 1//1 10//10 9//9
f 2//2 3//3 11//11
f 2//2 11//11 10//10
f 3//3 4//4 12//12
f 3//3 12//12 11//11
f 4//4 5//5 13//13
f 4//4 13//13 12//12
f 5//5 6//6 14//14
f 5//5 14//14 13//13
f 6//6 7//7 15//15
f 6//6 15//15 14//14
f 7//7 8//8 16//16
f 7//7 16//16 15//15
f 8//8 1//1 9//9
f 8//8 9//9 16//16
f 1//1 3//3 2//2
f 1//1 4//4 3//3
f 1//1 5//5 4//4
f 1//1 6//6 5//5
f 1//1 7//7 6//6
f 1//1 8//8 7//7
f 9//9 10//10 11//11
f 9//9 11//11 12//12
f 9//9 12//12 13//13
f 9//9 13//13 14//14
f 9//9 14//14 15//15
f 9//9 15//15 16//16
f 17//17 18//18 26//26
f 17//17 26//26 25//25
f 18//18 19//19 27//27
f 18//18 27//27 26//26
f 19//19 20//20 28//28
f 19//19 28//28 27//27
f 20//20 21//21 29//29
f 20//20 29//29 28//28
f 21//21 22//22 30//30
f 21//21 30//30 29//29
f 22//22 23//23 31//31
f 22//22 31//31 30//30
f 23//23 24//24 32//32
f 23//23 32//32 31//31
f 24//24 17//17 25//25
f 24//24 25//25 32//32
f 17//17 19//19 18//18
f 17//17 20//20 19//19
f 17//17 21//21 20//20
f 17//17 22//22 21//21
f 17//17 23//23 22//22
f 17//17 24//24 23//23
f 25//25 26//26 27//27
f 25//25 27//27 28//28
f 25//25 28//28 29//29
f 25//25 29//29 30//30
f 25//25 30//30 31//31
f 25//25 31//31 32//32
