mtllib vehicle.mtl
o wheel_left_silver
usemtl silver
v 0.00270000 0.01050000 0.00000000
v 0.00249447 0.01050000 -0.00103325
v 0.00190919 0.01050000 -0.00190919
v 0.00103325 0.01050000 -0.00249447
v 0.00000000 0.01050000 -0.00270000
v -0.00103325 0.01050000 -0.00249447
v -0.00190919 0.01050000 -0.00190919
v -0.00249447 0.01050000 -0.00103325
v -0.00270000 0.01050000 -0.00000000
v -0.00249447 0.01050000 0.00103325
v -0.00190919 0.01050000 0.00190919
v -0.00103325 0.01050000 0.00249447
v -0.00000000 0.01050000 0.00270000
v 0.00103325 0.01050000 0.00249447
v 0.00190919 0.01050000 0.00190919
v 0.00249447 0.01050000 0.00103325
v 0.00270000 0.01130000 0.00000000
v 0.00249447 0.01130000 -0.00103325
v 0.00190919 0.01130000 -0.00190919
v 0.00103325 0.01130000 -0.00249447
v 0.00000000 0.01130000 -0.00270000
v -0.00103325 0.01130000 -0.00249447
v -0.00190919 0.01130000 -0.00190919
v -0.00249447 0.01130000 -0.00103325
v -0.00270000 0.01130000 -0.00000000
v -0.00249447 0.01130000 0.00103325
v -0.00190919 0.01130000 0.00190919
v -0.00103325 0.01130000 0.00249447
v -0.00000000 0.01130000 0.00270000
v 0.00103325 0.01130000 0.00249447
v 0.00190919 0.01130000 0.00190919
v 0.00249447 0.01130000 0.00103325
v 0.00415000 0.00950000 0.00000000
v 0.00387500 0.00950000 -0.00047631
v 0.00332500 0.00950000 -0.00047631
v 0.00305000 0.00950000 -0.00000000
v 0.00332500 0.00950000 0.00047631
v 0.00387500 0.00950000 0.00047631
v 0.00415000 0.01060000 0.00000000
v 0.00387500 0.01060000 -0.00047631
v 0.00332500 0.01060000 -0.00047631
v 0.00305000 0.01060000 -0.00000000
v 0.00332500 0.01060000 0.00047631
v 0.00387500 0.01060000 0.00047631
v 0.00166246 0.00950000 0.00342380
v 0.00138746 0.00950000 0.00294749
v 0.00083746 0.00950000 0.00294749
v 0.00056246 0.00950000 0.00342380
v 0.00083746 0.00950000 0.00390012
v 0.00138746 0.00950000 0.00390012
v 0.00166246 0.01060000 0.00342380
v 0.00138746 0.01060000 0.00294749
v 0.00083746 0.01060000 0.00294749
v 0.00056246 0.01060000 0.00342380
v 0.00083746 0.01060000 0.00390012
v 0.00138746 0.01060000 0.00390012
v -0.00236246 0.00950000 0.00211603
v -0.00263746 0.00950000 0.00163971
v -0.00318746 0.00950000 0.00163971
v -0.00346246 0.00950000 0.00211603
v -0.00318746 0.00950000 0.00259234
v -0.00263746 0.00950000 0.00259234
v -0.00236246 0.01060000 0.00211603
v -0.00263746 0.01060000 0.00163971
v -0.00318746 0.01060000 0.00163971
v -0.00346246 0.01060000 0.00211603
v -0.00318746 0.01060000 0.00259234
v -0.00263746 0.01060000 0.00259234
v -0.00236246 0.00950000 -0.00211603
v -0.00263746 0.00950000 -0.00259234
v -0.00318746 0.00950000 -0.00259234
v -0.00346246 0.00950000 -0.00211603
v -0.00318746 0.00950000 -0.00163971
v -0.00263746 0.00950000 -0.00163971
v -0.00236246 0.01060000 -0.00211603
v -0.00263746 0.01060000 -0.00259234
v -0.00318746 0.01060000 -0.00259234
v -0.00346246 0.01060000 -0.00211603
v -0.00318746 0.01060000 -0.00163971
v -0.00263746 0.01060000 -0.00163971
v 0.00166246 0.00950000 -0.00342380
v 0.00138746 0.00950000 -0.00390012
v 0.00083746 0.00950000 -0.00390012
v 0.00056246 0.00950000 -0.00342380
v 0.00083746 0.00950000 -0.00294749
v 0.00138746 0.00950000 -0.00294749
v 0.00166246 0.01060000 -0.00342380
v 0.00138746 0.01060000 -0.00390012
v 0.00083746 0.01060000 -0.00390012
v 0.00056246 0.01060000 -0.00342380
v 0.00083746 0.01060000 -0.00294749
v 0.00138746 0.01060000 -0.00294749
vn 0.05546968 -0.99845362 -0.00367787
vn 0.88372558 -0.16845340 -0.43663758
vn 0.55043608 -0.54942447 -0.62861186
vn 0.18766381 -0.81094050 -0.55421829
vn -0.02691893 -0.91348034 -0.40599149
vn -0.13582486 -0.95183045 -0.27490056
vn -0.18994211 -0.96760505 -0.16632041
vn -0.21364042 -0.97423017 -0.07234076
vn -0.21690813 -0.97608602 0.01438192
vn -0.20221925 -0.97423029 0.09991396
vn -0.16632041 -0.96760505 0.18994211
vn -0.09834137 -0.95183045 0.29042673
vn 0.02691893 -0.91348034 0.40599149
vn 0.25919318 -0.81094050 0.52458984
vn 0.62861186 -0.54942447 0.55043608
vn 0.93363786 -0.16845341 0.31613904
vn 0.05546968 0.99845362 0.00367787
vn 0.93363786 0.16845341 -0.31613904
vn 0.62861186 0.54942447 -0.55043608
vn 0.25919318 0.81094050 -0.52458984
vn 0.02691893 0.91348034 -0.40599149
vn -0.09834137 0.95183045 -0.29042673
vn -0.16632041 0.96760505 -0.18994211
vn -0.20221925 0.97423029 -0.09991396
vn -0.21690813 0.97608602 -0.01438192
vn -0.21364042 0.97423017 0.07234076
vn -0.18994211 0.96760505 0.16632041
vn -0.13582486 0.95183045 0.27490056
vn -0.02691893 0.91348034 0.40599149
vn 0.18766381 0.81094050 0.55421829
vn 0.55043608 0.54942447 0.62861186
vn 0.88372558 0.16845340 0.43663758
vn 0.70064908 -0.70064908 -0.13483998
vn 0.32302913 -0.16151457 -0.93250483
vn -0.58764255 -0.44073188 -0.67855114
vn -0.82158387 -0.54772258 0.15811388
vn -0.29382128 -0.44073188 0.84818894
vn 0.64605826 -0.16151457 0.74600387
vn 0.70064908 0.70064908 0.13483998
vn 0.64605826 0.16151457 -0.74600387
vn -0.29382128 0.44073188 -0.84818894
vn -0.82158387 0.54772258 -0.15811388
vn -0.58764255 0.44073188 0.67855114
vn 0.32302913 0.16151457 0.93250483
vn 0.70064908 -0.70064902 -0.13483997
vn 0.32302919 -0.16151457 -0.93250483
vn -0.58764249 -0.44073188 -0.67855120
vn -0.82158381 -0.54772252 0.15811390
vn -0.29382128 -0.44073188 0.84818894
vn 0.64605832 -0.16151457 0.74600381
vn 0.70064908 0.70064902 0.13483997
vn 0.64605832 0.16151457 -0.74600381
vn -0.29382128 0.44073188 -0.84818894
vn -0.82158381 0.54772252 -0.15811390
vn -0.58764249 0.44073188 0.67855120
vn 0.32302919 0.16151457 0.93250483
vn 0.70064896 -0.70064908 -0.13483998
vn 0.32302907 -0.16151455 -0.93250483
vn -0.58764243 -0.44073185 -0.67855120
vn -0.82158387 -0.54772258 0.15811388
vn -0.29382131 -0.44073191 0.84818894
vn 0.64605832 -0.16151457 0.74600381
vn 0.70064908 0.70064908 0.13483998
vn 0.64605820 0.16151457 -0.74600393
vn -0.29382122 0.44073185 -0.84818900
vn -0.82158387 0.54772264 -0.15811391
vn -0.58764255 0.44073188 0.67855108
vn 0.32302919 0.16151457 0.93250483
vn 0.70064908 -0.70064908 -0.13483998
vn 0.32302919 -0.16151457 -0.93250483
vn -0.58764255 -0.44073188 -0.67855108
vn -0.82158387 -0.54772264 0.15811391
vn -0.29382122 -0.44073185 0.84818900
vn 0.64605820 -0.16151457 0.74600393
vn 0.70064902 0.70064908 0.13483998
vn 0.64605832 0.16151457 -0.74600381
vn -0.29382131 0.44073191 -0.84818894
vn -0.82158387 0.54772258 -0.15811388
vn -0.58764243 0.44073185 0.67855120
vn 0.32302907 0.16151455 0.93250483
vn 0.70064908 -0.70064902 -0.13483997
vn 0.32302919 -0.16151457 -0.93250483
vn -0.58764249 -0.44073188 -0.67855120
vn -0.82158381 -0.54772252 0.15811390
vn -0.29382128 -0.44073188 0.84818894
vn 0.64605832 -0.16151457 0.74600381
vn 0.70064908 0.70064902 0.13483997
vn 0.64605832 0.16151457 -0.74600381
vn -0.29382128 0.44073188 -0.84818894
vn -0.82158381 0.54772252 -0.15811390
vn -0.58764249 0.44073188 0.67855120
vn 0.32302919 0.16151457 0.93250483
f 1//1 2//2 18//18
f 1//1 18//18 17//17
f 2//2 3//3 19//19
f 2//2 19//19 18//18
f 3//3 4//4 20//20
f 3//3 20//20 19//19
f 4//4 5//5 21//21
f 4//4 21//21 20//20
f 5//5 6//6 22//22
f 5//5 22//22 21//21
f 6//6 7//7 23//23
f 6//6 23//23 22//22
f 7//7 8//8 24//24
f 7//7 24//24 23//23
f 8//8 9//9 25//25
f 8//8 25//25 24//24
f 9//9 10//10 26//26
f 9//9 26//26 25//25
f 10//10 11//11 27//27
f 10//10 27//27 26//26
f 11//11 12//12 28//28
f 11//11 28//28 27//27
f 12//12 13//13 29//29
f 12//12 29//29 28//28
f 13//13 14//14 30//30
f 13//13 30//30 29//29
f 14//14 15//15 31//31
f 14//14 31//31 30//30
f 15//15 16//16 32//32
f 15//15 32//32 31//31
f 16//16 1//1 17//17
f 16//16 17//17 32//32
f 1//1 3//3 2//2
f 1//1 4//4 3//3
f 1//1 5//5 4//4
f 1//1 6//6 5//5
f 1//1 7//7 6//6
f 1//1 8//8 7//7
f 1//1 9//9 8//8
f 1//1 10//10 9//9
f 1//1 11//11 10//10
f 1//1 12//12 11//11
f 1//1 13//13 12//12
f 1//1 14//14 13//13
f 1//1 15//15 14//14
f 1//1 16//16 15//15
f 17//17 18//18 19//19
f 17//17 19//19 20//20
f 17//17 20//20 21//21
f 17//17 21//21 22//22
f 17//17 22//22 23//23
f 17//17 23//23 24//24
f 17//17 24//24 25//25
f 17//17 25//25 26//26
f 17//17 26//26 27//27
f 17//17 27//27 28//28
f 17//17 28//28 29//29
f 17//17 29//29 30//30
f 17//17 30//30 31//31
f 17//17 31//31 32//32
f 33//33 34//34 40//40
f 33//33 40//40 39//39
f 34//34 35//35 41//41
f 34//34 41//41 40//40
f 35//35 36//36 42//42
f 35//35 42//42 41//41
f 36//36 37//37 43//43
f 36//36 43//43 42//42
f 37//37 38//38 44//44
f 37//37 44//44 43//43
f 38//38 33//33 39//39
f 38//38 39//39 44//44
f 33//33 35//35 34//34
f 33//33 36//36 35//35
f 33//33 37//37 36//36
f 33//33 38//38 37//37
f 39//39 40//40 41//41
f 39//39 41//41 42//42
f 39//39 42//42 43//43
f 39//39 43//43 44//44
f 45//45 46//46 52//52
f 45//45 52//52 51//51
f 46//46 47//47 53//53
f 46//46 53//53 52//52
f 47//47 48//48 54//54
f 47//47 54//54 53//53
f 48//48 49//49 55//55
f 48//48 55//55 54//54
f 49//49 50//50 56//56
f 49//49 56//56 55//55
f 50//50 45//45 51//51
f 50//50 51//51 56//56
f 45//45 47//47 46//46
f 45//45 48//48 47//47
f 45//45 49//49 48//48
f 45//45 50//50 49//49
f 51//51 52//52 53//53
f 51//51 53//53 54//54
f 51//51 54//54 55//55
f 51//51 55//55 56//56
f 57//57 58//58 64//64
f 57//57 64//64 63//63
f 58//58 59//59 65//65
f 58//58 65//65 64//64
f 59//59 60//60 66//66
f 59//59 66//66 65//65
f 60//60 61//61 67//67
f 60//60 67//67 66//66
f 61//61 62//62 68//68
f 61//61 68//68 67//67
f 62//62 57//57 63//63
f 62//62 63//63 68//68
f 57//57 59//59 58//58
f 57//57 60//60 59//59
f 57//57 61//61 60//60
f 57//57 62//62 61//61
f 63//63 64//64 65//65
f 63//63 65//65 66//66
f 63//63 66//66 67//67
f 63//63 67//67 68//68
f 69//69 70//70 76//76
f 69//69 76//76 75//75
f 70//70 71//71 77//77
f 70//70 77//77 76//76
f 71//71 72//72 78//78
f 71//71 78//78 77//77
f 72//72 73//73 79//79
f 72//72 79//79 78//78
f 73//73 74//74 80//80
f 73//73 80//80 79//79
f 74//74 69//69 75//75
f 74//74 75//75 80//80
f 69//69 71//71 70//70
f 69//69 72//72 71//71
f 69//69 73//73 72//72
f 69//69 74//74 73//73
f 75//75 76//76 77//77
f 75//75 77//77 78//78
f 75//75 78//78 79//79
f 75//75 79//79 80//80
f 81//81 82//82 88//88
f 81//81 88//88 87//87
f 82//82 83//83 89//89
f 82//82 89//89 88//88
f 83//83 84//84 90//90
f 83//83 90//90 89//89
f 84//84 85//85 91//91
f 84//84 91//91 90//90
f 85//85 86//86 92//92
f 85//85 92//92 91//91
f 86//86 81//81 87//87
f 86//86 87//87 92//92
f 81//81 83//83 82//82
f 81//81 84//84 83//83
f 81//81 85//85 84//84
f 81//81 86//86 85//85
f 87//87 88//88 89//89
f 87//87 89//89 90//90
f 87//87 90//90 91//91
f 87//87 91//91 92//92
