mtllib vehicle.mtl
o wheel_left_teal
usemtl teal
v 0.01880000 0.00880000 0.00000000
v 0.01863916 0.00880000 0.00245389
v 0.01815941 0.00880000 0.00486580
v 0.01736894 0.00880000 0.00719445
v 0.01628128 0.00880000 0.00940000
v 0.01491504 0.00880000 0.01144471
v 0.01329361 0.00880000 0.01329361
v 0.01144471 0.00880000 0.01491504
v 0.00940000 0.00880000 0.01628128
v 0.00719445 0.00880000 0.01736894
v 0.00486580 0.00880000 0.01815941
v 0.00245389 0.00880000 0.01863916
v 0.00000000 0.00880000 0.01880000
v -0.00245389 0.00880000 0.01863916
v -0.00486580 0.00880000 0.01815941
v -0.00719445 0.00880000 0.01736894
v -0.00940000 0.00880000 0.01628128
v -0.01144471 0.00880000 0.01491504
v -0.01329361 0.00880000 0.01329361
v -0.01491504 0.00880000 0.01144471
v -0.01628128 0.00880000 0.00940000
v -0.01736894 0.00880000 0.00719445
v -0.01815941 0.00880000 0.00486580
v -0.01863916 0.00880000 0.00245389
v -0.01880000 0.00880000 0.00000000
v -0.01863916 0.00880000 -0.00245389
v -0.01815941 0.00880000 -0.00486580
v -0.01736894 0.00880000 -0.00719445
v -0.01628128 0.00880000 -0.00940000
v -0.01491504 0.00880000 -0.01144471
v -0.01329361 0.00880000 -0.01329361
v -0.01144471 0.00880000 -0.01491504
v -0.00940000 0.00880000 -0.01628128
v -0.00719445 0.00880000 -0.01736894
v -0.00486580 0.00880000 -0.01815941
v -0.00245389 0.00880000 -0.01863916
v -0.00000000 0.00880000 -0.01880000
v 0.00245389 0.00880000 -0.01863916
v 0.00486580 0.00880000 -0.01815941
v 0.00719445 0.00880000 -0.01736894
v 0.00940000 0.00880000 -0.01628128
v 0.01144471 0.00880000 -0.01491504
v 0.01329361 0.00880000 -0.01329361
v 0.01491504 0.00880000 -0.01144471
v 0.01628128 0.00880000 -0.00940000
v 0.01736894 0.00880000 -0.00719445
v 0.01815941 0.00880000 -0.00486580
v 0.01863916 0.00880000 -0.00245389
v 0.02140000 0.00880000 0.00000000
v 0.02121692 0.00880000 0.00279326
v 0.02067081 0.00880000 0.00553873
v 0.01977102 0.00880000 0.00818943
v 0.01853294 0.00880000 0.01070000
v 0.01697776 0.00880000 0.01302749
v 0.01513209 0.00880000 0.01513209
v 0.01302749 0.00880000 0.01697776
v 0.01070000 0.00880000 0.01853294
v 0.00818943 0.00880000 0.01977102
v 0.00553873 0.00880000 0.02067081
v 0.00279326 0.00880000 0.02121692
v 0.00000000 0.00880000 0.02140000
v -0.00279326 0.00880000 0.02121692
v -0.00553873 0.00880000 0.02067081
v -0.00818943 0.00880000 0.01977102
v -0.01070000 0.00880000 0.01853294
v -0.01302749 0.00880000 0.01697776
v -0.01513209 0.00880000 0.01513209
v -0.01697776 0.00880000 0.01302749
v -0.01853294 0.00880000 0.01070000
v -0.01977102 0.00880000 0.00818943
v -0.02067081 0.00880000 0.00553873
v -0.02121692 0.00880000 0.00279326
v -0.02140000 0.00880000 0.00000000
v -0.02121692 0.00880000 -0.00279326
v -0.02067081 0.00880000 -0.00553873
v -0.01977102 0.00880000 -0.00818943
v -0.01853294 0.00880000 -0.01070000
v -0.01697776 0.00880000 -0.01302749
v -0.01513209 0.00880000 -0.01513209
v -0.01302749 0.00880000 -0.01697776
v -0.01070000 0.00880000 -0.01853294
v -0.00818943 0.00880000 -0.01977102
v -0.00553873 0.00880000 -0.02067081
v -0.00279326 0.00880000 -0.02121692
v -0.00000000 0.00880000 -0.02140000
v 0.00279326 0.00880000 -0.02121692
v 0.00553873 0.00880000 -0.02067081
v 0.00818943 0.00880000 -0.01977102
v 0.01070000 0.00880000 -0.01853294
v 0.01302749 0.00880000 -0.01697776
v 0.01513209 0.00880000 -0.01513209
v 0.01697776 0.00880000 -0.01302749
v 0.01853294 0.00880000 -0.01070000
v 0.01977102 0.00880000 -0.00818943
v 0.02067081 0.00880000 -0.00553873
v 0.02121692 0.00880000 -0.00279326
v 0.02140000 0.01020000 0.00000000
v 0.02121692 0.01020000 0.00279326
v 0.02067081 0.01020000 0.00553873
v 0.01977102 0.01020000 0.00818943
v 0.01853294 0.01020000 0.01070000
v 0.01697776 0.01020000 0.01302749
v 0.01513209 0.01020000 0.01513209
v 0.01302749 0.01020000 0.01697776
v 0.01070000 0.01020000 0.01853294
v 0.00818943 0.01020000 0.01977102
v 0.00553873 0.01020000 0.02067081
v 0.00279326 0.01020000 0.02121692
v 0.00000000 0.01020000 0.02140000
v -0.00279326 0.01020000 0.02121692
v -0.00553873 0.01020000 0.02067081
v -0.00818943 0.01020000 0.01977102
v -0.01070000 0.01020000 0.01853294
v -0.01302749 0.01020000 0.01697776
v -0.01513209 0.01020000 0.01513209
v -0.01697776 0.01020000 0.01302749
v -0.01853294 0.01020000 0.01070000
v -0.01977102 0.01020000 0.00818943
v -0.02067081 0.01020000 0.00553873
v -0.02121692 0.01020000 0.00279326
v -0.02140000 0.01020000 0.00000000
v -0.02121692 0.01020000 -0.00279326
v -0.02067081 0.01020000 -0.00553873
v -0.01977102 0.01020000 -0.00818943
v -0.01853294 0.01020000 -0.01070000
v -0.01697776 0.01020000 -0.01302749
v -0.01513209 0.01020000 -0.01513209
v -0.01302749 0.01020000 -0.01697776
v -0.01070000 0.01020000 -0.01853294
v -0.00818943 0.01020000 -0.01977102
v -0.00553873 0.01020000 -0.02067081
v -0.00279326 0.01020000 -0.02121692
v -0.00000000 0.01020000 -0.02140000
v 0.00279326 0.01020000 -0.02121692
v 0.00553873 0.01020000 -0.02067081
v 0.00818943 0.01020000 -0.01977102
v 0.01070000 0.01020000 -0.01853294
v 0.01302749 0.01020000 -0.01697776
v 0.01513209 0.01020000 -0.01513209
v 0.01697776 0.01020000 -0.01302749
v 0.01853294 0.01020000 -0.01070000
v 0.01977102 0.01020000 -0.00818943
v 0.02067081 0.01020000 -0.00553873
v 0.02121692 0.01020000 -0.00279326
v 0.01880000 0.01020000 0.00000000
v 0.01863916 0.01020000 0.00245389
v 0.01815941 0.01020000 0.00486580
v 0.01736894 0.01020000 0.00719445
v 0.01628128 0.01020000 0.00940000
v 0.01491504 0.01020000 0.01144471
v 0.01329361 0.01020000 0.01329361
v 0.01144471 0.01020000 0.01491504
v 0.00940000 0.01020000 0.01628128
v 0.00719445 0.01020000 0.01736894
v 0.00486580 0.01020000 0.01815941
v 0.00245389 0.01020000 0.01863916
v 0.00000000 0.01020000 0.01880000
v -0.00245389 0.01020000 0.01863916
v -0.00486580 0.01020000 0.01815941
v -0.00719445 0.01020000 0.01736894
v -0.00940000 0.01020000 0.01628128
v -0.01144471 0.01020000 0.01491504
v -0.01329361 0.01020000 0.01329361
v -0.01491504 0.01020000 0.01144471
v -0.01628128 0.01020000 0.00940000
v -0.01736894 0.01020000 0.00719445
v -0.01815941 0.01020000 0.00486580
v -0.01863916 0.01020000 0.00245389
v -0.01880000 0.01020000 0.00000000
v -0.01863916 0.01020000 -0.00245389
v -0.01815941 0.01020000 -0.00486580
v -0.01736894 0.01020000 -0.00719445
v -0.01628128 0.01020000 -0.00940000
v -0.01491504 0.01020000 -0.01144471
v -0.01329361 0.01020000 -0.01329361
v -0.01144471 0.01020000 -0.01491504
v -0.00940000 0.01020000 -0.01628128
v -0.00719445 0.01020000 -0.01736894
v -0.00486580 0.01020000 -0.01815941
v -0.00245389 0.01020000 -0.01863916
v -0.00000000 0.01020000 -0.01880000
v 0.00245389 0.01020000 -0.01863916
v 0.00486580 0.01020000 -0.01815941
v 0.00719445 0.01020000 -0.01736894
v 0.00940000 0.01020000 -0.01628128
v 0.01144471 0.01020000 -0.01491504
v 0.01329361 0.01020000 -0.01329361
v 0.01491504 0.01020000 -0.01144471
v 0.01628128 0.01020000 -0.00940000
v 0.01736894 0.01020000 -0.00719445
v 0.01815941 0.01020000 -0.00486580
v 0.01863916 0.01020000 -0.00245389
v 0.00432891 0.01010000 -0.00078773
v 0.01199460 0.01010000 -0.00035995
v 0.01983124 0.01010000 0.00259268
v 0.01927542 0.01010000 0.00533463
v 0.01090718 0.01010000 0.00142598
v 0.00432891 0.01010000 0.00078773
v 0.00432891 0.00890000 -0.00078773
v 0.01199460 0.00890000 -0.00035995
v 0.01983124 0.00890000 0.00259268
v 0.01927542 0.00890000 0.00533463
v 0.01090718 0.00890000 0.00142598
v 0.00432891 0.00890000 0.00078773
v 0.00396518 0.01010000 0.00190718
v 0.00991541 0.01010000 0.00675905
v 0.01451987 0.01010000 0.01375403
v 0.01245852 0.01010000 0.01564561
v 0.00798593 0.01010000 0.00756472
v 0.00303915 0.01010000 0.00318176
v 0.00396518 0.00890000 0.00190718
v 0.00991541 0.00890000 0.00675905
v 0.01451987 0.00890000 0.01375403
v 0.01245852 0.00890000 0.01564561
v 0.00798593 0.00890000 0.00756472
v 0.00303915 0.00890000 0.00318176
v 0.00208688 0.01010000 0.00387362
v 0.00404886 0.01010000 0.01129631
v 0.00366240 0.01010000 0.01966181
v 0.00088290 0.01010000 0.01998050
v 0.00201432 0.01010000 0.01081400
v 0.00058853 0.01010000 0.00436046
v 0.00208688 0.00890000 0.00387362
v 0.00404886 0.00890000 0.01129631
v 0.00366240 0.00890000 0.01966181
v 0.00088290 0.00890000 0.01998050
v 0.00201432 0.00890000 0.01081400
v 0.00058853 0.00890000 0.00436046
v -0.00058853 0.01010000 0.00436046
v -0.00336421 0.01010000 0.01151877
v -0.00859398 0.01010000 0.01805945
v -0.01102997 0.01010000 0.01668352
v -0.00472669 0.01010000 0.00993269
v -0.00208688 0.01010000 0.00387362
v -0.00058853 0.00890000 0.00436046
v -0.00336421 0.00890000 0.01151877
v -0.00859398 0.00890000 0.01805945
v -0.01102997 0.00890000 0.01668352
v -0.00472669 0.00890000 0.00993269
v -0.00208688 0.00890000 0.00387362
v -0.00303915 0.01010000 0.00318176
v -0.00949227 0.01010000 0.00734145
v -0.01756775 0.01010000 0.00955899
v -0.01872976 0.01010000 0.00701400
v -0.00966226 0.01010000 0.00525744
v -0.00396518 0.01010000 0.00190718
v -0.00303915 0.00890000 0.00318176
v -0.00949227 0.00890000 0.00734145
v -0.01756775 0.00890000 0.00955899
v -0.01872976 0.00890000 0.00701400
v -0.00966226 0.00890000 0.00525744
v -0.00396518 0.00890000 0.00190718
v -0.00432891 0.01010000 0.00078773
v -0.01199460 0.01010000 0.00035995
v -0.01983124 0.01010000 -0.00259268
v -0.01927542 0.01010000 -0.00533463
v -0.01090718 0.01010000 -0.00142598
v -0.00432891 0.01010000 -0.00078773
v -0.00432891 0.00890000 0.00078773
v -0.01199460 0.00890000 0.00035995
v -0.01983124 0.00890000 -0.00259268
v -0.01927542 0.00890000 -0.00533463
v -0.01090718 0.00890000 -0.00142598
v -0.00432891 0.00890000 -0.00078773
v -0.00396518 0.01010000 -0.00190718
v -0.00991541 0.01010000 -0.00675905
v -0.01451987 0.01010000 -0.01375403
v -0.01245852 0.01010000 -0.01564561
v -0.00798593 0.01010000 -0.00756472
v -0.00303915 0.01010000 -0.00318176
v -0.00396518 0.00890000 -0.00190718
v -0.00991541 0.00890000 -0.00675905
v -0.01451987 0.00890000 -0.01375403
v -0.01245852 0.00890000 -0.01564561
v -0.00798593 0.00890000 -0.00756472
v -0.00303915 0.00890000 -0.00318176
v -0.00208688 0.01010000 -0.00387362
v -0.00404886 0.01010000 -0.01129631
v -0.00366240 0.01010000 -0.01966181
v -0.00088290 0.01010000 -0.01998050
v -0.00201432 0.01010000 -0.01081400
v -0.00058853 0.01010000 -0.00436046
v -0.00208688 0.00890000 -0.00387362
v -0.00404886 0.00890000 -0.01129631
v -0.00366240 0.00890000 -0.01966181
v -0.00088290 0.00890000 -0.01998050
v -0.00201432 0.00890000 -0.01081400
v -0.00058853 0.00890000 -0.00436046
v 0.00058853 0.01010000 -0.00436046
v 0.00336421 0.01010000 -0.01151877
v 0.00859398 0.01010000 -0.01805945
v 0.01102997 0.01010000 -0.01668352
v 0.00472669 0.01010000 -0.00993269
v 0.00208688 0.01010000 -0.00387362
v 0.00058853 0.00890000 -0.00436046
v 0.00336421 0.00890000 -0.01151877
v 0.00859398 0.00890000 -0.01805945
v 0.01102997 0.00890000 -0.01668352
v 0.00472669 0.00890000 -0.00993269
v 0.00208688 0.00890000 -0.00387362
v 0.00303915 0.01010000 -0.00318176
v 0.00949227 0.01010000 -0.00734145
v 0.01756775 0.01010000 -0.00955899
v 0.01872976 0.01010000 -0.00701400
v 0.00966226 0.01010000 -0.00525744
v 0.00396518 0.01010000 -0.00190718
v 0.00303915 0.00890000 -0.00318176
v 0.00949227 0.00890000 -0.00734145
v 0.01756775 0.00890000 -0.00955899
v 0.01872976 0.00890000 -0.00701400
v 0.00966226 0.00890000 -0.00525744
v 0.00396518 0.00890000 -0.00190718
v 0.00500000 0.00750000 0.00000000
v 0.00482963 0.00750000 -0.00129410
v 0.00433013 0.00750000 -0.00250000
v 0.00353553 0.00750000 -0.00353553
v 0.00250000 0.00750000 -0.00433013
v 0.00129410 0.00750000 -0.00482963
v 0.00000000 0.00750000 -0.00500000
v -0.00129410 0.00750000 -0.00482963
v -0.00250000 0.00750000 -0.00433013
v -0.00353553 0.00750000 -0.00353553
v -0.00433013 0.00750000 -0.00250000
v -0.00482963 0.00750000 -0.00129410
v -0.00500000 0.00750000 -0.00000000
v -0.00482963 0.00750000 0.00129410
v -0.00433013 0.00750000 0.00250000
v -0.00353553 0.00750000 0.00353553
v -0.00250000 0.00750000 0.00433013
v -0.00129410 0.00750000 0.00482963
v -0.00000000 0.00750000 0.00500000
v 0.00129410 0.00750000 0.00482963
v 0.00250000 0.00750000 0.00433013
v 0.00353553 0.00750000 0.00353553
v 0.00433013 0.00750000 0.00250000
v 0.00482963 0.00750000 0.00129410
v 0.00500000 0.01050000 0.00000000
v 0.00482963 0.01050000 -0.00129410
v 0.00433013 0.01050000 -0.00250000
v 0.00353553 0.01050000 -0.00353553
v 0.00250000 0.01050000 -0.00433013
v 0.00129410 0.01050000 -0.00482963
v 0.00000000 0.01050000 -0.00500000
v -0.00129410 0.01050000 -0.00482963
v -0.00250000 0.01050000 -0.00433013
v -0.00353553 0.01050000 -0.00353553
v -0.00433013 0.01050000 -0.00250000
v -0.00482963 0.01050000 -0.00129410
v -0.00500000 0.01050000 -0.00000000
v -0.00482963 0.01050000 0.00129410
v -0.00433013 0.01050000 0.00250000
v -0.00353553 0.01050000 0.00353553
v -0.00250000 0.01050000 0.00433013
v -0.00129410 0.01050000 0.00482963
v -0.00000000 0.01050000 0.00500000
v 0.00129410 0.01050000 0.00482963
v 0.00250000 0.01050000 0.00433013
v 0.00353553 0.01050000 0.00353553
v 0.00433013 0.01050000 0.00250000
v 0.00482963 0.01050000 0.00129410
vn -0.45763946 -0.88908166 0.00999837
vn -0.45502952 -0.88908154 -0.04982095
vn -0.44463363 -0.88908154 -0.10878814
vn -0.42662987 -0.88908166 -0.16589381
vn -0.40132666 -0.88908154 -0.22016093
vn -0.36915651 -0.88908166 -0.27066097
vn -0.33066991 -0.88908166 -0.31653002
vn -0.28652561 -0.88908166 -0.35698321
vn -0.23747861 -0.88908166 -0.39132819
vn -0.18436851 -0.88908166 -0.41897744
vn -0.12810370 -0.88908154 -0.43945816
vn -0.06964678 -0.88908166 -0.45241934
vn -0.00999837 -0.88908160 -0.45763943
vn 0.04982095 -0.88908154 -0.45502952
vn 0.10878814 -0.88908154 -0.44463363
vn 0.16589381 -0.88908166 -0.42662987
vn 0.22016093 -0.88908154 -0.40132666
vn 0.27066097 -0.88908166 -0.36915651
vn 0.31653002 -0.88908166 -0.33066991
vn 0.35698321 -0.88908166 -0.28652561
vn 0.39132819 -0.88908166 -0.23747861
vn 0.41897741 -0.88908160 -0.18436849
vn 0.43945816 -0.88908154 -0.12810370
vn 0.45241934 -0.88908166 -0.06964678
vn 0.45763946 -0.88908166 -0.00999837
vn 0.45502952 -0.88908154 0.04982095
vn 0.44463363 -0.88908154 0.10878814
vn 0.42662987 -0.88908166 0.16589381
vn 0.40132666 -0.88908154 0.22016093
vn 0.36915651 -0.88908166 0.27066097
vn 0.33066991 -0.88908166 0.31653002
vn 0.28652561 -0.88908166 0.35698321
vn 0.23747861 -0.88908166 0.39132819
vn 0.18436851 -0.88908166 0.41897744
vn 0.12810370 -0.88908154 0.43945816
vn 0.06964678 -0.88908166 0.45241934
vn 0.00999837 -0.88908160 0.45763943
vn -0.04982095 -0.88908154 0.45502952
vn -0.10878814 -0.88908154 0.44463363
vn -0.16589381 -0.88908166 0.42662987
vn -0.22016093 -0.88908154 0.40132666
vn -0.27066097 -0.88908166 0.36915651
vn -0.31653002 -0.88908166 0.33066991
vn -0.35698321 -0.88908166 0.28652561
vn -0.39132819 -0.88908166 0.23747861
vn -0.41897741 -0.88908160 0.18436849
vn -0.43945816 -0.88908154 0.12810370
vn -0.45241934 -0.88908166 0.06964678
vn 0.48936448 -0.87201387 0.01069162
vn 0.48378244 -0.87201369 0.07447501
vn 0.46992284 -0.87201369 0.13698404
vn 0.44802231 -0.87201375 0.19714947
vn 0.41845623 -0.87201387 0.25394142
vn 0.38173044 -0.87201381 0.30638835
vn 0.33847278 -0.87201381 0.35359296
vn 0.28942403 -0.87201381 0.39474761
vn 0.23542325 -0.87201381 0.42914784
vn 0.17739393 -0.87201387 0.45620531
vn 0.11632954 -0.87201375 0.47545704
vn 0.05327496 -0.87201369 0.48657364
vn -0.01069162 -0.87201375 0.48936445
vn -0.07447501 -0.87201375 0.48378247
vn -0.13698404 -0.87201369 0.46992284
vn -0.19714947 -0.87201375 0.44802231
vn -0.25394142 -0.87201387 0.41845623
vn -0.30638835 -0.87201381 0.38173044
vn -0.35359296 -0.87201381 0.33847278
vn -0.39474759 -0.87201375 0.28942403
vn -0.42914784 -0.87201381 0.23542325
vn -0.45620531 -0.87201387 0.17739393
vn -0.47545704 -0.87201375 0.11632954
vn -0.48657364 -0.87201369 0.05327496
vn -0.48936448 -0.87201387 -0.01069162
vn -0.48378244 -0.87201369 -0.07447501
vn -0.46992284 -0.87201369 -0.13698404
vn -0.44802231 -0.87201375 -0.19714947
vn -0.41845623 -0.87201387 -0.25394142
vn -0.38173044 -0.87201381 -0.30638835
vn -0.33847278 -0.87201381 -0.35359296
vn -0.28942403 -0.87201381 -0.39474761
vn -0.23542325 -0.87201381 -0.42914784
vn -0.17739393 -0.87201387 -0.45620531
vn -0.11632954 -0.87201375 -0.47545704
vn -0.05327496 -0.87201369 -0.48657364
vn 0.01069162 -0.87201375 -0.48936445
vn 0.07447501 -0.87201375 -0.48378247
vn 0.13698404 -0.87201369 -0.46992284
vn 0.19714947 -0.87201375 -0.44802231
vn 0.25394142 -0.87201387 -0.41845623
vn 0.30638835 -0.87201381 -0.38173044
vn 0.35359296 -0.87201381 -0.33847278
vn 0.39474759 -0.87201375 -0.28942403
vn 0.42914784 -0.87201381 -0.23542325
vn 0.45620531 -0.87201387 -0.17739393
vn 0.47545704 -0.87201375 -0.11632954
vn 0.48657364 -0.87201369 -0.05327496
vn 0.48936448 0.87201387 -0.01069162
vn 0.48657361 0.87201375 0.05327495
vn 0.47545704 0.87201375 0.11632954
vn 0.45620531 0.87201387 0.17739393
vn 0.42914784 0.87201381 0.23542325
vn 0.39474759 0.87201375 0.28942403
vn 0.35359299 0.87201381 0.33847281
vn 0.30638835 0.87201381 0.38173044
vn 0.25394145 0.87201381 0.41845629
vn 0.19714947 0.87201375 0.44802231
vn 0.13698402 0.87201375 0.46992281
vn 0.07447501 0.87201375 0.48378244
vn 0.01069162 0.87201375 0.48936445
vn -0.05327495 0.87201375 0.48657361
vn -0.11632954 0.87201375 0.47545704
vn -0.17739393 0.87201387 0.45620531
vn -0.23542325 0.87201381 0.42914784
vn -0.28942403 0.87201381 0.39474761
vn -0.33847281 0.87201381 0.35359299
vn -0.38173044 0.87201381 0.30638835
vn -0.41845629 0.87201381 0.25394145
vn -0.44802231 0.87201375 0.19714947
vn -0.46992281 0.87201375 0.13698402
vn -0.48378244 0.87201375 0.07447501
vn -0.48936448 0.87201387 0.01069162
vn -0.48657361 0.87201375 -0.05327495
vn -0.47545704 0.87201375 -0.11632954
vn -0.45620531 0.87201387 -0.17739393
vn -0.42914784 0.87201381 -0.23542325
vn -0.39474759 0.87201375 -0.28942403
vn -0.35359299 0.87201381 -0.33847281
vn -0.30638835 0.87201381 -0.38173044
vn -0.25394145 0.87201381 -0.41845629
vn -0.19714947 0.87201375 -0.44802231
vn -0.13698402 0.87201375 -0.46992281
vn -0.07447501 0.87201375 -0.48378244
vn -0.01069162 0.87201375 -0.48936445
vn 0.05327495 0.87201375 -0.48657361
vn 0.11632954 0.87201375 -0.47545704
vn 0.17739393 0.87201387 -0.45620531
vn 0.23542325 0.87201381 -0.42914784
vn 0.28942403 0.87201381 -0.39474761
vn 0.33847281 0.87201381 -0.35359299
vn 0.38173044 0.87201381 -0.30638835
vn 0.41845629 0.87201381 -0.25394145
vn 0.44802231 0.87201375 -0.19714947
vn 0.46992281 0.87201375 -0.13698402
vn 0.48378244 0.87201375 -0.07447501
vn -0.45763946 0.88908166 -0.00999837
vn -0.45241934 0.88908166 -0.06964678
vn -0.43945816 0.88908154 -0.12810370
vn -0.41897741 0.88908160 -0.18436849
vn -0.39132819 0.88908166 -0.23747861
vn -0.35698321 0.88908154 -0.28652561
vn -0.31653002 0.88908166 -0.33066991
vn -0.27066100 0.88908166 -0.36915654
vn -0.22016090 0.88908160 -0.40132663
vn -0.16589381 0.88908166 -0.42662987
vn -0.10878814 0.88908154 -0.44463363
vn -0.04982095 0.88908154 -0.45502952
vn 0.00999837 0.88908160 -0.45763943
vn 0.06964678 0.88908166 -0.45241934
vn 0.12810370 0.88908154 -0.43945816
vn 0.18436851 0.88908166 -0.41897744
vn 0.23747861 0.88908166 -0.39132819
vn 0.28652561 0.88908154 -0.35698321
vn 0.33066991 0.88908166 -0.31653002
vn 0.36915654 0.88908166 -0.27066100
vn 0.40132663 0.88908160 -0.22016090
vn 0.42662987 0.88908166 -0.16589381
vn 0.44463363 0.88908154 -0.10878814
vn 0.45502952 0.88908154 -0.04982095
vn 0.45763946 0.88908166 0.00999837
vn 0.45241934 0.88908166 0.06964678
vn 0.43945816 0.88908154 0.12810370
vn 0.41897741 0.88908160 0.18436849
vn 0.39132819 0.88908166 0.23747861
vn 0.35698321 0.88908154 0.28652561
vn 0.31653002 0.88908166 0.33066991
vn 0.27066100 0.88908166 0.36915654
vn 0.22016090 0.88908160 0.40132663
vn 0.16589381 0.88908166 0.42662987
vn 0.10878814 0.88908154 0.44463363
vn 0.04982095 0.88908154 0.45502952
vn -0.00999837 0.88908160 0.45763943
vn -0.06964678 0.88908166 0.45241934
vn -0.12810370 0.88908154 0.43945816
vn -0.18436851 0.88908166 0.41897744
vn -0.23747861 0.88908166 0.39132819
vn -0.28652561 0.88908154 0.35698321
vn -0.33066991 0.88908166 0.31653002
vn -0.36915654 0.88908166 0.27066100
vn -0.40132663 0.88908160 0.22016090
vn -0.42662987 0.88908166 0.16589381
vn -0.44463363 0.88908154 0.10878814
vn -0.45502952 0.88908154 0.04982095
vn -0.03922336 0.54834628 -0.83533102
vn 0.10428912 0.91728485 -0.38433349
vn 0.38194773 0.87259334 -0.30446166
vn -0.12814102 0.89048803 0.43659008
vn -0.15060748 0.76578891 0.62520766
vn -0.17383531 0.93739188 0.30179077
vn -0.21042955 -0.77770472 -0.59236372
vn 0.06299862 -0.92148703 -0.38326612
vn 0.33288088 -0.74196696 -0.58195829
vn 0.04309128 -0.96482813 0.25932583
vn -0.23360261 -0.72838181 0.64411932
vn -0.11655428 -0.83505106 0.53768480
vn 0.45926288 0.54834628 -0.69885194
vn 0.31027719 0.91728485 -0.24963269
vn 0.48796040 0.87259322 -0.02181148
vn -0.36028951 0.89048803 0.27788940
vn -0.48933187 0.76578897 0.41727877
vn -0.31802386 0.93739194 0.14197601
vn 0.17794156 -0.77770466 -0.60291970
vn 0.27624515 -0.92148703 -0.27303916
vn 0.61137289 -0.74196690 -0.27515170
vn -0.11756632 -0.96482813 0.23512739
vn -0.56759238 -0.72838193 0.38379532
vn -0.41033757 -0.83505106 0.36648721
vn 0.78232628 0.54834622 -0.29543510
vn 0.39774996 0.91728485 -0.01958073
vn 0.40758875 0.87259316 0.26917005
vn -0.45481962 0.89048803 0.01304442
vn -0.64114815 0.76578891 0.04996357
vn -0.34073812 0.93739188 -0.07206872
vn 0.49834511 -0.77770466 -0.38318086
vn 0.38397542 -0.92148703 -0.05852050
vn 0.65634120 -0.74196684 0.13675354
vn -0.23331754 -0.96482813 0.12111834
vn -0.68478113 -0.72838181 -0.02312545
vn -0.54738581 -0.83505100 0.05530401
vn 0.80656773 0.54834628 0.22082782
vn 0.33329579 0.91728485 0.21795043
vn 0.17153189 0.87259328 0.45733768
vn -0.37562403 0.89048803 -0.25678307
vn -0.54806757 0.76578891 -0.33643600
vn -0.23330200 0.93739188 -0.25858566
vn 0.62839764 -0.77770472 -0.01707995
vn 0.34504011 -0.92148691 0.17835097
vn 0.45060939 -0.74196690 0.49642354
vn -0.25994948 -0.96482813 -0.03915385
vn -0.54040664 -0.72838181 -0.42121309
vn -0.47535136 -0.83505106 -0.27700344
vn 0.52272767 0.54834622 0.65274215
vn 0.14153391 0.91728485 0.37223199
vn -0.13004407 0.87259328 0.47081789
vn -0.15295297 0.89048803 -0.42852822
vn -0.24564390 0.76578885 -0.59432858
vn -0.03675245 0.93739188 -0.34633175
vn 0.51842374 -0.77770472 0.35554492
vn 0.17431124 -0.92148703 0.34709853
vn 0.07276024 -0.74196684 0.66647661
vn -0.18728949 -0.96482807 -0.18447061
vn -0.18961541 -0.72838175 -0.65841180
vn -0.22174880 -0.83505100 -0.50350499
vn 0.03922336 0.54834628 0.83533102
vn -0.10428912 0.91728485 0.38433349
vn -0.38194773 0.87259334 0.30446166
vn 0.12814102 0.89048803 -0.43659008
vn 0.15060748 0.76578891 -0.62520766
vn 0.17383531 0.93739188 -0.30179077
vn 0.21042955 -0.77770472 0.59236372
vn -0.06299862 -0.92148703 0.38326612
vn -0.33288088 -0.74196696 0.58195829
vn -0.04309128 -0.96482813 -0.25932583
vn 0.23360261 -0.72838181 -0.64411932
vn 0.11655428 -0.83505106 -0.53768480
vn -0.45926288 0.54834628 0.69885194
vn -0.31027719 0.91728485 0.24963269
vn -0.48796040 0.87259322 0.02181148
vn 0.36028951 0.89048803 -0.27788940
vn 0.48933187 0.76578897 -0.41727877
vn 0.31802386 0.93739194 -0.14197601
vn -0.17794156 -0.77770466 0.60291970
vn -0.27624515 -0.92148703 0.27303916
vn -0.61137289 -0.74196690 0.27515170
vn 0.11756632 -0.96482813 -0.23512739
vn 0.56759238 -0.72838193 -0.38379532
vn 0.41033757 -0.83505106 -0.36648721
vn -0.78232628 0.54834622 0.29543510
vn -0.39774996 0.91728485 0.01958073
vn -0.40758875 0.87259316 -0.26917005
vn 0.45481962 0.89048803 -0.01304442
vn 0.64114815 0.76578891 -0.04996357
vn 0.34073812 0.93739188 0.07206872
vn -0.49834511 -0.77770466 0.38318086
vn -0.38397542 -0.92148703 0.05852050
vn -0.65634120 -0.74196684 -0.13675354
vn 0.23331754 -0.96482813 -0.12111834
vn 0.68478113 -0.72838181 0.02312545
vn 0.54738581 -0.83505100 -0.05530401
vn -0.80656773 0.54834628 -0.22082782
vn -0.33329579 0.91728485 -0.21795043
vn -0.17153189 0.87259328 -0.45733768
vn 0.37562403 0.89048803 0.25678307
vn 0.54806757 0.76578891 0.33643600
vn 0.23330200 0.93739188 0.25858566
vn -0.62839764 -0.77770472 0.01707995
vn -0.34504011 -0.92148691 -0.17835097
vn -0.45060939 -0.74196690 -0.49642354
vn 0.25994948 -0.96482813 0.03915385
vn 0.54040664 -0.72838181 0.42121309
vn 0.47535136 -0.83505106 0.27700344
vn -0.52272767 0.54834622 -0.65274215
vn -0.14153391 0.91728485 -0.37223199
vn 0.13004407 0.87259328 -0.47081789
vn 0.15295297 0.89048803 0.42852822
vn 0.24564390 0.76578885 0.59432858
vn 0.03675245 0.93739188 0.34633175
vn -0.51842374 -0.77770472 -0.35554492
vn -0.17431124 -0.92148703 -0.34709853
vn -0.07276024 -0.74196684 -0.66647661
vn 0.18728949 -0.96482807 0.18447061
vn 0.18961541 -0.72838175 0.65841180
vn 0.22174880 -0.83505100 0.50350499
vn 0.07478954 -0.99719399 -0.00328207
vn 0.95296842 -0.03779681 -0.30070326
vn 0.83409828 -0.14709982 -0.53164065
vn 0.64232969 -0.30919272 -0.70129335
vn 0.40355977 -0.48528600 -0.77565271
vn 0.16697274 -0.63534522 -0.75396061
vn -0.02934427 -0.74297404 -0.66867667
vn -0.17512523 -0.81321073 -0.55499500
vn -0.27673069 -0.85727447 -0.43416652
vn -0.34416884 -0.88440764 -0.31523168
vn -0.38568100 -0.90054661 -0.20066369
vn -0.40673009 -0.90909690 -0.09007479
vn -0.41029814 -0.91177368 0.01800556
vn -0.39727601 -0.90909690 0.12535797
vn -0.36662030 -0.90054661 0.23367780
vn -0.31523168 -0.88440764 0.34416884
vn -0.23763402 -0.85727447 0.45673898
vn -0.12583457 -0.81321073 0.56820238
vn 0.02934427 -0.74297404 0.66867667
vn 0.23237760 -0.63534516 0.73643541
vn 0.46995524 -0.48528597 0.73731923
vn 0.70129335 -0.30919272 0.64232969
vn 0.87746328 -0.14709982 0.45653018
vn 0.97564656 -0.03779681 0.21606749
vn 0.07478954 0.99719399 0.00328207
vn 0.97564656 0.03779681 -0.21606749
vn 0.87746328 0.14709982 -0.45653018
vn 0.70129335 0.30919272 -0.64232969
vn 0.46995524 0.48528597 -0.73731923
vn 0.23237760 0.63534516 -0.73643541
vn 0.02934427 0.74297404 -0.66867667
vn -0.12583457 0.81321073 -0.56820238
vn -0.23763402 0.85727447 -0.45673898
vn -0.31523168 0.88440764 -0.34416884
vn -0.36662030 0.90054661 -0.23367780
vn -0.39727601 0.90909690 -0.12535797
vn -0.41029814 0.91177368 -0.01800556
vn -0.40673009 0.90909690 0.09007479
vn -0.38568100 0.90054661 0.20066369
vn -0.34416884 0.88440764 0.31523168
vn -0.27673069 0.85727447 0.43416652
vn -0.17512523 0.81321073 0.55499500
vn -0.02934427 0.74297404 0.66867667
vn 0.16697274 0.63534522 0.75396061
vn 0.40355977 0.48528600 0.77565271
vn 0.64232969 0.30919272 0.70129335
vn 0.83409828 0.14709982 0.53164065
vn 0.95296842 0.03779681 0.30070326
f 50//50 2//2 1//1
f 49//49 50//50 1//1
f 51//51 3//3 2//2
f 50//50 51//51 2//2
f 52//52 4//4 3//3
f 51//51 52//52 3//3
f 53//53 5//5 4//4
f 52//52 53//53 4//4
f 54//54 6//6 5//5
f 53//53 54//54 5//5
f 55//55 7//7 6//6
f 54//54 55//55 6//6
f 56//56 8//8 7//7
f 55//55 56//56 7//7
f 57//57 9//9 8//8
f 56//56 57//57 8//8
f 58//58 10//10 9//9
f 57//57 58//58 9//9
f 59//59 11//11 10//10
f 58//58 59//59 10//10
f 60//60 12//12 11//11
f 59//59 60//60 11//11
f 61//61 13//13 12//12
f 60//60 61//61 12//12
f 62//62 14//14 13//13
f 61//61 62//62 13//13
f 63//63 15//15 14//14
f 62//62 63//63 14//14
f 64//64 16//16 15//15
f 63//63 64//64 15//15
f 65//65 17//17 16//16
f 64//64 65//65 16//16
f 66//66 18//18 17//17
f 65//65 66//66 17//17
f 67//67 19//19 18//18
f 66//66 67//67 18//18
f 68//68 20//20 19//19
f 67//67 68//68 19//19
f 69//69 21//21 20//20
f 68//68 69//69 20//20
f 70//70 22//22 21//21
f 69//69 70//70 21//21
f 71//71 23//23 22//22
f 70//70 71//71 22//22
f 72//72 24//24 23//23
f 71//71 72//72 23//23
f 73//73 25//25 24//24
f 72//72 73//73 24//24
f 74//74 26//26 25//25
f 73//73 74//74 25//25
f 75//75 27//27 26//26
f 74//74 75//75 26//26
f 76//76 28//28 27//27
f 75//75 76//76 27//27
f 77//77 29//29 28//28
f 76//76 77//77 28//28
f 78//78 30//30 29//29
f 77//77 78//78 29//29
f 79//79 31//31 30//30
f 78//78 79//79 30//30
f 80//80 32//32 31//31
f 79//79 80//80 31//31
f 81//81 33//33 32//32
f 80//80 81//81 32//32
f 82//82 34//34 33//33
f 81//81 82//82 33//33
f 83//83 35//35 34//34
f 82//82 83//83 34//34
f 84//84 36//36 35//35
f 83//83 84//84 35//35
f 85//85 37//37 36//36
f 84//84 85//85 36//36
f 86//86 38//38 37//37
f 85//85 86//86 37//37
f 87//87 39//39 38//38
f 86//86 87//87 38//38
f 88//88 40//40 39//39
f 87//87 88//88 39//39
f 89//89 41//41 40//40
f 88//88 89//89 40//40
f 90//90 42//42 41//41
f 89//89 90//90 41//41
f 91//91 43//43 42//42
f 90//90 91//91 42//42
f 92//92 44//44 43//43
f 91//91 92//92 43//43
f 93//93 45//45 44//44
f 92//92 93//93 44//44
f 94//94 46//46 45//45
f 93//93 94//94 45//45
f 95//95 47//47 46//46
f 94//94 95//95 46//46
f 96//96 48//48 47//47
f 95//95 96//96 47//47
f 49//49 1//1 48//48
f 96//96 49//49 48//48
f 98//98 50//50 49//49
f 97//97 98//98 49//49
f 99//99 51//51 50//50
f 98//98 99//99 50//50
f 100//100 52//52 51//51
f 99//99 100//100 51//51
f 101//101 53//53 52//52
f 100//100 101//101 52//52
f 102//102 54//54 53//53
f 101//101 102//102 53//53
f 103//103 55//55 54//54
f 102//102 103//103 54//54
f 104//104 56//56 55//55
f 103//103 104//104 55//55
f 105//105 57//57 56//56
f 104//104 105//105 56//56
f 106//106 58//58 57//57
f 105//105 106//106 57//57
f 107//107 59//59 58//58
f 106//106 107//107 58//58
f 108//108 60//60 59//59
f 107//107 108//108 59//59
f 109//109 61//61 60//60
f 108//108 109//109 60//60
f 110//110 62//62 61//61
f 109//109 110//110 61//61
f 111//111 63//63 62//62
f 110//110 111//111 62//62
f 112//112 64//64 63//63
f 111//111 112//112 63//63
f 113//113 65//65 64//64
f 112//112 113//113 64//64
f 114//114 66//66 65//65
f 113//113 114//114 65//65
f 115//115 67//67 66//66
f 114//114 115//115 66//66
f 116//116 68//68 67//67
f 115//115 116//116 67//67
f 117//117 69//69 68//68
f 116//116 117//117 68//68
f 118//118 70//70 69//69
f 117//117 118//118 69//69
f 119//119 71//71 70//70
f 118//118 119//119 70//70
f 120//120 72//72 71//71
f 119//119 120//120 71//71
f 121//121 73//73 72//72
f 120//120 121//121 72//72
f 122//122 74//74 73//73
f 121//121 122//122 73//73
f 123//123 75//75 74//74
f 122//122 123//123 74//74
f 124//124 76//76 75//75
f 123//123 124//124 75//75
f 125//125 77//77 76//76
f 124//124 125//125 76//76
f 126//126 78//78 77//77
f 125//125 126//126 77//77
f 127//127 79//79 78//78
f 126//126 127//127 78//78
f 128//128 80//80 79//79
f 127//127 128//128 79//79
f 129//129 81//81 80//80
f 128//128 129//129 80//80
f 130//130 82//82 81//81
f 129//129 130//130 81//81
f 131//131 83//83 82//82
f 130//130 131//131 82//82
f 132//132 84//84 83//83
f 131//131 132//132 83//83
f 133//133 85//85 84//84
f 132//132 133//133 84//84
f 134//134 86//86 85//85
f 133//133 134//134 85//85
f 135//135 87//87 86//86
f 134//134 135//135 86//86
f 136//136 88//88 87//87
f 135//135 136//136 87//87
f 137//137 89//89 88//88
f 136//136 137//137 88//88
f 138//138 90//90 89//89
f 137//137 138//138 89//89
f 139//139 91//91 90//90
f 138//138 139//139 90//90
f 140//140 92//92 91//91
f 139//139 140//140 91//91
f 141//141 93//93 92//92
f 140//140 141//141 92//92
f 142//142 94//94 93//93
f 141//141 142//142 93//93
f 143//143 95//95 94//94
f 142//142 143//143 94//94
f 144//144 96//96 95//95
f 143//143 144//144 95//95
f 97//97 49//49 96//96
f 144//144 97//97 96//96
f 146//146 98//98 97//97
f 145//145 146//146 97//97
f 147//147 99//99 98//98
f 146//146 147//147 98//98
f 148//148 100//100 99//99
f 147//147 148//148 99//99
f 149//149 101//101 100//100
f 148//148 149//149 100//100
f 150//150 102//102 101//101
f 149//149 150//150 101//101
f 151//151 103//103 102//102
f 150//150 151//151 102//102
f 152//152 104//104 103//103
f 151//151 152//152 103//103
f 153//153 105//105 104//104
f 152//152 153//153 104//104
f 154//154 106//106 105//105
f 153//153 154//154 105//105
f 155//155 107//107 106//106
f 154//154 155//155 106//106
f 156//156 108//108 107//107
f 155//155 156//156 107//107
f 157//157 109//109 108//108
f 156//156 157//157 108//108
f 158//158 110//110 109//109
f 157//157 158//158 109//109
f 159//159 111//111 110//110
f 158//158 159//159 110//110
f 160//160 112//112 111//111
f 159//159 160//160 111//111
f 161//161 113//113 112//112
f 160//160 161//161 112//112
f 162//162 114//114 113//113
f 161//161 162//162 113//113
f 163//163 115//115 114//114
f 162//162 163//163 114//114
f 164//164 116//116 115//115
f 163//163 164//164 115//115
f 165//165 117//117 116//116
f 164//164 165//165 116//116
f 166//166 118//118 117//117
f 165//165 166//166 117//117
f 167//167 119//119 118//118
f 166//166 167//167 118//118
f 168//168 120//120 119//119
f 167//167 168//168 119//119
f 169//169 121//121 120//120
f 168//168 169//169 120//120
f 170//170 122//122 121//121
f 169//169 170//170 121//121
f 171//171 123//123 122//122
f 170//170 171//171 122//122
f 172//172 124//124 123//123
f 171//171 172//172 123//123
f 173//173 125//125 124//124
f 172//172 173//173 124//124
f 174//174 126//126 125//125
f 173//173 174//174 125//125
f 175//175 127//127 126//126
f 174//174 175//175 126//126
f 176//176 128//128 127//127
f 175//175 176//176 127//127
f 177//177 129//129 128//128
f 176//176 177//177 128//128
f 178//178 130//130 129//129
f 177//177 178//178 129//129
f 179//179 131//131 130//130
f 178//178 179//179 130//130
f 180//180 132//132 131//131
f 179//179 180//180 131//131
f 181//181 133//133 132//132
f 180//180 181//181 132//132
f 182//182 134//134 133//133
f 181//181 182//182 133//133
f 183//183 135//135 134//134
f 182//182 183//183 134//134
f 184//184 136//136 135//135
f 183//183 184//184 135//135
f 185//185 137//137 136//136
f 184//184 185//185 136//136
f 186//186 138//138 137//137
f 185//185 186//186 137//137
f 187//187 139//139 138//138
f 186//186 187//187 138//138
f 188//188 140//140 139//139
f 187//187 188//188 139//139
f 189//189 141//141 140//140
f 188//188 189//189 140//140
f 190//190 142//142 141//141
f 189//189 190//190 141//141
f 191//191 143//143 142//142
f 190//190 191//191 142//142
f 192//192 144//144 143//143
f 191//191 192//192 143//143
f 145//145 97//97 144//144
f 192//192 145//145 144//144
f 2//2 146//146 145//145
f 1//1 2//2 145//145
f 3//3 147//147 146//146
f 2//2 3//3 146//146
f 4//4 148//148 147//147
f 3//3 4//4 147//147
f 5//5 149//149 148//148
f 4//4 5//5 148//148
f 6//6 150//150 149//149
f 5//5 6//6 149//149
f 7//7 151//151 150//150
f 6//6 7//7 150//150
f 8//8 152//152 151//151
f 7//7 8//8 151//151
f 9//9 153//153 152//152
f 8//8 9//9 152//152
f 10//10 154//154 153//153
f 9//9 10//10 153//153
f 11//11 155//155 154//154
f 10//10 11//11 154//154
f 12//12 156//156 155//155
f 11//11 12//12 155//155
f 13//13 157//157 156//156
f 12//12 13//13 156//156
f 14//14 158//158 157//157
f 13//13 14//14 157//157
f 15//15 159//159 158//158
f 14//14 15//15 158//158
f 16//16 160//160 159//159
f 15//15 16//16 159//159
f 17//17 161//161 160//160
f 16//16 17//17 160//160
f 18//18 162//162 161//161
f 17//17 18//18 161//161
f 19//19 163//163 162//162
f 18//18 19//19 162//162
f 20//20 164//164 163//163
f 19//19 20//20 163//163
f 21//21 165//165 164//164
f 20//20 21//21 164//164
f 22//22 166//166 165//165
f 21//21 22//22 165//165
f 23//23 167//167 166//166
f 22//22 23//23 166//166
f 24//24 168//168 167//167
f 23//23 24//24 167//167
f 25//25 169//169 168//168
f 24//24 25//25 168//168
f 26//26 170//170 169//169
f 25//25 26//26 169//169
f 27//27 171//171 170//170
f 26//26 27//27 170//170
f 28//28 172//172 171//171
f 27//27 28//28 171//171
f 29//29 173//173 172//172
f 28//28 29//29 172//172
f 30//30 174//174 173//173
f 29//29 30//30 173//173
f 31//31 175//175 174//174
f 30//30 31//31 174//174
f 32//32 176//176 175//175
f 31//31 32//32 175//175
f 33//33 177//177 176//176
f 32//32 33//33 176//176
f 34//34 178//178 177//177
f 33//33 34//34 177//177
f 35//35 179//179 178//178
f 34//34 35//35 178//178
f 36//36 180//180 179//179
f 35//35 36//36 179//179
f 37//37 181//181 180//180
f 36//36 37//37 180//180
f 38//38 182//182 181//181
f 37//37 38//38 181//181
f 39//39 183//183 182//182
f 38//38 39//39 182//182
f 40//40 184//184 183//183
f 39//39 40//40 183//183
f 41//41 185//185 184//184
f 40//40 41//41 184//184
f 42//42 186//186 185//185
f 41//41 42//42 185//185
f 43//43 187//187 186//186
f 42//42 43//43 186//186
f 44//44 188//188 187//187
f 43//43 44//44 187//187
f 45//45 189//189 188//188
f 44//44 45//45 188//188
f 46//46 190//190 189//189
f 45//45 46//46 189//189
f 47//47 191//191 190//190
f 46//46 47//47 190//190
f 48//48 192//192 191//191
f 47//47 48//48 191//191
f 1//1 145//145 192//192
f 48//48 1//1 192//192
f 194//194 193//193 198//198
f 196//196 195//195 194//194
f 197//197 196//196 194//194
f 198//198 197//197 194//194
f 204//204 199//199 200//200
f 200//200 201//201 202//202
f 200//200 202//202 203//203
f 200//200 203//203 204//204
f 193//193 194//194 200//200
f 193//193 200//200 199//199
f 194//194 195//195 201//201
f 194//194 201//201 200//200
f 195//195 196//196 202//202
f 195//195 202//202 201//201
f 196//196 197//197 203//203
f 196//196 203//203 202//202
f 197//197 198//198 204//204
f 197//197 204//204 203//203
f 198//198 193//193 199//199
f 198//198 199//199 204//204
f 206//206 205//205 210//210
f 208//208 207//207 206//206
f 209//209 208//208 206//206
f 210//210 209//209 206//206
f 216//216 211//211 212//212
f 212//212 213//213 214//214
f 212//212 214//214 215//215
f 212//212 215//215 216//216
f 205//205 206//206 212//212
f 205//205 212//212 211//211
f 206//206 207//207 213//213
f 206//206 213//213 212//212
f 207//207 208//208 214//214
f 207//207 214//214 213//213
f 208//208 209//209 215//215
f 208//208 215//215 214//214
f 209//209 210//210 216//216
f 209//209 216//216 215//215
f 210//210 205//205 211//211
f 210//210 211//211 216//216
f 218//218 217//217 222//222
f 220//220 219//219 218//218
f 221//221 220//220 218//218
f 222//222 221//221 218//218
f 228//228 223//223 224//224
f 224//224 225//225 226//226
f 224//224 226//226 227//227
f 224//224 227//227 228//228
f 217//217 218//218 224//224
f 217//217 224//224 223//223
f 218//218 219//219 225//225
f 218//218 225//225 224//224
f 219//219 220//220 226//226
f 219//219 226//226 225//225
f 220//220 221//221 227//227
f 220//220 227//227 226//226
f 221//221 222//222 228//228
f 221//221 228//228 227//227
f 222//222 217//217 223//223
f 222//222 223//223 228//228
f 230//230 229//229 234//234
f 232//232 231//231 230//230
f 233//233 232//232 230//230
f 234//234 233//233 230//230
f 240//240 235//235 236//236
f 236//236 237//237 238//238
f 236//236 238//238 239//239
f 236//236 239//239 240//240
f 229//229 230//230 236//236
f 229//229 236//236 235//235
f 230//230 231//231 237//237
f 230//230 237//237 236//236
f 231//231 232//232 238//238
f 231//231 238//238 237//237
f 232//232 233//233 239//239
f 232//232 239//239 238//238
f 233//233 234//234 240//240
f 233//233 240//240 239//239
f 234//234 229//229 235//235
f 234//234 235//235 240//240
f 242//242 241//241 246//246
f 244//244 243//243 242//242
f 245//245 244//244 242//242
f 246//246 245//245 242//242
f 252//252 247//247 248//248
f 248//248 249//249 250//250
f 248//248 250//250 251//251
f 248//248 251//251 252//252
f 241//241 242//242 248//248
f 241//241 248//248 247//247
f 242//242 243//243 249//249
f 242//242 249//249 248//248
f 243//243 244//244 250//250
f 243//243 250//250 249//249
f 244//244 245//245 251//251
f 244//244 251//251 250//250
f 245//245 246//246 252//252
f 245//245 252//252 251//251
f 246//246 241//241 247//247
f 246//246 247//247 252//252
f 254//254 253//253 258//258
f 256//256 255//255 254//254
f 257//257 256//256 254//254
f 258//258 257//257 254//254
f 264//264 259//259 260//260
f 260//260 261//261 262//262
f 260//260 262//262 263//263
f 260//260 263//263 264//264
f 253//253 254//254 260//260
f 253//253 260//260 259//259
f 254//254 255//255 261//261
f 254//254 261//261 260//260
f 255//255 256//256 262//262
f 255//255 262//262 261//261
f 256//256 257//257 263//263
f 256//256 263//263 262//262
f 257//257 258//258 264//264
f 257//257 264//264 263//263
f 258//258 253//253 259//259
f 258//258 259//259 264//264
f 266//266 265//265 270//270
f 268//268 267//267 266//266
f 269//269 268//268 266//266
f 270//270 269//269 266//266
f 276//276 271//271 272//272
f 272//272 273//273 274//274
f 272//272 274//274 275//275
f 272//272 275//275 276//276
f 265//265 266//266 272//272
f 265//265 272//272 271//271
f 266//266 267//267 273//273
f 266//266 273//273 272//272
f 267//267 268//268 274//274
f 267//267 274//274 273//273
f 268//268 269//269 275//275
f 268//268 275//275 274//274
f 269//269 270//270 276//276
f 269//269 276//276 275//275
f 270//270 265//265 271//271
f 270//270 271//271 276//276
f 278//278 277//277 282//282
f 280//280 279//279 278//278
f 281//281 280//280 278//278
f 282//282 281//281 278//278
f 288//288 283//283 284//284
f 284//284 285//285 286//286
f 284//284 286//286 287//287
f 284//284 287//287 288//288
f 277//277 278//278 284//284
f 277//277 284//284 283//283
f 278//278 279//279 285//285
f 278//278 285//285 284//284
f 279//279 280//280 286//286
f 279//279 286//286 285//285
f 280//280 281//281 287//287
f 280//280 287//287 286//286
f 281//281 282//282 288//288
f 281//281 288//288 287//287
f 282//282 277//277 283//283
f 282//282 283//283 288//288
f 290//290 289//289 294//294
f 292//292 291//291 290//290
f 293//293 292//292 290//290
f 294//294 293//293 290//290
f 300//300 295//295 296//296
f 296//296 297//297 298//298
f 296//296 298//298 299//299
f 296//296 299//299 300//300
f 289//289 290//290 296//296
f 289//289 296//296 295//295
f 290//290 291//291 297//297
f 290//290 297//297 296//296
f 291//291 292//292 298//298
f 291//291 298//298 297//297
f 292//292 293//293 299//299
f 292//292 299//299 298//298
f 293//293 294//294 300//300
f 293//293 300//300 299//299
f 294//294 289//289 295//295
f 294//294 295//295 300//300
f 302//302 301//301 306//306
f 304//304 303//303 302//302
f 305//305 304//304 302//302
f 306//306 305//305 302//302
f 312//312 307//307 308//308
f 308//308 309//309 310//310
f 308//308 310//310 311//311
f 308//308 311//311 312//312
f 301//301 302//302 308//308
f 301//301 308//308 307//307
f 302//302 303//303 309//309
f 302//302 309//309 308//308
f 303//303 304//304 310//310
f 303//303 310//310 309//309
f 304//304 305//305 311//311
f 304//304 311//311 310//310
f 305//305 306//306 312//312
f 305//305 312//312 311//311
f 306//306 301//301 307//307
f 306//306 307//307 312//312
f 313//313 314//314 338//338
f 313//313 338//338 337//337
f 314//314 315//315 339//339
f 314//314 339//339 338//338
f 315//315 316//316 340//340
f 315//315 340//340 339//339
f 316//316 317//317 341//341
f 316//316 341//341 340//340
f 317//317 318//318 342//342
f 317//317 342//342 341//341
f 318//318 319//319 343//343
f 318//318 343//343 342//342
f 319//319 320//320 344//344
f 319//319 344//344 343//343
f 320//320 321//321 345//345
f 320//320 345//345 344//344
f 321//321 322//322 346//346
f 321//321 346//346 345//345
f 322//322 323//323 347//347
f 322//322 347//347 346//346
f 323//323 324//324 348//348
f 323//323 348//348 347//347
f 324//324 325//325 349//349
f 324//324 349//349 348//348
f 325//325 326//326 350//350
f 325//325 350//350 349//349
f 326//326 327//327 351//351
f 326//326 351//351 350//350
f 327//327 328//328 352//352
f 327//327 352//352 351//351
f 328//328 329//329 353//353
f 328//328 353//353 352//352
f 329//329 330//330 354//354
f 329//329 354//354 353//353
f 330//330 331//331 355//355
f 330//330 355//355 354//354
f 331//331 332//332 356//356
f 331//331 356//356 355//355
f 332//332 333//333 357//357
f 332//332 357//357 356//356
f 333//333 334//334 358//358
f 333//333 358//358 357//357
f 334//334 335//335 359//359
f 334//334 359//359 358//358
f 335//335 336//336 360//360
f 335//335 360//360 359//359
f 336//336 313//313 337//337
f 336//336 337//337 360//360
f 313//313 315//315 314//314
f 313//313 316//316 315//315
f 313//313 317//317 316//316
f 313//313 318//318 317//317
f 313//313 319//319 318//318
f 313//313 320//320 319//319
f 313//313 321//321 320//320
f 313//313 322//322 321//321
f 313//313 323//323 322//322
f 313//313 324//324 323//323
f 313//313 325//325 324//324
f 313//313 326//326 325//325
f 313//313 327//327 326//326
f 313//313 328//328 327//327
f 313//313 329//329 328//328
f 313//313 330//330 329//329
f 313//313 331//331 330//330
f 313//313 332//332 331//331
f 313//313 333//333 332//332
f 313//313 334//334 333//333
f 313//313 335//335 334//334
f 313//313 336//336 335//335
f 337//337 338//338 339//339
f 337//337 339//339 340//340
f 337//337 340//340 341//341
f 337//337 341//341 342//342
f 337//337 342//342 343//343
f 337//337 343//343 344//344
f 337//337 344//344 345//345
f 337//337 345//345 346//346
f 337//337 346//346 347//347
f 337//337 347//347 348//348
f 337//337 348//348 349//349
f 337//337 349//349 350//350
f 337//337 350//350 351//351
f 337//337 351//351 352//352
f 337//337 352//352 353//353
f 337//337 353//353 354//354
f 337//337 354//354 355//355
f 337//337 355//355 356//356
f 337//337 356//356 357//357
f 337//337 357//357 358//358
f 337//337 358//358 359//359
f 337//337 359//359 360//360
